<svg width="730" height="730" viewBox="0 0 730 730" fill="none" xmlns="http://www.w3.org/2000/svg">
<path d="M709.034 393.784C709.153 392.21 709.277 390.646 709.48 389.084C711.666 372.307 721.863 246.197 563.445 87.5882C393.185 -82.877 207.116 108.586 174.976 158.632C142.835 208.678 133.472 285.532 108.664 234.959C93.3268 203.695 133.303 164.546 76.6784 180.9C40.3478 191.393 -27.132 284.236 28.1845 443.758C83.501 603.281 238.87 724.975 388.184 716.098C580.195 704.684 693.254 565.432 684.279 555.079C675.305 544.726 603.79 575.611 619.502 554.099C634.971 532.926 704.522 452.975 709.034 393.784Z" fill="#92E3A9"/>
<path opacity="0.8" d="M709.034 393.784C709.153 392.21 709.277 390.646 709.48 389.084C711.666 372.307 721.863 246.197 563.445 87.5882C393.185 -82.877 207.116 108.586 174.976 158.632C142.835 208.678 133.472 285.532 108.664 234.959C93.3268 203.695 133.303 164.546 76.6784 180.9C40.3478 191.393 -27.132 284.236 28.1845 443.758C83.501 603.281 238.87 724.975 388.184 716.098C580.195 704.684 693.254 565.432 684.279 555.079C675.305 544.726 603.79 575.611 619.502 554.099C634.971 532.926 704.522 452.975 709.034 393.784Z" fill="white"/>
<path d="M383.479 584.552C560.271 584.552 703.59 523.651 703.59 448.526C703.59 373.401 560.271 312.5 383.479 312.5C206.686 312.5 63.3672 373.401 63.3672 448.526C63.3672 523.651 206.686 584.552 383.479 584.552Z" fill="#263238" stroke="#263238" stroke-width="2.97579" stroke-miterlimit="10"/>
<path d="M383.476 573.568C564.62 573.568 711.467 512.667 711.467 437.542C711.467 362.417 564.62 301.516 383.476 301.516C202.331 301.516 55.4844 362.417 55.4844 437.542C55.4844 512.667 202.331 573.568 383.476 573.568Z" fill="white" stroke="#263238" stroke-width="2.97579" stroke-miterlimit="10"/>
<path d="M383.476 562.595C564.62 562.595 711.467 501.694 711.467 426.569C711.467 351.444 564.62 290.543 383.476 290.543C202.331 290.543 55.4844 351.444 55.4844 426.569C55.4844 501.694 202.331 562.595 383.476 562.595Z" fill="white" stroke="#263238" stroke-width="2.97579" stroke-miterlimit="10"/>
<path d="M300.654 312.736C300.654 312.736 309.177 304.213 313.911 303.267C318.646 302.32 323.38 306.109 326.222 304.213C329.064 302.317 327.169 298.532 333.799 297.583C340.429 296.637 340.878 296.155 347.282 298.288C353.686 300.422 357.474 292.845 364.104 294.741C370.734 296.637 375.469 302.317 375.469 302.317C375.469 302.317 379.257 296.637 383.991 298.529C388.726 300.422 388.726 300.422 388.726 300.422C388.726 300.422 390.618 294.741 404.825 294.741C419.028 294.741 425.658 299.476 425.658 299.476C439.865 299.476 447.334 307.733 447.334 307.733C449.604 306.335 452.297 305.204 460.32 306.409C465.632 307.207 467.325 310.84 470.167 310.84C473.009 310.84 480.585 313.682 480.585 313.682L484.374 320.312C484.374 320.312 489.108 314.631 494.792 318.416C500.473 322.205 500.473 322.205 500.473 322.205C500.473 322.205 501.419 319.363 508.049 324.1C514.679 328.835 516.572 330.73 516.572 334.518C516.572 338.307 523.954 349.356 523.954 349.356L524.181 356.971C524.181 356.971 493.845 369.558 495.738 374.293C497.634 379.027 484.21 383.765 485.713 389.446C487.215 395.126 473.205 401.322 473.205 401.322L445.298 412.085L418.784 417.891L406.72 421.644L369.791 419.813L361.262 411.225L349.27 407.538L335.691 399.864L328.115 393.234L318.646 376.188L314.858 364.824C314.858 364.824 294.024 320.309 300.654 312.736Z" fill="white" stroke="#263238" stroke-width="2.97579" stroke-miterlimit="10"/>
<path d="M394.414 365.768C394.414 365.768 394.414 357.245 400.098 356.299C405.779 355.353 410.516 358.192 410.516 358.192C410.516 358.192 412.412 351.562 417.146 348.723C421.881 345.881 428.511 345.881 428.511 345.881C428.511 345.881 427.564 337.358 432.299 335.463C437.033 333.567 441.768 332.621 441.768 332.621C441.768 332.621 444.61 323.152 447.449 323.152C450.29 323.152 450.29 323.152 450.29 323.152C450.29 323.152 455.025 318.417 460.709 320.31C466.389 322.206 468.449 323.705 471.127 325.044C478.703 328.833 478.703 328.833 478.703 328.833C478.703 328.833 484.387 325.991 489.122 328.833C493.856 331.674 493.856 331.674 493.856 331.674C493.856 331.674 501.432 327.886 505.22 330.728" stroke="#263238" stroke-width="2.97579" stroke-miterlimit="10"/>
<path d="M328.109 341.144C328.109 341.144 335.686 328.833 340.42 330.726C345.155 332.621 340.42 333.568 345.155 332.621C349.889 331.675 351.785 322.203 356.519 323.152C361.254 324.099 365.988 326.941 365.988 326.941C365.988 326.941 367.884 318.418 373.565 321.26C379.245 324.102 379.245 324.102 379.245 324.102C379.245 324.102 383.98 320.313 389.664 324.102C395.344 327.89 395.344 327.89 395.344 327.89C402.921 333.571 402.921 333.571 402.921 333.571C402.921 333.571 406.709 332.624 411.443 336.412C416.178 340.201 417.127 348.723 417.127 348.723" stroke="#263238" stroke-width="2.97579" stroke-miterlimit="10"/>
<path d="M618.29 407.854C609.704 387.538 587.395 372.07 566.243 369.954C523.886 365.72 508.355 406.664 504.118 416.549C499.883 426.432 484.349 460.32 480.115 471.613C475.88 482.909 458.936 502.675 454.702 509.736C450.467 516.798 441.995 526.68 441.995 526.68L423.64 542.211C423.64 542.211 415.397 538.625 409.967 541.342C404.536 544.059 395.483 548.585 398.2 555.825C400.917 563.065 413.588 568.499 413.588 571.213C413.588 573.927 410.871 579.361 415.397 584.791C419.924 590.222 428.976 591.972 433.502 586.541C438.028 581.11 438.028 576.647 438.933 572.121C439.838 567.594 445.268 554.016 446.176 551.299C447.084 548.582 486.912 518.711 486.912 518.711C486.912 518.711 519.499 505.133 534.887 499.702C570.338 487.189 605.009 479.886 619.367 439.966C623.396 428.765 622.468 417.737 618.29 407.854Z" fill="#92E3A9" stroke="#263238" stroke-width="2.97579" stroke-miterlimit="10"/>
<path d="M409.967 541.336C404.536 544.053 395.483 548.579 398.2 555.819C400.917 563.062 413.588 568.493 413.588 571.207C413.588 573.921 410.871 579.355 415.397 584.786C419.924 590.216 428.976 591.966 433.502 586.535C438.028 581.105 438.028 576.638 438.933 572.112C439.838 567.586 445.268 554.007 446.176 551.29C446.658 549.844 458.186 540.69 468.854 532.45L470.616 530.469L465.185 523.225C465.185 523.225 465.185 523.225 461.564 521.416C457.942 519.607 461.564 521.416 459.755 515.985C457.945 510.555 441.995 526.671 441.995 526.671L423.64 542.202C423.64 542.202 415.397 538.619 409.967 541.336Z" fill="white" stroke="#263238" stroke-width="2.97579" stroke-miterlimit="10"/>
<path d="M411.984 558.785C411.984 558.785 420.126 563.671 419.04 565.841C419.04 565.841 413.612 570.182 412.526 578.869" stroke="#263238" stroke-width="2.97579" stroke-miterlimit="10"/>
<path d="M550.184 390.446C550.184 392.963 547.771 395.005 544.795 395.005C541.82 395.005 539.406 392.963 539.406 390.446C539.406 387.928 541.82 385.887 544.795 385.887C547.771 385.887 550.184 387.928 550.184 390.446Z" stroke="#263238" stroke-width="2.97579" stroke-miterlimit="10"/>
<path d="M569.253 395.021C571.083 395.021 572.568 393.165 572.568 390.876C572.568 388.586 571.083 386.73 569.253 386.73C567.422 386.73 565.938 388.586 565.938 390.876C565.938 393.165 567.422 395.021 569.253 395.021Z" stroke="#263238" stroke-width="2.97579" stroke-miterlimit="10"/>
<path d="M556.049 417.634C554.132 418.393 552.168 417.971 551.665 416.694C551.163 415.417 552.305 413.766 554.222 413.01C556.138 412.251 558.102 412.674 558.605 413.95C559.108 415.23 557.965 416.879 556.049 417.634Z" stroke="#263238" stroke-width="2.97579" stroke-miterlimit="10"/>
<path d="M514.13 425.693C516.191 425.693 517.862 423.837 517.862 421.548C517.862 419.258 516.191 417.402 514.13 417.402C512.069 417.402 510.398 419.258 510.398 421.548C510.398 423.837 512.069 425.693 514.13 425.693Z" stroke="#263238" stroke-width="2.97579" stroke-miterlimit="10"/>
<path d="M535.665 438.959C539.1 438.959 541.884 437.103 541.884 434.813C541.884 432.524 539.1 430.668 535.665 430.668C532.23 430.668 529.445 432.524 529.445 434.813C529.445 437.103 532.23 438.959 535.665 438.959Z" stroke="#263238" stroke-width="2.97579" stroke-miterlimit="10"/>
<path d="M589.159 413.255C589.159 415.543 587.489 417.4 585.427 417.4C583.365 417.4 581.695 415.543 581.695 413.255C581.695 410.966 583.365 409.109 585.427 409.109C587.489 409.109 589.159 410.966 589.159 413.255Z" stroke="#263238" stroke-width="2.97579" stroke-miterlimit="10"/>
<path d="M528.638 411.591C530.699 411.591 532.37 409.735 532.37 407.446C532.37 405.157 530.699 403.301 528.638 403.301C526.577 403.301 524.906 405.157 524.906 407.446C524.906 409.735 526.577 411.591 528.638 411.591Z" stroke="#263238" stroke-width="2.97579" stroke-miterlimit="10"/>
<path d="M568.825 441.44C570.886 441.44 572.557 440.327 572.557 438.953C572.557 437.579 570.886 436.465 568.825 436.465C566.764 436.465 565.094 437.579 565.094 438.953C565.094 440.327 566.764 441.44 568.825 441.44Z" stroke="#263238" stroke-width="2.97579" stroke-miterlimit="10"/>
<path d="M509.546 451.394C509.546 452.769 508.433 453.882 507.058 453.882C505.683 453.882 504.57 452.769 504.57 451.394C504.57 450.019 505.683 448.906 507.058 448.906C508.433 448.906 509.546 450.022 509.546 451.394Z" stroke="#263238" stroke-width="2.97579" stroke-miterlimit="10"/>
<path d="M156.648 468.155C156.648 468.155 169.069 515.726 177.024 524.886C184.978 534.045 205.317 550.183 231.296 547.023C257.272 543.862 265.092 528.995 288.904 518.643C312.714 508.29 349.456 506.022 375.765 493.75C402.071 481.478 416.72 479.08 426.195 464.775C435.67 450.47 432.837 415.383 432.837 415.383L156.648 468.155Z" fill="#92E3A9" stroke="#263238" stroke-width="2.97579" stroke-miterlimit="10"/>
<path d="M366.421 338.497C361.059 335.986 318.026 312.162 273.005 316.631C227.982 321.101 188.668 361.131 178.994 395.412C169.32 429.696 148.442 456.214 160.744 478.193C173.048 500.172 195.953 531.685 219.03 533.599C242.111 535.512 271.922 500.163 282.593 497.857C293.264 495.55 338.961 477.467 367.391 475.267C395.822 473.068 446.871 450.869 431.731 408.152C416.587 365.437 381.773 345.693 366.421 338.497Z" fill="white" stroke="#263238" stroke-width="2.97579" stroke-miterlimit="10"/>
<path d="M251.018 339.739C251.018 339.739 238.535 349.33 216.345 365.768C194.157 382.207 180.299 390.411 184.072 406.447C187.842 422.487 184.504 426.885 177.264 437.336C170.021 447.787 171.86 464.091 175.663 474.608C179.466 485.124 203.001 521.714 221.817 515.197C240.633 508.68 250.62 501.006 263.136 485.892C275.652 470.778 308.838 462.69 330.433 453.426C352.029 444.165 378.513 401.516 372.246 387.396C365.979 373.276 358.602 359.701 336.593 345.762C314.584 331.823 286.16 328.619 279.526 329.133C272.893 329.651 251.018 339.739 251.018 339.739Z" fill="#92E3A9" stroke="#263238" stroke-width="2.97579" stroke-miterlimit="10"/>
<path d="M386.924 382.251C386.924 382.251 383.933 420.895 369.482 436.274C355.032 451.653 373.205 460.598 382.034 461.755C390.864 462.913 426.067 440.752 422.591 421.124C419.116 401.496 404.88 380.978 396.363 373.47C387.849 365.962 386.924 382.251 386.924 382.251Z" fill="#92E3A9" stroke="#263238" stroke-width="2.97579" stroke-miterlimit="10"/>
<path d="M349.517 451.614C349.517 451.614 341.73 460.958 328.172 465.57C314.614 470.186 288.338 476.935 296.325 480.571C304.312 484.208 349.964 469.29 357.722 465.469C365.477 461.648 354.213 451.367 349.517 451.614Z" fill="#92E3A9" stroke="#263238" stroke-width="2.97579" stroke-miterlimit="10"/>
<path d="M186.25 461.086C186.25 461.086 188.878 453.351 212.618 442.728C236.359 432.104 243.219 437.312 253.58 432.206C263.942 427.099 268.712 421.531 285.906 425.939C303.1 430.346 309.546 432.536 309.546 432.536" stroke="#263238" stroke-width="2.97579" stroke-miterlimit="10"/>
<path d="M202.039 414.679C202.039 414.679 208.122 405.243 217.171 404.005C226.22 402.767 233.127 399.363 237.433 399.389C241.739 399.413 249.524 393.432 249.524 393.432C263.754 389.641 263.754 389.641 263.754 389.641" stroke="#263238" stroke-width="2.97579" stroke-miterlimit="10"/>
<path d="M309.493 369.242C309.493 369.242 285.416 363.933 278.944 366.049C272.475 368.165 260.848 368.525 260.848 368.525L249.659 367.596L233.703 372.239" stroke="#263238" stroke-width="2.97579" stroke-miterlimit="10"/>
<path d="M202.891 483.98C202.891 483.98 222.325 473.333 229.649 472.946C236.969 472.559 243.465 466.141 243.465 466.141" stroke="#263238" stroke-width="2.97579" stroke-miterlimit="10"/>
</svg>
