<svg width="842" height="561" viewBox="0 0 842 561" fill="none" xmlns="http://www.w3.org/2000/svg">
<g clip-path="url(#clip0_978_13643)">
<path d="M710.261 88.8732C655.039 56.379 592.413 42.9184 529.738 34.4697C469.208 26.3105 407.091 30.5719 348.119 46.3708C322.308 53.2856 297.086 62.4165 272.86 73.6903C250.16 84.254 228.239 103.165 203.509 108.067C211.791 96.5129 220.073 84.9586 228.356 73.4042C233.132 66.7418 237.832 57.1857 232.306 51.1292C230.053 48.6596 226.628 47.6319 223.319 47.1449C210.535 45.2633 197.7 49.8972 186.102 55.5925C132.661 81.8349 89.028 130.774 55.8482 179.191C1.09575 259.083 7.17923 390.213 69.7532 454.476C132.327 518.738 266.165 550.002 321.786 543.054C364.009 537.78 318.515 512.705 309.17 497.503C308.355 496.178 307.59 494.719 307.658 493.165C307.772 490.505 310.202 488.594 312.505 487.257C331.797 476.055 356.453 479.348 377.806 477.669C411.769 474.996 446.006 473.894 480.062 475.155C484.687 475.327 538.069 476.601 533.838 487.483C530.476 496.124 517.209 503.107 510.244 508.397C504.894 512.46 470.262 535.997 480.257 544.034C483.019 546.255 486.761 546.712 490.291 547.054C548.77 552.719 608.951 550.976 666.532 538.796C716.677 528.188 772.028 510.929 801.948 466.109C832.461 420.402 834.325 359.353 822.686 307.255C819.915 294.851 816.272 282.63 811.666 270.781C807.39 259.784 800.593 250.516 794.92 240.242C792.633 236.102 791.054 231.113 792.702 226.68C799.969 207.12 821.07 246.127 826.826 225.179C829.621 215.007 824.234 199.918 820.816 190.313C814.655 173.005 804.226 157.438 791.739 144.053C767.865 118.466 739.568 106.118 710.261 88.8732Z" fill="#92E3A9"/>
<path opacity="0.7" d="M710.261 88.8732C655.039 56.379 592.413 42.9184 529.738 34.4697C469.208 26.3105 407.091 30.5719 348.119 46.3708C322.308 53.2856 297.086 62.4165 272.86 73.6903C250.16 84.254 228.239 103.165 203.509 108.067C211.791 96.5129 220.073 84.9586 228.356 73.4042C233.132 66.7418 237.832 57.1857 232.306 51.1292C230.053 48.6596 226.628 47.6319 223.319 47.1449C210.535 45.2633 197.7 49.8972 186.102 55.5925C132.661 81.8349 89.028 130.774 55.8482 179.191C1.09575 259.083 7.17923 390.213 69.7532 454.476C132.327 518.738 266.165 550.002 321.786 543.054C364.009 537.78 318.515 512.705 309.17 497.503C308.355 496.178 307.59 494.719 307.658 493.165C307.772 490.505 310.202 488.594 312.505 487.257C331.797 476.055 356.453 479.348 377.806 477.669C411.769 474.996 446.006 473.894 480.062 475.155C484.687 475.327 538.069 476.601 533.838 487.483C530.476 496.124 517.209 503.107 510.244 508.397C504.894 512.46 470.262 535.997 480.257 544.034C483.019 546.255 486.761 546.712 490.291 547.054C548.77 552.719 608.951 550.976 666.532 538.796C716.677 528.188 772.028 510.929 801.948 466.109C832.461 420.402 834.325 359.353 822.686 307.255C819.915 294.851 816.272 282.63 811.666 270.781C807.39 259.784 800.593 250.516 794.92 240.242C792.633 236.102 791.054 231.113 792.702 226.68C799.969 207.12 821.07 246.127 826.826 225.179C829.621 215.007 824.234 199.918 820.816 190.313C814.655 173.005 804.226 157.438 791.739 144.053C767.865 118.466 739.568 106.118 710.261 88.8732Z" fill="white"/>
<path d="M770.388 134.301C769.915 134.009 769.432 133.744 768.943 133.511C761.41 129.923 755.311 132.793 751.723 138.175C748.135 143.556 747.059 146.426 744.548 143.915C742.037 141.404 738.091 137.816 732.35 141.045C726.61 144.274 727.686 147.502 724.458 148.22C721.229 148.937 719.077 145.709 714.054 146.785C709.032 147.861 706.162 151.807 705.085 152.525C704.009 153.243 695.398 156.471 695.398 156.471H806.97C806.97 156.471 805.176 146.426 799.436 143.556C793.696 140.686 789.391 145.708 786.163 147.861C782.934 150.014 782.217 148.22 782.217 148.22C782.217 148.22 779.178 142.334 774.623 137.745" stroke="#263238" stroke-width="1.122" stroke-miterlimit="10" stroke-linecap="round" stroke-linejoin="round"/>
<path d="M367.935 145.691C367.462 145.399 366.979 145.134 366.49 144.901C358.957 141.314 352.858 144.184 349.27 149.565C345.683 154.946 344.606 157.816 342.095 155.305C339.583 152.794 335.637 149.206 329.897 152.435C324.157 155.664 325.233 158.892 322.005 159.61C318.776 160.327 316.624 157.099 311.601 158.175C306.579 159.251 303.709 163.197 302.632 163.915C301.556 164.633 292.945 167.861 292.945 167.861H404.517C404.517 167.861 402.723 157.816 396.983 154.946C391.243 152.076 386.937 157.098 383.709 159.251C380.48 161.404 379.763 159.61 379.763 159.61C379.763 159.61 376.726 153.724 372.17 149.135" stroke="#263238" stroke-width="1.122" stroke-miterlimit="10" stroke-linecap="round" stroke-linejoin="round"/>
<path d="M100.037 170.304C99.5634 170.012 99.0809 169.747 98.5917 169.514C91.0575 165.927 84.9594 168.797 81.3713 174.178C77.7831 179.559 76.7071 182.429 74.1961 179.918C71.685 177.407 67.739 173.819 61.9988 177.048C56.2587 180.277 57.3347 183.505 54.1067 184.223C50.8776 184.94 48.7256 181.712 43.7024 182.788C38.6803 183.864 35.8102 187.81 34.7331 188.529C33.6571 189.247 25.0469 192.475 25.0469 192.475H136.619C136.619 192.475 134.824 182.429 129.084 179.559C123.344 176.689 119.039 181.711 115.811 183.864C112.582 186.017 111.865 184.223 111.865 184.223C111.865 184.223 108.827 178.337 104.271 173.748" stroke="#263238" stroke-width="1.122" stroke-miterlimit="10" stroke-linecap="round" stroke-linejoin="round"/>
<path d="M353.406 52.5297C352.498 51.9698 351.574 51.4616 350.635 51.015C336.186 44.1349 324.49 49.6383 317.609 59.9596C310.729 70.2798 308.664 75.7843 303.847 70.9687C299.032 66.1519 291.463 59.2718 280.455 65.4641C269.446 71.6565 271.51 77.8488 265.318 79.2243C259.126 80.5999 254.998 74.4076 245.364 76.4721C235.732 78.5366 230.227 86.1045 228.163 87.4811C226.098 88.8578 209.586 95.049 209.586 95.049H423.565C423.565 95.049 420.125 75.7843 409.116 70.2798C398.107 64.7752 389.851 74.4076 383.659 78.5366C377.466 82.6655 376.091 79.2243 376.091 79.2243C376.091 79.2243 370.264 67.9359 361.527 59.1349" stroke="#263238" stroke-width="1.122" stroke-miterlimit="10" stroke-linecap="round" stroke-linejoin="round"/>
<path d="M128.098 385.904C128.098 414.284 111.31 437.291 90.5999 437.291C69.89 437.291 53.1016 414.284 53.1016 385.904C53.1016 357.524 69.89 259.984 90.5999 259.984C111.31 259.984 128.098 357.524 128.098 385.904Z" fill="#92E3A9"/>
<path opacity="0.53" d="M128.098 385.904C128.098 414.284 111.31 437.291 90.5999 437.291C69.89 437.291 53.1016 414.284 53.1016 385.904C53.1016 357.524 69.89 259.984 90.5999 259.984C111.31 259.984 128.098 357.524 128.098 385.904Z" fill="white"/>
<path d="M70.3435 388.454L82.3029 392.626L88.2282 400.679L87.1914 425.338L80.2979 420.66L86.9771 430.44L85.412 467.693H92.7274L91.7625 411.701L111.625 400.751L100.271 404.95L102.548 398.116L97.12 406.115L91.7008 408.12L91.3137 385.676L111.04 359.468L100.468 370.04L102.255 362.69L97.1986 373.309L91.2037 379.304L90.599 344.238L88.4503 395.38L69.7578 375.571L80.0252 389.53L70.3435 388.454Z" fill="#B2B2B2"/>
<path d="M111.226 344.352C111.226 344.352 111.573 347.796 109.69 350.325C107.808 352.854 104.408 353.509 104.408 353.509C104.408 353.509 104.061 350.065 105.944 347.536C107.827 345.007 111.226 344.352 111.226 344.352Z" fill="white"/>
<path d="M122.531 360.227C122.531 360.227 122.878 363.671 120.995 366.201C119.112 368.73 115.713 369.385 115.713 369.385C115.713 369.385 115.366 365.941 117.249 363.412C119.131 360.883 122.531 360.227 122.531 360.227Z" fill="white"/>
<path d="M122.528 391.145C122.528 391.145 121.694 394.506 119.07 396.254C116.446 398.001 113.023 397.474 113.023 397.474C113.023 397.474 113.857 394.114 116.481 392.366C119.106 390.617 122.528 391.145 122.528 391.145Z" fill="white"/>
<path d="M60.4531 391.145C60.4531 391.145 61.2868 394.506 63.9111 396.254C66.5355 398.001 69.9576 397.474 69.9576 397.474C69.9576 397.474 69.1239 394.114 66.4996 392.366C63.8752 390.617 60.4531 391.145 60.4531 391.145Z" fill="white"/>
<path d="M109.47 378.309C109.47 378.309 109.816 381.753 107.934 384.283C106.051 386.812 102.65 387.467 102.65 387.467C102.65 387.467 102.303 384.023 104.186 381.493C106.069 378.965 109.47 378.309 109.47 378.309Z" fill="white"/>
<path d="M106.539 327.074C106.539 327.074 106.886 330.52 105.003 333.049C103.12 335.578 99.7204 336.233 99.7204 336.233C99.7204 336.233 99.3737 332.789 101.256 330.26C103.139 327.729 106.539 327.074 106.539 327.074Z" fill="white"/>
<path d="M99.8045 340.25C99.8045 340.25 100.151 343.695 98.2684 346.224C96.3857 348.753 92.9861 349.408 92.9861 349.408C92.9861 349.408 92.6394 345.963 94.5221 343.433C96.4048 340.905 99.8045 340.25 99.8045 340.25Z" fill="white"/>
<path d="M115.797 330.66C115.797 330.66 116.143 334.105 114.261 336.634C112.378 339.163 108.978 339.818 108.978 339.818C108.978 339.818 108.632 336.373 110.514 333.844C112.397 331.315 115.797 330.66 115.797 330.66Z" fill="white"/>
<path d="M63.8454 330.66C63.8454 330.66 63.4987 334.105 65.3814 336.634C67.2642 339.163 70.6638 339.818 70.6638 339.818C70.6638 339.818 71.0105 336.373 69.1278 333.844C67.2451 331.315 63.8454 330.66 63.8454 330.66Z" fill="white"/>
<path d="M108 310.973C108 310.973 108.346 314.418 106.464 316.947C104.581 319.476 101.181 320.132 101.181 320.132C101.181 320.132 100.835 316.687 102.717 314.157C104.6 311.628 108 310.973 108 310.973Z" fill="white"/>
<path d="M104.689 293.867C104.689 293.867 105.891 297.114 104.703 300.036C103.516 302.956 100.39 304.445 100.39 304.445C100.39 304.445 99.188 301.198 100.376 298.277C101.563 295.355 104.689 293.867 104.689 293.867Z" fill="white"/>
<path d="M80.9823 289.395C80.9823 289.395 84.0499 291.001 85.1247 293.966C86.1996 296.93 84.8756 300.129 84.8756 300.129C84.8756 300.129 81.8081 298.522 80.7332 295.558C79.6583 292.593 80.9823 289.395 80.9823 289.395Z" fill="white"/>
<path d="M92.0369 309.852C92.0369 309.852 94.2215 312.538 94.0408 315.686C93.8602 318.834 91.3817 321.252 91.3817 321.252C91.3817 321.252 89.1972 318.566 89.3778 315.419C89.5584 312.269 92.0369 309.852 92.0369 309.852Z" fill="white"/>
<path d="M91.451 279.402C91.451 279.402 93.6355 282.088 93.4549 285.236C93.2743 288.383 90.7958 290.801 90.7958 290.801C90.7958 290.801 88.6112 288.115 88.7919 284.966C88.9725 281.82 91.451 279.402 91.451 279.402Z" fill="white"/>
<path d="M66.6423 344.352C66.6423 344.352 66.2956 347.796 68.1783 350.325C70.061 352.854 73.4607 353.509 73.4607 353.509C73.4607 353.509 73.8074 350.065 71.9247 347.536C70.042 345.007 66.6423 344.352 66.6423 344.352Z" fill="white"/>
<path d="M60.197 363.086C60.197 363.086 59.8503 366.53 61.733 369.059C63.6157 371.588 67.0154 372.244 67.0154 372.244C67.0154 372.244 67.3621 368.799 65.4794 366.269C63.5967 363.742 60.197 363.086 60.197 363.086Z" fill="white"/>
<path d="M77.2986 369.891C77.2986 369.891 76.9519 373.335 78.8346 375.864C80.7173 378.393 84.117 379.048 84.117 379.048C84.117 379.048 84.4636 375.603 82.5809 373.074C80.6982 370.546 77.2986 369.891 77.2986 369.891Z" fill="white"/>
<path d="M81.9684 343.926C81.9684 343.926 80.6501 347.127 81.7294 350.09C82.8099 353.052 85.8797 354.654 85.8797 354.654C85.8797 354.654 87.1981 351.453 86.1187 348.49C85.0382 345.527 81.9684 343.926 81.9684 343.926Z" fill="white"/>
<path d="M69.8594 413.016C69.8594 413.016 73.3207 413.078 75.687 410.995C78.0533 408.911 78.4281 405.469 78.4281 405.469C78.4281 405.469 74.9667 405.406 72.6004 407.49C70.2341 409.573 69.8594 413.016 69.8594 413.016Z" fill="white"/>
<path d="M103.078 409.225C103.078 409.225 104.018 412.558 106.698 414.221C109.377 415.883 112.78 415.246 112.78 415.246C112.78 415.246 111.84 411.914 109.16 410.251C106.481 408.588 103.078 409.225 103.078 409.225Z" fill="white"/>
<path d="M73.7204 327.074C73.7204 327.074 73.3737 330.52 75.2565 333.049C77.1392 335.578 80.5399 336.233 80.5399 336.233C80.5399 336.233 80.8866 332.789 79.0039 330.26C77.1212 327.729 73.7204 327.074 73.7204 327.074Z" fill="white"/>
<path d="M73.6736 311.852C73.6736 311.852 73.3269 315.296 75.2096 317.825C77.0923 320.354 80.4931 321.009 80.4931 321.009C80.4931 321.009 80.8398 317.564 78.9571 315.035C77.0743 312.507 73.6736 311.852 73.6736 311.852Z" fill="white"/>
<path d="M796.395 411.432C796.395 439.811 779.607 462.818 758.897 462.818C738.187 462.818 721.398 439.811 721.398 411.432C721.398 383.052 738.187 285.512 758.897 285.512C779.608 285.512 796.395 383.052 796.395 411.432Z" fill="#92E3A9"/>
<path opacity="0.53" d="M796.395 411.432C796.395 439.811 779.607 462.818 758.897 462.818C738.187 462.818 721.398 439.811 721.398 411.432C721.398 383.052 738.187 285.512 758.897 285.512C779.608 285.512 796.395 383.052 796.395 411.432Z" fill="white"/>
<path d="M738.64 413.981L750.601 418.154L756.525 426.208L755.489 450.866L748.595 446.187L755.275 455.969L753.71 493.22H761.025L760.059 437.228L779.922 426.278L768.567 430.478L770.846 423.643L765.418 431.643L759.998 433.648L759.611 411.203L779.336 384.997L768.765 395.567L770.553 388.217L765.497 398.837L759.502 404.831L758.897 369.766L756.748 420.909L738.055 401.1L748.323 415.057L738.64 413.981Z" fill="#B2B2B2"/>
<path d="M779.523 369.879C779.523 369.879 779.87 373.325 777.987 375.854C776.104 378.383 772.705 379.038 772.705 379.038C772.705 379.038 772.358 375.593 774.241 373.063C776.124 370.534 779.523 369.879 779.523 369.879Z" fill="white"/>
<path d="M790.828 385.758C790.828 385.758 791.175 389.202 789.292 391.732C787.409 394.261 784.009 394.917 784.009 394.917C784.009 394.917 783.663 391.472 785.546 388.943C787.428 386.413 790.828 385.758 790.828 385.758Z" fill="white"/>
<path d="M790.825 416.676C790.825 416.676 789.992 420.037 787.367 421.785C784.742 423.533 781.32 423.005 781.32 423.005C781.32 423.005 782.153 419.645 784.778 417.897C787.404 416.149 790.825 416.676 790.825 416.676Z" fill="white"/>
<path d="M728.75 416.676C728.75 416.676 729.583 420.037 732.208 421.785C734.832 423.533 738.254 423.005 738.254 423.005C738.254 423.005 737.422 419.645 734.796 417.897C732.172 416.149 728.75 416.676 728.75 416.676Z" fill="white"/>
<path d="M777.765 403.84C777.765 403.84 778.112 407.284 776.229 409.815C774.347 412.343 770.947 412.999 770.947 412.999C770.947 412.999 770.6 409.554 772.483 407.025C774.366 404.495 777.765 403.84 777.765 403.84Z" fill="white"/>
<path d="M774.837 352.605C774.837 352.605 775.184 356.05 773.301 358.579C771.418 361.108 768.017 361.763 768.017 361.763C768.017 361.763 767.671 358.319 769.553 355.79C771.437 353.262 774.837 352.605 774.837 352.605Z" fill="white"/>
<path d="M768.102 365.781C768.102 365.781 768.449 369.226 766.566 371.756C764.684 374.285 761.283 374.94 761.283 374.94C761.283 374.94 760.936 371.496 762.819 368.966C764.703 366.437 768.102 365.781 768.102 365.781Z" fill="white"/>
<path d="M784.093 356.188C784.093 356.188 784.44 359.632 782.557 362.161C780.675 364.69 777.275 365.345 777.275 365.345C777.275 365.345 776.928 361.901 778.811 359.372C780.694 356.843 784.093 356.188 784.093 356.188Z" fill="white"/>
<path d="M732.15 356.188C732.15 356.188 731.803 359.632 733.686 362.161C735.569 364.69 738.969 365.345 738.969 365.345C738.969 365.345 739.315 361.901 737.432 359.372C735.55 356.843 732.15 356.188 732.15 356.188Z" fill="white"/>
<path d="M776.297 336.504C776.297 336.504 776.643 339.948 774.761 342.477C772.878 345.006 769.478 345.662 769.478 345.662C769.478 345.662 769.132 342.217 771.014 339.687C772.897 337.158 776.297 336.504 776.297 336.504Z" fill="white"/>
<path d="M772.986 319.398C772.986 319.398 774.188 322.646 773 325.567C771.812 328.488 768.686 329.977 768.686 329.977C768.686 329.977 767.485 326.73 768.673 323.808C769.86 320.887 772.986 319.398 772.986 319.398Z" fill="white"/>
<path d="M749.279 314.926C749.279 314.926 752.347 316.532 753.422 319.497C754.496 322.461 753.173 325.66 753.173 325.66C753.173 325.66 750.105 324.053 749.03 321.089C747.955 318.126 749.279 314.926 749.279 314.926Z" fill="white"/>
<path d="M760.334 335.383C760.334 335.383 762.518 338.069 762.338 341.217C762.157 344.366 759.679 346.783 759.679 346.783C759.679 346.783 757.494 344.097 757.675 340.949C757.855 337.801 760.334 335.383 760.334 335.383Z" fill="white"/>
<path d="M759.756 304.934C759.756 304.934 761.94 307.62 761.76 310.767C761.579 313.915 759.1 316.332 759.1 316.332C759.1 316.332 756.916 313.646 757.097 310.498C757.277 307.35 759.756 304.934 759.756 304.934Z" fill="white"/>
<path d="M734.939 369.879C734.939 369.879 734.592 373.325 736.475 375.854C738.358 378.383 741.758 379.038 741.758 379.038C741.758 379.038 742.104 375.593 740.222 373.063C738.339 370.534 734.939 369.879 734.939 369.879Z" fill="white"/>
<path d="M728.494 388.617C728.494 388.617 728.147 392.062 730.03 394.592C731.913 397.121 735.313 397.776 735.313 397.776C735.313 397.776 735.66 394.332 733.777 391.801C731.895 389.272 728.494 388.617 728.494 388.617Z" fill="white"/>
<path d="M745.595 395.422C745.595 395.422 745.249 398.866 747.131 401.395C749.014 403.924 752.414 404.58 752.414 404.58C752.414 404.58 752.761 401.135 750.878 398.605C748.995 396.077 745.595 395.422 745.595 395.422Z" fill="white"/>
<path d="M750.265 369.457C750.265 369.457 748.947 372.658 750.026 375.621C751.106 378.583 754.175 380.186 754.175 380.186C754.175 380.186 755.495 376.985 754.414 374.021C753.335 371.059 750.265 369.457 750.265 369.457Z" fill="white"/>
<path d="M738.156 438.543C738.156 438.543 741.619 438.606 743.984 436.522C746.35 434.439 746.725 430.996 746.725 430.996C746.725 430.996 743.264 430.933 740.897 433.017C738.531 435.102 738.156 438.543 738.156 438.543Z" fill="white"/>
<path d="M771.375 434.756C771.375 434.756 772.315 438.089 774.995 439.751C777.674 441.414 781.077 440.777 781.077 440.777C781.077 440.777 780.137 437.445 777.457 435.782C774.779 434.12 771.375 434.756 771.375 434.756Z" fill="white"/>
<path d="M742.017 352.605C742.017 352.605 741.671 356.05 743.553 358.579C745.436 361.108 748.836 361.763 748.836 361.763C748.836 361.763 749.182 358.319 747.3 355.79C745.417 353.262 742.017 352.605 742.017 352.605Z" fill="white"/>
<path d="M741.97 337.379C741.97 337.379 741.624 340.823 743.506 343.352C745.389 345.881 748.789 346.537 748.789 346.537C748.789 346.537 749.136 343.092 747.253 340.562C745.37 338.034 741.97 337.379 741.97 337.379Z" fill="white"/>
<path d="M708.63 339.17C708.63 367.55 691.841 390.556 671.131 390.556C650.421 390.556 633.633 367.55 633.633 339.17C633.633 310.79 650.421 213.25 671.131 213.25C691.841 213.25 708.63 310.79 708.63 339.17Z" fill="#92E3A9"/>
<path opacity="0.53" d="M708.63 339.17C708.63 367.55 691.841 390.556 671.131 390.556C650.421 390.556 633.633 367.55 633.633 339.17C633.633 310.79 650.421 213.25 671.131 213.25C691.841 213.25 708.63 310.79 708.63 339.17Z" fill="white"/>
<path d="M650.875 341.72L662.834 345.892L668.759 353.946L667.723 378.604L660.829 373.926L667.508 383.707L665.943 420.959H673.26L672.294 364.966L692.156 354.017L680.802 358.216L683.081 351.381L677.651 359.381L672.232 361.386L671.845 338.942L691.571 312.735L680.999 323.307L682.788 315.955L677.73 326.575L671.735 332.57L671.13 297.504L668.982 348.647L650.289 328.838L660.556 342.796L650.875 341.72Z" fill="#B2B2B2"/>
<path d="M691.765 297.613C691.765 297.613 692.112 301.058 690.229 303.588C688.347 306.117 684.947 306.772 684.947 306.772C684.947 306.772 684.6 303.328 686.483 300.799C688.366 298.269 691.765 297.613 691.765 297.613Z" fill="white"/>
<path d="M703.07 313.492C703.07 313.492 703.417 316.937 701.534 319.467C699.651 321.996 696.252 322.651 696.252 322.651C696.252 322.651 695.905 319.207 697.788 316.678C699.67 314.147 703.07 313.492 703.07 313.492Z" fill="white"/>
<path d="M703.067 344.411C703.067 344.411 702.234 347.771 699.609 349.519C696.985 351.266 693.562 350.74 693.562 350.74C693.562 350.74 694.395 347.379 697.021 345.631C699.645 343.883 703.067 344.411 703.067 344.411Z" fill="white"/>
<path d="M640.992 344.411C640.992 344.411 641.826 347.771 644.45 349.519C647.075 351.266 650.497 350.74 650.497 350.74C650.497 350.74 649.664 347.379 647.039 345.631C644.414 343.883 640.992 344.411 640.992 344.411Z" fill="white"/>
<path d="M690.008 331.574C690.008 331.574 690.354 335.019 688.472 337.549C686.589 340.078 683.189 340.733 683.189 340.733C683.189 340.733 682.842 337.287 684.725 334.758C686.608 332.229 690.008 331.574 690.008 331.574Z" fill="white"/>
<path d="M687.078 280.34C687.078 280.34 687.425 283.784 685.542 286.313C683.659 288.842 680.26 289.498 680.26 289.498C680.26 289.498 679.913 286.053 681.795 283.524C683.678 280.995 687.078 280.34 687.078 280.34Z" fill="white"/>
<path d="M680.345 293.516C680.345 293.516 680.691 296.96 678.809 299.489C676.926 302.018 673.525 302.673 673.525 302.673C673.525 302.673 673.178 299.229 675.061 296.699C676.944 294.171 680.345 293.516 680.345 293.516Z" fill="white"/>
<path d="M696.336 283.922C696.336 283.922 696.682 287.368 694.8 289.897C692.917 292.426 689.517 293.081 689.517 293.081C689.517 293.081 689.171 289.636 691.053 287.106C692.936 284.577 696.336 283.922 696.336 283.922Z" fill="white"/>
<path d="M644.384 283.922C644.384 283.922 644.038 287.368 645.921 289.897C647.803 292.426 651.203 293.081 651.203 293.081C651.203 293.081 651.55 289.636 649.667 287.106C647.784 284.577 644.384 283.922 644.384 283.922Z" fill="white"/>
<path d="M688.539 264.238C688.539 264.238 688.886 267.683 687.003 270.212C685.12 272.741 681.72 273.396 681.72 273.396C681.72 273.396 681.374 269.951 683.256 267.421C685.139 264.894 688.539 264.238 688.539 264.238Z" fill="white"/>
<path d="M685.236 247.133C685.236 247.133 686.438 250.38 685.25 253.302C684.062 256.223 680.936 257.711 680.936 257.711C680.936 257.711 679.735 254.464 680.923 251.542C682.11 248.622 685.236 247.133 685.236 247.133Z" fill="white"/>
<path d="M661.521 242.66C661.521 242.66 664.589 244.267 665.664 247.231C666.739 250.196 665.415 253.394 665.415 253.394C665.415 253.394 662.347 251.788 661.272 248.823C660.197 245.86 661.521 242.66 661.521 242.66Z" fill="white"/>
<path d="M672.576 263.117C672.576 263.117 674.761 265.803 674.58 268.952C674.399 272.1 671.921 274.518 671.921 274.518C671.921 274.518 669.736 271.832 669.917 268.683C670.098 265.535 672.576 263.117 672.576 263.117Z" fill="white"/>
<path d="M671.99 232.668C671.99 232.668 674.175 235.354 673.994 238.501C673.813 241.65 671.335 244.066 671.335 244.066C671.335 244.066 669.15 241.38 669.331 238.232C669.512 235.086 671.99 232.668 671.99 232.668Z" fill="white"/>
<path d="M647.181 297.613C647.181 297.613 646.835 301.058 648.717 303.588C650.6 306.117 654 306.772 654 306.772C654 306.772 654.346 303.328 652.464 300.799C650.581 298.269 647.181 297.613 647.181 297.613Z" fill="white"/>
<path d="M640.736 316.352C640.736 316.352 640.389 319.796 642.272 322.325C644.155 324.854 647.554 325.509 647.554 325.509C647.554 325.509 647.901 322.065 646.018 319.535C644.136 317.007 640.736 316.352 640.736 316.352Z" fill="white"/>
<path d="M657.838 323.156C657.838 323.156 657.491 326.601 659.374 329.13C661.256 331.659 664.656 332.314 664.656 332.314C664.656 332.314 665.003 328.869 663.12 326.339C661.237 323.812 657.838 323.156 657.838 323.156Z" fill="white"/>
<path d="M662.507 297.191C662.507 297.191 661.189 300.392 662.268 303.356C663.348 306.318 666.418 307.92 666.418 307.92C666.418 307.92 667.737 304.719 666.657 301.756C665.577 298.793 662.507 297.191 662.507 297.191Z" fill="white"/>
<path d="M650.398 366.277C650.398 366.277 653.861 366.341 656.226 364.257C658.592 362.173 658.967 358.731 658.967 358.731C658.967 358.731 655.505 358.668 653.139 360.751C650.773 362.836 650.398 366.277 650.398 366.277Z" fill="white"/>
<path d="M683.617 362.491C683.617 362.491 684.557 365.823 687.237 367.486C689.916 369.149 693.319 368.511 693.319 368.511C693.319 368.511 692.379 365.179 689.7 363.516C687.02 361.855 683.617 362.491 683.617 362.491Z" fill="white"/>
<path d="M654.259 280.34C654.259 280.34 653.913 283.784 655.796 286.313C657.678 288.842 661.078 289.498 661.078 289.498C661.078 289.498 661.425 286.053 659.542 283.524C657.659 280.995 654.259 280.34 654.259 280.34Z" fill="white"/>
<path d="M654.213 265.117C654.213 265.117 653.866 268.562 655.749 271.091C657.631 273.62 661.031 274.275 661.031 274.275C661.031 274.275 661.378 270.83 659.495 268.3C657.612 265.772 654.213 265.117 654.213 265.117Z" fill="white"/>
<path d="M434.036 324.373C434.036 352.753 417.247 375.759 396.537 375.759C375.828 375.759 359.039 352.753 359.039 324.373C359.039 295.993 375.828 198.453 396.537 198.453C417.248 198.453 434.036 295.993 434.036 324.373Z" fill="#92E3A9"/>
<path opacity="0.53" d="M434.036 324.373C434.036 352.753 417.247 375.759 396.537 375.759C375.828 375.759 359.039 352.753 359.039 324.373C359.039 295.993 375.828 198.453 396.537 198.453C417.248 198.453 434.036 295.993 434.036 324.373Z" fill="white"/>
<path d="M376.281 326.923L388.242 331.094L394.166 339.148L393.13 363.806L386.235 359.129L392.916 368.909L391.351 406.162H398.666L397.7 350.17L417.563 339.22L406.208 343.418L408.487 336.584L403.059 344.584L397.638 346.588L397.251 324.145L416.977 297.937L406.406 308.509L408.194 301.158L403.137 311.778L397.141 317.773L396.538 282.707L394.389 333.849L375.695 314.04L385.964 327.999L376.281 326.923Z" fill="#B2B2B2"/>
<path d="M417.164 282.82C417.164 282.82 417.511 286.265 415.628 288.795C413.745 291.324 410.345 291.979 410.345 291.979C410.345 291.979 409.999 288.535 411.881 286.006C413.764 283.476 417.164 282.82 417.164 282.82Z" fill="white"/>
<path d="M428.469 298.699C428.469 298.699 428.815 302.144 426.933 304.673C425.05 307.202 421.65 307.857 421.65 307.857C421.65 307.857 421.303 304.412 423.186 301.883C425.068 299.354 428.469 298.699 428.469 298.699Z" fill="white"/>
<path d="M428.465 329.614C428.465 329.614 427.633 332.974 425.007 334.722C422.383 336.47 418.961 335.943 418.961 335.943C418.961 335.943 419.793 332.581 422.419 330.834C425.043 329.086 428.465 329.614 428.465 329.614Z" fill="white"/>
<path d="M366.391 329.614C366.391 329.614 367.224 332.974 369.849 334.722C372.473 336.47 375.895 335.943 375.895 335.943C375.895 335.943 375.063 332.581 372.437 330.834C369.813 329.086 366.391 329.614 366.391 329.614Z" fill="white"/>
<path d="M415.406 316.781C415.406 316.781 415.753 320.226 413.87 322.755C411.987 325.284 408.588 325.939 408.588 325.939C408.588 325.939 408.241 322.494 410.124 319.964C412.006 317.437 415.406 316.781 415.406 316.781Z" fill="white"/>
<path d="M412.476 265.543C412.476 265.543 412.823 268.988 410.94 271.517C409.058 274.045 405.658 274.701 405.658 274.701C405.658 274.701 405.311 271.256 407.194 268.727C409.076 266.198 412.476 265.543 412.476 265.543Z" fill="white"/>
<path d="M405.743 278.719C405.743 278.719 406.09 282.163 404.207 284.693C402.324 287.222 398.924 287.878 398.924 287.878C398.924 287.878 398.577 284.433 400.46 281.904C402.343 279.374 405.743 278.719 405.743 278.719Z" fill="white"/>
<path d="M421.734 269.129C421.734 269.129 422.081 272.573 420.198 275.102C418.315 277.631 414.916 278.287 414.916 278.287C414.916 278.287 414.569 274.842 416.452 272.312C418.334 269.784 421.734 269.129 421.734 269.129Z" fill="white"/>
<path d="M369.783 269.129C369.783 269.129 369.436 272.573 371.319 275.102C373.202 277.631 376.601 278.287 376.601 278.287C376.601 278.287 376.948 274.842 375.065 272.312C373.184 269.784 369.783 269.129 369.783 269.129Z" fill="white"/>
<path d="M413.937 249.441C413.937 249.441 414.284 252.886 412.401 255.415C410.519 257.944 407.119 258.599 407.119 258.599C407.119 258.599 406.772 255.155 408.655 252.625C410.538 250.097 413.937 249.441 413.937 249.441Z" fill="white"/>
<path d="M410.628 232.336C410.628 232.336 411.828 235.583 410.641 238.505C409.454 241.426 406.327 242.914 406.327 242.914C406.327 242.914 405.125 239.667 406.314 236.745C407.502 233.824 410.628 232.336 410.628 232.336Z" fill="white"/>
<path d="M386.92 227.863C386.92 227.863 389.987 229.47 391.062 232.434C392.137 235.399 390.813 238.597 390.813 238.597C390.813 238.597 387.746 236.991 386.671 234.026C385.596 231.062 386.92 227.863 386.92 227.863Z" fill="white"/>
<path d="M397.976 248.32C397.976 248.32 400.16 251.006 399.979 254.155C399.799 257.303 397.319 259.721 397.319 259.721C397.319 259.721 395.135 257.035 395.315 253.887C395.497 250.738 397.976 248.32 397.976 248.32Z" fill="white"/>
<path d="M397.389 217.871C397.389 217.871 399.573 220.557 399.392 223.705C399.212 226.854 396.733 229.271 396.733 229.271C396.733 229.271 394.549 226.585 394.729 223.436C394.91 220.289 397.389 217.871 397.389 217.871Z" fill="white"/>
<path d="M372.58 282.82C372.58 282.82 372.233 286.265 374.116 288.795C375.999 291.324 379.398 291.979 379.398 291.979C379.398 291.979 379.745 288.535 377.862 286.006C375.979 283.476 372.58 282.82 372.58 282.82Z" fill="white"/>
<path d="M366.134 301.555C366.134 301.555 365.788 305 367.67 307.529C369.553 310.058 372.953 310.714 372.953 310.714C372.953 310.714 373.3 307.269 371.417 304.739C369.535 302.21 366.134 301.555 366.134 301.555Z" fill="white"/>
<path d="M383.236 308.359C383.236 308.359 382.889 311.804 384.772 314.333C386.655 316.862 390.054 317.517 390.054 317.517C390.054 317.517 390.401 314.073 388.518 311.542C386.636 309.015 383.236 308.359 383.236 308.359Z" fill="white"/>
<path d="M387.906 282.395C387.906 282.395 386.588 285.596 387.667 288.559C388.746 291.521 391.816 293.123 391.816 293.123C391.816 293.123 393.134 289.922 392.055 286.959C390.975 283.996 387.906 282.395 387.906 282.395Z" fill="white"/>
<path d="M375.805 351.484C375.805 351.484 379.267 351.547 381.632 349.464C383.999 347.38 384.373 343.938 384.373 343.938C384.373 343.938 380.911 343.875 378.546 345.958C376.179 348.042 375.805 351.484 375.805 351.484Z" fill="white"/>
<path d="M409.016 347.694C409.016 347.694 409.956 351.027 412.635 352.689C415.315 354.352 418.718 353.715 418.718 353.715C418.718 353.715 417.777 350.383 415.098 348.72C412.42 347.057 409.016 347.694 409.016 347.694Z" fill="white"/>
<path d="M379.658 265.543C379.658 265.543 379.311 268.988 381.194 271.517C383.077 274.045 386.476 274.701 386.476 274.701C386.476 274.701 386.823 271.256 384.94 268.727C383.058 266.198 379.658 265.543 379.658 265.543Z" fill="white"/>
<path d="M379.611 250.32C379.611 250.32 379.264 253.765 381.147 256.295C383.03 258.824 386.429 259.479 386.429 259.479C386.429 259.479 386.776 256.035 384.893 253.505C383.011 250.976 379.611 250.32 379.611 250.32Z" fill="white"/>
<path d="M251.653 350.92C251.653 379.3 234.864 402.306 214.155 402.306C193.445 402.306 176.656 379.3 176.656 350.92C176.656 322.54 193.445 225 214.155 225C234.864 225 251.653 322.54 251.653 350.92Z" fill="#92E3A9"/>
<path opacity="0.53" d="M251.653 350.92C251.653 379.3 234.864 402.306 214.155 402.306C193.445 402.306 176.656 379.3 176.656 350.92C176.656 322.54 193.445 225 214.155 225C234.864 225 251.653 322.54 251.653 350.92Z" fill="white"/>
<path d="M193.898 353.47L205.859 357.642L211.783 365.696L210.747 390.354L203.853 385.676L210.533 395.457L208.968 432.709H216.283L215.318 376.716L235.181 365.767L223.826 369.966L226.104 363.131L220.676 371.131L215.257 373.136L214.869 350.692L234.594 324.485L224.024 335.055L225.811 327.705L220.754 338.325L214.76 344.32L214.155 309.254L212.006 360.397L193.312 340.588L203.581 354.546L193.898 353.47Z" fill="#B2B2B2"/>
<path d="M234.781 309.367C234.781 309.367 235.128 312.812 233.245 315.341C231.362 317.87 227.963 318.525 227.963 318.525C227.963 318.525 227.616 315.08 229.499 312.551C231.381 310.022 234.781 309.367 234.781 309.367Z" fill="white"/>
<path d="M246.094 325.246C246.094 325.246 246.44 328.691 244.557 331.221C242.675 333.75 239.275 334.405 239.275 334.405C239.275 334.405 238.928 330.96 240.811 328.431C242.694 325.901 246.094 325.246 246.094 325.246Z" fill="white"/>
<path d="M246.09 356.161C246.09 356.161 245.258 359.521 242.632 361.269C240.008 363.016 236.586 362.489 236.586 362.489C236.586 362.489 237.418 359.128 240.044 357.38C242.668 355.633 246.09 356.161 246.09 356.161Z" fill="white"/>
<path d="M184.016 356.161C184.016 356.161 184.849 359.521 187.474 361.269C190.098 363.016 193.52 362.489 193.52 362.489C193.52 362.489 192.688 359.128 190.062 357.38C187.438 355.633 184.016 356.161 184.016 356.161Z" fill="white"/>
<path d="M233.031 343.328C233.031 343.328 233.378 346.773 231.495 349.302C229.612 351.831 226.213 352.486 226.213 352.486C226.213 352.486 225.866 349.041 227.749 346.511C229.631 343.983 233.031 343.328 233.031 343.328Z" fill="white"/>
<path d="M230.101 292.09C230.101 292.09 230.448 295.534 228.565 298.065C226.683 300.593 223.283 301.249 223.283 301.249C223.283 301.249 222.936 297.804 224.819 295.274C226.702 292.745 230.101 292.09 230.101 292.09Z" fill="white"/>
<path d="M223.368 305.266C223.368 305.266 223.715 308.71 221.832 311.239C219.949 313.768 216.549 314.423 216.549 314.423C216.549 314.423 216.202 310.979 218.085 308.45C219.968 305.921 223.368 305.266 223.368 305.266Z" fill="white"/>
<path d="M239.36 295.676C239.36 295.676 239.707 299.12 237.824 301.649C235.942 304.178 232.541 304.834 232.541 304.834C232.541 304.834 232.194 301.389 234.077 298.859C235.961 296.331 239.36 295.676 239.36 295.676Z" fill="white"/>
<path d="M187.408 295.676C187.408 295.676 187.061 299.12 188.944 301.649C190.827 304.178 194.227 304.834 194.227 304.834C194.227 304.834 194.574 301.389 192.691 298.859C190.808 296.331 187.408 295.676 187.408 295.676Z" fill="white"/>
<path d="M231.562 275.988C231.562 275.988 231.909 279.433 230.026 281.962C228.144 284.491 224.744 285.146 224.744 285.146C224.744 285.146 224.397 281.702 226.28 279.171C228.161 276.644 231.562 275.988 231.562 275.988Z" fill="white"/>
<path d="M228.253 258.883C228.253 258.883 229.454 262.13 228.266 265.052C227.079 267.973 223.952 269.461 223.952 269.461C223.952 269.461 222.75 266.214 223.939 263.292C225.127 260.372 228.253 258.883 228.253 258.883Z" fill="white"/>
<path d="M204.545 254.41C204.545 254.41 207.612 256.017 208.687 258.981C209.762 261.946 208.438 265.144 208.438 265.144C208.438 265.144 205.371 263.538 204.296 260.573C203.221 257.61 204.545 254.41 204.545 254.41Z" fill="white"/>
<path d="M215.599 274.871C215.599 274.871 217.784 277.557 217.603 280.705C217.423 283.854 214.944 286.271 214.944 286.271C214.944 286.271 212.76 283.585 212.94 280.436C213.121 277.289 215.599 274.871 215.599 274.871Z" fill="white"/>
<path d="M215.014 244.418C215.014 244.418 217.198 247.104 217.017 250.252C216.837 253.401 214.358 255.817 214.358 255.817C214.358 255.817 212.174 253.131 212.354 249.983C212.535 246.836 215.014 244.418 215.014 244.418Z" fill="white"/>
<path d="M190.205 309.367C190.205 309.367 189.858 312.812 191.741 315.341C193.624 317.87 197.023 318.525 197.023 318.525C197.023 318.525 197.37 315.08 195.487 312.551C193.604 310.022 190.205 309.367 190.205 309.367Z" fill="white"/>
<path d="M183.759 328.102C183.759 328.102 183.413 331.546 185.295 334.075C187.178 336.604 190.578 337.259 190.578 337.259C190.578 337.259 190.925 333.815 189.042 331.285C187.159 328.757 183.759 328.102 183.759 328.102Z" fill="white"/>
<path d="M200.861 334.906C200.861 334.906 200.514 338.351 202.397 340.88C204.28 343.409 207.679 344.064 207.679 344.064C207.679 344.064 208.026 340.619 206.143 338.089C204.262 335.562 200.861 334.906 200.861 334.906Z" fill="white"/>
<path d="M205.531 308.941C205.531 308.941 204.213 312.142 205.292 315.106C206.371 318.068 209.441 319.67 209.441 319.67C209.441 319.67 210.759 316.469 209.68 313.506C208.601 310.544 205.531 308.941 205.531 308.941Z" fill="white"/>
<path d="M193.422 378.031C193.422 378.031 196.883 378.094 199.25 376.01C201.616 373.927 201.991 370.485 201.991 370.485C201.991 370.485 198.529 370.422 196.163 372.505C193.797 374.589 193.422 378.031 193.422 378.031Z" fill="white"/>
<path d="M226.641 374.241C226.641 374.241 227.581 377.573 230.26 379.236C232.94 380.899 236.343 380.261 236.343 380.261C236.343 380.261 235.402 376.929 232.723 375.266C230.044 373.605 226.641 374.241 226.641 374.241Z" fill="white"/>
<path d="M197.283 292.09C197.283 292.09 196.936 295.534 198.819 298.065C200.702 300.593 204.101 301.249 204.101 301.249C204.101 301.249 204.448 297.804 202.565 295.274C200.683 292.745 197.283 292.09 197.283 292.09Z" fill="white"/>
<path d="M197.236 276.867C197.236 276.867 196.889 280.312 198.772 282.842C200.655 285.371 204.054 286.026 204.054 286.026C204.054 286.026 204.401 282.582 202.518 280.051C200.636 277.522 197.236 276.867 197.236 276.867Z" fill="white"/>
<path d="M770.855 274.521C770.855 317.842 745.228 352.96 713.615 352.96C682.003 352.96 656.375 317.841 656.375 274.521C656.375 231.2 682.001 82.3086 713.615 82.3086C745.228 82.3086 770.855 231.2 770.855 274.521Z" fill="#92E3A9"/>
<path opacity="0.3" d="M770.855 274.521C770.855 317.842 745.228 352.96 713.615 352.96C682.003 352.96 656.375 317.841 656.375 274.521C656.375 231.2 682.001 82.3086 713.615 82.3086C745.228 82.3086 770.855 231.2 770.855 274.521Z" fill="white"/>
<path d="M682.698 278.416L700.955 284.784L709.998 297.078L708.417 334.718L697.893 327.576L708.09 342.507L705.701 399.371H716.867L715.394 313.9L745.714 297.186L728.381 303.597L731.859 293.163L723.573 305.375L715.3 308.435L714.71 274.175L744.82 234.171L728.683 250.307L731.413 239.086L723.692 255.298L714.541 264.449L713.619 210.922L710.338 288.988L681.805 258.75L697.478 280.057L682.698 278.416Z" fill="#B2B2B2"/>
<path d="M745.103 211.098C745.103 211.098 745.633 216.356 742.758 220.217C739.884 224.078 734.695 225.078 734.695 225.078C734.695 225.078 734.165 219.819 737.04 215.958C739.914 212.098 745.103 211.098 745.103 211.098Z" fill="white"/>
<path d="M762.353 235.332C762.353 235.332 762.883 240.591 760.008 244.452C757.134 248.312 751.945 249.312 751.945 249.312C751.945 249.312 751.415 244.053 754.29 240.193C757.164 236.333 762.353 235.332 762.353 235.332Z" fill="white"/>
<path d="M762.351 282.528C762.351 282.528 761.08 287.658 757.073 290.326C753.068 292.994 747.844 292.188 747.844 292.188C747.844 292.188 749.115 287.059 753.122 284.39C757.127 281.723 762.351 282.528 762.351 282.528Z" fill="white"/>
<path d="M667.602 282.528C667.602 282.528 668.873 287.658 672.879 290.326C676.886 292.994 682.109 292.188 682.109 292.188C682.109 292.188 680.838 287.059 676.831 284.39C672.826 281.723 667.602 282.528 667.602 282.528Z" fill="white"/>
<path d="M742.424 262.941C742.424 262.941 742.953 268.2 740.079 272.061C737.204 275.922 732.015 276.922 732.015 276.922C732.015 276.922 731.485 271.663 734.36 267.802C737.235 263.941 742.424 262.941 742.424 262.941Z" fill="white"/>
<path d="M737.955 184.73C737.955 184.73 738.485 189.989 735.61 193.85C732.735 197.711 727.546 198.711 727.546 198.711C727.546 198.711 727.017 193.452 729.891 189.591C732.766 185.73 737.955 184.73 737.955 184.73Z" fill="white"/>
<path d="M727.675 204.836C727.675 204.836 728.205 210.095 725.33 213.956C722.455 217.816 717.265 218.816 717.265 218.816C717.265 218.816 716.735 213.557 719.61 209.696C722.485 205.837 727.675 204.836 727.675 204.836Z" fill="white"/>
<path d="M752.072 190.195C752.072 190.195 752.602 195.454 749.727 199.315C746.853 203.176 741.663 204.175 741.663 204.175C741.663 204.175 741.134 198.917 744.008 195.056C746.882 191.195 752.072 190.195 752.072 190.195Z" fill="white"/>
<path d="M672.788 190.195C672.788 190.195 672.259 195.454 675.133 199.315C678.008 203.176 683.197 204.175 683.197 204.175C683.197 204.175 683.727 198.917 680.852 195.056C677.979 191.195 672.788 190.195 672.788 190.195Z" fill="white"/>
<path d="M740.189 160.145C740.189 160.145 740.719 165.403 737.844 169.264C734.97 173.125 729.781 174.125 729.781 174.125C729.781 174.125 729.251 168.866 732.126 165.005C734.999 161.145 740.189 160.145 740.189 160.145Z" fill="white"/>
<path d="M735.134 134.039C735.134 134.039 736.967 138.996 735.155 143.455C733.343 147.914 728.571 150.186 728.571 150.186C728.571 150.186 726.738 145.229 728.55 140.77C730.362 136.311 735.134 134.039 735.134 134.039Z" fill="white"/>
<path d="M698.945 127.215C698.945 127.215 703.627 129.668 705.267 134.193C706.909 138.718 704.887 143.601 704.887 143.601C704.887 143.601 700.205 141.148 698.564 136.623C696.923 132.099 698.945 127.215 698.945 127.215Z" fill="white"/>
<path d="M715.818 158.438C715.818 158.438 719.154 162.537 718.877 167.343C718.6 172.148 714.817 175.839 714.817 175.839C714.817 175.839 711.481 171.739 711.759 166.933C712.035 162.129 715.818 158.438 715.818 158.438Z" fill="white"/>
<path d="M714.927 111.957C714.927 111.957 718.262 116.057 717.986 120.862C717.71 125.668 713.927 129.358 713.927 129.358C713.927 129.358 710.591 125.258 710.868 120.453C711.144 115.647 714.927 111.957 714.927 111.957Z" fill="white"/>
<path d="M677.046 211.098C677.046 211.098 676.517 216.356 679.391 220.217C682.266 224.078 687.455 225.078 687.455 225.078C687.455 225.078 687.985 219.819 685.11 215.958C682.237 212.098 677.046 211.098 677.046 211.098Z" fill="white"/>
<path d="M667.21 239.699C667.21 239.699 666.681 244.958 669.555 248.819C672.43 252.68 677.619 253.679 677.619 253.679C677.619 253.679 678.149 248.421 675.274 244.56C672.4 240.699 667.21 239.699 667.21 239.699Z" fill="white"/>
<path d="M693.312 250.082C693.312 250.082 692.782 255.341 695.657 259.202C698.531 263.062 703.721 264.062 703.721 264.062C703.721 264.062 704.25 258.803 701.376 254.943C698.501 251.083 693.312 250.082 693.312 250.082Z" fill="white"/>
<path d="M700.443 210.453C700.443 210.453 698.43 215.341 700.078 219.862C701.727 224.384 706.413 226.829 706.413 226.829C706.413 226.829 708.426 221.942 706.778 217.42C705.13 212.898 700.443 210.453 700.443 210.453Z" fill="white"/>
<path d="M681.969 315.911C681.969 315.911 687.253 316.007 690.865 312.826C694.477 309.645 695.049 304.391 695.049 304.391C695.049 304.391 689.764 304.294 686.153 307.475C682.54 310.657 681.969 315.911 681.969 315.911Z" fill="white"/>
<path d="M732.672 310.128C732.672 310.128 734.107 315.215 738.197 317.753C742.286 320.291 747.481 319.319 747.481 319.319C747.481 319.319 746.046 314.232 741.956 311.695C737.867 309.156 732.672 310.128 732.672 310.128Z" fill="white"/>
<path d="M687.859 184.73C687.859 184.73 687.329 189.989 690.204 193.85C693.078 197.711 698.267 198.711 698.267 198.711C698.267 198.711 698.797 193.452 695.922 189.591C693.048 185.73 687.859 184.73 687.859 184.73Z" fill="white"/>
<path d="M687.773 161.488C687.773 161.488 687.243 166.747 690.118 170.608C692.992 174.469 698.182 175.468 698.182 175.468C698.182 175.468 698.711 170.21 695.837 166.349C692.962 162.489 687.773 161.488 687.773 161.488Z" fill="white"/>
<path d="M571.337 259.117C571.337 292.82 551.399 320.143 526.806 320.143C502.211 320.143 482.273 292.821 482.273 259.117C482.273 225.413 502.21 109.578 526.804 109.578C551.399 109.578 571.337 225.415 571.337 259.117Z" fill="#92E3A9"/>
<path opacity="0.3" d="M571.337 259.117C571.337 292.82 551.399 320.143 526.806 320.143C502.211 320.143 482.273 292.821 482.273 259.117C482.273 225.413 502.21 109.578 526.804 109.578C551.399 109.578 571.337 225.415 571.337 259.117Z" fill="white"/>
<path d="M502.75 262.145L516.954 267.1L523.99 276.665L522.759 305.948L514.572 300.392L522.504 312.008L520.646 356.247H529.334L528.187 289.752L551.776 276.749L538.292 281.736L540.997 273.62L534.55 283.12L528.114 285.501L527.654 258.847L551.08 227.723L538.526 240.277L540.649 231.548L534.643 244.16L527.524 251.28L526.806 209.637L524.255 270.372L502.055 246.847L514.249 263.423L502.75 262.145Z" fill="#B2B2B2"/>
<path d="M551.308 209.77C551.308 209.77 551.72 213.86 549.484 216.864C547.248 219.868 543.21 220.645 543.21 220.645C543.21 220.645 542.798 216.554 545.034 213.551C547.27 210.548 551.308 209.77 551.308 209.77Z" fill="white"/>
<path d="M564.73 228.629C564.73 228.629 565.142 232.72 562.906 235.723C560.669 238.727 556.631 239.504 556.631 239.504C556.631 239.504 556.22 235.414 558.456 232.41C560.693 229.408 564.73 228.629 564.73 228.629Z" fill="white"/>
<path d="M564.725 265.343C564.725 265.343 563.735 269.333 560.618 271.409C557.501 273.485 553.438 272.859 553.438 272.859C553.438 272.859 554.427 268.868 557.544 266.792C560.661 264.716 564.725 265.343 564.725 265.343Z" fill="white"/>
<path d="M491.008 265.343C491.008 265.343 491.997 269.333 495.114 271.409C498.231 273.485 502.295 272.859 502.295 272.859C502.295 272.859 501.306 268.868 498.189 266.792C495.072 264.716 491.008 265.343 491.008 265.343Z" fill="white"/>
<path d="M549.214 250.102C549.214 250.102 549.626 254.192 547.39 257.196C545.154 260.2 541.116 260.978 541.116 260.978C541.116 260.978 540.704 256.887 542.94 253.884C545.177 250.88 549.214 250.102 549.214 250.102Z" fill="white"/>
<path d="M545.738 189.254C545.738 189.254 546.15 193.345 543.913 196.348C541.677 199.352 537.639 200.131 537.639 200.131C537.639 200.131 537.227 196.04 539.464 193.036C541.7 190.033 545.738 189.254 545.738 189.254Z" fill="white"/>
<path d="M537.746 204.898C537.746 204.898 538.157 208.989 535.921 211.993C533.685 214.996 529.647 215.775 529.647 215.775C529.647 215.775 529.235 211.684 531.471 208.681C533.709 205.676 537.746 204.898 537.746 204.898Z" fill="white"/>
<path d="M556.73 193.508C556.73 193.508 557.142 197.599 554.906 200.602C552.669 203.606 548.631 204.383 548.631 204.383C548.631 204.383 548.22 200.293 550.456 197.289C552.692 194.286 556.73 193.508 556.73 193.508Z" fill="white"/>
<path d="M495.03 193.508C495.03 193.508 494.618 197.599 496.854 200.602C499.09 203.606 503.128 204.383 503.128 204.383C503.128 204.383 503.54 200.293 501.304 197.289C499.067 194.286 495.03 193.508 495.03 193.508Z" fill="white"/>
<path d="M547.472 170.133C547.472 170.133 547.884 174.224 545.648 177.227C543.412 180.231 539.374 181.008 539.374 181.008C539.374 181.008 538.962 176.918 541.198 173.914C543.435 170.91 547.472 170.133 547.472 170.133Z" fill="white"/>
<path d="M543.55 149.816C543.55 149.816 544.976 153.673 543.567 157.142C542.156 160.611 538.443 162.378 538.443 162.378C538.443 162.378 537.017 158.522 538.427 155.053C539.838 151.585 543.55 149.816 543.55 149.816Z" fill="white"/>
<path d="M515.389 144.508C515.389 144.508 519.032 146.415 520.308 149.936C521.585 153.456 520.013 157.256 520.013 157.256C520.013 157.256 516.371 155.349 515.094 151.828C513.816 148.308 515.389 144.508 515.389 144.508Z" fill="white"/>
<path d="M528.523 168.797C528.523 168.797 531.118 171.987 530.902 175.725C530.687 179.464 527.744 182.335 527.744 182.335C527.744 182.335 525.149 179.145 525.364 175.407C525.58 171.669 528.523 168.797 528.523 168.797Z" fill="white"/>
<path d="M527.827 132.641C527.827 132.641 530.423 135.83 530.207 139.569C529.992 143.307 527.049 146.179 527.049 146.179C527.049 146.179 524.454 142.989 524.669 139.25C524.884 135.512 527.827 132.641 527.827 132.641Z" fill="white"/>
<path d="M498.358 209.77C498.358 209.77 497.946 213.86 500.182 216.864C502.418 219.868 506.457 220.645 506.457 220.645C506.457 220.645 506.868 216.554 504.632 213.551C502.396 210.548 498.358 209.77 498.358 209.77Z" fill="white"/>
<path d="M490.702 232.02C490.702 232.02 490.29 236.11 492.526 239.114C494.762 242.118 498.8 242.896 498.8 242.896C498.8 242.896 499.212 238.805 496.976 235.802C494.739 232.798 490.702 232.02 490.702 232.02Z" fill="white"/>
<path d="M511.006 240.102C511.006 240.102 510.595 244.192 512.831 247.196C515.067 250.2 519.105 250.977 519.105 250.977C519.105 250.977 519.517 246.886 517.281 243.883C515.043 240.879 511.006 240.102 511.006 240.102Z" fill="white"/>
<path d="M516.554 209.266C516.554 209.266 514.988 213.068 516.27 216.586C517.553 220.103 521.198 222.006 521.198 222.006C521.198 222.006 522.764 218.205 521.482 214.686C520.2 211.169 516.554 209.266 516.554 209.266Z" fill="white"/>
<path d="M502.18 291.314C502.18 291.314 506.291 291.39 509.101 288.914C511.911 286.439 512.356 282.352 512.356 282.352C512.356 282.352 508.245 282.277 505.435 284.752C502.624 287.226 502.18 291.314 502.18 291.314Z" fill="white"/>
<path d="M541.625 286.818C541.625 286.818 542.741 290.775 545.923 292.75C549.105 294.725 553.147 293.969 553.147 293.969C553.147 293.969 552.03 290.011 548.848 288.037C545.666 286.062 541.625 286.818 541.625 286.818Z" fill="white"/>
<path d="M506.772 189.254C506.772 189.254 506.36 193.345 508.596 196.348C510.833 199.352 514.871 200.131 514.871 200.131C514.871 200.131 515.282 196.04 513.046 193.036C510.81 190.033 506.772 189.254 506.772 189.254Z" fill="white"/>
<path d="M506.702 171.176C506.702 171.176 506.29 175.267 508.526 178.27C510.762 181.274 514.8 182.051 514.8 182.051C514.8 182.051 515.212 177.961 512.976 174.957C510.739 171.954 506.702 171.176 506.702 171.176Z" fill="white"/>
<path d="M213.094 279.15C213.094 323.357 186.943 359.194 154.684 359.194C122.425 359.194 96.2734 323.357 96.2734 279.15C96.2734 234.943 122.424 83.0078 154.684 83.0078C186.943 83.0078 213.094 234.943 213.094 279.15Z" fill="#92E3A9"/>
<path opacity="0.3" d="M213.094 279.15C213.094 323.357 186.943 359.194 154.684 359.194C122.425 359.194 96.2734 323.357 96.2734 279.15C96.2734 234.943 122.424 83.0078 154.684 83.0078C186.943 83.0078 213.094 234.943 213.094 279.15Z" fill="white"/>
<path d="M123.131 283.123L141.761 289.623L150.989 302.168L149.376 340.577L138.637 333.29L149.041 348.525L146.603 406.552H157.998L156.495 319.334L187.435 302.278L169.748 308.819L173.297 298.173L164.841 310.634L156.399 313.757L155.796 278.795L186.523 237.974L170.055 254.44L172.841 242.99L164.964 259.533L155.625 268.871L154.684 214.25L151.336 293.913L122.219 263.057L138.213 284.799L123.131 283.123Z" fill="#B2B2B2"/>
<path d="M186.817 214.422C186.817 214.422 187.357 219.788 184.424 223.728C181.491 227.667 176.195 228.688 176.195 228.688C176.195 228.688 175.655 223.322 178.589 219.382C181.522 215.443 186.817 214.422 186.817 214.422Z" fill="white"/>
<path d="M204.435 239.16C204.435 239.16 204.974 244.527 202.041 248.466C199.109 252.405 193.813 253.426 193.813 253.426C193.813 253.426 193.272 248.06 196.206 244.121C199.138 240.181 204.435 239.16 204.435 239.16Z" fill="white"/>
<path d="M204.421 287.316C204.421 287.316 203.124 292.551 199.035 295.273C194.948 297.995 189.617 297.174 189.617 297.174C189.617 297.174 190.915 291.938 195.003 289.217C199.09 286.493 204.421 287.316 204.421 287.316Z" fill="white"/>
<path d="M107.734 287.316C107.734 287.316 109.033 292.551 113.12 295.273C117.209 297.995 122.539 297.174 122.539 297.174C122.539 297.174 121.241 291.938 117.154 289.217C113.065 286.493 107.734 287.316 107.734 287.316Z" fill="white"/>
<path d="M184.083 267.328C184.083 267.328 184.623 272.695 181.69 276.634C178.757 280.573 173.461 281.594 173.461 281.594C173.461 281.594 172.921 276.228 175.854 272.288C178.787 268.349 184.083 267.328 184.083 267.328Z" fill="white"/>
<path d="M179.528 187.516C179.528 187.516 180.069 192.882 177.135 196.821C174.202 200.761 168.906 201.782 168.906 201.782C168.906 201.782 168.366 196.415 171.3 192.476C174.233 188.537 179.528 187.516 179.528 187.516Z" fill="white"/>
<path d="M169.036 208.039C169.036 208.039 169.576 213.406 166.643 217.345C163.71 221.284 158.414 222.305 158.414 222.305C158.414 222.305 157.874 216.939 160.807 212.999C163.74 209.06 169.036 208.039 169.036 208.039Z" fill="white"/>
<path d="M193.934 193.094C193.934 193.094 194.475 198.46 191.541 202.4C188.608 206.339 183.312 207.36 183.312 207.36C183.312 207.36 182.773 201.993 185.706 198.054C188.639 194.114 193.934 193.094 193.934 193.094Z" fill="white"/>
<path d="M113.016 193.094C113.016 193.094 112.475 198.46 115.409 202.4C118.342 206.339 123.638 207.36 123.638 207.36C123.638 207.36 124.177 201.993 121.245 198.054C118.312 194.114 113.016 193.094 113.016 193.094Z" fill="white"/>
<path d="M181.809 162.434C181.809 162.434 182.349 167.8 179.416 171.739C176.483 175.679 171.187 176.7 171.187 176.7C171.187 176.7 170.648 171.333 173.581 167.394C176.514 163.455 181.809 162.434 181.809 162.434Z" fill="white"/>
<path d="M176.645 135.789C176.645 135.789 178.516 140.847 176.666 145.398C174.817 149.948 169.948 152.267 169.948 152.267C169.948 152.267 168.076 147.209 169.926 142.658C171.775 138.107 176.645 135.789 176.645 135.789Z" fill="white"/>
<path d="M139.715 128.824C139.715 128.824 144.493 131.326 146.168 135.944C147.843 140.561 145.78 145.545 145.78 145.545C145.78 145.545 141.002 143.043 139.327 138.425C137.653 133.808 139.715 128.824 139.715 128.824Z" fill="white"/>
<path d="M156.94 160.688C156.94 160.688 160.343 164.871 160.062 169.775C159.78 174.678 155.919 178.444 155.919 178.444C155.919 178.444 152.516 174.26 152.798 169.357C153.079 164.453 156.94 160.688 156.94 160.688Z" fill="white"/>
<path d="M156.026 113.258C156.026 113.258 159.429 117.442 159.148 122.345C158.866 127.248 155.005 131.015 155.005 131.015C155.005 131.015 151.602 126.831 151.884 121.928C152.165 117.024 156.026 113.258 156.026 113.258Z" fill="white"/>
<path d="M117.375 214.422C117.375 214.422 116.835 219.788 119.768 223.728C122.701 227.667 127.997 228.688 127.997 228.688C127.997 228.688 128.538 223.322 125.604 219.382C122.671 215.443 117.375 214.422 117.375 214.422Z" fill="white"/>
<path d="M107.336 243.613C107.336 243.613 106.796 248.98 109.729 252.919C112.662 256.858 117.958 257.88 117.958 257.88C117.958 257.88 118.499 252.513 115.565 248.574C112.632 244.634 107.336 243.613 107.336 243.613Z" fill="white"/>
<path d="M133.969 254.211C133.969 254.211 133.429 259.577 136.362 263.517C139.295 267.456 144.591 268.477 144.591 268.477C144.591 268.477 145.13 263.111 142.197 259.171C139.266 255.232 133.969 254.211 133.969 254.211Z" fill="white"/>
<path d="M141.253 213.766C141.253 213.766 139.198 218.753 140.881 223.367C142.563 227.981 147.345 230.476 147.345 230.476C147.345 230.476 149.4 225.488 147.718 220.875C146.035 216.26 141.253 213.766 141.253 213.766Z" fill="white"/>
<path d="M122.391 321.381C122.391 321.381 127.783 321.479 131.469 318.233C135.154 314.987 135.738 309.625 135.738 309.625C135.738 309.625 130.346 309.527 126.66 312.774C122.974 316.02 122.391 321.381 122.391 321.381Z" fill="white"/>
<path d="M174.133 315.483C174.133 315.483 175.598 320.674 179.771 323.263C183.944 325.853 189.245 324.861 189.245 324.861C189.245 324.861 187.781 319.671 183.607 317.081C179.434 314.492 174.133 315.483 174.133 315.483Z" fill="white"/>
<path d="M128.406 187.516C128.406 187.516 127.867 192.882 130.799 196.821C133.732 200.761 139.028 201.782 139.028 201.782C139.028 201.782 139.568 196.415 136.635 192.476C133.703 188.537 128.406 187.516 128.406 187.516Z" fill="white"/>
<path d="M128.313 163.801C128.313 163.801 127.772 169.167 130.706 173.107C133.639 177.046 138.935 178.067 138.935 178.067C138.935 178.067 139.475 172.7 136.541 168.761C133.609 164.822 128.313 163.801 128.313 163.801Z" fill="white"/>
<path d="M356.322 263.313C356.322 297.023 336.381 324.35 311.782 324.35C287.183 324.35 267.242 297.023 267.242 263.313C267.242 229.604 287.183 113.746 311.782 113.746C336.381 113.746 356.322 229.604 356.322 263.313Z" fill="#92E3A9"/>
<path opacity="0.3" d="M356.322 263.313C356.322 297.023 336.381 324.35 311.782 324.35C287.183 324.35 267.242 297.023 267.242 263.313C267.242 229.604 287.183 113.746 311.782 113.746C336.381 113.746 356.322 229.604 356.322 263.313Z" fill="white"/>
<path d="M287.719 266.343L301.925 271.299L308.962 280.865L307.732 310.154L299.543 304.597L307.478 316.216L305.618 360.463H314.307L313.16 293.955L336.754 280.949L323.266 285.937L325.973 277.82L319.524 287.321L313.088 289.703L312.627 263.043L336.058 231.914L323.501 244.471L325.625 235.74L319.619 248.354L312.497 255.475L311.779 213.824L309.227 274.57L287.023 251.041L299.22 267.621L287.719 266.343Z" fill="#B2B2B2"/>
<path d="M336.294 213.953C336.294 213.953 336.705 218.045 334.469 221.049C332.233 224.052 328.194 224.831 328.194 224.831C328.194 224.831 327.782 220.739 330.018 217.735C332.256 214.732 336.294 213.953 336.294 213.953Z" fill="white"/>
<path d="M349.715 232.816C349.715 232.816 350.127 236.908 347.891 239.913C345.655 242.917 341.616 243.695 341.616 243.695C341.616 243.695 341.204 239.603 343.44 236.6C345.677 233.594 349.715 232.816 349.715 232.816Z" fill="white"/>
<path d="M349.71 269.538C349.71 269.538 348.721 273.53 345.604 275.606C342.487 277.681 338.422 277.055 338.422 277.055C338.422 277.055 339.411 273.063 342.528 270.987C345.646 268.912 349.71 269.538 349.71 269.538Z" fill="white"/>
<path d="M275.984 269.538C275.984 269.538 276.974 273.53 280.091 275.606C283.209 277.681 287.273 277.055 287.273 277.055C287.273 277.055 286.283 273.063 283.165 270.987C280.049 268.912 275.984 269.538 275.984 269.538Z" fill="white"/>
<path d="M334.208 254.297C334.208 254.297 334.619 258.389 332.383 261.392C330.147 264.396 326.108 265.175 326.108 265.175C326.108 265.175 325.696 261.083 327.932 258.079C330.168 255.076 334.208 254.297 334.208 254.297Z" fill="white"/>
<path d="M330.723 193.438C330.723 193.438 331.135 197.529 328.899 200.533C326.662 203.538 322.624 204.315 322.624 204.315C322.624 204.315 322.212 200.223 324.448 197.22C326.684 194.216 330.723 193.438 330.723 193.438Z" fill="white"/>
<path d="M322.731 209.086C322.731 209.086 323.143 213.178 320.907 216.183C318.669 219.186 314.631 219.965 314.631 219.965C314.631 219.965 314.22 215.873 316.456 212.869C318.693 209.865 322.731 209.086 322.731 209.086Z" fill="white"/>
<path d="M341.716 197.695C341.716 197.695 342.127 201.787 339.891 204.791C337.655 207.794 333.616 208.573 333.616 208.573C333.616 208.573 333.204 204.481 335.44 201.478C337.676 198.473 341.716 197.695 341.716 197.695Z" fill="white"/>
<path d="M280.006 197.695C280.006 197.695 279.595 201.787 281.831 204.791C284.067 207.794 288.106 208.573 288.106 208.573C288.106 208.573 288.518 204.481 286.282 201.478C284.044 198.473 280.006 197.695 280.006 197.695Z" fill="white"/>
<path d="M332.465 174.312C332.465 174.312 332.877 178.404 330.641 181.408C328.405 184.412 324.366 185.19 324.366 185.19C324.366 185.19 323.954 181.098 326.19 178.094C328.427 175.09 332.465 174.312 332.465 174.312Z" fill="white"/>
<path d="M328.535 153.992C328.535 153.992 329.962 157.85 328.551 161.319C327.141 164.788 323.428 166.556 323.428 166.556C323.428 166.556 322.001 162.699 323.412 159.23C324.822 155.76 328.535 153.992 328.535 153.992Z" fill="white"/>
<path d="M300.366 148.68C300.366 148.68 304.009 150.588 305.286 154.109C306.563 157.63 304.99 161.43 304.99 161.43C304.99 161.43 301.347 159.522 300.07 156.001C298.793 152.48 300.366 148.68 300.366 148.68Z" fill="white"/>
<path d="M313.507 172.98C313.507 172.98 316.102 176.171 315.887 179.91C315.671 183.648 312.728 186.521 312.728 186.521C312.728 186.521 310.133 183.33 310.349 179.591C310.563 175.853 313.507 172.98 313.507 172.98Z" fill="white"/>
<path d="M312.805 136.812C312.805 136.812 315.4 140.002 315.185 143.742C314.969 147.482 312.025 150.353 312.025 150.353C312.025 150.353 309.43 147.163 309.646 143.423C309.861 139.684 312.805 136.812 312.805 136.812Z" fill="white"/>
<path d="M283.335 213.953C283.335 213.953 282.923 218.045 285.159 221.049C287.395 224.052 291.434 224.831 291.434 224.831C291.434 224.831 291.846 220.739 289.61 217.735C287.373 214.732 283.335 213.953 283.335 213.953Z" fill="white"/>
<path d="M275.678 236.215C275.678 236.215 275.267 240.307 277.503 243.31C279.74 246.314 283.778 247.093 283.778 247.093C283.778 247.093 284.19 243.001 281.954 239.996C279.716 236.994 275.678 236.215 275.678 236.215Z" fill="white"/>
<path d="M295.991 244.293C295.991 244.293 295.579 248.385 297.815 251.39C300.051 254.393 304.09 255.172 304.09 255.172C304.09 255.172 304.502 251.08 302.266 248.076C300.029 245.072 295.991 244.293 295.991 244.293Z" fill="white"/>
<path d="M301.539 213.453C301.539 213.453 299.972 217.256 301.255 220.774C302.537 224.293 306.184 226.196 306.184 226.196C306.184 226.196 307.75 222.393 306.467 218.875C305.185 215.356 301.539 213.453 301.539 213.453Z" fill="white"/>
<path d="M287.156 295.515C287.156 295.515 291.268 295.59 294.079 293.115C296.89 290.64 297.334 286.551 297.334 286.551C297.334 286.551 293.222 286.476 290.411 288.951C287.602 291.425 287.156 295.515 287.156 295.515Z" fill="white"/>
<path d="M326.609 291.021C326.609 291.021 327.727 294.98 330.909 296.954C334.091 298.929 338.133 298.173 338.133 298.173C338.133 298.173 337.016 294.214 333.834 292.24C330.652 290.265 326.609 291.021 326.609 291.021Z" fill="white"/>
<path d="M291.749 193.438C291.749 193.438 291.337 197.529 293.573 200.533C295.81 203.538 299.848 204.315 299.848 204.315C299.848 204.315 300.26 200.223 298.024 197.22C295.787 194.216 291.749 193.438 291.749 193.438Z" fill="white"/>
<path d="M291.678 175.355C291.678 175.355 291.267 179.447 293.503 182.451C295.74 185.455 299.778 186.233 299.778 186.233C299.778 186.233 300.19 182.141 297.954 179.137C295.716 176.133 291.678 175.355 291.678 175.355Z" fill="white"/>
<path d="M344.495 342.556C200.69 362.478 80.3278 424.755 0.328125 510.199V560.486H841.559V472.112C717.994 369.736 533.674 316.35 344.495 342.556Z" fill="#92E3A9" stroke="#263238" stroke-width="1.122" stroke-miterlimit="10"/>
<path d="M221.511 560.487L213.358 535.93L178.13 532.48L155.541 549.144C155.541 549.144 144.128 556.973 138.187 559.877C137.792 560.07 137.314 560.275 136.773 560.488H221.511V560.487Z" fill="white" stroke="#263238" stroke-width="1.122" stroke-miterlimit="10"/>
<path d="M223.333 558.2L215.178 533.643L179.951 530.195L157.361 546.859C157.361 546.859 145.948 554.687 140.007 557.592C139.613 557.785 139.135 557.99 138.594 558.203H223.333V558.2Z" fill="white" stroke="#263238" stroke-width="1.122" stroke-miterlimit="10"/>
<path d="M145.074 513.897L140.099 532.285L161.902 529.265L190.382 486.798L190.463 470.129L225.9 463.138L232.052 449.792L268.538 441.614L268.383 423.937L295.08 419.198C295.08 419.198 312.433 408.465 316.281 407.932C320.129 407.399 339.26 409.955 339.26 409.955L361.324 419.392L388.258 415.661L408.751 401.37L438.719 399.3C438.719 399.3 447.356 402.268 453.768 401.381C460.181 400.492 477.77 390.768 477.77 390.768L519.201 403.768L536.711 410.713L540.243 425.839L559.951 425.192L564.243 415.228L582.329 418.969L582.93 427.215L546.34 440.612L573.323 459.78L624.203 473.554L648.15 491.06L676.836 489.168L680.894 478.195L690.684 474.757L652.629 459.205L631.639 460.031L647.369 453.687L627.976 438.676L649.543 434.646L680.585 442.84L692.648 466.156L709.817 477.312L728.188 504.959L760.172 517.187L767.942 550.467L800.971 561.509L801.306 564.396H832.015L808.982 544.783L796.788 515.239L820.579 515.066L819.508 504.803L802.599 506.104L815.53 499.107L829.27 489.915L826.916 479.83L807.759 465.825L799.405 444.576C678.066 363.041 513.223 323.093 344.501 346.465C267.803 357.09 197.796 379.788 136.999 411.599L170.419 423.974L156.704 444.614L133.276 452.023L137.07 479.609L127.516 484.055L117.281 496.926L122.803 514.901L145.074 513.897Z" fill="white" stroke="#263238" stroke-width="1.122" stroke-miterlimit="10"/>
<path d="M145.074 509.99L140.099 528.379L161.902 525.358L190.382 482.892L190.463 466.222L225.9 459.231L232.052 445.885L268.538 437.708L268.383 420.03L295.08 415.29C295.08 415.29 312.433 404.557 316.281 404.024C320.129 403.491 339.26 406.046 339.26 406.046L361.324 415.483L388.258 411.752L408.751 397.461L438.719 395.391C438.719 395.391 447.356 398.359 453.768 397.472C460.181 396.583 477.77 386.86 477.77 386.86L519.201 399.86L536.711 406.805L540.243 421.931L559.951 421.283L564.243 411.319L582.329 415.06L582.93 423.306L546.34 436.703L573.323 455.871L624.203 469.645L648.15 487.151L676.836 485.259L680.894 474.286L690.684 470.848L652.629 455.296L631.639 456.122L647.369 449.778L627.976 434.767L649.543 430.737L680.585 438.929L692.648 462.246L709.817 473.402L728.188 501.049L760.172 513.277L767.942 546.557L800.971 557.599L801.306 560.486H832.015L808.982 540.873L796.788 511.329L820.579 511.156L819.508 500.893L802.599 502.193L815.53 495.197L829.27 486.005L826.916 475.92L807.759 461.915L799.405 440.666C678.066 359.131 513.223 319.183 344.501 342.555C267.803 353.179 197.796 375.878 136.999 407.688L170.419 420.064L156.704 440.703L133.276 448.113L137.07 475.699L127.516 480.145L117.281 493.015L122.803 510.991L145.074 509.99Z" fill="white" stroke="#263238" stroke-width="1.122" stroke-miterlimit="10"/>
<path d="M398.843 559.166L411.041 537.694L433.811 550.157L455.739 560.485H560.464L555.438 543.719L564.261 524.798L545.914 508.599L454.44 491.078L417.484 497.239L412.98 517.644L394.529 506.665L367.492 515.617L372.697 549.253L398.843 559.166Z" fill="white" stroke="#263238" stroke-width="1.122" stroke-miterlimit="10"/>
<path d="M398.493 556.373L410.691 534.901L433.461 547.364L455.387 557.692H560.112L555.087 540.926L563.909 522.006L545.563 505.806L454.089 488.285L417.132 494.446L412.63 514.852L394.177 503.873L367.141 512.824L372.347 546.46L398.493 556.373Z" fill="white" stroke="#263238" stroke-width="1.122" stroke-miterlimit="10"/>
<path d="M620.347 521.197L600.168 519.828L586.086 533.232L601.893 561.233L618.566 558.924L620.347 521.197Z" fill="white" stroke="#263238" stroke-width="1.122" stroke-miterlimit="10"/>
<path d="M620.347 518.049L600.168 516.68L586.086 530.083L601.893 558.085L618.566 555.775L620.347 518.049Z" fill="white" stroke="#263238" stroke-width="1.122" stroke-miterlimit="10"/>
<path d="M744.099 523.834L696.256 511.721L684.452 500.863L674.898 505.311L688.587 524.236L702.403 549.391L723.054 552.776L725.958 548.211L710.886 534.681L746.584 540.148L744.099 523.834Z" fill="white" stroke="#263238" stroke-width="1.122" stroke-miterlimit="10"/>
<path d="M744.099 521.389L696.256 509.276L684.452 498.418L674.898 502.866L688.587 521.79L702.403 546.946L723.054 550.331L725.958 545.765L710.886 532.236L746.584 537.703L744.099 521.389Z" fill="white" stroke="#263238" stroke-width="1.122" stroke-miterlimit="10"/>
<path d="M536.261 336.467C536.261 336.467 533.114 348.307 532.815 349.057C532.515 349.806 522.923 357.899 522.023 358.649C521.124 359.398 519.775 362.696 521.274 364.494C522.773 366.293 528.617 366.442 533.114 366.592C537.61 366.743 544.055 364.344 546.004 363.745C547.953 363.146 550.8 363.445 552.298 361.197C553.797 358.948 553.946 355.951 553.797 354.002C553.647 352.055 553.198 348.457 553.498 347.258C553.797 346.059 554.697 339.465 554.697 339.465C554.697 339.465 541.357 332.57 536.261 336.467Z" fill="#263238" stroke="#263238" stroke-width="1.122" stroke-miterlimit="10"/>
<path d="M546.001 363.744C547.95 363.145 550.797 363.444 552.295 361.196C553.018 360.111 553.423 358.852 553.635 357.621C550.619 357.989 545.636 360.474 541.954 362.096C538.206 363.744 535.21 362.246 529.814 362.246C525.241 362.246 521.647 361.816 520.655 361.685C520.514 362.685 520.631 363.726 521.271 364.494C522.77 366.293 528.614 366.443 533.111 366.593C537.607 366.742 544.052 364.344 546.001 363.744Z" fill="white" stroke="#263238" stroke-width="1.122" stroke-miterlimit="10"/>
<path d="M560.999 218.215L547.511 283.111L536.719 331.221C536.719 331.221 534.621 333.02 535.071 333.77C535.521 334.519 536.27 336.468 536.27 336.468C536.27 336.468 542.265 336.918 543.015 337.067C543.764 337.216 549.46 340.214 550.959 341.263C552.458 342.312 556.055 340.964 556.654 339.764C557.253 338.565 556.055 333.619 556.055 333.619L556.354 327.624L567.895 284.759L589.028 237.998L593.524 238.747L605.664 283.56L633.391 283.11L622.75 220.312L562.499 212.219L560.999 218.215Z" fill="#263238" stroke="#263238" stroke-width="1.122" stroke-miterlimit="10"/>
<path d="M609.479 126.585C609.479 126.585 580.944 125.067 576.391 127.04C571.838 129.014 544.821 147.834 543.303 149.958C541.785 152.083 540.268 155.118 540.722 157.244C541.178 159.369 543.303 166.198 543.303 166.198L556.963 162.252L556.356 157.547C556.356 157.547 558.937 159.216 560.607 158.609C562.276 158.002 577.606 152.993 577.606 152.993L571.079 188.661L558.937 214.766C558.937 214.766 558.482 219.319 562.276 224.481C566.071 229.641 574.114 235.105 574.114 235.105L584.132 225.543L587.775 240.113C587.775 240.113 605.077 238.444 612.211 233.738C619.344 229.034 624.809 222.051 624.809 222.051L620.255 199.588L628.603 182.437L629.97 208.087L627.542 232.068L640.898 234.041C640.898 234.041 646.211 212.793 646.665 209.605C647.121 206.417 651.218 171.357 649.246 163.314C647.273 155.269 642.87 149.502 638.924 146.163C634.978 142.824 634.978 142.824 634.978 142.824L609.479 126.585Z" fill="#92E3A9" stroke="#263238" stroke-width="1.122" stroke-miterlimit="10"/>
<path d="M617.445 199.777C617.445 199.777 604.831 209.059 588.648 210.963" stroke="#263238" stroke-width="1.122" stroke-miterlimit="10"/>
<path d="M613.167 198.113C613.167 198.113 610.074 201.207 596.984 203.825" stroke="#263238" stroke-width="1.122" stroke-miterlimit="10"/>
<path d="M613.124 126.588C613.124 126.588 610.392 125.374 608.116 127.195C605.839 129.016 598.25 147.533 598.25 147.533L605.384 148.292L603.866 152.845L609.937 162.255L625.114 157.549L626.025 154.059C626.025 154.059 631.792 160.434 632.399 159.372C633.006 158.309 633.31 143.89 633.31 143.89C633.31 143.89 636.042 139.337 631.337 132.81C626.632 126.285 613.124 126.588 613.124 126.588Z" stroke="#263238" stroke-width="1.122" stroke-miterlimit="10"/>
<path d="M614.024 123.323C614.024 123.323 612.815 120.096 611.523 122.518C610.232 124.941 611.039 128.815 611.039 128.815C611.039 128.815 608.294 131.559 606.841 137.372C605.388 143.184 610.232 153.68 610.715 154.648C611.2 155.616 611.2 160.621 611.2 160.621L621.211 152.064C621.211 152.064 623.31 153.355 626.216 151.579C629.122 149.803 633.966 146.574 636.387 143.022C638.809 139.469 644.46 129.782 644.46 129.782L622.825 118.965L614.024 123.323Z" fill="#B97A5B" stroke="#263238" stroke-width="1.122" stroke-miterlimit="10"/>
<path d="M614.023 123.322L616.042 127.157C616.042 127.157 614.427 130.992 615.234 131.194C616.042 131.396 618.059 129.175 618.059 129.175C618.059 129.175 619.876 129.175 620.482 128.367C621.088 127.56 622.096 125.541 622.096 125.541C622.096 125.541 628.958 126.147 630.977 127.156C632.995 128.165 636.023 131.395 639.858 131.798C643.693 132.202 646.922 131.798 648.536 128.569C650.151 125.34 649.344 120.899 649.344 120.899C649.344 120.899 648.536 112.825 645.509 110.404C642.482 107.982 641.068 108.79 641.068 108.79C641.068 108.79 635.013 103.542 632.389 103.744C629.765 103.946 628.958 106.166 628.958 106.166C628.958 106.166 627.142 105.56 622.499 107.175C617.856 108.79 616.444 114.441 616.242 116.46C616.042 118.478 614.023 123.322 614.023 123.322Z" fill="#263238" stroke="#263238" stroke-width="1.122" stroke-miterlimit="10"/>
<path d="M621.211 136.566C621.956 134.915 626.983 137.632 629.284 140.279" stroke="#263238" stroke-width="1.122" stroke-miterlimit="10"/>
<path d="M632.844 140.438C632.844 140.438 636.558 139.632 638.334 140.115" stroke="#263238" stroke-width="1.122" stroke-miterlimit="10"/>
<path d="M622.992 139.148C622.992 139.148 623.799 141.571 626.544 140.925" stroke="#263238" stroke-width="1.122" stroke-miterlimit="10"/>
<path d="M625.562 145.608C626.209 146.899 629.115 148.837 630.245 147.707C631.374 146.577 631.698 142.379 631.698 142.379" stroke="#263238" stroke-width="1.122" stroke-miterlimit="10"/>
<path d="M620.727 143.664C620.727 143.664 621.211 148.346 626.377 147.7" stroke="#263238" stroke-width="1.122" stroke-miterlimit="10"/>
<path d="M633.156 141.57C633.156 141.57 633.964 143.831 636.547 141.893" stroke="#263238" stroke-width="1.122" stroke-miterlimit="10"/>
<path d="M611.844 130.105L613.135 131.074C613.135 131.074 612.65 135.271 612.65 138.017C612.65 140.761 615.88 146.896 616.848 148.995C617.816 151.095 621.207 152.063 621.207 152.063" stroke="#263238" stroke-width="1.122" stroke-miterlimit="10"/>
<path d="M616.852 148.996L613.461 150.934" stroke="#263238" stroke-width="1.122" stroke-miterlimit="10"/>
<path d="M577.609 152.994C577.609 152.994 580.797 146.923 580.797 140.852" stroke="#263238" stroke-width="1.122" stroke-miterlimit="10"/>
<path d="M628.297 183.806C628.297 183.806 633.001 177.431 634.064 170.602" stroke="#263238" stroke-width="1.122" stroke-miterlimit="10"/>
<path d="M556.966 162.251L563.948 178.188C563.948 178.188 569.564 181.983 570.02 182.438C570.475 182.894 571.993 186.536 571.538 187.598C571.082 188.661 569.564 183.955 568.501 184.563C567.439 185.17 566.528 186.84 566.68 187.751C566.832 188.662 571.386 197.313 570.931 197.617C570.475 197.92 569.565 198.375 568.35 198.072C567.136 197.769 567.136 197.465 566.376 197.465C565.618 197.465 562.886 197.465 561.671 197.161C560.457 196.857 558.028 193.671 557.421 192.608C556.814 191.545 555.902 182.439 555.902 182.439L543.305 166.2C543.307 166.197 550.592 159.974 556.966 162.251Z" fill="#B97A5B" stroke="#263238" stroke-width="1.122" stroke-miterlimit="10"/>
<path d="M562.273 188.359C562.273 188.359 565.308 193.672 565.764 194.886C566.22 196.1 566.371 197.467 566.371 197.467" stroke="#263238" stroke-width="1.122" stroke-miterlimit="10"/>
<path d="M559.242 191.242C559.242 191.242 561.67 195.34 564.251 197.009" stroke="#263238" stroke-width="1.122" stroke-miterlimit="10"/>
<path d="M578.582 204.604L576.117 205.746L607.564 273.637L610.029 272.496L578.582 204.604Z" fill="white" stroke="#263238" stroke-width="1.122" stroke-miterlimit="10"/>
<path d="M575.291 206.136L566.249 187.432C565.699 186.295 566.189 184.926 567.335 184.394C568.456 183.874 569.786 184.35 570.323 185.462L579.398 204.233L575.291 206.136Z" fill="#263238" stroke="#263238" stroke-width="1.122" stroke-miterlimit="10"/>
<path d="M624.983 264.228C624.983 264.228 608.647 274.119 602.801 280.415C596.956 286.709 579.57 306.643 576.572 309.791C573.575 312.938 568.029 320.583 566.381 322.08C564.733 323.579 562.334 323.429 563.084 327.026C563.833 330.623 564.283 330.923 564.283 331.823C564.283 332.721 564.133 335.72 564.133 335.72C564.133 335.72 557.089 343.063 556.189 345.161C555.29 347.259 556.189 351.456 557.238 353.704C558.287 355.953 560.385 357.45 560.385 357.9C560.385 358.35 558.587 364.495 558.137 366.144C557.687 367.792 559.035 371.69 559.035 371.69C559.035 371.69 555.589 376.786 557.986 379.184C560.384 381.581 564.731 382.031 565.48 381.432C566.23 380.833 617.937 378.735 621.983 377.085C626.03 375.437 629.627 373.788 632.624 370.191C635.622 366.594 638.319 364.795 638.319 364.795C638.319 364.795 641.017 362.247 641.017 359.699C641.017 357.151 640.717 356.552 640.867 355.802C641.017 355.053 642.216 353.554 642.216 353.554L643.265 349.657C643.265 349.657 642.366 350.556 644.015 341.864C645.663 333.17 645.963 330.923 645.963 330.923L645.664 325.378L645.065 319.683C645.065 319.683 639.969 294.354 637.271 287.76C634.574 281.164 633.075 276.819 632.775 275.919C632.476 275.02 632.326 270.523 632.326 270.523C632.326 270.523 635.024 265.877 634.574 264.828C634.126 263.778 626.332 262.129 624.983 264.228Z" fill="#9C9C9C" stroke="#263238" stroke-width="1.122" stroke-miterlimit="10"/>
<path d="M627.538 232.07L626.593 247.962C626.593 247.962 623.387 258.556 623.666 260.507C623.945 262.459 627.151 267.477 627.151 267.477C627.151 267.477 628.127 270.126 628.963 269.15C629.798 268.174 630.496 267.616 630.078 265.945C629.659 264.272 629.659 264.272 629.659 264.272C629.659 264.272 632.587 265.108 632.726 266.363C632.865 267.618 632.029 271.242 633.005 271.521C633.981 271.799 637.187 265.248 637.465 264.412C637.744 263.576 635.235 259.951 634.677 258.696C634.119 257.442 631.889 254.654 631.889 253.818C631.889 252.982 640.893 234.045 640.893 234.045L627.538 232.07Z" fill="#B97A5B" stroke="#263238" stroke-width="1.122" stroke-miterlimit="10"/>
<path d="M629.655 264.269L627.703 259.809" stroke="#263238" stroke-width="1.122" stroke-miterlimit="10"/>
<path d="M617.944 282.816C617.944 282.816 616.595 287.312 616.595 288.062C616.595 288.811 615.695 292.408 615.695 292.408L614.796 294.057C614.796 294.057 611.648 296.605 611.648 298.104C611.648 299.603 612.398 303.049 612.398 303.049C612.398 303.049 620.342 305.298 621.391 305.298C622.44 305.298 623.639 303.799 623.639 303.799C623.639 303.799 624.538 305.447 625.588 305.447C626.637 305.447 627.986 304.848 628.136 305.447C628.287 306.046 628.735 307.246 628.735 307.246C628.735 307.246 630.684 304.547 631.283 303.199C631.883 301.85 633.232 302.449 632.183 299.901C631.134 297.353 630.385 296.754 629.935 296.304C629.485 295.854 630.834 296.154 629.485 295.854C628.136 295.554 627.536 295.255 626.487 294.805C625.438 294.355 623.939 293.456 623.939 293.456L623.34 291.059C623.34 291.059 623.79 288.661 623.79 288.061C623.79 287.46 623.34 286.262 623.34 286.262L621.841 285.213L617.944 282.816Z" fill="white" stroke="#263238" stroke-width="1.122" stroke-miterlimit="10"/>
<path d="M621.833 286.863C621.833 286.863 620.034 293.158 619.735 293.758C619.435 294.357 623.482 299.003 623.931 299.003C624.381 299.003 627.978 297.954 628.577 298.404C629.176 298.854 630.376 300.952 630.376 301.402" stroke="#263238" stroke-width="1.122" stroke-miterlimit="10"/>
<path d="M620.49 300.048C619.741 299.449 618.092 299.299 616.443 296.901C614.795 294.503 614.195 292.405 614.345 290.756C614.495 289.108 614.495 289.108 614.495 289.108L617.493 287.009C617.493 287.009 617.644 287.009 617.343 285.51C617.043 284.011 616.385 284.09 616.385 284.09L610.842 272.125L606.734 274.028L612.277 285.993C612.277 285.993 610.898 291.206 612.096 295.102C613.296 298.999 618.242 301.698 619.14 301.698C620.04 301.696 621.24 300.647 620.49 300.048Z" fill="#263238" stroke="#263238" stroke-width="1.122" stroke-miterlimit="10"/>
<path d="M625.726 268.398L618.727 278.802" stroke="#263238" stroke-width="1.122" stroke-miterlimit="10"/>
<path d="M626.867 272.371L626.109 287.503" stroke="#263238" stroke-width="1.122" stroke-miterlimit="10"/>
<path d="M594.469 338.375C597.811 339.392 601.173 340.694 604.351 342.359" stroke="#263238" stroke-width="1.122" stroke-miterlimit="10"/>
<path d="M568.031 334.795C568.031 334.795 577.572 334.442 588.684 336.874" stroke="#263238" stroke-width="1.122" stroke-miterlimit="10"/>
<path d="M594.711 335.359C594.711 335.359 610.789 340.656 618.734 347.466" stroke="#263238" stroke-width="1.122" stroke-miterlimit="10"/>
<path d="M560.273 355.79C560.273 355.79 562.733 349.548 568.218 345.387" stroke="#263238" stroke-width="1.122" stroke-miterlimit="10"/>
<path d="M570.312 341.223C570.312 341.223 565.204 344.438 563.312 347.086" stroke="#263238" stroke-width="1.122" stroke-miterlimit="10"/>
<path d="M583.218 311.098C582.023 312.371 580.975 313.484 580.141 314.367" stroke="#263238" stroke-width="1.122" stroke-miterlimit="10"/>
<path d="M606.81 285.805C606.81 285.805 594.686 298.845 586.18 307.934" stroke="#263238" stroke-width="1.122" stroke-miterlimit="10"/>
<path d="M642.244 330.023C642.277 334.81 641.43 339.328 641.43 339.328" stroke="#263238" stroke-width="1.122" stroke-miterlimit="10"/>
<path d="M632.539 289.961C632.539 289.961 640.106 318.144 641.618 324.198C641.701 324.529 641.774 324.869 641.838 325.215" stroke="#263238" stroke-width="1.122" stroke-miterlimit="10"/>
<path d="M625.219 319.652C628.322 320.32 629.32 321.551 629.32 321.551" stroke="#263238" stroke-width="1.122" stroke-miterlimit="10"/>
<path d="M584.875 320.604C584.875 320.604 600.386 322.495 613.248 320.036C616.015 319.508 618.335 319.275 620.274 319.238" stroke="#263238" stroke-width="1.122" stroke-miterlimit="10"/>
<path d="M616.838 315.684C616.838 315.684 606.245 316.819 602.273 317.575" stroke="#263238" stroke-width="1.122" stroke-miterlimit="10"/>
<path d="M307.372 258.391C307.372 258.391 298.646 266.913 299.66 270.363C300.674 273.814 320.562 299.179 320.562 299.179C320.562 299.179 323.403 304.657 325.229 307.498C327.056 310.339 331.52 313.383 332.941 312.774C334.361 312.165 340.246 306.686 341.057 305.469C341.87 304.251 336.999 300.801 334.766 299.584C332.534 298.366 325.228 294.308 323.2 289.234C321.17 284.161 314.88 272.594 314.88 272.594L318.533 260.824L307.372 258.391Z" fill="#B97A5B" stroke="#263238" stroke-width="1.122" stroke-miterlimit="10"/>
<path d="M332.945 312.778C334.366 312.168 340.251 306.69 341.062 305.472C341.874 304.255 337.004 300.805 334.771 299.587C332.917 298.576 327.573 295.602 324.649 291.719L319.18 297.404C320.047 298.519 320.566 299.182 320.566 299.182C320.566 299.182 323.407 304.661 325.234 307.502C327.061 310.343 331.525 313.387 332.945 312.778Z" fill="#92E3A9" stroke="#263238" stroke-width="1.122" stroke-miterlimit="10"/>
<path d="M334.164 303.645C334.164 303.645 329.09 309.936 328.888 312.168C328.685 314.4 327.468 323.328 327.468 323.328C327.468 323.328 318.742 335.301 318.742 338.345C318.742 341.389 326.657 348.491 331.932 352.55C337.208 356.608 359.936 360.464 363.183 360.464C366.431 360.464 390.173 358.638 391.999 356.406C393.825 354.173 394.231 347.883 391.999 342.404C389.766 336.926 374.952 324.344 373.735 323.126C372.517 321.909 369.27 309.53 366.023 306.689C362.776 303.848 348.572 303.239 346.339 303.442C344.107 303.645 335.991 303.442 334.164 303.645Z" fill="#9C9C9C" stroke="#263238" stroke-width="1.122" stroke-miterlimit="10"/>
<path d="M374.594 352.609C382.616 356.27 385.383 357.595 387.323 355.378C389.601 352.775 389.438 350.336 389.438 350.336" stroke="#263238" stroke-width="1.122" stroke-miterlimit="10"/>
<path d="M334.133 306.574C334.133 306.574 331.042 316.497 332.343 323.329C333.645 330.161 358.208 345.289 369.92 350.495C370.283 350.655 370.637 350.815 370.984 350.97" stroke="#263238" stroke-width="1.122" stroke-miterlimit="10"/>
<path d="M368.477 329.695C370.551 332.481 372.193 334.558 372.193 334.558" stroke="#263238" stroke-width="1.122" stroke-miterlimit="10"/>
<path d="M346.664 306.574C346.664 306.574 359.514 316.497 363.094 322.028C364.223 323.773 365.547 325.665 366.831 327.437" stroke="#263238" stroke-width="1.122" stroke-miterlimit="10"/>
<path d="M343.078 307.066C343.078 307.066 348.934 315.037 351.049 321.869" stroke="#263238" stroke-width="1.122" stroke-miterlimit="10"/>
<path d="M328.122 324.469C328.122 324.469 326.495 330.813 332.352 334.229" stroke="#263238" stroke-width="1.122" stroke-miterlimit="10"/>
<path d="M330.501 298.976L336.792 298.164C336.792 298.164 341.257 302.425 342.271 302.832C343.285 303.238 344.706 305.064 343.285 305.672C341.865 306.282 336.994 303.035 336.994 303.035C336.994 303.035 334.153 304.049 332.327 303.847C330.5 303.644 330.5 303.644 330.5 303.644" fill="#92E3A9"/>
<path d="M330.501 298.976L336.792 298.164C336.792 298.164 341.257 302.425 342.271 302.832C343.285 303.238 344.706 305.064 343.285 305.672C341.865 306.282 336.994 303.035 336.994 303.035C336.994 303.035 334.153 304.049 332.327 303.847C330.5 303.644 330.5 303.644 330.5 303.644" stroke="#263238" stroke-width="1.122" stroke-miterlimit="10"/>
<path d="M339.632 226.966C339.632 226.966 328.629 221.788 309.695 214.506C290.762 207.224 276.359 205.12 260.339 209.004C244.32 212.887 232.668 221.626 233.315 236.999C233.962 252.372 250.307 295.092 249.173 297.843C248.04 300.595 237.522 310.142 234.447 320.66C231.373 331.179 227.327 356.747 226.841 358.688C226.355 360.631 222.958 359.659 222.634 364.838C222.31 370.016 221.016 375.518 221.016 376.975C221.016 378.431 231.049 379.564 238.978 380.373C246.907 381.182 254.027 381.021 256.292 379.079C258.558 377.136 258.396 375.195 256.94 374.548C255.483 373.9 251.762 371.474 249.011 367.752C246.26 364.03 242.376 361.765 241.89 359.337C241.405 356.91 243.024 350.437 243.024 350.437C243.024 350.437 252.248 326.811 256.617 319.691C260.986 312.571 268.753 307.716 270.048 299.948C271.343 292.181 271.019 281.339 271.019 281.339C271.019 281.339 279.272 299.463 279.918 302.861C280.566 306.26 275.388 311.114 277.653 324.222C279.918 337.329 282.993 358.852 283.317 359.823C283.64 360.793 281.375 360.47 281.536 363.544C281.698 366.619 280.566 375.681 281.375 376.167C282.184 376.653 290.922 377.137 294.32 376.329C297.719 375.52 305.487 374.549 307.913 375.195C310.34 375.842 318.432 376.166 320.373 374.709C322.315 373.253 322.315 368.884 321.668 368.884C321.021 368.884 316.975 367.751 312.768 365.162C308.561 362.573 300.308 360.47 298.851 358.528C297.395 356.586 296.909 355.615 296.909 354.806C296.909 353.997 297.718 332.637 297.07 327.134C296.423 321.632 297.718 306.583 297.718 302.699C297.718 298.816 299.822 294.77 298.527 287.812C297.232 280.853 291.892 261.92 290.598 257.874C289.303 253.829 287.199 248.003 287.199 248.003C287.199 248.003 292.216 254.638 299.174 258.036C306.133 261.435 311.958 262.244 311.958 262.244L326.522 273.894L330.082 263.214L330.729 259.168C330.729 259.168 332.995 257.226 334.775 255.122C336.556 253.018 338.983 251.076 340.439 248.325C341.898 245.575 339.632 226.966 339.632 226.966Z" fill="#B97A5B" stroke="#263238" stroke-width="1.122" stroke-miterlimit="10"/>
<path d="M297.073 327.135C296.425 321.633 297.72 306.584 297.72 302.7C297.72 298.817 299.824 294.771 298.529 287.813C297.234 280.854 291.895 261.921 290.6 257.875C289.305 253.829 287.202 248.004 287.202 248.004C287.202 248.004 289.489 251.023 293.111 254.031L289.559 242.192C289.559 242.192 274.047 241.017 266.291 234.671C260.728 230.119 255.529 217.832 253.032 211.246C240.911 215.851 232.769 224.083 233.313 237.002C233.96 252.375 250.305 295.095 249.171 297.847C248.038 300.598 237.521 310.145 234.445 320.664C232.208 328.318 229.458 343.935 227.938 352.625C230.131 354.966 234.648 358.225 241.901 356.548C242.193 353.769 243.022 350.439 243.022 350.439C243.022 350.439 252.246 326.813 256.615 319.693C260.984 312.573 268.751 307.718 270.046 299.95C271.341 292.183 271.017 281.341 271.017 281.341C271.017 281.341 279.27 299.464 279.916 302.863C280.564 306.262 275.386 311.116 277.651 324.224C279.194 333.147 281.11 345.965 282.279 353.548C287.28 354.348 292.795 354.256 297.004 351.595C297.201 345.248 297.577 331.409 297.073 327.135Z" fill="#263238" stroke="#263238" stroke-width="1.122" stroke-miterlimit="10"/>
<path d="M309.698 214.506C290.765 207.224 276.362 205.12 260.342 209.004C252.797 210.832 246.223 213.739 241.444 217.909C240.576 221.162 241.23 225.813 247.235 231.497C259.372 242.987 265.035 247.517 274.098 247.517C283.16 247.517 285.911 246.061 285.911 246.061C285.911 246.061 286.898 248.12 288.132 250.603C287.591 249.07 287.206 248.003 287.206 248.003C287.206 248.003 292.223 254.638 299.181 258.036C306.14 261.435 311.965 262.244 311.965 262.244L326.529 273.894L330.089 263.214L330.736 259.168C330.736 259.168 333.002 257.226 334.782 255.122C336.563 253.018 338.99 251.076 340.446 248.325C341.902 245.574 339.637 226.965 339.637 226.965C339.637 226.965 328.631 221.788 309.698 214.506Z" fill="#92E3A9" stroke="#263238" stroke-width="1.122" stroke-miterlimit="10"/>
<path d="M346.916 228.75C346.916 228.75 351.124 222.278 361.966 221.63C372.808 220.983 380.089 223.411 385.107 236.194C390.123 248.978 387.049 257.069 387.049 261.276C387.049 265.484 388.991 276.811 386.887 280.371C384.784 283.931 381.548 285.065 381.385 287.006C381.224 288.948 382.842 289.757 382.842 289.757C382.842 289.757 380.899 291.375 376.045 288.139C371.19 284.903 371.514 280.857 371.352 278.592C371.191 276.327 369.087 280.048 364.555 277.783C360.025 275.518 361.157 270.824 361.319 269.368C361.481 267.912 359.539 268.073 356.95 267.264C354.361 266.455 352.904 260.306 353.713 257.231C354.522 254.157 352.743 250.273 349.667 250.273C346.593 250.273 344.812 245.904 344.812 240.24C344.812 234.576 346.916 228.75 346.916 228.75Z" fill="#263238" stroke="#263238" stroke-width="1.122" stroke-miterlimit="10"/>
<path d="M378.792 252.538C378.792 252.538 377.983 255.289 374.585 257.068C371.186 258.849 368.759 258.849 367.464 260.467C366.17 262.085 366.331 264.513 365.361 264.836C364.39 265.159 361.801 263.703 361.801 263.703C361.801 263.703 359.049 264.188 355.166 264.673C351.283 265.159 349.502 264.187 349.179 262.084C348.855 259.98 348.855 251.889 349.665 250.27C350.474 248.652 351.444 247.357 351.444 247.357C351.444 247.357 349.988 243.15 352.739 241.046C355.49 238.942 357.108 239.751 357.756 241.532C358.403 243.313 357.594 245.739 357.594 245.739L362.772 244.283C362.772 244.283 366.171 248.005 369.407 249.3C372.644 250.594 377.983 249.623 377.983 249.623L378.792 252.538Z" fill="#B97A5B" stroke="#263238" stroke-width="1.122" stroke-miterlimit="10"/>
<path d="M358.078 262.574C358.078 262.574 358.24 260.632 359.211 259.5" stroke="#263238" stroke-width="1.122" stroke-miterlimit="10"/>
<path d="M367.948 257.069L364.711 257.392C364.711 257.392 362.446 256.097 363.902 253.832" stroke="#263238" stroke-width="1.122" stroke-miterlimit="10"/>
<path d="M367.141 253.02C367.141 253.02 370.215 254.314 369.568 257.227" stroke="#263238" stroke-width="1.122" stroke-miterlimit="10"/>
<path d="M354.843 228.267C354.843 228.267 349.34 227.781 346.914 228.752C344.487 229.723 339.632 226.972 339.632 226.972C339.632 226.972 336.881 226.649 336.233 232.636C335.586 238.623 338.337 242.669 338.337 242.669C338.337 242.669 334.454 240.079 334.777 243.963C335.1 247.847 338.499 252.702 339.47 253.835C340.441 254.968 337.528 253.512 338.337 256.424C339.146 259.337 344.971 262.574 347.561 263.059C350.151 263.545 350.474 262.088 350.635 256.1C350.797 250.113 351.444 247.362 351.444 247.362C351.444 247.362 349.665 240.08 352.092 236.843C354.519 233.607 358.726 232.636 359.05 229.4" fill="#263238"/>
<path d="M354.843 228.267C354.843 228.267 349.34 227.781 346.914 228.752C344.487 229.723 339.632 226.972 339.632 226.972C339.632 226.972 336.881 226.649 336.233 232.636C335.586 238.623 338.337 242.669 338.337 242.669C338.337 242.669 334.454 240.079 334.777 243.963C335.1 247.847 338.499 252.702 339.47 253.835C340.441 254.968 337.528 253.512 338.337 256.424C339.146 259.337 344.971 262.574 347.561 263.059C350.151 263.545 350.474 262.088 350.635 256.1C350.797 250.113 351.444 247.362 351.444 247.362C351.444 247.362 349.665 240.08 352.092 236.843C354.519 233.607 358.726 232.636 359.05 229.4" stroke="#263238" stroke-width="1.122" stroke-miterlimit="10"/>
<path d="M268.43 223.488C268.43 223.488 277.492 237.243 283.318 242.584" stroke="#263238" stroke-width="1.122" stroke-miterlimit="10"/>
<path d="M276.688 223C276.688 223 278.468 232.224 281.866 238.211" stroke="#263238" stroke-width="1.122" stroke-miterlimit="10"/>
<path d="M253.219 229.473C253.219 229.473 266.973 241.448 278.625 242.095" stroke="#263238" stroke-width="1.122" stroke-miterlimit="10"/>
<path d="M308.727 248.406L312.287 259.896" stroke="#263238" stroke-width="1.122" stroke-miterlimit="10"/>
<path d="M256.291 379.08C258.557 377.138 258.395 375.197 256.939 374.55C255.482 373.902 251.761 371.475 249.01 367.754C246.258 364.032 242.375 361.766 241.889 359.339C241.865 359.214 241.849 359.073 241.834 358.929C240.36 358.788 237.778 358.681 236.28 359.43C234.097 360.521 234.339 363.312 231.671 363.312C229.003 363.312 228.275 362.584 228.154 361.492C228.033 360.4 226.82 359.551 226.82 359.551L226.478 359.358C225.46 360.48 222.912 360.388 222.634 364.841C222.31 370.019 221.016 375.521 221.016 376.978C221.016 378.434 231.049 379.567 238.978 380.376C246.906 381.184 254.026 381.023 256.291 379.08Z" fill="white" stroke="#263238" stroke-width="1.122" stroke-miterlimit="10"/>
<path d="M321.667 368.887C321.02 368.887 316.974 367.755 312.767 365.165C308.644 362.628 300.654 360.557 298.963 358.648C297.818 359.393 295.769 360.888 293.415 361.735C290.382 362.827 286.015 362.948 285.408 361.735C284.801 360.522 283.315 359.825 283.315 359.825C283.638 360.796 281.373 360.473 281.534 363.547C281.696 366.621 280.564 375.684 281.373 376.17C282.182 376.655 290.92 377.14 294.318 376.331C297.717 375.522 305.484 374.552 307.911 375.198C310.338 375.844 318.43 376.168 320.371 374.712C322.314 373.256 322.314 368.887 321.667 368.887Z" fill="white" stroke="#263238" stroke-width="1.122" stroke-miterlimit="10"/>
<path d="M313.089 258.113C313.089 258.113 310.824 282.872 312.442 296.789C314.06 310.706 316.811 348.734 316.811 348.734L325.064 347.439L323.931 295.008L327.006 272.677L313.089 258.113Z" fill="#B97A5B" stroke="#263238" stroke-width="1.122" stroke-miterlimit="10"/>
<path d="M332.17 362.534C332.17 362.534 338.677 363.836 340.141 363.51C341.605 363.185 346.647 362.372 347.298 362.209C347.949 362.046 354.781 359.769 356.733 362.046C358.685 364.324 359.011 369.366 356.407 371.806C353.804 374.247 348.762 374.735 344.207 374.084C339.653 373.433 337.847 373.04 335.097 372.783C332.347 372.526 333.849 370.974 330.244 371.878C326.639 372.783 319.644 372.62 316.39 372.295C313.136 371.969 309.233 369.854 310.046 364.161C310.86 358.468 314.642 357.774 315.842 358.608C317.042 359.444 332.17 362.534 332.17 362.534Z" fill="white" stroke="#263238" stroke-width="1.122" stroke-miterlimit="10"/>
<path d="M357.711 363.834C357.711 363.834 363.729 363.671 363.892 364.484C364.055 365.298 363.892 367.738 363.567 368.388C363.241 369.039 358.362 369.201 358.362 369.201L357.711 363.834Z" fill="#92E3A9" stroke="#263238" stroke-width="1.122" stroke-miterlimit="10"/>
<path d="M324.907 344.207L315.197 346.958C315.197 346.958 314.711 356.83 315.845 358.609C316.978 360.389 318.272 364.759 318.272 364.759C318.272 364.759 318.433 370.423 319.081 371.879C319.728 373.335 322.594 372.877 324.097 373.497C325.902 374.241 328.624 369.058 329.054 367.357C329.277 366.47 330.408 370.908 330.247 371.879C330.085 372.849 331.541 373.983 332.35 372.526C333.159 371.07 333.484 366.377 332.512 364.111C331.541 361.846 326.848 351.489 326.525 350.357C326.202 349.223 324.907 344.207 324.907 344.207Z" fill="#92E3A9" stroke="#263238" stroke-width="1.122" stroke-miterlimit="10"/>
<path d="M325.146 367.441C325.146 367.441 324.98 370.604 324.646 371.436C324.313 372.268 323.148 373.35 323.148 373.35" stroke="#263238" stroke-width="1.122" stroke-miterlimit="10"/>
<path d="M321.892 366.855C321.892 366.855 321.726 370.101 321.559 371.017C321.393 371.933 320.727 373.097 320.727 373.097" stroke="#263238" stroke-width="1.122" stroke-miterlimit="10"/>
<path d="M481.805 354.318H416.533L410.773 237.969H487.564L481.805 354.318Z" fill="#92E3A9" stroke="#263238" stroke-width="1.122" stroke-miterlimit="10"/>
<path d="M491.438 235.25H406.891V240.679H491.438V235.25Z" fill="#92E3A9" stroke="#263238" stroke-width="1.122" stroke-miterlimit="10"/>
<path d="M481.159 294.01C477.558 299.825 473.958 305.64 470.353 311.454C469.304 313.146 467.772 313.93 465.786 313.909C463.471 313.886 461.156 313.904 458.621 313.904C458.621 315.611 458.621 317.346 458.621 319.081C458.503 319.106 458.385 319.132 458.267 319.157C457.642 318.084 457.011 317.015 456.392 315.937C454.789 313.138 453.174 310.346 451.614 307.524C451.413 307.16 451.313 306.533 451.49 306.198C453.705 301.984 455.979 297.801 458.405 293.302C458.405 295.592 458.405 297.548 458.405 299.635C461.864 299.635 465.228 299.635 468.779 299.635C466.076 294.912 463.426 290.281 460.713 285.54C465.054 283.026 469.327 280.552 473.825 277.949C476.291 282.43 478.726 286.853 481.159 291.277C481.159 292.187 481.159 293.098 481.159 294.01Z" fill="white"/>
<path d="M442.359 259.312C442.933 259.399 443.505 259.554 444.082 259.564C449.181 259.648 454.279 259.728 459.377 259.761C461.576 259.776 463.2 260.594 464.267 262.595C465.333 264.594 466.551 266.511 467.757 268.557C469.339 267.657 470.854 266.795 472.368 265.933C472.428 265.985 472.488 266.037 472.548 266.088C471.402 268.179 470.255 270.269 469.106 272.359C468.099 274.191 467.11 276.035 466.062 277.845C465.865 278.187 465.443 278.608 465.104 278.627C460.342 278.903 455.576 279.115 450.706 279.072C452.389 278.082 454.071 277.093 455.838 276.054C454.098 273.085 452.402 270.191 450.563 267.053C447.841 271.951 445.21 276.686 442.57 281.438C438.161 279.004 433.83 276.613 429.375 274.152C430.041 272.938 430.666 271.794 431.297 270.653C432.483 268.504 433.765 266.402 434.835 264.197C435.986 261.825 437.664 260.144 440.174 259.314C440.901 259.313 441.631 259.312 442.359 259.312Z" fill="white"/>
<path d="M423.918 283.367C422.301 282.39 420.807 281.486 419.312 280.583C419.327 280.504 419.343 280.425 419.357 280.345C421.058 280.345 422.758 280.345 424.459 280.345C426.779 280.345 429.109 280.474 431.417 280.303C433.138 280.175 434.1 280.737 434.958 282.24C437.07 285.944 439.385 289.532 441.476 293.357C439.763 292.327 438.049 291.296 436.221 290.198C434.5 293.18 432.815 296.099 431.009 299.226C436.56 299.226 441.855 299.226 447.232 299.226C447.232 304.291 447.232 309.228 447.232 314.36C446.467 314.36 445.712 314.36 444.956 314.36C441.544 314.362 438.132 314.39 434.721 314.358C431.84 314.33 429.691 313.074 428.341 310.464C425.712 305.382 423.089 300.296 420.367 295.263C419.212 293.128 419.142 291.193 420.498 289.132C421.693 287.317 422.726 285.393 423.918 283.367Z" fill="white"/>
</g>
<defs>
<clipPath id="clip0_978_13643">
<rect width="841.5" height="561" fill="white"/>
</clipPath>
</defs>
</svg>
