<svg width="480" height="424" viewBox="0 0 480 424" fill="none" xmlns="http://www.w3.org/2000/svg">
<g clip-path="url(#clip0_978_28538)">
<path d="M166.894 184.644C166.894 184.644 166.55 184.416 166.004 183.857C165.458 183.304 164.712 182.39 164.114 181.021C163.513 179.665 163.042 177.842 163.216 175.714C163.361 173.61 164.281 171.166 166.289 169.344C168.244 167.52 171.169 166.276 174.352 166.471C175.921 166.583 177.584 167.034 178.943 168.093C179.618 168.611 180.225 169.26 180.651 170.046C181.076 170.829 181.279 171.782 181.089 172.704C180.713 174.581 178.912 175.92 177.021 176.116C175.105 176.32 173.187 175.632 171.595 174.536C168.372 172.348 166.352 168.255 166.768 164.12C167.242 159.96 170.268 156.509 173.881 155.121C175.686 154.413 177.671 154.193 179.516 154.612C180.435 154.827 181.318 155.226 182.037 155.834C182.762 156.444 183.27 157.273 183.511 158.161C183.753 159.047 183.713 160.027 183.294 160.85C182.884 161.679 182.137 162.263 181.35 162.611C179.745 163.315 177.931 163.105 176.505 162.407C175.061 161.704 173.934 160.563 173.2 159.282C172.462 157.989 172.196 156.544 172.217 155.204C172.29 152.492 173.426 150.207 174.723 148.553C176.04 146.885 177.513 145.773 178.742 144.957C181.244 143.361 182.8 142.816 182.8 142.816C182.804 142.824 182.717 142.877 182.54 142.971C182.338 143.077 182.081 143.213 181.76 143.384C181.078 143.752 180.07 144.298 178.858 145.128C177.657 145.963 176.223 147.086 174.958 148.735C173.713 150.366 172.637 152.608 172.591 155.21C172.586 156.498 172.85 157.866 173.556 159.08C174.259 160.287 175.338 161.362 176.695 162.011C178.034 162.658 179.71 162.832 181.161 162.187C181.873 161.867 182.522 161.346 182.867 160.636C183.221 159.935 183.26 159.08 183.04 158.29C182.823 157.498 182.362 156.755 181.717 156.217C181.067 155.669 180.258 155.304 179.401 155.106C177.679 154.719 175.786 154.926 174.071 155.606C170.627 156.931 167.738 160.247 167.296 164.178C166.897 168.096 168.83 172.031 171.89 174.108C173.399 175.156 175.223 175.799 176.965 175.613C178.678 175.446 180.294 174.22 180.612 172.608C180.779 171.808 180.612 170.982 180.232 170.27C179.849 169.559 179.29 168.95 178.661 168.462C177.396 167.464 175.832 167.028 174.324 166.908C171.28 166.701 168.444 167.877 166.545 169.619C164.596 171.356 163.685 173.692 163.514 175.739C163.316 177.805 163.745 179.597 164.306 180.938C164.863 182.294 165.57 183.213 166.084 183.783C166.597 184.36 166.915 184.621 166.894 184.644Z" fill="#E0E0E0"/>
<path d="M130.828 40.922C130.828 40.922 130.45 41.0896 129.686 41.2514C128.927 41.4162 127.756 41.5558 126.279 41.3266C124.813 41.107 123.021 40.5271 121.318 39.2393C119.62 37.9891 118.049 35.9027 117.587 33.2308C117.095 30.6012 117.613 27.4669 119.483 24.8836C120.418 23.6189 121.691 22.4573 123.313 21.8774C124.112 21.5856 124.986 21.4209 125.878 21.4815C126.767 21.5422 127.679 21.8822 128.355 22.5372C129.738 23.8607 129.903 26.0982 129.055 27.8002C128.201 29.5272 126.593 30.7785 124.813 31.5346C121.24 33.0825 116.7 32.5941 113.432 30.0272C110.174 27.3976 108.884 22.9928 109.649 19.1997C110.018 17.2954 110.897 15.5019 112.239 14.1698C112.912 13.5091 113.723 12.9774 114.622 12.6971C115.526 12.412 116.498 12.4264 117.377 12.699C118.253 12.9687 119.059 13.5293 119.529 14.3239C120.01 15.1147 120.102 16.0577 119.975 16.9092C119.709 18.641 118.56 20.0598 117.206 20.8901C115.839 21.7329 114.271 22.072 112.796 22.0055C111.309 21.9352 109.946 21.3843 108.826 20.6503C106.576 19.1352 105.255 16.9506 104.554 14.9693C103.851 12.9639 103.702 11.1232 103.672 9.64754C103.665 6.67989 104.04 5.07422 104.04 5.07422C104.049 5.07518 104.046 5.17728 104.031 5.37667C104.013 5.60495 103.99 5.89487 103.962 6.25704C103.908 7.0305 103.827 8.17383 103.878 9.64273C103.94 11.1039 104.118 12.9167 104.833 14.8691C105.542 16.7946 106.858 18.905 109.03 20.3373C110.115 21.0327 111.411 21.5413 112.815 21.5981C114.21 21.6511 115.697 21.3168 116.972 20.5193C118.236 19.7343 119.282 18.4128 119.514 16.8418C119.626 16.0693 119.533 15.2419 119.119 14.5705C118.716 13.8953 118.016 13.405 117.232 13.1661C116.446 12.9253 115.572 12.9157 114.772 13.1719C113.962 13.4281 113.22 13.9146 112.593 14.532C111.344 15.7784 110.504 17.4881 110.158 19.3008C109.432 22.9187 110.681 27.1356 113.764 29.6149C116.858 32.0518 121.216 32.5286 124.61 31.0588C126.304 30.3469 127.824 29.1516 128.601 27.5806C129.377 26.0462 129.209 24.0235 128.018 22.8907C127.432 22.3215 126.645 22.019 125.841 21.9593C125.036 21.9005 124.222 22.046 123.473 22.3167C121.953 22.8493 120.746 23.9368 119.838 25.1456C118.032 27.6047 117.504 30.6292 117.956 33.1653C118.378 35.7419 119.863 37.7637 121.499 39.0043C123.137 40.2796 124.88 40.8768 126.313 41.1233C127.756 41.3796 128.911 41.2755 129.668 41.1465C130.429 41.0203 130.819 40.8922 130.828 40.922Z" fill="#E0E0E0"/>
<path d="M406.233 46.433C406.233 46.433 405.968 46.1161 405.602 45.4264C405.235 44.7416 404.778 43.6541 404.592 42.1727C404.399 40.7029 404.463 38.8198 405.233 36.8279C405.967 34.8513 407.54 32.767 409.982 31.587C412.374 30.3898 415.53 30.0247 418.528 31.1122C420.001 31.6631 421.468 32.5666 422.472 33.9662C422.973 34.6549 423.372 35.4495 423.559 36.3231C423.745 37.1948 423.668 38.1648 423.226 38.996C422.334 40.6903 420.229 41.4648 418.359 41.118C416.464 40.7722 414.818 39.5692 413.602 38.0685C411.129 35.0594 410.349 30.5602 411.918 26.7122C413.549 22.8565 417.429 20.4032 421.286 20.094C423.219 19.9245 425.185 20.276 426.835 21.1998C427.656 21.666 428.39 22.2988 428.907 23.0848C429.43 23.8756 429.684 24.8137 429.663 25.7336C429.645 26.6506 429.328 27.5801 428.694 28.2505C428.066 28.9305 427.184 29.2792 426.331 29.3909C424.592 29.6124 422.911 28.8977 421.741 27.8238C420.555 26.7411 419.797 25.3271 419.455 23.891C419.114 22.4423 419.268 20.9802 419.665 19.701C420.503 17.1206 422.24 15.25 423.951 14.0306C425.685 12.8025 427.413 12.1533 428.824 11.7179C431.675 10.8944 433.321 10.8125 433.321 10.8125C433.323 10.8212 433.223 10.8472 433.028 10.8876C432.804 10.9329 432.518 10.9907 432.162 11.0629C431.404 11.2238 430.282 11.4617 428.884 11.9144C427.496 12.3758 425.803 13.0462 424.123 14.2704C422.467 15.4821 420.801 17.3286 420.022 19.8118C419.652 21.0456 419.519 22.4317 419.852 23.7966C420.185 25.1537 420.917 26.4897 422.034 27.4963C423.136 28.4951 424.694 29.1366 426.269 28.9276C427.043 28.8216 427.813 28.5057 428.344 27.923C428.882 27.3508 429.161 26.5417 429.174 25.722C429.19 24.9004 428.958 24.0576 428.491 23.3583C428.022 22.6504 427.35 22.0705 426.584 21.638C425.042 20.7798 423.168 20.4427 421.33 20.6093C417.651 20.9069 413.942 23.2687 412.407 26.9145C410.916 30.5602 411.656 34.8812 414.004 37.7391C415.154 39.1704 416.722 40.3031 418.446 40.6181C420.135 40.9417 422.033 40.2232 422.794 38.7668C423.18 38.0473 423.254 37.2074 423.091 36.4175C422.925 35.6277 422.562 34.8851 422.095 34.2387C421.164 32.924 419.787 32.0629 418.375 31.5225C415.514 30.463 412.461 30.7876 410.147 31.9222C407.786 33.0376 406.251 35.0199 405.508 36.9348C404.733 38.8612 404.638 40.7 404.796 42.1457C404.947 43.6031 405.365 44.6848 405.698 45.3773C406.028 46.0766 406.259 46.4166 406.233 46.433Z" fill="#E0E0E0"/>
<path d="M60.5847 394.743C60.5847 394.743 60.4373 394.357 60.3179 393.585C60.1946 392.818 60.1195 391.64 60.4296 390.179C60.7292 388.727 61.4063 386.969 62.7857 385.339C64.1274 383.712 66.2966 382.259 68.9897 381.944C71.6424 381.597 74.7439 382.286 77.2194 384.295C78.4301 385.299 79.5214 386.633 80.0107 388.284C80.2583 389.098 80.3748 389.979 80.265 390.867C80.1552 391.751 79.7651 392.643 79.0755 393.283C77.6779 394.591 75.4345 394.633 73.7817 393.693C72.1038 392.745 70.9431 391.07 70.2862 389.253C68.9367 385.599 69.6736 381.093 72.4158 377.972C75.2207 374.862 79.689 373.816 83.435 374.788C85.3161 375.261 87.0586 376.237 88.3156 377.651C88.9378 378.36 89.4242 379.199 89.6554 380.111C89.8904 381.029 89.822 381.999 89.5013 382.861C89.1834 383.721 88.5795 384.495 87.7607 384.921C86.9449 385.357 85.9981 385.398 85.1553 385.225C83.4398 384.864 82.0865 383.638 81.3323 382.241C80.5665 380.829 80.3132 379.245 80.4606 377.776C80.6128 376.295 81.2369 374.964 82.0316 373.886C83.6681 371.722 85.922 370.524 87.9389 369.933C89.98 369.34 91.8255 369.293 93.3002 369.343C96.264 369.499 97.8465 369.961 97.8465 369.961C97.8446 369.97 97.7425 369.961 97.545 369.936C97.3187 369.906 97.0307 369.867 96.6695 369.819C95.9008 369.723 94.7633 369.579 93.2944 369.55C91.8322 369.531 90.0118 369.611 88.0237 370.217C86.0626 370.819 83.8829 372.017 82.3331 374.108C81.5789 375.153 81 376.419 80.867 377.817C80.738 379.208 80.9903 380.711 81.7166 382.028C82.4303 383.333 83.6931 384.449 85.2487 384.767C86.0135 384.92 86.8457 384.874 87.5382 384.497C88.2346 384.133 88.7625 383.46 89.0437 382.69C89.3279 381.919 89.3847 381.047 89.1728 380.233C88.9619 379.411 88.5169 378.643 87.9351 377.983C86.759 376.666 85.0984 375.735 83.3078 375.29C79.7353 374.366 75.4567 375.382 72.8107 378.323C70.2072 381.279 69.4925 385.604 70.7736 389.074C71.3919 390.803 72.5016 392.387 74.0273 393.249C75.5174 394.109 77.5459 394.051 78.7422 392.924C79.3423 392.372 79.6881 391.602 79.7921 390.802C79.8952 390.001 79.794 389.18 79.5657 388.417C79.1179 386.87 78.0978 385.605 76.941 384.631C74.585 382.693 71.5942 382 69.0359 382.313C66.4401 382.593 64.3393 383.964 63.011 385.529C61.6481 387.095 60.9556 388.802 60.631 390.22C60.2958 391.646 60.3362 392.805 60.4239 393.568C60.5086 394.339 60.6146 394.736 60.5847 394.743Z" fill="#E0E0E0"/>
<path d="M103.35 319.443C103.35 319.443 103.203 319.056 103.084 318.285C102.96 317.517 102.885 316.34 103.195 314.879C103.495 313.426 104.172 311.669 105.552 310.039C106.894 308.412 109.063 306.957 111.756 306.643C114.409 306.297 117.511 306.985 119.986 308.995C121.197 309.998 122.288 311.332 122.777 312.983C123.025 313.797 123.141 314.679 123.032 315.566C122.922 316.45 122.533 317.342 121.842 317.981C120.444 319.289 118.201 319.332 116.548 318.392C114.87 317.444 113.71 315.769 113.053 313.951C111.703 310.298 112.44 305.792 115.182 302.67C117.986 299.561 122.456 298.515 126.202 299.487C128.083 299.96 129.825 300.935 131.082 302.349C131.704 303.058 132.191 303.897 132.422 304.81C132.657 305.727 132.589 306.697 132.268 307.559C131.95 308.42 131.347 309.194 130.527 309.62C129.711 310.056 128.765 310.098 127.922 309.923C126.206 309.563 124.853 308.337 124.099 306.939C123.333 305.528 123.081 303.944 123.227 302.475C123.379 300.993 124.003 299.663 124.798 298.584C126.435 296.421 128.689 295.223 130.706 294.631C132.747 294.039 134.592 293.992 136.068 294.043C139.032 294.199 140.614 294.661 140.614 294.661C140.612 294.67 140.51 294.661 140.313 294.636C140.086 294.605 139.798 294.567 139.437 294.519C138.668 294.422 137.531 294.279 136.061 294.25C134.599 294.231 132.778 294.31 130.79 294.916C128.829 295.518 126.649 296.718 125.1 298.808C124.345 299.853 123.767 301.119 123.634 302.517C123.505 303.908 123.757 305.411 124.483 306.727C125.197 308.032 126.46 309.149 128.015 309.467C128.78 309.62 129.612 309.574 130.305 309.197C131 308.833 131.529 308.16 131.81 307.39C132.094 306.618 132.152 305.747 131.939 304.933C131.728 304.11 131.283 303.343 130.702 302.683C129.526 301.367 127.865 300.435 126.074 299.99C122.502 299.066 118.223 300.082 115.578 303.023C112.975 305.979 112.26 310.304 113.541 313.773C114.159 315.503 115.269 317.087 116.795 317.949C118.285 318.808 120.313 318.751 121.51 317.624C122.11 317.071 122.456 316.302 122.56 315.501C122.663 314.701 122.562 313.88 122.333 313.116C121.885 311.569 120.865 310.305 119.709 309.331C117.353 307.393 114.362 306.699 111.803 307.012C109.208 307.293 107.107 308.663 105.779 310.229C104.416 311.795 103.723 313.502 103.399 314.919C103.063 316.346 103.104 317.505 103.191 318.268C103.273 319.039 103.38 319.436 103.35 319.443Z" fill="#E0E0E0"/>
<path d="M101.289 58.5974C98.9833 47.48 93.3388 36.7392 84.1787 30.0305C75.0186 23.3217 59.6226 21.272 48.0699 26.7161C27.8973 36.223 21.8378 52.7073 26.4901 72.7123C30.8554 91.4852 43.3203 108.344 60.9923 116.037C70.793 120.305 83.1895 121.684 91.398 114.836C97.786 109.508 99.8983 100.704 101.141 92.4783C102.836 81.2511 103.595 69.7148 101.289 58.5974Z" fill="#F5F5F5"/>
<path d="M83.2565 118.674C82.6025 120.48 82.143 123.69 82.2095 125.609C82.2355 126.358 82.379 127.209 83.0128 127.607C83.7102 128.045 84.6859 127.67 85.181 127.012C85.6771 126.354 85.8148 125.502 85.9381 124.687C87.2798 124.951 88.6495 125.073 90.0173 125.05C90.6386 125.039 91.3407 124.958 91.7183 124.464C92.0169 124.073 92.0169 123.515 91.8368 123.058C91.6567 122.6 91.7973 121.178 91.4602 120.82C90.0057 119.271 87.8934 118.937 86.1153 117.773" fill="#F5F5F5"/>
<path d="M85.5373 123.946C85.4035 124.039 84.5982 123 84.2813 121.446C83.9538 119.894 84.2794 118.62 84.4393 118.653C84.6194 118.674 84.5866 119.887 84.892 121.32C85.181 122.754 85.6934 123.854 85.5373 123.946Z" fill="#E0E0E0"/>
<path d="M86.8421 121.69C86.742 121.823 85.9232 121.352 85.2606 120.423C84.5931 119.498 84.411 118.57 84.569 118.519C84.7356 118.458 85.1556 119.215 85.7672 120.06C86.3721 120.911 86.9539 121.552 86.8421 121.69Z" fill="#E0E0E0"/>
<path d="M451.19 124.482C449.331 115.52 444.782 106.862 437.398 101.455C430.014 96.0475 417.604 94.3947 408.293 98.783C392.032 106.446 387.148 119.734 390.898 135.858C394.416 150.99 404.464 164.579 418.709 170.781C426.609 174.22 436.6 175.332 443.217 169.813C448.366 165.518 450.069 158.421 451.07 151.791C452.436 142.741 453.048 133.442 451.19 124.482Z" fill="#F5F5F5"/>
<path d="M436.661 172.904C436.134 174.359 435.764 176.947 435.818 178.494C435.839 179.097 435.954 179.784 436.465 180.105C437.028 180.458 437.813 180.156 438.213 179.625C438.613 179.095 438.725 178.409 438.824 177.752C439.906 177.965 441.009 178.062 442.111 178.044C442.612 178.035 443.179 177.97 443.482 177.572C443.723 177.257 443.723 176.807 443.577 176.438C443.432 176.069 443.546 174.924 443.274 174.635C442.102 173.387 440.399 173.117 438.965 172.18" fill="#F5F5F5"/>
<path d="M438.485 177.15C438.377 177.225 437.728 176.388 437.473 175.135C437.209 173.884 437.471 172.857 437.6 172.883C437.745 172.901 437.718 173.878 437.965 175.033C438.199 176.19 438.611 177.077 438.485 177.15Z" fill="#E0E0E0"/>
<path d="M439.531 175.336C439.45 175.444 438.79 175.064 438.257 174.315C437.719 173.569 437.572 172.822 437.699 172.78C437.833 172.731 438.172 173.341 438.665 174.023C439.153 174.709 439.622 175.226 439.531 175.336Z" fill="#E0E0E0"/>
<path d="M92.929 299.067C95.9891 292.349 97.1536 284.547 94.9247 277.509C92.6959 270.472 85.4073 263.483 77.2556 261.903C63.0222 259.142 53.5115 265.463 48.2687 277.743C43.3487 289.268 43.4122 302.9 49.729 313.723C53.2322 319.726 59.205 325.21 66.1411 324.771C71.5389 324.429 76.0285 320.623 79.8389 316.784C85.0403 311.545 89.8688 305.784 92.929 299.067Z" fill="#F5F5F5"/>
<path d="M60.3854 323.66C59.3489 324.357 57.8743 325.864 57.1721 326.897C56.8985 327.299 56.6462 327.801 56.8263 328.253C57.0238 328.751 57.6797 328.929 58.1921 328.774C58.7046 328.619 59.1043 328.226 59.4819 327.845C60.0848 328.499 60.7562 329.089 61.4825 329.602C61.8128 329.835 62.2116 330.063 62.5998 329.948C62.907 329.857 63.1209 329.565 63.2018 329.255C63.2827 328.946 63.903 328.255 63.8635 327.938C63.6959 326.566 62.7154 325.58 62.2299 324.286" fill="#F5F5F5"/>
<path d="M59.5571 327.304C59.4512 327.301 59.428 326.448 59.8586 325.51C60.2834 324.57 60.9432 324.027 61.0145 324.105C61.1011 324.185 60.6176 324.809 60.2275 325.678C59.8278 326.542 59.6737 327.316 59.5571 327.304Z" fill="#E0E0E0"/>
<path d="M61.1166 326.616C61.0126 326.647 60.7641 326.086 60.7737 325.344C60.7795 324.603 61.0396 324.046 61.1426 324.08C61.2534 324.111 61.1831 324.67 61.1792 325.348C61.1686 326.026 61.2274 326.587 61.1166 326.616Z" fill="#E0E0E0"/>
<path d="M305.687 44.8991C308.747 38.1807 309.911 30.3787 307.683 23.3414C305.454 16.3042 298.165 9.31517 290.013 7.73455C275.78 4.97398 266.269 11.2946 261.027 23.5755C256.106 35.1003 256.17 48.7327 262.487 59.5553C265.99 65.558 271.963 71.0425 278.899 70.6033C284.297 70.2614 288.786 66.4548 292.597 62.6164C297.797 57.3775 302.627 51.6165 305.687 44.8991Z" fill="#F5F5F5"/>
<path d="M273.151 69.4883C272.115 70.1847 270.64 71.6921 269.938 72.7247C269.664 73.1273 269.412 73.6291 269.592 74.0809C269.789 74.5789 270.445 74.7561 270.958 74.602C271.47 74.4469 271.87 74.0529 272.247 73.6734C272.85 74.3275 273.522 74.9169 274.248 75.4303C274.578 75.6634 274.977 75.8907 275.365 75.7761C275.673 75.6856 275.886 75.3928 275.967 75.0836C276.048 74.7744 276.669 74.0828 276.629 73.7649C276.462 72.3933 275.481 71.407 274.996 70.1144" fill="#F5F5F5"/>
<path d="M272.307 73.132C272.201 73.1291 272.178 72.2757 272.609 71.3385C273.033 70.3984 273.693 69.8552 273.764 69.9332C273.851 70.0131 273.368 70.6373 272.978 71.5061C272.578 72.3701 272.425 73.1445 272.307 73.132Z" fill="#E0E0E0"/>
<path d="M273.874 72.4438C273.77 72.4756 273.522 71.9141 273.532 71.1724C273.537 70.4307 273.797 69.874 273.9 69.9077C274.011 69.9395 273.941 70.4981 273.937 71.1762C273.926 71.8553 273.986 72.4149 273.874 72.4438Z" fill="#E0E0E0"/>
<path d="M171.826 275.717C126.277 258.67 85.0059 243.306 55.0693 232.388C40.102 226.926 27.9694 222.568 19.5635 219.628C15.36 218.158 12.0889 217.043 9.86201 216.319C7.6341 215.594 6.45031 215.261 6.42238 215.356C6.39445 215.45 7.52429 215.967 9.70211 216.862C11.879 217.757 15.1048 219.028 19.2678 220.633C27.5938 223.843 39.6724 228.384 54.6195 233.916C84.5118 244.987 125.887 259.997 171.599 276.492C194.896 284.922 217.06 292.941 237.17 300.218C236.983 300.111 236.797 300.006 236.61 299.899C216.718 292.474 194.824 284.302 171.826 275.717Z" fill="#EBEBEB"/>
<path d="M237.044 300.025C218.342 289.139 197.738 277.147 176.084 264.543C133.503 239.71 94.9108 217.29 66.8861 201.247C52.8753 193.223 41.5084 186.786 33.6226 182.405C29.6802 180.213 26.6066 178.536 24.5097 177.428C22.4128 176.32 21.2916 175.782 21.2511 175.868C21.2107 175.955 22.2548 176.663 24.2795 177.928C26.3041 179.192 29.3103 181.014 33.1959 183.329C40.9671 187.961 52.2559 194.565 66.2369 202.653C94.197 218.837 132.938 240.933 175.754 265.258C197.358 277.556 217.923 289.261 236.609 299.898C236.797 300.005 236.981 300.11 237.168 300.217C237.242 300.258 237.315 300.3 237.388 300.342C237.399 300.338 237.409 300.334 237.42 300.331C237.294 300.228 237.17 300.127 237.044 300.025Z" fill="#EBEBEB"/>
<path d="M237.695 300.558C237.703 300.564 237.71 300.57 237.717 300.576C237.712 300.562 237.705 300.549 237.699 300.535C237.697 300.543 237.696 300.551 237.695 300.558Z" fill="#EBEBEB"/>
<path d="M237.418 300.33C237.433 300.324 237.448 300.32 237.463 300.314C237.46 300.291 237.456 300.268 237.454 300.245C237.431 300.22 237.409 300.196 237.387 300.171C220.362 286.091 201.596 270.572 181.861 254.25C143.28 222.292 108.301 193.412 82.8669 172.676C70.1516 162.305 59.826 153.965 52.6501 148.26C49.0621 145.408 46.262 143.215 44.3462 141.755C42.4304 140.295 41.3978 139.567 41.3458 139.646C41.2938 139.725 42.2252 140.607 44.0476 142.21C45.87 143.812 48.5853 146.136 52.0981 149.101C59.1248 155.032 69.3502 163.525 82.027 173.955C107.377 194.82 142.548 223.405 181.432 254.904C201.188 270.934 219.981 286.182 237.043 300.026C237.168 300.128 237.292 300.228 237.418 300.33Z" fill="#EBEBEB"/>
<path d="M237.455 300.245C237.447 300.182 237.437 300.12 237.427 300.057C221.901 282.963 204.789 264.123 186.793 244.309C151.598 205.498 119.674 170.406 96.423 145.153C84.8 132.523 75.3499 122.349 68.7683 115.371C65.478 111.881 62.9052 109.191 61.1387 107.391C59.3722 105.591 58.4119 104.68 58.3473 104.75C58.2818 104.82 59.116 105.866 60.765 107.793C62.415 109.719 64.8798 112.525 68.0767 116.114C74.4715 123.293 83.7954 133.603 95.3703 146.284C118.515 171.651 150.68 206.483 186.255 244.887C204.428 264.536 221.708 283.219 237.385 300.169C237.41 300.195 237.432 300.219 237.455 300.245Z" fill="#EBEBEB"/>
<path d="M237.303 299.679C224.476 280.26 210.349 258.873 195.499 236.391C166.306 192.124 139.813 152.082 120.473 123.22C110.805 108.788 102.931 97.1454 97.4318 89.144C94.6828 85.1428 92.5281 82.0519 91.0409 79.9762C89.5547 77.9004 88.7369 76.839 88.6618 76.8968C88.5876 76.9546 89.2599 78.1297 90.6133 80.3104C91.9656 82.4911 93.998 85.6784 96.6401 89.7624C101.925 97.9304 109.655 109.686 119.268 124.162C138.488 153.119 165.257 192.944 194.884 236.873C210.001 259.325 224.377 280.675 237.421 300.047C237.412 299.99 237.405 299.933 237.396 299.875C237.365 299.809 237.334 299.744 237.303 299.679Z" fill="#EBEBEB"/>
<path d="M237.558 300.061C237.558 300.033 237.558 300.004 237.558 299.976C237.539 299.932 237.519 299.89 237.5 299.848C237.501 299.853 237.502 299.859 237.503 299.865C237.521 299.93 237.54 299.995 237.558 300.061Z" fill="#EBEBEB"/>
<path d="M237.391 299.865C237.324 299.64 237.257 299.418 237.189 299.193C227.379 277.959 216.581 254.59 205.238 230.04C182.799 181.374 162.412 137.34 147.478 105.558C140.013 89.6659 133.916 76.834 129.639 67.9995C127.502 63.5822 125.819 60.1647 124.649 57.8626C123.481 55.5606 122.825 54.3749 122.743 54.4192C122.66 54.4644 123.156 55.7388 124.177 58.1218C125.198 60.5047 126.744 63.9973 128.764 68.4782C132.805 77.4409 138.741 90.3604 146.145 106.286C160.948 138.14 181.641 182.007 204.561 230.41C216.19 255.015 227.256 278.426 237.3 299.678C237.331 299.743 237.362 299.808 237.392 299.873C237.392 299.871 237.391 299.868 237.391 299.865Z" fill="#EBEBEB"/>
<path d="M237.395 299.871C237.36 299.625 237.325 299.38 237.29 299.133C230.526 275.221 223.082 248.904 215.262 221.258C199.806 166.467 185.741 116.875 175.363 81.0433C170.177 63.1267 165.92 48.6477 162.909 38.665C161.403 33.6736 160.21 29.8073 159.37 27.196C158.53 24.5848 158.043 23.2305 157.953 23.2623C157.862 23.295 158.172 24.7129 158.851 27.3819C159.528 30.051 160.573 33.9712 161.949 39.0088C164.702 49.0831 168.784 63.6256 173.904 81.5664C184.136 117.45 198.54 166.921 214.522 221.523C222.569 249.085 230.228 275.322 237.188 299.161C237.257 299.399 237.325 299.634 237.395 299.871Z" fill="#EBEBEB"/>
<path d="M237.555 300.187C237.555 300.146 237.555 300.104 237.555 300.063C237.537 299.997 237.518 299.933 237.5 299.867C237.515 299.981 237.531 300.095 237.545 300.208C237.548 300.2 237.552 300.194 237.555 300.187Z" fill="#EBEBEB"/>
<path d="M237.531 300.773C237.54 300.831 237.548 300.89 237.556 300.948C237.556 300.862 237.556 300.776 237.556 300.691C237.548 300.718 237.54 300.745 237.531 300.773Z" fill="#EBEBEB"/>
<path d="M237.45 300.238C237.453 300.263 237.457 300.289 237.46 300.314C237.47 300.31 237.479 300.307 237.489 300.303C237.497 300.289 237.504 300.276 237.513 300.262C237.522 300.241 237.53 300.22 237.539 300.199C237.524 300.072 237.509 299.947 237.494 299.821C237.493 299.814 237.492 299.808 237.491 299.801C234.376 273.97 230.943 245.501 227.335 215.577C220.293 156.86 213.847 103.701 208.993 65.2523C206.569 46.0276 204.549 30.4794 203.087 19.7464C202.356 14.3803 201.764 10.2173 201.334 7.40088C200.903 4.58349 200.634 3.11267 200.546 3.12904C200.459 3.14542 200.559 4.64899 200.833 7.49528C201.107 10.3416 201.553 14.5315 202.16 19.9217C203.373 30.7019 205.224 46.2828 207.584 65.5191C212.297 103.995 219.067 157.093 226.617 215.713C230.409 245.301 234.019 273.468 237.299 299.06C237.332 299.315 237.365 299.569 237.397 299.824C237.397 299.828 237.398 299.831 237.398 299.835C237.406 299.897 237.414 299.96 237.422 300.021C237.422 300.025 237.423 300.03 237.424 300.034C237.433 300.101 237.442 300.17 237.45 300.238Z" fill="#EBEBEB"/>
<path d="M237.555 300.035C237.555 300.081 237.555 300.127 237.555 300.173C237.591 300.087 237.626 300.001 237.661 299.916C237.825 273.769 238.006 244.946 238.196 214.647C238.604 155.292 238.905 101.541 238.936 62.6268C238.956 43.17 238.912 27.4225 238.817 16.5401C238.77 11.0989 238.709 6.87332 238.638 4.00777C238.568 1.14222 238.487 -0.362318 238.4 -0.363281C238.313 -0.363281 238.225 1.14029 238.139 4.00488C238.053 6.86947 237.97 11.0941 237.893 16.5353C237.74 27.4176 237.614 43.1632 237.53 62.6201C237.357 101.534 237.374 155.286 237.47 214.645C237.499 244.955 237.528 273.789 237.554 299.943C237.555 299.973 237.555 300.003 237.555 300.035Z" fill="#EBEBEB"/>
<path d="M237.622 300.465C237.599 300.541 237.577 300.616 237.555 300.692C237.555 300.778 237.555 300.864 237.555 300.948C237.577 300.788 237.6 300.626 237.622 300.465Z" fill="#EBEBEB"/>
<path d="M249.036 215.804C256.909 157.248 263.969 104.208 268.892 65.7729C271.357 46.5558 273.294 30.9913 274.565 20.2217C275.201 14.8363 275.672 10.6502 275.961 7.80586C276.25 4.9615 276.359 3.4589 276.271 3.44156C276.184 3.42422 275.906 4.89311 275.46 7.70665C275.014 10.5202 274.4 14.6774 273.64 20.0377C272.118 30.7582 270.012 46.289 267.484 65.4935C262.419 103.901 255.682 157.005 248.32 215.662C244.548 245.554 240.959 273.992 237.703 299.796C237.77 299.542 237.835 299.292 237.902 299.037C241.32 273.48 245.083 245.351 249.036 215.804Z" fill="#EBEBEB"/>
<path d="M237.774 300.067C237.775 300.063 237.775 300.06 237.776 300.055C237.767 300.068 237.759 300.081 237.75 300.094C237.758 300.085 237.765 300.076 237.774 300.067Z" fill="#EBEBEB"/>
<path d="M238.008 299.18C245.133 275.337 252.975 249.095 261.212 221.528C277.57 166.928 292.313 117.46 302.79 81.5741C308.032 63.6324 312.213 49.0899 315.034 39.0137C316.444 33.9761 317.515 30.0549 318.209 27.3849C318.904 24.7149 319.223 23.296 319.133 23.2623C319.042 23.2286 318.545 24.5829 317.687 27.1932C316.829 29.8035 315.609 33.6689 314.067 38.6593C310.987 48.64 306.63 63.1181 301.321 81.0347C290.698 116.866 276.294 166.46 260.468 221.253C252.462 248.892 244.841 275.203 237.918 299.109C237.847 299.355 237.776 299.599 237.705 299.844C237.704 299.846 237.704 299.848 237.703 299.85C237.804 299.628 237.905 299.405 238.008 299.18Z" fill="#EBEBEB"/>
<path d="M237.551 300.185C237.548 300.193 237.545 300.2 237.542 300.207C237.533 300.227 237.524 300.246 237.516 300.265C237.637 300.079 237.754 299.897 237.876 299.71C247.614 278.824 258.342 255.813 269.617 231.63C291.832 184.073 311.888 140.972 326.24 109.674C333.419 94.0264 339.176 81.3322 343.095 72.5246C345.055 68.1208 346.556 64.6898 347.547 62.3473C348.538 60.0048 349.02 58.7526 348.942 58.7083C348.864 58.663 348.231 59.8285 347.099 62.0901C345.968 64.3517 344.339 67.7095 342.268 72.0488C338.125 80.7273 332.216 93.3357 324.98 108.95C310.503 140.177 290.737 183.444 268.976 231.262C257.975 255.389 247.504 278.356 237.99 299.224C237.894 299.433 237.8 299.64 237.704 299.85C237.689 299.885 237.673 299.919 237.657 299.953C237.622 300.03 237.587 300.107 237.551 300.185Z" fill="#EBEBEB"/>
<path d="M237.434 300.438C237.44 300.431 237.445 300.425 237.451 300.418C237.433 300.425 237.415 300.43 237.397 300.437C237.389 300.449 237.383 300.46 237.375 300.472C237.395 300.46 237.414 300.45 237.434 300.438Z" fill="#EBEBEB"/>
<path d="M237.508 300.267C237.501 300.28 237.493 300.291 237.484 300.304C237.519 300.291 237.553 300.279 237.587 300.266C237.638 300.21 237.688 300.154 237.739 300.097C237.747 300.083 237.756 300.07 237.765 300.057C250.358 281.051 264.238 260.105 278.833 238.077C307.434 194.982 333.278 155.911 351.835 127.502C361.116 113.299 368.579 101.766 373.684 93.7501C376.237 89.7432 378.2 86.6146 379.506 84.4744C380.813 82.3341 381.463 81.1812 381.393 81.1234C381.322 81.0656 380.534 82.1059 379.099 84.1421C377.665 86.1783 375.586 89.2095 372.932 93.1346C367.625 100.984 360.023 112.405 350.69 126.565C332.018 154.88 306.436 194.166 278.248 237.598C263.903 259.664 250.258 280.655 237.87 299.713C237.748 299.899 237.63 300.08 237.508 300.267Z" fill="#EBEBEB"/>
<path d="M237.594 300.267C237.658 300.244 237.722 300.22 237.786 300.197C237.798 300.188 237.809 300.178 237.82 300.17C252.915 283.574 269.552 265.282 287.049 246.046C321.304 208.442 352.277 174.334 374.566 149.493C385.712 137.074 394.692 126.978 400.852 119.946C403.933 116.43 406.307 113.682 407.896 111.794C409.485 109.908 410.289 108.881 410.227 108.812C410.165 108.743 409.242 109.634 407.542 111.396C405.841 113.157 403.364 115.792 400.196 119.208C393.86 126.04 384.76 136.003 373.567 148.369C351.177 173.098 320.435 207.462 286.537 245.471C269.205 264.876 252.724 283.328 237.77 300.07C237.761 300.08 237.754 300.089 237.745 300.098C237.695 300.154 237.645 300.21 237.594 300.267Z" fill="#EBEBEB"/>
<path d="M237.499 300.398C237.485 300.403 237.469 300.409 237.455 300.414C237.449 300.421 237.443 300.427 237.438 300.434C237.458 300.423 237.478 300.41 237.499 300.398Z" fill="#EBEBEB"/>
<path d="M238.001 300.119C238.061 300.085 238.119 300.051 238.179 300.017C255.322 286.308 274.203 271.211 294.05 255.339C333.129 224.142 368.476 195.828 393.954 175.16C406.696 164.828 416.973 156.414 424.036 150.537C427.569 147.599 430.297 145.296 432.129 143.708C433.962 142.12 434.899 141.245 434.848 141.166C434.797 141.087 433.759 141.806 431.834 143.251C429.908 144.697 427.095 146.868 423.489 149.692C416.278 155.341 405.901 163.601 393.122 173.874C367.561 194.413 332.403 223.022 293.625 254.682C273.792 270.849 254.933 286.221 237.823 300.168C237.811 300.177 237.801 300.186 237.789 300.195C237.86 300.171 237.931 300.145 238.001 300.119Z" fill="#EBEBEB"/>
<path d="M238.609 299.895C257.357 289.407 277.99 277.863 299.665 265.737C342.632 241.746 381.51 219.952 409.569 203.985C423.601 196.004 434.929 189.486 442.729 184.915C446.629 182.629 449.645 180.831 451.678 179.582C453.71 178.332 454.758 177.632 454.718 177.545C454.678 177.457 453.553 177.986 451.448 179.077C449.344 180.168 446.262 181.821 442.305 183.982C434.391 188.302 422.985 194.649 408.924 202.565C380.8 218.39 342.07 240.512 299.336 265.016C277.613 277.448 256.942 289.278 238.178 300.016C238.118 300.05 238.06 300.084 238 300.118C238.204 300.044 238.406 299.97 238.609 299.895Z" fill="#EBEBEB"/>
<path d="M465.85 218.071C463.619 218.779 460.341 219.87 456.129 221.308C447.705 224.183 435.546 228.448 420.545 233.796C390.541 244.485 349.177 259.529 303.522 276.222C280.477 284.627 258.538 292.628 238.604 299.897C238.401 299.971 238.199 300.044 237.996 300.119C237.926 300.145 237.856 300.17 237.785 300.196C237.721 300.219 237.657 300.243 237.593 300.266C237.558 300.279 237.524 300.291 237.49 300.304C237.48 300.307 237.47 300.31 237.461 300.314C237.445 300.32 237.431 300.325 237.415 300.331C237.405 300.334 237.394 300.338 237.384 300.342C234.349 301.449 231.359 302.539 228.422 303.61C231.364 302.571 234.362 301.511 237.402 300.436C237.42 300.43 237.438 300.424 237.456 300.417C237.47 300.412 237.486 300.407 237.5 300.402C237.681 300.337 237.862 300.274 238.044 300.21C258.194 293.09 280.402 285.243 303.743 276.994C349.556 260.849 391.021 246.157 420.982 235.317C435.963 229.901 448.07 225.453 456.416 222.308C460.589 220.735 463.822 219.488 466.006 218.612C468.188 217.734 469.321 217.227 469.294 217.133C469.268 217.039 468.082 217.363 465.85 218.071Z" fill="#EBEBEB"/>
<path d="M356.105 366.087C356.076 366.055 356.206 365.866 356.481 365.533C356.616 365.363 356.801 365.17 356.999 364.92C357.189 364.663 357.408 364.366 357.655 364.032C358.606 362.679 359.811 360.465 360.332 357.369C360.588 355.83 360.656 354.073 360.359 352.209C360.065 350.349 359.396 348.377 358.21 346.556C357.021 344.744 355.261 343.123 353.095 341.947C350.926 340.776 348.34 340.053 345.615 340.044C344.253 340.024 342.868 340.242 341.518 340.632C340.199 341.037 338.732 341.616 337.921 342.504C337.52 342.95 337.344 343.408 337.378 343.957C337.415 344.512 337.676 345.149 338.051 345.766C338.832 347.025 339.897 348.17 341.177 349.064C343.716 350.877 347.067 351.812 350.37 351.431C353.66 351.085 356.837 349.242 359.072 346.504C360.209 345.148 361.079 343.548 361.691 341.853C362.273 340.144 362.559 338.327 362.47 336.477C362.328 332.78 360.784 329.058 358.258 326.135C355.745 323.197 352.105 321.19 348.168 320.348C346.199 319.916 344.144 319.789 342.106 319.955C340.061 320.117 338.049 320.559 336.389 321.531C334.727 322.483 333.674 324.008 333.721 325.747C333.728 326.611 333.955 327.505 334.364 328.312C334.772 329.123 335.338 329.829 336.047 330.448C337.459 331.676 339.298 332.478 341.213 332.983C343.127 333.506 345.111 333.731 347.068 333.691C350.975 333.614 354.838 332.457 357.932 330.401C359.462 329.364 360.796 328.084 361.673 326.585C362.564 325.098 362.969 323.395 362.932 321.68C362.846 318.22 361.199 314.887 359.112 312.192C357 309.488 354.349 307.265 351.431 306.053C349.979 305.437 348.46 305.102 346.971 305.106C345.468 305.095 344.064 305.394 342.9 306.131C341.738 306.834 340.945 307.914 340.944 309.059C340.896 310.206 341.617 311.31 342.595 312.128C343.583 312.967 344.752 313.515 346 313.891C347.236 314.269 348.496 314.463 349.727 314.511C352.19 314.596 354.543 314.133 356.546 313.255C360.622 311.542 363.105 308.32 364.341 305.484C365.611 302.611 365.794 300.095 365.772 298.442C365.735 296.773 365.543 295.894 365.651 295.871C365.711 295.854 366.071 296.695 366.276 298.41C366.463 300.109 366.444 302.753 365.243 305.86C364.633 307.396 363.751 309.057 362.402 310.588C361.077 312.133 359.287 313.541 357.117 314.536C354.959 315.556 352.404 316.134 349.683 316.106C348.323 316.085 346.919 315.901 345.525 315.509C344.146 315.127 342.695 314.504 341.462 313.494C340.843 312.989 340.264 312.381 339.813 311.632C339.358 310.893 339.081 309.971 339.086 309.036C339.076 308.097 339.39 307.147 339.909 306.376C340.421 305.592 341.111 304.977 341.864 304.496C343.355 303.508 345.206 303.104 346.96 303.096C348.742 303.068 350.539 303.444 352.212 304.127C355.58 305.483 358.493 307.895 360.844 310.83C362.022 312.307 363.042 313.95 363.842 315.748C364.621 317.55 365.184 319.529 365.24 321.626C365.308 323.709 364.809 325.908 363.702 327.778C362.613 329.659 361.027 331.178 359.275 332.383C355.734 334.759 351.489 336.032 347.119 336.147C344.936 336.201 342.72 335.957 340.567 335.377C338.424 334.812 336.242 333.911 334.404 332.327C332.566 330.756 331.236 328.375 331.212 325.761C331.183 324.456 331.583 323.095 332.304 321.981C333.032 320.861 334.04 320.004 335.111 319.371C337.264 318.116 339.642 317.642 341.901 317.457C344.185 317.274 346.482 317.42 348.69 317.909C353.1 318.858 357.233 321.137 360.112 324.527C362.98 327.877 364.714 332.101 364.859 336.383C364.951 338.517 364.601 340.663 363.91 342.634C363.187 344.596 362.168 346.425 360.847 347.979C358.252 351.108 354.518 353.25 350.603 353.624C346.716 354.02 342.894 352.9 339.953 350.747C338.471 349.678 337.238 348.327 336.32 346.793C335.868 346.011 335.465 345.119 335.403 344.064C335.323 343 335.812 341.875 336.497 341.188C337.175 340.476 337.952 340.032 338.708 339.673C339.472 339.356 340.22 339.041 341.001 338.846C342.547 338.428 344.112 338.219 345.632 338.269C351.748 338.402 356.878 341.712 359.387 345.798C360.642 347.855 361.294 350.03 361.538 352.043C361.784 354.063 361.633 355.93 361.286 357.549C360.582 360.801 359.165 363.038 358.049 364.339C357.759 364.654 357.5 364.933 357.276 365.174C357.042 365.403 356.823 365.571 356.656 365.714C356.321 365.994 356.134 366.119 356.105 366.087Z" fill="#F5F5F5"/>
<path d="M328.778 417.23H392.047V359.491H328.778V417.23Z" fill="#EBEBEB"/>
<path d="M392.041 359.492L410.189 377.641H346.171L328.773 359.492H392.041Z" fill="#E0E0E0"/>
<path d="M328.78 359.492L317.406 372.476H328.78V359.492Z" fill="#E0E0E0"/>
<path d="M187.349 289.484L150.208 375.785C149.424 377.606 151.279 379.444 153.093 378.643L181.721 366.007C182.897 365.487 184.265 366.094 184.672 367.313L194.33 396.305C194.98 398.256 197.72 398.307 198.443 396.382L233.35 303.294L187.349 289.484Z" fill="url(#paint0_linear_978_28538)"/>
<path d="M235.75 303.844L253.539 396.098C253.916 398.044 256.482 398.522 257.532 396.841L274.106 370.298C274.788 369.207 276.259 368.939 277.281 369.72L301.564 388.27C303.199 389.518 305.494 388.02 305.008 386.022L281.555 289.41L235.75 303.844Z" fill="url(#paint1_linear_978_28538)"/>
<g opacity="0.3">
<path d="M187.349 289.484L150.208 375.785C149.424 377.606 151.279 379.444 153.093 378.643L181.721 366.007C182.897 365.487 184.265 366.094 184.672 367.313L194.33 396.305C194.98 398.256 197.72 398.307 198.443 396.382L233.35 303.294L187.349 289.484Z" fill="black"/>
</g>
<g opacity="0.3">
<path d="M235.75 303.844L253.539 396.098C253.916 398.044 256.482 398.522 257.532 396.841L274.106 370.298C274.788 369.207 276.259 368.939 277.281 369.72L301.564 388.27C303.199 389.518 305.494 388.02 305.008 386.022L281.555 289.41L235.75 303.844Z" fill="black"/>
</g>
<path d="M237.561 138.204L249.754 129.242L259.335 140.954L273.374 135.306L279.741 149.033L294.742 147.054L297.497 161.933L312.52 163.747L311.486 178.845L325.586 184.338L320.831 198.703L333.121 207.529L324.943 220.261L334.652 231.867L323.565 242.165L330.083 255.821L316.783 263.039L319.7 277.886L305.023 281.568L304.156 296.676L289.024 296.592L284.428 311.01L269.792 307.166L261.753 319.986L248.534 312.624L237.561 323.044L226.586 312.624L213.367 319.986L205.329 307.166L190.694 311.01L186.097 296.592L170.965 296.676L170.097 281.568L155.421 277.886L158.338 263.039L145.038 255.821L151.556 242.165L140.469 231.867L150.178 220.261L142 207.529L154.29 198.703L149.535 184.338L163.635 178.845L162.603 163.747L177.625 161.933L180.379 147.054L195.38 149.033L201.748 135.306L215.787 140.954L225.367 129.242L237.561 138.204Z" fill="url(#paint2_linear_978_28538)"/>
<path d="M286.014 274.602C312.777 247.84 312.777 204.449 286.014 177.687C259.252 150.924 215.861 150.924 189.098 177.687C162.336 204.449 162.336 247.84 189.098 274.602C215.861 301.365 259.252 301.365 286.014 274.602Z" fill="white"/>
<path d="M252.513 209.911L270.905 212.605C273.926 213.047 275.128 216.762 272.939 218.891L259.614 231.85C258.745 232.695 258.346 233.915 258.55 235.11L261.672 253.434C262.184 256.444 259.024 258.736 256.323 257.313L239.88 248.645C238.807 248.079 237.525 248.079 236.451 248.641L219.989 257.272C217.285 258.69 214.128 256.392 214.648 253.382L217.81 235.065C218.017 233.87 217.622 232.65 216.754 231.802L203.457 218.813C201.273 216.679 202.484 212.967 205.507 212.531L223.904 209.878C225.104 209.706 226.143 208.952 226.68 207.866L234.926 191.206C236.28 188.469 240.185 188.474 241.534 191.214L249.742 207.892C250.276 208.979 251.313 209.734 252.513 209.911Z" fill="url(#paint3_linear_978_28538)"/>
<path d="M127.032 116.732C127.032 116.732 124.512 106.079 115.32 107.611L117.285 100.742C117.285 100.742 132.572 103.234 130.806 114.18L127.032 116.732Z" fill="#EFDC66"/>
<path d="M90.9382 345.518C90.9382 345.518 88.4185 334.864 79.2266 336.396L81.1915 329.527C81.1915 329.527 96.4786 332.019 94.7111 342.965L90.9382 345.518Z" fill="#EFDC66"/>
<path d="M384.8 221.603C384.8 221.603 377.9 223.021 378.709 228.963L374.328 227.568C374.328 227.568 376.223 217.782 383.23 219.127L384.8 221.603Z" fill="#EFDC66"/>
<path d="M381.947 340.834C381.947 340.834 368.364 343.624 369.959 355.32L361.336 352.574C361.336 352.574 365.065 333.313 378.856 335.961L381.947 340.834Z" fill="#EFDC66"/>
<path d="M331.751 23.9441C331.751 23.9441 318.169 26.7346 319.763 38.4289L311.141 35.6837C311.141 35.6837 314.869 16.4224 328.66 19.0703L331.751 23.9441Z" fill="#EFDC66"/>
<path d="M67.7812 175.273C67.7812 175.273 56.9008 176.483 57.3063 185.792L50.7266 183.008C50.7266 183.008 55.0543 168.136 65.7045 171.217L67.7812 175.273Z" fill="url(#paint4_linear_978_28538)"/>
<path d="M97.7808 274.219C97.7808 274.219 95.9382 285.01 104.997 287.191L100.505 292.746C100.505 292.746 87.407 284.479 93.3096 275.094L97.7808 274.219Z" fill="url(#paint5_linear_978_28538)"/>
<path d="M428.398 239.934C428.398 239.934 427.963 228.996 418.648 228.741L421.891 222.375C421.891 222.375 436.419 227.746 432.59 238.151L428.398 239.934Z" fill="url(#paint6_linear_978_28538)"/>
<path d="M138.828 68.9665C138.828 68.9665 138.392 58.0283 129.078 57.7721L132.32 51.4062C132.32 51.4062 146.848 56.7771 143.02 67.1827L138.828 68.9665Z" fill="url(#paint7_linear_978_28538)"/>
<path d="M355.102 138.881C355.102 138.881 365.337 142.763 369.219 134.293L373.808 139.769C373.808 139.769 363.178 151.034 355.103 143.437V138.881H355.102Z" fill="url(#paint8_linear_978_28538)"/>
<path d="M116.981 148.385C116.981 149.978 115.689 151.27 114.096 151.27C112.503 151.27 111.211 149.978 111.211 148.385C111.211 146.792 112.503 145.5 114.096 145.5C115.69 145.5 116.981 146.792 116.981 148.385Z" fill="#EFDC66"/>
<path d="M182.027 126.818C182.027 128.412 180.736 129.703 179.143 129.703C177.549 129.703 176.258 128.412 176.258 126.818C176.258 125.225 177.549 123.934 179.143 123.934C180.737 123.934 182.027 125.225 182.027 126.818Z" fill="url(#paint9_linear_978_28538)"/>
<path d="M82.1134 234.041C82.1134 235.634 80.8217 236.926 79.2286 236.926C77.6354 236.926 76.3438 235.634 76.3438 234.041C76.3438 232.448 77.6354 231.156 79.2286 231.156C80.8217 231.156 82.1134 232.448 82.1134 234.041Z" fill="url(#paint10_linear_978_28538)"/>
<path d="M187.793 38.4317C187.793 40.0248 186.501 41.3165 184.908 41.3165C183.315 41.3165 182.023 40.0248 182.023 38.4317C182.023 36.8385 183.315 35.5469 184.908 35.5469C186.501 35.5469 187.793 36.8385 187.793 38.4317Z" fill="#EFDC66"/>
<path d="M46.1681 265.385C46.1681 266.978 44.8764 268.27 43.2833 268.27C41.6901 268.27 40.3984 266.978 40.3984 265.385C40.3984 263.792 41.6901 262.5 43.2833 262.5C44.8764 262.5 46.1681 263.792 46.1681 265.385Z" fill="#EFDC66"/>
<path d="M408.606 143.783C408.606 145.376 407.314 146.668 405.721 146.668C404.128 146.668 402.836 145.376 402.836 143.783C402.836 142.19 404.128 140.898 405.721 140.898C407.314 140.898 408.606 142.19 408.606 143.783Z" fill="#EFDC66"/>
<path d="M160.559 271.154C160.559 272.748 159.267 274.039 157.674 274.039C156.081 274.039 154.789 272.748 154.789 271.154C154.789 269.561 156.081 268.27 157.674 268.27C159.267 268.27 160.559 269.561 160.559 271.154Z" fill="#EFDC66"/>
<path d="M138.317 375.029C138.317 376.622 137.025 377.914 135.432 377.914C133.839 377.914 132.547 376.622 132.547 375.029C132.547 373.436 133.839 372.145 135.432 372.145C137.026 372.145 138.317 373.436 138.317 375.029Z" fill="#EFDC66"/>
<path d="M327.91 87.5333C327.91 89.1264 326.619 90.4181 325.025 90.4181C323.432 90.4181 322.141 89.1264 322.141 87.5333C322.141 85.9401 323.432 84.6484 325.025 84.6484C326.619 84.6484 327.91 85.9401 327.91 87.5333Z" fill="url(#paint11_linear_978_28538)"/>
<path d="M385.332 295.623C385.332 297.216 384.04 298.508 382.447 298.508C380.854 298.508 379.562 297.216 379.562 295.623C379.562 294.03 380.854 292.738 382.447 292.738C384.04 292.739 385.332 294.031 385.332 295.623Z" fill="url(#paint12_linear_978_28538)"/>
<path d="M346.277 260.647C346.277 262.24 344.986 263.531 343.393 263.531C341.799 263.531 340.508 262.24 340.508 260.647C340.508 259.053 341.799 257.762 343.393 257.762C344.986 257.762 346.277 259.053 346.277 260.647Z" fill="url(#paint13_linear_978_28538)"/>
</g>
<defs>
<linearGradient id="paint0_linear_978_28538" x1="191.687" y1="289.484" x2="191.687" y2="397.797" gradientUnits="userSpaceOnUse">
<stop stop-color="#36DA88"/>
<stop offset="1" stop-color="#2CC896"/>
</linearGradient>
<linearGradient id="paint1_linear_978_28538" x1="270.412" y1="289.41" x2="270.412" y2="397.867" gradientUnits="userSpaceOnUse">
<stop stop-color="#36DA88"/>
<stop offset="1" stop-color="#2CC896"/>
</linearGradient>
<linearGradient id="paint2_linear_978_28538" x1="237.56" y1="129.242" x2="237.56" y2="323.044" gradientUnits="userSpaceOnUse">
<stop stop-color="#36DA88"/>
<stop offset="1" stop-color="#2CC896"/>
</linearGradient>
<linearGradient id="paint3_linear_978_28538" x1="238.201" y1="189.156" x2="238.201" y2="257.746" gradientUnits="userSpaceOnUse">
<stop stop-color="#36DA88"/>
<stop offset="1" stop-color="#2CC896"/>
</linearGradient>
<linearGradient id="paint4_linear_978_28538" x1="59.2539" y1="170.797" x2="59.2539" y2="185.792" gradientUnits="userSpaceOnUse">
<stop stop-color="#36DA88"/>
<stop offset="1" stop-color="#2CC896"/>
</linearGradient>
<linearGradient id="paint5_linear_978_28538" x1="98.3892" y1="274.219" x2="98.3892" y2="292.746" gradientUnits="userSpaceOnUse">
<stop stop-color="#36DA88"/>
<stop offset="1" stop-color="#2CC896"/>
</linearGradient>
<linearGradient id="paint6_linear_978_28538" x1="425.941" y1="222.375" x2="425.941" y2="239.934" gradientUnits="userSpaceOnUse">
<stop stop-color="#36DA88"/>
<stop offset="1" stop-color="#2CC896"/>
</linearGradient>
<linearGradient id="paint7_linear_978_28538" x1="136.37" y1="51.4062" x2="136.37" y2="68.9665" gradientUnits="userSpaceOnUse">
<stop stop-color="#36DA88"/>
<stop offset="1" stop-color="#2CC896"/>
</linearGradient>
<linearGradient id="paint8_linear_978_28538" x1="364.455" y1="134.293" x2="364.455" y2="146.069" gradientUnits="userSpaceOnUse">
<stop stop-color="#36DA88"/>
<stop offset="1" stop-color="#2CC896"/>
</linearGradient>
<linearGradient id="paint9_linear_978_28538" x1="179.143" y1="123.934" x2="179.143" y2="129.703" gradientUnits="userSpaceOnUse">
<stop stop-color="#36DA88"/>
<stop offset="1" stop-color="#2CC896"/>
</linearGradient>
<linearGradient id="paint10_linear_978_28538" x1="79.2286" y1="231.156" x2="79.2286" y2="236.926" gradientUnits="userSpaceOnUse">
<stop stop-color="#36DA88"/>
<stop offset="1" stop-color="#2CC896"/>
</linearGradient>
<linearGradient id="paint11_linear_978_28538" x1="325.025" y1="84.6484" x2="325.025" y2="90.4181" gradientUnits="userSpaceOnUse">
<stop stop-color="#36DA88"/>
<stop offset="1" stop-color="#2CC896"/>
</linearGradient>
<linearGradient id="paint12_linear_978_28538" x1="382.447" y1="292.738" x2="382.447" y2="298.508" gradientUnits="userSpaceOnUse">
<stop stop-color="#36DA88"/>
<stop offset="1" stop-color="#2CC896"/>
</linearGradient>
<linearGradient id="paint13_linear_978_28538" x1="343.393" y1="257.762" x2="343.393" y2="263.531" gradientUnits="userSpaceOnUse">
<stop stop-color="#36DA88"/>
<stop offset="1" stop-color="#2CC896"/>
</linearGradient>
<clipPath id="clip0_978_28538">
<rect width="480" height="423.01" fill="white"/>
</clipPath>
</defs>
</svg>
