<svg width="750" height="500" viewBox="0 0 750 500" fill="none" xmlns="http://www.w3.org/2000/svg">
<g clip-path="url(#clip0_55_6900)">
<path d="M633.021 79.212C583.803 50.251 527.987 38.254 472.127 30.724C418.178 23.452 362.816 27.25 310.256 41.331C287.251 47.494 264.772 55.632 243.18 65.68C222.948 75.095 203.411 91.95 181.37 96.319C188.751 86.021 196.133 75.723 203.515 65.425C207.772 59.487 211.961 50.97 207.036 45.572C205.028 43.371 201.975 42.455 199.026 42.021C187.632 40.344 176.193 44.474 165.856 49.55C118.226 72.939 79.337 116.557 49.765 159.709C0.965981 230.914 6.38798 347.786 62.158 405.061C117.928 462.336 237.213 490.2 286.786 484.008C324.418 479.307 283.871 456.959 275.542 443.41C274.816 442.229 274.134 440.928 274.194 439.543C274.296 437.173 276.462 435.469 278.514 434.278C295.709 424.294 317.684 427.229 336.715 425.732C366.985 423.35 397.499 422.368 427.852 423.492C431.974 423.645 479.552 424.78 475.781 434.479C472.784 442.181 460.96 448.404 454.752 453.119C449.984 456.74 419.118 477.718 428.026 484.881C430.488 486.861 433.823 487.268 436.969 487.573C489.089 492.622 542.726 491.068 594.046 480.213C638.739 470.758 688.071 455.376 714.738 415.429C741.933 374.692 743.595 320.281 733.221 273.848C730.751 262.793 727.505 251.901 723.399 241.34C719.588 231.539 713.53 223.279 708.474 214.122C706.436 210.432 705.029 205.985 706.497 202.034C712.974 184.601 731.781 219.367 736.911 200.697C739.402 191.631 734.601 178.182 731.554 169.622C726.063 154.196 716.768 140.321 705.639 128.392C684.361 105.587 659.141 94.582 633.021 79.212Z" fill="#92E3A9"/>
<path opacity="0.7" d="M633.021 79.212C583.803 50.251 527.987 38.254 472.127 30.724C418.178 23.452 362.816 27.25 310.256 41.331C287.251 47.494 264.772 55.632 243.18 65.68C222.948 75.095 203.411 91.95 181.37 96.319C188.751 86.021 196.133 75.723 203.515 65.425C207.772 59.487 211.961 50.97 207.036 45.572C205.028 43.371 201.975 42.455 199.026 42.021C187.632 40.344 176.193 44.474 165.856 49.55C118.226 72.939 79.337 116.557 49.765 159.709C0.965981 230.914 6.38798 347.786 62.158 405.061C117.928 462.336 237.213 490.2 286.786 484.008C324.418 479.307 283.871 456.959 275.542 443.41C274.816 442.229 274.134 440.928 274.194 439.543C274.296 437.173 276.462 435.469 278.514 434.278C295.709 424.294 317.684 427.229 336.715 425.732C366.985 423.35 397.499 422.368 427.852 423.492C431.974 423.645 479.552 424.78 475.781 434.479C472.784 442.181 460.96 448.404 454.752 453.119C449.984 456.74 419.118 477.718 428.026 484.881C430.488 486.861 433.823 487.268 436.969 487.573C489.089 492.622 542.726 491.068 594.046 480.213C638.739 470.758 688.071 455.376 714.738 415.429C741.933 374.692 743.595 320.281 733.221 273.848C730.751 262.793 727.505 251.901 723.399 241.34C719.588 231.539 713.53 223.279 708.474 214.122C706.436 210.432 705.029 205.985 706.497 202.034C712.974 184.601 731.781 219.367 736.911 200.697C739.402 191.631 734.601 178.182 731.554 169.622C726.063 154.196 716.768 140.321 705.639 128.392C684.361 105.587 659.141 94.582 633.021 79.212Z" fill="white"/>
<path d="M686.63 119.698C686.208 119.438 685.778 119.202 685.342 118.994C678.628 115.796 673.192 118.354 669.994 123.151C666.796 127.947 665.837 130.505 663.599 128.267C661.361 126.029 657.844 122.831 652.728 125.709C647.612 128.587 648.571 131.464 645.694 132.104C642.816 132.743 640.898 129.866 636.421 130.825C631.945 131.784 629.387 135.301 628.427 135.941C627.468 136.581 619.794 139.458 619.794 139.458H719.234C719.234 139.458 717.635 130.505 712.519 127.947C707.403 125.389 703.566 129.865 700.689 131.784C697.811 133.703 697.172 132.104 697.172 132.104C697.172 132.104 694.464 126.858 690.404 122.768" stroke="#263238" stroke-miterlimit="10" stroke-linecap="round" stroke-linejoin="round"/>
<path d="M327.931 129.849C327.509 129.589 327.079 129.353 326.643 129.145C319.929 125.948 314.493 128.506 311.295 133.302C308.098 138.098 307.138 140.656 304.9 138.418C302.662 136.18 299.145 132.982 294.029 135.86C288.913 138.738 289.872 141.615 286.995 142.255C284.117 142.894 282.199 140.017 277.722 140.976C273.246 141.935 270.688 145.452 269.728 146.092C268.769 146.732 261.095 149.609 261.095 149.609H360.535C360.535 149.609 358.936 140.656 353.82 138.098C348.704 135.54 344.867 140.016 341.99 141.935C339.112 143.854 338.473 142.255 338.473 142.255C338.473 142.255 335.766 137.009 331.705 132.919" stroke="#263238" stroke-miterlimit="10" stroke-linecap="round" stroke-linejoin="round"/>
<path d="M89.168 151.789C88.746 151.529 88.316 151.293 87.88 151.085C81.165 147.888 75.73 150.446 72.532 155.242C69.334 160.038 68.375 162.596 66.137 160.358C63.899 158.12 60.382 154.922 55.266 157.8C50.15 160.678 51.109 163.555 48.232 164.195C45.354 164.834 43.436 161.957 38.959 162.916C34.483 163.875 31.925 167.392 30.965 168.032C30.006 168.672 22.332 171.549 22.332 171.549H121.772C121.772 171.549 120.173 162.596 115.057 160.038C109.941 157.48 106.104 161.956 103.227 163.875C100.349 165.794 99.71 164.195 99.71 164.195C99.71 164.195 97.002 158.949 92.942 154.859" stroke="#263238" stroke-miterlimit="10" stroke-linecap="round" stroke-linejoin="round"/>
<path d="M314.99 46.819C314.181 46.32 313.357 45.867 312.52 45.469C299.642 39.337 289.218 44.242 283.085 53.441C276.953 62.639 275.113 67.545 270.82 63.253C266.528 58.96 259.782 52.828 249.971 58.347C240.159 63.866 241.999 69.385 236.48 70.611C230.961 71.837 227.282 66.318 218.696 68.158C210.111 69.998 205.205 76.743 203.365 77.97C201.525 79.197 186.808 84.715 186.808 84.715H377.52C377.52 84.715 374.454 67.545 364.642 62.639C354.83 57.733 347.472 66.318 341.953 69.998C336.434 73.678 335.208 70.611 335.208 70.611C335.208 70.611 330.015 60.55 322.228 52.706" stroke="#263238" stroke-miterlimit="10" stroke-linecap="round" stroke-linejoin="round"/>
<path d="M114.168 343.943C114.168 369.237 99.2052 389.742 80.7472 389.742C62.2892 389.742 47.3262 369.237 47.3262 343.943C47.3262 318.649 62.2892 231.715 80.7472 231.715C99.2052 231.715 114.168 318.649 114.168 343.943Z" fill="#92E3A9"/>
<path opacity="0.53" d="M114.168 343.943C114.168 369.237 99.2052 389.742 80.7472 389.742C62.2892 389.742 47.3262 369.237 47.3262 343.943C47.3262 318.649 62.2892 231.715 80.7472 231.715C99.2052 231.715 114.168 318.649 114.168 343.943Z" fill="white"/>
<path d="M62.6939 346.217L73.3529 349.935L78.6339 357.113L77.7099 379.09L71.5659 374.921L77.5189 383.638L76.1239 416.84H82.6439L81.7839 366.936L99.4869 357.177L89.3669 360.919L91.3969 354.828L86.5589 361.958L81.7289 363.745L81.3839 343.741L98.9649 320.383L89.5429 329.805L91.1359 323.254L86.6289 332.719L81.2859 338.062L80.7469 306.809L78.8319 352.39L62.1719 334.735L71.3229 347.176L62.6939 346.217Z" fill="#B2B2B2"/>
<path d="M99.1336 306.908C99.1336 306.908 99.4426 309.978 97.7646 312.232C96.0866 314.486 93.0566 315.07 93.0566 315.07C93.0566 315.07 92.7476 312 94.4256 309.746C96.1036 307.492 99.1336 306.908 99.1336 306.908Z" fill="white"/>
<path d="M109.206 321.06C109.206 321.06 109.515 324.13 107.837 326.385C106.159 328.639 103.129 329.223 103.129 329.223C103.129 329.223 102.82 326.153 104.498 323.899C106.176 321.645 109.206 321.06 109.206 321.06Z" fill="white"/>
<path d="M109.202 348.616C109.202 348.616 108.459 351.611 106.12 353.169C103.781 354.726 100.731 354.257 100.731 354.257C100.731 354.257 101.474 351.262 103.813 349.704C106.152 348.145 109.202 348.616 109.202 348.616Z" fill="white"/>
<path d="M53.8818 348.616C53.8818 348.616 54.6248 351.611 56.9638 353.169C59.3028 354.726 62.3528 354.257 62.3528 354.257C62.3528 354.257 61.6098 351.262 59.2708 349.704C56.9318 348.145 53.8818 348.616 53.8818 348.616Z" fill="white"/>
<path d="M97.5682 337.177C97.5682 337.177 97.8772 340.247 96.1992 342.502C94.5212 344.756 91.4902 345.34 91.4902 345.34C91.4902 345.34 91.1812 342.27 92.8592 340.015C94.5372 337.762 97.5682 337.177 97.5682 337.177Z" fill="white"/>
<path d="M94.9578 291.512C94.9578 291.512 95.2668 294.583 93.5888 296.837C91.9108 299.091 88.8808 299.675 88.8808 299.675C88.8808 299.675 88.5718 296.605 90.2498 294.351C91.9278 292.096 94.9578 291.512 94.9578 291.512Z" fill="white"/>
<path d="M88.9558 303.255C88.9558 303.255 89.2648 306.325 87.5868 308.579C85.9088 310.833 82.8788 311.417 82.8788 311.417C82.8788 311.417 82.5698 308.347 84.2478 306.092C85.9258 303.839 88.9558 303.255 88.9558 303.255Z" fill="white"/>
<path d="M103.204 294.705C103.204 294.705 103.513 297.775 101.835 300.029C100.157 302.283 97.1269 302.867 97.1269 302.867C97.1269 302.867 96.8179 299.797 98.4959 297.543C100.174 295.289 103.204 294.705 103.204 294.705Z" fill="white"/>
<path d="M56.9052 294.705C56.9052 294.705 56.5962 297.775 58.2742 300.029C59.9522 302.283 62.9822 302.867 62.9822 302.867C62.9822 302.867 63.2912 299.797 61.6132 297.543C59.9352 295.289 56.9052 294.705 56.9052 294.705Z" fill="white"/>
<path d="M96.2635 277.16C96.2635 277.16 96.5724 280.231 94.8944 282.485C93.2164 284.739 90.1864 285.323 90.1864 285.323C90.1864 285.323 89.8775 282.253 91.5555 279.998C93.2335 277.744 96.2635 277.16 96.2635 277.16Z" fill="white"/>
<path d="M93.3135 261.915C93.3135 261.915 94.3845 264.809 93.3255 267.413C92.2675 270.016 89.4815 271.343 89.4815 271.343C89.4815 271.343 88.4105 268.449 89.4695 265.845C90.5275 263.241 93.3135 261.915 93.3135 261.915Z" fill="white"/>
<path d="M72.179 257.931C72.179 257.931 74.913 259.363 75.871 262.005C76.829 264.647 75.649 267.498 75.649 267.498C75.649 267.498 72.915 266.066 71.957 263.424C70.999 260.782 72.179 257.931 72.179 257.931Z" fill="white"/>
<path d="M82.0357 276.161C82.0357 276.161 83.9827 278.555 83.8217 281.361C83.6607 284.167 81.4517 286.322 81.4517 286.322C81.4517 286.322 79.5047 283.928 79.6657 281.123C79.8267 278.316 82.0357 276.161 82.0357 276.161Z" fill="white"/>
<path d="M81.5133 249.023C81.5133 249.023 83.4603 251.417 83.2993 254.222C83.1383 257.027 80.9293 259.182 80.9293 259.182C80.9293 259.182 78.9823 256.788 79.1433 253.982C79.3043 251.178 81.5133 249.023 81.5133 249.023Z" fill="white"/>
<path d="M59.3945 306.908C59.3945 306.908 59.0855 309.978 60.7635 312.232C62.4415 314.486 65.4715 315.07 65.4715 315.07C65.4715 315.07 65.7805 312 64.1025 309.746C62.4245 307.492 59.3945 306.908 59.3945 306.908Z" fill="white"/>
<path d="M53.6532 323.608C53.6532 323.608 53.3442 326.678 55.0222 328.932C56.7002 331.186 59.7302 331.77 59.7302 331.77C59.7302 331.77 60.0392 328.7 58.3612 326.445C56.6832 324.193 53.6532 323.608 53.6532 323.608Z" fill="white"/>
<path d="M68.8925 329.672C68.8925 329.672 68.5835 332.742 70.2615 334.996C71.9395 337.25 74.9695 337.834 74.9695 337.834C74.9695 337.834 75.2785 334.763 73.6005 332.509C71.9225 330.256 68.8925 329.672 68.8925 329.672Z" fill="white"/>
<path d="M73.0583 306.531C73.0583 306.531 71.8833 309.384 72.8453 312.025C73.8083 314.665 76.5443 316.093 76.5443 316.093C76.5443 316.093 77.7194 313.24 76.7574 310.599C75.7944 307.958 73.0583 306.531 73.0583 306.531Z" fill="white"/>
<path d="M62.2676 368.107C62.2676 368.107 65.3526 368.163 67.4616 366.306C69.5706 364.449 69.9046 361.381 69.9046 361.381C69.9046 361.381 66.8196 361.325 64.7106 363.182C62.6016 365.039 62.2676 368.107 62.2676 368.107Z" fill="white"/>
<path d="M91.875 364.732C91.875 364.732 92.713 367.702 95.101 369.184C97.489 370.666 100.522 370.098 100.522 370.098C100.522 370.098 99.684 367.128 97.296 365.646C94.908 364.164 91.875 364.732 91.875 364.732Z" fill="white"/>
<path d="M65.7089 291.512C65.7089 291.512 65.3999 294.583 67.0779 296.837C68.7559 299.091 71.7869 299.675 71.7869 299.675C71.7869 299.675 72.0959 296.605 70.4179 294.351C68.7399 292.096 65.7089 291.512 65.7089 291.512Z" fill="white"/>
<path d="M65.6562 277.943C65.6562 277.943 65.3472 281.013 67.0252 283.267C68.7032 285.521 71.7342 286.105 71.7342 286.105C71.7342 286.105 72.0432 283.034 70.3652 280.78C68.6872 278.527 65.6562 277.943 65.6562 277.943Z" fill="white"/>
<path d="M709.794 366.692C709.794 391.986 694.831 412.491 676.373 412.491C657.915 412.491 642.952 391.986 642.952 366.692C642.952 341.398 657.915 254.464 676.373 254.464C694.832 254.464 709.794 341.398 709.794 366.692Z" fill="#92E3A9"/>
<path opacity="0.53" d="M709.794 366.692C709.794 391.986 694.831 412.491 676.373 412.491C657.915 412.491 642.952 391.986 642.952 366.692C642.952 341.398 657.915 254.464 676.373 254.464C694.832 254.464 709.794 341.398 709.794 366.692Z" fill="white"/>
<path d="M658.32 368.965L668.98 372.684L674.26 379.862L673.337 401.839L667.192 397.669L673.146 406.387L671.751 439.588H678.271L677.41 389.684L695.113 379.925L684.993 383.668L687.024 377.576L682.186 384.706L677.355 386.493L677.01 366.489L694.591 343.132L685.169 352.553L686.763 346.002L682.256 355.467L676.913 360.81L676.374 329.557L674.459 375.139L657.798 357.484L666.95 369.924L658.32 368.965Z" fill="#B2B2B2"/>
<path d="M694.761 329.656C694.761 329.656 695.07 332.727 693.392 334.981C691.714 337.235 688.684 337.819 688.684 337.819C688.684 337.819 688.375 334.749 690.053 332.494C691.731 330.24 694.761 329.656 694.761 329.656Z" fill="white"/>
<path d="M704.833 343.809C704.833 343.809 705.142 346.879 703.464 349.134C701.786 351.388 698.756 351.972 698.756 351.972C698.756 351.972 698.447 348.902 700.125 346.648C701.803 344.393 704.833 343.809 704.833 343.809Z" fill="white"/>
<path d="M704.828 371.364C704.828 371.364 704.086 374.359 701.746 375.917C699.407 377.475 696.357 377.005 696.357 377.005C696.357 377.005 697.099 374.01 699.439 372.452C701.779 370.894 704.828 371.364 704.828 371.364Z" fill="white"/>
<path d="M649.508 371.364C649.508 371.364 650.25 374.359 652.59 375.917C654.929 377.475 657.979 377.005 657.979 377.005C657.979 377.005 657.237 374.01 654.897 372.452C652.558 370.894 649.508 371.364 649.508 371.364Z" fill="white"/>
<path d="M693.194 359.926C693.194 359.926 693.503 362.996 691.825 365.251C690.147 367.505 687.117 368.089 687.117 368.089C687.117 368.089 686.808 365.019 688.486 362.765C690.164 360.51 693.194 359.926 693.194 359.926Z" fill="white"/>
<path d="M690.585 314.26C690.585 314.26 690.894 317.33 689.216 319.584C687.538 321.838 684.507 322.422 684.507 322.422C684.507 322.422 684.198 319.352 685.876 317.098C687.555 314.845 690.585 314.26 690.585 314.26Z" fill="white"/>
<path d="M684.583 326.003C684.583 326.003 684.892 329.073 683.214 331.328C681.536 333.582 678.505 334.166 678.505 334.166C678.505 334.166 678.196 331.096 679.874 328.841C681.553 326.587 684.583 326.003 684.583 326.003Z" fill="white"/>
<path d="M698.831 317.453C698.831 317.453 699.14 320.523 697.462 322.777C695.784 325.031 692.754 325.615 692.754 325.615C692.754 325.615 692.445 322.545 694.123 320.291C695.801 318.037 698.831 317.453 698.831 317.453Z" fill="white"/>
<path d="M652.532 317.453C652.532 317.453 652.223 320.523 653.901 322.777C655.579 325.031 658.609 325.615 658.609 325.615C658.609 325.615 658.918 322.545 657.24 320.291C655.562 318.037 652.532 317.453 652.532 317.453Z" fill="white"/>
<path d="M691.889 299.909C691.889 299.909 692.198 302.979 690.52 305.233C688.842 307.487 685.812 308.071 685.812 308.071C685.812 308.071 685.503 305.001 687.181 302.746C688.859 300.492 691.889 299.909 691.889 299.909Z" fill="white"/>
<path d="M688.94 284.663C688.94 284.663 690.012 287.557 688.953 290.161C687.895 292.764 685.108 294.091 685.108 294.091C685.108 294.091 684.037 291.197 685.096 288.593C686.154 285.99 688.94 284.663 688.94 284.663Z" fill="white"/>
<path d="M667.806 280.679C667.806 280.679 670.54 282.111 671.498 284.753C672.456 287.395 671.276 290.246 671.276 290.246C671.276 290.246 668.542 288.814 667.584 286.172C666.626 283.531 667.806 280.679 667.806 280.679Z" fill="white"/>
<path d="M677.662 298.91C677.662 298.91 679.609 301.304 679.448 304.11C679.287 306.916 677.078 309.071 677.078 309.071C677.078 309.071 675.131 306.677 675.292 303.871C675.453 301.065 677.662 298.91 677.662 298.91Z" fill="white"/>
<path d="M677.139 271.772C677.139 271.772 679.086 274.166 678.925 276.971C678.764 279.777 676.555 281.931 676.555 281.931C676.555 281.931 674.608 279.537 674.769 276.731C674.93 273.926 677.139 271.772 677.139 271.772Z" fill="white"/>
<path d="M655.02 329.656C655.02 329.656 654.711 332.727 656.389 334.981C658.067 337.235 661.097 337.819 661.097 337.819C661.097 337.819 661.406 334.749 659.728 332.494C658.05 330.24 655.02 329.656 655.02 329.656Z" fill="white"/>
<path d="M649.279 346.357C649.279 346.357 648.97 349.427 650.648 351.682C652.326 353.936 655.357 354.52 655.357 354.52C655.357 354.52 655.666 351.45 653.988 349.195C652.31 346.941 649.279 346.357 649.279 346.357Z" fill="white"/>
<path d="M664.518 352.42C664.518 352.42 664.209 355.49 665.887 357.744C667.565 359.998 670.595 360.582 670.595 360.582C670.595 360.582 670.904 357.512 669.226 355.257C667.548 353.004 664.518 352.42 664.518 352.42Z" fill="white"/>
<path d="M668.685 329.279C668.685 329.279 667.51 332.132 668.472 334.773C669.434 337.413 672.17 338.841 672.17 338.841C672.17 338.841 673.346 335.988 672.383 333.347C671.421 330.707 668.685 329.279 668.685 329.279Z" fill="white"/>
<path d="M657.895 390.855C657.895 390.855 660.981 390.911 663.089 389.054C665.198 387.197 665.532 384.129 665.532 384.129C665.532 384.129 662.447 384.073 660.338 385.93C658.229 387.788 657.895 390.855 657.895 390.855Z" fill="white"/>
<path d="M687.501 387.48C687.501 387.48 688.339 390.45 690.727 391.932C693.115 393.414 696.148 392.846 696.148 392.846C696.148 392.846 695.31 389.876 692.922 388.394C690.535 386.913 687.501 387.48 687.501 387.48Z" fill="white"/>
<path d="M661.336 314.26C661.336 314.26 661.027 317.33 662.705 319.584C664.383 321.838 667.413 322.422 667.413 322.422C667.413 322.422 667.722 319.352 666.044 317.098C664.366 314.845 661.336 314.26 661.336 314.26Z" fill="white"/>
<path d="M661.283 300.691C661.283 300.691 660.974 303.761 662.652 306.015C664.33 308.269 667.36 308.853 667.36 308.853C667.36 308.853 667.669 305.783 665.991 303.528C664.313 301.275 661.283 300.691 661.283 300.691Z" fill="white"/>
<path d="M631.57 302.29C631.57 327.584 616.607 348.089 598.149 348.089C579.691 348.089 564.729 327.584 564.729 302.29C564.729 276.996 579.691 190.062 598.149 190.062C616.607 190.062 631.57 276.996 631.57 302.29Z" fill="#92E3A9"/>
<path opacity="0.53" d="M631.57 302.29C631.57 327.584 616.607 348.089 598.149 348.089C579.691 348.089 564.729 327.584 564.729 302.29C564.729 276.996 579.691 190.062 598.149 190.062C616.607 190.062 631.57 276.996 631.57 302.29Z" fill="white"/>
<path d="M580.096 304.563L590.755 308.282L596.036 315.46L595.112 337.437L588.968 333.267L594.921 341.985L593.526 375.186H600.047L599.186 325.282L616.889 315.523L606.769 319.266L608.8 313.174L603.961 320.304L599.131 322.091L598.786 302.087L616.367 278.73L606.945 288.152L608.539 281.6L604.031 291.065L598.688 296.408L598.149 265.155L596.234 310.737L579.574 293.082L588.725 305.522L580.096 304.563Z" fill="#B2B2B2"/>
<path d="M616.536 265.254C616.536 265.254 616.845 268.324 615.167 270.579C613.489 272.833 610.459 273.417 610.459 273.417C610.459 273.417 610.15 270.347 611.828 268.093C613.506 265.838 616.536 265.254 616.536 265.254Z" fill="white"/>
<path d="M626.608 279.407C626.608 279.407 626.917 282.477 625.239 284.732C623.561 286.986 620.531 287.57 620.531 287.57C620.531 287.57 620.222 284.5 621.9 282.246C623.578 279.991 626.608 279.407 626.608 279.407Z" fill="white"/>
<path d="M626.605 306.962C626.605 306.962 625.863 309.957 623.523 311.515C621.184 313.072 618.134 312.603 618.134 312.603C618.134 312.603 618.876 309.608 621.216 308.05C623.555 306.492 626.605 306.962 626.605 306.962Z" fill="white"/>
<path d="M571.284 306.962C571.284 306.962 572.027 309.957 574.366 311.515C576.705 313.072 579.755 312.603 579.755 312.603C579.755 312.603 579.013 309.608 576.673 308.05C574.334 306.492 571.284 306.962 571.284 306.962Z" fill="white"/>
<path d="M614.97 295.524C614.97 295.524 615.279 298.594 613.601 300.849C611.923 303.103 608.893 303.687 608.893 303.687C608.893 303.687 608.584 300.616 610.262 298.362C611.94 296.108 614.97 295.524 614.97 295.524Z" fill="white"/>
<path d="M612.361 249.859C612.361 249.859 612.67 252.929 610.992 255.183C609.314 257.437 606.284 258.021 606.284 258.021C606.284 258.021 605.975 254.951 607.653 252.697C609.331 250.443 612.361 249.859 612.361 249.859Z" fill="white"/>
<path d="M606.359 261.601C606.359 261.601 606.668 264.671 604.99 266.925C603.312 269.179 600.281 269.763 600.281 269.763C600.281 269.763 599.972 266.693 601.65 264.438C603.328 262.185 606.359 261.601 606.359 261.601Z" fill="white"/>
<path d="M620.607 253.051C620.607 253.051 620.916 256.122 619.238 258.376C617.56 260.63 614.53 261.214 614.53 261.214C614.53 261.214 614.221 258.144 615.899 255.889C617.577 253.635 620.607 253.051 620.607 253.051Z" fill="white"/>
<path d="M574.308 253.051C574.308 253.051 573.999 256.122 575.677 258.376C577.355 260.63 580.385 261.214 580.385 261.214C580.385 261.214 580.694 258.144 579.016 255.889C577.338 253.635 574.308 253.051 574.308 253.051Z" fill="white"/>
<path d="M613.666 235.507C613.666 235.507 613.975 238.577 612.297 240.831C610.619 243.085 607.589 243.669 607.589 243.669C607.589 243.669 607.28 240.599 608.958 238.344C610.636 236.091 613.666 235.507 613.666 235.507Z" fill="white"/>
<path d="M610.717 220.261C610.717 220.261 611.788 223.155 610.729 225.759C609.671 228.363 606.885 229.689 606.885 229.689C606.885 229.689 605.814 226.795 606.873 224.191C607.931 221.588 610.717 220.261 610.717 220.261Z" fill="white"/>
<path d="M589.581 216.277C589.581 216.277 592.315 217.709 593.273 220.351C594.231 222.993 593.051 225.844 593.051 225.844C593.051 225.844 590.317 224.412 589.359 221.77C588.401 219.129 589.581 216.277 589.581 216.277Z" fill="white"/>
<path d="M599.438 234.508C599.438 234.508 601.385 236.902 601.224 239.708C601.063 242.514 598.854 244.669 598.854 244.669C598.854 244.669 596.907 242.275 597.068 239.469C597.229 236.663 599.438 234.508 599.438 234.508Z" fill="white"/>
<path d="M598.916 207.37C598.916 207.37 600.863 209.764 600.702 212.569C600.541 215.375 598.332 217.529 598.332 217.529C598.332 217.529 596.385 215.135 596.546 212.329C596.707 209.525 598.916 207.37 598.916 207.37Z" fill="white"/>
<path d="M576.797 265.254C576.797 265.254 576.488 268.324 578.166 270.579C579.844 272.833 582.874 273.417 582.874 273.417C582.874 273.417 583.183 270.347 581.505 268.093C579.827 265.838 576.797 265.254 576.797 265.254Z" fill="white"/>
<path d="M571.056 281.955C571.056 281.955 570.747 285.025 572.425 287.279C574.103 289.533 577.133 290.117 577.133 290.117C577.133 290.117 577.442 287.047 575.764 284.792C574.086 282.539 571.056 281.955 571.056 281.955Z" fill="white"/>
<path d="M586.295 288.018C586.295 288.018 585.986 291.088 587.664 293.342C589.342 295.596 592.372 296.18 592.372 296.18C592.372 296.18 592.681 293.11 591.003 290.855C589.325 288.602 586.295 288.018 586.295 288.018Z" fill="white"/>
<path d="M590.461 264.878C590.461 264.878 589.286 267.731 590.248 270.372C591.21 273.012 593.946 274.44 593.946 274.44C593.946 274.44 595.122 271.587 594.159 268.946C593.197 266.305 590.461 264.878 590.461 264.878Z" fill="white"/>
<path d="M579.67 326.453C579.67 326.453 582.756 326.51 584.864 324.652C586.973 322.795 587.307 319.727 587.307 319.727C587.307 319.727 584.221 319.671 582.113 321.528C580.004 323.386 579.67 326.453 579.67 326.453Z" fill="white"/>
<path d="M609.277 323.078C609.277 323.078 610.115 326.048 612.503 327.53C614.891 329.012 617.924 328.444 617.924 328.444C617.924 328.444 617.086 325.474 614.698 323.992C612.31 322.511 609.277 323.078 609.277 323.078Z" fill="white"/>
<path d="M583.112 249.859C583.112 249.859 582.803 252.929 584.481 255.183C586.159 257.437 589.189 258.021 589.189 258.021C589.189 258.021 589.498 254.951 587.82 252.697C586.142 250.443 583.112 249.859 583.112 249.859Z" fill="white"/>
<path d="M583.06 236.29C583.06 236.29 582.75 239.36 584.428 241.614C586.106 243.868 589.136 244.452 589.136 244.452C589.136 244.452 589.446 241.382 587.768 239.127C586.09 236.874 583.06 236.29 583.06 236.29Z" fill="white"/>
<path d="M386.836 289.101C386.836 314.395 371.873 334.9 353.415 334.9C334.957 334.9 319.994 314.395 319.994 289.101C319.994 263.807 334.957 176.873 353.415 176.873C371.874 176.873 386.836 263.807 386.836 289.101Z" fill="#92E3A9"/>
<path opacity="0.53" d="M386.836 289.101C386.836 314.395 371.873 334.9 353.415 334.9C334.957 334.9 319.994 314.395 319.994 289.101C319.994 263.807 334.957 176.873 353.415 176.873C371.874 176.873 386.836 263.807 386.836 289.101Z" fill="white"/>
<path d="M335.362 291.375L346.022 295.093L351.302 302.271L350.379 324.248L344.234 320.079L350.188 328.796L348.793 361.998H355.313L354.452 312.094L372.155 302.335L362.035 306.077L364.066 299.986L359.228 307.116L354.397 308.902L354.052 288.899L371.633 265.541L362.211 274.963L363.805 268.412L359.298 277.877L353.954 283.22L353.416 251.967L351.501 297.548L334.84 279.893L343.992 292.334L335.362 291.375Z" fill="#B2B2B2"/>
<path d="M371.803 252.066C371.803 252.066 372.112 255.136 370.434 257.391C368.756 259.645 365.726 260.229 365.726 260.229C365.726 260.229 365.417 257.159 367.095 254.905C368.773 252.65 371.803 252.066 371.803 252.066Z" fill="white"/>
<path d="M381.875 266.219C381.875 266.219 382.184 269.289 380.506 271.543C378.828 273.797 375.798 274.381 375.798 274.381C375.798 274.381 375.489 271.311 377.167 269.057C378.844 266.803 381.875 266.219 381.875 266.219Z" fill="white"/>
<path d="M381.87 293.773C381.87 293.773 381.128 296.768 378.788 298.326C376.449 299.884 373.399 299.414 373.399 299.414C373.399 299.414 374.141 296.418 376.481 294.861C378.82 293.303 381.87 293.773 381.87 293.773Z" fill="white"/>
<path d="M326.55 293.773C326.55 293.773 327.293 296.768 329.632 298.326C331.971 299.884 335.021 299.414 335.021 299.414C335.021 299.414 334.279 296.418 331.939 294.861C329.6 293.303 326.55 293.773 326.55 293.773Z" fill="white"/>
<path d="M370.236 282.336C370.236 282.336 370.545 285.406 368.867 287.66C367.189 289.914 364.159 290.498 364.159 290.498C364.159 290.498 363.85 287.428 365.528 285.173C367.206 282.92 370.236 282.336 370.236 282.336Z" fill="white"/>
<path d="M367.627 236.67C367.627 236.67 367.936 239.74 366.258 241.994C364.58 244.248 361.55 244.832 361.55 244.832C361.55 244.832 361.241 241.762 362.919 239.508C364.596 237.254 367.627 236.67 367.627 236.67Z" fill="white"/>
<path d="M361.625 248.413C361.625 248.413 361.934 251.483 360.256 253.738C358.578 255.992 355.547 256.576 355.547 256.576C355.547 256.576 355.238 253.506 356.916 251.252C358.595 248.997 361.625 248.413 361.625 248.413Z" fill="white"/>
<path d="M375.873 239.863C375.873 239.863 376.182 242.933 374.504 245.187C372.826 247.441 369.796 248.025 369.796 248.025C369.796 248.025 369.487 244.955 371.165 242.7C372.843 240.447 375.873 239.863 375.873 239.863Z" fill="white"/>
<path d="M329.573 239.863C329.573 239.863 329.264 242.933 330.942 245.187C332.62 247.441 335.65 248.025 335.65 248.025C335.65 248.025 335.959 244.955 334.281 242.7C332.604 240.447 329.573 239.863 329.573 239.863Z" fill="white"/>
<path d="M368.931 222.318C368.931 222.318 369.24 225.388 367.562 227.642C365.884 229.896 362.854 230.48 362.854 230.48C362.854 230.48 362.545 227.41 364.223 225.155C365.901 222.902 368.931 222.318 368.931 222.318Z" fill="white"/>
<path d="M365.983 207.073C365.983 207.073 367.052 209.967 365.994 212.571C364.936 215.175 362.149 216.501 362.149 216.501C362.149 216.501 361.078 213.607 362.137 211.003C363.196 208.399 365.983 207.073 365.983 207.073Z" fill="white"/>
<path d="M344.848 203.089C344.848 203.089 347.582 204.521 348.54 207.163C349.498 209.805 348.318 212.656 348.318 212.656C348.318 212.656 345.584 211.224 344.626 208.582C343.668 205.94 344.848 203.089 344.848 203.089Z" fill="white"/>
<path d="M354.703 221.319C354.703 221.319 356.65 223.713 356.489 226.519C356.328 229.325 354.118 231.48 354.118 231.48C354.118 231.48 352.171 229.086 352.332 226.28C352.494 223.474 354.703 221.319 354.703 221.319Z" fill="white"/>
<path d="M354.181 194.181C354.181 194.181 356.128 196.575 355.967 199.381C355.806 202.187 353.597 204.341 353.597 204.341C353.597 204.341 351.65 201.947 351.811 199.141C351.972 196.336 354.181 194.181 354.181 194.181Z" fill="white"/>
<path d="M332.062 252.066C332.062 252.066 331.753 255.136 333.431 257.391C335.109 259.645 338.139 260.229 338.139 260.229C338.139 260.229 338.448 257.159 336.77 254.905C335.092 252.65 332.062 252.066 332.062 252.066Z" fill="white"/>
<path d="M326.321 268.766C326.321 268.766 326.012 271.837 327.69 274.091C329.368 276.345 332.398 276.929 332.398 276.929C332.398 276.929 332.707 273.859 331.029 271.604C329.352 269.35 326.321 268.766 326.321 268.766Z" fill="white"/>
<path d="M341.56 274.83C341.56 274.83 341.251 277.9 342.929 280.154C344.607 282.408 347.637 282.992 347.637 282.992C347.637 282.992 347.946 279.922 346.268 277.667C344.59 275.414 341.56 274.83 341.56 274.83Z" fill="white"/>
<path d="M345.727 251.689C345.727 251.689 344.552 254.542 345.514 257.183C346.476 259.823 349.212 261.251 349.212 261.251C349.212 261.251 350.387 258.398 349.425 255.757C348.462 253.116 345.727 251.689 345.727 251.689Z" fill="white"/>
<path d="M334.937 313.265C334.937 313.265 338.023 313.321 340.131 311.464C342.24 309.607 342.574 306.539 342.574 306.539C342.574 306.539 339.488 306.483 337.38 308.34C335.271 310.197 334.937 313.265 334.937 313.265Z" fill="white"/>
<path d="M364.543 309.89C364.543 309.89 365.381 312.86 367.769 314.342C370.157 315.824 373.19 315.256 373.19 315.256C373.19 315.256 372.352 312.286 369.964 310.804C367.577 309.322 364.543 309.89 364.543 309.89Z" fill="white"/>
<path d="M338.378 236.67C338.378 236.67 338.069 239.74 339.747 241.994C341.425 244.248 344.455 244.832 344.455 244.832C344.455 244.832 344.764 241.762 343.086 239.508C341.408 237.254 338.378 236.67 338.378 236.67Z" fill="white"/>
<path d="M338.325 223.101C338.325 223.101 338.016 226.171 339.694 228.426C341.372 230.68 344.402 231.264 344.402 231.264C344.402 231.264 344.711 228.194 343.033 225.939C341.355 223.685 338.325 223.101 338.325 223.101Z" fill="white"/>
<path d="M224.294 312.763C224.294 338.057 209.331 358.562 190.873 358.562C172.415 358.562 157.452 338.057 157.452 312.763C157.452 287.469 172.415 200.535 190.873 200.535C209.331 200.535 224.294 287.469 224.294 312.763Z" fill="#92E3A9"/>
<path opacity="0.53" d="M224.294 312.763C224.294 338.057 209.331 358.562 190.873 358.562C172.415 358.562 157.452 338.057 157.452 312.763C157.452 287.469 172.415 200.535 190.873 200.535C209.331 200.535 224.294 287.469 224.294 312.763Z" fill="white"/>
<path d="M172.819 315.036L183.479 318.755L188.759 325.933L187.836 347.91L181.691 343.74L187.645 352.458L186.25 385.659H192.77L191.91 335.755L209.613 325.996L199.493 329.739L201.523 323.647L196.685 330.777L191.855 332.564L191.51 312.56L209.09 289.203L199.669 298.624L201.262 292.073L196.755 301.538L191.412 306.881L190.873 275.628L188.958 321.21L172.297 303.555L181.449 315.995L172.819 315.036Z" fill="#B2B2B2"/>
<path d="M209.26 275.727C209.26 275.727 209.569 278.797 207.891 281.051C206.213 283.305 203.183 283.889 203.183 283.889C203.183 283.889 202.874 280.819 204.552 278.565C206.23 276.311 209.26 275.727 209.26 275.727Z" fill="white"/>
<path d="M219.332 289.88C219.332 289.88 219.641 292.95 217.963 295.205C216.285 297.459 213.255 298.043 213.255 298.043C213.255 298.043 212.946 294.973 214.624 292.719C216.302 290.464 219.332 289.88 219.332 289.88Z" fill="white"/>
<path d="M219.328 317.435C219.328 317.435 218.586 320.43 216.246 321.988C213.907 323.545 210.857 323.075 210.857 323.075C210.857 323.075 211.599 320.08 213.939 318.522C216.278 316.965 219.328 317.435 219.328 317.435Z" fill="white"/>
<path d="M164.007 317.435C164.007 317.435 164.75 320.43 167.089 321.988C169.428 323.545 172.478 323.075 172.478 323.075C172.478 323.075 171.736 320.08 169.396 318.522C167.057 316.965 164.007 317.435 164.007 317.435Z" fill="white"/>
<path d="M207.693 305.997C207.693 305.997 208.002 309.067 206.324 311.321C204.646 313.575 201.616 314.159 201.616 314.159C201.616 314.159 201.307 311.089 202.985 308.834C204.663 306.581 207.693 305.997 207.693 305.997Z" fill="white"/>
<path d="M205.084 260.331C205.084 260.331 205.393 263.401 203.715 265.656C202.037 267.91 199.007 268.494 199.007 268.494C199.007 268.494 198.698 265.424 200.376 263.169C202.054 260.915 205.084 260.331 205.084 260.331Z" fill="white"/>
<path d="M199.082 272.074C199.082 272.074 199.391 275.144 197.713 277.398C196.035 279.652 193.004 280.236 193.004 280.236C193.004 280.236 192.695 277.166 194.373 274.912C196.052 272.658 199.082 272.074 199.082 272.074Z" fill="white"/>
<path d="M213.33 263.524C213.33 263.524 213.639 266.594 211.961 268.848C210.283 271.102 207.252 271.686 207.252 271.686C207.252 271.686 206.943 268.616 208.621 266.361C210.3 264.108 213.33 263.524 213.33 263.524Z" fill="white"/>
<path d="M167.031 263.524C167.031 263.524 166.722 266.594 168.4 268.848C170.078 271.102 173.109 271.686 173.109 271.686C173.109 271.686 173.418 268.616 171.74 266.361C170.061 264.108 167.031 263.524 167.031 263.524Z" fill="white"/>
<path d="M206.389 245.98C206.389 245.98 206.698 249.05 205.02 251.304C203.342 253.558 200.312 254.142 200.312 254.142C200.312 254.142 200.003 251.072 201.681 248.817C203.358 246.564 206.389 245.98 206.389 245.98Z" fill="white"/>
<path d="M203.44 230.734C203.44 230.734 204.511 233.628 203.452 236.232C202.394 238.836 199.607 240.162 199.607 240.162C199.607 240.162 198.536 237.268 199.595 234.664C200.654 232.061 203.44 230.734 203.44 230.734Z" fill="white"/>
<path d="M182.305 226.75C182.305 226.75 185.039 228.182 185.997 230.824C186.955 233.466 185.775 236.317 185.775 236.317C185.775 236.317 183.041 234.885 182.083 232.243C181.125 229.602 182.305 226.75 182.305 226.75Z" fill="white"/>
<path d="M192.16 244.981C192.16 244.981 194.107 247.375 193.946 250.181C193.785 252.987 191.576 255.141 191.576 255.141C191.576 255.141 189.629 252.747 189.79 249.941C189.951 247.136 192.16 244.981 192.16 244.981Z" fill="white"/>
<path d="M191.638 217.842C191.638 217.842 193.585 220.236 193.424 223.042C193.263 225.848 191.054 228.002 191.054 228.002C191.054 228.002 189.107 225.608 189.268 222.802C189.429 219.997 191.638 217.842 191.638 217.842Z" fill="white"/>
<path d="M169.519 275.727C169.519 275.727 169.21 278.797 170.888 281.051C172.566 283.305 175.596 283.889 175.596 283.889C175.596 283.889 175.905 280.819 174.227 278.565C172.549 276.311 169.519 275.727 169.519 275.727Z" fill="white"/>
<path d="M163.779 292.428C163.779 292.428 163.47 295.498 165.148 297.752C166.826 300.006 169.856 300.59 169.856 300.59C169.856 300.59 170.165 297.52 168.487 295.265C166.809 293.012 163.779 292.428 163.779 292.428Z" fill="white"/>
<path d="M179.018 298.491C179.018 298.491 178.709 301.561 180.387 303.815C182.065 306.069 185.094 306.653 185.094 306.653C185.094 306.653 185.404 303.583 183.726 301.328C182.049 299.075 179.018 298.491 179.018 298.491Z" fill="white"/>
<path d="M183.184 275.35C183.184 275.35 182.009 278.203 182.971 280.844C183.933 283.484 186.669 284.912 186.669 284.912C186.669 284.912 187.844 282.059 186.882 279.418C185.92 276.778 183.184 275.35 183.184 275.35Z" fill="white"/>
<path d="M172.394 336.926C172.394 336.926 175.479 336.982 177.588 335.125C179.697 333.268 180.031 330.2 180.031 330.2C180.031 330.2 176.946 330.144 174.837 332.001C172.728 333.858 172.394 336.926 172.394 336.926Z" fill="white"/>
<path d="M202.001 333.551C202.001 333.551 202.839 336.521 205.227 338.003C207.615 339.485 210.648 338.917 210.648 338.917C210.648 338.917 209.81 335.947 207.422 334.465C205.034 332.984 202.001 333.551 202.001 333.551Z" fill="white"/>
<path d="M175.835 260.331C175.835 260.331 175.526 263.401 177.204 265.656C178.882 267.91 181.912 268.494 181.912 268.494C181.912 268.494 182.221 265.424 180.543 263.169C178.865 260.915 175.835 260.331 175.835 260.331Z" fill="white"/>
<path d="M175.782 246.762C175.782 246.762 175.473 249.832 177.151 252.087C178.829 254.341 181.859 254.925 181.859 254.925C181.859 254.925 182.168 251.855 180.49 249.6C178.812 247.346 175.782 246.762 175.782 246.762Z" fill="white"/>
<path d="M687.034 244.671C687.034 283.282 664.194 314.581 636.018 314.581C607.843 314.581 585.002 283.281 585.002 244.671C585.002 206.061 607.842 73.359 636.018 73.359C664.194 73.359 687.034 206.061 687.034 244.671Z" fill="#92E3A9"/>
<path opacity="0.3" d="M687.034 244.671C687.034 283.282 664.194 314.581 636.018 314.581C607.843 314.581 585.002 283.281 585.002 244.671C585.002 206.061 607.842 73.359 636.018 73.359C664.194 73.359 687.034 206.061 687.034 244.671Z" fill="white"/>
<path d="M608.46 248.142L624.732 253.818L632.792 264.775L631.383 298.322L622.003 291.957L631.091 305.264L628.962 355.945H638.914L637.601 279.768L664.624 264.871L649.176 270.585L652.276 261.286L644.891 272.17L637.517 274.897L636.991 244.362L663.827 208.708L649.445 223.09L651.878 213.089L644.997 227.538L636.841 235.694L636.019 187.987L633.095 257.565L607.664 230.615L621.633 249.605L608.46 248.142Z" fill="#B2B2B2"/>
<path d="M664.085 188.138C664.085 188.138 664.557 192.825 661.995 196.266C659.433 199.707 654.808 200.598 654.808 200.598C654.808 200.598 654.336 195.911 656.898 192.47C659.46 189.03 664.085 188.138 664.085 188.138Z" fill="white"/>
<path d="M679.461 209.741C679.461 209.741 679.933 214.428 677.371 217.869C674.809 221.31 670.184 222.201 670.184 222.201C670.184 222.201 669.712 217.514 672.274 214.073C674.836 210.633 679.461 209.741 679.461 209.741Z" fill="white"/>
<path d="M679.454 251.803C679.454 251.803 678.321 256.375 674.75 258.753C671.18 261.131 666.524 260.413 666.524 260.413C666.524 260.413 667.657 255.841 671.228 253.463C674.798 251.086 679.454 251.803 679.454 251.803Z" fill="white"/>
<path d="M595.009 251.803C595.009 251.803 596.142 256.375 599.713 258.753C603.284 261.131 607.939 260.413 607.939 260.413C607.939 260.413 606.806 255.841 603.235 253.463C599.665 251.086 595.009 251.803 595.009 251.803Z" fill="white"/>
<path d="M661.694 234.344C661.694 234.344 662.166 239.031 659.604 242.472C657.042 245.913 652.417 246.804 652.417 246.804C652.417 246.804 651.945 242.117 654.507 238.676C657.069 235.235 661.694 234.344 661.694 234.344Z" fill="white"/>
<path d="M657.712 164.637C657.712 164.637 658.184 169.324 655.622 172.765C653.06 176.206 648.435 177.097 648.435 177.097C648.435 177.097 647.963 172.41 650.525 168.969C653.087 165.528 657.712 164.637 657.712 164.637Z" fill="white"/>
<path d="M648.551 182.561C648.551 182.561 649.023 187.248 646.461 190.689C643.899 194.13 639.272 195.021 639.272 195.021C639.272 195.021 638.801 190.334 641.363 186.893C643.925 183.453 648.551 182.561 648.551 182.561Z" fill="white"/>
<path d="M670.3 169.511C670.3 169.511 670.772 174.198 668.21 177.639C665.648 181.08 661.022 181.971 661.022 181.971C661.022 181.971 660.551 177.284 663.113 173.843C665.674 170.402 670.3 169.511 670.3 169.511Z" fill="white"/>
<path d="M599.624 169.511C599.624 169.511 599.152 174.198 601.714 177.639C604.276 181.08 608.901 181.971 608.901 181.971C608.901 181.971 609.373 177.284 606.811 173.843C604.25 170.402 599.624 169.511 599.624 169.511Z" fill="white"/>
<path d="M659.703 142.729C659.703 142.729 660.175 147.416 657.613 150.857C655.051 154.298 650.426 155.189 650.426 155.189C650.426 155.189 649.954 150.502 652.516 147.061C655.077 143.621 659.703 142.729 659.703 142.729Z" fill="white"/>
<path d="M655.201 119.457C655.201 119.457 656.835 123.875 655.22 127.849C653.605 131.823 649.352 133.848 649.352 133.848C649.352 133.848 647.718 129.43 649.333 125.456C650.948 121.482 655.201 119.457 655.201 119.457Z" fill="white"/>
<path d="M622.94 113.376C622.94 113.376 627.113 115.562 628.575 119.595C630.038 123.628 628.236 127.98 628.236 127.98C628.236 127.98 624.063 125.794 622.601 121.761C621.138 117.729 622.94 113.376 622.94 113.376Z" fill="white"/>
<path d="M637.984 141.204C637.984 141.204 640.957 144.858 640.71 149.141C640.464 153.424 637.092 156.713 637.092 156.713C637.092 156.713 634.119 153.059 634.366 148.776C634.612 144.494 637.984 141.204 637.984 141.204Z" fill="white"/>
<path d="M637.187 99.779C637.187 99.779 640.159 103.433 639.913 107.716C639.667 111.999 636.295 115.288 636.295 115.288C636.295 115.288 633.322 111.634 633.569 107.351C633.815 103.068 637.187 99.779 637.187 99.779Z" fill="white"/>
<path d="M603.423 188.138C603.423 188.138 602.951 192.825 605.513 196.266C608.075 199.707 612.7 200.598 612.7 200.598C612.7 200.598 613.172 195.911 610.61 192.47C608.049 189.03 603.423 188.138 603.423 188.138Z" fill="white"/>
<path d="M594.66 213.631C594.66 213.631 594.188 218.318 596.75 221.759C599.312 225.2 603.937 226.091 603.937 226.091C603.937 226.091 604.409 221.404 601.847 217.963C599.285 214.522 594.66 213.631 594.66 213.631Z" fill="white"/>
<path d="M617.922 222.886C617.922 222.886 617.45 227.573 620.012 231.014C622.574 234.455 627.199 235.346 627.199 235.346C627.199 235.346 627.671 230.659 625.109 227.218C622.547 223.778 617.922 222.886 617.922 222.886Z" fill="white"/>
<path d="M624.281 187.563C624.281 187.563 622.487 191.919 623.956 195.949C625.425 199.979 629.602 202.158 629.602 202.158C629.602 202.158 631.396 197.803 629.927 193.772C628.458 189.742 624.281 187.563 624.281 187.563Z" fill="white"/>
<path d="M607.811 281.556C607.811 281.556 612.521 281.642 615.74 278.807C618.959 275.972 619.469 271.289 619.469 271.289C619.469 271.289 614.759 271.203 611.54 274.038C608.32 276.874 607.811 281.556 607.811 281.556Z" fill="white"/>
<path d="M653.005 276.404C653.005 276.404 654.284 280.938 657.929 283.2C661.574 285.462 666.204 284.596 666.204 284.596C666.204 284.596 664.925 280.062 661.28 277.801C657.635 275.538 653.005 276.404 653.005 276.404Z" fill="white"/>
<path d="M613.064 164.637C613.064 164.637 612.592 169.324 615.154 172.765C617.716 176.206 622.341 177.097 622.341 177.097C622.341 177.097 622.813 172.41 620.251 168.969C617.689 165.528 613.064 164.637 613.064 164.637Z" fill="white"/>
<path d="M612.983 143.924C612.983 143.924 612.511 148.611 615.073 152.052C617.635 155.493 622.26 156.384 622.26 156.384C622.26 156.384 622.732 151.697 620.17 148.256C617.608 144.816 612.983 143.924 612.983 143.924Z" fill="white"/>
<path d="M509.21 230.944C509.21 260.982 491.44 285.334 469.521 285.334C447.601 285.334 429.831 260.983 429.831 230.944C429.831 200.905 447.6 97.665 469.52 97.665C491.44 97.665 509.21 200.906 509.21 230.944Z" fill="#92E3A9"/>
<path opacity="0.3" d="M509.21 230.944C509.21 260.982 491.44 285.334 469.521 285.334C447.601 285.334 429.831 260.983 429.831 230.944C429.831 200.905 447.6 97.665 469.52 97.665C491.44 97.665 509.21 200.906 509.21 230.944Z" fill="white"/>
<path d="M448.08 233.644L460.739 238.06L467.01 246.585L465.913 272.684L458.616 267.732L465.686 278.085L464.03 317.514H471.773L470.751 258.249L491.775 246.66L479.757 251.105L482.168 243.871L476.422 252.338L470.686 254.46L470.276 230.704L491.155 202.965L479.966 214.154L481.858 206.374L476.505 217.614L470.16 223.96L469.52 186.845L467.246 240.976L447.46 220.009L458.328 234.783L448.08 233.644Z" fill="#B2B2B2"/>
<path d="M491.355 186.962C491.355 186.962 491.722 190.608 489.729 193.285C487.736 195.962 484.137 196.655 484.137 196.655C484.137 196.655 483.77 193.009 485.763 190.332C487.756 187.656 491.355 186.962 491.355 186.962Z" fill="white"/>
<path d="M503.317 203.769C503.317 203.769 503.684 207.415 501.691 210.092C499.698 212.769 496.099 213.462 496.099 213.462C496.099 213.462 495.732 209.816 497.725 207.139C499.719 204.463 503.317 203.769 503.317 203.769Z" fill="white"/>
<path d="M503.312 236.493C503.312 236.493 502.43 240.05 499.652 241.9C496.874 243.75 493.252 243.192 493.252 243.192C493.252 243.192 494.134 239.635 496.912 237.785C499.69 235.935 503.312 236.493 503.312 236.493Z" fill="white"/>
<path d="M437.615 236.493C437.615 236.493 438.497 240.05 441.275 241.9C444.053 243.75 447.675 243.192 447.675 243.192C447.675 243.192 446.793 239.635 444.015 237.785C441.237 235.935 437.615 236.493 437.615 236.493Z" fill="white"/>
<path d="M489.495 222.909C489.495 222.909 489.862 226.555 487.869 229.232C485.876 231.909 482.277 232.603 482.277 232.603C482.277 232.603 481.91 228.957 483.903 226.28C485.897 223.603 489.495 222.909 489.495 222.909Z" fill="white"/>
<path d="M486.397 168.678C486.397 168.678 486.764 172.324 484.771 175.001C482.778 177.678 479.179 178.372 479.179 178.372C479.179 178.372 478.812 174.726 480.805 172.049C482.798 169.372 486.397 168.678 486.397 168.678Z" fill="white"/>
<path d="M479.269 182.624C479.269 182.624 479.636 186.27 477.643 188.947C475.65 191.624 472.051 192.318 472.051 192.318C472.051 192.318 471.684 188.672 473.677 185.995C475.671 183.317 479.269 182.624 479.269 182.624Z" fill="white"/>
<path d="M496.19 172.47C496.19 172.47 496.557 176.116 494.564 178.793C492.571 181.47 488.972 182.163 488.972 182.163C488.972 182.163 488.605 178.517 490.598 175.84C492.591 173.164 496.19 172.47 496.19 172.47Z" fill="white"/>
<path d="M441.206 172.47C441.206 172.47 440.839 176.116 442.832 178.793C444.825 181.47 448.424 182.163 448.424 182.163C448.424 182.163 448.791 178.517 446.798 175.84C444.804 173.164 441.206 172.47 441.206 172.47Z" fill="white"/>
<path d="M487.946 151.635C487.946 151.635 488.313 155.281 486.32 157.958C484.327 160.635 480.728 161.328 480.728 161.328C480.728 161.328 480.361 157.682 482.354 155.005C484.348 152.328 487.946 151.635 487.946 151.635Z" fill="white"/>
<path d="M484.443 133.529C484.443 133.529 485.714 136.966 484.458 140.058C483.201 143.15 479.892 144.725 479.892 144.725C479.892 144.725 478.621 141.288 479.877 138.196C481.135 135.105 484.443 133.529 484.443 133.529Z" fill="white"/>
<path d="M459.345 128.798C459.345 128.798 462.592 130.498 463.729 133.636C464.867 136.773 463.466 140.16 463.466 140.16C463.466 140.16 460.22 138.46 459.082 135.322C457.943 132.185 459.345 128.798 459.345 128.798Z" fill="white"/>
<path d="M471.049 150.448C471.049 150.448 473.362 153.291 473.17 156.623C472.978 159.955 470.355 162.514 470.355 162.514C470.355 162.514 468.042 159.671 468.234 156.339C468.426 153.008 471.049 150.448 471.049 150.448Z" fill="white"/>
<path d="M470.429 118.22C470.429 118.22 472.742 121.063 472.55 124.395C472.358 127.727 469.735 130.286 469.735 130.286C469.735 130.286 467.422 127.443 467.614 124.111C467.806 120.779 470.429 118.22 470.429 118.22Z" fill="white"/>
<path d="M444.161 186.962C444.161 186.962 443.794 190.608 445.787 193.285C447.78 195.962 451.379 196.655 451.379 196.655C451.379 196.655 451.746 193.009 449.753 190.332C447.76 187.656 444.161 186.962 444.161 186.962Z" fill="white"/>
<path d="M437.344 206.795C437.344 206.795 436.977 210.441 438.97 213.118C440.963 215.795 444.562 216.489 444.562 216.489C444.562 216.489 444.929 212.843 442.936 210.166C440.942 207.489 437.344 206.795 437.344 206.795Z" fill="white"/>
<path d="M455.441 213.996C455.441 213.996 455.074 217.642 457.067 220.319C459.06 222.996 462.659 223.689 462.659 223.689C462.659 223.689 463.026 220.043 461.033 217.366C459.039 214.689 455.441 213.996 455.441 213.996Z" fill="white"/>
<path d="M460.389 186.514C460.389 186.514 458.993 189.903 460.136 193.038C461.279 196.173 464.528 197.869 464.528 197.869C464.528 197.869 465.924 194.481 464.781 191.345C463.638 188.21 460.389 186.514 460.389 186.514Z" fill="white"/>
<path d="M447.574 259.641C447.574 259.641 451.238 259.708 453.743 257.502C456.247 255.296 456.644 251.653 456.644 251.653C456.644 251.653 452.98 251.586 450.475 253.792C447.97 255.997 447.574 259.641 447.574 259.641Z" fill="white"/>
<path d="M482.735 255.632C482.735 255.632 483.73 259.159 486.566 260.919C489.402 262.679 493.004 262.005 493.004 262.005C493.004 262.005 492.009 258.478 489.173 256.718C486.337 254.958 482.735 255.632 482.735 255.632Z" fill="white"/>
<path d="M451.661 168.678C451.661 168.678 451.294 172.324 453.287 175.001C455.28 177.678 458.879 178.372 458.879 178.372C458.879 178.372 459.246 174.726 457.253 172.049C455.26 169.372 451.661 168.678 451.661 168.678Z" fill="white"/>
<path d="M451.599 152.564C451.599 152.564 451.232 156.21 453.225 158.887C455.218 161.564 458.817 162.257 458.817 162.257C458.817 162.257 459.184 158.611 457.191 155.934C455.197 153.258 451.599 152.564 451.599 152.564Z" fill="white"/>
<path d="M189.921 248.798C189.921 288.198 166.614 320.138 137.862 320.138C109.111 320.138 85.8027 288.198 85.8027 248.798C85.8027 209.398 109.11 73.983 137.862 73.983C166.614 73.983 189.921 209.398 189.921 248.798Z" fill="#92E3A9"/>
<path opacity="0.3" d="M189.921 248.798C189.921 288.198 166.614 320.138 137.862 320.138C109.111 320.138 85.8027 288.198 85.8027 248.798C85.8027 209.398 109.11 73.983 137.862 73.983C166.614 73.983 189.921 209.398 189.921 248.798Z" fill="white"/>
<path d="M109.741 252.339L126.345 258.132L134.57 269.313L133.132 303.546L123.561 297.051L132.834 310.63L130.661 362.347H140.817L139.477 284.613L167.053 269.411L151.289 275.241L154.452 265.753L146.916 276.859L139.392 279.642L138.854 248.482L166.24 212.099L151.563 226.775L154.046 216.57L147.025 231.314L138.702 239.637L137.863 190.955L134.879 261.956L108.928 234.455L123.183 253.833L109.741 252.339Z" fill="#B2B2B2"/>
<path d="M166.502 191.109C166.502 191.109 166.983 195.892 164.369 199.403C161.755 202.914 157.035 203.824 157.035 203.824C157.035 203.824 156.553 199.041 159.168 195.53C161.782 192.019 166.502 191.109 166.502 191.109Z" fill="white"/>
<path d="M182.192 213.154C182.192 213.154 182.673 217.937 180.059 221.448C177.445 224.959 172.725 225.869 172.725 225.869C172.725 225.869 172.243 221.086 174.858 217.575C177.471 214.064 182.192 213.154 182.192 213.154Z" fill="white"/>
<path d="M182.186 256.076C182.186 256.076 181.03 260.742 177.386 263.168C173.743 265.594 168.992 264.862 168.992 264.862C168.992 264.862 170.149 260.196 173.792 257.77C177.435 255.343 182.186 256.076 182.186 256.076Z" fill="white"/>
<path d="M96.0146 256.076C96.0146 256.076 97.1717 260.742 100.815 263.168C104.459 265.594 109.21 264.862 109.21 264.862C109.21 264.862 108.053 260.196 104.41 257.77C100.766 255.343 96.0146 256.076 96.0146 256.076Z" fill="white"/>
<path d="M164.063 238.259C164.063 238.259 164.544 243.042 161.93 246.553C159.316 250.064 154.596 250.974 154.596 250.974C154.596 250.974 154.115 246.191 156.729 242.68C159.343 239.169 164.063 238.259 164.063 238.259Z" fill="white"/>
<path d="M159.999 167.127C159.999 167.127 160.481 171.91 157.866 175.421C155.252 178.932 150.532 179.842 150.532 179.842C150.532 179.842 150.05 175.059 152.665 171.548C155.279 168.037 159.999 167.127 159.999 167.127Z" fill="white"/>
<path d="M150.65 185.418C150.65 185.418 151.131 190.201 148.517 193.712C145.903 197.223 141.183 198.133 141.183 198.133C141.183 198.133 140.702 193.35 143.316 189.839C145.93 186.328 150.65 185.418 150.65 185.418Z" fill="white"/>
<path d="M172.844 172.101C172.844 172.101 173.326 176.884 170.711 180.395C168.097 183.906 163.377 184.816 163.377 184.816C163.377 184.816 162.896 180.033 165.51 176.522C168.124 173.01 172.844 172.101 172.844 172.101Z" fill="white"/>
<path d="M100.723 172.101C100.723 172.101 100.241 176.884 102.856 180.395C105.47 183.906 110.19 184.816 110.19 184.816C110.19 184.816 110.671 180.033 108.057 176.522C105.443 173.01 100.723 172.101 100.723 172.101Z" fill="white"/>
<path d="M162.031 144.771C162.031 144.771 162.512 149.554 159.898 153.065C157.284 156.576 152.564 157.486 152.564 157.486C152.564 157.486 152.083 152.703 154.697 149.192C157.311 145.681 162.031 144.771 162.031 144.771Z" fill="white"/>
<path d="M157.437 121.024C157.437 121.024 159.105 125.532 157.456 129.588C155.808 133.643 151.468 135.71 151.468 135.71C151.468 135.71 149.8 131.202 151.449 127.146C153.097 123.09 157.437 121.024 157.437 121.024Z" fill="white"/>
<path d="M124.516 114.818C124.516 114.818 128.774 117.048 130.267 121.164C131.76 125.279 129.921 129.721 129.921 129.721C129.921 129.721 125.663 127.491 124.17 123.375C122.678 119.26 124.516 114.818 124.516 114.818Z" fill="white"/>
<path d="M139.868 143.216C139.868 143.216 142.901 146.945 142.65 151.315C142.399 155.685 138.958 159.042 138.958 159.042C138.958 159.042 135.925 155.313 136.176 150.943C136.427 146.572 139.868 143.216 139.868 143.216Z" fill="white"/>
<path d="M139.054 100.943C139.054 100.943 142.087 104.672 141.836 109.042C141.585 113.412 138.144 116.769 138.144 116.769C138.144 116.769 135.111 113.04 135.362 108.67C135.613 104.3 139.054 100.943 139.054 100.943Z" fill="white"/>
<path d="M104.601 191.109C104.601 191.109 104.12 195.892 106.734 199.403C109.348 202.914 114.068 203.824 114.068 203.824C114.068 203.824 114.55 199.041 111.935 195.53C109.321 192.019 104.601 191.109 104.601 191.109Z" fill="white"/>
<path d="M95.6579 217.123C95.6579 217.123 95.1769 221.906 97.7909 225.417C100.405 228.928 105.125 229.838 105.125 229.838C105.125 229.838 105.607 225.055 102.992 221.544C100.378 218.033 95.6579 217.123 95.6579 217.123Z" fill="white"/>
<path d="M119.395 226.567C119.395 226.567 118.914 231.35 121.528 234.861C124.142 238.372 128.862 239.282 128.862 239.282C128.862 239.282 129.343 234.499 126.729 230.988C124.116 227.477 119.395 226.567 119.395 226.567Z" fill="white"/>
<path d="M125.884 190.522C125.884 190.522 124.053 194.967 125.553 199.079C127.052 203.192 131.314 205.415 131.314 205.415C131.314 205.415 133.145 200.97 131.646 196.858C130.146 192.745 125.884 190.522 125.884 190.522Z" fill="white"/>
<path d="M109.077 286.437C109.077 286.437 113.883 286.525 117.168 283.632C120.453 280.739 120.973 275.96 120.973 275.96C120.973 275.96 116.167 275.872 112.882 278.766C109.597 281.659 109.077 286.437 109.077 286.437Z" fill="white"/>
<path d="M155.196 281.18C155.196 281.18 156.502 285.806 160.221 288.114C163.94 290.422 168.665 289.538 168.665 289.538C168.665 289.538 167.36 284.912 163.64 282.604C159.921 280.296 155.196 281.18 155.196 281.18Z" fill="white"/>
<path d="M114.438 167.127C114.438 167.127 113.957 171.91 116.571 175.421C119.185 178.932 123.905 179.842 123.905 179.842C123.905 179.842 124.386 175.059 121.772 171.548C119.159 168.037 114.438 167.127 114.438 167.127Z" fill="white"/>
<path d="M114.356 145.991C114.356 145.991 113.874 150.774 116.489 154.285C119.103 157.796 123.823 158.706 123.823 158.706C123.823 158.706 124.305 153.923 121.69 150.412C119.076 146.901 114.356 145.991 114.356 145.991Z" fill="white"/>
<path d="M317.571 234.681C317.571 264.725 299.798 289.081 277.874 289.081C255.95 289.081 238.177 264.725 238.177 234.681C238.177 204.637 255.95 101.377 277.874 101.377C299.798 101.377 317.571 204.637 317.571 234.681Z" fill="#92E3A9"/>
<path opacity="0.3" d="M317.571 234.681C317.571 264.725 299.798 289.081 277.874 289.081C255.95 289.081 238.177 264.725 238.177 234.681C238.177 204.637 255.95 101.377 277.874 101.377C299.798 101.377 317.571 204.637 317.571 234.681Z" fill="white"/>
<path d="M256.43 237.381L269.091 241.798L275.363 250.324L274.267 276.428L266.968 271.476L274.04 281.831L272.383 321.267H280.127L279.105 261.991L300.133 250.399L288.112 254.845L290.524 247.61L284.777 256.078L279.04 258.201L278.63 234.44L299.513 206.696L288.321 217.887L290.214 210.106L284.861 221.348L278.514 227.695L277.874 190.573L275.599 244.714L255.81 223.743L266.68 238.52L256.43 237.381Z" fill="#B2B2B2"/>
<path d="M299.712 190.69C299.712 190.69 300.079 194.337 298.086 197.014C296.093 199.691 292.493 200.385 292.493 200.385C292.493 200.385 292.126 196.738 294.119 194.061C296.113 191.384 299.712 190.69 299.712 190.69Z" fill="white"/>
<path d="M311.676 207.501C311.676 207.501 312.043 211.148 310.05 213.826C308.057 216.503 304.457 217.197 304.457 217.197C304.457 217.197 304.09 213.55 306.083 210.873C308.077 208.194 311.676 207.501 311.676 207.501Z" fill="white"/>
<path d="M311.671 240.23C311.671 240.23 310.789 243.788 308.011 245.638C305.233 247.488 301.61 246.93 301.61 246.93C301.61 246.93 302.492 243.372 305.27 241.522C308.049 239.672 311.671 240.23 311.671 240.23Z" fill="white"/>
<path d="M245.963 240.23C245.963 240.23 246.845 243.788 249.623 245.638C252.402 247.488 256.024 246.93 256.024 246.93C256.024 246.93 255.142 243.372 252.363 241.522C249.586 239.672 245.963 240.23 245.963 240.23Z" fill="white"/>
<path d="M297.853 226.644C297.853 226.644 298.22 230.291 296.227 232.968C294.234 235.645 290.634 236.339 290.634 236.339C290.634 236.339 290.267 232.692 292.26 230.015C294.253 227.338 297.853 226.644 297.853 226.644Z" fill="white"/>
<path d="M294.753 172.403C294.753 172.403 295.12 176.05 293.127 178.727C291.133 181.405 287.534 182.098 287.534 182.098C287.534 182.098 287.167 178.451 289.16 175.774C291.153 173.097 294.753 172.403 294.753 172.403Z" fill="white"/>
<path d="M287.624 186.351C287.624 186.351 287.991 189.998 285.998 192.676C284.004 195.353 280.405 196.047 280.405 196.047C280.405 196.047 280.039 192.4 282.032 189.723C284.026 187.045 287.624 186.351 287.624 186.351Z" fill="white"/>
<path d="M304.548 176.196C304.548 176.196 304.915 179.843 302.922 182.52C300.929 185.197 297.329 185.891 297.329 185.891C297.329 185.891 296.962 182.244 298.955 179.567C300.948 176.889 304.548 176.196 304.548 176.196Z" fill="white"/>
<path d="M249.554 176.196C249.554 176.196 249.187 179.843 251.18 182.52C253.173 185.197 256.773 185.891 256.773 185.891C256.773 185.891 257.14 182.244 255.147 179.567C253.153 176.889 249.554 176.196 249.554 176.196Z" fill="white"/>
<path d="M296.302 155.356C296.302 155.356 296.669 159.003 294.676 161.68C292.683 164.357 289.083 165.051 289.083 165.051C289.083 165.051 288.716 161.404 290.709 158.726C292.703 156.049 296.302 155.356 296.302 155.356Z" fill="white"/>
<path d="M292.799 137.247C292.799 137.247 294.072 140.685 292.815 143.777C291.558 146.869 288.249 148.445 288.249 148.445C288.249 148.445 286.977 145.007 288.234 141.915C289.491 138.823 292.799 137.247 292.799 137.247Z" fill="white"/>
<path d="M267.697 132.515C267.697 132.515 270.944 134.216 272.082 137.354C273.22 140.492 271.818 143.879 271.818 143.879C271.818 143.879 268.571 142.178 267.433 139.04C266.295 135.902 267.697 132.515 267.697 132.515Z" fill="white"/>
<path d="M279.402 154.169C279.402 154.169 281.715 157.013 281.523 160.345C281.331 163.677 278.708 166.237 278.708 166.237C278.708 166.237 276.395 163.393 276.587 160.061C276.778 156.729 279.402 154.169 279.402 154.169Z" fill="white"/>
<path d="M278.782 121.935C278.782 121.935 281.095 124.778 280.903 128.111C280.711 131.444 278.087 134.003 278.087 134.003C278.087 134.003 275.774 131.16 275.966 127.827C276.158 124.494 278.782 121.935 278.782 121.935Z" fill="white"/>
<path d="M252.51 190.69C252.51 190.69 252.143 194.337 254.136 197.014C256.129 199.691 259.729 200.385 259.729 200.385C259.729 200.385 260.096 196.738 258.103 194.061C256.109 191.384 252.51 190.69 252.51 190.69Z" fill="white"/>
<path d="M245.691 210.527C245.691 210.527 245.324 214.174 247.317 216.851C249.311 219.528 252.91 220.222 252.91 220.222C252.91 220.222 253.277 216.575 251.284 213.897C249.29 211.221 245.691 210.527 245.691 210.527Z" fill="white"/>
<path d="M263.791 217.729C263.791 217.729 263.424 221.376 265.417 224.054C267.41 226.731 271.01 227.425 271.01 227.425C271.01 227.425 271.377 223.778 269.384 221.101C267.39 218.423 263.791 217.729 263.791 217.729Z" fill="white"/>
<path d="M268.741 190.242C268.741 190.242 267.345 193.631 268.488 196.767C269.631 199.903 272.881 201.599 272.881 201.599C272.881 201.599 274.277 198.21 273.134 195.074C271.991 191.938 268.741 190.242 268.741 190.242Z" fill="white"/>
<path d="M255.923 263.383C255.923 263.383 259.588 263.45 262.093 261.244C264.598 259.038 264.994 255.394 264.994 255.394C264.994 255.394 261.329 255.327 258.824 257.533C256.32 259.738 255.923 263.383 255.923 263.383Z" fill="white"/>
<path d="M291.091 259.373C291.091 259.373 292.087 262.901 294.923 264.661C297.759 266.421 301.362 265.747 301.362 265.747C301.362 265.747 300.366 262.219 297.53 260.459C294.694 258.699 291.091 259.373 291.091 259.373Z" fill="white"/>
<path d="M260.012 172.403C260.012 172.403 259.645 176.05 261.638 178.727C263.632 181.405 267.231 182.098 267.231 182.098C267.231 182.098 267.598 178.451 265.605 175.774C263.611 173.097 260.012 172.403 260.012 172.403Z" fill="white"/>
<path d="M259.948 156.286C259.948 156.286 259.581 159.933 261.574 162.61C263.568 165.287 267.167 165.981 267.167 165.981C267.167 165.981 267.534 162.334 265.541 159.656C263.547 156.979 259.948 156.286 259.948 156.286Z" fill="white"/>
<path d="M307.043 305.305C178.875 323.06 71.5998 378.566 0.298828 454.719V499.538H750.059V420.773C639.93 329.529 475.652 281.948 307.043 305.305Z" fill="#92E3A9" stroke="#263238" stroke-miterlimit="10"/>
<path d="M197.429 499.538L190.162 477.651L158.765 474.577L138.632 489.429C138.632 489.429 128.46 496.406 123.165 498.995C122.813 499.167 122.387 499.349 121.905 499.539H197.429V499.538Z" fill="white" stroke="#263238" stroke-miterlimit="10"/>
<path d="M199.059 497.501L191.791 475.614L160.394 472.541L140.261 487.393C140.261 487.393 130.089 494.37 124.794 496.959C124.442 497.131 124.016 497.313 123.534 497.503H199.059V497.501Z" fill="white" stroke="#263238" stroke-miterlimit="10"/>
<path d="M129.302 458.014L124.868 474.403L144.3 471.711L169.683 433.862L169.755 419.005L201.339 412.774L206.822 400.879L239.341 393.591L239.203 377.836L262.997 373.612C262.997 373.612 278.463 364.046 281.893 363.571C285.322 363.096 302.373 365.374 302.373 365.374L322.038 373.785L346.043 370.46L364.308 357.723L391.017 355.878C391.017 355.878 398.715 358.523 404.43 357.732C410.146 356.94 425.822 348.273 425.822 348.273L462.748 359.86L478.354 366.05L481.502 379.531L499.067 378.954L502.893 370.074L519.012 373.408L519.548 380.757L486.936 392.698L510.985 409.781L556.333 422.058L577.676 437.66L603.243 435.974L606.86 426.194L615.585 423.13L581.668 409.269L562.96 410.005L576.98 404.351L559.696 390.972L578.918 387.38L606.584 394.683L617.336 415.464L632.638 425.407L649.011 450.048L677.517 460.946L684.443 490.608L713.88 500.449L714.179 503.022H741.549L721.02 485.542L710.152 459.21L731.356 459.056L730.402 449.909L715.331 451.068L726.856 444.832L739.102 436.64L737.004 427.651L719.93 415.169L712.484 396.231C604.339 323.561 457.42 287.957 307.044 308.788C238.686 318.257 176.291 338.487 122.105 366.839L151.891 377.869L139.667 396.264L118.787 402.868L122.168 427.454L113.653 431.417L104.531 442.888L109.452 458.909L129.302 458.014Z" fill="white" stroke="#263238" stroke-miterlimit="10"/>
<path d="M129.302 454.532L124.868 470.921L144.3 468.229L169.683 430.38L169.755 415.523L201.339 409.292L206.822 397.397L239.341 390.109L239.203 374.354L262.997 370.129C262.997 370.129 278.463 360.563 281.893 360.088C285.322 359.613 302.373 361.89 302.373 361.89L322.038 370.301L346.043 366.976L364.308 354.239L391.017 352.394C391.017 352.394 398.715 355.039 404.43 354.248C410.146 353.456 425.822 344.79 425.822 344.79L462.748 356.377L478.354 362.567L481.502 376.048L499.067 375.47L502.893 366.59L519.012 369.924L519.548 377.273L486.936 389.214L510.985 406.297L556.333 418.574L577.676 434.176L603.243 432.49L606.86 422.71L615.585 419.646L581.668 405.785L562.96 406.521L576.98 400.867L559.696 387.488L578.918 383.896L606.584 391.198L617.336 411.979L632.638 421.922L649.011 446.563L677.517 457.461L684.443 487.123L713.88 496.964L714.179 499.537H741.549L721.02 482.057L710.152 455.725L731.356 455.571L730.402 446.424L715.331 447.583L726.856 441.347L739.102 433.155L737.004 424.166L719.93 411.684L712.484 392.746C604.339 320.076 457.42 284.472 307.044 305.303C238.686 314.772 176.291 335.002 122.105 363.354L151.891 374.384L139.667 392.779L118.787 399.383L122.168 423.969L113.653 427.932L104.531 439.403L109.452 455.424L129.302 454.532Z" fill="white" stroke="#263238" stroke-miterlimit="10"/>
<path d="M355.48 498.362L366.352 479.225L386.646 490.333L406.189 499.538H499.527L495.048 484.595L502.911 467.731L486.559 453.294L405.032 437.678L372.094 443.169L368.08 461.355L351.635 451.57L327.538 459.549L332.177 489.527L355.48 498.362Z" fill="white" stroke="#263238" stroke-miterlimit="10"/>
<path d="M355.169 495.869L366.041 476.732L386.335 487.84L405.877 497.045H499.215L494.736 482.102L502.599 465.239L486.248 450.801L404.72 435.185L371.782 440.676L367.769 458.863L351.323 449.078L327.226 457.056L331.866 487.034L355.169 495.869Z" fill="white" stroke="#263238" stroke-miterlimit="10"/>
<path d="M552.901 464.518L534.916 463.298L522.365 475.244L536.453 500.201L551.313 498.143L552.901 464.518Z" fill="white" stroke="#263238" stroke-miterlimit="10"/>
<path d="M552.901 461.714L534.916 460.494L522.365 472.44L536.453 497.397L551.313 495.338L552.901 461.714Z" fill="white" stroke="#263238" stroke-miterlimit="10"/>
<path d="M663.192 466.87L620.551 456.074L610.031 446.397L601.516 450.361L613.716 467.228L626.03 489.648L644.435 492.665L647.024 488.596L633.59 476.538L665.407 481.41L663.192 466.87Z" fill="white" stroke="#263238" stroke-miterlimit="10"/>
<path d="M663.192 464.689L620.551 453.893L610.031 444.216L601.516 448.18L613.716 465.047L626.03 487.467L644.435 490.484L647.024 486.415L633.59 474.357L665.407 479.229L663.192 464.689Z" fill="white" stroke="#263238" stroke-miterlimit="10"/>
<path d="M477.956 299.88C477.956 299.88 475.151 310.433 474.884 311.101C474.617 311.769 466.068 318.982 465.266 319.65C464.465 320.318 463.262 323.257 464.598 324.86C465.934 326.463 471.143 326.596 475.151 326.73C479.158 326.864 484.902 324.726 486.639 324.192C488.376 323.658 490.914 323.925 492.249 321.921C493.585 319.917 493.718 317.246 493.585 315.509C493.451 313.773 493.051 310.567 493.318 309.498C493.585 308.429 494.387 302.552 494.387 302.552C494.387 302.552 482.498 296.407 477.956 299.88Z" fill="#263238" stroke="#263238" stroke-miterlimit="10"/>
<path d="M486.64 324.191C488.377 323.657 490.915 323.924 492.25 321.92C492.894 320.953 493.255 319.831 493.444 318.734C490.756 319.062 486.315 321.277 483.033 322.722C479.693 324.191 477.022 322.856 472.213 322.856C468.137 322.856 464.934 322.473 464.05 322.356C463.924 323.247 464.029 324.175 464.599 324.86C465.935 326.463 471.144 326.597 475.152 326.73C479.159 326.863 484.903 324.726 486.64 324.191Z" fill="white" stroke="#263238" stroke-miterlimit="10"/>
<path d="M499.997 194.486L487.975 252.326L478.357 295.205C478.357 295.205 476.487 296.808 476.888 297.476C477.289 298.144 477.957 299.881 477.957 299.881C477.957 299.881 483.3 300.282 483.968 300.415C484.636 300.548 489.712 303.22 491.048 304.155C492.384 305.09 495.59 303.888 496.124 302.819C496.658 301.75 495.59 297.342 495.59 297.342L495.857 291.999L506.143 253.795L524.978 212.118L528.985 212.786L539.805 252.726L564.517 252.325L555.033 196.355L501.334 189.142L499.997 194.486Z" fill="#263238" stroke="#263238" stroke-miterlimit="10"/>
<path d="M543.21 112.819C543.21 112.819 517.778 111.466 513.72 113.225C509.662 114.984 485.583 131.758 484.23 133.651C482.877 135.545 481.525 138.25 481.93 140.144C482.336 142.038 484.23 148.125 484.23 148.125L496.405 144.608L495.864 140.414C495.864 140.414 498.164 141.902 499.652 141.361C501.14 140.82 514.803 136.356 514.803 136.356L508.986 168.145L498.164 191.412C498.164 191.412 497.758 195.47 501.14 200.07C504.522 204.669 511.691 209.539 511.691 209.539L520.619 201.017L523.866 214.003C523.866 214.003 539.287 212.515 545.645 208.321C552.003 204.128 556.873 197.905 556.873 197.905L552.815 177.884L560.255 162.598L561.473 185.459L559.309 206.832L571.213 208.591C571.213 208.591 575.948 189.653 576.353 186.812C576.759 183.971 580.411 152.723 578.653 145.554C576.895 138.384 572.971 133.244 569.454 130.268C565.937 127.292 565.937 127.292 565.937 127.292L543.21 112.819Z" fill="#92E3A9" stroke="#263238" stroke-miterlimit="10"/>
<path d="M550.314 178.058C550.314 178.058 539.072 186.33 524.649 188.027" stroke="#263238" stroke-miterlimit="10"/>
<path d="M546.497 176.573C546.497 176.573 543.74 179.33 532.074 181.664" stroke="#263238" stroke-miterlimit="10"/>
<path d="M546.457 112.819C546.457 112.819 544.022 111.737 541.993 113.36C539.964 114.983 533.2 131.487 533.2 131.487L539.558 132.163L538.205 136.221L543.616 144.608L557.143 140.414L557.955 137.303C557.955 137.303 563.095 142.985 563.636 142.038C564.177 141.091 564.448 128.24 564.448 128.24C564.448 128.24 566.883 124.182 562.689 118.365C558.496 112.549 546.457 112.819 546.457 112.819Z" stroke="#263238" stroke-miterlimit="10"/>
<path d="M547.261 109.909C547.261 109.909 546.183 107.033 545.032 109.192C543.881 111.351 544.6 114.804 544.6 114.804C544.6 114.804 542.154 117.25 540.859 122.431C539.564 127.611 543.881 136.965 544.312 137.828C544.744 138.691 544.744 143.152 544.744 143.152L553.666 135.525C553.666 135.525 555.537 136.676 558.127 135.093C560.717 133.51 565.034 130.632 567.192 127.466C569.351 124.3 574.387 115.666 574.387 115.666L555.105 106.025L547.261 109.909Z" fill="#B97A5B" stroke="#263238" stroke-miterlimit="10"/>
<path d="M547.261 109.909L549.06 113.327C549.06 113.327 547.621 116.745 548.34 116.925C549.06 117.105 550.858 115.126 550.858 115.126C550.858 115.126 552.477 115.126 553.017 114.406C553.557 113.686 554.456 111.887 554.456 111.887C554.456 111.887 560.572 112.427 562.371 113.326C564.17 114.226 566.868 117.104 570.286 117.464C573.704 117.824 576.582 117.464 578.021 114.586C579.46 111.708 578.741 107.75 578.741 107.75C578.741 107.75 578.021 100.554 575.323 98.396C572.625 96.237 571.365 96.957 571.365 96.957C571.365 96.957 565.968 92.28 563.63 92.46C561.291 92.64 560.572 94.619 560.572 94.619C560.572 94.619 558.953 94.079 554.815 95.518C550.677 96.957 549.418 101.994 549.238 103.793C549.06 105.592 547.261 109.909 547.261 109.909Z" fill="#263238" stroke="#263238" stroke-miterlimit="10"/>
<path d="M553.666 121.711C554.33 120.24 558.81 122.661 560.861 125.021" stroke="#263238" stroke-miterlimit="10"/>
<path d="M564.026 125.164C564.026 125.164 567.336 124.445 568.919 124.876" stroke="#263238" stroke-miterlimit="10"/>
<path d="M555.249 124.013C555.249 124.013 555.968 126.172 558.415 125.596" stroke="#263238" stroke-miterlimit="10"/>
<path d="M557.551 129.769C558.127 130.92 560.717 132.647 561.724 131.64C562.731 130.633 563.019 126.891 563.019 126.891" stroke="#263238" stroke-miterlimit="10"/>
<path d="M553.233 128.042C553.233 128.042 553.665 132.215 558.269 131.639" stroke="#263238" stroke-miterlimit="10"/>
<path d="M564.314 126.172C564.314 126.172 565.034 128.187 567.336 126.46" stroke="#263238" stroke-miterlimit="10"/>
<path d="M545.319 115.955L546.47 116.818C546.47 116.818 546.038 120.559 546.038 123.006C546.038 125.452 548.916 130.92 549.779 132.791C550.642 134.662 553.664 135.525 553.664 135.525" stroke="#263238" stroke-miterlimit="10"/>
<path d="M549.781 132.791L546.759 134.518" stroke="#263238" stroke-miterlimit="10"/>
<path d="M514.803 136.357C514.803 136.357 517.644 130.946 517.644 125.535" stroke="#263238" stroke-miterlimit="10"/>
<path d="M559.984 163.817C559.984 163.817 564.177 158.135 565.124 152.048" stroke="#263238" stroke-miterlimit="10"/>
<path d="M496.405 144.609L502.628 158.813C502.628 158.813 507.633 162.195 508.039 162.601C508.445 163.007 509.798 166.253 509.392 167.2C508.986 168.147 507.633 163.953 506.686 164.495C505.739 165.036 504.927 166.524 505.063 167.336C505.198 168.148 509.258 175.858 508.852 176.129C508.446 176.399 507.634 176.805 506.551 176.535C505.469 176.265 505.469 175.994 504.792 175.994C504.116 175.994 501.681 175.994 500.598 175.723C499.516 175.452 497.351 172.612 496.81 171.665C496.269 170.718 495.457 162.602 495.457 162.602L484.229 148.128C484.231 148.126 490.724 142.579 496.405 144.609Z" fill="#B97A5B" stroke="#263238" stroke-miterlimit="10"/>
<path d="M501.14 167.876C501.14 167.876 503.845 172.611 504.251 173.693C504.657 174.775 504.792 175.993 504.792 175.993" stroke="#263238" stroke-miterlimit="10"/>
<path d="M498.434 170.446C498.434 170.446 500.598 174.098 502.898 175.586" stroke="#263238" stroke-miterlimit="10"/>
<path d="M515.677 182.356L513.48 183.373L541.508 243.882L543.705 242.865L515.677 182.356Z" fill="white" stroke="#263238" stroke-miterlimit="10"/>
<path d="M512.742 183.72L504.683 167.05C504.193 166.036 504.629 164.816 505.651 164.342C506.65 163.879 507.835 164.303 508.314 165.294L516.402 182.024L512.742 183.72Z" fill="#263238" stroke="#263238" stroke-miterlimit="10"/>
<path d="M557.035 235.495C557.035 235.495 542.475 244.311 537.265 249.922C532.055 255.532 516.56 273.298 513.888 276.104C511.217 278.909 506.274 285.722 504.805 287.057C503.336 288.393 501.198 288.259 501.866 291.465C502.534 294.671 502.935 294.938 502.935 295.74C502.935 296.541 502.801 299.213 502.801 299.213C502.801 299.213 496.523 305.758 495.721 307.628C494.92 309.498 495.721 313.238 496.656 315.242C497.591 317.246 499.461 318.581 499.461 318.982C499.461 319.383 497.858 324.86 497.457 326.329C497.056 327.798 498.258 331.272 498.258 331.272C498.258 331.272 495.186 335.814 497.323 337.951C499.46 340.088 503.334 340.489 504.002 339.955C504.67 339.421 550.755 337.551 554.361 336.081C557.968 334.612 561.174 333.142 563.845 329.936C566.517 326.73 568.921 325.127 568.921 325.127C568.921 325.127 571.325 322.856 571.325 320.585C571.325 318.314 571.058 317.78 571.192 317.112C571.325 316.444 572.394 315.108 572.394 315.108L573.329 311.635C573.329 311.635 572.528 312.436 573.997 304.689C575.466 296.941 575.734 294.938 575.734 294.938L575.467 289.996L574.933 284.92C574.933 284.92 570.391 262.345 567.987 256.468C565.583 250.59 564.247 246.717 563.98 245.915C563.713 245.114 563.579 241.106 563.579 241.106C563.579 241.106 565.984 236.965 565.583 236.03C565.184 235.094 558.237 233.624 557.035 235.495Z" fill="#9C9C9C" stroke="#263238" stroke-miterlimit="10"/>
<path d="M559.308 206.834L558.466 220.998C558.466 220.998 555.609 230.44 555.857 232.179C556.106 233.918 558.963 238.391 558.963 238.391C558.963 238.391 559.833 240.752 560.578 239.882C561.323 239.012 561.945 238.515 561.572 237.025C561.199 235.534 561.199 235.534 561.199 235.534C561.199 235.534 563.808 236.279 563.932 237.398C564.056 238.516 563.311 241.746 564.181 241.995C565.051 242.243 567.908 236.404 568.156 235.659C568.405 234.914 566.168 231.683 565.671 230.565C565.174 229.447 563.186 226.962 563.186 226.217C563.186 225.472 571.211 208.594 571.211 208.594L559.308 206.834Z" fill="#B97A5B" stroke="#263238" stroke-miterlimit="10"/>
<path d="M561.199 235.533L559.459 231.558" stroke="#263238" stroke-miterlimit="10"/>
<path d="M550.758 252.059C550.758 252.059 549.555 256.066 549.555 256.734C549.555 257.402 548.753 260.608 548.753 260.608L547.951 262.077C547.951 262.077 545.146 264.348 545.146 265.684C545.146 267.02 545.815 270.092 545.815 270.092C545.815 270.092 552.894 272.096 553.829 272.096C554.764 272.096 555.833 270.76 555.833 270.76C555.833 270.76 556.634 272.229 557.57 272.229C558.505 272.229 559.707 271.695 559.841 272.229C559.975 272.763 560.375 273.832 560.375 273.832C560.375 273.832 562.112 271.427 562.646 270.225C563.18 269.023 564.383 269.557 563.448 267.286C562.513 265.015 561.845 264.481 561.444 264.08C561.043 263.679 562.246 263.946 561.044 263.679C559.842 263.412 559.306 263.145 558.371 262.744C557.436 262.343 556.1 261.542 556.1 261.542L555.566 259.405C555.566 259.405 555.967 257.268 555.967 256.733C555.967 256.198 555.566 255.13 555.566 255.13L554.23 254.195L550.758 252.059Z" fill="white" stroke="#263238" stroke-miterlimit="10"/>
<path d="M554.231 255.665C554.231 255.665 552.628 261.275 552.361 261.81C552.094 262.344 555.701 266.485 556.101 266.485C556.502 266.485 559.708 265.55 560.242 265.951C560.776 266.352 561.845 268.222 561.845 268.623" stroke="#263238" stroke-miterlimit="10"/>
<path d="M553.028 267.42C552.36 266.886 550.891 266.752 549.421 264.615C547.952 262.478 547.417 260.608 547.551 259.138C547.685 257.669 547.685 257.669 547.685 257.669L550.357 255.799C550.357 255.799 550.491 255.799 550.223 254.463C549.956 253.127 549.369 253.197 549.369 253.197L544.429 242.533L540.768 244.229L545.708 254.893C545.708 254.893 544.479 259.539 545.547 263.012C546.616 266.485 551.024 268.89 551.825 268.89C552.627 268.889 553.696 267.954 553.028 267.42Z" fill="#263238" stroke="#263238" stroke-miterlimit="10"/>
<path d="M557.692 239.213L551.454 248.485" stroke="#263238" stroke-miterlimit="10"/>
<path d="M558.704 242.753L558.029 256.24" stroke="#263238" stroke-miterlimit="10"/>
<path d="M529.834 301.579C532.813 302.485 535.809 303.646 538.642 305.13" stroke="#263238" stroke-miterlimit="10"/>
<path d="M506.273 298.387C506.273 298.387 514.776 298.072 524.68 300.24" stroke="#263238" stroke-miterlimit="10"/>
<path d="M530.044 298.892C530.044 298.892 544.374 303.613 551.455 309.682" stroke="#263238" stroke-miterlimit="10"/>
<path d="M499.361 317.1C499.361 317.1 501.553 311.537 506.442 307.828" stroke="#263238" stroke-miterlimit="10"/>
<path d="M508.296 304.119C508.296 304.119 503.744 306.985 502.058 309.345" stroke="#263238" stroke-miterlimit="10"/>
<path d="M519.805 277.266C518.74 278.401 517.807 279.393 517.062 280.18" stroke="#263238" stroke-miterlimit="10"/>
<path d="M540.833 254.723C540.833 254.723 530.027 266.345 522.446 274.446" stroke="#263238" stroke-miterlimit="10"/>
<path d="M572.412 294.14C572.441 298.406 571.686 302.433 571.686 302.433" stroke="#263238" stroke-miterlimit="10"/>
<path d="M563.761 258.432C563.761 258.432 570.505 283.551 571.853 288.946C571.927 289.241 571.992 289.544 572.049 289.853" stroke="#263238" stroke-miterlimit="10"/>
<path d="M557.24 284.893C560.006 285.488 560.895 286.585 560.895 286.585" stroke="#263238" stroke-miterlimit="10"/>
<path d="M521.277 285.743C521.277 285.743 535.101 287.429 546.565 285.237C549.031 284.766 551.099 284.559 552.827 284.526" stroke="#263238" stroke-miterlimit="10"/>
<path d="M549.768 281.359C549.768 281.359 540.327 282.371 536.787 283.045" stroke="#263238" stroke-miterlimit="10"/>
<path d="M273.946 230.293C273.946 230.293 266.169 237.889 267.073 240.964C267.977 244.039 285.702 266.646 285.702 266.646C285.702 266.646 288.234 271.529 289.862 274.061C291.49 276.593 295.469 279.306 296.735 278.763C298.001 278.22 303.246 273.337 303.969 272.252C304.693 271.167 300.352 268.092 298.362 267.007C296.372 265.922 289.861 262.305 288.053 257.783C286.244 253.261 280.638 242.952 280.638 242.952L283.894 232.462L273.946 230.293Z" fill="#B97A5B" stroke="#263238" stroke-miterlimit="10"/>
<path d="M296.735 278.764C298.001 278.221 303.246 273.338 303.969 272.253C304.693 271.168 300.352 268.093 298.362 267.008C296.71 266.107 291.947 263.456 289.341 259.995L284.466 265.062C285.239 266.056 285.702 266.647 285.702 266.647C285.702 266.647 288.234 271.53 289.862 274.062C291.49 276.594 295.469 279.307 296.735 278.764Z" fill="#92E3A9" stroke="#263238" stroke-miterlimit="10"/>
<path d="M297.82 270.626C297.82 270.626 293.298 276.233 293.118 278.222C292.937 280.212 291.852 288.169 291.852 288.169C291.852 288.169 284.075 298.84 284.075 301.553C284.075 304.266 291.129 310.596 295.831 314.213C300.533 317.83 320.79 321.267 323.684 321.267C326.578 321.267 347.739 319.639 349.366 317.65C350.994 315.66 351.356 310.054 349.366 305.171C347.376 300.288 334.173 289.074 333.088 287.989C332.003 286.904 329.109 275.871 326.215 273.339C323.321 270.807 310.661 270.264 308.671 270.445C306.682 270.626 299.448 270.445 297.82 270.626Z" fill="#9C9C9C" stroke="#263238" stroke-miterlimit="10"/>
<path d="M333.856 314.266C341.006 317.529 343.472 318.71 345.201 316.734C347.231 314.414 347.086 312.24 347.086 312.24" stroke="#263238" stroke-miterlimit="10"/>
<path d="M297.793 273.239C297.793 273.239 295.038 282.083 296.198 288.172C297.358 294.261 319.25 307.744 329.689 312.384C330.012 312.527 330.328 312.669 330.637 312.807" stroke="#263238" stroke-miterlimit="10"/>
<path d="M328.406 293.841C330.255 296.324 331.718 298.175 331.718 298.175" stroke="#263238" stroke-miterlimit="10"/>
<path d="M308.957 273.239C308.957 273.239 320.41 282.083 323.6 287.012C324.607 288.568 325.787 290.254 326.931 291.833" stroke="#263238" stroke-miterlimit="10"/>
<path d="M305.768 273.674C305.768 273.674 310.987 280.778 312.872 286.867" stroke="#263238" stroke-miterlimit="10"/>
<path d="M292.429 289.187C292.429 289.187 290.979 294.841 296.199 297.886" stroke="#263238" stroke-miterlimit="10"/>
<path d="M294.564 266.466L300.171 265.742C300.171 265.742 304.15 269.54 305.054 269.902C305.958 270.264 307.224 271.892 305.958 272.434C304.692 272.977 300.352 270.083 300.352 270.083C300.352 270.083 297.819 270.987 296.191 270.807C294.563 270.626 294.563 270.626 294.563 270.626" fill="#92E3A9"/>
<path d="M294.564 266.466L300.171 265.742C300.171 265.742 304.15 269.54 305.054 269.902C305.958 270.264 307.224 271.892 305.958 272.434C304.692 272.977 300.352 270.083 300.352 270.083C300.352 270.083 297.819 270.987 296.191 270.807C294.563 270.626 294.563 270.626 294.563 270.626" stroke="#263238" stroke-miterlimit="10"/>
<path d="M302.702 202.285C302.702 202.285 292.895 197.67 276.02 191.18C259.146 184.69 246.309 182.815 232.031 186.276C217.753 189.737 207.368 197.526 207.945 211.227C208.522 224.929 223.089 263.004 222.079 265.456C221.069 267.908 211.695 276.417 208.954 285.792C206.214 295.167 202.608 317.955 202.175 319.685C201.742 321.416 198.714 320.55 198.425 325.166C198.137 329.781 196.983 334.685 196.983 335.983C196.983 337.281 205.925 338.291 212.992 339.012C220.059 339.733 226.405 339.589 228.424 337.858C230.443 336.127 230.299 334.397 229.001 333.82C227.703 333.243 224.386 331.08 221.934 327.763C219.482 324.446 216.021 322.427 215.588 320.263C215.155 318.1 216.598 312.331 216.598 312.331C216.598 312.331 224.819 291.274 228.713 284.928C232.607 278.582 239.53 274.255 240.684 267.332C241.838 260.409 241.549 250.746 241.549 250.746C241.549 250.746 248.905 266.899 249.481 269.928C250.058 272.957 245.443 277.284 247.462 288.966C249.481 300.648 252.221 319.831 252.51 320.696C252.798 321.561 250.779 321.273 250.923 324.013C251.067 326.753 250.058 334.83 250.779 335.263C251.5 335.696 259.288 336.128 262.317 335.407C265.346 334.686 272.269 333.821 274.432 334.397C276.595 334.973 283.807 335.262 285.537 333.964C287.268 332.666 287.268 328.772 286.691 328.772C286.114 328.772 282.508 327.762 278.759 325.455C275.009 323.147 267.654 321.273 266.355 319.542C265.057 317.811 264.624 316.946 264.624 316.225C264.624 315.504 265.345 296.466 264.768 291.562C264.191 286.658 265.345 273.245 265.345 269.784C265.345 266.323 267.22 262.717 266.066 256.515C264.912 250.313 260.153 233.439 258.999 229.833C257.845 226.227 255.97 221.035 255.97 221.035C255.97 221.035 260.441 226.948 266.643 229.977C272.845 233.006 278.037 233.727 278.037 233.727L291.017 244.111L294.19 234.592L294.767 230.986C294.767 230.986 296.786 229.255 298.373 227.38C299.96 225.505 302.123 223.774 303.421 221.322C304.721 218.871 302.702 202.285 302.702 202.285Z" fill="#B97A5B" stroke="#263238" stroke-miterlimit="10"/>
<path d="M264.77 291.561C264.193 286.657 265.347 273.244 265.347 269.783C265.347 266.322 267.222 262.716 266.068 256.514C264.914 250.312 260.155 233.438 259.001 229.832C257.847 226.226 255.972 221.034 255.972 221.034C255.972 221.034 258.011 223.725 261.239 226.406L258.073 215.854C258.073 215.854 244.248 214.807 237.335 209.151C232.377 205.094 227.743 194.143 225.518 188.273C214.715 192.377 207.458 199.714 207.943 211.228C208.52 224.93 223.087 263.005 222.077 265.457C221.067 267.909 211.693 276.418 208.952 285.793C206.958 292.615 204.507 306.534 203.152 314.279C205.107 316.366 209.133 319.27 215.597 317.776C215.857 315.299 216.596 312.331 216.596 312.331C216.596 312.331 224.817 291.274 228.711 284.928C232.605 278.582 239.528 274.255 240.682 267.332C241.836 260.409 241.547 250.746 241.547 250.746C241.547 250.746 248.903 266.899 249.479 269.928C250.056 272.957 245.441 277.284 247.46 288.966C248.835 296.919 250.543 308.343 251.585 315.102C256.042 315.815 260.957 315.733 264.709 313.361C264.884 307.704 265.219 295.37 264.77 291.561Z" fill="#263238" stroke="#263238" stroke-miterlimit="10"/>
<path d="M276.021 191.179C259.147 184.689 246.31 182.814 232.032 186.275C225.307 187.905 219.448 190.496 215.189 194.212C214.415 197.111 214.998 201.257 220.35 206.323C231.167 216.563 236.215 220.601 244.292 220.601C252.369 220.601 254.821 219.303 254.821 219.303C254.821 219.303 255.7 221.138 256.8 223.351C256.318 221.985 255.975 221.034 255.975 221.034C255.975 221.034 260.446 226.947 266.648 229.976C272.85 233.005 278.042 233.726 278.042 233.726L291.022 244.11L294.195 234.591L294.772 230.985C294.772 230.985 296.791 229.254 298.378 227.379C299.965 225.504 302.128 223.773 303.426 221.321C304.724 218.869 302.705 202.283 302.705 202.283C302.705 202.283 292.896 197.669 276.021 191.179Z" fill="#92E3A9" stroke="#263238" stroke-miterlimit="10"/>
<path d="M309.192 203.871C309.192 203.871 312.942 198.102 322.605 197.525C332.268 196.948 338.758 199.112 343.23 210.505C347.701 221.899 344.961 229.11 344.961 232.86C344.961 236.61 346.692 246.706 344.817 249.879C342.942 253.052 340.058 254.062 339.913 255.792C339.769 257.523 341.211 258.244 341.211 258.244C341.211 258.244 339.48 259.686 335.153 256.802C330.826 253.918 331.115 250.312 330.971 248.293C330.827 246.274 328.952 249.591 324.913 247.572C320.875 245.553 321.884 241.37 322.029 240.072C322.173 238.774 320.442 238.918 318.135 238.197C315.827 237.476 314.529 231.995 315.25 229.255C315.971 226.515 314.385 223.053 311.644 223.053C308.904 223.053 307.317 219.159 307.317 214.111C307.317 209.063 309.192 203.871 309.192 203.871Z" fill="#263238" stroke="#263238" stroke-miterlimit="10"/>
<path d="M337.606 225.073C337.606 225.073 336.885 227.525 333.856 229.111C330.827 230.698 328.664 230.698 327.51 232.14C326.356 233.582 326.5 235.746 325.635 236.034C324.77 236.322 322.462 235.024 322.462 235.024C322.462 235.024 320.01 235.457 316.549 235.889C313.088 236.322 311.501 235.456 311.213 233.581C310.924 231.706 310.924 224.495 311.646 223.052C312.367 221.61 313.232 220.456 313.232 220.456C313.232 220.456 311.934 216.706 314.386 214.831C316.838 212.956 318.28 213.677 318.857 215.264C319.434 216.851 318.713 219.014 318.713 219.014L323.328 217.716C323.328 217.716 326.357 221.033 329.241 222.187C332.126 223.341 336.885 222.475 336.885 222.475L337.606 225.073Z" fill="#B97A5B" stroke="#263238" stroke-miterlimit="10"/>
<path d="M319.145 234.015C319.145 234.015 319.289 232.284 320.155 231.275" stroke="#263238" stroke-miterlimit="10"/>
<path d="M327.943 229.111L325.058 229.399C325.058 229.399 323.039 228.245 324.337 226.226" stroke="#263238" stroke-miterlimit="10"/>
<path d="M327.222 225.505C327.222 225.505 329.962 226.659 329.385 229.255" stroke="#263238" stroke-miterlimit="10"/>
<path d="M316.259 203.439C316.259 203.439 311.355 203.006 309.192 203.872C307.029 204.737 302.702 202.285 302.702 202.285C302.702 202.285 300.25 201.997 299.673 207.333C299.096 212.669 301.548 216.275 301.548 216.275C301.548 216.275 298.087 213.967 298.375 217.429C298.663 220.89 301.692 225.217 302.558 226.227C303.423 227.237 300.827 225.939 301.548 228.535C302.269 231.131 307.461 234.016 309.769 234.448C312.077 234.881 312.365 233.583 312.509 228.246C312.653 222.91 313.23 220.458 313.23 220.458C313.23 220.458 311.644 213.968 313.807 211.083C315.97 208.199 319.72 207.333 320.009 204.449" fill="#263238"/>
<path d="M316.259 203.439C316.259 203.439 311.355 203.006 309.192 203.872C307.029 204.737 302.702 202.285 302.702 202.285C302.702 202.285 300.25 201.997 299.673 207.333C299.096 212.669 301.548 216.275 301.548 216.275C301.548 216.275 298.087 213.967 298.375 217.429C298.663 220.89 301.692 225.217 302.558 226.227C303.423 227.237 300.827 225.939 301.548 228.535C302.269 231.131 307.461 234.016 309.769 234.448C312.077 234.881 312.365 233.583 312.509 228.246C312.653 222.91 313.23 220.458 313.23 220.458C313.23 220.458 311.644 213.968 313.807 211.083C315.97 208.199 319.72 207.333 320.009 204.449" stroke="#263238" stroke-miterlimit="10"/>
<path d="M239.242 199.184C239.242 199.184 247.319 211.443 252.511 216.203" stroke="#263238" stroke-miterlimit="10"/>
<path d="M246.599 198.751C246.599 198.751 248.186 206.972 251.214 212.308" stroke="#263238" stroke-miterlimit="10"/>
<path d="M225.686 204.52C225.686 204.52 237.945 215.193 248.33 215.77" stroke="#263238" stroke-miterlimit="10"/>
<path d="M275.155 221.395L278.328 231.635" stroke="#263238" stroke-miterlimit="10"/>
<path d="M228.425 337.858C230.444 336.127 230.3 334.397 229.002 333.82C227.704 333.243 224.387 331.08 221.935 327.763C219.483 324.446 216.022 322.426 215.589 320.263C215.567 320.152 215.553 320.026 215.54 319.898C214.226 319.772 211.925 319.677 210.59 320.344C208.644 321.317 208.86 323.804 206.482 323.804C204.104 323.804 203.455 323.155 203.347 322.182C203.239 321.209 202.158 320.452 202.158 320.452L201.853 320.28C200.946 321.28 198.675 321.198 198.427 325.167C198.139 329.782 196.985 334.686 196.985 335.984C196.985 337.282 205.927 338.292 212.994 339.013C220.06 339.733 226.406 339.589 228.425 337.858Z" fill="white" stroke="#263238" stroke-miterlimit="10"/>
<path d="M286.693 328.772C286.116 328.772 282.51 327.763 278.761 325.455C275.086 323.194 267.965 321.348 266.458 319.647C265.437 320.311 263.611 321.643 261.513 322.398C258.81 323.371 254.918 323.479 254.377 322.398C253.836 321.317 252.511 320.696 252.511 320.696C252.799 321.561 250.78 321.273 250.924 324.013C251.068 326.753 250.059 334.83 250.78 335.263C251.501 335.696 259.289 336.128 262.318 335.407C265.347 334.686 272.27 333.821 274.433 334.397C276.596 334.973 283.808 335.262 285.538 333.964C287.27 332.666 287.27 328.772 286.693 328.772Z" fill="white" stroke="#263238" stroke-miterlimit="10"/>
<path d="M279.049 230.048C279.049 230.048 277.03 252.115 278.472 264.518C279.914 276.922 282.366 310.815 282.366 310.815L289.722 309.661L288.712 262.931L291.452 243.028L279.049 230.048Z" fill="#B97A5B" stroke="#263238" stroke-miterlimit="10"/>
<path d="M296.053 323.112C296.053 323.112 301.852 324.272 303.157 323.982C304.462 323.692 308.956 322.967 309.536 322.822C310.116 322.677 316.205 320.647 317.945 322.677C319.685 324.707 319.975 329.201 317.655 331.376C315.335 333.551 310.841 333.986 306.781 333.406C302.722 332.826 301.113 332.475 298.662 332.246C296.211 332.017 297.549 330.634 294.336 331.44C291.123 332.246 284.889 332.101 281.989 331.811C279.089 331.521 275.61 329.636 276.335 324.562C277.06 319.488 280.431 318.869 281.5 319.613C282.57 320.358 296.053 323.112 296.053 323.112Z" fill="white" stroke="#263238" stroke-miterlimit="10"/>
<path d="M318.815 324.272C318.815 324.272 324.179 324.127 324.324 324.852C324.469 325.577 324.324 327.752 324.034 328.331C323.744 328.911 319.395 329.056 319.395 329.056L318.815 324.272Z" fill="#92E3A9" stroke="#263238" stroke-miterlimit="10"/>
<path d="M289.577 306.777L280.923 309.229C280.923 309.229 280.49 318.027 281.5 319.613C282.51 321.199 283.663 325.094 283.663 325.094C283.663 325.094 283.807 330.142 284.384 331.44C284.961 332.738 287.515 332.33 288.855 332.882C290.464 333.545 292.89 328.926 293.273 327.41C293.472 326.619 294.48 330.575 294.336 331.44C294.192 332.305 295.49 333.315 296.211 332.017C296.932 330.719 297.221 326.536 296.355 324.517C295.49 322.498 291.307 313.267 291.019 312.258C290.731 311.248 289.577 306.777 289.577 306.777Z" fill="#92E3A9" stroke="#263238" stroke-miterlimit="10"/>
<path d="M289.789 327.484C289.789 327.484 289.641 330.303 289.344 331.044C289.047 331.786 288.009 332.75 288.009 332.75" stroke="#263238" stroke-miterlimit="10"/>
<path d="M286.895 326.965C286.895 326.965 286.747 329.858 286.598 330.674C286.45 331.49 285.856 332.528 285.856 332.528" stroke="#263238" stroke-miterlimit="10"/>
<path d="M429.412 315.787H371.237L366.104 212.089H434.546L429.412 315.787Z" fill="#92E3A9" stroke="#263238" stroke-miterlimit="10"/>
<path d="M438.001 209.669H362.647V214.508H438.001V209.669Z" fill="#92E3A9" stroke="#263238" stroke-miterlimit="10"/>
<path d="M428.834 262.038C425.624 267.221 422.416 272.404 419.203 277.586C418.268 279.094 416.902 279.792 415.132 279.774C413.069 279.753 411.006 279.769 408.746 279.769C408.746 281.291 408.746 282.837 408.746 284.383C408.641 284.406 408.536 284.429 408.431 284.451C407.874 283.495 407.311 282.542 406.76 281.581C405.331 279.087 403.892 276.598 402.501 274.083C402.322 273.759 402.233 273.2 402.391 272.901C404.365 269.145 406.392 265.417 408.554 261.407C408.554 263.448 408.554 265.192 408.554 267.052C411.637 267.052 414.635 267.052 417.8 267.052C415.391 262.842 413.029 258.715 410.611 254.489C414.48 252.249 418.288 250.044 422.297 247.724C424.495 251.718 426.665 255.66 428.834 259.603C428.834 260.414 428.834 261.226 428.834 262.038Z" fill="white"/>
<path d="M394.256 231.116C394.768 231.193 395.278 231.331 395.792 231.34C400.336 231.415 404.88 231.486 409.424 231.516C411.384 231.529 412.831 232.258 413.782 234.042C414.732 235.823 415.818 237.532 416.893 239.355C418.303 238.553 419.653 237.785 421.002 237.017C421.056 237.063 421.109 237.109 421.163 237.155C420.141 239.018 419.119 240.881 418.095 242.744C417.197 244.377 416.316 246.02 415.382 247.633C415.206 247.938 414.83 248.313 414.528 248.33C410.284 248.576 406.036 248.765 401.696 248.727C403.196 247.845 404.695 246.963 406.27 246.037C404.719 243.391 403.207 240.812 401.568 238.015C399.142 242.38 396.797 246.6 394.444 250.836C390.515 248.666 386.655 246.535 382.684 244.342C383.278 243.26 383.835 242.24 384.397 241.223C385.454 239.308 386.597 237.435 387.55 235.469C388.576 233.355 390.072 231.857 392.309 231.117C392.957 231.116 393.607 231.116 394.256 231.116Z" fill="white"/>
<path d="M377.818 252.555C376.377 251.684 375.045 250.879 373.713 250.074C373.726 250.003 373.74 249.933 373.753 249.862C375.269 249.862 376.784 249.862 378.3 249.862C380.368 249.862 382.444 249.977 384.501 249.824C386.035 249.71 386.893 250.211 387.657 251.551C389.54 254.852 391.603 258.05 393.467 261.459C391.94 260.541 390.412 259.622 388.783 258.643C387.249 261.301 385.747 263.903 384.138 266.69C389.085 266.69 393.804 266.69 398.597 266.69C398.597 271.204 398.597 275.604 398.597 280.178C397.915 280.178 397.242 280.178 396.568 280.178C393.527 280.18 390.486 280.205 387.446 280.176C384.878 280.151 382.963 279.032 381.76 276.706C379.417 272.176 377.079 267.643 374.653 263.158C373.623 261.255 373.561 259.53 374.77 257.693C375.835 256.076 376.755 254.361 377.818 252.555Z" fill="white"/>
</g>
<defs>
<clipPath id="clip0_55_6900">
<rect width="750" height="500" fill="white"/>
</clipPath>
</defs>
</svg>
