<svg width="730" height="730" viewBox="0 0 730 730" fill="none" xmlns="http://www.w3.org/2000/svg">
<path d="M229.024 681.561C229.024 681.561 98.5589 632.032 38.1587 478.615C-22.2415 325.199 195.201 217.684 192.784 194.733C190.368 171.782 38.1587 159.7 128.759 86.0112C219.359 12.3221 537.067 3.86579 653.036 162.117C769.005 320.367 648.204 372.311 636.124 400.095C624.044 427.879 743.636 438.752 660.284 581.297C576.931 723.843 324.457 720.218 229.024 681.561Z" fill="#92E3A9"/>
<path opacity="0.7" d="M229.024 681.561C229.024 681.561 98.5589 632.032 38.1587 478.615C-22.2415 325.199 195.201 217.684 192.784 194.733C190.368 171.782 38.1587 159.7 128.759 86.0112C219.359 12.3221 537.067 3.86579 653.036 162.117C769.005 320.367 648.204 372.311 636.124 400.095C624.044 427.879 743.636 438.752 660.284 581.297C576.931 723.843 324.457 720.218 229.024 681.561Z" fill="white"/>
<path d="M370.235 187.59C370.235 190.091 368.207 192.117 365.707 192.117C363.206 192.117 361.18 190.089 361.18 187.59C361.18 185.089 363.208 183.063 365.707 183.063C368.207 183.061 370.235 185.089 370.235 187.59Z" fill="#92E3A9" stroke="#263238" stroke-width="1.46" stroke-miterlimit="10"/>
<path d="M404.644 162.681C404.644 164.432 403.225 165.851 401.474 165.851C399.724 165.851 398.305 164.432 398.305 162.681C398.305 160.931 399.724 159.512 401.474 159.512C403.225 159.512 404.644 160.931 404.644 162.681Z" fill="#92E3A9" stroke="#263238" stroke-width="1.46" stroke-miterlimit="10"/>
<path d="M424.572 86.6139C424.572 88.8652 422.747 90.6888 420.497 90.6888C418.247 90.6888 416.422 88.8638 416.422 86.6139C416.422 84.3626 418.247 82.5391 420.497 82.5391C422.748 82.5391 424.572 84.3641 424.572 86.6139Z" fill="#92E3A9" stroke="#263238" stroke-width="1.46" stroke-miterlimit="10"/>
<path d="M185.49 185.774C186.991 185.774 188.208 184.557 188.208 183.057C188.208 181.556 186.991 180.34 185.49 180.34C183.99 180.34 182.773 181.556 182.773 183.057C182.773 184.557 183.99 185.774 185.49 185.774Z" fill="#92E3A9" stroke="#263238" stroke-width="1.46" stroke-miterlimit="10"/>
<path d="M249.332 340.628C252.082 340.628 254.312 338.398 254.312 335.648C254.312 332.898 252.082 330.668 249.332 330.668C246.581 330.668 244.352 332.898 244.352 335.648C244.352 338.398 246.581 340.628 249.332 340.628Z" fill="#92E3A9" stroke="#263238" stroke-width="1.46" stroke-miterlimit="10"/>
<path d="M524.181 279.505C524.181 281.756 522.356 283.579 520.106 283.579C517.855 283.579 516.031 281.754 516.031 279.505C516.031 277.253 517.856 275.43 520.106 275.43C522.357 275.43 524.181 277.255 524.181 279.505Z" fill="#92E3A9" stroke="#263238" stroke-width="1.46" stroke-miterlimit="10"/>
<path d="M219.359 416.73L312.595 679.12C316.606 701.946 381.511 709.618 457.566 696.255C533.62 682.891 592.024 653.555 588.014 630.73L591.075 343.105L219.359 416.73Z" fill="#92E3A9" stroke="#263238" stroke-width="1.46" stroke-miterlimit="10"/>
<path d="M563.239 487.584C529.847 568.144 492.921 638.705 453.953 696.872C455.158 696.671 456.366 696.464 457.577 696.25C504.833 687.947 545.269 673.477 568.157 658.235C574.904 645.876 581.566 633.167 588.137 620.103L590.289 417.922C582.448 439.504 573.428 463.004 563.239 487.584Z" fill="#263238" stroke="#263238" stroke-width="1.46" stroke-miterlimit="10"/>
<path d="M528.58 443.581C542.93 408.89 554.997 376.496 564.82 348.305L475.659 365.965C440.422 459.176 385.303 580.759 310.828 674.108L312.608 679.117C315.275 694.304 344.905 702.778 386.833 702.817C438.219 634.006 485.695 547.252 528.58 443.581Z" fill="#263238" stroke="#263238" stroke-width="1.46" stroke-miterlimit="10"/>
<path d="M257.648 524.444L290.22 616.108C336.643 551.105 379.764 471.178 419.079 377.172L326.181 395.572C304.452 442.799 281.492 485.956 257.648 524.444Z" fill="#263238" stroke="#263238" stroke-width="1.46" stroke-miterlimit="10"/>
<path d="M409.418 422.316C517.058 403.409 600.318 365.316 595.385 337.234C590.453 309.152 499.195 301.714 391.555 320.621C283.915 339.528 200.655 377.621 205.588 405.703C210.52 433.785 301.778 441.223 409.418 422.316Z" fill="white" stroke="#263238" stroke-width="1.46" stroke-miterlimit="10"/>
<path d="M406.994 408.511C509.709 390.469 589.725 357.339 585.716 334.513C581.707 311.687 495.189 307.809 392.474 325.851C289.759 343.893 209.742 377.023 213.752 399.849C217.761 422.675 304.279 426.553 406.994 408.511Z" fill="#263238" stroke="#263238" stroke-width="1.46" stroke-miterlimit="10"/>
<path d="M510.087 221.312C508.958 204.648 499.554 184.847 483.202 178.432C467.158 172.137 448.205 177.663 434.282 186.589C415.017 198.941 408.596 219.525 408.596 235.994C408.596 252.463 409.399 255.755 406.189 267.283C402.978 278.811 401.372 287.046 401.372 294.455C401.372 301.866 402.175 315.863 394.148 331.509C386.121 347.154 375.686 359.504 394.951 367.739C414.216 375.973 426.256 380.09 431.073 372.679C435.889 365.268 436.691 349.623 440.706 338.096C443.906 328.904 450.7 312.919 463.892 300.135C468.864 296.676 475.749 295.098 481.612 291.8C487.778 288.332 490.089 286.019 494.327 284.094C498.566 282.167 497.795 279.47 497.409 274.075C497.024 268.681 502.033 267.526 505.501 261.36C508.968 255.195 506.272 252.883 508.199 244.02C509.853 236.387 510.589 228.744 510.087 221.312Z" fill="#92E3A9" stroke="#263238" stroke-width="1.46" stroke-miterlimit="10"/>
<path d="M490.555 239.32C492.199 241.725 493.58 244.007 493.226 246.482C492.578 251.021 490.634 256.856 490.634 256.856C490.634 256.856 492.578 259.449 493.226 262.044" stroke="#263238" stroke-width="1.46" stroke-miterlimit="10"/>
<path d="M477.023 196.645C478.567 198.036 480.085 199.718 481.545 201.744C493.216 217.955 484.788 227.68 486.732 232.867" stroke="#263238" stroke-width="1.46" stroke-miterlimit="10"/>
<path d="M454.312 191.37C454.312 191.37 463.435 187.949 472.948 193.621" stroke="#263238" stroke-width="1.46" stroke-miterlimit="10"/>
<path d="M465.93 221.977C468.127 223.753 470.14 226.043 471.815 228.974" stroke="#263238" stroke-width="1.46" stroke-miterlimit="10"/>
<path d="M438.109 217.309C438.109 217.309 449.762 214.072 460.26 218.576" stroke="#263238" stroke-width="1.46" stroke-miterlimit="10"/>
<path d="M466.123 277.484C465.181 278.943 463.885 280.524 462.1 282.145C454.968 288.629 445.89 287.332 443.945 295.112C442.001 302.893 443.297 308.08 440.703 310.675C438.11 313.268 429.68 319.103 429.68 319.103" stroke="#263238" stroke-width="1.46" stroke-miterlimit="10"/>
<path d="M468.584 269.828C468.584 269.828 468.806 271.833 467.555 274.798" stroke="#263238" stroke-width="1.46" stroke-miterlimit="10"/>
<path d="M394.664 357.36C394.664 357.36 400.5 366.437 407.632 365.788C414.764 365.14 419.951 359.953 419.951 359.953C419.951 359.953 425.139 363.844 427.083 358.656C429.028 353.469 429.028 348.93 429.028 348.93" stroke="#263238" stroke-width="1.46" stroke-miterlimit="10"/>
<path d="M499.062 216.656C499.062 216.656 504.898 228.976 502.304 238.054C499.711 247.131 499.062 250.373 499.062 250.373" stroke="#263238" stroke-width="1.46" stroke-miterlimit="10"/>
<path d="M278.107 371.718C278.107 371.718 274.27 330.36 297.294 313.305C320.318 296.251 354.002 309.895 361.677 320.128C369.353 330.361 371.058 352.959 370.205 376.836C369.353 400.713 357.414 405.402 357.414 405.402L278.107 371.718Z" fill="#92E3A9" stroke="#263238" stroke-width="1.46" stroke-miterlimit="10"/>
<path d="M295.43 353.883C297.633 356.527 300.275 357.407 300.275 357.407C300.275 357.407 299.395 358.729 302.038 360.491" stroke="#263238" stroke-width="1.46" stroke-miterlimit="10"/>
<path d="M293.923 325.09C292.092 328.337 290.669 331.845 291.023 334.501C291.904 341.109 295.869 340.229 295.869 340.229C295.869 340.229 294.811 344.642 294.592 348.552" stroke="#263238" stroke-width="1.46" stroke-miterlimit="10"/>
<path d="M300.275 316C300.275 316 298.551 318.025 296.586 320.868" stroke="#263238" stroke-width="1.46" stroke-miterlimit="10"/>
<path d="M287.503 356.523C287.503 356.523 287.062 365.775 296.755 366.215" stroke="#263238" stroke-width="1.46" stroke-miterlimit="10"/>
<path d="M352.704 331.414C350.942 334.498 346.977 334.939 346.977 334.939" stroke="#263238" stroke-width="1.46" stroke-miterlimit="10"/>
<path d="M351.828 321.727C351.828 321.727 353.123 324.962 353.295 327.962" stroke="#263238" stroke-width="1.46" stroke-miterlimit="10"/>
<path d="M319.028 379.82C319.028 379.82 340.347 350.827 360.387 338.035C380.427 325.244 410.698 328.228 421.784 335.05C432.87 341.873 458.026 356.796 466.127 361.059C474.229 365.322 475.934 370.439 468.259 373.424C460.584 376.408 440.272 378.557 436.145 377.482C432.017 376.408 417.947 395.595 411.125 400.285C404.302 404.974 398.418 409.97 398.418 409.97C398.418 409.97 329.687 402.416 322.012 396.022C314.338 389.627 319.028 379.82 319.028 379.82Z" fill="#92E3A9" stroke="#263238" stroke-width="1.46" stroke-miterlimit="10"/>
<path d="M400.274 343.316C400.274 343.316 402.036 346.841 398.07 351.687C394.105 356.532 389.7 356.973 389.7 356.973C389.7 356.973 388.82 361.819 385.295 364.902C381.771 367.986 378.688 370.63 378.688 370.63" stroke="#263238" stroke-width="1.46" stroke-miterlimit="10"/>
<path d="M351.375 386.043C351.375 386.043 355.78 390.888 358.424 387.805C361.068 384.721 363.711 379.876 363.711 379.876C363.711 379.876 370.075 378.639 370.197 376.834C370.32 375.03 366.355 370.625 366.355 370.625" stroke="#263238" stroke-width="1.46" stroke-miterlimit="10"/>
<path d="M395.422 397.943C395.422 397.943 401.589 399.705 402.471 395.74C403.351 391.775 403.792 383.404 403.792 383.404C403.792 383.404 409.52 384.726 410.4 381.201C411.28 377.677 408.638 374.152 408.638 374.152" stroke="#263238" stroke-width="1.46" stroke-miterlimit="10"/>
<path d="M488.016 320.971C488.016 320.971 511.64 309.947 533.163 308.372C554.688 306.796 569.911 314.146 573.586 326.22C577.261 338.294 558.417 362.986 558.417 362.986L534.397 374.111L488.016 320.971Z" fill="#92E3A9" stroke="#263238" stroke-width="1.46" stroke-miterlimit="10"/>
<path d="M568.257 333.262C568.257 333.262 569.65 336.845 567.461 337.64C565.273 338.436 563.481 337.043 563.481 337.043C563.481 337.043 564.078 340.825 562.884 342.217C561.69 343.61 559.898 344.009 559.898 344.009" stroke="#263238" stroke-width="1.46" stroke-miterlimit="10"/>
<path d="M546.962 317.137C546.962 317.137 549.748 324.301 547.958 327.684C546.166 331.067 545.172 332.659 545.172 332.659C545.172 332.659 548.753 333.257 547.162 336.042" stroke="#263238" stroke-width="1.46" stroke-miterlimit="10"/>
<path d="M534.402 374.108C533.751 363.654 533.342 347.412 536.066 337.604C540.329 322.255 548.431 319.269 543.315 307.331C538.199 295.392 525.834 302.641 525.834 302.641C525.834 302.641 510.485 301.362 509.206 308.183C507.928 315.006 506.222 326.092 504.091 335.897C501.959 345.704 489.168 365.316 482.772 379.387C479.694 386.157 477.513 390.542 476.07 393.287C498.176 387.325 517.94 380.801 534.402 374.108Z" fill="#92E3A9" stroke="#263238" stroke-width="1.46" stroke-miterlimit="10"/>
<path d="M485.038 390.801C488.911 381.947 488.735 371.289 488.735 371.289C488.735 371.289 509.627 371.289 527.534 367.879C545.442 364.468 557.807 359.351 553.542 348.691C549.279 338.032 524.122 325.241 524.122 325.241C524.122 325.241 445.243 299.232 432.025 312.876C418.808 326.52 411.559 392.608 411.133 400.282C410.957 403.437 411.29 405.86 411.887 407.633C438.201 402.854 462.93 397.098 485.038 390.801Z" fill="#92E3A9" stroke="#263238" stroke-width="1.46" stroke-miterlimit="10"/>
<path d="M490.538 339.895C491.011 342.229 491.07 344.81 490.038 347.079C487.304 353.093 486.211 355.826 486.211 355.826C486.211 355.826 490.038 359.653 488.944 362.933C487.851 366.214 487.851 366.214 487.851 366.214" stroke="#263238" stroke-width="1.46" stroke-miterlimit="10"/>
<path d="M487.836 332.871C487.836 332.871 488.662 334.248 489.449 336.289" stroke="#263238" stroke-width="1.46" stroke-miterlimit="10"/>
<path d="M462.563 359.582C461.774 369.641 458.986 381.929 452.859 387.544" stroke="#263238" stroke-width="1.46" stroke-miterlimit="10"/>
<path d="M455.047 321.938C455.047 321.938 462.7 330.138 461.607 335.059C460.513 339.979 456.686 339.433 458.874 344.353C460.874 348.856 462.875 347.407 462.782 355.085" stroke="#263238" stroke-width="1.46" stroke-miterlimit="10"/>
<path d="M535.404 355.285C528.845 356.925 520.644 354.192 520.096 356.379C519.549 358.566 519.003 360.205 514.083 360.753C509.162 361.299 505.882 360.207 504.242 360.207" stroke="#263238" stroke-width="1.46" stroke-miterlimit="10"/>
<path d="M544.694 348.18C544.694 348.18 543.19 351.189 539.734 353.411" stroke="#263238" stroke-width="1.46" stroke-miterlimit="10"/>
<path d="M398.427 409.97C392.422 405.96 383.97 400.47 380.39 398.879C374.554 396.284 358.344 397.582 344.728 393.043C331.112 388.504 316.198 380.075 305.175 372.943C294.152 365.811 257.193 370.999 246.17 383.966C235.147 396.934 231.906 411.848 231.906 411.848L232.076 413.629C262.121 422.855 325.641 422.002 398.427 409.97Z" fill="#92E3A9" stroke="#263238" stroke-width="1.46" stroke-miterlimit="10"/>
<path d="M314.367 409.395L318.333 413.36" stroke="#263238" stroke-width="1.46" stroke-miterlimit="10"/>
<path d="M294.555 383.398C302.484 394.413 302.484 401.901 303.807 402.783C305.128 403.663 309.093 401.462 311.736 405.425" stroke="#263238" stroke-width="1.46" stroke-miterlimit="10"/>
<path d="M282.656 374.59C282.656 374.59 284.887 373.351 289.347 377.377" stroke="#263238" stroke-width="1.46" stroke-miterlimit="10"/>
<path d="M330.391 401.629C333.426 406.9 333.763 410.272 333.763 410.272" stroke="#263238" stroke-width="1.46" stroke-miterlimit="10"/>
<path d="M316.578 388.242C316.578 388.242 324.507 392.647 328.914 399.256" stroke="#263238" stroke-width="1.46" stroke-miterlimit="10"/>
<path d="M260.844 412.368C263.156 413.138 265.91 413.8 267.672 413.359C271.197 412.477 273.4 410.715 273.4 410.715" stroke="#263238" stroke-width="1.46" stroke-miterlimit="10"/>
<path d="M251.377 391.328C251.377 391.328 246.531 393.972 247.412 396.615C248.293 399.257 250.054 402.782 250.054 402.782C250.054 402.782 247.412 403.223 248.292 406.306C249.172 409.39 247.851 412.473 252.257 411.593C256.664 410.711 256.664 410.711 256.664 410.711C256.664 410.711 257.411 411.063 258.544 411.516" stroke="#263238" stroke-width="1.46" stroke-miterlimit="10"/>
<path d="M357.414 405.399C357.414 405.399 362.397 408.949 365.921 408.067C369.446 407.187 370.328 404.543 370.328 404.543C370.328 404.543 373.411 406.746 376.055 405.423" stroke="#263238" stroke-width="1.46" stroke-miterlimit="10"/>
<path d="M297.032 60.1182C297.032 60.1182 289.227 75.7285 281.422 82.5584C273.617 89.3883 238.494 102.071 228.736 131.341C218.979 160.611 234.591 187.93 275.567 196.71C316.545 205.49 342.888 157.684 348.741 142.074C354.596 126.464 359.474 128.414 364.351 121.586C369.229 114.756 371.181 109.878 371.181 109.878C371.181 109.878 374.109 116.708 380.937 120.61C387.767 124.513 393.62 137.196 408.255 145.978C422.89 154.758 425.817 145.978 422.89 135.245C419.963 124.513 405.328 103.048 398.499 87.4377C391.67 71.8274 371.181 57.1924 356.546 39.63C341.911 22.0677 328.253 25.9703 317.52 34.7522C306.788 43.5326 298.983 54.2651 297.032 60.1182Z" fill="#92E3A9" stroke="#263238" stroke-width="1.46" stroke-miterlimit="10"/>
<path d="M379.828 97.9379C381.063 95.9713 382.161 94.0192 382.893 92.3125" stroke="#263238" stroke-width="1.46" stroke-miterlimit="10"/>
<path d="M371.18 109.881C371.18 109.881 373.368 107.205 375.926 103.676" stroke="#263238" stroke-width="1.46" stroke-miterlimit="10"/>
<path d="M330.209 45.4844C316.549 46.4597 308.744 61.0947 301.914 75.7297" stroke="#263238" stroke-width="1.46" stroke-miterlimit="10"/>
<path d="M295.393 88.5586C290.815 89.2244 286.064 88.7382 283.125 90.4522" stroke="#263238" stroke-width="1.46" stroke-miterlimit="10"/>
<path d="M320.673 61.2578C320.673 61.2578 310.94 71.4545 305.842 81.6496C304.75 83.8338 303.339 85.3361 301.742 86.383" stroke="#263238" stroke-width="1.46" stroke-miterlimit="10"/>
<path d="M308.234 183.274C317.767 176.655 320.354 169.487 322.532 166.004" stroke="#263238" stroke-width="1.46" stroke-miterlimit="10"/>
<path d="M255.328 182.684C255.328 182.684 264.598 189.172 274.33 190.099C284.062 191.026 291.015 185.928 291.015 185.928C291.015 185.928 293.361 189.056 299.227 187.687" stroke="#263238" stroke-width="1.46" stroke-miterlimit="10"/>
<path d="M316.194 93.4727C313.892 96.2248 310.937 99.0338 306.766 102.047" stroke="#263238" stroke-width="1.46" stroke-miterlimit="10"/>
<path d="M347.802 55.9883C344.286 57.6629 339.828 60.7523 334.575 66.3557C326.754 74.6982 324.212 81.1339 320.516 87.3126" stroke="#263238" stroke-width="1.46" stroke-miterlimit="10"/>
<path d="M356.823 54.3078C356.823 54.3078 356.016 54.0392 354.484 54.1151" stroke="#263238" stroke-width="1.46" stroke-miterlimit="10"/>
<path d="M408.262 112.703C408.262 112.703 416.14 123.827 414.287 128.461C412.433 133.095 407.335 132.169 407.335 132.169C407.335 132.169 410.116 138.195 405.945 138.658C401.774 139.12 398.992 136.803 398.992 136.803" stroke="#263238" stroke-width="1.46" stroke-miterlimit="10"/>
<path d="M262.164 150.833C263.701 149.214 264.799 147.482 265.522 147.001C266.912 146.074 271.547 147.001 275.254 143.756C278.961 140.512 279.426 135.414 279.426 135.414" stroke="#263238" stroke-width="1.46" stroke-miterlimit="10"/>
<path d="M235.392 141.902C235.392 141.902 234.002 149.78 239.099 153.489C244.197 157.196 250.685 152.562 250.685 152.562C250.685 152.562 252.075 154.416 256.711 153.952" stroke="#263238" stroke-width="1.46" stroke-miterlimit="10"/>
<path d="M340.998 233.496C340.998 233.496 318.064 240.95 272.2 227.189C226.334 213.43 189.641 200.243 158.108 205.977C126.575 211.71 115.11 236.936 112.816 247.255C110.522 257.575 100.203 258.722 103.069 266.748C105.935 274.775 115.108 278.787 116.828 280.507C118.548 282.227 115.108 286.813 124.855 292.546C134.602 298.279 144.348 296.56 144.921 299.999C145.495 303.439 150.655 309.746 152.949 309.746C155.242 309.746 158.682 305.733 163.268 308.6C167.855 311.466 167.855 313.76 178.748 313.187C189.641 312.614 219.454 307.454 229.774 302.868C240.093 298.282 267.04 279.362 283.667 278.216C300.293 277.07 313.48 278.79 318.64 280.51C323.799 282.23 337.56 284.523 342.719 286.243C347.879 287.963 355.332 283.377 357.626 278.79C359.92 274.203 361.64 267.323 361.64 259.297C361.64 251.272 359.92 245.538 357.626 239.805C355.331 234.069 348.451 232.349 340.998 233.496Z" fill="#92E3A9" stroke="#263238" stroke-width="1.46" stroke-miterlimit="10"/>
<path d="M140.174 257.316C137.835 259.045 135.04 261.59 131.744 265.603C118.557 281.656 127.73 288.536 127.73 288.536" stroke="#263238" stroke-width="1.46" stroke-miterlimit="10"/>
<path d="M167.279 223.176C165.559 223.176 159.252 224.322 154.093 228.335C148.933 232.349 150.079 235.215 150.079 246.108C150.079 252.5 148.302 252.574 144.172 254.788" stroke="#263238" stroke-width="1.46" stroke-miterlimit="10"/>
<path d="M160.464 213.215C156.942 213.951 153.505 214.946 150.657 216.297C139.764 221.457 138.044 226.044 138.618 232.35C139.191 238.657 140.338 242.669 134.604 244.963C128.871 247.256 125.431 245.536 120.845 254.71C116.258 263.883 116.258 270.188 116.258 270.188" stroke="#263238" stroke-width="1.46" stroke-miterlimit="10"/>
<path d="M181.045 211.137C181.045 211.137 175.256 211.137 168.227 211.972" stroke="#263238" stroke-width="1.46" stroke-miterlimit="10"/>
<path d="M207.992 249.546C207.992 249.546 220.605 236.933 228.058 236.933C235.512 236.933 240.098 240.946 243.537 238.079C246.977 235.213 252.137 231.199 256.15 231.199C260.164 231.199 263.03 233.493 263.03 233.493" stroke="#263238" stroke-width="1.46" stroke-miterlimit="10"/>
<path d="M349.028 243.242C349.028 243.242 357.628 243.816 351.322 253.561C345.015 263.308 339.855 268.468 342.149 269.614C344.442 270.76 350.176 271.908 345.016 275.348" stroke="#263238" stroke-width="1.46" stroke-miterlimit="10"/>
<path d="M234.32 280.598C241.394 281.704 246.926 283.759 251.985 282.494" stroke="#263238" stroke-width="1.46" stroke-miterlimit="10"/>
<path d="M149.117 294.297C149.117 294.297 152.49 281.652 169.35 279.122C186.21 276.593 197.17 285.023 199.699 285.023C202.228 285.023 215.717 279.964 226.675 279.964" stroke="#263238" stroke-width="1.46" stroke-miterlimit="10"/>
</svg>
