<svg width="550" height="550" viewBox="0 0 550 550" fill="none" xmlns="http://www.w3.org/2000/svg">
<path d="M423.181 150.753C419.512 143.645 415.668 136.643 411.293 129.972C360.806 52.9815 225.593 11.0693 158.595 90.6477C142.626 109.615 137.06 132.535 126.312 154.286C101.866 203.758 56.1934 233.335 27.5549 279.146C5.35576 314.657 8.31586 360.17 20.6997 398.559C34.1571 440.274 57.839 469.407 95.7208 491.554C138.188 516.381 183.61 509.488 229.514 500.849C250.157 496.964 271.442 492.999 292.55 494.482C318.978 496.339 345.07 503.818 371.289 507.454C398.557 511.235 426.849 512.129 453.116 503.889C537.237 477.502 557.165 353.848 522.572 283.016C510.327 257.943 489.575 238.599 470.305 218.973C449.503 197.788 436.753 177.053 423.181 150.753Z" fill="#35D36A"/>
<path opacity="0.7" d="M423.181 150.753C419.512 143.645 415.668 136.643 411.293 129.972C360.806 52.9815 225.593 11.0693 158.595 90.6477C142.626 109.615 137.06 132.535 126.312 154.286C101.866 203.758 56.1934 233.335 27.5549 279.146C5.35576 314.657 8.31586 360.17 20.6997 398.559C34.1571 440.274 57.839 469.407 95.7208 491.554C138.188 516.381 183.61 509.488 229.514 500.849C250.157 496.964 271.442 492.999 292.55 494.482C318.978 496.339 345.07 503.818 371.289 507.454C398.557 511.235 426.849 512.129 453.116 503.889C537.237 477.502 557.165 353.848 522.572 283.016C510.327 257.943 489.575 238.599 470.305 218.973C449.503 197.788 436.753 177.053 423.181 150.753Z" fill="white"/>
<path d="M476.024 320.129C475.497 318.023 474.11 314.751 470.457 312.093C464.564 307.808 455.458 310.486 455.458 310.486C455.994 296.559 446.351 278.346 426.531 278.346C406.712 278.346 401.89 294.416 401.89 294.416C401.89 294.416 394.391 285.309 382.071 290.131C369.751 294.952 369.215 311.022 369.215 311.022C369.215 311.022 361.179 302.451 352.609 305.129C345.512 307.347 343.191 316.906 342.603 320.128H476.024V320.129Z" fill="#263238"/>
<path d="M471.085 315.808C470.557 313.702 469.171 310.43 465.518 307.772C459.625 303.487 450.52 306.165 450.52 306.165C451.055 292.238 441.413 274.025 421.593 274.025C401.773 274.025 396.952 290.095 396.952 290.095C396.952 290.095 389.452 280.988 377.132 285.81C364.812 290.631 364.276 306.701 364.276 306.701C364.276 306.701 356.241 298.13 347.671 300.808C340.574 303.026 338.253 312.585 337.664 315.807H471.085V315.808Z" fill="white" stroke="#263238" stroke-width="1.1" stroke-miterlimit="10"/>
<path d="M230.437 471.643C229.909 469.537 228.523 466.265 224.87 463.607C218.977 459.321 209.871 462 209.871 462C210.407 448.073 200.764 429.859 180.945 429.859C161.125 429.859 156.303 445.929 156.303 445.929C156.303 445.929 148.804 436.822 136.484 441.643C124.164 446.465 123.628 462.535 123.628 462.535C123.628 462.535 115.592 453.963 107.022 456.642C99.9251 458.859 97.6041 468.419 97.0156 471.64H230.437V471.643Z" fill="#263238"/>
<path d="M226.115 467.321C225.588 465.215 224.202 461.943 220.547 459.285C214.655 455 205.549 457.678 205.549 457.678C206.085 443.751 196.442 425.538 176.622 425.538C156.802 425.538 151.981 441.608 151.981 441.608C151.981 441.608 144.481 432.501 132.161 437.323C119.841 442.144 119.306 458.214 119.306 458.214C119.306 458.214 111.27 449.643 102.7 452.321C95.6029 454.539 93.2819 464.098 92.6934 467.32H226.115V467.321Z" fill="white" stroke="#263238" stroke-width="1.1" stroke-miterlimit="10"/>
<path d="M377.911 398.179C377.96 398.704 378.407 399.11 378.943 399.1C423.516 398.234 465.107 373.754 487.483 335.213C487.765 334.729 487.601 334.105 487.114 333.824C486.629 333.542 486.007 333.707 485.725 334.192C463.702 372.122 422.771 396.214 378.903 397.067C378.342 397.078 377.895 397.542 377.906 398.103C377.908 398.127 377.909 398.153 377.911 398.179Z" fill="#263238"/>
<path d="M413.858 373.527C418.646 385.009 401.641 395.688 401.265 395.329C399.185 395.816 397.086 396.253 394.968 396.638C397.443 395.189 400.524 388.859 401.238 379.514C402.282 370.277 409.7 362.421 413.858 373.527Z" fill="#263238"/>
<path d="M426.143 407.283C430.436 418.712 413.611 418.528 408.251 410.288C402.732 402.392 397.754 397.522 394.993 396.815C397.135 396.574 399.267 396.279 401.384 395.933C401.304 396.407 421.678 396.615 426.143 407.283Z" fill="#263238"/>
<path d="M430.598 365.774C437.222 376.289 422.451 389.6 422.045 389.311C420.107 390.135 418.145 390.911 416.158 391.641C418.305 389.804 420.207 383.063 419.296 373.745C418.718 364.477 424.628 355.524 430.598 365.774Z" fill="#263238"/>
<path d="M448.379 396.984C454.52 407.529 438.039 410.116 431.418 402.887C424.686 396.022 419.011 392.05 416.214 391.811C418.249 391.219 420.266 390.577 422.266 389.885C422.246 390.364 442.168 387.215 448.379 396.984Z" fill="#263238"/>
<path d="M445.737 355.373C454.012 364.638 441.737 380.188 441.307 379.965C439.547 381.095 437.757 382.183 435.939 383.228C437.725 381.066 438.441 374.117 435.967 365.093C433.821 356.066 438.132 346.269 445.737 355.373Z" fill="#263238"/>
<path d="M468.488 383.167C476.3 392.541 460.516 397.817 452.804 391.787C445.033 386.137 438.799 383.161 436.021 383.385C437.911 382.468 439.777 381.503 441.62 380.493C441.666 380.973 460.717 374.582 468.488 383.167Z" fill="#263238"/>
<path d="M458.947 342.565C468.652 350.326 459.12 367.731 458.668 367.574C457.123 368.981 455.542 370.35 453.927 371.68C455.322 369.256 454.862 362.288 450.916 353.805C447.29 345.269 449.923 334.87 458.947 342.565Z" fill="#263238"/>
<path d="M486.037 366.155C495.306 374.093 480.591 381.971 471.983 377.307C463.374 373.036 456.732 371.14 454.037 371.822C455.743 370.604 457.42 369.345 459.066 368.042C459.181 368.518 476.926 359.008 486.037 366.155Z" fill="#263238"/>
<path d="M469.901 327.596C480.778 333.621 474.217 352.516 473.748 352.419C472.453 354.074 471.118 355.695 469.743 357.282C470.718 354.652 469.112 347.846 463.809 340.131C458.811 332.317 459.704 321.543 469.901 327.596Z" fill="#263238"/>
<path d="M500.587 346.271C511.063 352.54 497.802 362.914 488.521 359.765C479.303 357.019 472.425 356.275 469.875 357.404C471.358 355.914 472.807 354.384 474.22 352.815C474.406 353.284 490.393 340.793 500.587 346.271Z" fill="#263238"/>
<path d="M481.468 342.91C481.541 343.233 495.648 331.764 500.043 322.835C504.618 314.19 499.212 308.708 494.956 309.068C490.671 309.36 487.733 315.513 486.389 321.076C485.503 326.68 481.77 342.916 481.468 342.91Z" fill="#263238"/>
<path d="M480.792 342.973C480.795 343.003 480.8 343.033 480.806 343.061C480.87 343.341 481.112 343.556 481.397 343.589C481.417 343.592 481.439 343.59 481.464 343.587C481.653 343.592 481.798 343.59 481.956 343.381C484.887 341.741 496.874 330.807 500.65 323.134C502.904 318.878 503.056 314.692 501.052 311.663C499.611 309.483 497.194 308.199 494.898 308.393C489.104 308.788 486.415 318.079 485.73 320.916C484.863 326.381 481.457 341.159 480.923 342.505C480.823 342.64 480.777 342.807 480.792 342.973ZM501.078 315.789C501.24 317.511 500.908 319.75 499.444 322.518C495.976 329.562 486.494 338.104 482.735 341.157C483.098 339.779 483.601 337.622 484.369 334.248C485.357 329.901 486.582 324.186 487.058 321.183C488.347 315.855 491.119 310.01 495.001 309.746C496.821 309.592 498.748 310.639 499.921 312.412C500.397 313.13 500.934 314.253 501.078 315.789Z" fill="#263238"/>
<path d="M334.528 450.398C334.244 450.517 334.097 450.836 334.196 451.133C342.44 475.776 363.302 494.649 388.638 500.383C388.956 500.456 389.275 500.256 389.347 499.937C389.419 499.618 389.219 499.3 388.9 499.228C363.965 493.584 343.435 475.011 335.32 450.757C335.217 450.447 334.88 450.279 334.57 450.383C334.556 450.387 334.542 450.393 334.528 450.398Z" fill="#263238"/>
<path d="M354.502 466.101C348.949 470.765 340.047 463.165 340.181 462.893C339.548 461.821 338.939 460.729 338.356 459.618C339.594 460.743 343.651 461.354 348.974 460.124C354.294 459.095 359.956 461.854 354.502 466.101Z" fill="#263238"/>
<path d="M337.864 478.813C332.254 483.193 329.426 473.801 333.077 469.384C336.508 464.939 338.35 461.321 338.262 459.662C338.77 460.812 339.304 461.946 339.866 463.064C339.588 463.102 343.021 474.472 337.864 478.813Z" fill="#263238"/>
<path d="M361.73 474.063C357.035 479.579 347.058 473.681 347.148 473.405C346.353 472.47 345.578 471.514 344.827 470.536C346.223 471.41 350.304 471.294 355.329 469.165C360.382 467.227 366.392 468.956 361.73 474.063Z" fill="#263238"/>
<path d="M347.466 489.389C342.67 494.641 338.36 485.924 341.229 480.983C343.875 476.041 345.097 472.194 344.743 470.595C345.427 471.624 346.135 472.635 346.868 473.627C346.597 473.7 351.818 484.232 347.466 489.389Z" fill="#263238"/>
<path d="M370.152 480.671C366.439 486.889 355.652 482.768 355.7 482.491C354.765 481.709 353.848 480.902 352.95 480.073C354.464 480.69 358.455 479.878 363.043 476.93C367.691 474.165 373.892 474.857 370.152 480.671Z" fill="#263238"/>
<path d="M358.654 498.169C354.801 504.146 349.116 496.287 351.128 490.946C352.916 485.64 353.487 481.654 352.878 480.148C353.717 481.039 354.578 481.909 355.462 482.758C355.203 482.866 362.076 492.35 358.654 498.169Z" fill="#263238"/>
<path d="M379.578 485.79C376.951 492.539 365.609 490.269 365.618 489.989C364.566 489.375 363.529 488.734 362.508 488.068C364.1 488.421 367.896 486.952 371.927 483.279C376.043 479.776 382.287 479.429 379.578 485.79Z" fill="#263238"/>
<path d="M371.174 504.967C368.372 511.505 361.428 504.692 362.522 499.091C363.398 493.559 363.297 489.534 362.447 488.154C363.422 488.891 364.414 489.603 365.426 490.293C365.182 490.439 373.562 498.654 371.174 504.967Z" fill="#263238"/>
<path d="M389.811 489.277C388.355 496.376 376.7 496.017 376.673 495.74C375.527 495.308 374.393 494.848 373.27 494.36C374.902 494.444 378.409 492.364 381.777 488.071C385.254 483.93 391.403 482.55 389.811 489.277Z" fill="#263238"/>
<path d="M384.768 509.598C383.106 516.518 375.025 510.948 375.16 505.237C375.082 499.631 374.299 495.674 373.226 494.453C374.313 495.019 375.417 495.558 376.535 496.07C376.307 496.256 386.039 502.974 384.768 509.598Z" fill="#263238"/>
<path d="M383.308 498.376C383.142 498.474 391.977 504.322 397.71 505.212C403.316 506.252 405.423 502.29 404.482 499.984C403.573 497.652 399.639 497.089 396.31 497.31C393.04 497.795 383.357 498.546 383.308 498.376Z" fill="#263238"/>
<path d="M383.156 498.012C383.139 498.018 383.124 498.026 383.109 498.035C382.964 498.12 382.886 498.291 382.918 498.455C382.92 498.466 382.925 498.478 382.931 498.492C382.962 498.598 382.988 498.678 383.132 498.73C384.554 500.075 392.724 504.838 397.651 505.603C400.41 506.115 402.766 505.471 404.102 503.829C405.065 502.647 405.357 501.08 404.849 499.836C403.62 496.681 397.984 496.804 396.285 496.916C393.094 497.386 384.281 498.066 383.44 498.003C383.346 497.971 383.245 497.974 383.156 498.012ZM401.811 504.562C400.881 504.953 399.578 505.157 397.784 504.825C393.262 504.123 386.858 500.336 384.506 498.777C385.336 498.739 386.623 498.644 388.634 498.483C391.224 498.275 394.617 497.961 396.37 497.703C399.559 497.491 403.292 498.016 404.116 500.129C404.519 501.116 404.273 502.37 403.49 503.33C403.17 503.721 402.639 504.215 401.811 504.562Z" fill="#263238"/>
<path d="M218.466 456.978C218.749 457.097 218.897 457.416 218.798 457.713C210.554 482.358 189.692 501.229 164.356 506.964C164.038 507.036 163.719 506.836 163.648 506.517C163.575 506.198 163.775 505.88 164.094 505.809C189.029 500.164 209.559 481.591 217.674 457.337C217.778 457.027 218.114 456.86 218.424 456.963C218.439 456.967 218.453 456.973 218.466 456.978Z" fill="#263238"/>
<path d="M198.493 472.681C204.046 477.345 212.948 469.745 212.814 469.473C213.448 468.401 214.056 467.31 214.639 466.199C213.403 467.323 209.345 467.934 204.022 466.705C198.701 465.675 193.039 468.434 198.493 472.681Z" fill="#263238"/>
<path d="M215.132 485.394C220.742 489.773 223.57 480.381 219.919 475.965C216.488 471.519 214.645 467.902 214.733 466.243C214.226 467.392 213.692 468.526 213.13 469.644C213.408 469.682 209.975 481.052 215.132 485.394Z" fill="#263238"/>
<path d="M191.265 480.643C195.961 486.159 205.937 480.261 205.847 479.985C206.643 479.051 207.417 478.094 208.168 477.116C206.773 477.991 202.692 477.874 197.667 475.746C192.613 473.808 186.604 475.537 191.265 480.643Z" fill="#263238"/>
<path d="M205.53 495.969C210.326 501.222 214.635 492.504 211.767 487.563C209.121 482.622 207.899 478.774 208.253 477.177C207.569 478.205 206.861 479.216 206.128 480.208C206.397 480.28 201.177 490.813 205.53 495.969Z" fill="#263238"/>
<path d="M182.842 487.253C186.554 493.47 197.342 489.349 197.294 489.072C198.229 488.29 199.146 487.484 200.044 486.654C198.53 487.271 194.539 486.46 189.951 483.512C185.304 480.745 179.103 481.437 182.842 487.253Z" fill="#263238"/>
<path d="M194.341 504.749C198.194 510.727 203.879 502.867 201.867 497.527C200.079 492.22 199.508 488.234 200.117 486.728C199.278 487.619 198.417 488.489 197.533 489.338C197.792 489.446 190.919 498.93 194.341 504.749Z" fill="#263238"/>
<path d="M173.417 492.37C176.044 499.119 187.386 496.849 187.377 496.57C188.428 495.955 189.466 495.315 190.487 494.648C188.895 495.001 185.099 493.533 181.067 489.86C176.952 486.356 170.707 486.01 173.417 492.37Z" fill="#263238"/>
<path d="M181.823 511.547C184.624 518.086 191.569 511.272 190.474 505.671C189.598 500.139 189.7 496.114 190.549 494.734C189.574 495.471 188.582 496.184 187.57 496.873C187.814 497.02 179.433 505.234 181.823 511.547Z" fill="#263238"/>
<path d="M163.182 495.857C164.638 502.956 176.292 502.598 176.32 502.32C177.467 501.888 178.601 501.428 179.723 500.94C178.09 501.025 174.583 498.945 171.215 494.651C167.739 490.51 161.59 489.13 163.182 495.857Z" fill="#263238"/>
<path d="M168.226 516.178C169.888 523.098 177.969 517.528 177.834 511.817C177.912 506.211 178.695 502.254 179.767 501.033C178.679 501.599 177.576 502.138 176.457 502.65C176.686 502.836 166.953 509.554 168.226 516.178Z" fill="#263238"/>
<path d="M169.686 504.957C169.853 505.055 161.017 510.904 155.284 511.794C149.678 512.833 147.571 508.871 148.512 506.565C149.421 504.233 153.356 503.67 156.684 503.891C159.956 504.375 169.637 505.127 169.686 504.957Z" fill="#263238"/>
<path d="M169.839 504.592C169.856 504.599 169.871 504.606 169.887 504.615C170.031 504.7 170.109 504.871 170.077 505.035C170.075 505.046 170.07 505.058 170.064 505.073C170.033 505.178 170.008 505.259 169.864 505.31C168.441 506.656 160.271 511.419 155.345 512.183C152.585 512.696 150.23 512.051 148.893 510.409C147.932 509.227 147.638 507.66 148.146 506.416C149.375 503.261 155.011 503.384 156.71 503.496C159.901 503.966 168.714 504.646 169.556 504.583C169.649 504.551 169.749 504.555 169.839 504.592ZM151.185 511.142C152.114 511.533 153.418 511.738 155.212 511.405C159.734 510.704 166.137 506.916 168.49 505.358C167.659 505.319 166.372 505.225 164.361 505.063C161.771 504.855 158.379 504.541 156.625 504.283C153.436 504.072 149.702 504.596 148.879 506.709C148.476 507.696 148.723 508.95 149.505 509.91C149.824 510.301 150.356 510.795 151.185 511.142Z" fill="#263238"/>
<path d="M179.756 398.179C179.706 398.704 179.26 399.11 178.724 399.1C134.151 398.234 92.5598 373.754 70.1836 335.213C69.902 334.729 70.0659 334.105 70.5521 333.824C71.0372 333.542 71.6598 333.707 71.9414 334.192C93.9645 372.122 134.895 396.214 178.763 397.067C179.324 397.078 179.771 397.542 179.76 398.103C179.76 398.127 179.758 398.153 179.756 398.179Z" fill="#263238"/>
<path d="M143.809 373.527C139.021 385.009 156.026 395.688 156.402 395.329C158.482 395.816 160.581 396.253 162.7 396.638C160.225 395.189 157.143 388.859 156.43 379.514C155.385 370.277 147.967 362.421 143.809 373.527Z" fill="#263238"/>
<path d="M131.524 407.283C127.23 418.712 144.056 418.528 149.415 410.288C154.935 402.392 159.912 397.522 162.673 396.815C160.532 396.574 158.4 396.279 156.282 395.933C156.363 396.407 135.99 396.615 131.524 407.283Z" fill="#263238"/>
<path d="M127.07 365.774C120.445 376.289 135.216 389.6 135.621 389.311C137.559 390.135 139.522 390.911 141.508 391.641C139.361 389.804 137.459 383.063 138.37 373.745C138.951 364.477 133.039 355.524 127.07 365.774Z" fill="#263238"/>
<path d="M109.288 396.984C103.147 407.529 119.628 410.116 126.249 402.887C132.981 396.022 138.656 392.05 141.453 391.811C139.418 391.219 137.401 390.577 135.401 389.885C135.421 390.364 115.5 387.215 109.288 396.984Z" fill="#263238"/>
<path d="M111.93 355.373C103.655 364.638 115.929 380.188 116.36 379.965C118.12 381.095 119.909 382.183 121.728 383.228C119.941 381.066 119.226 374.117 121.699 365.093C123.844 356.066 119.533 346.269 111.93 355.373Z" fill="#263238"/>
<path d="M89.1782 383.167C81.366 392.541 97.1499 397.817 104.862 391.787C112.633 386.137 118.867 383.161 121.645 383.385C119.756 382.468 117.888 381.503 116.047 380.493C116.002 380.973 96.9497 374.582 89.1782 383.167Z" fill="#263238"/>
<path d="M98.72 342.565C89.0158 350.326 98.5473 367.731 98.9994 367.574C100.545 368.981 102.126 370.35 103.74 371.68C102.346 369.256 102.805 362.288 106.751 353.805C110.379 345.269 107.745 334.87 98.72 342.565Z" fill="#263238"/>
<path d="M71.6314 366.155C62.3628 374.093 77.0775 381.971 85.6861 377.307C94.2947 373.036 100.936 371.14 103.631 371.822C101.925 370.604 100.249 369.345 98.6023 368.042C98.4879 368.518 80.7427 359.008 71.6314 366.155Z" fill="#263238"/>
<path d="M87.7657 327.596C76.8889 333.621 83.4504 352.516 83.919 352.419C85.2137 354.074 86.5491 355.695 87.9241 357.282C86.9495 354.652 88.5555 347.846 93.8586 340.131C98.8559 332.317 97.9616 321.543 87.7657 327.596Z" fill="#263238"/>
<path d="M57.0801 346.271C46.6037 352.54 59.8653 362.914 69.146 359.765C78.364 357.019 85.2423 356.275 87.7921 357.404C86.3093 355.914 84.8606 354.384 83.4471 352.815C83.2612 353.284 67.2738 340.793 57.0801 346.271Z" fill="#263238"/>
<path d="M76.1994 342.91C76.1246 343.233 62.0193 331.764 57.6237 322.835C53.0488 314.19 58.4553 308.708 62.7112 309.068C66.9957 309.36 69.9349 315.513 71.278 321.076C72.1635 326.68 75.8969 342.916 76.1994 342.91Z" fill="#263238"/>
<path d="M76.8755 342.973C76.8722 343.003 76.8678 343.033 76.8612 343.061C76.7974 343.341 76.5554 343.556 76.2705 343.589C76.2507 343.592 76.2287 343.59 76.2034 343.587C76.0142 343.592 75.869 343.59 75.7117 343.381C72.7802 341.741 60.7935 330.807 57.0172 323.134C54.7633 318.878 54.6115 314.692 56.6157 311.663C58.0567 309.483 60.4723 308.199 62.7691 308.393C68.5639 308.788 71.2523 318.079 71.9376 320.916C72.8044 326.381 76.21 341.159 76.7446 342.505C76.8447 342.64 76.8909 342.807 76.8755 342.973ZM56.5893 315.789C56.4276 317.511 56.7598 319.75 58.2239 322.518C61.6911 329.562 71.1731 338.104 74.9318 341.157C74.5688 339.779 74.065 337.622 73.2972 334.248C72.3094 329.901 71.084 324.186 70.6088 321.183C69.3196 315.855 66.5476 310.01 62.6657 309.746C60.8441 309.592 58.918 310.639 57.7454 312.412C57.2691 313.13 56.7334 314.253 56.5893 315.789Z" fill="#263238"/>
<path d="M179.623 256.615C160.122 256.646 144.322 271.661 144.322 290.18C144.322 290.273 144.322 290.366 144.323 290.458C144.41 300.532 152.788 308.626 162.859 308.374C164.424 308.335 166.092 308.416 167.76 308.684C171.097 309.222 173.681 311.18 175.434 313.443C176.402 314.693 177.856 315.482 179.436 315.489C179.498 315.489 179.561 315.489 179.622 315.489C179.684 315.489 179.747 315.489 179.808 315.489C181.389 315.483 182.844 314.693 183.811 313.443C185.562 311.18 188.146 309.222 191.485 308.684C193.153 308.415 194.821 308.334 196.385 308.374C206.457 308.625 214.834 300.532 214.921 290.458C214.922 290.366 214.922 290.273 214.922 290.18C214.925 271.661 199.125 256.646 179.623 256.615Z" fill="#35D36A"/>
<path d="M191.834 297.866L184.025 299.554L193.345 287.944L180.619 299.806L180.541 300.629L179.972 288.159L179.073 307.854L166.525 296.157L175.845 307.767L168.036 306.078L177.907 310.336L178.904 311.578L177.168 349.63H182.776L180.681 303.72L181.963 302.124L191.834 297.866Z" fill="#263238"/>
<path d="M169.121 287.67C169.121 287.67 167.948 284.318 165.434 283.144C162.919 281.971 161.244 281.636 161.244 281.636C161.244 281.636 162.584 288.508 169.121 287.67Z" fill="white"/>
<path d="M172.158 278.759C172.158 278.759 171.965 275.212 169.877 273.385C167.789 271.558 166.272 270.769 166.272 270.769C166.272 270.769 165.646 277.743 172.158 278.759Z" fill="white"/>
<path d="M200.096 305.916C200.096 305.916 197.846 303.167 195.083 302.925C192.319 302.683 190.629 302.94 190.629 302.94C190.629 302.94 194.239 308.939 200.096 305.916Z" fill="white"/>
<path d="M156.2 305.075C156.2 305.075 158.45 302.326 161.213 302.084C163.977 301.841 165.667 302.1 165.667 302.1C165.667 302.1 162.057 308.099 156.2 305.075Z" fill="white"/>
<path d="M162.269 275.742C162.269 275.742 162.075 272.196 159.987 270.369C157.899 268.542 156.382 267.753 156.382 267.753C156.382 267.753 155.757 274.726 162.269 275.742Z" fill="white"/>
<path d="M195.121 277.753C195.121 277.753 195.315 274.207 197.402 272.38C199.49 270.553 201.007 269.764 201.007 269.764C201.007 269.764 201.633 276.738 195.121 277.753Z" fill="white"/>
<path d="M178.766 273.192C178.766 273.192 180.815 270.29 180.31 267.562C179.805 264.834 179.105 263.274 179.105 263.274C179.105 263.274 174.288 268.356 178.766 273.192Z" fill="white"/>
<path d="M181.047 286.543C181.047 286.543 181.379 283.007 179.584 280.892C177.789 278.776 176.405 277.772 176.405 277.772C176.405 277.772 174.757 284.577 181.047 286.543Z" fill="white"/>
<path d="M172.611 270.39C172.611 270.39 173.672 267.001 172.356 264.558C171.039 262.116 169.895 260.845 169.895 260.845C169.895 260.845 166.867 267.158 172.611 270.39Z" fill="white"/>
<path d="M175.293 296.705C175.293 296.705 176.353 293.316 175.038 290.873C173.721 288.431 172.577 287.16 172.577 287.16C172.577 287.16 169.549 293.474 175.293 296.705Z" fill="white"/>
<path d="M183.238 292.724C183.238 292.724 186.238 290.823 186.812 288.109C187.386 285.394 187.333 283.686 187.333 283.686C187.333 283.686 180.942 286.547 183.238 292.724Z" fill="white"/>
<path d="M183.594 270.39C183.594 270.39 182.534 267.001 183.85 264.558C185.166 262.116 186.31 260.845 186.31 260.845C186.31 260.845 189.339 267.158 183.594 270.39Z" fill="white"/>
<path d="M187.776 278.912C187.776 278.912 190.769 276.999 191.332 274.282C191.896 271.565 191.837 269.856 191.837 269.856C191.837 269.856 185.457 272.742 187.776 278.912Z" fill="white"/>
<path d="M195.848 288.194C195.848 288.194 199.286 287.303 200.664 284.896C202.042 282.488 202.515 280.844 202.515 280.844C202.515 280.844 195.554 281.611 195.848 288.194Z" fill="white"/>
<path d="M196.619 296.486C196.619 296.486 199.844 297.973 202.436 296.982C205.028 295.991 206.433 295.019 206.433 295.019C206.433 295.019 200.563 291.205 196.619 296.486Z" fill="white"/>
<path d="M201.145 288.944C201.145 288.944 204.37 290.431 206.961 289.44C209.553 288.449 210.959 287.476 210.959 287.476C210.959 287.476 205.088 283.662 201.145 288.944Z" fill="white"/>
<path d="M155.994 293.762C155.994 293.762 158.161 296.575 160.917 296.9C163.672 297.224 165.368 297.016 165.368 297.016C165.368 297.016 161.937 290.913 155.994 293.762Z" fill="white"/>
<path d="M148.954 284.04C148.954 284.04 151.121 286.855 153.877 287.178C156.632 287.503 158.329 287.295 158.329 287.295C158.329 287.295 154.897 281.191 148.954 284.04Z" fill="white"/>
<path d="M386.635 302.68C368.51 302.71 353.825 316.665 353.825 333.877C353.825 333.964 353.825 334.05 353.826 334.136C353.907 343.499 361.693 351.021 371.054 350.788C372.509 350.752 374.059 350.826 375.61 351.076C378.712 351.577 381.113 353.396 382.741 355.499C383.641 356.661 384.993 357.396 386.462 357.4C386.519 357.4 386.578 357.4 386.635 357.4C386.692 357.4 386.75 357.4 386.808 357.4C388.277 357.394 389.629 356.661 390.529 355.499C392.157 353.396 394.558 351.577 397.66 351.076C399.211 350.826 400.761 350.752 402.215 350.788C411.575 351.021 419.362 343.499 419.444 334.136C419.445 334.05 419.445 333.964 419.445 333.877C419.443 316.665 404.76 302.709 386.635 302.68Z" fill="#35D36A"/>
<path d="M397.983 341.02L390.726 342.588L399.387 331.799L387.56 342.824L387.486 343.587L386.958 331.999L386.123 350.303L374.461 339.431L383.121 350.222L375.863 348.653L385.039 352.611L385.965 353.764L384.352 389.131H389.564L387.618 346.462L388.808 344.978L397.983 341.02Z" fill="#263238"/>
<path d="M376.873 331.543C376.873 331.543 375.783 328.427 373.446 327.337C371.109 326.247 369.551 325.934 369.551 325.934C369.551 325.934 370.798 332.322 376.873 331.543Z" fill="white"/>
<path d="M379.696 323.261C379.696 323.261 379.517 319.966 377.576 318.267C375.635 316.569 374.225 315.836 374.225 315.836C374.225 315.836 373.644 322.318 379.696 323.261Z" fill="white"/>
<path d="M405.662 348.501C405.662 348.501 403.572 345.947 401.003 345.721C398.434 345.496 396.863 345.735 396.863 345.735C396.863 345.735 400.219 351.311 405.662 348.501Z" fill="white"/>
<path d="M364.864 347.721C364.864 347.721 366.955 345.166 369.524 344.941C372.092 344.717 373.663 344.956 373.663 344.956C373.663 344.956 370.307 350.532 364.864 347.721Z" fill="white"/>
<path d="M370.505 320.458C370.505 320.458 370.326 317.162 368.385 315.464C366.445 313.765 365.035 313.033 365.035 313.033C365.035 313.033 364.453 319.514 370.505 320.458Z" fill="white"/>
<path d="M401.039 322.327C401.039 322.327 401.218 319.032 403.159 317.333C405.099 315.635 406.509 314.902 406.509 314.902C406.509 314.902 407.091 321.383 401.039 322.327Z" fill="white"/>
<path d="M385.838 318.087C385.838 318.087 387.741 315.39 387.273 312.854C386.804 310.319 386.153 308.869 386.153 308.869C386.153 308.869 381.676 313.592 385.838 318.087Z" fill="white"/>
<path d="M387.957 330.496C387.957 330.496 388.266 327.209 386.598 325.244C384.929 323.278 383.643 322.344 383.643 322.344C383.643 322.344 382.111 328.669 387.957 330.496Z" fill="white"/>
<path d="M380.117 315.483C380.117 315.483 381.103 312.333 379.88 310.063C378.656 307.792 377.593 306.612 377.593 306.612C377.593 306.612 374.779 312.48 380.117 315.483Z" fill="white"/>
<path d="M382.609 339.942C382.609 339.942 383.595 336.791 382.372 334.521C381.148 332.251 380.085 331.07 380.085 331.07C380.085 331.07 377.271 336.939 382.609 339.942Z" fill="white"/>
<path d="M389.994 336.241C389.994 336.241 392.782 334.475 393.316 331.951C393.849 329.429 393.801 327.841 393.801 327.841C393.801 327.841 387.861 330.499 389.994 336.241Z" fill="white"/>
<path d="M390.325 315.483C390.325 315.483 389.339 312.333 390.562 310.063C391.785 307.792 392.849 306.612 392.849 306.612C392.849 306.612 395.664 312.48 390.325 315.483Z" fill="white"/>
<path d="M394.212 323.403C394.212 323.403 396.994 321.626 397.517 319.1C398.041 316.576 397.986 314.987 397.986 314.987C397.986 314.987 392.057 317.669 394.212 323.403Z" fill="white"/>
<path d="M401.714 332.032C401.714 332.032 404.91 331.203 406.19 328.965C407.471 326.726 407.911 325.2 407.911 325.2C407.911 325.2 401.442 325.912 401.714 332.032Z" fill="white"/>
<path d="M402.432 339.737C402.432 339.737 405.429 341.12 407.838 340.198C410.246 339.276 411.554 338.373 411.554 338.373C411.554 338.373 406.096 334.829 402.432 339.737Z" fill="white"/>
<path d="M406.638 332.727C406.638 332.727 409.635 334.11 412.044 333.188C414.453 332.266 415.76 331.363 415.76 331.363C415.76 331.363 410.302 327.819 406.638 332.727Z" fill="white"/>
<path d="M364.673 337.205C364.673 337.205 366.687 339.821 369.248 340.122C371.809 340.424 373.386 340.23 373.386 340.23C373.386 340.23 370.197 334.557 364.673 337.205Z" fill="white"/>
<path d="M358.13 328.17C358.13 328.17 360.144 330.785 362.705 331.087C365.266 331.388 366.843 331.195 366.843 331.195C366.843 331.195 363.654 325.522 358.13 328.17Z" fill="white"/>
<path d="M142.567 390.589C127.743 401.019 123.731 420.875 133.614 434.969C133.663 435.039 133.713 435.109 133.762 435.179C139.204 442.798 149.898 444.488 157.428 438.922C158.597 438.057 159.909 437.228 161.323 436.543C164.15 435.171 167.16 435.282 169.701 436.07C171.105 436.505 172.633 436.329 173.84 435.49C173.887 435.457 173.934 435.424 173.981 435.391C174.029 435.358 174.076 435.325 174.122 435.291C175.322 434.443 176.008 433.066 176.077 431.598C176.202 428.942 177.124 426.073 179.377 423.882C180.503 422.787 181.73 421.836 182.941 421.031C190.739 415.847 192.796 405.218 187.486 397.506C187.438 397.435 187.388 397.364 187.339 397.294C177.46 383.204 157.424 380.207 142.567 390.589Z" fill="#35D36A"/>
<path d="M173.87 415.466L168.829 420.917L169.725 407.11L166.371 422.927L166.75 423.595L159.663 414.41L169.489 429.876L153.699 427.67L166.985 431.533L160.142 434.414L169.925 432.388L171.347 432.802L190.33 462.684L194.597 459.691L168.507 425.873L168.631 423.973L173.87 415.466Z" fill="#263238"/>
<path d="M151.146 419.826C151.146 419.826 148.465 417.901 145.926 418.35C143.386 418.799 141.932 419.438 141.932 419.438C141.932 419.438 146.619 423.952 151.146 419.826Z" fill="white"/>
<path d="M148.703 411.425C148.703 411.425 146.663 408.829 144.099 408.553C141.535 408.277 139.96 408.486 139.96 408.486C139.96 408.486 143.205 414.127 148.703 411.425Z" fill="white"/>
<path d="M184.453 417.184C184.453 417.184 181.275 416.293 179.042 417.583C176.809 418.873 175.662 419.971 175.662 419.971C175.662 419.971 181.61 422.609 184.453 417.184Z" fill="white"/>
<path d="M150.6 439.967C150.6 439.967 150.845 436.675 152.818 435.016C154.792 433.356 156.216 432.652 156.216 432.652C156.216 432.652 156.669 439.143 150.6 439.967Z" fill="white"/>
<path d="M139.567 414.406C139.567 414.406 137.528 411.81 134.964 411.534C132.399 411.258 130.824 411.467 130.824 411.467C130.824 411.467 134.069 417.108 139.567 414.406Z" fill="white"/>
<path d="M165.641 398.407C165.641 398.407 163.895 395.605 164.509 393.1C165.123 390.596 165.856 389.187 165.856 389.187C165.856 389.187 170.054 394.16 165.641 398.407Z" fill="white"/>
<path d="M150.76 403.663C150.76 403.663 150.77 400.362 148.931 398.554C147.091 396.747 145.727 395.934 145.727 395.934C145.727 395.934 144.773 402.371 150.76 403.663Z" fill="white"/>
<path d="M159.62 412.606C159.62 412.606 157.986 409.737 155.491 409.086C152.997 408.433 151.408 408.408 151.408 408.408C151.408 408.408 153.783 414.466 159.62 412.606Z" fill="white"/>
<path d="M144.581 404.814C144.581 404.814 143.579 401.669 141.274 400.512C138.97 399.356 137.421 399.001 137.421 399.001C137.421 399.001 138.486 405.42 144.581 404.814Z" fill="white"/>
<path d="M160.663 423.41C160.663 423.41 159.661 420.265 157.356 419.108C155.052 417.952 153.503 417.595 153.503 417.595C153.503 417.595 154.568 424.016 160.663 423.41Z" fill="white"/>
<path d="M164.586 416.141C164.586 416.141 165.854 413.093 164.843 410.721C163.831 408.349 162.88 407.077 162.88 407.077C162.88 407.077 159.542 412.664 164.586 416.141Z" fill="white"/>
<path d="M152.939 398.953C152.939 398.953 150.323 396.939 150.022 394.379C149.72 391.818 149.914 390.24 149.914 390.24C149.914 390.24 155.586 393.43 152.939 398.953Z" fill="white"/>
<path d="M160.669 403.207C160.669 403.207 161.927 400.155 160.906 397.786C159.885 395.418 158.929 394.15 158.929 394.15C158.929 394.15 155.613 399.75 160.669 403.207Z" fill="white"/>
<path d="M171.765 405.965C171.765 405.965 173.906 403.453 173.67 400.884C173.433 398.317 172.917 396.814 172.917 396.814C172.917 396.814 168.029 401.111 171.765 405.965Z" fill="white"/>
<path d="M176.775 411.862C176.775 411.862 180.024 411.273 181.467 409.136C182.91 406.999 183.462 405.509 183.462 405.509C183.462 405.509 176.958 405.739 176.775 411.862Z" fill="white"/>
<path d="M176.195 403.708C176.195 403.708 179.444 403.119 180.887 400.982C182.33 398.845 182.881 397.355 182.881 397.355C182.881 397.355 176.378 397.585 176.195 403.708Z" fill="white"/>
<path d="M144.407 431.466C144.407 431.466 147.558 432.452 149.828 431.229C152.098 430.005 153.279 428.942 153.279 428.942C153.279 428.942 147.409 426.128 144.407 431.466Z" fill="white"/>
<path d="M133.861 427.825C133.861 427.825 137.012 428.811 139.282 427.588C141.553 426.364 142.732 425.301 142.732 425.301C142.732 425.301 136.864 422.486 133.861 427.825Z" fill="white"/>
<path d="M405.432 390.589C420.255 401.019 424.267 420.875 414.385 434.969C414.335 435.039 414.286 435.109 414.236 435.179C408.795 442.798 398.1 444.488 390.571 438.922C389.402 438.057 388.089 437.228 386.676 436.543C383.849 435.171 380.838 435.282 378.297 436.07C376.893 436.505 375.366 436.329 374.159 435.49C374.112 435.457 374.064 435.424 374.017 435.391C373.97 435.358 373.922 435.325 373.875 435.291C372.675 434.443 371.99 433.066 371.92 431.598C371.795 428.942 370.873 426.073 368.62 423.882C367.494 422.787 366.267 421.836 365.056 421.031C357.258 415.847 355.201 405.218 360.51 397.506C360.558 397.435 360.608 397.364 360.657 397.294C370.539 383.204 390.574 380.207 405.432 390.589Z" fill="#35D36A"/>
<path d="M374.128 415.466L379.169 420.917L378.272 407.11L381.627 422.927L381.248 423.595L388.334 414.41L378.509 429.876L394.299 427.67L381.013 431.533L387.856 434.414L378.072 432.388L376.651 432.802L357.668 462.684L353.4 459.691L379.491 425.873L379.368 423.973L374.128 415.466Z" fill="#263238"/>
<path d="M396.852 419.826C396.852 419.826 399.533 417.901 402.072 418.35C404.611 418.799 406.066 419.438 406.066 419.438C406.066 419.438 401.379 423.952 396.852 419.826Z" fill="white"/>
<path d="M399.296 411.425C399.296 411.425 401.335 408.829 403.899 408.553C406.463 408.277 408.038 408.486 408.038 408.486C408.038 408.486 404.793 414.127 399.296 411.425Z" fill="white"/>
<path d="M363.545 417.184C363.545 417.184 366.723 416.293 368.956 417.583C371.189 418.873 372.336 419.971 372.336 419.971C372.336 419.971 366.388 422.609 363.545 417.184Z" fill="white"/>
<path d="M397.398 439.967C397.398 439.967 397.152 436.675 395.179 435.016C393.206 433.356 391.781 432.652 391.781 432.652C391.781 432.652 391.328 439.143 397.398 439.967Z" fill="white"/>
<path d="M408.432 414.406C408.432 414.406 410.471 411.81 413.035 411.534C415.599 411.258 417.174 411.467 417.174 411.467C417.174 411.467 413.928 417.108 408.432 414.406Z" fill="white"/>
<path d="M382.357 398.407C382.357 398.407 384.103 395.605 383.489 393.1C382.875 390.596 382.141 389.187 382.141 389.187C382.141 389.187 377.944 394.16 382.357 398.407Z" fill="white"/>
<path d="M397.238 403.663C397.238 403.663 397.228 400.362 399.068 398.554C400.908 396.747 402.272 395.934 402.272 395.934C402.272 395.934 403.227 402.371 397.238 403.663Z" fill="white"/>
<path d="M388.378 412.606C388.378 412.606 390.011 409.737 392.506 409.086C395.001 408.433 396.589 408.408 396.589 408.408C396.589 408.408 394.215 414.466 388.378 412.606Z" fill="white"/>
<path d="M403.417 404.814C403.417 404.814 404.419 401.669 406.724 400.512C409.028 399.356 410.577 399.001 410.577 399.001C410.577 399.001 409.513 405.42 403.417 404.814Z" fill="white"/>
<path d="M387.335 423.41C387.335 423.41 388.337 420.265 390.642 419.108C392.946 417.952 394.495 417.595 394.495 417.595C394.495 417.595 393.43 424.016 387.335 423.41Z" fill="white"/>
<path d="M383.412 416.141C383.412 416.141 382.144 413.093 383.155 410.721C384.167 408.349 385.118 407.077 385.118 407.077C385.118 407.077 388.456 412.664 383.412 416.141Z" fill="white"/>
<path d="M395.059 398.954C395.059 398.954 397.674 396.939 397.976 394.379C398.277 391.818 398.084 390.24 398.084 390.24C398.084 390.24 392.411 393.43 395.059 398.954Z" fill="white"/>
<path d="M387.329 403.207C387.329 403.207 386.072 400.155 387.093 397.786C388.114 395.418 389.07 394.15 389.07 394.15C389.07 394.15 392.385 399.75 387.329 403.207Z" fill="white"/>
<path d="M376.234 405.965C376.234 405.965 374.093 403.453 374.33 400.884C374.566 398.317 375.083 396.814 375.083 396.814C375.083 396.814 379.969 401.111 376.234 405.965Z" fill="white"/>
<path d="M371.222 411.862C371.222 411.862 367.974 411.274 366.53 409.136C365.087 406.999 364.536 405.51 364.536 405.51C364.536 405.51 371.039 405.739 371.222 411.862Z" fill="white"/>
<path d="M371.803 403.708C371.803 403.708 368.555 403.119 367.112 400.982C365.668 398.845 365.116 397.355 365.116 397.355C365.116 397.355 371.62 397.585 371.803 403.708Z" fill="white"/>
<path d="M403.591 431.466C403.591 431.466 400.441 432.452 398.17 431.229C395.9 430.005 394.721 428.942 394.721 428.942C394.721 428.942 400.588 426.128 403.591 431.466Z" fill="white"/>
<path d="M414.136 427.825C414.136 427.825 410.986 428.811 408.715 427.588C406.445 426.364 405.265 425.301 405.265 425.301C405.265 425.301 411.133 422.486 414.136 427.825Z" fill="white"/>
<path d="M303.074 507.534C366.122 492.352 404.924 428.935 389.743 365.887C374.561 302.839 311.144 264.035 248.097 279.217C185.049 294.398 146.247 357.816 161.428 420.864C176.61 483.912 240.027 522.715 303.074 507.534Z" fill="#A3A3A3"/>
<path d="M252.008 502.023C258.25 503.382 264.65 504.209 271.148 504.464" stroke="#263238" stroke-width="1.1" stroke-miterlimit="10" stroke-linecap="round" stroke-linejoin="round"/>
<path d="M237.613 497.852C240.796 499.013 244.037 500.029 247.328 500.897" stroke="#263238" stroke-width="1.1" stroke-miterlimit="10" stroke-linecap="round" stroke-linejoin="round"/>
<path d="M168.664 362.968C163.756 380.164 162.938 398.794 167.087 417.479C175.294 454.435 201.02 482.974 233.591 496.298" stroke="#263238" stroke-width="1.1" stroke-miterlimit="10" stroke-linecap="round" stroke-linejoin="round"/>
<path d="M183.609 330.991C179.599 336.905 176.159 343.199 173.344 349.785" stroke="#263238" stroke-width="1.1" stroke-miterlimit="10" stroke-linecap="round" stroke-linejoin="round"/>
<path d="M259.679 341.232L271.648 343.713L275.729 347.945L281.049 348.762L282.741 353.811L281.501 357.225L277.873 358.888L268.987 357.435L268.745 356.347L272.947 353.416L270.046 348.065L262.097 346.975L257.865 343.347L259.679 341.232Z" fill="white"/>
<path d="M356.149 451.697L346.658 450.094L335.202 448.641L326.768 450.514L318.516 450.634L310.233 454.472L305.396 455.831L302.403 456.496L297.416 461.029L292.458 464.413L284.085 461.419L284.298 453.379L279.25 452.501L273.81 453.709L272.45 451.442L271.907 446.424L269.399 444.126L265.71 445.517L265.226 448.479L260.661 449.778L255.493 445.787L252.411 439.62L254.8 431.097L262.811 429.889L265.41 431.31L268.675 430.585L272.211 427.23L275.99 427.534L282.759 434.88L284.603 434.184L282.669 428.047L280.312 425.146L279.708 419.856L288.807 413.268L287.933 402.899L291.5 398.396L293.647 391.352L296.246 390.204L301.597 384.734L301.385 382.496L297.093 383.735L295.794 381.74L292.801 382.404L288.418 384.519L289.808 380.499L298.726 375.663L300.358 372.732L305.496 377.871L308.489 379.776L312.057 377.842L309.639 374.669L303.019 371.856L294.858 365.96L287.029 362.846L280.259 363.208L276.269 360.668L271.674 360.546L271.372 361.755L272.58 369.765L274.272 372.243L273.757 381.493L267.349 378.348L267.32 374.359L261.002 372.907L257.889 370.458L257.74 363.354L264.361 355.889L263.454 349.238L260.522 350.175L258.074 348.149L256.352 344.249L254.387 344.4L254.266 348.995L251.394 350.204L247.919 340.983L245.441 340.107L241.269 339.32L237.4 342.464L243.989 346.424L246.104 350.808L234.678 345.636L226.246 339.801L224.07 332.576L216.513 331.971L211.856 336.717C211.856 336.717 209.498 338.953 208.258 339.799C207.019 340.645 201.971 342.338 201.971 342.338L201.91 347.204L195.713 348.865L196.922 351.737L207.351 351.134L213.788 355.699L215.902 365.221L214.782 374.319L217.32 383.176L212.663 398.199L215.441 418.421L220.428 429.304L225.898 437.224L230.1 436.862L227.773 432.81L224.873 430.028L222.183 424.346L224.511 423.258L230.494 432.207L235.148 440.308L236.719 447.381L243.278 452.491L254.038 457.238L269.031 457.905L274.29 461.019L278.522 464.647L284.084 466.552L290.432 466.854L296.356 465.254C296.356 465.254 296.688 468.035 296.991 469.395C297.293 470.756 294.512 476.226 294.512 476.226L292.727 482.332L296.233 487.835L302.763 488.953L313.13 495.786L317.301 496.573L318.208 500.654L319.105 502.449C339.979 494.151 357.477 480.244 370.2 462.916L369.903 460.913L374.288 445.951L370.207 444.288L356.149 451.697Z" fill="white"/>
<path d="M360.579 337.952L356.439 333.447L351.301 328.308L348.4 320.388L353.477 320.117L353.145 317.336L349.548 317.849L352.239 315.824L355.08 313.195L354.476 310.475L350.245 306.847L348.247 301.147C321.519 280.117 285.92 270.808 250.129 278.755C233.859 282.369 219.14 289.202 206.478 298.427L213.738 301.477L211.017 307.219L206.089 309.455L207.176 316.922L205.181 318.221L203.125 321.818L204.485 326.655L209.23 326.172L208.352 331.22L212.978 330.192L218.632 318.374L218.481 313.84L225.977 311.605L227.157 307.916L234.865 305.348L234.654 300.542L240.307 299.001C240.307 299.001 243.904 295.918 244.72 295.737C245.537 295.556 249.647 296.07 249.647 296.07L254.453 298.429L260.167 297.161L264.399 293.081L270.777 292.235C270.777 292.235 272.652 292.961 274.011 292.658C275.372 292.356 279.029 289.545 279.029 289.545L288.006 292.69L291.815 294.414L292.721 298.495L296.923 298.133L297.739 295.383L301.639 296.23L301.85 298.466L294.172 302.455L300.126 307.413L311.128 310.678L316.417 315.213L322.523 314.427L323.279 311.405L325.335 310.377L317.053 306.506L312.579 306.929L315.874 305.055L311.582 301.156L316.147 299.857L322.857 301.793L325.667 308.02L329.446 310.892L333.647 318.238L340.599 321.262L342.593 330.24L349.756 332.932L350.149 335.984L350.118 339.702L352.838 344.236L353.926 346.564L358.732 346.353L359.882 341.244L360.579 337.952Z" fill="white"/>
<path d="M358.029 309.759L358.375 311.321L357.981 315.976L359.644 319.604L362.878 320.027L364.026 325.196L360.459 324.562L362.905 339.434L360.969 346.144L364.837 353.278L369.099 355.758L372.362 370.449L378.436 381.09L384.178 388.95L390.798 389.193L391.766 383.269L392.498 382.378C392.041 377.579 391.286 372.756 390.215 367.929C385.12 344.979 373.625 325.105 358.029 309.759Z" fill="white"/>
<path d="M294.806 322.013L275.098 318.11L267.269 320.134L266.512 325.726L262.462 322.915L256.779 325.604L258.229 334.702L263.912 337.152L266.3 331.198L271.287 334.373L281.352 339.845L284.737 347.372L293.803 354.779L304.807 350.337L303.628 346.316L300.153 342.235L297.192 331.474L298.886 326.245L294.806 322.013Z" fill="white"/>
<path d="M310.826 324.735L306.504 324.553L303.632 328.331L307.288 335.798L310.825 335.013L310.826 324.735Z" fill="white"/>
<path d="M337.275 324.285L326.937 321.443L324.308 318.601L322.312 319.901L325.426 324.919L328.629 331.63L333.072 332.355L333.646 331.087L330.292 327.549L337.97 328.699L337.275 324.285Z" fill="white"/>
<path d="M279.645 440.14L278.799 441.47L287.504 442.105L291.614 445.189L296.905 444.586L298.145 441.17L291.645 441.471L279.645 440.14Z" fill="white"/>
<path d="M305.006 439.932L299.655 442.832L300.954 444.828L308.028 443.257L308.905 440.779L306.517 441.594L305.006 439.932Z" fill="white"/>
<path d="M303.074 507.534C366.122 492.352 404.924 428.935 389.743 365.887C374.561 302.839 311.144 264.035 248.097 279.217C185.049 294.398 146.247 357.816 161.428 420.864C176.61 483.912 240.027 522.715 303.074 507.534Z" stroke="#263238" stroke-width="1.1" stroke-miterlimit="10" stroke-linecap="round" stroke-linejoin="round"/>
<path d="M285.79 286.97C271.954 286.992 260.745 297.646 260.745 310.784C260.745 310.85 260.745 310.916 260.746 310.981C260.808 318.128 266.752 323.871 273.897 323.693C275.007 323.665 276.19 323.722 277.374 323.913C279.742 324.294 281.575 325.684 282.818 327.29C283.504 328.176 284.536 328.737 285.658 328.741C285.702 328.741 285.746 328.741 285.79 328.741C285.834 328.741 285.878 328.741 285.922 328.741C287.044 328.736 288.076 328.176 288.762 327.29C290.005 325.684 291.838 324.295 294.206 323.913C295.39 323.722 296.573 323.665 297.683 323.693C304.829 323.871 310.772 318.129 310.834 310.981C310.834 310.916 310.835 310.85 310.835 310.784C310.836 297.646 299.627 286.993 285.79 286.97Z" fill="#35D36A"/>
<path d="M294.453 316.237L288.914 317.435L295.525 309.198L286.496 317.614L286.441 318.198L286.037 309.351L285.4 323.324L276.498 315.026L283.109 323.262L277.568 322.065L284.572 325.085L285.279 325.966L284.048 352.962H288.027L286.541 320.392L287.45 319.258L294.453 316.237Z" fill="#263238"/>
<path d="M278.34 309.003C278.34 309.003 277.507 306.625 275.724 305.792C273.94 304.96 272.751 304.722 272.751 304.722C272.751 304.722 273.701 309.598 278.34 309.003Z" fill="white"/>
<path d="M280.494 302.682C280.494 302.682 280.356 300.166 278.876 298.869C277.395 297.572 276.318 297.013 276.318 297.013C276.318 297.013 275.874 301.961 280.494 302.682Z" fill="white"/>
<path d="M300.314 321.949C300.314 321.949 298.718 319.999 296.758 319.827C294.797 319.656 293.599 319.838 293.599 319.838C293.599 319.838 296.159 324.094 300.314 321.949Z" fill="white"/>
<path d="M269.171 321.353C269.171 321.353 270.767 319.403 272.727 319.231C274.689 319.059 275.888 319.242 275.888 319.242C275.888 319.242 273.327 323.498 269.171 321.353Z" fill="white"/>
<path d="M273.478 300.541C273.478 300.541 273.341 298.025 271.86 296.728C270.378 295.432 269.303 294.873 269.303 294.873C269.303 294.873 268.858 299.82 273.478 300.541Z" fill="white"/>
<path d="M296.785 301.969C296.785 301.969 296.923 299.453 298.403 298.156C299.885 296.86 300.961 296.3 300.961 296.3C300.961 296.3 301.405 301.248 296.785 301.969Z" fill="white"/>
<path d="M285.182 298.731C285.182 298.731 286.635 296.672 286.278 294.737C285.919 292.801 285.423 291.696 285.423 291.696C285.423 291.696 282.005 295.301 285.182 298.731Z" fill="white"/>
<path d="M286.801 308.205C286.801 308.205 287.038 305.696 285.764 304.195C284.49 302.694 283.509 301.982 283.509 301.982C283.509 301.982 282.337 306.81 286.801 308.205Z" fill="white"/>
<path d="M280.815 296.744C280.815 296.744 281.568 294.339 280.634 292.606C279.7 290.873 278.888 289.972 278.888 289.972C278.888 289.972 276.74 294.451 280.815 296.744Z" fill="white"/>
<path d="M282.718 315.414C282.718 315.414 283.47 313.009 282.536 311.276C281.602 309.543 280.79 308.642 280.79 308.642C280.79 308.642 278.642 313.122 282.718 315.414Z" fill="white"/>
<path d="M288.354 312.59C288.354 312.59 290.482 311.242 290.889 309.316C291.296 307.39 291.259 306.177 291.259 306.177C291.259 306.177 286.726 308.207 288.354 312.59Z" fill="white"/>
<path d="M288.608 296.744C288.608 296.744 287.855 294.339 288.789 292.606C289.723 290.873 290.535 289.972 290.535 289.972C290.535 289.972 292.683 294.451 288.608 296.744Z" fill="white"/>
<path d="M291.576 302.789C291.576 302.789 293.699 301.432 294.099 299.505C294.499 297.578 294.457 296.365 294.457 296.365C294.457 296.365 289.931 298.412 291.576 302.789Z" fill="white"/>
<path d="M297.302 309.376C297.302 309.376 299.741 308.744 300.719 307.035C301.697 305.327 302.032 304.161 302.032 304.161C302.032 304.161 297.094 304.704 297.302 309.376Z" fill="white"/>
<path d="M297.85 315.259C297.85 315.259 300.138 316.314 301.977 315.611C303.815 314.908 304.813 314.218 304.813 314.218C304.813 314.218 300.647 311.511 297.85 315.259Z" fill="white"/>
<path d="M301.061 309.907C301.061 309.907 303.349 310.962 305.188 310.259C307.026 309.556 308.024 308.867 308.024 308.867C308.024 308.867 303.858 306.161 301.061 309.907Z" fill="white"/>
<path d="M269.026 313.325C269.026 313.325 270.563 315.322 272.519 315.552C274.474 315.781 275.678 315.634 275.678 315.634C275.678 315.634 273.243 311.304 269.026 313.325Z" fill="white"/>
<path d="M264.031 306.428C264.031 306.428 265.568 308.425 267.524 308.655C269.478 308.884 270.683 308.737 270.683 308.737C270.683 308.737 268.248 304.407 264.031 306.428Z" fill="white"/>
<path d="M268.956 382.681C259.539 382.697 251.91 389.947 251.91 398.89C251.91 398.935 251.91 398.979 251.911 399.024C251.953 403.888 255.999 407.796 260.862 407.675C261.618 407.657 262.423 407.695 263.229 407.825C264.841 408.085 266.089 409.031 266.934 410.123C267.401 410.727 268.103 411.107 268.867 411.111C268.896 411.111 268.926 411.111 268.957 411.111C268.987 411.111 269.017 411.111 269.047 411.111C269.81 411.107 270.513 410.727 270.98 410.123C271.826 409.031 273.073 408.085 274.685 407.825C275.49 407.695 276.296 407.657 277.051 407.675C281.914 407.796 285.96 403.888 286.001 399.024C286.001 398.979 286.001 398.935 286.001 398.89C286.001 389.947 278.373 382.697 268.956 382.681Z" fill="#35D36A"/>
<path d="M274.852 402.6L271.082 403.415L275.581 397.809L269.437 403.537L269.399 403.934L269.124 397.913L268.69 407.424L262.631 401.775L267.131 407.382L263.36 406.567L268.126 408.623L268.608 409.222L267.77 427.596H270.478L269.466 405.427L270.086 404.656L274.852 402.6Z" fill="#263238"/>
<path d="M263.885 397.676C263.885 397.676 263.318 396.057 262.104 395.491C260.89 394.924 260.081 394.762 260.081 394.762C260.081 394.762 260.728 398.081 263.885 397.676Z" fill="white"/>
<path d="M265.351 393.374C265.351 393.374 265.258 391.662 264.25 390.779C263.241 389.897 262.51 389.517 262.51 389.517C262.51 389.517 262.206 392.884 265.351 393.374Z" fill="white"/>
<path d="M278.841 406.487C278.841 406.487 277.755 405.16 276.42 405.043C275.086 404.926 274.27 405.051 274.27 405.051C274.27 405.051 276.013 407.947 278.841 406.487Z" fill="white"/>
<path d="M257.645 406.082C257.645 406.082 258.73 404.754 260.066 404.637C261.4 404.519 262.216 404.645 262.216 404.645C262.216 404.645 260.473 407.542 257.645 406.082Z" fill="white"/>
<path d="M260.575 391.918C260.575 391.918 260.481 390.205 259.474 389.323C258.465 388.441 257.733 388.06 257.733 388.06C257.733 388.06 257.431 391.427 260.575 391.918Z" fill="white"/>
<path d="M276.439 392.888C276.439 392.888 276.533 391.175 277.541 390.293C278.549 389.411 279.281 389.03 279.281 389.03C279.281 389.03 279.584 392.397 276.439 392.888Z" fill="white"/>
<path d="M268.541 390.686C268.541 390.686 269.53 389.285 269.287 387.968C269.043 386.65 268.705 385.898 268.705 385.898C268.705 385.898 266.38 388.351 268.541 390.686Z" fill="white"/>
<path d="M269.643 397.133C269.643 397.133 269.803 395.426 268.937 394.404C268.07 393.382 267.402 392.898 267.402 392.898C267.402 392.898 266.605 396.184 269.643 397.133Z" fill="white"/>
<path d="M265.569 389.333C265.569 389.333 266.081 387.696 265.446 386.517C264.811 385.338 264.258 384.724 264.258 384.724C264.258 384.724 262.796 387.772 265.569 389.333Z" fill="white"/>
<path d="M266.865 402.04C266.865 402.04 267.376 400.403 266.741 399.224C266.106 398.045 265.553 397.431 265.553 397.431C265.553 397.431 264.09 400.48 266.865 402.04Z" fill="white"/>
<path d="M270.7 400.117C270.7 400.117 272.149 399.199 272.426 397.889C272.703 396.578 272.678 395.752 272.678 395.752C272.678 395.752 269.592 397.134 270.7 400.117Z" fill="white"/>
<path d="M270.874 389.333C270.874 389.333 270.362 387.696 270.997 386.517C271.633 385.338 272.185 384.724 272.185 384.724C272.185 384.724 273.648 387.772 270.874 389.333Z" fill="white"/>
<path d="M272.893 393.448C272.893 393.448 274.338 392.524 274.61 391.213C274.881 389.901 274.853 389.075 274.853 389.075C274.853 389.075 271.773 390.468 272.893 393.448Z" fill="white"/>
<path d="M276.79 397.931C276.79 397.931 278.449 397.5 279.115 396.338C279.78 395.175 280.009 394.382 280.009 394.382C280.009 394.382 276.648 394.752 276.79 397.931Z" fill="white"/>
<path d="M277.163 401.934C277.163 401.934 278.721 402.653 279.971 402.174C281.223 401.696 281.902 401.226 281.902 401.226C281.902 401.226 279.067 399.384 277.163 401.934Z" fill="white"/>
<path d="M279.349 398.291C279.349 398.291 280.906 399.01 282.157 398.531C283.409 398.053 284.087 397.583 284.087 397.583C284.087 397.583 281.252 395.742 279.349 398.291Z" fill="white"/>
<path d="M257.546 400.619C257.546 400.619 258.592 401.977 259.923 402.135C261.254 402.291 262.072 402.191 262.072 402.191C262.072 402.191 260.416 399.243 257.546 400.619Z" fill="white"/>
<path d="M254.146 395.924C254.146 395.924 255.193 397.283 256.524 397.44C257.855 397.596 258.673 397.496 258.673 397.496C258.673 397.496 257.016 394.549 254.146 395.924Z" fill="white"/>
<path d="M365.84 232.469C344.533 232.504 327.271 248.908 327.271 269.143C327.271 269.244 327.27 269.345 327.272 269.446C327.366 280.453 336.52 289.296 347.524 289.022C349.233 288.979 351.056 289.067 352.879 289.36C356.525 289.949 359.349 292.087 361.263 294.56C362.32 295.926 363.909 296.789 365.636 296.795C365.703 296.795 365.772 296.795 365.84 296.795C365.908 296.795 365.975 296.795 366.043 296.795C367.77 296.789 369.36 295.926 370.417 294.56C372.331 292.087 375.153 289.949 378.801 289.36C380.624 289.067 382.446 288.979 384.156 289.022C395.159 289.297 404.313 280.454 404.408 269.446C404.409 269.345 404.409 269.244 404.409 269.143C404.409 248.909 387.148 232.504 365.84 232.469Z" fill="#35D36A"/>
<path d="M379.182 277.539L370.65 279.384L380.832 266.699L366.928 279.66L366.842 280.558L366.221 266.935L365.24 288.453L351.53 275.672L361.712 288.357L353.18 286.513L363.965 291.166L365.054 292.522L363.157 334.096H369.285L366.996 283.936L368.397 282.192L379.182 277.539Z" fill="#263238"/>
<path d="M354.366 266.399C354.366 266.399 353.085 262.736 350.337 261.455C347.59 260.173 345.759 259.807 345.759 259.807C345.759 259.807 347.224 267.315 354.366 266.399Z" fill="white"/>
<path d="M357.684 256.664C357.684 256.664 357.473 252.789 355.191 250.793C352.91 248.797 351.253 247.936 351.253 247.936C351.253 247.936 350.569 255.554 357.684 256.664Z" fill="white"/>
<path d="M388.208 286.334C388.208 286.334 385.75 283.331 382.731 283.066C379.711 282.801 377.864 283.084 377.864 283.084C377.864 283.084 381.81 289.638 388.208 286.334Z" fill="white"/>
<path d="M340.248 285.417C340.248 285.417 342.705 282.414 345.725 282.149C348.744 281.884 350.591 282.167 350.591 282.167C350.591 282.167 346.647 288.72 340.248 285.417Z" fill="white"/>
<path d="M346.878 253.367C346.878 253.367 346.667 249.492 344.385 247.497C342.104 245.5 340.447 244.639 340.447 244.639C340.447 244.639 339.764 252.257 346.878 253.367Z" fill="white"/>
<path d="M382.773 255.565C382.773 255.565 382.985 251.69 385.266 249.694C387.547 247.698 389.204 246.837 389.204 246.837C389.204 246.837 389.888 254.455 382.773 255.565Z" fill="white"/>
<path d="M364.904 250.581C364.904 250.581 367.141 247.411 366.59 244.43C366.039 241.449 365.274 239.745 365.274 239.745C365.274 239.745 360.011 245.297 364.904 250.581Z" fill="white"/>
<path d="M367.396 265.169C367.396 265.169 367.759 261.306 365.797 258.995C363.836 256.684 362.325 255.586 362.325 255.586C362.325 255.586 360.523 263.02 367.396 265.169Z" fill="white"/>
<path d="M358.179 247.52C358.179 247.52 359.337 243.816 357.9 241.148C356.462 238.479 355.211 237.092 355.211 237.092C355.211 237.092 351.903 243.989 358.179 247.52Z" fill="white"/>
<path d="M361.108 276.272C361.108 276.272 362.267 272.568 360.829 269.899C359.391 267.231 358.141 265.844 358.141 265.844C358.141 265.844 354.833 272.742 361.108 276.272Z" fill="white"/>
<path d="M369.789 271.922C369.789 271.922 373.067 269.845 373.694 266.879C374.321 263.913 374.264 262.046 374.264 262.046C374.264 262.046 367.283 265.173 369.789 271.922Z" fill="white"/>
<path d="M370.178 247.52C370.178 247.52 369.02 243.816 370.458 241.148C371.895 238.479 373.146 237.092 373.146 237.092C373.146 237.092 376.455 243.989 370.178 247.52Z" fill="white"/>
<path d="M374.75 256.83C374.75 256.83 378.02 254.74 378.635 251.772C379.251 248.805 379.186 246.938 379.186 246.938C379.186 246.938 372.216 250.089 374.75 256.83Z" fill="white"/>
<path d="M383.568 266.973C383.568 266.973 387.324 266 388.829 263.369C390.334 260.737 390.851 258.942 390.851 258.942C390.851 258.942 383.246 259.779 383.568 266.973Z" fill="white"/>
<path d="M384.41 276.032C384.41 276.032 387.933 277.658 390.765 276.574C393.596 275.491 395.133 274.429 395.133 274.429C395.133 274.429 388.718 270.262 384.41 276.032Z" fill="white"/>
<path d="M389.354 267.791C389.354 267.791 392.878 269.416 395.709 268.333C398.541 267.249 400.077 266.188 400.077 266.188C400.077 266.188 393.662 262.021 389.354 267.791Z" fill="white"/>
<path d="M340.023 273.055C340.023 273.055 342.391 276.13 345.401 276.485C348.412 276.839 350.266 276.612 350.266 276.612C350.266 276.612 346.517 269.943 340.023 273.055Z" fill="white"/>
<path d="M332.332 262.434C332.332 262.434 334.699 265.508 337.71 265.863C340.721 266.218 342.574 265.99 342.574 265.99C342.574 265.99 338.825 259.322 332.332 262.434Z" fill="white"/>
<path d="M231.593 336.775C213.467 336.805 198.783 350.759 198.783 367.972C198.783 368.058 198.783 368.145 198.784 368.231C198.865 377.594 206.651 385.116 216.012 384.882C217.467 384.846 219.017 384.921 220.568 385.171C223.67 385.671 226.071 387.49 227.699 389.594C228.599 390.755 229.951 391.489 231.42 391.494C231.477 391.494 231.536 391.494 231.593 391.494C231.65 391.494 231.708 391.494 231.766 391.494C233.235 391.489 234.587 390.755 235.486 389.594C237.114 387.49 239.515 385.671 242.617 385.171C244.168 384.921 245.718 384.846 247.172 384.882C256.533 385.116 264.319 377.594 264.4 368.231C264.401 368.145 264.402 368.059 264.402 367.972C264.403 350.76 249.718 336.805 231.593 336.775Z" fill="#35D36A"/>
<path d="M242.941 375.115L235.685 376.684L244.345 365.894L232.518 376.919L232.445 377.683L231.916 366.094L231.081 384.398L219.419 373.527L228.08 384.318L220.823 382.748L229.998 386.706L230.924 387.86L229.31 423.226H234.522L232.576 380.557L233.767 379.073L242.941 375.115Z" fill="#263238"/>
<path d="M221.831 365.639C221.831 365.639 220.741 362.524 218.404 361.433C216.067 360.342 214.509 360.03 214.509 360.03C214.509 360.03 215.756 366.418 221.831 365.639Z" fill="white"/>
<path d="M224.654 357.357C224.654 357.357 224.475 354.061 222.535 352.363C220.594 350.665 219.184 349.932 219.184 349.932C219.184 349.932 218.602 356.413 224.654 357.357Z" fill="white"/>
<path d="M250.62 382.597C250.62 382.597 248.53 380.041 245.961 379.817C243.392 379.591 241.821 379.831 241.821 379.831C241.821 379.831 245.177 385.407 250.62 382.597Z" fill="white"/>
<path d="M209.822 381.817C209.822 381.817 211.912 379.261 214.482 379.037C217.05 378.811 218.621 379.051 218.621 379.051C218.621 379.051 215.265 384.627 209.822 381.817Z" fill="white"/>
<path d="M215.463 354.553C215.463 354.553 215.284 351.256 213.343 349.559C211.403 347.861 209.993 347.128 209.993 347.128C209.993 347.128 209.411 353.609 215.463 354.553Z" fill="white"/>
<path d="M245.998 356.423C245.998 356.423 246.177 353.127 248.118 351.429C250.058 349.731 251.468 348.998 251.468 348.998C251.468 348.998 252.05 355.478 245.998 356.423Z" fill="white"/>
<path d="M230.796 352.183C230.796 352.183 232.699 349.485 232.23 346.95C231.761 344.414 231.11 342.965 231.11 342.965C231.11 342.965 226.634 347.688 230.796 352.183Z" fill="white"/>
<path d="M232.916 364.592C232.916 364.592 233.225 361.305 231.557 359.339C229.888 357.374 228.602 356.44 228.602 356.44C228.602 356.44 227.07 362.765 232.916 364.592Z" fill="white"/>
<path d="M225.074 349.578C225.074 349.578 226.06 346.427 224.837 344.157C223.613 341.887 222.55 340.706 222.55 340.706C222.55 340.706 219.736 346.576 225.074 349.578Z" fill="white"/>
<path d="M227.567 374.037C227.567 374.037 228.553 370.887 227.33 368.617C226.107 366.346 225.043 365.166 225.043 365.166C225.043 365.166 222.229 371.033 227.567 374.037Z" fill="white"/>
<path d="M234.951 370.337C234.951 370.337 237.74 368.57 238.273 366.047C238.807 363.524 238.758 361.936 238.758 361.936C238.758 361.936 232.819 364.595 234.951 370.337Z" fill="white"/>
<path d="M235.284 349.578C235.284 349.578 234.298 346.427 235.521 344.157C236.744 341.887 237.808 340.706 237.808 340.706C237.808 340.706 240.622 346.576 235.284 349.578Z" fill="white"/>
<path d="M239.171 357.499C239.171 357.499 241.953 355.721 242.476 353.197C243 350.672 242.945 349.084 242.945 349.084C242.945 349.084 237.016 351.765 239.171 357.499Z" fill="white"/>
<path d="M246.672 366.126C246.672 366.126 249.868 365.298 251.148 363.059C252.429 360.821 252.869 359.294 252.869 359.294C252.869 359.294 246.401 360.008 246.672 366.126Z" fill="white"/>
<path d="M247.389 373.833C247.389 373.833 250.386 375.216 252.795 374.294C255.204 373.373 256.511 372.469 256.511 372.469C256.511 372.469 251.054 368.925 247.389 373.833Z" fill="white"/>
<path d="M251.596 366.823C251.596 366.823 254.593 368.205 257.002 367.283C259.411 366.362 260.718 365.458 260.718 365.458C260.718 365.458 255.261 361.914 251.596 366.823Z" fill="white"/>
<path d="M209.632 371.301C209.632 371.301 211.646 373.916 214.207 374.218C216.768 374.519 218.345 374.326 218.345 374.326C218.345 374.326 215.155 368.653 209.632 371.301Z" fill="white"/>
<path d="M203.089 362.265C203.089 362.265 205.103 364.881 207.664 365.182C210.225 365.484 211.802 365.29 211.802 365.29C211.802 365.29 208.612 359.618 203.089 362.265Z" fill="white"/>
<path d="M328.815 388.985C310.69 389.015 296.005 402.97 296.005 420.182C296.005 420.268 296.005 420.355 296.006 420.441C296.086 429.804 303.873 437.326 313.233 437.093C314.687 437.056 316.237 437.131 317.788 437.381C320.89 437.881 323.291 439.701 324.919 441.804C325.819 442.966 327.171 443.699 328.641 443.705C328.698 443.705 328.756 443.705 328.813 443.705C328.871 443.705 328.929 443.705 328.986 443.705C330.456 443.699 331.808 442.966 332.707 441.804C334.335 439.701 336.737 437.881 339.839 437.381C341.39 437.131 342.94 437.056 344.394 437.093C353.754 437.326 361.541 429.804 361.622 420.441C361.623 420.355 361.623 420.269 361.623 420.182C361.624 402.97 346.939 389.015 328.815 388.985Z" fill="#35D36A"/>
<path d="M340.163 427.325L332.906 428.894L341.567 418.103L329.739 429.129L329.667 429.893L329.138 418.304L328.303 436.609L316.641 425.737L325.302 436.527L318.044 434.959L327.218 438.917L328.146 440.07L326.532 475.436H331.744L329.798 432.766L330.989 431.283L340.163 427.325Z" fill="#263238"/>
<path d="M319.053 417.848C319.053 417.848 317.963 414.733 315.626 413.642C313.289 412.552 311.73 412.239 311.73 412.239C311.73 412.239 312.978 418.627 319.053 417.848Z" fill="white"/>
<path d="M321.876 409.567C321.876 409.567 321.697 406.272 319.756 404.573C317.816 402.875 316.406 402.142 316.406 402.142C316.406 402.142 315.824 408.624 321.876 409.567Z" fill="white"/>
<path d="M347.842 434.807C347.842 434.807 345.751 432.252 343.182 432.027C340.614 431.803 339.043 432.042 339.043 432.042C339.043 432.042 342.399 437.617 347.842 434.807Z" fill="white"/>
<path d="M307.044 434.026C307.044 434.026 309.134 431.471 311.704 431.246C314.272 431.021 315.843 431.26 315.843 431.26C315.843 431.26 312.487 436.836 307.044 434.026Z" fill="white"/>
<path d="M312.685 406.764C312.685 406.764 312.505 403.467 310.565 401.769C308.625 400.071 307.214 399.339 307.214 399.339C307.214 399.339 306.632 405.819 312.685 406.764Z" fill="white"/>
<path d="M343.219 408.632C343.219 408.632 343.398 405.336 345.34 403.638C347.28 401.94 348.689 401.207 348.689 401.207C348.689 401.207 349.272 407.689 343.219 408.632Z" fill="white"/>
<path d="M328.017 404.392C328.017 404.392 329.92 401.695 329.452 399.159C328.983 396.624 328.332 395.174 328.332 395.174C328.332 395.174 323.856 399.897 328.017 404.392Z" fill="white"/>
<path d="M330.138 416.802C330.138 416.802 330.447 413.515 328.778 411.55C327.11 409.584 325.824 408.65 325.824 408.65C325.824 408.65 324.292 414.974 330.138 416.802Z" fill="white"/>
<path d="M322.297 401.788C322.297 401.788 323.282 398.638 322.059 396.367C320.836 394.097 319.772 392.917 319.772 392.917C319.772 392.917 316.959 398.785 322.297 401.788Z" fill="white"/>
<path d="M324.789 426.247C324.789 426.247 325.775 423.096 324.551 420.826C323.328 418.556 322.264 417.375 322.264 417.375C322.264 417.375 319.451 423.244 324.789 426.247Z" fill="white"/>
<path d="M332.173 422.547C332.173 422.547 334.962 420.781 335.495 418.257C336.029 415.734 335.98 414.147 335.98 414.147C335.98 414.147 330.04 416.804 332.173 422.547Z" fill="white"/>
<path d="M332.505 401.788C332.505 401.788 331.52 398.638 332.743 396.367C333.966 394.097 335.03 392.917 335.03 392.917C335.03 392.917 337.844 398.785 332.505 401.788Z" fill="white"/>
<path d="M336.393 409.708C336.393 409.708 339.175 407.931 339.699 405.406C340.223 402.882 340.168 401.293 340.168 401.293C340.168 401.293 334.239 403.975 336.393 409.708Z" fill="white"/>
<path d="M343.894 418.337C343.894 418.337 347.09 417.508 348.37 415.27C349.65 413.031 350.09 411.505 350.09 411.505C350.09 411.505 343.622 412.217 343.894 418.337Z" fill="white"/>
<path d="M344.612 426.042C344.612 426.042 347.61 427.425 350.019 426.503C352.428 425.582 353.735 424.678 353.735 424.678C353.735 424.678 348.276 421.134 344.612 426.042Z" fill="white"/>
<path d="M348.817 419.032C348.817 419.032 351.815 420.415 354.224 419.493C356.632 418.571 357.94 417.668 357.94 417.668C357.94 417.668 352.483 414.124 348.817 419.032Z" fill="white"/>
<path d="M306.854 423.511C306.854 423.511 308.868 426.127 311.428 426.428C313.989 426.73 315.567 426.536 315.567 426.536C315.567 426.536 312.377 420.863 306.854 423.511Z" fill="white"/>
<path d="M300.31 414.476C300.31 414.476 302.324 417.091 304.884 417.393C307.445 417.694 309.023 417.501 309.023 417.501C309.023 417.501 305.834 411.828 300.31 414.476Z" fill="white"/>
<path d="M320.277 225.955C321.077 250.258 301.317 271.344 276.25 271.344C251.184 271.344 231.886 250.268 232.224 225.955C232.472 208.123 248.682 188.493 261.279 170.87C269.971 158.71 275.089 149.259 276.076 147.396C276.15 147.254 276.353 147.254 276.429 147.396C277.443 149.286 282.762 158.991 291.608 171.41C304.112 188.967 319.64 206.576 320.277 225.955Z" stroke="#263238" stroke-width="1.1" stroke-miterlimit="10"/>
<path opacity="0.2" d="M276.209 149.431C276.209 149.431 275.146 151.496 273.098 154.988C272.608 158.828 273.098 165.928 277.196 178.885C285.154 204.042 287.721 232.793 274.373 243.061C262.965 251.837 246.495 254.422 235.858 242.491C242.49 258.228 258.059 269.276 276.208 269.276C300.379 269.276 319.974 249.68 319.974 225.509C319.974 212.004 303.074 189.841 291.016 172.911C281.493 159.537 276.209 149.431 276.209 149.431Z" fill="black"/>
<path d="M289.744 226.218C295.916 226.218 300.921 219.713 300.921 211.687C300.921 203.662 295.916 197.156 289.744 197.156C283.571 197.156 278.566 203.662 278.566 211.687C278.566 219.713 283.571 226.218 289.744 226.218Z" fill="white"/>
<path d="M287.509 239.444C287.509 243.456 285.007 246.709 281.92 246.709C278.834 246.709 276.331 243.456 276.331 239.444C276.331 235.431 278.834 232.178 281.92 232.178C285.007 232.178 287.509 235.432 287.509 239.444Z" fill="white"/>
<path d="M252.742 217.51C249.633 226.981 244.161 233.688 240.519 232.493C236.877 231.297 236.443 222.651 239.551 213.18C242.659 203.709 248.132 197.001 251.774 198.197C255.416 199.393 255.85 208.039 252.742 217.51Z" fill="white"/>
<path d="M158.614 121.883L165.126 120.666C174.979 118.824 172.412 117.898 182.39 117.898H231.341V91.3374H182.015C171.309 91.3374 173.155 90.2726 162.606 88.154L158.615 87.3532L158.614 121.883Z" fill="#35D36A" stroke="#263238" stroke-width="1.1" stroke-miterlimit="10"/>
<path d="M182.86 114.922C172.155 114.922 174.001 115.818 163.451 117.599L159.46 118.272V113.48L163.451 112.806C174 111.025 172.155 110.13 182.86 110.13H232.186V114.921L182.86 114.922Z" fill="#263238" stroke="#263238" stroke-width="1.1" stroke-miterlimit="10"/>
<path d="M237.767 90.6345H260.442C271.804 90.6345 282.57 95.7231 289.781 104.503C295.36 111.296 298.411 119.813 298.411 128.603V144.605H266.203V129.962C266.203 123.627 261.067 118.49 254.732 118.49H235.156L237.767 90.6345Z" fill="#35D36A" stroke="#263238" stroke-width="1.1" stroke-miterlimit="10"/>
<path d="M271.07 138.226V122.483C271.07 116.951 265.842 112.466 259.392 112.466H239.757L239.462 115.423H257.654C263.541 115.423 268.314 119.908 268.314 125.44V138.226H271.07Z" fill="#263238" stroke="#263238" stroke-width="1.1" stroke-miterlimit="10"/>
<path d="M224.768 129.36H223.31C214.599 129.36 207.537 122.298 207.537 113.587V83.0192H240.54V113.587C240.54 122.299 233.478 129.36 224.768 129.36Z" fill="#35D36A" stroke="#263238" stroke-width="1.1" stroke-miterlimit="10"/>
<path d="M240.539 83.0192H207.536V88.583H240.539V83.0192Z" fill="#263238" stroke="#263238" stroke-width="1.1" stroke-miterlimit="10"/>
<path d="M224.037 121.159C215.707 121.159 208.953 115.156 208.953 107.75V112.332C208.953 119.738 215.706 125.741 224.037 125.741C232.368 125.741 239.122 119.737 239.122 112.332V107.75C239.122 115.156 232.368 121.159 224.037 121.159Z" fill="#263238" stroke="#263238" stroke-width="1.1" stroke-miterlimit="10"/>
<path d="M231.306 36.6795H217.327V63.3534H231.306V36.6795Z" fill="#35D36A" stroke="#263238" stroke-width="1.1" stroke-miterlimit="10"/>
<path d="M225.497 36.6795H219.19V63.3534H225.497V36.6795Z" fill="#263238" stroke="#263238" stroke-width="1.1" stroke-miterlimit="10"/>
<path d="M235.586 57.1329H213.048V61.3184H235.586V57.1329Z" fill="#35D36A" stroke="#263238" stroke-width="1.1" stroke-miterlimit="10"/>
<path d="M240.765 60.7508H207.866V80.7598H240.765V60.7508Z" fill="#35D36A" stroke="#263238" stroke-width="1.1" stroke-miterlimit="10"/>
<path d="M233.064 60.7508H215.57V80.7598H233.064V60.7508Z" fill="#35D36A" stroke="#263238" stroke-width="1.1" stroke-miterlimit="10"/>
<path d="M244.157 79.5124H204.477V85.5063H244.157V79.5124Z" fill="#35D36A" stroke="#263238" stroke-width="1.1" stroke-miterlimit="10"/>
<path d="M197.832 25.19C195.584 22.9372 192.477 21.5435 189.044 21.5435C182.186 21.5435 176.628 27.1018 176.628 33.9592C176.628 40.8166 182.186 46.3749 189.044 46.3749C192.388 46.3749 195.421 45.0505 197.653 42.9C204.283 38.8047 215.961 43.1607 215.961 43.1607V25.1636C206.739 29.513 198.522 25.5409 197.832 25.19Z" fill="#35D36A" stroke="#263238" stroke-width="1.1" stroke-miterlimit="10"/>
<path d="M259.589 21.5446C255.949 21.5446 252.676 23.111 250.404 25.6069C241.188 29.3931 233.232 25.1636 233.232 25.1636L232.461 43.1629C238.463 38.995 249.387 42.4688 251.16 43.0749C253.374 45.1231 256.334 46.3771 259.588 46.3771C266.445 46.3771 272.004 40.8177 272.004 33.9614C272.004 27.1051 266.447 21.5446 259.589 21.5446Z" fill="#35D36A" stroke="#263238" stroke-width="1.1" stroke-miterlimit="10"/>
<path d="M258.301 39.974C255.201 39.974 252.382 38.8872 250.272 37.1107C248.598 36.5904 238.358 33.6281 232.612 37.0997L232.462 40.2875C238.179 36.674 248.584 39.6858 250.273 40.2105C252.382 41.987 255.202 43.0738 258.302 43.0738C264.834 43.0738 270.128 38.2536 270.128 32.3092C270.128 31.7812 270.072 31.2664 269.992 30.7593C269.163 35.9678 264.253 39.974 258.301 39.974Z" fill="#263238" stroke="#263238" stroke-width="1.1" stroke-miterlimit="10"/>
<path d="M190.19 39.974C193.29 39.974 196.109 38.8872 198.218 37.1107C199.893 36.5904 210.133 33.6281 215.88 37.0997L216.029 40.2875C210.313 36.674 199.908 39.6858 198.218 40.2105C196.109 41.987 193.289 43.0738 190.19 43.0738C183.659 43.0738 178.364 38.2536 178.364 32.3092C178.364 31.7812 178.42 31.2664 178.501 30.7593C179.328 35.9678 184.238 39.974 190.19 39.974Z" fill="#263238" stroke="#263238" stroke-width="1.1" stroke-miterlimit="10"/>
<path d="M224.316 46.376C231.173 46.376 236.732 40.8173 236.732 33.9603C236.732 27.1033 231.173 21.5446 224.316 21.5446C217.459 21.5446 211.9 27.1033 211.9 33.9603C211.9 40.8173 217.459 46.376 224.316 46.376Z" fill="#35D36A" stroke="#263238" stroke-width="1.1" stroke-miterlimit="10"/>
<path d="M224.316 40.4206C219.137 40.4206 214.819 36.7367 213.838 31.8461C213.701 32.5292 213.627 33.2365 213.627 33.9603C213.627 39.8629 218.412 44.649 224.316 44.649C230.218 44.649 235.004 39.864 235.004 33.9603C235.004 33.2365 234.931 32.5303 234.793 31.8461C233.812 36.7367 229.494 40.4206 224.316 40.4206Z" fill="#263238" stroke="#263238" stroke-width="1.1" stroke-miterlimit="10"/>
<path d="M301.602 138.742H261.56V149.768H301.602V138.742Z" fill="#35D36A" stroke="#263238" stroke-width="1.1" stroke-miterlimit="10"/>
<path d="M301.602 142.354H261.56V146.156H301.602V142.354Z" fill="#35D36A" stroke="#263238" stroke-width="1.1" stroke-miterlimit="10"/>
<path d="M165.469 72.9146H151.331V140.605H165.469V72.9146Z" fill="#35D36A" stroke="#263238" stroke-width="1.1" stroke-miterlimit="10"/>
<path d="M284.375 104.768C286.391 107.681 286.779 110.905 285.243 111.969C283.705 113.034 280.824 111.534 278.808 108.622C276.791 105.709 276.403 102.485 277.94 101.42C279.478 100.357 282.359 101.856 284.375 104.768Z" fill="white"/>
<path d="M264.852 26.4099C266.32 28.5296 265.83 31.4116 263.758 32.846C261.685 34.2804 258.817 33.7249 257.348 31.6041C255.881 29.4844 256.37 26.6024 258.442 25.168C260.515 23.7336 263.384 24.2891 264.852 26.4099Z" fill="white"/>
<path d="M224.583 26.4099C226.05 28.5296 225.561 31.4116 223.488 32.846C221.416 34.2804 218.547 33.7249 217.079 31.6041C215.611 29.4844 216.101 26.6024 218.173 25.168C220.245 23.7336 223.114 24.2891 224.583 26.4099Z" fill="white"/>
<path d="M190.727 26.4099C192.195 28.5296 191.705 31.4116 189.633 32.846C187.56 34.2804 184.692 33.7249 183.223 31.6041C181.756 29.4844 182.245 26.6024 184.318 25.168C186.389 23.7336 189.259 24.2891 190.727 26.4099Z" fill="white"/>
<path d="M237.554 378.732C236.953 376.332 235.373 372.601 231.207 369.571C224.49 364.685 214.107 367.739 214.107 367.739C214.717 351.859 203.724 331.094 181.127 331.094C158.529 331.094 153.033 349.416 153.033 349.416C153.033 349.416 144.482 339.033 130.435 344.53C116.388 350.027 115.778 368.348 115.778 368.348C115.778 368.348 106.617 358.577 96.8446 361.631C88.753 364.159 86.1075 375.057 85.4365 378.731H237.554V378.732Z" fill="#263238"/>
<path d="M230.57 372.913C229.968 370.513 228.389 366.782 224.223 363.752C217.505 358.866 207.122 361.92 207.122 361.92C207.733 346.04 196.74 325.275 174.142 325.275C151.545 325.275 146.048 343.597 146.048 343.597C146.048 343.597 137.498 333.214 123.451 338.711C109.404 344.208 108.793 362.529 108.793 362.529C108.793 362.529 99.6327 352.757 89.8603 355.811C81.7687 358.34 79.1231 369.238 78.4521 372.912H230.57V372.913Z" fill="white" stroke="#263238" stroke-width="1.1" stroke-miterlimit="10"/>
<path d="M433.061 470.739C432.685 469.24 431.698 466.908 429.095 465.015C424.897 461.963 418.409 463.87 418.409 463.87C418.791 453.948 411.921 440.972 397.801 440.972C383.68 440.972 380.246 452.421 380.246 452.421C380.246 452.421 374.903 445.933 366.125 449.368C357.347 452.802 356.965 464.252 356.965 464.252C356.965 464.252 351.241 458.146 345.135 460.054C340.078 461.634 338.425 468.444 338.006 470.739H433.061Z" fill="#263238"/>
<path d="M426.077 466.561C425.701 465.061 424.714 462.729 422.11 460.836C417.913 457.783 411.425 459.691 411.425 459.691C411.807 449.769 404.937 436.793 390.816 436.793C376.696 436.793 373.262 448.242 373.262 448.242C373.262 448.242 367.919 441.754 359.141 445.189C350.364 448.623 349.981 460.073 349.981 460.073C349.981 460.073 344.257 453.967 338.151 455.875C333.094 457.456 331.441 464.265 331.021 466.561H426.077Z" fill="white" stroke="#263238" stroke-width="1.1" stroke-miterlimit="10"/>
</svg>
