<svg width="500" height="501" viewBox="0 0 500 501" fill="none" xmlns="http://www.w3.org/2000/svg">
<rect width="500" height="500" transform="translate(0 0.5)" fill="white"/>
<path d="M436.256 182.046C433.111 166.285 429.614 150.616 424.813 135.292C410.878 90.8081 383.137 45.7959 335.496 30.6638C300.335 19.4951 262.369 27.2029 232.649 49.9511C186.041 85.6247 152.121 134.279 101.119 165.193C58.5368 191.002 36.2434 232.692 50.5662 291.615C64.8889 350.538 112.702 384.866 165.012 380.647C208.515 377.138 253.989 380.886 291.594 402C325.195 420.866 384.576 404.488 433.698 352.918C462.308 322.88 459.538 284.689 450.215 248.974C444.466 226.958 440.717 204.41 436.256 182.046Z" fill="#35D36A"/>
<path opacity="0.7" d="M436.256 182.046C433.111 166.285 429.614 150.616 424.813 135.292C410.878 90.8081 383.137 45.7959 335.496 30.6638C300.335 19.4951 262.369 27.2029 232.649 49.9511C186.041 85.6247 152.121 134.279 101.119 165.193C58.5368 191.002 36.2434 232.692 50.5662 291.615C64.8889 350.538 112.702 384.866 165.012 380.647C208.515 377.138 253.989 380.886 291.594 402C325.195 420.866 384.576 404.488 433.698 352.918C462.308 322.88 459.538 284.689 450.215 248.974C444.466 226.958 440.717 204.41 436.256 182.046Z" fill="white"/>
<path d="M485.832 455.853C485.832 459.672 381.936 462.768 253.774 462.768C125.611 462.768 21.7151 459.672 21.7151 455.853C21.7151 452.034 125.611 448.939 253.774 448.939C381.936 448.939 485.832 452.034 485.832 455.853Z" fill="#35D36A"/>
<path opacity="0.3" d="M485.832 455.853C485.832 459.672 381.936 462.768 253.774 462.768C125.611 462.768 21.7151 459.672 21.7151 455.853C21.7151 452.034 125.611 448.939 253.774 448.939C381.936 448.939 485.832 452.034 485.832 455.853Z" fill="white"/>
<path d="M441.41 322.636C441.443 322.696 444.55 319.399 444.723 319.168C446.715 316.499 448.996 310.171 446.836 307.131C445.28 304.94 442.232 304.868 440.292 306.566C438.311 308.3 437.847 311.51 438.024 313.99C438.234 316.903 441.407 322.632 441.41 322.636Z" fill="#35D36A"/>
<path d="M469.963 311.273C466.907 309.136 460.597 311.463 457.942 313.476C457.713 313.65 454.439 316.781 454.5 316.814C454.5 316.814 454.556 316.845 454.57 316.852C453.571 317.211 452.504 317.609 451.347 318.067C449.218 318.929 446.819 319.922 444.281 321.18C441.742 322.429 439.018 323.858 436.286 325.623C433.544 327.389 430.751 329.384 428.138 331.814C428.109 331.841 428.082 331.874 428.051 331.902C428.594 330.955 430.026 328.253 430.112 328.033C431.33 324.933 431.859 318.227 428.973 315.866C426.894 314.164 423.935 314.899 422.512 317.049C421.059 319.245 421.46 322.462 422.286 324.809C423.218 327.455 427.433 331.84 427.77 332.188C425.303 334.524 422.962 337.122 420.736 339.881C419.462 341.457 418.229 343.086 417.011 344.732C417.455 343.897 417.845 343.148 417.887 343.038C419.104 339.938 419.634 333.232 416.748 330.872C414.669 329.17 411.71 329.905 410.287 332.054C408.834 334.249 409.235 337.467 410.061 339.814C410.9 342.194 414.418 346.005 415.363 347.001C414.903 347.638 414.436 348.269 413.979 348.907C411.782 351.971 409.605 355.038 407.375 357.979C406.59 359.017 405.779 360.009 404.972 361.005C405.364 360.263 405.689 359.634 405.73 359.534C406.947 356.434 407.477 349.729 404.59 347.367C402.511 345.665 399.553 346.4 398.13 348.55C396.676 350.744 397.077 353.963 397.903 356.309C398.704 358.581 401.92 362.127 403.037 363.317C402.178 364.312 401.32 365.309 400.444 366.236C399.831 366.855 399.284 367.493 398.634 368.079C398.002 368.675 397.378 369.263 396.759 369.846C395.526 370.925 394.26 372.046 393.031 373.068C392.181 373.786 391.358 374.454 390.531 375.13C391.324 374.106 392.835 372.07 392.942 371.885C394.054 369.972 395.099 366.443 394.949 363.473C395.115 363.192 395.255 362.897 395.365 362.588C396.235 360.161 395.05 357.352 392.443 356.707C388.823 355.809 383.77 360.251 382.017 363.082C381.913 363.249 380.994 365.187 380.434 366.418C380.653 365.644 380.875 364.895 381.09 364.095C381.528 362.517 381.918 360.928 382.343 359.221C382.521 358.39 382.698 357.55 382.879 356.702C383.076 355.864 383.177 354.955 383.331 354.073C383.645 352.022 383.865 349.929 384.04 347.814C385.424 348.193 390.356 349.471 392.825 349.094C395.284 348.719 398.312 347.557 399.565 345.242C400.791 342.974 400.048 340.02 397.567 338.985C394.125 337.551 388.458 341.174 386.296 343.708C386.161 343.866 384.814 345.858 384.095 346.967C384.191 345.696 384.291 344.427 384.346 343.137C384.502 339.414 384.546 335.641 384.606 331.877C384.623 330.724 384.655 329.575 384.682 328.425C385.174 328.566 391.002 330.212 393.769 329.789C396.227 329.413 399.255 328.252 400.509 325.936C401.735 323.669 400.991 320.713 398.511 319.68C395.068 318.244 389.402 321.869 387.24 324.401C387.077 324.592 385.143 327.461 384.687 328.215C384.748 325.682 384.831 323.16 385.016 320.676C385.265 317.248 385.698 313.899 386.358 310.685C386.587 310.751 392.663 312.495 395.496 312.064C397.955 311.688 400.984 310.527 402.236 308.212C403.462 305.944 402.719 302.988 400.238 301.955C396.796 300.52 391.13 304.143 388.967 306.676C388.825 306.842 387.348 309.028 386.671 310.083C386.564 310.038 386.583 310.046 386.475 310.001C387.224 306.566 388.381 303.334 389.615 300.361C390.325 298.638 391.101 297.031 391.891 295.484C392.989 295.925 398.031 297.885 400.625 297.778C403.11 297.675 406.247 296.852 407.747 294.689C409.215 292.571 408.799 289.55 406.449 288.251C403.185 286.446 397.154 289.427 394.727 291.707C394.595 291.831 393.394 293.24 392.532 294.279C392.898 293.587 393.265 292.864 393.631 292.208C394.995 289.74 396.396 287.564 397.653 285.645C398.376 284.561 399.053 283.594 399.693 282.697C400.996 282.567 406.243 281.979 408.455 280.712C410.612 279.476 413.018 277.3 413.352 274.688C413.678 272.131 411.918 269.642 409.232 269.572C405.504 269.476 401.526 274.899 400.422 278.04C400.326 278.312 399.323 282.73 399.391 282.724C399.391 282.724 399.455 282.718 399.469 282.716C398.835 283.567 398.164 284.488 397.452 285.507C396.152 287.401 394.698 289.553 393.275 292.001C391.847 294.444 390.363 297.138 389.057 300.117C387.744 303.101 386.515 306.308 385.676 309.775C385.666 309.814 385.661 309.857 385.653 309.896C385.583 308.806 385.286 305.764 385.237 305.533C384.543 302.276 381.285 296.391 377.575 296.013C374.901 295.741 372.839 297.987 372.837 300.565C372.836 303.198 374.946 305.66 376.929 307.161C379.166 308.855 385.101 310.187 385.575 310.291C384.806 313.601 384.286 317.06 383.952 320.588C383.759 322.605 383.627 324.644 383.522 326.688C383.432 325.747 383.343 324.907 383.319 324.791C382.623 321.534 379.367 315.649 375.656 315.271C372.983 314.999 370.922 317.244 370.92 319.822C370.919 322.455 373.029 324.918 375.012 326.418C377.026 327.941 382.062 329.178 383.4 329.488C383.368 330.273 383.326 331.056 383.297 331.841C383.155 335.608 383.031 339.368 382.795 343.051C382.713 344.35 382.583 345.625 382.46 346.902C382.378 346.066 382.303 345.363 382.28 345.258C381.586 342.001 378.328 336.116 374.617 335.738C371.944 335.466 369.883 337.711 369.881 340.29C369.88 342.922 371.99 345.385 373.974 346.886C375.895 348.34 380.534 349.523 382.121 349.899C381.954 351.202 381.79 352.507 381.57 353.763C381.4 354.617 381.296 355.451 381.077 356.298C380.879 357.143 380.682 357.978 380.488 358.806C380.054 360.386 379.617 362.02 379.155 363.55C378.843 364.617 378.524 365.628 378.208 366.648C378.306 365.357 378.442 362.825 378.429 362.612C378.236 359.287 375.908 352.978 372.297 352.042C369.697 351.368 367.318 353.274 366.927 355.822C366.527 358.424 368.238 361.178 369.972 362.962C371.88 364.927 377.313 367.081 377.994 367.345C377.463 369.031 376.93 370.665 376.403 372.198C374.589 377.521 372.875 381.885 371.636 384.918C371.592 385.026 371.551 385.122 371.509 385.226L373.731 386.449C373.808 386.249 373.884 386.056 373.966 385.842C375.153 382.747 376.787 378.303 378.502 372.89C379.049 371.181 379.598 369.344 380.144 367.451C380.609 367.51 383.258 367.825 385.768 367.809C386.444 370.54 389.562 375.018 389.969 375.593C388.597 376.705 387.251 377.775 385.966 378.764C381.516 382.203 377.678 384.897 374.972 386.743C374.861 386.819 374.762 386.885 374.655 386.958L377.098 388.303C379.74 386.402 383.277 383.779 387.334 380.5C388.732 379.375 390.204 378.147 391.703 376.869C392.247 377.336 396.714 381.125 399.348 381.885C401.738 382.575 404.974 382.788 407.082 381.21C409.145 379.665 409.708 376.67 407.889 374.692C405.364 371.947 398.7 372.863 395.676 374.258C395.498 374.34 393.661 375.449 392.515 376.167C393.125 375.643 393.722 375.139 394.343 374.592C395.579 373.516 396.781 372.407 398.078 371.218C398.685 370.622 399.297 370.02 399.914 369.411C400.54 368.822 401.127 368.119 401.742 367.468C403.136 365.932 404.474 364.306 405.786 362.638C406.731 363.718 410.139 367.504 412.407 368.553C414.665 369.595 417.831 370.298 420.154 369.057C422.428 367.842 423.438 364.967 421.94 362.736C419.859 359.641 413.134 359.537 409.934 360.457C409.735 360.515 407.512 361.433 406.301 361.961C407.082 360.952 407.865 359.95 408.622 358.905C410.807 355.886 412.924 352.763 415.051 349.656C415.702 348.704 416.362 347.764 417.02 346.82C417.351 347.208 421.306 351.796 423.846 352.971C426.104 354.015 429.27 354.716 431.593 353.476C433.867 352.26 434.876 349.385 433.378 347.154C431.298 344.059 424.572 343.955 421.373 344.874C421.132 344.944 417.936 346.27 417.139 346.647C418.587 344.568 420.049 342.51 421.573 340.539C423.672 337.817 425.881 335.263 428.205 332.946C428.359 333.127 432.465 337.934 435.067 339.137C437.325 340.181 440.491 340.883 442.814 339.642C445.088 338.428 446.098 335.551 444.599 333.322C442.52 330.226 435.793 330.122 432.593 331.043C432.383 331.103 429.947 332.111 428.799 332.617C428.735 332.52 428.747 332.538 428.681 332.44C431.199 329.989 433.949 327.932 436.616 326.132C438.16 325.087 439.693 324.174 441.205 323.32C441.878 324.295 445.002 328.71 447.225 330.051C449.354 331.336 452.424 332.381 454.869 331.405C457.263 330.447 458.583 327.699 457.339 325.318C455.611 322.012 448.938 321.171 445.656 321.734C445.478 321.764 443.698 322.276 442.406 322.667C443.094 322.292 443.798 321.892 444.464 321.546C446.964 320.241 449.332 319.198 451.439 318.292C452.641 317.787 453.737 317.353 454.768 316.958C455.927 317.57 460.627 319.973 463.171 320.137C465.653 320.296 468.859 319.809 470.578 317.815C472.26 315.859 472.165 312.812 469.963 311.273Z" fill="#35D36A"/>
<path d="M384.093 289.454C385.874 291.768 391.681 294.795 391.685 294.797C391.745 294.829 392.517 290.364 392.534 290.077C392.724 286.752 391.137 280.216 387.658 278.872C385.152 277.903 382.57 279.524 381.888 282.01C381.192 284.549 382.576 287.482 384.093 289.454Z" fill="#35D36A"/>
<g opacity="0.5">
<path d="M441.41 322.636C441.443 322.696 444.55 319.399 444.723 319.168C446.715 316.499 448.996 310.171 446.836 307.131C445.28 304.94 442.232 304.868 440.292 306.566C438.311 308.3 437.847 311.51 438.024 313.99C438.234 316.903 441.407 322.632 441.41 322.636Z" fill="white"/>
<path d="M469.963 311.273C466.907 309.136 460.597 311.463 457.942 313.476C457.713 313.65 454.439 316.781 454.5 316.814C454.5 316.814 454.556 316.845 454.57 316.852C453.571 317.211 452.504 317.609 451.347 318.067C449.218 318.929 446.819 319.922 444.281 321.18C441.742 322.429 439.018 323.858 436.286 325.623C433.544 327.389 430.751 329.384 428.138 331.814C428.109 331.841 428.082 331.874 428.051 331.902C428.594 330.955 430.026 328.253 430.112 328.033C431.33 324.933 431.859 318.227 428.973 315.866C426.894 314.164 423.935 314.899 422.512 317.049C421.059 319.245 421.46 322.462 422.286 324.809C423.218 327.455 427.433 331.84 427.77 332.188C425.303 334.524 422.962 337.122 420.736 339.881C419.462 341.457 418.229 343.086 417.011 344.732C417.455 343.897 417.845 343.148 417.887 343.038C419.104 339.938 419.634 333.232 416.748 330.872C414.669 329.17 411.71 329.905 410.287 332.054C408.834 334.249 409.235 337.467 410.061 339.814C410.9 342.194 414.418 346.005 415.363 347.001C414.903 347.638 414.436 348.269 413.979 348.907C411.782 351.971 409.605 355.038 407.375 357.979C406.59 359.017 405.779 360.009 404.972 361.005C405.364 360.263 405.689 359.634 405.73 359.534C406.947 356.434 407.477 349.729 404.59 347.367C402.511 345.665 399.553 346.4 398.13 348.55C396.676 350.744 397.077 353.963 397.903 356.309C398.704 358.581 401.92 362.127 403.037 363.317C402.178 364.312 401.32 365.309 400.444 366.236C399.831 366.855 399.284 367.493 398.634 368.079C398.002 368.675 397.378 369.263 396.759 369.846C395.526 370.925 394.26 372.046 393.031 373.068C392.181 373.786 391.358 374.454 390.531 375.13C391.324 374.106 392.835 372.07 392.942 371.885C394.054 369.972 395.099 366.443 394.949 363.473C395.115 363.192 395.255 362.897 395.365 362.588C396.235 360.161 395.05 357.352 392.443 356.707C388.823 355.809 383.77 360.251 382.017 363.082C381.913 363.249 380.994 365.187 380.434 366.418C380.653 365.644 380.875 364.895 381.09 364.095C381.528 362.517 381.918 360.928 382.343 359.221C382.521 358.39 382.698 357.55 382.879 356.702C383.076 355.864 383.177 354.955 383.331 354.073C383.645 352.022 383.865 349.929 384.04 347.814C385.424 348.193 390.356 349.471 392.825 349.094C395.284 348.719 398.312 347.557 399.565 345.242C400.791 342.974 400.048 340.02 397.567 338.985C394.125 337.551 388.458 341.174 386.296 343.708C386.161 343.866 384.814 345.858 384.095 346.967C384.191 345.696 384.291 344.427 384.346 343.137C384.502 339.414 384.546 335.641 384.606 331.877C384.623 330.724 384.655 329.575 384.682 328.425C385.174 328.566 391.002 330.212 393.769 329.789C396.227 329.413 399.255 328.252 400.509 325.936C401.735 323.669 400.991 320.713 398.511 319.68C395.068 318.244 389.402 321.869 387.24 324.401C387.077 324.592 385.143 327.461 384.687 328.215C384.748 325.682 384.831 323.16 385.016 320.676C385.265 317.248 385.698 313.899 386.358 310.685C386.587 310.751 392.663 312.495 395.496 312.064C397.955 311.688 400.984 310.527 402.236 308.212C403.462 305.944 402.719 302.988 400.238 301.955C396.796 300.52 391.13 304.143 388.967 306.676C388.825 306.842 387.348 309.028 386.671 310.083C386.564 310.038 386.583 310.046 386.475 310.001C387.224 306.566 388.381 303.334 389.615 300.361C390.325 298.638 391.101 297.031 391.891 295.484C392.989 295.925 398.031 297.885 400.625 297.778C403.11 297.675 406.247 296.852 407.747 294.689C409.215 292.571 408.799 289.55 406.449 288.251C403.185 286.446 397.154 289.427 394.727 291.707C394.595 291.831 393.394 293.24 392.532 294.279C392.898 293.587 393.265 292.864 393.631 292.208C394.995 289.74 396.396 287.564 397.653 285.645C398.376 284.561 399.053 283.594 399.693 282.697C400.996 282.567 406.243 281.979 408.455 280.712C410.612 279.476 413.018 277.3 413.352 274.688C413.678 272.131 411.918 269.642 409.232 269.572C405.504 269.476 401.526 274.899 400.422 278.04C400.326 278.312 399.323 282.73 399.391 282.724C399.391 282.724 399.455 282.718 399.469 282.716C398.835 283.567 398.164 284.488 397.452 285.507C396.152 287.401 394.698 289.553 393.275 292.001C391.847 294.444 390.363 297.138 389.057 300.117C387.744 303.101 386.515 306.308 385.676 309.775C385.666 309.814 385.661 309.857 385.653 309.896C385.583 308.806 385.286 305.764 385.237 305.533C384.543 302.276 381.285 296.391 377.575 296.013C374.901 295.741 372.839 297.987 372.837 300.565C372.836 303.198 374.946 305.66 376.929 307.161C379.166 308.855 385.101 310.187 385.575 310.291C384.806 313.601 384.286 317.06 383.952 320.588C383.759 322.605 383.627 324.644 383.522 326.688C383.432 325.747 383.343 324.907 383.319 324.791C382.623 321.534 379.367 315.649 375.656 315.271C372.983 314.999 370.922 317.244 370.92 319.822C370.919 322.455 373.029 324.918 375.012 326.418C377.026 327.941 382.062 329.178 383.4 329.488C383.368 330.273 383.326 331.056 383.297 331.841C383.155 335.608 383.031 339.368 382.795 343.051C382.713 344.35 382.583 345.625 382.46 346.902C382.378 346.066 382.303 345.363 382.28 345.258C381.586 342.001 378.328 336.116 374.617 335.738C371.944 335.466 369.883 337.711 369.881 340.29C369.88 342.922 371.99 345.385 373.974 346.886C375.895 348.34 380.534 349.523 382.121 349.899C381.954 351.202 381.79 352.507 381.57 353.763C381.4 354.617 381.296 355.451 381.077 356.298C380.879 357.143 380.682 357.978 380.488 358.806C380.054 360.386 379.617 362.02 379.155 363.55C378.843 364.617 378.524 365.628 378.208 366.648C378.306 365.357 378.442 362.825 378.429 362.612C378.236 359.287 375.908 352.978 372.297 352.042C369.697 351.368 367.318 353.274 366.927 355.822C366.527 358.424 368.238 361.178 369.972 362.962C371.88 364.927 377.313 367.081 377.994 367.345C377.463 369.031 376.93 370.665 376.403 372.198C374.589 377.521 372.875 381.885 371.636 384.918C371.592 385.026 371.551 385.122 371.509 385.226L373.731 386.449C373.808 386.249 373.884 386.056 373.966 385.842C375.153 382.747 376.787 378.303 378.502 372.89C379.049 371.181 379.598 369.344 380.144 367.451C380.609 367.51 383.258 367.825 385.768 367.809C386.444 370.54 389.562 375.018 389.969 375.593C388.597 376.705 387.251 377.775 385.966 378.764C381.516 382.203 377.678 384.897 374.972 386.743C374.861 386.819 374.762 386.885 374.655 386.958L377.098 388.303C379.74 386.402 383.277 383.779 387.334 380.5C388.732 379.375 390.204 378.147 391.703 376.869C392.247 377.336 396.714 381.125 399.348 381.885C401.738 382.575 404.974 382.788 407.082 381.21C409.145 379.665 409.708 376.67 407.889 374.692C405.364 371.947 398.7 372.863 395.676 374.258C395.498 374.34 393.661 375.449 392.515 376.167C393.125 375.643 393.722 375.139 394.343 374.592C395.579 373.516 396.781 372.407 398.078 371.218C398.685 370.622 399.297 370.02 399.914 369.411C400.54 368.822 401.127 368.119 401.742 367.468C403.136 365.932 404.474 364.306 405.786 362.638C406.731 363.718 410.139 367.504 412.407 368.553C414.665 369.595 417.831 370.298 420.154 369.057C422.428 367.842 423.438 364.967 421.94 362.736C419.859 359.641 413.134 359.537 409.934 360.457C409.735 360.515 407.512 361.433 406.301 361.961C407.082 360.952 407.865 359.95 408.622 358.905C410.807 355.886 412.924 352.763 415.051 349.656C415.702 348.704 416.362 347.764 417.02 346.82C417.351 347.208 421.306 351.796 423.846 352.971C426.104 354.015 429.27 354.716 431.593 353.476C433.867 352.26 434.876 349.385 433.378 347.154C431.298 344.059 424.572 343.955 421.373 344.874C421.132 344.944 417.936 346.27 417.139 346.647C418.587 344.568 420.049 342.51 421.573 340.539C423.672 337.817 425.881 335.263 428.205 332.946C428.359 333.127 432.465 337.934 435.067 339.137C437.325 340.181 440.491 340.883 442.814 339.642C445.088 338.428 446.098 335.551 444.599 333.322C442.52 330.226 435.793 330.122 432.593 331.043C432.383 331.103 429.947 332.111 428.799 332.617C428.735 332.52 428.747 332.538 428.681 332.44C431.199 329.989 433.949 327.932 436.616 326.132C438.16 325.087 439.693 324.174 441.205 323.32C441.878 324.295 445.002 328.71 447.225 330.051C449.354 331.336 452.424 332.381 454.869 331.405C457.263 330.447 458.583 327.699 457.339 325.318C455.611 322.012 448.938 321.171 445.656 321.734C445.478 321.764 443.698 322.276 442.406 322.667C443.094 322.292 443.798 321.892 444.464 321.546C446.964 320.241 449.332 319.198 451.439 318.292C452.641 317.787 453.737 317.353 454.768 316.958C455.927 317.57 460.627 319.973 463.171 320.137C465.653 320.296 468.859 319.809 470.578 317.815C472.26 315.859 472.165 312.812 469.963 311.273Z" fill="white"/>
<path d="M384.093 289.454C385.874 291.768 391.681 294.795 391.685 294.797C391.745 294.829 392.517 290.364 392.534 290.077C392.724 286.752 391.137 280.216 387.658 278.872C385.152 277.903 382.57 279.524 381.888 282.01C381.192 284.549 382.576 287.482 384.093 289.454Z" fill="white"/>
</g>
<path d="M380.429 351.835C380.429 351.835 360.021 302.627 348.592 304.767C337.163 306.906 368.185 383.215 368.185 383.215C368.185 383.215 332.265 315.465 307.774 315.465C283.284 315.465 316.753 390.347 347.775 415.308C347.775 415.308 298.793 362.534 270.221 373.945C241.649 385.356 327.367 438.844 327.367 438.844C327.367 438.844 277.568 423.154 283.284 435.278C288.998 447.401 304.509 449.54 304.509 449.54L248.18 452.392H444.105L400.022 448.114C400.022 448.114 445.738 425.292 433.493 416.021C421.247 406.749 394.308 426.719 394.308 426.719C394.308 426.719 440.84 375.37 431.861 356.116C422.88 336.861 382.879 391.061 382.879 391.061C382.879 391.061 415.533 321.884 409.002 309.76C402.471 297.634 380.429 351.835 380.429 351.835Z" fill="#35D36A"/>
<path opacity="0.5" d="M380.429 351.835C380.429 351.835 360.021 302.627 348.592 304.767C337.163 306.906 368.185 383.215 368.185 383.215C368.185 383.215 332.265 315.465 307.774 315.465C283.284 315.465 316.753 390.347 347.775 415.308C347.775 415.308 298.793 362.534 270.221 373.945C241.649 385.356 327.367 438.844 327.367 438.844C327.367 438.844 277.568 423.154 283.284 435.278C288.998 447.401 304.509 449.54 304.509 449.54L248.18 452.392H444.105L400.022 448.114C400.022 448.114 445.738 425.292 433.493 416.021C421.247 406.749 394.308 426.719 394.308 426.719C394.308 426.719 440.84 375.37 431.861 356.116C422.88 336.861 382.879 391.061 382.879 391.061C382.879 391.061 415.533 321.884 409.002 309.76C402.471 297.634 380.429 351.835 380.429 351.835Z" fill="white"/>
<path d="M386.96 354.428C369 407.491 369 445.044 369 445.044C369 445.044 390.225 445.861 412.267 429.533" stroke="#263238" stroke-width="1.22249" stroke-miterlimit="10" stroke-linecap="round" stroke-linejoin="round"/>
<path d="M377.98 383.001C377.98 383.001 373.898 363.408 363.286 336.469" stroke="#263238" stroke-width="1.22249" stroke-miterlimit="10" stroke-linecap="round" stroke-linejoin="round"/>
<path d="M324.917 351.979L370.633 419.737C370.633 419.737 401.655 393.614 412.268 378.919" stroke="#263238" stroke-width="1.22249" stroke-miterlimit="10" stroke-linecap="round" stroke-linejoin="round"/>
<path d="M369.817 436.065C369.817 436.065 321.652 413.207 302.059 400.145" stroke="#263238" stroke-width="1.22249" stroke-miterlimit="10" stroke-linecap="round" stroke-linejoin="round"/>
<path d="M356.642 456.609H167.88C163.325 456.609 159.632 452.916 159.632 448.361V94.9376C159.632 90.3826 163.325 86.6895 167.88 86.6895H356.641C361.196 86.6895 364.889 90.3826 364.889 94.9376V448.361C364.89 452.917 361.197 456.609 356.642 456.609Z" fill="#263238" stroke="#263238" stroke-width="1.22249" stroke-miterlimit="10"/>
<path d="M276.451 108.786H250.9C249.452 108.786 248.279 107.612 248.279 106.165C248.279 104.718 249.452 103.544 250.9 103.544H276.451C277.899 103.544 279.072 104.718 279.072 106.165C279.071 107.614 277.899 108.786 276.451 108.786Z" fill="#35D36A"/>
<path d="M351.918 423.543H172.604V109.089H215.106L219.888 113.056C221.559 114.443 223.661 115.202 225.833 115.202H300.822C303.083 115.202 305.267 114.379 306.966 112.886L311.287 109.089H351.918V423.543Z" fill="white"/>
<mask id="mask0_25_39138" style="mask-type:luminance" maskUnits="userSpaceOnUse" x="172" y="109" width="180" height="315">
<path d="M351.918 423.543H172.604V109.089H215.106L219.888 113.056C221.559 114.443 223.661 115.202 225.833 115.202H300.822C303.083 115.202 305.267 114.379 306.966 112.886L311.287 109.089H351.918V423.543Z" fill="white"/>
</mask>
<g mask="url(#mask0_25_39138)">
<path d="M306.966 112.886C305.267 114.379 303.083 115.202 300.822 115.202H225.833C223.661 115.202 221.559 114.443 219.888 113.056L215.106 109.089H172.604V143.562H351.918V109.089H311.287L306.966 112.886Z" fill="#35D36A"/>
</g>
<path d="M351.918 423.543H172.604V109.089H215.106L219.888 113.056C221.559 114.443 223.661 115.202 225.833 115.202H300.822C303.083 115.202 305.267 114.379 306.966 112.886L311.287 109.089H351.918V423.543Z" stroke="#263238" stroke-width="1.14743" stroke-miterlimit="10" stroke-linecap="round" stroke-linejoin="round"/>
<path d="M338.578 147.073H186.496V406.024H338.578V147.073Z" fill="white"/>
<path d="M267.989 433.235C267.989 430.984 266.165 429.16 263.914 429.16C261.664 429.16 259.84 430.984 259.84 433.235C259.84 435.485 261.664 437.309 263.914 437.309C266.165 437.309 267.989 435.485 267.989 433.235Z" fill="#35D36A"/>
<path d="M311.668 268.826C338.85 241.644 338.85 197.572 311.668 170.39C284.486 143.208 240.414 143.208 213.232 170.39C186.05 197.572 186.05 241.644 213.232 268.826C240.414 296.008 284.486 296.008 311.668 268.826Z" fill="#35D36A"/>
<mask id="mask1_25_39138" style="mask-type:luminance" maskUnits="userSpaceOnUse" x="192" y="150" width="141" height="140">
<path d="M311.668 268.826C338.85 241.644 338.85 197.572 311.668 170.39C284.486 143.208 240.414 143.208 213.232 170.39C186.05 197.572 186.05 241.644 213.232 268.826C240.414 296.008 284.486 296.008 311.668 268.826Z" fill="white"/>
</mask>
<g mask="url(#mask1_25_39138)">
<path d="M245.593 230.669C245.593 230.669 249.836 241.469 248.679 249.185C247.521 256.9 243.278 261.143 234.02 265.771C224.762 270.4 210.103 276.958 208.56 281.587C207.017 286.215 208.56 307.877 208.56 307.877H321.971C321.971 307.877 319.27 285.444 313.484 277.729C307.698 270.013 284.553 263.842 277.995 259.598C271.438 255.353 274.138 231.053 274.138 231.053C274.138 231.053 256.78 236.455 245.593 230.669Z" fill="#B97A5B" stroke="#263238" stroke-width="1.22249" stroke-miterlimit="10" stroke-linecap="round" stroke-linejoin="round"/>
<path d="M232.214 266.668C230.104 267.707 227.801 268.823 225.484 269.978C229.506 282.168 225.792 297.741 222.357 307.878H302.672C301.516 305.405 300.576 302.572 300.122 299.4C298.81 290.22 299.687 276.356 300.293 269.199C297.576 267.977 294.725 266.817 291.973 265.72C287.952 275.245 277.885 293.735 261.002 291.454C244.328 289.201 235.634 274.33 232.214 266.668Z" fill="#263238" stroke="#263238" stroke-width="1.22249" stroke-miterlimit="10" stroke-linecap="round" stroke-linejoin="round"/>
<path d="M226.306 236.841C226.306 236.841 228.62 242.627 237.106 243.785C245.593 244.943 241.424 232.516 266.716 231.65C284.507 231.042 266.809 245.714 270.668 246.485C274.524 247.257 284.169 246.099 289.57 233.37C294.971 220.641 296.127 188.237 284.941 177.823C273.754 167.407 240.966 167.793 235.951 177.051C230.936 186.309 234.408 202.511 229.779 211.383C225.149 220.254 223.22 232.212 226.306 236.841Z" fill="#263238" stroke="#263238" stroke-width="1.22249" stroke-miterlimit="10" stroke-linecap="round" stroke-linejoin="round"/>
<path d="M237.107 207.138C237.107 207.138 234.021 199.038 232.863 204.824C231.706 210.61 232.863 216.396 235.564 218.71C238.264 221.024 239.807 220.639 239.807 220.639L237.107 207.138Z" fill="#B97A5B" stroke="#263238" stroke-width="1.22249" stroke-miterlimit="10" stroke-linecap="round" stroke-linejoin="round"/>
<path d="M249.303 165.814C249.303 165.814 242.783 167.444 238.435 179.399C234.088 191.353 237.476 222.78 240.192 226.039C242.909 229.3 251.943 242.855 260.637 243.397C266.168 243.743 280.065 231.016 282.24 224.495C284.413 217.974 285.168 188.634 283.538 181.571C281.907 174.509 268.323 158.207 249.303 165.814Z" fill="#B97A5B" stroke="#263238" stroke-width="1.22249" stroke-miterlimit="10" stroke-linecap="round" stroke-linejoin="round"/>
<path d="M253.28 204.434C253.28 205.416 252.484 206.213 251.501 206.213C250.519 206.213 249.723 205.417 249.723 204.434C249.723 203.451 250.519 202.655 251.501 202.655C252.484 202.655 253.28 203.452 253.28 204.434Z" fill="#263238"/>
<path d="M271.011 204.434C271.011 205.416 270.215 206.213 269.232 206.213C268.251 206.213 267.454 205.417 267.454 204.434C267.454 203.451 268.249 202.655 269.232 202.655C270.215 202.655 271.011 203.452 271.011 204.434Z" fill="#263238"/>
<path d="M253.721 222.765C253.721 222.765 259.493 226.012 267.79 222.765" stroke="#263238" stroke-width="1.22249" stroke-miterlimit="10" stroke-linecap="round" stroke-linejoin="round"/>
<path d="M264.182 210.862C264.182 210.862 266.708 214.109 264.182 215.912C261.657 217.715 258.772 217.355 256.607 216.273C254.443 215.191 256.967 210.501 256.967 210.501" stroke="#263238" stroke-width="1.22249" stroke-miterlimit="10" stroke-linecap="round" stroke-linejoin="round"/>
<path d="M254.603 196.259C254.603 196.259 251.303 192.286 245.819 194.121C240.335 195.956 240.056 200.511 240.056 200.511C240.056 200.511 243.402 196.259 246.377 196.213C249.351 196.166 253.604 199.512 254.603 196.259Z" fill="#263238"/>
<path d="M264.542 196.665C264.542 196.665 267.621 192.518 273.196 194.054C278.77 195.589 279.297 200.122 279.297 200.122C279.297 200.122 275.725 196.057 272.753 196.172C269.78 196.287 265.715 199.859 264.542 196.665Z" fill="#263238"/>
<path d="M254.851 175.507C254.851 175.507 245.207 172.807 241.35 178.979C237.493 185.152 239.421 197.11 233.635 207.911C227.849 218.712 231.32 235.3 232.092 237.614C232.863 239.928 227.077 243.015 223.992 231.441C220.906 219.869 229.778 208.682 230.549 196.724C231.32 184.765 228.62 171.65 240.578 164.707C252.537 157.763 254.851 162.006 254.851 162.006V175.507Z" fill="#263238" stroke="#263238" stroke-width="1.22249" stroke-miterlimit="10" stroke-linecap="round" stroke-linejoin="round"/>
<path d="M302.298 193.637C299.984 186.693 300.369 173.963 291.111 163.549C285.308 157.02 274.199 153.221 265.102 153.005C263.787 152.725 262.312 152.616 260.637 152.748C245.978 153.906 236.72 161.62 239.421 167.407C242.121 173.193 254.851 175.507 254.851 175.507L256.78 176.279C256.706 175.571 256.696 174.927 256.718 174.315C258.79 173.347 262.334 172.713 266.038 176.665C271.824 182.837 276.322 193.225 276.067 202.896C275.681 217.555 283.011 222.955 283.011 229.127C283.011 235.3 272.21 243.013 269.893 244.945C267.327 247.093 279.604 248.143 280.438 248.09C292.871 247.32 301.142 239.207 306.322 228.375C312.424 215.615 306.284 205.593 302.298 193.637Z" fill="#263238" stroke="#263238" stroke-width="1.22249" stroke-miterlimit="10" stroke-linecap="round" stroke-linejoin="round"/>
<path d="M288.284 239.767C287.732 240.685 287.014 241.518 286.097 242.242" stroke="#7D7D7D" stroke-width="1.22249" stroke-miterlimit="10" stroke-linecap="round" stroke-linejoin="round"/>
<path d="M254.851 173.963C254.851 173.963 245.593 168.949 253.308 165.09C261.023 161.234 275.296 173.191 278.768 184.378C282.24 195.565 279.539 208.295 284.554 217.166C286.934 221.377 290.011 228.367 289.774 234.312" stroke="#7D7D7D" stroke-width="1.22249" stroke-miterlimit="10" stroke-linecap="round" stroke-linejoin="round"/>
<path d="M247.977 167.108C247.683 166.037 248.269 164.511 250.994 162.391C257.938 156.99 270.668 159.691 277.225 166.634C283.783 173.578 286.098 182.065 286.869 192.094C287.641 202.123 289.183 208.296 294.584 214.467C299.985 220.639 303.071 227.197 297.67 234.912" stroke="#7D7D7D" stroke-width="1.22249" stroke-miterlimit="10" stroke-linecap="round" stroke-linejoin="round"/>
<path d="M247.522 173.963C247.522 173.963 236.721 169.335 242.894 163.548" stroke="#7D7D7D" stroke-width="1.22249" stroke-miterlimit="10" stroke-linecap="round" stroke-linejoin="round"/>
<path d="M233.995 236.018C234.829 237.221 235.853 238.287 237.106 239.155" stroke="#7D7D7D" stroke-width="1.22249" stroke-miterlimit="10" stroke-linecap="round" stroke-linejoin="round"/>
<path d="M231.707 212.539C231.707 212.539 228.993 224.071 232.223 232.593" stroke="#7D7D7D" stroke-width="1.22249" stroke-miterlimit="10" stroke-linecap="round" stroke-linejoin="round"/>
<path d="M287.725 170.443C290.111 174.485 292.664 180.218 293.427 187.079C294.97 200.966 290.726 205.595 297.284 212.924C300.534 216.556 301.889 220.568 301.912 224.114" stroke="#7D7D7D" stroke-width="1.22249" stroke-miterlimit="10" stroke-linecap="round" stroke-linejoin="round"/>
<path d="M283.011 163.934C283.011 163.934 283.566 164.512 284.422 165.598" stroke="#7D7D7D" stroke-width="1.22249" stroke-miterlimit="10" stroke-linecap="round" stroke-linejoin="round"/>
</g>
<path d="M317.6 278.4C320.48 278.4 322.814 276.065 322.814 273.186C322.814 270.306 320.48 267.972 317.6 267.972C314.721 267.972 312.386 270.306 312.386 273.186C312.386 276.065 314.721 278.4 317.6 278.4Z" fill="white"/>
<path d="M204.768 309.923H227.384" stroke="#263238" stroke-width="1.22249" stroke-miterlimit="10" stroke-linecap="round" stroke-linejoin="round"/>
<path d="M204.768 367.38H227.384" stroke="#263238" stroke-width="1.22249" stroke-miterlimit="10" stroke-linecap="round" stroke-linejoin="round"/>
<path d="M204.768 318.48H287.897" stroke="#263238" stroke-width="2.44499" stroke-miterlimit="10" stroke-linecap="round" stroke-linejoin="round"/>
<path d="M204.768 375.938H287.897" stroke="#263238" stroke-width="2.44499" stroke-miterlimit="10" stroke-linecap="round" stroke-linejoin="round"/>
<path d="M204.768 399.776H227.384" stroke="#263238" stroke-width="1.22249" stroke-miterlimit="10" stroke-linecap="round" stroke-linejoin="round"/>
<path d="M204.768 408.334H287.897" stroke="#263238" stroke-width="2.44499" stroke-miterlimit="10" stroke-linecap="round" stroke-linejoin="round"/>
<path d="M204.768 330.705H333.741" stroke="#263238" stroke-width="1.22249" stroke-miterlimit="10" stroke-linecap="round" stroke-linejoin="round"/>
<path d="M204.768 336.818H333.741" stroke="#263238" stroke-width="1.22249" stroke-miterlimit="10" stroke-linecap="round" stroke-linejoin="round"/>
<path d="M204.768 342.93H333.741" stroke="#263238" stroke-width="1.22249" stroke-miterlimit="10" stroke-linecap="round" stroke-linejoin="round"/>
<path d="M189.639 311.757C192.34 311.757 194.529 309.567 194.529 306.867C194.529 304.166 192.34 301.977 189.639 301.977C186.939 301.977 184.75 304.166 184.75 306.867C184.75 309.567 186.939 311.757 189.639 311.757Z" fill="#263238"/>
<path d="M189.639 312.979C185.447 312.979 181.994 315.644 181.466 319.092H197.813C197.285 315.643 193.831 312.979 189.639 312.979Z" fill="#263238"/>
<path d="M135.887 371.546C135.887 371.546 122.032 381.055 118.228 387.032C114.425 393.008 104.101 408.494 97.0378 412.841C89.9742 417.188 79.1075 413.384 77.7481 417.459C76.3899 421.534 79.1062 428.599 78.5635 432.131C78.0207 435.662 76.6613 445.171 79.9216 448.975C83.182 452.78 86.4424 452.779 86.7138 451.149C86.9852 449.519 86.7138 441.096 89.9742 435.391C93.2346 429.686 98.6686 421.535 117.686 407.952C136.703 394.368 145.94 385.131 150.016 380.785C154.092 376.437 151.103 370.189 151.103 370.189" fill="white"/>
<path d="M135.887 371.546C135.887 371.546 122.032 381.055 118.228 387.032C114.425 393.008 104.101 408.494 97.0378 412.841C89.9742 417.188 79.1075 413.384 77.7481 417.459C76.3899 421.534 79.1062 428.599 78.5635 432.131C78.0207 435.662 76.6613 445.171 79.9216 448.975C83.182 452.78 86.4424 452.779 86.7138 451.149C86.9852 449.519 86.7138 441.096 89.9742 435.391C93.2346 429.686 98.6686 421.535 117.686 407.952C136.703 394.368 145.94 385.131 150.016 380.785C154.092 376.437 151.103 370.189 151.103 370.189" stroke="#263238" stroke-width="1.22249" stroke-miterlimit="10" stroke-linecap="round" stroke-linejoin="round"/>
<path d="M135.888 371.546C135.888 371.546 122.032 381.055 118.229 387.032C114.425 393.009 104.101 408.494 97.0379 412.841C95.9205 413.529 94.7017 413.996 93.4462 414.34C93.4352 418.143 94.0965 422.518 96.3936 426.323C100.523 421.576 106.932 415.632 117.686 407.951C136.703 394.367 145.94 385.13 150.016 380.784C154.092 376.436 151.103 370.188 151.103 370.188L135.888 371.546Z" fill="#263238" stroke="#263238" stroke-width="1.22249" stroke-miterlimit="10" stroke-linecap="round" stroke-linejoin="round"/>
<path d="M84.2688 435.119C84.9657 430.238 88.0463 418.408 88.9241 415.087C83.6136 415.501 78.6392 414.789 77.7493 417.46C76.3911 421.534 79.1075 428.599 78.5647 432.131C78.0219 435.663 76.6625 445.171 79.9229 448.976C83.1833 452.78 86.4437 452.779 86.715 451.149C86.8679 450.229 86.8495 447.144 87.3899 443.605C85.6172 442.11 83.704 439.072 84.2688 435.119Z" fill="#35D36A" stroke="#263238" stroke-width="1.22249" stroke-miterlimit="10" stroke-linecap="round" stroke-linejoin="round"/>
<path d="M79.9216 440.281C79.9216 435.391 81.2798 431.859 80.193 425.067C79.4926 420.692 80.3703 417.341 81.0842 415.502C79.3764 415.746 78.1478 416.26 77.7481 417.46C76.3899 421.534 79.1062 428.599 78.5635 432.131C78.0207 435.663 76.6613 445.171 79.9216 448.976C81.2762 450.555 82.627 451.472 83.7664 451.895C80.5427 449.017 79.9216 444.546 79.9216 440.281Z" fill="white" stroke="#263238" stroke-width="1.22249" stroke-miterlimit="10" stroke-linecap="round" stroke-linejoin="round"/>
<path d="M101.116 248.932C101.342 248.512 101.555 248.109 101.753 247.721" stroke="#263238" stroke-width="1.22249" stroke-miterlimit="10" stroke-linecap="round" stroke-linejoin="round"/>
<path d="M100.148 250.687C100.435 250.176 100.709 249.682 100.967 249.208" stroke="#263238" stroke-width="1.22249" stroke-miterlimit="10" stroke-linecap="round" stroke-linejoin="round"/>
<path d="M101.873 247.49C102.087 247.067 102.279 246.67 102.452 246.29C102.277 246.67 102.087 247.068 101.873 247.49Z" fill="#263238" stroke="#263238" stroke-width="1.22249" stroke-miterlimit="10" stroke-linecap="round" stroke-linejoin="round"/>
<path d="M99.1062 252.528C99.391 252.028 99.6661 251.544 99.9314 251.072C99.6649 251.545 99.391 252.027 99.1062 252.528Z" fill="#263238" stroke="#263238" stroke-width="1.22249" stroke-miterlimit="10" stroke-linecap="round" stroke-linejoin="round"/>
<path d="M102.566 246.035C102.736 245.652 102.892 245.284 103.015 244.949C102.892 245.284 102.737 245.652 102.566 246.035Z" fill="#263238" stroke="#263238" stroke-width="1.22249" stroke-miterlimit="10" stroke-linecap="round" stroke-linejoin="round"/>
<path d="M142.176 251.807C142.152 251.479 142.137 251.179 142.137 250.925" stroke="#263238" stroke-width="1.22249" stroke-miterlimit="10" stroke-linecap="round" stroke-linejoin="round"/>
<path d="M142.454 254.248C142.401 253.868 142.353 253.504 142.312 253.164C142.353 253.505 142.401 253.869 142.454 254.248Z" fill="#263238" stroke="#263238" stroke-width="1.22249" stroke-miterlimit="10" stroke-linecap="round" stroke-linejoin="round"/>
<path d="M148.928 307.434C147.638 299.656 143.222 285.699 144.581 278.364C145.576 272.991 143.804 263.114 142.784 256.498C142.784 256.5 142.785 256.502 142.785 256.506C118.848 259.023 105.309 255.413 98.9816 252.746C94.9926 259.738 89.3997 269.33 86.9841 279.18C83.4523 293.578 81.2787 304.989 85.6259 314.77C89.9731 324.55 94.0525 348.428 93.2383 358.208C92.4229 367.988 87.533 373.422 88.6198 381.029C89.7066 388.637 94.8496 404.859 97.0232 410.022C99.1968 415.183 101.112 434.522 101.112 434.522C101.112 434.522 98.396 441.645 97.852 446.535C97.3092 451.425 101.248 453.331 106.839 456.375C112.429 459.419 124.463 465.615 126.386 461.355C128.309 457.094 119.372 446.96 114.852 439.548C110.332 432.136 110.512 421.417 109.928 410.022C109.258 396.963 109.81 369.62 109.81 361.469C109.81 353.319 118.77 310.697 118.77 310.697C118.77 310.697 124.204 332.703 128.55 343.298C132.897 353.894 133.053 373.097 137.944 377.443C142.834 381.79 152.615 382.877 152.615 372.553C152.616 362.227 153.18 333.083 148.928 307.434Z" fill="#263238" stroke="#263238" stroke-width="1.22249" stroke-miterlimit="10" stroke-linecap="round" stroke-linejoin="round"/>
<path d="M142.284 252.923C142.242 252.56 142.207 252.216 142.182 251.908" stroke="#263238" stroke-width="1.22249" stroke-miterlimit="10" stroke-linecap="round" stroke-linejoin="round"/>
<path d="M142.67 255.751C142.614 255.379 142.561 255.02 142.511 254.674C142.561 255.021 142.615 255.379 142.67 255.751Z" fill="#263238" stroke="#263238" stroke-width="1.22249" stroke-miterlimit="10" stroke-linecap="round" stroke-linejoin="round"/>
<path d="M86.5488 214.555C86.6197 214.461 86.687 214.372 86.7408 214.301C86.6858 214.374 86.621 214.46 86.5488 214.555Z" fill="#263238" stroke="#263238" stroke-width="1.22249" stroke-miterlimit="10" stroke-linecap="round" stroke-linejoin="round"/>
<path d="M85.748 215.606C85.8776 215.436 85.9938 215.284 86.105 215.138C85.995 215.282 85.8764 215.438 85.748 215.606Z" fill="#263238" stroke="#263238" stroke-width="1.22249" stroke-miterlimit="10" stroke-linecap="round" stroke-linejoin="round"/>
<path d="M86.1968 215.017C86.3105 214.868 86.4095 214.737 86.4987 214.62C86.4107 214.736 86.308 214.872 86.1968 215.017Z" fill="#263238" stroke="#263238" stroke-width="1.22249" stroke-miterlimit="10" stroke-linecap="round" stroke-linejoin="round"/>
<path d="M118.423 312.423C118.423 312.423 122.123 297.928 120.582 292.993C119.04 288.057 112.872 278.189 112.872 278.189" stroke="#515151" stroke-width="0.91687" stroke-miterlimit="10" stroke-linecap="round" stroke-linejoin="round"/>
<path d="M123.666 294.844C123.666 294.844 133.844 289.292 136.311 283.433" stroke="#515151" stroke-width="0.91687" stroke-miterlimit="10" stroke-linecap="round" stroke-linejoin="round"/>
<path d="M127.984 293.61C127.984 293.61 135.694 289.6 139.395 282.507" stroke="#515151" stroke-width="0.91687" stroke-miterlimit="10" stroke-linecap="round" stroke-linejoin="round"/>
<path d="M156.264 195.231C152.189 187.625 148.656 185.178 143.766 184.364C138.876 183.549 129.639 184.908 125.292 182.191C120.945 179.474 120.945 167.52 121.489 166.705C122.032 165.89 108.177 166.434 108.177 166.434C108.177 166.434 110.079 179.746 108.993 182.463C107.906 185.18 102.744 186.267 96.2236 186.267C89.7028 186.267 83.4547 190.07 80.1943 196.59C76.9339 203.111 50.4143 242.061 50.4143 242.061C50.4143 242.061 48.8703 243.817 48.9767 244.483L58.6295 246.119C68.1429 239.095 86.9865 213.977 86.9865 213.977L88.8887 212.89C88.8887 212.89 92.1491 224.572 97.8544 229.462C103.56 234.352 105.189 238.971 103.017 244.947C102.33 246.836 100.828 249.515 98.9852 252.744C105.313 255.412 118.852 259.022 142.788 256.505C142.416 254.086 142.139 252.088 142.139 250.924C142.139 246.577 141.868 238.155 141.868 232.721C141.868 227.287 147.302 222.397 145.671 216.963C144.04 211.529 143.497 206.911 143.497 206.911L146.214 203.65C146.214 203.65 154.885 218.721 157.902 222.056C164.076 228.884 171.48 235.98 172.839 235.165C174.197 234.35 177.457 233.263 176.37 225.928C175.281 218.595 160.339 202.839 156.264 195.231Z" fill="#B97A5B" stroke="#263238" stroke-width="1.22249" stroke-miterlimit="10" stroke-linecap="round" stroke-linejoin="round"/>
<path d="M142.139 251.055C135.878 251.957 118.523 253.633 101.673 247.873C100.812 249.542 99.6881 251.51 98.4338 253.707C102.672 255.479 115.891 260.469 128.008 259.347C135.89 258.617 140.318 257.262 142.731 256.161C142.397 253.974 142.156 252.177 142.139 251.055Z" fill="#35D36A" stroke="#263238" stroke-width="1.22249" stroke-miterlimit="10" stroke-linecap="round" stroke-linejoin="round"/>
<path d="M142.304 253.109C142.199 252.224 142.137 251.48 142.137 250.925C142.137 246.578 141.866 238.156 141.866 232.722C141.866 227.288 147.3 222.399 145.669 216.965C144.039 211.531 143.495 206.912 143.495 206.912L143.73 206.631C140.369 199.641 137.857 188.188 137.012 184.034C135.491 184.021 133.929 183.995 132.418 183.899C132.339 188.456 131.031 198.512 121.218 200.392C110.961 202.357 101.762 190.83 98.5367 186.215C97.7886 186.248 97.0159 186.265 96.2238 186.265C95.9132 186.265 95.6052 186.282 95.2959 186.299C96.8864 189.757 99.8118 197.524 99.2115 206.913C98.6027 216.46 94.5013 220.538 92.4695 221.989C93.8839 224.785 95.6932 227.61 97.8533 229.462C103.559 234.352 105.188 238.971 103.015 244.947C102.548 246.233 101.688 247.902 100.615 249.845C120.269 259.397 137.333 254.826 142.304 253.109Z" fill="#35D36A" stroke="#263238" stroke-width="1.22249" stroke-miterlimit="10" stroke-linecap="round" stroke-linejoin="round"/>
<path d="M115.526 231.551C115.526 231.551 121.027 230.329 132.029 226.661" stroke="#263238" stroke-width="1.22249" stroke-miterlimit="10" stroke-linecap="round" stroke-linejoin="round"/>
<path d="M59.6503 239.641C59.6503 239.641 63.621 246.307 75.3031 250.654C86.9853 255.001 94.0488 254.457 94.0488 254.457C94.0488 254.457 100.297 244.949 101.656 244.949C103.015 244.949 114.52 249.24 114.304 249.888C114.089 250.534 115.384 251.075 113.334 250.751C111.284 250.427 106.106 248.485 105.351 248.378C104.595 248.27 112.795 253.879 113.55 254.311C114.306 254.742 114.197 256.144 113.442 256.252C112.687 256.359 104.597 252.368 104.597 252.368L112.472 257.222C112.472 257.222 112.903 258.086 111.501 258.301C110.099 258.516 102.763 254.524 102.763 254.524L108.697 259.487C108.697 259.487 109.345 260.457 107.51 260.242C105.676 260.026 100.821 256.575 100.821 256.575C100.821 256.575 98.1246 259.379 94.5647 260.566C91.0048 261.753 81.2958 258.947 73.852 258.084C66.4082 257.221 52.6002 253.554 49.2554 249.994C45.9107 246.434 50.9816 241.04 50.9816 241.04" fill="#B97A5B"/>
<path d="M59.6503 239.641C59.6503 239.641 63.621 246.307 75.3031 250.654C86.9853 255.001 94.0488 254.457 94.0488 254.457C94.0488 254.457 100.297 244.949 101.656 244.949C103.015 244.949 114.519 249.24 114.304 249.888C114.089 250.534 115.384 251.075 113.334 250.751C111.284 250.427 106.106 248.485 105.351 248.378C104.595 248.27 112.795 253.879 113.55 254.311C114.306 254.742 114.197 256.144 113.442 256.252C112.687 256.359 104.597 252.368 104.597 252.368L112.472 257.222C112.472 257.222 112.903 258.086 111.501 258.301C110.099 258.516 102.763 254.524 102.763 254.524L108.697 259.487C108.697 259.487 109.345 260.457 107.51 260.242C105.676 260.026 100.821 256.575 100.821 256.575C100.821 256.575 98.1246 259.379 94.5647 260.566C91.0048 261.753 81.2958 258.947 73.852 258.084C66.4082 257.221 52.6002 253.554 49.2554 249.994C45.9107 246.434 50.9816 241.04 50.9816 241.04" stroke="#263238" stroke-width="1.22249" stroke-miterlimit="10" stroke-linecap="round" stroke-linejoin="round"/>
<path d="M166.034 227.405C166.034 227.405 162.449 235.784 159.903 240.41C157.359 245.035 150.593 254.628 149.957 255.445C149.248 256.355 147.875 256.601 147.875 256.601C147.875 256.601 146.719 253.363 145.331 249.894C143.944 246.424 141.156 245.88 138.612 246.575C138.612 246.575 136.659 247.568 137.331 248.144C138.002 248.72 140.428 248.567 141.292 248.567C142.155 248.567 143.211 249.623 143.211 249.623C143.211 249.623 137.643 249.862 137.451 250.725C137.259 251.589 137.933 251.83 139.565 251.83C141.197 251.83 143.28 251.93 143.76 252.219C144.241 252.507 138.216 252.732 137.545 253.98C136.874 255.229 141.303 254.501 142.445 254.709C144.259 255.042 144.177 256.601 144.177 256.601C144.177 256.601 139.67 255.575 138.801 256.913C138.108 257.983 140.962 258.051 141.488 258.199C143.383 258.734 142.886 260.726 144.034 262.293C145.017 263.634 145.308 264.339 147.249 264.339C150.609 264.339 160.01 252.022 164.903 247.414C169.798 242.808 176.708 235.994 177.859 232.443C179.011 228.891 175.652 223.421 174.884 223.23" fill="#B97A5B"/>
<path d="M166.034 227.405C166.034 227.405 162.449 235.784 159.903 240.41C157.359 245.035 150.593 254.628 149.957 255.445C149.248 256.355 147.875 256.601 147.875 256.601C147.875 256.601 146.719 253.363 145.331 249.894C143.944 246.424 141.156 245.88 138.612 246.575C138.612 246.575 136.659 247.568 137.331 248.144C138.002 248.72 140.428 248.567 141.292 248.567C142.155 248.567 143.211 249.623 143.211 249.623C143.211 249.623 137.643 249.862 137.451 250.725C137.259 251.589 137.933 251.83 139.565 251.83C141.197 251.83 143.28 251.93 143.76 252.219C144.241 252.507 138.216 252.732 137.545 253.98C136.874 255.229 141.303 254.501 142.445 254.709C144.259 255.042 144.177 256.601 144.177 256.601C144.177 256.601 139.67 255.575 138.801 256.913C138.108 257.983 140.962 258.051 141.488 258.199C143.383 258.734 142.886 260.726 144.034 262.293C145.017 263.634 145.308 264.339 147.249 264.339C150.609 264.339 160.01 252.022 164.903 247.414C169.798 242.808 176.708 235.994 177.859 232.443C179.011 228.891 175.652 223.421 174.884 223.23" stroke="#263238" stroke-width="1.22249" stroke-miterlimit="10" stroke-linecap="round" stroke-linejoin="round"/>
<path d="M147.876 256.601C147.876 256.601 148.741 259.851 148.741 262.346L147.876 256.601Z" fill="white"/>
<path d="M147.876 256.601C147.876 256.601 148.741 259.851 148.741 262.346" stroke="#263238" stroke-width="1.22249" stroke-miterlimit="10" stroke-linecap="round" stroke-linejoin="round"/>
<path d="M146.211 203.653L151.115 199.237" stroke="#263238" stroke-width="1.22249" stroke-miterlimit="10" stroke-linecap="round" stroke-linejoin="round"/>
<path d="M88.8875 212.89L95.2921 210.648" stroke="#263238" stroke-width="1.22249" stroke-miterlimit="10" stroke-linecap="round" stroke-linejoin="round"/>
<path d="M94.7468 175.502C94.7468 175.502 96.5488 178.792 101.703 178.869C106.857 178.946 103.467 171.824 118.517 169.476C129.104 167.824 119.59 177.872 121.951 178.054C124.312 178.236 129.99 176.846 132.296 168.85C134.601 160.853 132.947 141.408 125.51 135.995C118.072 130.582 98.5084 133.185 96.182 139.079C93.8556 144.974 97.1025 154.403 94.9791 160.039C92.8544 165.675 92.5671 172.96 94.7468 175.502Z" fill="#263238" stroke="#263238" stroke-width="1.22249" stroke-miterlimit="10" stroke-linecap="round" stroke-linejoin="round"/>
<path d="M99.0501 156.973C99.0501 156.973 96.6198 152.356 96.3472 155.897C96.0746 159.439 97.1846 162.812 98.9658 163.999C100.747 165.186 101.641 164.845 101.641 164.845L99.0501 156.973Z" fill="#B97A5B" stroke="#263238" stroke-width="1.22249" stroke-miterlimit="10" stroke-linecap="round" stroke-linejoin="round"/>
<path d="M103.347 131.399C103.347 131.399 99.5697 132.845 97.8374 140.302C96.1051 147.759 100.403 166.292 102.263 168.043C104.122 169.795 110.501 177.24 115.735 176.935C119.065 176.742 126.447 168.131 127.274 164.078C128.1 160.024 126.428 142.439 124.943 138.336C123.457 134.235 114.16 125.477 103.347 131.399Z" fill="#B97A5B" stroke="#263238" stroke-width="1.22249" stroke-miterlimit="10" stroke-linecap="round" stroke-linejoin="round"/>
<path d="M109.13 154.114C109.094 154.704 107.44 153.861 106.85 153.825C106.259 153.79 104.516 154.43 104.552 153.84C104.587 153.249 106.314 152.873 106.904 152.908C107.494 152.944 109.164 153.523 109.13 154.114Z" fill="#263238"/>
<path d="M119.083 152.483C119.154 153.07 118.736 153.603 118.149 153.675C117.562 153.746 117.029 153.328 116.957 152.741C116.886 152.154 117.304 151.621 117.891 151.549C118.478 151.478 119.012 151.896 119.083 152.483Z" fill="#263238"/>
<path d="M112.082 164.758C112.082 164.758 116.015 165.402 120.036 161.855" stroke="#263238" stroke-width="1.22249" stroke-miterlimit="10" stroke-linecap="round" stroke-linejoin="round"/>
<path d="M115.498 157.238C115.498 157.238 117.241 158.995 115.863 160.255C114.485 161.516 112.735 161.51 111.363 161.02C109.992 160.529 111.162 157.545 111.162 157.545" stroke="#263238" stroke-width="1.22249" stroke-miterlimit="10" stroke-linecap="round" stroke-linejoin="round"/>
<path d="M109.879 151.268C109.879 151.268 108.685 148.397 105.205 148.483C101.726 148.567 100.759 151.138 100.759 151.138C100.759 151.138 103.438 149.285 105.157 149.785C106.874 150.284 108.729 152.962 109.879 151.268Z" fill="#263238"/>
<path d="M113.918 146.911C113.918 146.911 115.459 144.21 118.901 144.724C122.344 145.237 122.985 147.908 122.985 147.908C122.985 147.908 120.558 145.738 118.789 146.022C117.021 146.306 114.851 148.733 113.918 146.911Z" fill="#263238"/>
<path d="M107.364 136.789C107.364 136.789 101.407 135.873 99.5488 139.84C97.6906 143.807 99.7089 150.812 97.0329 157.685C94.3569 164.557 97.6319 174.216 98.2603 175.544C98.8886 176.872 95.6551 179.133 92.973 172.443C90.2921 165.752 94.7835 158.425 94.3789 151.224C93.9742 144.023 91.4119 136.381 98.0549 131.368C104.698 126.353 106.387 128.721 106.387 128.721L107.364 136.789Z" fill="#263238" stroke="#263238" stroke-width="1.22249" stroke-miterlimit="10" stroke-linecap="round" stroke-linejoin="round"/>
<path d="M137.026 144.188C135.14 140.207 134.45 132.573 128.164 127.02C124.224 123.538 117.312 122.072 111.859 122.601C111.054 122.529 110.165 122.571 109.173 122.771C100.499 124.523 95.5256 129.803 97.5574 133.065C99.5891 136.326 107.363 136.789 107.363 136.789L108.571 137.11C108.475 136.692 108.423 136.308 108.391 135.941C109.56 135.213 111.631 134.577 114.131 136.67C118.034 139.939 121.474 145.82 122.022 151.617C122.852 160.403 127.622 163.1 128.07 166.789C128.516 170.477 122.621 175.868 121.376 177.189C119.999 178.659 127.409 178.397 127.905 178.306C135.277 176.946 139.632 171.499 141.944 164.653C144.666 156.588 140.273 151.043 137.026 144.188Z" fill="#263238" stroke="#263238" stroke-width="1.22249" stroke-miterlimit="10" stroke-linecap="round" stroke-linejoin="round"/>
<path d="M131.99 172.764C131.727 173.352 131.358 173.903 130.863 174.401" stroke="#7D7D7D" stroke-width="0.611247" stroke-miterlimit="10" stroke-linecap="round" stroke-linejoin="round"/>
<path d="M107.252 135.867C107.252 135.867 101.357 133.54 105.688 130.677C110.018 127.814 119.412 133.927 122.296 140.359C125.18 146.792 124.488 154.594 128.126 159.532C129.852 161.875 132.197 165.829 132.485 169.399" stroke="#7D7D7D" stroke-width="0.611247" stroke-miterlimit="10" stroke-linecap="round" stroke-linejoin="round"/>
<path d="M102.648 132.268C102.395 131.649 102.634 130.696 104.11 129.231C107.868 125.501 115.67 126.194 120.09 129.868C124.511 133.542 126.509 138.445 127.696 144.383C128.883 150.319 130.251 153.895 133.924 157.192C137.598 160.489 139.917 164.183 137.248 169.185" stroke="#7D7D7D" stroke-width="0.611247" stroke-miterlimit="10" stroke-linecap="round" stroke-linejoin="round"/>
<path d="M102.873 136.397C102.873 136.397 96.0841 134.413 99.3531 130.51" stroke="#7D7D7D" stroke-width="0.611247" stroke-miterlimit="10" stroke-linecap="round" stroke-linejoin="round"/>
<path d="M99.281 174.454C99.8666 175.111 100.555 175.675 101.368 176.103" stroke="#7D7D7D" stroke-width="0.611247" stroke-miterlimit="10" stroke-linecap="round" stroke-linejoin="round"/>
<path d="M96.215 160.59C96.215 160.59 95.4277 167.677 97.9742 172.535" stroke="#7D7D7D" stroke-width="0.611247" stroke-miterlimit="10" stroke-linecap="round" stroke-linejoin="round"/>
<path d="M126.639 131.384C128.358 133.627 130.298 136.867 131.25 140.912C133.177 149.098 130.977 152.171 135.425 156.076C137.631 158.011 138.73 160.311 139.001 162.427" stroke="#7D7D7D" stroke-width="0.611247" stroke-miterlimit="10" stroke-linecap="round" stroke-linejoin="round"/>
<path d="M123.352 127.836C123.352 127.836 123.725 128.142 124.315 128.729" stroke="#7D7D7D" stroke-width="0.611247" stroke-miterlimit="10" stroke-linecap="round" stroke-linejoin="round"/>
<path d="M112.901 435.392C107.258 436.282 103.09 434.77 101.029 433.719C101.083 434.231 101.112 434.522 101.112 434.522C101.112 434.522 98.396 441.645 97.852 446.535C97.3092 451.425 101.248 453.331 106.839 456.374C112.429 459.418 124.463 465.614 126.386 461.353C128.31 457.093 119.372 446.958 114.852 439.546C114.067 438.259 113.431 436.866 112.901 435.392Z" fill="white" stroke="#263238" stroke-width="1.22249" stroke-miterlimit="10" stroke-linecap="round" stroke-linejoin="round"/>
<path d="M113.999 452.45C108.132 450.774 101.631 443.897 99.0292 440.923C98.5097 442.797 98.0439 444.804 97.852 446.534C97.3092 451.424 101.248 453.33 106.839 456.373C112.429 459.417 124.463 465.612 126.386 461.352C127.412 459.081 125.342 455.136 122.508 450.828C121.297 452.67 118.774 453.814 113.999 452.45Z" fill="#35D36A" stroke="#263238" stroke-width="1.22249" stroke-miterlimit="10" stroke-linecap="round" stroke-linejoin="round"/>
<path d="M108.4 454.604C103.849 452.021 100.148 449.302 97.8042 447.441C97.8238 451.674 101.609 453.526 106.84 456.374C112.43 459.418 124.464 465.614 126.387 461.353C126.626 460.826 126.691 460.205 126.624 459.515C120.88 462.138 115.87 458.845 108.4 454.604Z" fill="white" stroke="#263238" stroke-width="1.22249" stroke-miterlimit="10" stroke-linecap="round" stroke-linejoin="round"/>
</svg>
