<svg width="550" height="550" viewBox="0 0 550 550" fill="none" xmlns="http://www.w3.org/2000/svg">
<path d="M423.181 150.753C419.512 143.645 415.668 136.644 411.293 129.972C360.806 52.9821 225.593 11.0699 158.595 90.6483C142.626 109.616 137.06 132.535 126.312 154.287C101.866 203.759 56.1934 233.336 27.5549 279.147C5.35576 314.658 8.31586 360.17 20.6997 398.559C34.1571 440.275 57.839 469.408 95.7208 491.554C138.188 516.381 183.61 509.489 229.514 500.849C250.157 496.964 271.442 493 292.55 494.483C318.978 496.339 345.07 503.818 371.289 507.455C398.557 511.236 426.849 512.13 453.116 503.89C537.237 477.503 557.165 353.849 522.572 283.016C510.327 257.944 489.575 238.599 470.305 218.973C449.503 197.788 436.753 177.053 423.181 150.753Z" fill="#78EFA0"/>
<path opacity="0.7" d="M423.181 150.753C419.512 143.645 415.668 136.644 411.293 129.972C360.806 52.9821 225.593 11.0699 158.595 90.6483C142.626 109.616 137.06 132.535 126.312 154.287C101.866 203.759 56.1934 233.336 27.5549 279.147C5.35576 314.658 8.31586 360.17 20.6997 398.559C34.1571 440.275 57.839 469.408 95.7208 491.554C138.188 516.381 183.61 509.489 229.514 500.849C250.157 496.964 271.442 493 292.55 494.483C318.978 496.339 345.07 503.818 371.289 507.455C398.557 511.236 426.849 512.13 453.116 503.89C537.237 477.503 557.165 353.849 522.572 283.016C510.327 257.944 489.575 238.599 470.305 218.973C449.503 197.788 436.753 177.053 423.181 150.753Z" fill="white"/>
<path d="M476.023 320.126C475.496 318.021 474.109 314.748 470.456 312.091C464.563 307.805 455.457 310.484 455.457 310.484C455.993 296.556 446.35 278.344 426.53 278.344C406.711 278.344 401.889 294.414 401.889 294.414C401.889 294.414 394.39 285.307 382.07 290.128C369.75 294.949 369.214 311.019 369.214 311.019C369.214 311.019 361.178 302.448 352.608 305.127C345.511 307.344 343.19 316.903 342.602 320.125H476.023V320.126Z" fill="#263238"/>
<path d="M471.085 315.806C470.557 313.7 469.171 310.428 465.518 307.77C459.625 303.485 450.52 306.163 450.52 306.163C451.055 292.236 441.413 274.023 421.593 274.023C401.773 274.023 396.952 290.093 396.952 290.093C396.952 290.093 389.452 280.986 377.132 285.808C364.812 290.629 364.276 306.699 364.276 306.699C364.276 306.699 356.241 298.128 347.671 300.806C340.574 303.024 338.253 312.583 337.664 315.805H471.085V315.806Z" fill="white" stroke="#263238" stroke-width="1.1" stroke-miterlimit="10"/>
<path d="M230.437 471.639C229.909 469.534 228.523 466.261 224.87 463.603C218.977 459.318 209.871 461.996 209.871 461.996C210.407 448.069 200.764 429.855 180.945 429.855C161.125 429.855 156.303 445.925 156.303 445.925C156.303 445.925 148.804 436.818 136.484 441.64C124.164 446.461 123.628 462.531 123.628 462.531C123.628 462.531 115.592 453.96 107.022 456.638C99.9251 458.856 97.6041 468.415 97.0156 471.637H230.437V471.639Z" fill="#263238"/>
<path d="M226.117 467.318C225.59 465.212 224.204 461.94 220.549 459.282C214.657 454.996 205.551 457.675 205.551 457.675C206.087 443.748 196.444 425.535 176.624 425.535C156.804 425.535 151.983 441.605 151.983 441.605C151.983 441.605 144.483 432.498 132.163 437.319C119.843 442.141 119.308 458.211 119.308 458.211C119.308 458.211 111.272 449.639 102.702 452.318C95.6048 454.536 93.2838 464.095 92.6953 467.316H226.117V467.318Z" fill="white" stroke="#263238" stroke-width="1.1" stroke-miterlimit="10"/>
<path d="M377.911 398.18C377.96 398.705 378.407 399.111 378.943 399.101C423.516 398.235 465.107 373.755 487.483 335.214C487.765 334.73 487.601 334.107 487.114 333.825C486.629 333.543 486.007 333.708 485.725 334.193C463.702 372.124 422.771 396.216 378.903 397.068C378.342 397.079 377.895 397.543 377.906 398.104C377.908 398.129 377.909 398.154 377.911 398.18Z" fill="#263238"/>
<path d="M413.859 373.529C418.647 385.01 401.642 395.689 401.266 395.331C399.186 395.818 397.087 396.255 394.969 396.64C397.444 395.191 400.525 388.86 401.239 379.516C402.283 370.278 409.701 362.423 413.859 373.529Z" fill="#263238"/>
<path d="M426.142 407.283C430.435 418.712 413.61 418.529 408.25 410.289C402.731 402.393 397.753 397.523 394.992 396.816C397.134 396.575 399.266 396.28 401.383 395.934C401.303 396.408 421.677 396.616 426.142 407.283Z" fill="#263238"/>
<path d="M430.596 365.775C437.22 376.29 422.449 389.601 422.043 389.312C420.105 390.136 418.143 390.912 416.156 391.642C418.303 389.805 420.205 383.064 419.295 373.746C418.716 364.478 424.626 355.525 430.596 365.775Z" fill="#263238"/>
<path d="M448.376 396.986C454.517 407.531 438.036 410.118 431.415 402.889C424.683 396.024 419.008 392.052 416.211 391.813C418.246 391.221 420.263 390.579 422.263 389.887C422.243 390.366 442.165 387.217 448.376 396.986Z" fill="#263238"/>
<path d="M445.741 355.376C454.017 364.641 441.742 380.191 441.312 379.969C439.552 381.098 437.762 382.186 435.944 383.231C437.73 381.07 438.446 374.12 435.972 365.097C433.826 356.069 438.137 346.272 445.741 355.376Z" fill="#263238"/>
<path d="M468.498 383.17C476.31 392.543 460.526 397.819 452.814 391.789C445.042 386.14 438.809 383.163 436.031 383.387C437.921 382.47 439.787 381.505 441.63 380.495C441.675 380.975 460.726 374.584 468.498 383.17Z" fill="#263238"/>
<path d="M458.947 342.566C468.652 350.327 459.12 367.732 458.668 367.575C457.123 368.982 455.542 370.351 453.927 371.681C455.322 369.257 454.862 362.289 450.916 353.806C447.29 345.27 449.923 334.871 458.947 342.566Z" fill="#263238"/>
<path d="M486.039 366.156C495.308 374.094 480.593 381.971 471.984 377.307C463.376 373.037 456.734 371.141 454.039 371.823C455.745 370.605 457.422 369.346 459.068 368.043C459.183 368.518 476.928 359.009 486.039 366.156Z" fill="#263238"/>
<path d="M469.902 327.6C480.779 333.625 474.218 352.519 473.749 352.423C472.454 354.077 471.119 355.698 469.744 357.286C470.719 354.656 469.113 347.85 463.81 340.134C458.812 332.32 459.705 321.547 469.902 327.6Z" fill="#263238"/>
<path d="M500.587 346.275C511.063 352.544 497.802 362.918 488.521 359.768C479.303 357.023 472.425 356.278 469.875 357.408C471.358 355.917 472.807 354.387 474.22 352.819C474.406 353.287 490.393 340.797 500.587 346.275Z" fill="#263238"/>
<path d="M481.469 342.913C481.542 343.236 495.649 331.768 500.044 322.838C504.619 314.193 499.213 308.712 494.957 309.071C490.672 309.363 487.734 315.516 486.39 321.079C485.504 326.683 481.771 342.919 481.469 342.913Z" fill="#263238"/>
<path d="M480.792 342.975C480.795 343.005 480.8 343.034 480.806 343.063C480.87 343.342 481.112 343.558 481.397 343.591C481.417 343.593 481.439 343.592 481.464 343.589C481.653 343.593 481.798 343.592 481.956 343.383C484.887 341.743 496.874 330.809 500.65 323.135C502.904 318.879 503.056 314.694 501.052 311.664C499.611 309.484 497.194 308.201 494.898 308.394C489.104 308.789 486.415 318.081 485.73 320.918C484.863 326.383 481.457 341.161 480.923 342.506C480.823 342.642 480.777 342.809 480.792 342.975ZM501.078 315.791C501.24 317.512 500.908 319.752 499.444 322.519C495.976 329.564 486.494 338.105 482.735 341.159C483.098 339.781 483.601 337.623 484.369 334.25C485.357 329.903 486.582 324.188 487.058 321.185C488.347 315.857 491.119 310.011 495.001 309.747C496.821 309.593 498.748 310.64 499.921 312.414C500.397 313.132 500.934 314.255 501.078 315.791Z" fill="#263238"/>
<path d="M334.527 450.401C334.243 450.52 334.096 450.839 334.195 451.136C342.439 475.78 363.301 494.652 388.637 500.387C388.955 500.459 389.274 500.259 389.346 499.94C389.418 499.621 389.218 499.303 388.899 499.232C363.964 493.587 343.434 475.014 335.319 450.76C335.216 450.45 334.879 450.283 334.569 450.386C334.555 450.39 334.541 450.396 334.527 450.401Z" fill="#263238"/>
<path d="M354.497 466.103C348.945 470.767 340.042 463.168 340.176 462.896C339.543 461.823 338.935 460.732 338.352 459.621C339.589 460.745 343.646 461.357 348.969 460.127C354.289 459.098 359.951 461.856 354.497 466.103Z" fill="#263238"/>
<path d="M337.862 478.815C332.252 483.194 329.424 473.802 333.075 469.386C336.506 464.941 338.348 461.323 338.26 459.664C338.768 460.814 339.302 461.948 339.864 463.065C339.586 463.104 343.019 474.473 337.862 478.815Z" fill="#263238"/>
<path d="M361.731 474.065C357.036 479.582 347.059 473.684 347.149 473.408C346.354 472.473 345.579 471.517 344.828 470.539C346.224 471.413 350.305 471.297 355.33 469.168C360.383 467.23 366.393 468.959 361.731 474.065Z" fill="#263238"/>
<path d="M347.464 489.391C342.668 494.644 338.358 485.926 341.227 480.985C343.873 476.044 345.095 472.196 344.741 470.598C345.425 471.626 346.133 472.637 346.866 473.629C346.595 473.702 351.816 484.234 347.464 489.391Z" fill="#263238"/>
<path d="M370.139 480.674C366.427 486.891 355.639 482.77 355.688 482.493C354.753 481.711 353.835 480.905 352.938 480.075C354.451 480.692 358.442 479.881 363.03 476.933C367.679 474.167 373.879 474.859 370.139 480.674Z" fill="#263238"/>
<path d="M358.648 498.17C354.795 504.147 349.11 496.288 351.122 490.947C352.911 485.641 353.481 481.654 352.872 480.148C353.711 481.039 354.573 481.91 355.456 482.759C355.197 482.867 362.07 492.351 358.648 498.17Z" fill="#263238"/>
<path d="M379.578 485.792C376.951 492.542 365.609 490.271 365.618 489.992C364.566 489.377 363.529 488.737 362.508 488.07C364.1 488.423 367.896 486.955 371.927 483.282C376.043 479.778 382.287 479.432 379.578 485.792Z" fill="#263238"/>
<path d="M371.174 504.97C368.372 511.508 361.428 504.695 362.522 499.094C363.398 493.562 363.297 489.537 362.447 488.156C363.422 488.893 364.414 489.606 365.426 490.296C365.182 490.442 373.562 498.657 371.174 504.97Z" fill="#263238"/>
<path d="M389.815 489.28C388.359 496.38 376.704 496.021 376.677 495.744C375.531 495.311 374.397 494.852 373.273 494.363C374.906 494.448 378.413 492.368 381.781 488.075C385.258 483.933 391.407 482.554 389.815 489.28Z" fill="#263238"/>
<path d="M384.769 509.602C383.107 516.522 375.026 510.952 375.161 505.24C375.083 499.635 374.3 495.678 373.227 494.457C374.314 495.022 375.418 495.561 376.536 496.074C376.308 496.26 386.04 502.978 384.769 509.602Z" fill="#263238"/>
<path d="M383.299 498.376C383.133 498.474 391.968 504.322 397.701 505.212C403.307 506.252 405.415 502.29 404.473 499.984C403.564 497.652 399.63 497.089 396.301 497.31C393.031 497.795 383.349 498.546 383.299 498.376Z" fill="#263238"/>
<path d="M383.151 498.013C383.134 498.02 383.119 498.027 383.104 498.036C382.96 498.121 382.881 498.293 382.913 498.456C382.916 498.467 382.92 498.48 382.927 498.494C382.957 498.599 382.983 498.68 383.127 498.731C384.549 500.077 392.719 504.84 397.646 505.604C400.406 506.117 402.761 505.472 404.097 503.83C405.06 502.649 405.352 501.081 404.844 499.837C403.615 496.682 397.979 496.805 396.281 496.918C393.089 497.387 384.276 498.067 383.435 498.004C383.341 497.973 383.24 497.976 383.151 498.013ZM401.806 504.564C400.876 504.954 399.573 505.159 397.779 504.827C393.257 504.125 386.854 500.337 384.501 498.779C385.331 498.74 386.618 498.646 388.629 498.484C391.219 498.276 394.612 497.963 396.365 497.704C399.554 497.493 403.288 498.018 404.111 500.131C404.514 501.117 404.268 502.371 403.486 503.332C403.165 503.722 402.634 504.216 401.806 504.564Z" fill="#263238"/>
<path d="M218.458 456.98C218.741 457.098 218.89 457.417 218.791 457.714C210.546 482.359 189.685 501.23 164.348 506.965C164.03 507.037 163.711 506.837 163.64 506.518C163.567 506.199 163.767 505.881 164.086 505.81C189.021 500.166 209.552 481.592 217.666 457.338C217.77 457.028 218.106 456.861 218.417 456.964C218.431 456.969 218.445 456.974 218.458 456.98Z" fill="#263238"/>
<path d="M198.493 472.682C204.046 477.346 212.948 469.746 212.814 469.474C213.448 468.401 214.056 467.31 214.639 466.199C213.403 467.323 209.345 467.935 204.022 466.705C198.701 465.676 193.039 468.434 198.493 472.682Z" fill="#263238"/>
<path d="M215.132 485.393C220.742 489.772 223.57 480.381 219.919 475.964C216.488 471.519 214.645 467.901 214.733 466.242C214.226 467.392 213.692 468.526 213.13 469.643C213.408 469.682 209.975 481.051 215.132 485.393Z" fill="#263238"/>
<path d="M191.263 480.643C195.959 486.16 205.935 480.261 205.845 479.985C206.641 479.051 207.415 478.094 208.166 477.116C206.771 477.991 202.69 477.874 197.665 475.746C192.611 473.809 186.602 475.537 191.263 480.643Z" fill="#263238"/>
<path d="M205.521 495.968C210.317 501.221 214.627 492.503 211.758 487.562C209.112 482.621 207.89 478.773 208.244 477.176C207.56 478.204 206.852 479.215 206.119 480.207C206.389 480.279 201.168 490.812 205.521 495.968Z" fill="#263238"/>
<path d="M182.835 487.253C186.547 493.47 197.335 489.349 197.287 489.072C198.222 488.29 199.139 487.484 200.037 486.654C198.523 487.271 194.532 486.459 189.944 483.511C185.297 480.745 179.096 481.437 182.835 487.253Z" fill="#263238"/>
<path d="M194.332 504.748C198.186 510.725 203.87 502.866 201.858 497.525C200.07 492.219 199.499 488.232 200.108 486.727C199.269 487.618 198.408 488.488 197.524 489.337C197.783 489.445 190.91 498.929 194.332 504.748Z" fill="#263238"/>
<path d="M173.41 492.37C176.037 499.12 187.379 496.849 187.37 496.57C188.422 495.955 189.459 495.315 190.48 494.648C188.888 495.001 185.092 493.533 181.06 489.86C176.945 486.356 170.701 486.01 173.41 492.37Z" fill="#263238"/>
<path d="M181.82 511.548C184.621 518.086 191.566 511.273 190.471 505.672C189.596 500.14 189.697 496.115 190.546 494.734C189.571 495.471 188.579 496.184 187.567 496.874C187.811 497.02 179.43 505.235 181.82 511.548Z" fill="#263238"/>
<path d="M163.18 495.858C164.636 502.958 176.29 502.599 176.318 502.322C177.465 501.89 178.599 501.43 179.721 500.941C178.088 501.026 174.582 498.946 171.213 494.653C167.737 490.511 161.588 489.132 163.18 495.858Z" fill="#263238"/>
<path d="M168.224 516.18C169.886 523.1 177.967 517.53 177.832 511.818C177.91 506.213 178.693 502.256 179.765 501.035C178.677 501.601 177.574 502.14 176.455 502.652C176.684 502.838 166.951 509.556 168.224 516.18Z" fill="#263238"/>
<path d="M169.687 504.958C169.854 505.056 161.018 510.904 155.285 511.794C149.679 512.834 147.572 508.872 148.513 506.566C149.422 504.234 153.357 503.671 156.685 503.892C159.957 504.376 169.638 505.127 169.687 504.958Z" fill="#263238"/>
<path d="M169.838 504.591C169.854 504.598 169.869 504.606 169.885 504.614C170.029 504.699 170.107 504.871 170.075 505.035C170.073 505.046 170.069 505.058 170.062 505.072C170.031 505.178 170.006 505.258 169.862 505.31C168.439 506.655 160.269 511.418 155.343 512.182C152.583 512.695 150.228 512.05 148.891 510.408C147.93 509.227 147.636 507.659 148.144 506.415C149.373 503.26 155.01 503.384 156.708 503.496C159.899 503.965 168.712 504.645 169.554 504.583C169.647 504.551 169.747 504.554 169.838 504.591ZM151.183 511.142C152.112 511.532 153.416 511.737 155.21 511.405C159.732 510.703 166.135 506.916 168.488 505.357C167.657 505.318 166.37 505.224 164.36 505.062C161.769 504.854 158.377 504.541 156.623 504.282C153.434 504.071 149.7 504.596 148.877 506.709C148.474 507.696 148.721 508.95 149.503 509.91C149.822 510.3 150.354 510.794 151.183 511.142Z" fill="#263238"/>
<path d="M179.757 398.18C179.707 398.705 179.261 399.111 178.725 399.101C134.152 398.235 92.5607 373.755 70.1845 335.214C69.9029 334.73 70.0668 334.107 70.553 333.825C71.0381 333.543 71.6607 333.708 71.9423 334.193C93.9654 372.124 134.896 396.216 178.764 397.068C179.325 397.079 179.772 397.543 179.761 398.104C179.761 398.129 179.759 398.154 179.757 398.18Z" fill="#263238"/>
<path d="M143.81 373.529C139.022 385.01 156.027 395.689 156.403 395.331C158.483 395.818 160.582 396.255 162.7 396.64C160.225 395.191 157.144 388.86 156.431 379.516C155.386 370.278 147.968 362.423 143.81 373.529Z" fill="#263238"/>
<path d="M131.522 407.283C127.228 418.712 144.054 418.529 149.413 410.289C154.933 402.393 159.911 397.523 162.672 396.816C160.53 396.575 158.398 396.28 156.281 395.934C156.361 396.408 135.988 396.616 131.522 407.283Z" fill="#263238"/>
<path d="M127.066 365.775C120.442 376.29 135.212 389.601 135.617 389.312C137.555 390.136 139.518 390.912 141.504 391.642C139.357 389.805 137.455 383.064 138.366 373.746C138.947 364.478 133.035 355.525 127.066 365.775Z" fill="#263238"/>
<path d="M109.284 396.986C103.143 407.531 119.624 410.118 126.245 402.889C132.977 396.024 138.652 392.052 141.449 391.813C139.414 391.221 137.397 390.579 135.397 389.887C135.417 390.366 115.496 387.217 109.284 396.986Z" fill="#263238"/>
<path d="M111.93 355.376C103.655 364.641 115.929 380.191 116.36 379.969C118.12 381.098 119.909 382.186 121.728 383.231C119.941 381.07 119.226 374.12 121.699 365.097C123.844 356.069 119.533 346.272 111.93 355.376Z" fill="#263238"/>
<path d="M89.1772 383.17C81.365 392.543 97.1489 397.819 104.861 391.789C112.633 386.14 118.866 383.163 121.644 383.387C119.755 382.47 117.887 381.505 116.046 380.495C116.001 380.975 96.9487 374.584 89.1772 383.17Z" fill="#263238"/>
<path d="M98.7161 342.566C89.0119 350.327 98.5434 367.732 98.9955 367.575C100.541 368.982 102.122 370.351 103.736 371.681C102.342 369.257 102.801 362.289 106.747 353.806C110.375 345.27 107.742 334.871 98.7161 342.566Z" fill="#263238"/>
<path d="M71.6285 366.156C62.3599 374.094 77.0746 381.971 85.6832 377.307C94.2918 373.037 100.934 371.141 103.629 371.823C101.922 370.605 100.246 369.346 98.5993 368.043C98.4849 368.518 80.7398 359.009 71.6285 366.156Z" fill="#263238"/>
<path d="M87.7657 327.6C76.8889 333.625 83.4504 352.519 83.919 352.423C85.2137 354.077 86.5491 355.698 87.9241 357.286C86.9495 354.656 88.5555 347.85 93.8586 340.134C98.8559 332.32 97.9616 321.547 87.7657 327.6Z" fill="#263238"/>
<path d="M57.0791 346.275C46.6027 352.544 59.8643 362.918 69.145 359.768C78.363 357.023 85.2413 356.278 87.7911 357.408C86.3083 355.917 84.8596 354.387 83.4461 352.819C83.2602 353.287 67.2728 340.797 57.0791 346.275Z" fill="#263238"/>
<path d="M76.1926 342.913C76.1178 343.236 62.0124 331.768 57.6168 322.838C53.0419 314.193 58.4484 308.712 62.7043 309.071C66.9888 309.363 69.9281 315.516 71.2712 321.079C72.1567 326.683 75.8901 342.919 76.1926 342.913Z" fill="#263238"/>
<path d="M76.8735 342.975C76.8702 343.005 76.8658 343.034 76.8592 343.063C76.7954 343.342 76.5534 343.558 76.2685 343.591C76.2487 343.593 76.2267 343.592 76.2014 343.589C76.0122 343.593 75.867 343.592 75.7097 343.383C72.7782 341.743 60.7915 330.809 57.0152 323.135C54.7613 318.879 54.6095 314.694 56.6137 311.664C58.0547 309.484 60.4703 308.201 62.7671 308.394C68.5619 308.789 71.2503 318.081 71.9356 320.918C72.8024 326.383 76.208 341.161 76.7426 342.506C76.8427 342.642 76.8889 342.809 76.8735 342.975ZM56.5873 315.791C56.4256 317.512 56.7578 319.752 58.2219 322.519C61.6891 329.564 71.1711 338.105 74.9298 341.159C74.5668 339.781 74.063 337.623 73.2952 334.25C72.3074 329.903 71.082 324.188 70.6068 321.185C69.3176 315.857 66.5456 310.011 62.6637 309.747C60.8421 309.593 58.916 310.64 57.7434 312.414C57.2671 313.132 56.7314 314.255 56.5873 315.791Z" fill="#263238"/>
<path d="M179.622 256.613C160.12 256.645 144.32 271.66 144.32 290.179C144.32 290.272 144.32 290.365 144.321 290.457C144.408 300.531 152.786 308.625 162.858 308.373C164.422 308.334 166.09 308.414 167.758 308.683C171.095 309.221 173.679 311.179 175.432 313.441C176.4 314.692 177.854 315.481 179.435 315.488C179.496 315.488 179.559 315.488 179.62 315.488C179.682 315.488 179.745 315.488 179.806 315.488C181.387 315.482 182.842 314.692 183.809 313.441C185.56 311.179 188.144 309.221 191.483 308.683C193.152 308.413 194.819 308.333 196.383 308.373C206.455 308.623 214.833 300.531 214.919 290.457C214.921 290.365 214.921 290.272 214.921 290.179C214.923 271.66 199.123 256.645 179.622 256.613Z" fill="#35D36A"/>
<path d="M191.832 297.863L184.023 299.552L193.343 287.941L180.617 299.804L180.539 300.627L179.97 288.157L179.071 307.851L166.523 296.155L175.843 307.765L168.034 306.076L177.905 310.334L178.902 311.576L177.166 349.627H182.774L180.679 303.718L181.961 302.121L191.832 297.863Z" fill="#263238"/>
<path d="M169.119 287.67C169.119 287.67 167.946 284.319 165.432 283.145C162.917 281.971 161.242 281.637 161.242 281.637C161.242 281.637 162.582 288.508 169.119 287.67Z" fill="white"/>
<path d="M172.152 278.759C172.152 278.759 171.959 275.212 169.871 273.385C167.783 271.558 166.266 270.77 166.266 270.77C166.266 270.77 165.64 277.744 172.152 278.759Z" fill="white"/>
<path d="M200.092 305.915C200.092 305.915 197.842 303.166 195.079 302.924C192.315 302.682 190.625 302.939 190.625 302.939C190.625 302.939 194.235 308.939 200.092 305.915Z" fill="white"/>
<path d="M156.203 305.076C156.203 305.076 158.453 302.327 161.216 302.085C163.98 301.842 165.67 302.1 165.67 302.1C165.67 302.1 162.06 308.099 156.203 305.076Z" fill="white"/>
<path d="M162.262 275.739C162.262 275.739 162.068 272.193 159.98 270.366C157.893 268.539 156.376 267.75 156.376 267.75C156.376 267.75 155.75 274.723 162.262 275.739Z" fill="white"/>
<path d="M195.125 277.751C195.125 277.751 195.319 274.205 197.406 272.378C199.494 270.55 201.011 269.762 201.011 269.762C201.011 269.762 201.637 276.736 195.125 277.751Z" fill="white"/>
<path d="M178.765 273.191C178.765 273.191 180.814 270.289 180.309 267.561C179.804 264.833 179.104 263.273 179.104 263.273C179.104 263.273 174.287 268.355 178.765 273.191Z" fill="white"/>
<path d="M181.04 286.541C181.04 286.541 181.372 283.004 179.577 280.889C177.782 278.774 176.398 277.77 176.398 277.77C176.398 277.77 174.75 284.574 181.04 286.541Z" fill="white"/>
<path d="M172.607 270.388C172.607 270.388 173.668 266.999 172.352 264.556C171.035 262.114 169.891 260.844 169.891 260.844C169.891 260.844 166.863 267.157 172.607 270.388Z" fill="white"/>
<path d="M175.295 296.705C175.295 296.705 176.355 293.316 175.04 290.873C173.723 288.431 172.579 287.16 172.579 287.16C172.579 287.16 169.551 293.474 175.295 296.705Z" fill="white"/>
<path d="M183.232 292.722C183.232 292.722 186.232 290.821 186.806 288.107C187.38 285.392 187.327 283.684 187.327 283.684C187.327 283.684 180.936 286.545 183.232 292.722Z" fill="white"/>
<path d="M183.591 270.388C183.591 270.388 182.531 266.999 183.847 264.556C185.163 262.114 186.307 260.844 186.307 260.844C186.307 260.844 189.336 267.157 183.591 270.388Z" fill="white"/>
<path d="M187.773 278.911C187.773 278.911 190.766 276.998 191.329 274.281C191.893 271.564 191.834 269.855 191.834 269.855C191.834 269.855 185.454 272.741 187.773 278.911Z" fill="white"/>
<path d="M195.845 288.194C195.845 288.194 199.284 287.303 200.661 284.895C202.039 282.487 202.512 280.844 202.512 280.844C202.512 280.844 195.551 281.61 195.845 288.194Z" fill="white"/>
<path d="M196.617 296.486C196.617 296.486 199.842 297.974 202.434 296.983C205.026 295.991 206.431 295.019 206.431 295.019C206.431 295.019 200.561 291.205 196.617 296.486Z" fill="white"/>
<path d="M201.141 288.943C201.141 288.943 204.366 290.431 206.957 289.44C209.549 288.448 210.955 287.476 210.955 287.476C210.955 287.476 205.084 283.662 201.141 288.943Z" fill="white"/>
<path d="M155.992 293.762C155.992 293.762 158.159 296.575 160.915 296.9C163.67 297.224 165.366 297.016 165.366 297.016C165.366 297.016 161.935 290.913 155.992 293.762Z" fill="white"/>
<path d="M148.953 284.039C148.953 284.039 151.12 286.854 153.876 287.177C156.631 287.502 158.328 287.294 158.328 287.294C158.328 287.294 154.896 281.19 148.953 284.039Z" fill="white"/>
<path d="M386.638 302.68C368.513 302.709 353.828 316.664 353.828 333.877C353.828 333.964 353.828 334.049 353.829 334.135C353.91 343.498 361.696 351.02 371.057 350.787C372.512 350.751 374.062 350.826 375.613 351.075C378.715 351.576 381.116 353.395 382.744 355.498C383.644 356.66 384.996 357.395 386.465 357.399C386.522 357.399 386.581 357.399 386.638 357.399C386.695 357.399 386.753 357.399 386.811 357.399C388.28 357.394 389.632 356.66 390.532 355.498C392.16 353.395 394.561 351.576 397.663 351.075C399.214 350.826 400.764 350.751 402.218 350.787C411.578 351.02 419.365 343.498 419.446 334.135C419.448 334.049 419.448 333.964 419.448 333.877C419.446 316.664 404.763 302.708 386.638 302.68Z" fill="#35D36A"/>
<path d="M397.983 341.018L390.726 342.587L399.387 331.797L387.56 342.822L387.486 343.586L386.958 331.997L386.123 350.301L374.461 339.43L383.121 350.221L375.863 348.651L385.039 352.609L385.965 353.763L384.352 389.129H389.564L387.618 346.46L388.808 344.976L397.983 341.018Z" fill="#263238"/>
<path d="M376.877 331.543C376.877 331.543 375.787 328.426 373.45 327.336C371.113 326.246 369.555 325.934 369.555 325.934C369.555 325.934 370.802 332.321 376.877 331.543Z" fill="white"/>
<path d="M379.705 323.261C379.705 323.261 379.526 319.965 377.584 318.267C375.644 316.569 374.234 315.836 374.234 315.836C374.234 315.836 373.653 322.317 379.705 323.261Z" fill="white"/>
<path d="M405.666 348.497C405.666 348.497 403.576 345.943 401.006 345.718C398.438 345.492 396.867 345.732 396.867 345.732C396.867 345.732 400.223 351.308 405.666 348.497Z" fill="white"/>
<path d="M364.867 347.72C364.867 347.72 366.958 345.164 369.527 344.94C372.095 344.716 373.666 344.954 373.666 344.954C373.666 344.954 370.31 350.53 364.867 347.72Z" fill="white"/>
<path d="M370.509 320.456C370.509 320.456 370.33 317.161 368.389 315.462C366.449 313.764 365.039 313.031 365.039 313.031C365.039 313.031 364.457 319.512 370.509 320.456Z" fill="white"/>
<path d="M401.039 322.323C401.039 322.323 401.218 319.028 403.159 317.329C405.099 315.631 406.509 314.898 406.509 314.898C406.509 314.898 407.091 321.379 401.039 322.323Z" fill="white"/>
<path d="M385.842 318.085C385.842 318.085 387.745 315.388 387.277 312.852C386.808 310.317 386.157 308.867 386.157 308.867C386.157 308.867 381.68 313.591 385.842 318.085Z" fill="white"/>
<path d="M387.964 330.492C387.964 330.492 388.273 327.205 386.605 325.239C384.936 323.274 383.65 322.34 383.65 322.34C383.65 322.34 382.118 328.665 387.964 330.492Z" fill="white"/>
<path d="M380.117 315.481C380.117 315.481 381.103 312.33 379.88 310.06C378.656 307.79 377.593 306.609 377.593 306.609C377.593 306.609 374.779 312.478 380.117 315.481Z" fill="white"/>
<path d="M382.609 339.938C382.609 339.938 383.595 336.787 382.372 334.517C381.148 332.247 380.085 331.066 380.085 331.066C380.085 331.066 377.271 336.935 382.609 339.938Z" fill="white"/>
<path d="M389.994 336.241C389.994 336.241 392.782 334.474 393.316 331.951C393.849 329.428 393.801 327.84 393.801 327.84C393.801 327.84 387.861 330.499 389.994 336.241Z" fill="white"/>
<path d="M390.328 315.481C390.328 315.481 389.343 312.33 390.566 310.06C391.789 307.79 392.853 306.609 392.853 306.609C392.853 306.609 395.668 312.478 390.328 315.481Z" fill="white"/>
<path d="M394.214 323.4C394.214 323.4 396.996 321.623 397.519 319.097C398.043 316.573 397.988 314.984 397.988 314.984C397.988 314.984 392.059 317.666 394.214 323.4Z" fill="white"/>
<path d="M401.719 332.027C401.719 332.027 404.915 331.199 406.195 328.961C407.476 326.722 407.916 325.195 407.916 325.195C407.916 325.195 401.447 325.908 401.719 332.027Z" fill="white"/>
<path d="M402.438 339.734C402.438 339.734 405.435 341.117 407.844 340.195C410.252 339.273 411.56 338.37 411.56 338.37C411.56 338.37 406.102 334.826 402.438 339.734Z" fill="white"/>
<path d="M406.641 332.726C406.641 332.726 409.638 334.109 412.047 333.187C414.456 332.265 415.763 331.362 415.763 331.362C415.763 331.362 410.305 327.818 406.641 332.726Z" fill="white"/>
<path d="M364.672 337.204C364.672 337.204 366.686 339.82 369.247 340.121C371.808 340.423 373.385 340.229 373.385 340.229C373.385 340.229 370.196 334.556 364.672 337.204Z" fill="white"/>
<path d="M358.133 328.169C358.133 328.169 360.147 330.785 362.708 331.086C365.269 331.388 366.846 331.194 366.846 331.194C366.846 331.194 363.657 325.521 358.133 328.169Z" fill="white"/>
<path d="M142.568 390.589C127.744 401.019 123.732 420.876 133.615 434.969C133.664 435.039 133.714 435.11 133.763 435.179C139.205 442.799 149.899 444.488 157.429 438.922C158.598 438.058 159.91 437.228 161.324 436.543C164.151 435.171 167.161 435.282 169.702 436.07C171.106 436.505 172.634 436.329 173.841 435.49C173.888 435.457 173.935 435.424 173.982 435.391C174.03 435.358 174.077 435.325 174.123 435.291C175.323 434.443 176.009 433.066 176.078 431.598C176.203 428.942 177.125 426.073 179.378 423.882C180.504 422.787 181.731 421.836 182.942 421.031C190.74 415.847 192.797 405.218 187.487 397.506C187.439 397.436 187.389 397.364 187.34 397.294C177.461 383.204 157.425 380.207 142.568 390.589Z" fill="#35D36A"/>
<path d="M173.874 415.465L168.833 420.917L169.729 407.109L166.375 422.926L166.754 423.594L159.667 414.409L169.493 429.875L153.703 427.669L166.989 431.533L160.146 434.414L169.929 432.387L171.35 432.801L190.334 462.684L194.601 459.69L168.511 425.872L168.635 423.972L173.874 415.465Z" fill="#263238"/>
<path d="M151.152 419.825C151.152 419.825 148.47 417.9 145.932 418.349C143.392 418.798 141.938 419.437 141.938 419.437C141.938 419.437 146.625 423.951 151.152 419.825Z" fill="white"/>
<path d="M148.712 411.425C148.712 411.425 146.672 408.829 144.108 408.553C141.544 408.277 139.969 408.486 139.969 408.486C139.969 408.486 143.214 414.127 148.712 411.425Z" fill="white"/>
<path d="M184.463 417.186C184.463 417.186 181.285 416.295 179.052 417.586C176.819 418.876 175.672 419.974 175.672 419.974C175.672 419.974 181.62 422.612 184.463 417.186Z" fill="white"/>
<path d="M150.609 439.967C150.609 439.967 150.855 436.675 152.828 435.016C154.801 433.356 156.226 432.652 156.226 432.652C156.226 432.652 156.679 439.143 150.609 439.967Z" fill="white"/>
<path d="M139.571 414.406C139.571 414.406 137.532 411.81 134.967 411.534C132.403 411.257 130.828 411.466 130.828 411.466C130.828 411.466 134.073 417.107 139.571 414.406Z" fill="white"/>
<path d="M165.646 398.408C165.646 398.408 163.9 395.606 164.514 393.101C165.127 390.597 165.861 389.188 165.861 389.188C165.861 389.188 170.059 394.161 165.646 398.408Z" fill="white"/>
<path d="M150.761 403.662C150.761 403.662 150.771 400.361 148.932 398.554C147.092 396.746 145.728 395.934 145.728 395.934C145.728 395.934 144.774 402.371 150.761 403.662Z" fill="white"/>
<path d="M159.618 412.608C159.618 412.608 157.984 409.739 155.489 409.088C152.995 408.435 151.406 408.41 151.406 408.41C151.406 408.41 153.781 414.468 159.618 412.608Z" fill="white"/>
<path d="M144.582 404.814C144.582 404.814 143.58 401.669 141.275 400.511C138.971 399.355 137.422 399 137.422 399C137.422 399 138.487 405.42 144.582 404.814Z" fill="white"/>
<path d="M160.668 423.412C160.668 423.412 159.666 420.267 157.361 419.11C155.057 417.954 153.508 417.598 153.508 417.598C153.508 417.598 154.573 424.018 160.668 423.412Z" fill="white"/>
<path d="M164.586 416.142C164.586 416.142 165.854 413.094 164.843 410.722C163.831 408.35 162.88 407.078 162.88 407.078C162.88 407.078 159.542 412.665 164.586 416.142Z" fill="white"/>
<path d="M152.946 398.955C152.946 398.955 150.33 396.941 150.028 394.38C149.727 391.82 149.921 390.242 149.921 390.242C149.921 390.242 155.593 393.432 152.946 398.955Z" fill="white"/>
<path d="M160.675 403.21C160.675 403.21 161.932 400.157 160.912 397.789C159.891 395.421 158.935 394.152 158.935 394.152C158.935 394.152 155.618 399.752 160.675 403.21Z" fill="white"/>
<path d="M171.766 405.967C171.766 405.967 173.907 403.455 173.671 400.886C173.434 398.319 172.918 396.816 172.918 396.816C172.918 396.816 168.03 401.113 171.766 405.967Z" fill="white"/>
<path d="M176.781 411.864C176.781 411.864 180.03 411.276 181.473 409.138C182.916 407.001 183.468 405.512 183.468 405.512C183.468 405.512 176.964 405.742 176.781 411.864Z" fill="white"/>
<path d="M176.203 403.708C176.203 403.708 179.451 403.119 180.895 400.982C182.338 398.845 182.889 397.355 182.889 397.355C182.889 397.355 176.386 397.585 176.203 403.708Z" fill="white"/>
<path d="M144.406 431.469C144.406 431.469 147.557 432.454 149.827 431.231C152.097 430.008 153.278 428.944 153.278 428.944C153.278 428.944 147.408 426.13 144.406 431.469Z" fill="white"/>
<path d="M133.859 427.825C133.859 427.825 137.01 428.81 139.28 427.587C141.551 426.364 142.73 425.3 142.73 425.3C142.73 425.3 136.862 422.485 133.859 427.825Z" fill="white"/>
<path d="M405.427 390.589C420.251 401.019 424.262 420.876 414.38 434.969C414.33 435.039 414.281 435.11 414.231 435.179C408.79 442.799 398.096 444.488 390.566 438.922C389.397 438.058 388.084 437.228 386.671 436.543C383.844 435.171 380.833 435.282 378.292 436.07C376.889 436.505 375.361 436.329 374.154 435.49C374.107 435.457 374.059 435.424 374.012 435.391C373.965 435.358 373.917 435.325 373.87 435.291C372.67 434.443 371.985 433.066 371.916 431.598C371.79 428.942 370.868 426.073 368.616 423.882C367.489 422.787 366.263 421.836 365.051 421.031C357.254 415.847 355.197 405.218 360.505 397.506C360.554 397.436 360.603 397.364 360.653 397.294C370.534 383.204 390.569 380.207 405.427 390.589Z" fill="#35D36A"/>
<path d="M374.126 415.465L379.167 420.917L378.271 407.109L381.626 422.926L381.246 423.594L388.332 414.409L378.507 429.875L394.298 427.669L381.011 431.533L387.854 434.414L378.07 432.387L376.649 432.801L357.666 462.684L353.398 459.69L379.489 425.872L379.366 423.972L374.126 415.465Z" fill="#263238"/>
<path d="M396.859 419.825C396.859 419.825 399.541 417.9 402.08 418.349C404.619 418.798 406.074 419.437 406.074 419.437C406.074 419.437 401.387 423.951 396.859 419.825Z" fill="white"/>
<path d="M399.297 411.425C399.297 411.425 401.336 408.829 403.9 408.553C406.464 408.277 408.039 408.486 408.039 408.486C408.039 408.486 404.794 414.127 399.297 411.425Z" fill="white"/>
<path d="M363.547 417.186C363.547 417.186 366.725 416.295 368.958 417.586C371.191 418.876 372.338 419.974 372.338 419.974C372.338 419.974 366.39 422.612 363.547 417.186Z" fill="white"/>
<path d="M397.405 439.967C397.405 439.967 397.16 436.675 395.187 435.016C393.213 433.356 391.789 432.652 391.789 432.652C391.789 432.652 391.336 439.143 397.405 439.967Z" fill="white"/>
<path d="M408.438 414.406C408.438 414.406 410.477 411.81 413.041 411.534C415.605 411.257 417.18 411.466 417.18 411.466C417.18 411.466 413.934 417.107 408.438 414.406Z" fill="white"/>
<path d="M382.363 398.408C382.363 398.408 384.108 395.606 383.495 393.101C382.881 390.597 382.147 389.188 382.147 389.188C382.147 389.188 377.949 394.161 382.363 398.408Z" fill="white"/>
<path d="M397.234 403.662C397.234 403.662 397.224 400.361 399.064 398.554C400.904 396.746 402.268 395.934 402.268 395.934C402.268 395.934 403.223 402.371 397.234 403.662Z" fill="white"/>
<path d="M388.375 412.608C388.375 412.608 390.008 409.739 392.503 409.088C394.998 408.435 396.586 408.41 396.586 408.41C396.586 408.41 394.212 414.468 388.375 412.608Z" fill="white"/>
<path d="M403.422 404.814C403.422 404.814 404.424 401.669 406.728 400.511C409.033 399.355 410.582 399 410.582 399C410.582 399 409.518 405.42 403.422 404.814Z" fill="white"/>
<path d="M387.344 423.412C387.344 423.412 388.346 420.267 390.65 419.11C392.955 417.954 394.504 417.598 394.504 417.598C394.504 417.598 393.439 424.018 387.344 423.412Z" fill="white"/>
<path d="M383.414 416.142C383.414 416.142 382.146 413.094 383.157 410.722C384.169 408.35 385.12 407.078 385.12 407.078C385.12 407.078 388.458 412.665 383.414 416.142Z" fill="white"/>
<path d="M395.063 398.955C395.063 398.955 397.679 396.941 397.981 394.38C398.282 391.82 398.088 390.242 398.088 390.242C398.088 390.242 392.416 393.432 395.063 398.955Z" fill="white"/>
<path d="M387.331 403.21C387.331 403.21 386.074 400.157 387.095 397.789C388.116 395.421 389.072 394.152 389.072 394.152C389.072 394.152 392.387 399.752 387.331 403.21Z" fill="white"/>
<path d="M376.235 405.967C376.235 405.967 374.094 403.455 374.331 400.886C374.567 398.319 375.084 396.816 375.084 396.816C375.084 396.816 379.97 401.113 376.235 405.967Z" fill="white"/>
<path d="M371.217 411.864C371.217 411.864 367.969 411.276 366.526 409.138C365.082 407.001 364.531 405.512 364.531 405.512C364.531 405.512 371.034 405.742 371.217 411.864Z" fill="white"/>
<path d="M371.804 403.708C371.804 403.708 368.556 403.119 367.113 400.982C365.669 398.845 365.117 397.355 365.117 397.355C365.117 397.355 371.621 397.585 371.804 403.708Z" fill="white"/>
<path d="M403.589 431.469C403.589 431.469 400.439 432.454 398.168 431.231C395.898 430.008 394.719 428.944 394.719 428.944C394.719 428.944 400.586 426.13 403.589 431.469Z" fill="white"/>
<path d="M414.137 427.825C414.137 427.825 410.987 428.81 408.716 427.587C406.446 426.364 405.266 425.3 405.266 425.3C405.266 425.3 411.134 422.485 414.137 427.825Z" fill="white"/>
<path d="M303.072 507.532C366.12 492.35 404.923 428.933 389.741 365.885C374.559 302.837 311.142 264.033 248.095 279.215C185.047 294.396 146.245 357.814 161.426 420.862C176.608 483.91 240.025 522.713 303.072 507.532Z" fill="#A3A3A3"/>
<path d="M252.016 502.02C258.258 503.378 264.658 504.205 271.156 504.46" stroke="#263238" stroke-width="1.1" stroke-miterlimit="10" stroke-linecap="round" stroke-linejoin="round"/>
<path d="M237.617 497.848C240.799 499.008 244.041 500.025 247.332 500.892" stroke="#263238" stroke-width="1.1" stroke-miterlimit="10" stroke-linecap="round" stroke-linejoin="round"/>
<path d="M168.666 362.965C163.758 380.161 162.94 398.791 167.089 417.475C175.296 454.432 201.022 482.97 233.593 496.295" stroke="#263238" stroke-width="1.1" stroke-miterlimit="10" stroke-linecap="round" stroke-linejoin="round"/>
<path d="M183.609 330.988C179.599 336.902 176.159 343.196 173.344 349.782" stroke="#263238" stroke-width="1.1" stroke-miterlimit="10" stroke-linecap="round" stroke-linejoin="round"/>
<path d="M259.673 341.23L271.642 343.711L275.723 347.944L281.043 348.76L282.735 353.809L281.495 357.223L277.867 358.887L268.981 357.433L268.739 356.346L272.941 353.414L270.04 348.064L262.091 346.974L257.859 343.346L259.673 341.23Z" fill="white"/>
<path d="M356.147 451.695L346.656 450.091L335.2 448.638L326.766 450.511L318.514 450.631L310.231 454.469L305.394 455.829L302.401 456.493L297.414 461.026L292.456 464.411L284.083 461.417L284.296 453.377L279.248 452.499L273.808 453.707L272.448 451.44L271.905 446.422L269.397 444.124L265.708 445.514L265.224 448.476L260.659 449.775L255.492 445.785L252.409 439.618L254.799 431.094L262.809 429.886L265.408 431.308L268.673 430.583L272.209 427.228L275.988 427.531L282.757 434.877L284.601 434.182L282.667 428.045L280.31 425.143L279.706 419.853L288.805 413.265L287.931 402.897L291.498 398.393L293.645 391.35L296.244 390.202L301.595 384.731L301.384 382.494L297.091 383.733L295.792 381.737L292.799 382.402L288.416 384.517L289.806 380.496L298.724 375.661L300.356 372.729L305.494 377.868L308.487 379.774L312.055 377.84L309.637 374.666L303.017 371.854L294.856 365.958L287.027 362.844L280.257 363.205L276.267 360.666L271.673 360.543L271.37 361.752L272.578 369.763L274.27 372.241L273.755 381.491L267.347 378.346L267.318 374.356L261 372.904L257.887 370.456L257.738 363.352L264.359 355.886L263.452 349.235L260.52 350.173L258.072 348.146L256.35 344.247L254.385 344.398L254.264 348.992L251.392 350.201L247.917 340.981L245.439 340.104L241.267 339.318L237.398 342.462L243.987 346.422L246.102 350.805L234.676 345.634L226.244 339.799L224.068 332.574L216.511 331.969L211.855 336.714C211.855 336.714 209.496 338.95 208.256 339.796C207.017 340.642 201.969 342.335 201.969 342.335L201.908 347.202L195.711 348.863L196.92 351.735L207.349 351.132L213.786 355.697L215.9 365.218L214.781 374.317L217.318 383.174L212.661 398.196L215.439 418.419L220.426 429.301L225.896 437.221L230.098 436.859L227.772 432.808L224.871 430.026L222.181 424.343L224.509 423.256L230.492 432.204L235.146 440.306L236.717 447.379L243.276 452.488L254.036 457.236L269.029 457.902L274.288 461.016L278.52 464.644L284.082 466.549L290.43 466.852L296.354 465.251C296.354 465.251 296.687 468.032 296.989 469.393C297.292 470.754 294.51 476.224 294.51 476.224L292.725 482.33L296.231 487.832L302.761 488.951L313.128 495.784L317.299 496.571L318.206 500.652L319.103 502.447C339.977 494.148 357.475 480.241 370.198 462.914L369.901 460.911L374.286 445.949L370.205 444.285L356.147 451.695Z" fill="white"/>
<path d="M360.579 337.951L356.439 333.446L351.301 328.307L348.4 320.387L353.477 320.115L353.145 317.335L349.548 317.848L352.239 315.823L355.08 313.194L354.476 310.474L350.245 306.846L348.247 301.146C321.519 280.116 285.92 270.807 250.129 278.754C233.859 282.368 219.14 289.201 206.478 298.426L213.738 301.476L211.017 307.218L206.089 309.454L207.176 316.921L205.181 318.22L203.125 321.817L204.485 326.654L209.23 326.171L208.352 331.219L212.978 330.191L218.632 318.373L218.481 313.839L225.977 311.604L227.157 307.915L234.865 305.347L234.654 300.541L240.307 299C240.307 299 243.904 295.916 244.72 295.736C245.537 295.555 249.647 296.069 249.647 296.069L254.453 298.428L260.167 297.159L264.399 293.08L270.777 292.234C270.777 292.234 272.652 292.96 274.011 292.657C275.372 292.355 279.029 289.544 279.029 289.544L288.006 292.689L291.815 294.413L292.721 298.494L296.923 298.132L297.739 295.382L301.639 296.229L301.85 298.465L294.172 302.454L300.126 307.411L311.128 310.677L316.417 315.212L322.523 314.426L323.279 311.403L325.335 310.376L317.053 306.505L312.579 306.927L315.874 305.054L311.582 301.155L316.147 299.856L322.857 301.792L325.667 308.019L329.446 310.891L333.647 318.237L340.599 321.26L342.593 330.239L349.756 332.93L350.149 335.983L350.118 339.701L352.838 344.235L353.926 346.563L358.732 346.351L359.882 341.243L360.579 337.951Z" fill="white"/>
<path d="M358.032 309.758L358.378 311.32L357.984 315.975L359.646 319.603L362.88 320.026L364.029 325.195L360.462 324.561L362.908 339.432L360.972 346.143L364.84 353.277L369.102 355.756L372.365 370.448L378.439 381.088L384.181 388.949L390.801 389.192L391.769 383.268L392.501 382.377C392.044 377.578 391.289 372.755 390.218 367.928C385.122 344.978 373.627 325.104 358.032 309.758Z" fill="white"/>
<path d="M294.808 322.012L275.1 318.109L267.271 320.133L266.514 325.726L262.464 322.914L256.781 325.604L258.231 334.702L263.914 337.151L266.302 331.197L271.289 334.372L281.354 339.844L284.739 347.372L293.805 354.778L304.809 350.336L303.63 346.316L300.155 342.235L297.194 331.473L298.888 326.244L294.808 322.012Z" fill="white"/>
<path d="M310.819 324.733L306.497 324.551L303.625 328.329L307.281 335.796L310.818 335.011L310.819 324.733Z" fill="white"/>
<path d="M337.275 324.286L326.937 321.444L324.308 318.602L322.312 319.902L325.426 324.92L328.629 331.631L333.072 332.356L333.646 331.088L330.292 327.55L337.97 328.7L337.275 324.286Z" fill="white"/>
<path d="M279.643 440.137L278.797 441.467L287.502 442.102L291.612 445.186L296.903 444.583L298.143 441.167L291.643 441.468L279.643 440.137Z" fill="white"/>
<path d="M305.007 439.93L299.656 442.83L300.955 444.826L308.029 443.255L308.906 440.777L306.518 441.592L305.007 439.93Z" fill="white"/>
<path d="M303.072 507.532C366.12 492.35 404.923 428.933 389.741 365.885C374.559 302.837 311.142 264.033 248.095 279.215C185.047 294.396 146.245 357.814 161.426 420.862C176.608 483.91 240.025 522.713 303.072 507.532Z" stroke="#263238" stroke-width="1.1" stroke-miterlimit="10" stroke-linecap="round" stroke-linejoin="round"/>
<path d="M285.787 286.969C271.951 286.991 260.742 297.644 260.742 310.783C260.742 310.849 260.742 310.915 260.743 310.98C260.805 318.126 266.749 323.869 273.894 323.691C275.004 323.664 276.187 323.721 277.371 323.911C279.739 324.293 281.572 325.682 282.815 327.288C283.501 328.175 284.533 328.736 285.655 328.739C285.699 328.739 285.743 328.739 285.787 328.739C285.831 328.739 285.875 328.739 285.919 328.739C287.041 328.735 288.073 328.175 288.759 327.288C290.002 325.682 291.835 324.294 294.203 323.911C295.387 323.721 296.57 323.664 297.68 323.691C304.826 323.869 310.769 318.127 310.831 310.98C310.831 310.915 310.832 310.849 310.832 310.783C310.833 297.644 299.624 286.992 285.787 286.969Z" fill="#35D36A"/>
<path d="M294.455 316.234L288.916 317.432L295.527 309.195L286.498 317.611L286.443 318.196L286.039 309.348L285.402 323.322L276.5 315.023L283.111 323.26L277.57 322.062L284.574 325.083L285.281 325.964L284.05 352.96H288.029L286.543 320.389L287.452 319.256L294.455 316.234Z" fill="#263238"/>
<path d="M278.339 309C278.339 309 277.506 306.622 275.723 305.789C273.939 304.956 272.75 304.719 272.75 304.719C272.75 304.719 273.7 309.595 278.339 309Z" fill="white"/>
<path d="M280.5 302.676C280.5 302.676 280.362 300.16 278.882 298.864C277.401 297.567 276.324 297.008 276.324 297.008C276.324 297.008 275.88 301.956 280.5 302.676Z" fill="white"/>
<path d="M300.309 321.945C300.309 321.945 298.713 319.995 296.753 319.824C294.792 319.652 293.594 319.834 293.594 319.834C293.594 319.834 296.155 324.09 300.309 321.945Z" fill="white"/>
<path d="M269.172 321.348C269.172 321.348 270.768 319.397 272.728 319.226C274.689 319.054 275.888 319.237 275.888 319.237C275.888 319.237 273.328 323.493 269.172 321.348Z" fill="white"/>
<path d="M273.476 300.539C273.476 300.539 273.339 298.024 271.858 296.727C270.376 295.431 269.301 294.871 269.301 294.871C269.301 294.871 268.856 299.819 273.476 300.539Z" fill="white"/>
<path d="M296.781 301.965C296.781 301.965 296.919 299.449 298.399 298.153C299.881 296.857 300.957 296.297 300.957 296.297C300.957 296.297 301.401 301.245 296.781 301.965Z" fill="white"/>
<path d="M285.18 298.727C285.18 298.727 286.633 296.668 286.276 294.733C285.917 292.797 285.421 291.691 285.421 291.691C285.421 291.691 282.003 295.296 285.18 298.727Z" fill="white"/>
<path d="M286.806 308.203C286.806 308.203 287.043 305.694 285.769 304.194C284.495 302.692 283.514 301.98 283.514 301.98C283.514 301.98 282.342 306.808 286.806 308.203Z" fill="white"/>
<path d="M280.813 296.74C280.813 296.74 281.566 294.336 280.632 292.602C279.698 290.87 278.886 289.969 278.886 289.969C278.886 289.969 276.738 294.448 280.813 296.74Z" fill="white"/>
<path d="M282.72 315.412C282.72 315.412 283.472 313.008 282.538 311.274C281.604 309.542 280.792 308.641 280.792 308.641C280.792 308.641 278.644 313.12 282.72 315.412Z" fill="white"/>
<path d="M288.353 312.589C288.353 312.589 290.481 311.24 290.888 309.314C291.295 307.388 291.258 306.176 291.258 306.176C291.258 306.176 286.725 308.205 288.353 312.589Z" fill="white"/>
<path d="M288.607 296.74C288.607 296.74 287.854 294.336 288.788 292.602C289.722 290.87 290.534 289.969 290.534 289.969C290.534 289.969 292.682 294.448 288.607 296.74Z" fill="white"/>
<path d="M291.579 302.787C291.579 302.787 293.702 301.43 294.102 299.503C294.502 297.575 294.46 296.363 294.46 296.363C294.46 296.363 289.934 298.41 291.579 302.787Z" fill="white"/>
<path d="M297.303 309.371C297.303 309.371 299.742 308.739 300.72 307.031C301.698 305.322 302.033 304.156 302.033 304.156C302.033 304.156 297.095 304.7 297.303 309.371Z" fill="white"/>
<path d="M297.852 315.255C297.852 315.255 300.14 316.31 301.979 315.608C303.817 314.905 304.815 314.215 304.815 314.215C304.815 314.215 300.649 311.508 297.852 315.255Z" fill="white"/>
<path d="M301.062 309.903C301.062 309.903 303.35 310.958 305.19 310.255C307.028 309.553 308.025 308.863 308.025 308.863C308.025 308.863 303.86 306.157 301.062 309.903Z" fill="white"/>
<path d="M269.023 313.322C269.023 313.322 270.56 315.319 272.516 315.549C274.471 315.779 275.675 315.631 275.675 315.631C275.675 315.631 273.24 311.302 269.023 313.322Z" fill="white"/>
<path d="M264.031 306.424C264.031 306.424 265.568 308.421 267.524 308.65C269.478 308.88 270.683 308.733 270.683 308.733C270.683 308.733 268.248 304.403 264.031 306.424Z" fill="white"/>
<path d="M268.952 382.68C259.535 382.695 251.906 389.945 251.906 398.888C251.906 398.933 251.906 398.977 251.907 399.022C251.949 403.887 255.995 407.795 260.858 407.674C261.614 407.655 262.419 407.694 263.225 407.823C264.837 408.083 266.085 409.029 266.93 410.121C267.398 410.725 268.099 411.106 268.863 411.109C268.892 411.109 268.922 411.109 268.953 411.109C268.983 411.109 269.013 411.109 269.043 411.109C269.807 411.106 270.509 410.725 270.976 410.121C271.822 409.029 273.069 408.083 274.681 407.823C275.486 407.694 276.292 407.655 277.047 407.674C281.91 407.795 285.956 403.887 285.997 399.022C285.997 398.977 285.997 398.933 285.997 398.888C285.997 389.945 278.369 382.695 268.952 382.68Z" fill="#35D36A"/>
<path d="M274.846 402.599L271.076 403.414L275.575 397.809L269.431 403.536L269.393 403.933L269.118 397.912L268.684 407.423L262.625 401.774L267.125 407.381L263.354 406.566L268.121 408.622L268.602 409.221L267.764 427.596H270.472L269.46 405.426L270.08 404.655L274.846 402.599Z" fill="#263238"/>
<path d="M263.882 397.676C263.882 397.676 263.315 396.056 262.101 395.49C260.887 394.923 260.078 394.762 260.078 394.762C260.078 394.762 260.725 398.08 263.882 397.676Z" fill="white"/>
<path d="M265.349 393.373C265.349 393.373 265.256 391.661 264.248 390.778C263.239 389.896 262.508 389.516 262.508 389.516C262.508 389.516 262.204 392.883 265.349 393.373Z" fill="white"/>
<path d="M278.837 406.486C278.837 406.486 277.752 405.159 276.416 405.042C275.082 404.925 274.266 405.05 274.266 405.05C274.266 405.05 276.009 407.946 278.837 406.486Z" fill="white"/>
<path d="M257.641 406.081C257.641 406.081 258.726 404.753 260.062 404.636C261.396 404.519 262.212 404.644 262.212 404.644C262.212 404.644 260.469 407.541 257.641 406.081Z" fill="white"/>
<path d="M260.568 391.916C260.568 391.916 260.474 390.204 259.467 389.321C258.458 388.439 257.727 388.059 257.727 388.059C257.727 388.059 257.424 391.426 260.568 391.916Z" fill="white"/>
<path d="M276.438 392.885C276.438 392.885 276.531 391.172 277.539 390.29C278.547 389.408 279.279 389.027 279.279 389.027C279.279 389.027 279.582 392.394 276.438 392.885Z" fill="white"/>
<path d="M268.537 390.687C268.537 390.687 269.526 389.285 269.283 387.969C269.039 386.651 268.701 385.898 268.701 385.898C268.701 385.898 266.376 388.351 268.537 390.687Z" fill="white"/>
<path d="M269.64 397.133C269.64 397.133 269.801 395.426 268.934 394.404C268.067 393.382 267.399 392.898 267.399 392.898C267.399 392.898 266.602 396.184 269.64 397.133Z" fill="white"/>
<path d="M265.563 389.332C265.563 389.332 266.075 387.695 265.44 386.516C264.806 385.336 264.252 384.723 264.252 384.723C264.252 384.723 262.79 387.771 265.563 389.332Z" fill="white"/>
<path d="M266.861 402.039C266.861 402.039 267.372 400.402 266.738 399.223C266.102 398.043 265.55 397.43 265.55 397.43C265.55 397.43 264.087 400.479 266.861 402.039Z" fill="white"/>
<path d="M270.693 400.115C270.693 400.115 272.142 399.196 272.419 397.886C272.696 396.575 272.671 395.75 272.671 395.75C272.671 395.75 269.585 397.132 270.693 400.115Z" fill="white"/>
<path d="M270.867 389.332C270.867 389.332 270.355 387.695 270.99 386.516C271.626 385.336 272.178 384.723 272.178 384.723C272.178 384.723 273.641 387.771 270.867 389.332Z" fill="white"/>
<path d="M272.886 393.447C272.886 393.447 274.331 392.523 274.603 391.212C274.875 389.899 274.846 389.074 274.846 389.074C274.846 389.074 271.766 390.467 272.886 393.447Z" fill="white"/>
<path d="M276.786 397.928C276.786 397.928 278.446 397.497 279.111 396.335C279.777 395.172 280.005 394.379 280.005 394.379C280.005 394.379 276.644 394.749 276.786 397.928Z" fill="white"/>
<path d="M277.156 401.934C277.156 401.934 278.714 402.652 279.965 402.174C281.216 401.695 281.895 401.225 281.895 401.225C281.895 401.225 279.06 399.383 277.156 401.934Z" fill="white"/>
<path d="M279.344 398.289C279.344 398.289 280.901 399.007 282.152 398.529C283.404 398.05 284.083 397.58 284.083 397.58C284.083 397.58 281.247 395.739 279.344 398.289Z" fill="white"/>
<path d="M257.539 400.616C257.539 400.616 258.585 401.974 259.916 402.132C261.247 402.288 262.066 402.188 262.066 402.188C262.066 402.188 260.409 399.24 257.539 400.616Z" fill="white"/>
<path d="M254.141 395.924C254.141 395.924 255.187 397.283 256.518 397.44C257.849 397.596 258.667 397.496 258.667 397.496C258.667 397.496 257.011 394.549 254.141 395.924Z" fill="white"/>
<path d="M365.835 232.469C344.528 232.504 327.266 248.908 327.266 269.143C327.266 269.244 327.266 269.345 327.267 269.446C327.361 280.453 336.516 289.296 347.519 289.022C349.228 288.979 351.051 289.067 352.874 289.361C356.52 289.949 359.344 292.088 361.258 294.56C362.315 295.927 363.904 296.789 365.631 296.796C365.699 296.796 365.767 296.796 365.835 296.796C365.903 296.796 365.97 296.796 366.038 296.796C367.765 296.789 369.355 295.927 370.412 294.56C372.326 292.088 375.149 289.949 378.796 289.361C380.619 289.067 382.442 288.979 384.151 289.022C395.154 289.297 404.309 280.454 404.403 269.446C404.404 269.345 404.404 269.244 404.404 269.143C404.404 248.909 387.143 232.504 365.835 232.469Z" fill="#35D36A"/>
<path d="M379.175 277.539L370.644 279.383L380.825 266.699L366.921 279.659L366.835 280.558L366.214 266.935L365.233 288.453L351.523 275.672L361.705 288.357L353.173 286.512L363.958 291.165L365.047 292.522L363.15 334.096H369.279L366.989 283.936L368.39 282.192L379.175 277.539Z" fill="#263238"/>
<path d="M354.358 266.401C354.358 266.401 353.076 262.738 350.328 261.456C347.582 260.175 345.75 259.809 345.75 259.809C345.75 259.809 347.215 267.317 354.358 266.401Z" fill="white"/>
<path d="M357.683 256.666C357.683 256.666 357.472 252.791 355.19 250.795C352.909 248.799 351.252 247.938 351.252 247.938C351.252 247.938 350.568 255.556 357.683 256.666Z" fill="white"/>
<path d="M388.203 286.335C388.203 286.335 385.745 283.332 382.726 283.067C379.706 282.801 377.859 283.084 377.859 283.084C377.859 283.084 381.805 289.638 388.203 286.335Z" fill="white"/>
<path d="M340.242 285.421C340.242 285.421 342.7 282.418 345.719 282.152C348.739 281.887 350.585 282.17 350.585 282.17C350.585 282.17 346.641 288.724 340.242 285.421Z" fill="white"/>
<path d="M346.87 253.369C346.87 253.369 346.659 249.494 344.378 247.498C342.096 245.502 340.44 244.641 340.44 244.641C340.44 244.641 339.757 252.259 346.87 253.369Z" fill="white"/>
<path d="M382.766 255.568C382.766 255.568 382.977 251.693 385.258 249.698C387.54 247.701 389.196 246.84 389.196 246.84C389.196 246.84 389.88 254.458 382.766 255.568Z" fill="white"/>
<path d="M364.895 250.582C364.895 250.582 367.133 247.412 366.582 244.431C366.03 241.45 365.265 239.746 365.265 239.746C365.265 239.746 360.002 245.298 364.895 250.582Z" fill="white"/>
<path d="M367.394 265.173C367.394 265.173 367.757 261.31 365.795 258.999C363.834 256.688 362.323 255.59 362.323 255.59C362.323 255.59 360.521 263.024 367.394 265.173Z" fill="white"/>
<path d="M358.175 247.522C358.175 247.522 359.334 243.818 357.896 241.149C356.458 238.481 355.207 237.094 355.207 237.094C355.207 237.094 351.899 243.991 358.175 247.522Z" fill="white"/>
<path d="M361.105 276.272C361.105 276.272 362.263 272.568 360.825 269.899C359.387 267.231 358.137 265.844 358.137 265.844C358.137 265.844 354.829 272.742 361.105 276.272Z" fill="white"/>
<path d="M369.786 271.923C369.786 271.923 373.063 269.846 373.69 266.879C374.317 263.914 374.26 262.047 374.26 262.047C374.26 262.047 367.279 265.173 369.786 271.923Z" fill="white"/>
<path d="M370.175 247.522C370.175 247.522 369.017 243.818 370.455 241.149C371.893 238.481 373.143 237.094 373.143 237.094C373.143 237.094 376.452 243.991 370.175 247.522Z" fill="white"/>
<path d="M374.742 256.834C374.742 256.834 378.012 254.744 378.627 251.776C379.243 248.808 379.178 246.941 379.178 246.941C379.178 246.941 372.209 250.093 374.742 256.834Z" fill="white"/>
<path d="M383.565 266.976C383.565 266.976 387.321 266.003 388.826 263.372C390.331 260.741 390.848 258.945 390.848 258.945C390.848 258.945 383.243 259.782 383.565 266.976Z" fill="white"/>
<path d="M384.406 276.034C384.406 276.034 387.93 277.66 390.761 276.576C393.592 275.493 395.129 274.431 395.129 274.431C395.129 274.431 388.714 270.265 384.406 276.034Z" fill="white"/>
<path d="M389.352 267.792C389.352 267.792 392.875 269.418 395.706 268.334C398.538 267.251 400.074 266.189 400.074 266.189C400.074 266.189 393.659 262.022 389.352 267.792Z" fill="white"/>
<path d="M340.016 273.058C340.016 273.058 342.383 276.132 345.394 276.488C348.404 276.842 350.258 276.614 350.258 276.614C350.258 276.614 346.509 269.946 340.016 273.058Z" fill="white"/>
<path d="M332.328 262.437C332.328 262.437 334.695 265.511 337.706 265.867C340.717 266.221 342.57 265.993 342.57 265.993C342.57 265.993 338.821 259.325 332.328 262.437Z" fill="white"/>
<path d="M231.591 336.773C213.465 336.803 198.781 350.758 198.781 367.971C198.781 368.056 198.781 368.143 198.782 368.229C198.863 377.592 206.65 385.114 216.011 384.881C217.465 384.845 219.015 384.919 220.566 385.169C223.668 385.67 226.069 387.489 227.697 389.592C228.597 390.754 229.949 391.487 231.418 391.493C231.475 391.493 231.534 391.493 231.591 391.493C231.648 391.493 231.706 391.493 231.764 391.493C233.233 391.487 234.585 390.754 235.484 389.592C237.112 387.489 239.513 385.67 242.615 385.169C244.166 384.919 245.716 384.845 247.17 384.881C256.531 385.114 264.317 377.592 264.398 368.229C264.4 368.143 264.4 368.057 264.4 367.971C264.401 350.759 249.716 336.803 231.591 336.773Z" fill="#35D36A"/>
<path d="M242.936 375.112L235.68 376.681L244.34 365.891L232.513 376.916L232.44 377.679L231.911 366.091L231.076 384.395L219.414 373.524L228.075 384.315L220.818 382.745L229.993 386.703L230.919 387.857L229.305 423.223H234.517L232.571 380.554L233.762 379.07L242.936 375.112Z" fill="#263238"/>
<path d="M221.831 365.636C221.831 365.636 220.74 362.521 218.403 361.43C216.067 360.34 214.508 360.027 214.508 360.027C214.508 360.027 215.755 366.415 221.831 365.636Z" fill="white"/>
<path d="M224.65 357.355C224.65 357.355 224.47 354.059 222.53 352.361C220.589 350.662 219.179 349.93 219.179 349.93C219.179 349.93 218.597 356.411 224.65 357.355Z" fill="white"/>
<path d="M250.619 382.595C250.619 382.595 248.529 380.04 245.96 379.815C243.391 379.59 241.82 379.83 241.82 379.83C241.82 379.83 245.176 385.406 250.619 382.595Z" fill="white"/>
<path d="M209.82 381.814C209.82 381.814 211.91 379.259 214.48 379.034C217.048 378.809 218.619 379.048 218.619 379.048C218.619 379.048 215.263 384.624 209.82 381.814Z" fill="white"/>
<path d="M215.454 354.55C215.454 354.55 215.275 351.253 213.334 349.556C211.394 347.858 209.984 347.125 209.984 347.125C209.984 347.125 209.402 353.606 215.454 354.55Z" fill="white"/>
<path d="M246 356.421C246 356.421 246.179 353.125 248.12 351.427C250.06 349.729 251.47 348.996 251.47 348.996C251.47 348.996 252.052 355.476 246 356.421Z" fill="white"/>
<path d="M230.787 352.179C230.787 352.179 232.69 349.482 232.221 346.946C231.753 344.411 231.102 342.961 231.102 342.961C231.102 342.961 226.626 347.684 230.787 352.179Z" fill="white"/>
<path d="M232.917 364.59C232.917 364.59 233.226 361.303 231.558 359.337C229.889 357.371 228.603 356.438 228.603 356.438C228.603 356.438 227.071 362.762 232.917 364.59Z" fill="white"/>
<path d="M225.07 349.575C225.07 349.575 226.056 346.424 224.833 344.154C223.609 341.883 222.546 340.703 222.546 340.703C222.546 340.703 219.732 346.573 225.07 349.575Z" fill="white"/>
<path d="M227.562 374.036C227.562 374.036 228.548 370.885 227.325 368.615C226.102 366.344 225.038 365.164 225.038 365.164C225.038 365.164 222.224 371.031 227.562 374.036Z" fill="white"/>
<path d="M234.946 370.334C234.946 370.334 237.735 368.568 238.268 366.044C238.802 363.521 238.753 361.934 238.753 361.934C238.753 361.934 232.814 364.592 234.946 370.334Z" fill="white"/>
<path d="M235.282 349.575C235.282 349.575 234.296 346.424 235.519 344.154C236.742 341.883 237.806 340.703 237.806 340.703C237.806 340.703 240.62 346.573 235.282 349.575Z" fill="white"/>
<path d="M239.167 357.497C239.167 357.497 241.949 355.719 242.472 353.195C242.996 350.67 242.941 349.082 242.941 349.082C242.941 349.082 237.012 351.763 239.167 357.497Z" fill="white"/>
<path d="M246.665 366.121C246.665 366.121 249.86 365.293 251.14 363.054C252.421 360.816 252.861 359.289 252.861 359.289C252.861 359.289 246.393 360.003 246.665 366.121Z" fill="white"/>
<path d="M247.391 373.828C247.391 373.828 250.388 375.211 252.797 374.289C255.206 373.368 256.513 372.464 256.513 372.464C256.513 372.464 251.056 368.92 247.391 373.828Z" fill="white"/>
<path d="M251.594 366.82C251.594 366.82 254.591 368.203 257 367.281C259.409 366.359 260.716 365.456 260.716 365.456C260.716 365.456 255.259 361.912 251.594 366.82Z" fill="white"/>
<path d="M209.625 371.298C209.625 371.298 211.639 373.914 214.2 374.215C216.761 374.516 218.338 374.323 218.338 374.323C218.338 374.323 215.148 368.65 209.625 371.298Z" fill="white"/>
<path d="M203.086 362.263C203.086 362.263 205.1 364.878 207.661 365.18C210.222 365.481 211.799 365.288 211.799 365.288C211.799 365.288 208.609 359.615 203.086 362.263Z" fill="white"/>
<path d="M328.81 388.984C310.685 389.014 296 402.969 296 420.182C296 420.267 296 420.354 296.001 420.44C296.081 429.803 303.868 437.325 313.228 437.092C314.682 437.055 316.232 437.13 317.783 437.38C320.885 437.88 323.287 439.7 324.915 441.803C325.814 442.965 327.166 443.698 328.636 443.704C328.693 443.704 328.751 443.704 328.809 443.704C328.866 443.704 328.924 443.704 328.981 443.704C330.451 443.698 331.803 442.965 332.703 441.803C334.331 439.7 336.732 437.88 339.834 437.38C341.385 437.13 342.935 437.055 344.389 437.092C353.749 437.325 361.536 429.803 361.617 420.44C361.618 420.354 361.618 420.268 361.618 420.182C361.619 402.969 346.934 389.014 328.81 388.984Z" fill="#35D36A"/>
<path d="M340.163 427.323L332.906 428.893L341.567 418.102L329.739 429.127L329.667 429.891L329.138 418.302L328.303 436.607L316.641 425.736L325.302 436.525L318.044 434.957L327.218 438.915L328.146 440.069L326.532 475.435H331.744L329.798 432.765L330.989 431.281L340.163 427.323Z" fill="#263238"/>
<path d="M319.049 417.847C319.049 417.847 317.959 414.732 315.622 413.641C313.285 412.551 311.727 412.238 311.727 412.238C311.727 412.238 312.974 418.626 319.049 417.847Z" fill="white"/>
<path d="M321.876 409.566C321.876 409.566 321.697 406.27 319.756 404.572C317.816 402.873 316.406 402.141 316.406 402.141C316.406 402.141 315.824 408.622 321.876 409.566Z" fill="white"/>
<path d="M347.838 434.806C347.838 434.806 345.747 432.25 343.178 432.026C340.61 431.801 339.039 432.04 339.039 432.04C339.039 432.04 342.395 437.616 347.838 434.806Z" fill="white"/>
<path d="M307.039 434.025C307.039 434.025 309.129 431.469 311.699 431.245C314.267 431.02 315.838 431.259 315.838 431.259C315.838 431.259 312.482 436.835 307.039 434.025Z" fill="white"/>
<path d="M312.681 406.761C312.681 406.761 312.501 403.464 310.561 401.767C308.621 400.069 307.21 399.336 307.21 399.336C307.21 399.336 306.629 405.816 312.681 406.761Z" fill="white"/>
<path d="M343.219 408.628C343.219 408.628 343.398 405.331 345.34 403.634C347.28 401.936 348.689 401.203 348.689 401.203C348.689 401.203 349.272 407.684 343.219 408.628Z" fill="white"/>
<path d="M328.013 404.39C328.013 404.39 329.916 401.693 329.448 399.157C328.979 396.622 328.328 395.172 328.328 395.172C328.328 395.172 323.852 399.895 328.013 404.39Z" fill="white"/>
<path d="M330.136 416.801C330.136 416.801 330.445 413.514 328.776 411.548C327.108 409.582 325.822 408.648 325.822 408.648C325.822 408.648 324.29 414.972 330.136 416.801Z" fill="white"/>
<path d="M322.289 401.786C322.289 401.786 323.275 398.635 322.051 396.365C320.828 394.094 319.764 392.914 319.764 392.914C319.764 392.914 316.951 398.783 322.289 401.786Z" fill="white"/>
<path d="M324.781 426.243C324.781 426.243 325.767 423.092 324.544 420.822C323.32 418.551 322.257 417.371 322.257 417.371C322.257 417.371 319.443 423.24 324.781 426.243Z" fill="white"/>
<path d="M332.165 422.545C332.165 422.545 334.954 420.779 335.487 418.255C336.021 415.732 335.972 414.145 335.972 414.145C335.972 414.145 330.032 416.802 332.165 422.545Z" fill="white"/>
<path d="M332.5 401.786C332.5 401.786 331.515 398.635 332.738 396.365C333.961 394.094 335.025 392.914 335.025 392.914C335.025 392.914 337.839 398.783 332.5 401.786Z" fill="white"/>
<path d="M336.386 409.704C336.386 409.704 339.168 407.926 339.691 405.402C340.215 402.877 340.16 401.289 340.16 401.289C340.16 401.289 334.231 403.971 336.386 409.704Z" fill="white"/>
<path d="M343.891 418.332C343.891 418.332 347.087 417.504 348.367 415.265C349.647 413.027 350.087 411.5 350.087 411.5C350.087 411.5 343.619 412.213 343.891 418.332Z" fill="white"/>
<path d="M344.609 426.039C344.609 426.039 347.607 427.422 350.016 426.5C352.425 425.579 353.732 424.675 353.732 424.675C353.732 424.675 348.273 421.131 344.609 426.039Z" fill="white"/>
<path d="M348.812 419.031C348.812 419.031 351.81 420.414 354.219 419.492C356.627 418.57 357.935 417.667 357.935 417.667C357.935 417.667 352.478 414.123 348.812 419.031Z" fill="white"/>
<path d="M306.844 423.509C306.844 423.509 308.858 426.125 311.419 426.426C313.979 426.727 315.557 426.534 315.557 426.534C315.557 426.534 312.367 420.861 306.844 423.509Z" fill="white"/>
<path d="M300.305 414.474C300.305 414.474 302.319 417.089 304.88 417.391C307.44 417.692 309.018 417.499 309.018 417.499C309.018 417.499 305.829 411.826 300.305 414.474Z" fill="white"/>
<path d="M320.276 225.955C321.076 250.258 301.316 271.343 276.25 271.343C251.183 271.343 231.885 250.267 232.223 225.955C232.471 208.123 248.681 188.493 261.278 170.869C269.97 158.71 275.088 149.259 276.075 147.395C276.149 147.254 276.352 147.254 276.428 147.395C277.442 149.286 282.761 158.991 291.607 171.41C304.111 188.967 319.639 206.575 320.276 225.955Z" stroke="#263238" stroke-width="1.1" stroke-miterlimit="10"/>
<path opacity="0.2" d="M276.21 149.43C276.21 149.43 275.147 151.495 273.099 154.987C272.609 158.827 273.099 165.927 277.197 178.884C285.155 204.041 287.722 232.792 274.374 243.061C262.966 251.836 246.496 254.421 235.859 242.49C242.491 258.227 258.06 269.275 276.208 269.275C300.38 269.275 319.975 249.679 319.975 225.508C319.975 212.003 303.075 189.84 291.017 172.91C281.494 159.536 276.21 149.43 276.21 149.43Z" fill="black"/>
<path d="M289.74 226.218C295.913 226.218 300.917 219.712 300.917 211.687C300.917 203.662 295.913 197.156 289.74 197.156C283.567 197.156 278.562 203.662 278.562 211.687C278.562 219.712 283.567 226.218 289.74 226.218Z" fill="white"/>
<path d="M287.506 239.445C287.506 243.458 285.004 246.711 281.917 246.711C278.831 246.711 276.328 243.458 276.328 239.445C276.328 235.432 278.831 232.18 281.917 232.18C285.004 232.18 287.506 235.433 287.506 239.445Z" fill="white"/>
<path d="M252.742 217.509C249.633 226.98 244.161 233.688 240.519 232.492C236.877 231.297 236.443 222.651 239.551 213.18C242.659 203.709 248.132 197.001 251.774 198.197C255.416 199.392 255.85 208.038 252.742 217.509Z" fill="white"/>
<path d="M158.609 121.882L165.121 120.664C174.974 118.823 172.407 117.896 182.385 117.896H231.336V91.3358H182.01C171.304 91.3358 173.15 90.271 162.601 88.1524L158.61 87.3516L158.609 121.882Z" fill="#35D36A" stroke="#263238" stroke-width="1.1" stroke-miterlimit="10"/>
<path d="M182.853 114.922C172.148 114.922 173.994 115.817 163.444 117.598L159.453 118.271V113.48L163.444 112.805C173.993 111.024 172.148 110.129 182.853 110.129H232.18V114.921L182.853 114.922Z" fill="#263238" stroke="#263238" stroke-width="1.1" stroke-miterlimit="10"/>
<path d="M237.767 90.6328H260.442C271.804 90.6328 282.57 95.7214 289.781 104.502C295.36 111.294 298.411 119.811 298.411 128.602V144.603H266.203V129.96C266.203 123.625 261.067 118.488 254.732 118.488H235.156L237.767 90.6328Z" fill="#35D36A" stroke="#263238" stroke-width="1.1" stroke-miterlimit="10"/>
<path d="M271.062 138.225V122.481C271.062 116.95 265.833 112.465 259.383 112.465H239.748L239.453 115.422H257.645C263.532 115.422 268.305 119.906 268.305 125.438V138.225H271.062Z" fill="#263238" stroke="#263238" stroke-width="1.1" stroke-miterlimit="10"/>
<path d="M224.762 129.36H223.304C214.593 129.36 207.531 122.298 207.531 113.587V83.0195H240.535V113.587C240.535 122.299 233.473 129.36 224.762 129.36Z" fill="#35D36A" stroke="#263238" stroke-width="1.1" stroke-miterlimit="10"/>
<path d="M240.535 83.0195H207.531V88.5833H240.535V83.0195Z" fill="#263238" stroke="#263238" stroke-width="1.1" stroke-miterlimit="10"/>
<path d="M224.037 121.159C215.707 121.159 208.953 115.155 208.953 107.75V112.332C208.953 119.738 215.706 125.74 224.037 125.74C232.368 125.74 239.122 119.737 239.122 112.332V107.75C239.122 115.155 232.368 121.159 224.037 121.159Z" fill="#263238" stroke="#263238" stroke-width="1.1" stroke-miterlimit="10"/>
<path d="M231.307 36.6797H217.328V63.3536H231.307V36.6797Z" fill="#35D36A" stroke="#263238" stroke-width="1.1" stroke-miterlimit="10"/>
<path d="M225.494 36.6797H219.188V63.3536H225.494V36.6797Z" fill="#263238" stroke="#263238" stroke-width="1.1" stroke-miterlimit="10"/>
<path d="M235.585 57.1328H213.047V61.3183H235.585V57.1328Z" fill="#35D36A" stroke="#263238" stroke-width="1.1" stroke-miterlimit="10"/>
<path d="M240.758 60.75H207.859V80.759H240.758V60.75Z" fill="#35D36A" stroke="#263238" stroke-width="1.1" stroke-miterlimit="10"/>
<path d="M233.056 60.75H215.562V80.759H233.056V60.75Z" fill="#35D36A" stroke="#263238" stroke-width="1.1" stroke-miterlimit="10"/>
<path d="M244.149 79.5117H204.469V85.5056H244.149V79.5117Z" fill="#35D36A" stroke="#263238" stroke-width="1.1" stroke-miterlimit="10"/>
<path d="M197.829 25.1895C195.581 22.9367 192.474 21.543 189.041 21.543C182.183 21.543 176.625 27.1013 176.625 33.9587C176.625 40.8161 182.183 46.3744 189.041 46.3744C192.385 46.3744 195.418 45.05 197.65 42.8995C204.28 38.8042 215.958 43.1602 215.958 43.1602V25.1631C206.736 29.5125 198.519 25.5404 197.829 25.1895Z" fill="#35D36A" stroke="#263238" stroke-width="1.1" stroke-miterlimit="10"/>
<path d="M259.581 21.543C255.941 21.543 252.668 23.1094 250.396 25.6053C241.181 29.3915 233.224 25.162 233.224 25.162L232.453 43.1613C238.455 38.9934 249.379 42.4672 251.152 43.0733C253.366 45.1215 256.326 46.3755 259.58 46.3755C266.438 46.3755 271.996 40.8161 271.996 33.9598C271.996 27.1035 266.439 21.543 259.581 21.543Z" fill="#35D36A" stroke="#263238" stroke-width="1.1" stroke-miterlimit="10"/>
<path d="M258.292 39.9725C255.192 39.9725 252.373 38.8857 250.263 37.1092C248.589 36.5889 238.349 33.6266 232.603 37.0982L232.453 40.286C238.17 36.6725 248.575 39.6843 250.264 40.209C252.373 41.9855 255.193 43.0723 258.293 43.0723C264.825 43.0723 270.119 38.2521 270.119 32.3077C270.119 31.7797 270.063 31.2649 269.983 30.7578C269.155 35.9663 264.244 39.9725 258.292 39.9725Z" fill="#263238" stroke="#263238" stroke-width="1.1" stroke-miterlimit="10"/>
<path d="M190.185 39.9725C193.285 39.9725 196.105 38.8857 198.213 37.1092C199.889 36.5889 210.128 33.6266 215.875 37.0982L216.024 40.286C210.308 36.6725 199.903 39.6843 198.213 40.209C196.105 41.9855 193.284 43.0723 190.185 43.0723C183.654 43.0723 178.359 38.2521 178.359 32.3077C178.359 31.7797 178.415 31.2649 178.496 30.7578C179.323 35.9663 184.233 39.9725 190.185 39.9725Z" fill="#263238" stroke="#263238" stroke-width="1.1" stroke-miterlimit="10"/>
<path d="M224.306 46.3744C231.163 46.3744 236.722 40.8157 236.722 33.9587C236.722 27.1017 231.163 21.543 224.306 21.543C217.449 21.543 211.891 27.1017 211.891 33.9587C211.891 40.8157 217.449 46.3744 224.306 46.3744Z" fill="#35D36A" stroke="#263238" stroke-width="1.1" stroke-miterlimit="10"/>
<path d="M224.314 40.4182C219.135 40.4182 214.817 36.7344 213.836 31.8438C213.699 32.5268 213.625 33.2341 213.625 33.9579C213.625 39.8605 218.41 44.6467 224.314 44.6467C230.216 44.6467 235.002 39.8616 235.002 33.9579C235.002 33.2341 234.929 32.5279 234.791 31.8438C233.81 36.7344 229.492 40.4182 224.314 40.4182Z" fill="#263238" stroke="#263238" stroke-width="1.1" stroke-miterlimit="10"/>
<path d="M301.605 138.742H261.562V149.769H301.605V138.742Z" fill="#35D36A" stroke="#263238" stroke-width="1.1" stroke-miterlimit="10"/>
<path d="M301.605 142.355H261.562V146.157H301.605V142.355Z" fill="#35D36A" stroke="#263238" stroke-width="1.1" stroke-miterlimit="10"/>
<path d="M165.466 72.9141H151.328V140.605H165.466V72.9141Z" fill="#35D36A" stroke="#263238" stroke-width="1.1" stroke-miterlimit="10"/>
<path d="M284.375 104.768C286.391 107.681 286.779 110.905 285.243 111.969C283.705 113.034 280.824 111.534 278.808 108.622C276.791 105.709 276.403 102.485 277.94 101.42C279.478 100.357 282.359 101.855 284.375 104.768Z" fill="white"/>
<path d="M264.85 26.4096C266.318 28.5293 265.828 31.4113 263.756 32.8457C261.683 34.2801 258.815 33.7246 257.346 31.6038C255.879 29.4841 256.368 26.6021 258.44 25.1677C260.513 23.7333 263.382 24.2888 264.85 26.4096Z" fill="white"/>
<path d="M224.585 26.4096C226.052 28.5293 225.563 31.4113 223.49 32.8457C221.418 34.2801 218.549 33.7246 217.08 31.6038C215.613 29.4841 216.103 26.6021 218.175 25.1677C220.247 23.7333 223.116 24.2888 224.585 26.4096Z" fill="white"/>
<path d="M190.725 26.4096C192.193 28.5293 191.703 31.4113 189.631 32.8457C187.558 34.2801 184.69 33.7246 183.221 31.6038C181.754 29.4841 182.243 26.6021 184.316 25.1677C186.387 23.7333 189.257 24.2888 190.725 26.4096Z" fill="white"/>
<path d="M237.555 378.735C236.954 376.335 235.374 372.604 231.208 369.575C224.491 364.688 214.108 367.742 214.108 367.742C214.718 351.862 203.725 331.098 181.128 331.098C158.53 331.098 153.034 349.419 153.034 349.419C153.034 349.419 144.483 339.036 130.436 344.533C116.389 350.03 115.779 368.351 115.779 368.351C115.779 368.351 106.618 358.58 96.8456 361.634C88.754 364.163 86.1085 375.06 85.4375 378.734H237.555V378.735Z" fill="#263238"/>
<path d="M230.571 372.915C229.969 370.515 228.39 366.784 224.224 363.754C217.506 358.868 207.123 361.922 207.123 361.922C207.734 346.042 196.741 325.277 174.143 325.277C151.546 325.277 146.049 343.599 146.049 343.599C146.049 343.599 137.499 333.216 123.452 338.713C109.405 344.209 108.794 362.531 108.794 362.531C108.794 362.531 99.6336 352.759 89.8612 355.813C81.7696 358.342 79.1241 369.24 78.4531 372.914H230.571V372.915Z" fill="white" stroke="#263238" stroke-width="1.1" stroke-miterlimit="10"/>
<path d="M433.063 470.744C432.687 469.244 431.7 466.912 429.097 465.019C424.899 461.967 418.411 463.874 418.411 463.874C418.793 453.952 411.923 440.977 397.803 440.977C383.682 440.977 380.248 452.425 380.248 452.425C380.248 452.425 374.905 445.938 366.127 449.372C357.349 452.806 356.967 464.256 356.967 464.256C356.967 464.256 351.243 458.15 345.137 460.058C340.08 461.638 338.427 468.448 338.008 470.744H433.063Z" fill="#263238"/>
<path d="M426.079 466.564C425.703 465.065 424.716 462.733 422.112 460.84C417.915 457.786 411.427 459.694 411.427 459.694C411.809 449.772 404.939 436.797 390.818 436.797C376.698 436.797 373.263 448.246 373.263 448.246C373.263 448.246 367.921 441.758 359.143 445.192C350.366 448.626 349.983 460.076 349.983 460.076C349.983 460.076 344.259 453.97 338.153 455.879C333.096 457.459 331.443 464.268 331.023 466.564H426.079Z" fill="white" stroke="#263238" stroke-width="1.1" stroke-miterlimit="10"/>
</svg>
