<svg width="500" height="501" viewBox="0 0 500 501" fill="none" xmlns="http://www.w3.org/2000/svg">
<path d="M436.256 182.048C433.111 166.287 429.614 150.618 424.813 135.294C410.878 90.81 383.137 45.7977 335.496 30.6657C300.335 19.497 262.369 27.2048 232.649 49.953C186.041 85.6266 152.121 134.281 101.119 165.195C58.5368 191.004 36.2434 232.694 50.5662 291.617C64.8889 350.54 112.702 384.867 165.012 380.649C208.515 377.14 253.989 380.888 291.594 402.002C325.195 420.867 384.576 404.49 433.698 352.92C462.308 322.882 459.538 284.691 450.215 248.976C444.466 226.96 440.717 204.411 436.256 182.048Z" fill="#35D36A"/>
<path opacity="0.7" d="M436.256 182.048C433.111 166.287 429.614 150.618 424.813 135.294C410.878 90.81 383.137 45.7977 335.496 30.6657C300.335 19.497 262.369 27.2048 232.649 49.953C186.041 85.6266 152.121 134.281 101.119 165.195C58.5368 191.004 36.2434 232.694 50.5662 291.617C64.8889 350.54 112.702 384.867 165.012 380.649C208.515 377.14 253.989 380.888 291.594 402.002C325.195 420.867 384.576 404.49 433.698 352.92C462.308 322.882 459.538 284.691 450.215 248.976C444.466 226.96 440.717 204.411 436.256 182.048Z" fill="white"/>
<path d="M485.832 455.852C485.832 459.671 381.936 462.766 253.774 462.766C125.611 462.766 21.7151 459.671 21.7151 455.852C21.7151 452.033 125.611 448.938 253.774 448.938C381.936 448.938 485.832 452.033 485.832 455.852Z" fill="#35D36A"/>
<path opacity="0.3" d="M485.832 455.852C485.832 459.671 381.936 462.766 253.774 462.766C125.611 462.766 21.7151 459.671 21.7151 455.852C21.7151 452.033 125.611 448.938 253.774 448.938C381.936 448.938 485.832 452.033 485.832 455.852Z" fill="white"/>
<path d="M441.41 322.634C441.443 322.694 444.55 319.397 444.723 319.166C446.715 316.497 448.996 310.17 446.836 307.129C445.28 304.939 442.232 304.867 440.292 306.565C438.311 308.298 437.847 311.508 438.024 313.989C438.234 316.902 441.407 322.631 441.41 322.634Z" fill="#35D36A"/>
<path d="M469.963 311.272C466.907 309.135 460.597 311.463 457.942 313.475C457.713 313.65 454.439 316.781 454.5 316.814C454.5 316.814 454.556 316.844 454.57 316.852C453.571 317.211 452.504 317.608 451.347 318.067C449.218 318.929 446.819 319.921 444.281 321.179C441.742 322.429 439.018 323.858 436.286 325.623C433.544 327.388 430.751 329.383 428.138 331.814C428.109 331.841 428.082 331.874 428.051 331.902C428.594 330.954 430.026 328.252 430.112 328.032C431.33 324.932 431.859 318.227 428.973 315.865C426.894 314.163 423.935 314.898 422.512 317.048C421.059 319.244 421.46 322.462 422.286 324.809C423.218 327.454 427.433 331.839 427.77 332.188C425.303 334.524 422.962 337.122 420.736 339.881C419.462 341.457 418.229 343.085 417.011 344.732C417.455 343.897 417.845 343.147 417.887 343.037C419.104 339.937 419.634 333.232 416.748 330.871C414.669 329.169 411.71 329.904 410.287 332.053C408.834 334.249 409.235 337.466 410.061 339.814C410.9 342.194 414.418 346.004 415.363 347.001C414.903 347.638 414.436 348.268 413.979 348.907C411.782 351.97 409.605 355.037 407.375 357.979C406.59 359.017 405.779 360.008 404.972 361.004C405.364 360.262 405.689 359.634 405.73 359.534C406.947 356.433 407.477 349.728 404.59 347.366C402.511 345.664 399.553 346.399 398.13 348.55C396.676 350.744 397.077 353.963 397.903 356.309C398.704 358.58 401.92 362.127 403.037 363.316C402.178 364.311 401.32 365.309 400.444 366.235C399.831 366.854 399.284 367.492 398.634 368.079C398.002 368.674 397.378 369.262 396.759 369.845C395.526 370.925 394.26 372.046 393.031 373.068C392.181 373.785 391.358 374.453 390.531 375.129C391.324 374.106 392.835 372.069 392.942 371.885C394.054 369.971 395.099 366.442 394.949 363.473C395.115 363.191 395.255 362.897 395.365 362.587C396.235 360.161 395.05 357.352 392.443 356.706C388.823 355.809 383.77 360.25 382.017 363.081C381.913 363.249 380.994 365.187 380.434 366.418C380.653 365.644 380.875 364.894 381.09 364.095C381.528 362.517 381.918 360.927 382.343 359.221C382.521 358.389 382.698 357.55 382.879 356.701C383.076 355.864 383.177 354.954 383.331 354.073C383.645 352.021 383.865 349.929 384.04 347.814C385.424 348.193 390.356 349.47 392.825 349.094C395.284 348.718 398.312 347.557 399.565 345.241C400.791 342.974 400.048 340.019 397.567 338.985C394.125 337.551 388.458 341.173 386.296 343.707C386.161 343.865 384.814 345.858 384.095 346.966C384.191 345.695 384.291 344.426 384.346 343.136C384.502 339.414 384.546 335.64 384.606 331.876C384.623 330.723 384.655 329.574 384.682 328.425C385.174 328.565 391.002 330.211 393.769 329.788C396.227 329.413 399.255 328.251 400.509 325.936C401.735 323.668 400.991 320.712 398.511 319.679C395.068 318.244 389.402 321.869 387.24 324.4C387.077 324.591 385.143 327.46 384.687 328.215C384.748 325.682 384.831 323.16 385.016 320.675C385.265 317.248 385.698 313.898 386.358 310.684C386.587 310.75 392.663 312.495 395.496 312.063C397.955 311.688 400.984 310.526 402.236 308.211C403.462 305.943 402.719 302.987 400.238 301.954C396.796 300.519 391.13 304.142 388.967 306.675C388.825 306.842 387.348 309.028 386.671 310.083C386.564 310.037 386.583 310.046 386.475 310.001C387.224 306.565 388.381 303.333 389.615 300.36C390.325 298.638 391.101 297.03 391.891 295.484C392.989 295.925 398.031 297.885 400.625 297.777C403.11 297.674 406.247 296.852 407.747 294.689C409.215 292.57 408.799 289.55 406.449 288.25C403.185 286.446 397.154 289.426 394.727 291.706C394.595 291.831 393.394 293.239 392.532 294.278C392.898 293.586 393.265 292.864 393.631 292.207C394.995 289.739 396.396 287.563 397.653 285.645C398.376 284.561 399.053 283.594 399.693 282.696C400.996 282.567 406.243 281.979 408.455 280.711C410.612 279.475 413.018 277.299 413.352 274.688C413.678 272.13 411.918 269.641 409.232 269.572C405.504 269.475 401.526 274.898 400.422 278.04C400.326 278.311 399.323 282.729 399.391 282.723C399.391 282.723 399.455 282.717 399.469 282.716C398.835 283.567 398.164 284.487 397.452 285.507C396.152 287.4 394.698 289.552 393.275 292.001C391.847 294.443 390.363 297.138 389.057 300.117C387.744 303.101 386.515 306.308 385.676 309.775C385.666 309.814 385.661 309.856 385.653 309.896C385.583 308.805 385.286 305.764 385.237 305.532C384.543 302.276 381.285 296.391 377.575 296.013C374.901 295.74 372.839 297.986 372.837 300.564C372.836 303.197 374.946 305.66 376.929 307.161C379.166 308.854 385.101 310.186 385.575 310.29C384.806 313.601 384.286 317.059 383.952 320.587C383.759 322.605 383.627 324.644 383.522 326.688C383.432 325.746 383.343 324.907 383.319 324.79C382.623 321.534 379.367 315.649 375.656 315.271C372.983 314.998 370.922 317.244 370.92 319.821C370.919 322.454 373.029 324.918 375.012 326.418C377.026 327.941 382.062 329.178 383.4 329.487C383.368 330.272 383.326 331.056 383.297 331.841C383.155 335.607 383.031 339.367 382.795 343.051C382.713 344.349 382.583 345.624 382.46 346.902C382.378 346.065 382.303 345.363 382.28 345.257C381.586 342.001 378.328 336.116 374.617 335.738C371.944 335.465 369.883 337.711 369.881 340.289C369.88 342.921 371.99 345.385 373.974 346.886C375.895 348.339 380.534 349.523 382.121 349.898C381.954 351.201 381.79 352.507 381.57 353.762C381.4 354.617 381.296 355.451 381.077 356.298C380.879 357.142 380.682 357.977 380.488 358.805C380.054 360.386 379.617 362.019 379.155 363.55C378.843 364.617 378.524 365.628 378.208 366.647C378.306 365.356 378.442 362.825 378.429 362.612C378.236 359.287 375.908 352.977 372.297 352.041C369.697 351.367 367.318 353.273 366.927 355.821C366.527 358.424 368.238 361.178 369.972 362.962C371.88 364.926 377.313 367.08 377.994 367.344C377.463 369.03 376.93 370.664 376.403 372.197C374.589 377.52 372.875 381.885 371.636 384.918C371.592 385.025 371.551 385.122 371.509 385.226L373.731 386.448C373.808 386.249 373.884 386.056 373.966 385.842C375.153 382.746 376.787 378.303 378.502 372.889C379.049 371.18 379.598 369.343 380.144 367.451C380.609 367.509 383.258 367.825 385.768 367.809C386.444 370.54 389.562 375.018 389.969 375.592C388.597 376.705 387.251 377.775 385.966 378.764C381.516 382.202 377.678 384.897 374.972 386.743C374.861 386.818 374.762 386.885 374.655 386.958L377.098 388.303C379.74 386.402 383.277 383.778 387.334 380.499C388.732 379.375 390.204 378.146 391.703 376.869C392.247 377.336 396.714 381.124 399.348 381.885C401.738 382.574 404.974 382.788 407.082 381.21C409.145 379.664 409.708 376.669 407.889 374.691C405.364 371.947 398.7 372.863 395.676 374.257C395.498 374.339 393.661 375.448 392.515 376.167C393.125 375.642 393.722 375.139 394.343 374.591C395.579 373.515 396.781 372.407 398.078 371.217C398.685 370.622 399.297 370.019 399.914 369.41C400.54 368.821 401.127 368.118 401.742 367.468C403.136 365.931 404.474 364.305 405.786 362.638C406.731 363.717 410.139 367.503 412.407 368.552C414.665 369.595 417.831 370.298 420.154 369.057C422.428 367.842 423.438 364.966 421.94 362.735C419.859 359.64 413.134 359.536 409.934 360.457C409.735 360.514 407.512 361.432 406.301 361.96C407.082 360.952 407.865 359.949 408.622 358.904C410.807 355.886 412.924 352.762 415.051 349.656C415.702 348.704 416.362 347.764 417.02 346.82C417.351 347.207 421.306 351.795 423.846 352.97C426.104 354.014 429.27 354.716 431.593 353.475C433.867 352.26 434.876 349.385 433.378 347.153C431.298 344.058 424.572 343.954 421.373 344.874C421.132 344.943 417.936 346.27 417.139 346.646C418.587 344.568 420.049 342.509 421.573 340.539C423.672 337.816 425.881 335.262 428.205 332.946C428.359 333.127 432.465 337.933 435.067 339.136C437.325 340.18 440.491 340.882 442.814 339.641C445.088 338.427 446.098 335.551 444.599 333.321C442.52 330.226 435.793 330.122 432.593 331.042C432.383 331.102 429.947 332.111 428.799 332.617C428.735 332.519 428.747 332.537 428.681 332.44C431.199 329.988 433.949 327.931 436.616 326.131C438.16 325.086 439.693 324.173 441.205 323.32C441.878 324.294 445.002 328.71 447.225 330.051C449.354 331.336 452.424 332.381 454.869 331.404C457.263 330.447 458.583 327.699 457.339 325.317C455.611 322.012 448.938 321.171 445.656 321.733C445.478 321.764 443.698 322.276 442.406 322.667C443.094 322.292 443.798 321.892 444.464 321.546C446.964 320.24 449.332 319.197 451.439 318.292C452.641 317.787 453.737 317.353 454.768 316.958C455.927 317.569 460.627 319.973 463.171 320.136C465.653 320.295 468.859 319.809 470.578 317.815C472.26 315.859 472.165 312.811 469.963 311.272Z" fill="#35D36A"/>
<path d="M384.093 289.452C385.874 291.766 391.681 294.793 391.685 294.795C391.745 294.827 392.517 290.363 392.534 290.075C392.724 286.75 391.137 280.215 387.658 278.87C385.152 277.902 382.57 279.523 381.888 282.008C381.192 284.547 382.576 287.48 384.093 289.452Z" fill="#35D36A"/>
<g opacity="0.5">
<path d="M441.41 322.634C441.443 322.694 444.55 319.397 444.723 319.166C446.715 316.497 448.996 310.17 446.836 307.129C445.28 304.939 442.232 304.867 440.292 306.565C438.311 308.298 437.847 311.508 438.024 313.989C438.234 316.902 441.407 322.631 441.41 322.634Z" fill="white"/>
<path d="M469.963 311.272C466.907 309.135 460.597 311.463 457.942 313.475C457.713 313.65 454.439 316.781 454.5 316.814C454.5 316.814 454.556 316.844 454.57 316.852C453.571 317.211 452.504 317.608 451.347 318.067C449.218 318.929 446.819 319.921 444.281 321.179C441.742 322.429 439.018 323.858 436.286 325.623C433.544 327.388 430.751 329.383 428.138 331.814C428.109 331.841 428.082 331.874 428.051 331.902C428.594 330.954 430.026 328.252 430.112 328.032C431.33 324.932 431.859 318.227 428.973 315.865C426.894 314.163 423.935 314.898 422.512 317.048C421.059 319.244 421.46 322.462 422.286 324.809C423.218 327.454 427.433 331.839 427.77 332.188C425.303 334.524 422.962 337.122 420.736 339.881C419.462 341.457 418.229 343.085 417.011 344.732C417.455 343.897 417.845 343.147 417.887 343.037C419.104 339.937 419.634 333.232 416.748 330.871C414.669 329.169 411.71 329.904 410.287 332.053C408.834 334.249 409.235 337.466 410.061 339.814C410.9 342.194 414.418 346.004 415.363 347.001C414.903 347.638 414.436 348.268 413.979 348.907C411.782 351.97 409.605 355.037 407.375 357.979C406.59 359.017 405.779 360.008 404.972 361.004C405.364 360.262 405.689 359.634 405.73 359.534C406.947 356.433 407.477 349.728 404.59 347.366C402.511 345.664 399.553 346.399 398.13 348.55C396.676 350.744 397.077 353.963 397.903 356.309C398.704 358.58 401.92 362.127 403.037 363.316C402.178 364.311 401.32 365.309 400.444 366.235C399.831 366.854 399.284 367.492 398.634 368.079C398.002 368.674 397.378 369.262 396.759 369.845C395.526 370.925 394.26 372.046 393.031 373.068C392.181 373.785 391.358 374.453 390.531 375.129C391.324 374.106 392.835 372.069 392.942 371.885C394.054 369.971 395.099 366.442 394.949 363.473C395.115 363.191 395.255 362.897 395.365 362.587C396.235 360.161 395.05 357.352 392.443 356.706C388.823 355.809 383.77 360.25 382.017 363.081C381.913 363.249 380.994 365.187 380.434 366.418C380.653 365.644 380.875 364.894 381.09 364.095C381.528 362.517 381.918 360.927 382.343 359.221C382.521 358.389 382.698 357.55 382.879 356.701C383.076 355.864 383.177 354.954 383.331 354.073C383.645 352.021 383.865 349.929 384.04 347.814C385.424 348.193 390.356 349.47 392.825 349.094C395.284 348.718 398.312 347.557 399.565 345.241C400.791 342.974 400.048 340.019 397.567 338.985C394.125 337.551 388.458 341.173 386.296 343.707C386.161 343.865 384.814 345.858 384.095 346.966C384.191 345.695 384.291 344.426 384.346 343.136C384.502 339.414 384.546 335.64 384.606 331.876C384.623 330.723 384.655 329.574 384.682 328.425C385.174 328.565 391.002 330.211 393.769 329.788C396.227 329.413 399.255 328.251 400.509 325.936C401.735 323.668 400.991 320.712 398.511 319.679C395.068 318.244 389.402 321.869 387.24 324.4C387.077 324.591 385.143 327.46 384.687 328.215C384.748 325.682 384.831 323.16 385.016 320.675C385.265 317.248 385.698 313.898 386.358 310.684C386.587 310.75 392.663 312.495 395.496 312.063C397.955 311.688 400.984 310.526 402.236 308.211C403.462 305.943 402.719 302.987 400.238 301.954C396.796 300.519 391.13 304.142 388.967 306.675C388.825 306.842 387.348 309.028 386.671 310.083C386.564 310.037 386.583 310.046 386.475 310.001C387.224 306.565 388.381 303.333 389.615 300.36C390.325 298.638 391.101 297.03 391.891 295.484C392.989 295.925 398.031 297.885 400.625 297.777C403.11 297.674 406.247 296.852 407.747 294.689C409.215 292.57 408.799 289.55 406.449 288.25C403.185 286.446 397.154 289.426 394.727 291.706C394.595 291.831 393.394 293.239 392.532 294.278C392.898 293.586 393.265 292.864 393.631 292.207C394.995 289.739 396.396 287.563 397.653 285.645C398.376 284.561 399.053 283.594 399.693 282.696C400.996 282.567 406.243 281.979 408.455 280.711C410.612 279.475 413.018 277.299 413.352 274.688C413.678 272.13 411.918 269.641 409.232 269.572C405.504 269.475 401.526 274.898 400.422 278.04C400.326 278.311 399.323 282.729 399.391 282.723C399.391 282.723 399.455 282.717 399.469 282.716C398.835 283.567 398.164 284.487 397.452 285.507C396.152 287.4 394.698 289.552 393.275 292.001C391.847 294.443 390.363 297.138 389.057 300.117C387.744 303.101 386.515 306.308 385.676 309.775C385.666 309.814 385.661 309.856 385.653 309.896C385.583 308.805 385.286 305.764 385.237 305.532C384.543 302.276 381.285 296.391 377.575 296.013C374.901 295.74 372.839 297.986 372.837 300.564C372.836 303.197 374.946 305.66 376.929 307.161C379.166 308.854 385.101 310.186 385.575 310.29C384.806 313.601 384.286 317.059 383.952 320.587C383.759 322.605 383.627 324.644 383.522 326.688C383.432 325.746 383.343 324.907 383.319 324.79C382.623 321.534 379.367 315.649 375.656 315.271C372.983 314.998 370.922 317.244 370.92 319.821C370.919 322.454 373.029 324.918 375.012 326.418C377.026 327.941 382.062 329.178 383.4 329.487C383.368 330.272 383.326 331.056 383.297 331.841C383.155 335.607 383.031 339.367 382.795 343.051C382.713 344.349 382.583 345.624 382.46 346.902C382.378 346.065 382.303 345.363 382.28 345.257C381.586 342.001 378.328 336.116 374.617 335.738C371.944 335.465 369.883 337.711 369.881 340.289C369.88 342.921 371.99 345.385 373.974 346.886C375.895 348.339 380.534 349.523 382.121 349.898C381.954 351.201 381.79 352.507 381.57 353.762C381.4 354.617 381.296 355.451 381.077 356.298C380.879 357.142 380.682 357.977 380.488 358.805C380.054 360.386 379.617 362.019 379.155 363.55C378.843 364.617 378.524 365.628 378.208 366.647C378.306 365.356 378.442 362.825 378.429 362.612C378.236 359.287 375.908 352.977 372.297 352.041C369.697 351.367 367.318 353.273 366.927 355.821C366.527 358.424 368.238 361.178 369.972 362.962C371.88 364.926 377.313 367.08 377.994 367.344C377.463 369.03 376.93 370.664 376.403 372.197C374.589 377.52 372.875 381.885 371.636 384.918C371.592 385.025 371.551 385.122 371.509 385.226L373.731 386.448C373.808 386.249 373.884 386.056 373.966 385.842C375.153 382.746 376.787 378.303 378.502 372.889C379.049 371.18 379.598 369.343 380.144 367.451C380.609 367.509 383.258 367.825 385.768 367.809C386.444 370.54 389.562 375.018 389.969 375.592C388.597 376.705 387.251 377.775 385.966 378.764C381.516 382.202 377.678 384.897 374.972 386.743C374.861 386.818 374.762 386.885 374.655 386.958L377.098 388.303C379.74 386.402 383.277 383.778 387.334 380.499C388.732 379.375 390.204 378.146 391.703 376.869C392.247 377.336 396.714 381.124 399.348 381.885C401.738 382.574 404.974 382.788 407.082 381.21C409.145 379.664 409.708 376.669 407.889 374.691C405.364 371.947 398.7 372.863 395.676 374.257C395.498 374.339 393.661 375.448 392.515 376.167C393.125 375.642 393.722 375.139 394.343 374.591C395.579 373.515 396.781 372.407 398.078 371.217C398.685 370.622 399.297 370.019 399.914 369.41C400.54 368.821 401.127 368.118 401.742 367.468C403.136 365.931 404.474 364.305 405.786 362.638C406.731 363.717 410.139 367.503 412.407 368.552C414.665 369.595 417.831 370.298 420.154 369.057C422.428 367.842 423.438 364.966 421.94 362.735C419.859 359.64 413.134 359.536 409.934 360.457C409.735 360.514 407.512 361.432 406.301 361.96C407.082 360.952 407.865 359.949 408.622 358.904C410.807 355.886 412.924 352.762 415.051 349.656C415.702 348.704 416.362 347.764 417.02 346.82C417.351 347.207 421.306 351.795 423.846 352.97C426.104 354.014 429.27 354.716 431.593 353.475C433.867 352.26 434.876 349.385 433.378 347.153C431.298 344.058 424.572 343.954 421.373 344.874C421.132 344.943 417.936 346.27 417.139 346.646C418.587 344.568 420.049 342.509 421.573 340.539C423.672 337.816 425.881 335.262 428.205 332.946C428.359 333.127 432.465 337.933 435.067 339.136C437.325 340.18 440.491 340.882 442.814 339.641C445.088 338.427 446.098 335.551 444.599 333.321C442.52 330.226 435.793 330.122 432.593 331.042C432.383 331.102 429.947 332.111 428.799 332.617C428.735 332.519 428.747 332.537 428.681 332.44C431.199 329.988 433.949 327.931 436.616 326.131C438.16 325.086 439.693 324.173 441.205 323.32C441.878 324.294 445.002 328.71 447.225 330.051C449.354 331.336 452.424 332.381 454.869 331.404C457.263 330.447 458.583 327.699 457.339 325.317C455.611 322.012 448.938 321.171 445.656 321.733C445.478 321.764 443.698 322.276 442.406 322.667C443.094 322.292 443.798 321.892 444.464 321.546C446.964 320.24 449.332 319.197 451.439 318.292C452.641 317.787 453.737 317.353 454.768 316.958C455.927 317.569 460.627 319.973 463.171 320.136C465.653 320.295 468.859 319.809 470.578 317.815C472.26 315.859 472.165 312.811 469.963 311.272Z" fill="white"/>
<path d="M384.093 289.452C385.874 291.766 391.681 294.793 391.685 294.795C391.745 294.827 392.517 290.363 392.534 290.075C392.724 286.75 391.137 280.215 387.658 278.87C385.152 277.902 382.57 279.523 381.888 282.008C381.192 284.547 382.576 287.48 384.093 289.452Z" fill="white"/>
</g>
<path d="M380.429 351.835C380.429 351.835 360.021 302.628 348.592 304.767C337.163 306.906 368.185 383.216 368.185 383.216C368.185 383.216 332.265 315.465 307.774 315.465C283.284 315.465 316.753 390.348 347.775 415.309C347.775 415.309 298.793 362.535 270.221 373.945C241.649 385.356 327.367 438.844 327.367 438.844C327.367 438.844 277.568 423.155 283.284 435.278C288.998 447.401 304.509 449.541 304.509 449.541L248.18 452.393H444.105L400.022 448.114C400.022 448.114 445.738 425.293 433.493 416.021C421.247 406.75 394.308 426.719 394.308 426.719C394.308 426.719 440.84 375.371 431.861 356.117C422.88 336.861 382.879 391.062 382.879 391.062C382.879 391.062 415.533 321.884 409.002 309.761C402.471 297.635 380.429 351.835 380.429 351.835Z" fill="#35D36A"/>
<path opacity="0.5" d="M380.429 351.835C380.429 351.835 360.021 302.628 348.592 304.767C337.163 306.906 368.185 383.216 368.185 383.216C368.185 383.216 332.265 315.465 307.774 315.465C283.284 315.465 316.753 390.348 347.775 415.309C347.775 415.309 298.793 362.535 270.221 373.945C241.649 385.356 327.367 438.844 327.367 438.844C327.367 438.844 277.568 423.155 283.284 435.278C288.998 447.401 304.509 449.541 304.509 449.541L248.18 452.393H444.105L400.022 448.114C400.022 448.114 445.738 425.293 433.493 416.021C421.247 406.75 394.308 426.719 394.308 426.719C394.308 426.719 440.84 375.371 431.861 356.117C422.88 336.861 382.879 391.062 382.879 391.062C382.879 391.062 415.533 321.884 409.002 309.761C402.471 297.635 380.429 351.835 380.429 351.835Z" fill="white"/>
<path d="M386.96 354.426C369 407.489 369 445.042 369 445.042C369 445.042 390.225 445.859 412.267 429.531" stroke="#263238" stroke-width="1.22249" stroke-miterlimit="10" stroke-linecap="round" stroke-linejoin="round"/>
<path d="M377.98 383.001C377.98 383.001 373.898 363.408 363.286 336.469" stroke="#263238" stroke-width="1.22249" stroke-miterlimit="10" stroke-linecap="round" stroke-linejoin="round"/>
<path d="M324.917 351.98L370.633 419.738C370.633 419.738 401.655 393.615 412.268 378.921" stroke="#263238" stroke-width="1.22249" stroke-miterlimit="10" stroke-linecap="round" stroke-linejoin="round"/>
<path d="M369.817 436.064C369.817 436.064 321.652 413.206 302.059 400.145" stroke="#263238" stroke-width="1.22249" stroke-miterlimit="10" stroke-linecap="round" stroke-linejoin="round"/>
<path d="M356.642 456.611H167.88C163.325 456.611 159.632 452.918 159.632 448.363V94.9396C159.632 90.3846 163.325 86.6914 167.88 86.6914H356.64C361.195 86.6914 364.889 90.3846 364.889 94.9396V448.363C364.89 452.919 361.197 456.611 356.642 456.611Z" fill="#263238" stroke="#263238" stroke-width="1.22249" stroke-miterlimit="10"/>
<path d="M276.451 108.789H250.9C249.452 108.789 248.279 107.615 248.279 106.168C248.279 104.72 249.452 103.547 250.9 103.547H276.451C277.898 103.547 279.072 104.72 279.072 106.168C279.071 107.617 277.898 108.789 276.451 108.789Z" fill="#35D36A"/>
<path d="M351.918 423.543H172.604V109.09H215.106L219.887 113.057C221.559 114.443 223.661 115.202 225.832 115.202H300.821C303.083 115.202 305.266 114.38 306.966 112.887L311.287 109.09H351.918V423.543Z" fill="white"/>
<mask id="mask0_978_15987" style="mask-type:luminance" maskUnits="userSpaceOnUse" x="172" y="109" width="180" height="315">
<path d="M351.918 423.543H172.604V109.09H215.106L219.887 113.057C221.559 114.443 223.661 115.202 225.832 115.202H300.821C303.083 115.202 305.266 114.38 306.966 112.887L311.287 109.09H351.918V423.543Z" fill="white"/>
</mask>
<g mask="url(#mask0_978_15987)">
<path d="M306.966 112.887C305.266 114.38 303.083 115.202 300.821 115.202H225.832C223.661 115.202 221.559 114.443 219.887 113.057L215.106 109.09H172.604V143.563H351.918V109.09H311.287L306.966 112.887Z" fill="#35D36A"/>
</g>
<path d="M351.918 423.543H172.604V109.09H215.106L219.887 113.057C221.559 114.443 223.661 115.202 225.832 115.202H300.821C303.083 115.202 305.266 114.38 306.966 112.887L311.287 109.09H351.918V423.543Z" stroke="#263238" stroke-width="1.14743" stroke-miterlimit="10" stroke-linecap="round" stroke-linejoin="round"/>
<path d="M338.578 147.074H186.496V406.025H338.578V147.074Z" fill="white"/>
<path d="M267.989 433.235C267.989 430.984 266.165 429.16 263.914 429.16C261.664 429.16 259.84 430.984 259.84 433.235C259.84 435.485 261.664 437.309 263.914 437.309C266.165 437.309 267.989 435.485 267.989 433.235Z" fill="#35D36A"/>
<path d="M311.668 268.831C338.85 241.649 338.85 197.578 311.668 170.395C284.485 143.213 240.414 143.213 213.232 170.395C186.05 197.578 186.05 241.649 213.232 268.831C240.414 296.013 284.485 296.013 311.668 268.831Z" fill="#35D36A"/>
<mask id="mask1_978_15987" style="mask-type:luminance" maskUnits="userSpaceOnUse" x="192" y="150" width="141" height="140">
<path d="M311.668 268.831C338.85 241.649 338.85 197.578 311.668 170.395C284.485 143.213 240.414 143.213 213.232 170.395C186.05 197.578 186.05 241.649 213.232 268.831C240.414 296.013 284.485 296.013 311.668 268.831Z" fill="white"/>
</mask>
<g mask="url(#mask1_978_15987)">
<path d="M245.593 230.672C245.593 230.672 249.836 241.473 248.678 249.188C247.521 256.903 243.277 261.146 234.019 265.775C224.761 270.403 210.102 276.962 208.56 281.59C207.017 286.218 208.56 307.88 208.56 307.88H321.97C321.97 307.88 319.27 285.447 313.484 277.732C307.698 270.017 284.552 263.845 277.995 259.601C271.437 255.356 274.138 231.056 274.138 231.056C274.138 231.056 256.78 236.458 245.593 230.672Z" fill="#B97A5B" stroke="#263238" stroke-width="1.22249" stroke-miterlimit="10" stroke-linecap="round" stroke-linejoin="round"/>
<path d="M232.214 266.67C230.104 267.709 227.801 268.825 225.484 269.981C229.506 282.17 225.792 297.743 222.357 307.88H302.672C301.516 305.407 300.576 302.575 300.122 299.402C298.81 290.223 299.687 276.358 300.293 269.202C297.576 267.979 294.725 266.819 291.973 265.723C287.952 275.247 277.885 293.737 261.002 291.456C244.328 289.203 235.634 274.333 232.214 266.67Z" fill="#263238" stroke="#263238" stroke-width="1.22249" stroke-miterlimit="10" stroke-linecap="round" stroke-linejoin="round"/>
<path d="M226.305 236.845C226.305 236.845 228.62 242.631 237.106 243.789C245.593 244.946 241.424 232.52 266.716 231.654C284.507 231.045 266.809 245.718 270.667 246.489C274.524 247.26 284.168 246.103 289.569 233.374C294.97 220.644 296.127 188.241 284.941 177.826C273.754 167.411 240.966 167.797 235.951 177.055C230.936 186.313 234.408 202.515 229.779 211.386C225.149 220.258 223.22 232.215 226.305 236.845Z" fill="#263238" stroke="#263238" stroke-width="1.22249" stroke-miterlimit="10" stroke-linecap="round" stroke-linejoin="round"/>
<path d="M237.106 207.14C237.106 207.14 234.021 199.04 232.863 204.826C231.705 210.612 232.863 216.398 235.564 218.712C238.264 221.026 239.807 220.641 239.807 220.641L237.106 207.14Z" fill="#B97A5B" stroke="#263238" stroke-width="1.22249" stroke-miterlimit="10" stroke-linecap="round" stroke-linejoin="round"/>
<path d="M249.303 165.817C249.303 165.817 242.782 167.447 238.435 179.402C234.088 191.357 237.476 222.783 240.192 226.042C242.908 229.303 251.943 242.858 260.637 243.401C266.167 243.747 280.065 231.019 282.24 224.498C284.413 217.978 285.167 188.638 283.538 181.574C281.907 174.512 268.323 158.21 249.303 165.817Z" fill="#B97A5B" stroke="#263238" stroke-width="1.22249" stroke-miterlimit="10" stroke-linecap="round" stroke-linejoin="round"/>
<path d="M253.28 204.439C253.28 205.421 252.484 206.218 251.501 206.218C250.518 206.218 249.722 205.422 249.722 204.439C249.722 203.456 250.518 202.66 251.501 202.66C252.484 202.66 253.28 203.457 253.28 204.439Z" fill="#263238"/>
<path d="M271.011 204.439C271.011 205.421 270.215 206.218 269.232 206.218C268.251 206.218 267.454 205.422 267.454 204.439C267.454 203.456 268.249 202.66 269.232 202.66C270.215 202.66 271.011 203.457 271.011 204.439Z" fill="#263238"/>
<path d="M253.721 222.77C253.721 222.77 259.493 226.016 267.79 222.77" stroke="#263238" stroke-width="1.22249" stroke-miterlimit="10" stroke-linecap="round" stroke-linejoin="round"/>
<path d="M264.182 210.865C264.182 210.865 266.708 214.111 264.182 215.915C261.656 217.718 258.771 217.357 256.606 216.275C254.443 215.193 256.967 210.504 256.967 210.504" stroke="#263238" stroke-width="1.22249" stroke-miterlimit="10" stroke-linecap="round" stroke-linejoin="round"/>
<path d="M254.603 196.263C254.603 196.263 251.303 192.29 245.819 194.125C240.335 195.96 240.056 200.515 240.056 200.515C240.056 200.515 243.402 196.263 246.376 196.216C249.351 196.17 253.604 199.516 254.603 196.263Z" fill="#263238"/>
<path d="M264.542 196.667C264.542 196.667 267.621 192.52 273.196 194.056C278.77 195.591 279.297 200.124 279.297 200.124C279.297 200.124 275.725 196.06 272.753 196.174C269.78 196.289 265.715 199.862 264.542 196.667Z" fill="#263238"/>
<path d="M254.851 175.511C254.851 175.511 245.206 172.811 241.35 178.983C237.493 185.156 239.42 197.114 233.634 207.915C227.848 218.715 231.32 235.304 232.092 237.618C232.863 239.932 227.077 243.019 223.991 231.445C220.906 219.873 229.777 208.686 230.549 196.728C231.32 184.769 228.62 171.654 240.578 164.711C252.537 157.767 254.851 162.01 254.851 162.01V175.511Z" fill="#263238" stroke="#263238" stroke-width="1.22249" stroke-miterlimit="10" stroke-linecap="round" stroke-linejoin="round"/>
<path d="M302.298 193.64C299.984 186.696 300.369 173.966 291.111 163.552C285.308 157.023 274.199 153.224 265.101 153.008C263.787 152.728 262.312 152.619 260.637 152.751C245.978 153.909 236.72 161.623 239.42 167.41C242.121 173.196 254.851 175.51 254.851 175.51L256.78 176.282C256.705 175.574 256.695 174.93 256.717 174.318C258.79 173.35 262.334 172.716 266.038 176.668C271.824 182.84 276.321 193.228 276.067 202.899C275.681 217.558 283.011 222.958 283.011 229.13C283.011 235.302 272.21 243.016 269.892 244.948C267.326 247.096 279.604 248.146 280.438 248.093C292.87 247.323 301.142 239.21 306.321 228.378C312.424 215.618 306.283 205.596 302.298 193.64Z" fill="#263238" stroke="#263238" stroke-width="1.22249" stroke-miterlimit="10" stroke-linecap="round" stroke-linejoin="round"/>
<path d="M288.283 239.77C287.732 240.688 287.013 241.521 286.096 242.245" stroke="#7D7D7D" stroke-width="1.22249" stroke-miterlimit="10" stroke-linecap="round" stroke-linejoin="round"/>
<path d="M254.851 173.967C254.851 173.967 245.593 168.953 253.308 165.094C261.023 161.237 275.296 173.195 278.768 184.382C282.239 195.569 279.539 208.299 284.554 217.17C286.934 221.38 290.011 228.371 289.774 234.316" stroke="#7D7D7D" stroke-width="1.22249" stroke-miterlimit="10" stroke-linecap="round" stroke-linejoin="round"/>
<path d="M247.977 167.111C247.683 166.04 248.269 164.515 250.994 162.395C257.938 156.994 270.667 159.694 277.225 166.638C283.782 173.582 286.098 182.069 286.869 192.098C287.64 202.127 289.183 208.3 294.584 214.471C299.985 220.643 303.071 227.201 297.67 234.916" stroke="#7D7D7D" stroke-width="1.22249" stroke-miterlimit="10" stroke-linecap="round" stroke-linejoin="round"/>
<path d="M247.522 173.966C247.522 173.966 236.721 169.338 242.893 163.551" stroke="#7D7D7D" stroke-width="1.22249" stroke-miterlimit="10" stroke-linecap="round" stroke-linejoin="round"/>
<path d="M233.995 236.023C234.829 237.226 235.853 238.292 237.106 239.16" stroke="#7D7D7D" stroke-width="1.22249" stroke-miterlimit="10" stroke-linecap="round" stroke-linejoin="round"/>
<path d="M231.706 212.543C231.706 212.543 228.992 224.075 232.222 232.597" stroke="#7D7D7D" stroke-width="1.22249" stroke-miterlimit="10" stroke-linecap="round" stroke-linejoin="round"/>
<path d="M287.725 170.445C290.111 174.488 292.663 180.22 293.426 187.082C294.969 200.969 290.726 205.598 297.283 212.927C300.534 216.559 301.888 220.571 301.912 224.116" stroke="#7D7D7D" stroke-width="1.22249" stroke-miterlimit="10" stroke-linecap="round" stroke-linejoin="round"/>
<path d="M283.011 163.938C283.011 163.938 283.566 164.516 284.422 165.601" stroke="#7D7D7D" stroke-width="1.22249" stroke-miterlimit="10" stroke-linecap="round" stroke-linejoin="round"/>
</g>
<path d="M317.6 278.404C320.48 278.404 322.814 276.07 322.814 273.191C322.814 270.311 320.48 267.977 317.6 267.977C314.721 267.977 312.386 270.311 312.386 273.191C312.386 276.07 314.721 278.404 317.6 278.404Z" fill="white"/>
<path d="M204.768 309.926H227.384" stroke="#263238" stroke-width="1.22249" stroke-miterlimit="10" stroke-linecap="round" stroke-linejoin="round"/>
<path d="M204.768 367.383H227.384" stroke="#263238" stroke-width="1.22249" stroke-miterlimit="10" stroke-linecap="round" stroke-linejoin="round"/>
<path d="M204.768 318.484H287.897" stroke="#263238" stroke-width="2.44499" stroke-miterlimit="10" stroke-linecap="round" stroke-linejoin="round"/>
<path d="M204.768 375.941H287.897" stroke="#263238" stroke-width="2.44499" stroke-miterlimit="10" stroke-linecap="round" stroke-linejoin="round"/>
<path d="M204.768 399.781H227.384" stroke="#263238" stroke-width="1.22249" stroke-miterlimit="10" stroke-linecap="round" stroke-linejoin="round"/>
<path d="M204.768 408.336H287.897" stroke="#263238" stroke-width="2.44499" stroke-miterlimit="10" stroke-linecap="round" stroke-linejoin="round"/>
<path d="M204.768 330.711H333.741" stroke="#263238" stroke-width="1.22249" stroke-miterlimit="10" stroke-linecap="round" stroke-linejoin="round"/>
<path d="M204.768 336.82H333.741" stroke="#263238" stroke-width="1.22249" stroke-miterlimit="10" stroke-linecap="round" stroke-linejoin="round"/>
<path d="M204.768 342.934H333.741" stroke="#263238" stroke-width="1.22249" stroke-miterlimit="10" stroke-linecap="round" stroke-linejoin="round"/>
<path d="M189.639 311.76C192.34 311.76 194.529 309.571 194.529 306.87C194.529 304.17 192.34 301.98 189.639 301.98C186.939 301.98 184.749 304.17 184.749 306.87C184.749 309.571 186.939 311.76 189.639 311.76Z" fill="#263238"/>
<path d="M189.639 312.984C185.447 312.984 181.994 315.649 181.466 319.097H197.813C197.285 315.648 193.831 312.984 189.639 312.984Z" fill="#263238"/>
<path d="M135.887 371.544C135.887 371.544 122.032 381.053 118.228 387.03C114.425 393.007 104.101 408.492 97.0378 412.839C89.9742 417.186 79.1075 413.382 77.7481 417.458C76.3899 421.532 79.1062 428.597 78.5635 432.129C78.0207 435.661 76.6613 445.169 79.9216 448.974C83.182 452.778 86.4424 452.777 86.7138 451.147C86.9852 449.518 86.7138 441.095 89.9742 435.389C93.2346 429.684 98.6686 421.533 117.686 407.95C136.703 394.366 145.94 385.129 150.016 380.783C154.092 376.436 151.103 370.188 151.103 370.188" fill="white"/>
<path d="M135.887 371.544C135.887 371.544 122.032 381.053 118.228 387.03C114.425 393.007 104.101 408.492 97.0378 412.839C89.9742 417.186 79.1075 413.382 77.7481 417.458C76.3899 421.532 79.1062 428.597 78.5635 432.129C78.0207 435.661 76.6613 445.169 79.9216 448.974C83.182 452.778 86.4424 452.777 86.7138 451.147C86.9852 449.518 86.7138 441.095 89.9742 435.389C93.2346 429.684 98.6686 421.533 117.686 407.95C136.703 394.366 145.94 385.129 150.016 380.783C154.092 376.436 151.103 370.188 151.103 370.188" stroke="#263238" stroke-width="1.22249" stroke-miterlimit="10" stroke-linecap="round" stroke-linejoin="round"/>
<path d="M135.888 371.546C135.888 371.546 122.032 381.054 118.229 387.031C114.425 393.008 104.101 408.493 97.0379 412.84C95.9205 413.529 94.7017 413.996 93.4462 414.339C93.4352 418.142 94.0965 422.518 96.3936 426.322C100.523 421.575 106.932 415.631 117.686 407.95C136.703 394.366 145.94 385.129 150.016 380.783C154.092 376.436 151.103 370.188 151.103 370.188L135.888 371.546Z" fill="#263238" stroke="#263238" stroke-width="1.22249" stroke-miterlimit="10" stroke-linecap="round" stroke-linejoin="round"/>
<path d="M84.2688 435.118C84.9657 430.238 88.0463 418.407 88.9241 415.086C83.6136 415.5 78.6392 414.788 77.7493 417.459C76.3911 421.533 79.1075 428.598 78.5647 432.13C78.0219 435.662 76.6625 445.17 79.9229 448.975C83.1833 452.779 86.4437 452.778 86.715 451.148C86.8679 450.228 86.8495 447.143 87.3899 443.604C85.6172 442.109 83.704 439.071 84.2688 435.118Z" fill="#35D36A" stroke="#263238" stroke-width="1.22249" stroke-miterlimit="10" stroke-linecap="round" stroke-linejoin="round"/>
<path d="M79.9216 440.279C79.9216 435.389 81.2798 431.857 80.193 425.065C79.4926 420.689 80.3703 417.339 81.0842 415.5C79.3764 415.743 78.1478 416.258 77.7481 417.457C76.3899 421.532 79.1062 428.597 78.5635 432.128C78.0207 435.66 76.6613 445.169 79.9216 448.973C81.2762 450.553 82.627 451.469 83.7664 451.892C80.5427 449.015 79.9216 444.544 79.9216 440.279Z" fill="white" stroke="#263238" stroke-width="1.22249" stroke-miterlimit="10" stroke-linecap="round" stroke-linejoin="round"/>
<path d="M101.116 248.933C101.342 248.514 101.555 248.11 101.753 247.723" stroke="#263238" stroke-width="1.22249" stroke-miterlimit="10" stroke-linecap="round" stroke-linejoin="round"/>
<path d="M100.148 250.686C100.435 250.175 100.709 249.681 100.967 249.207" stroke="#263238" stroke-width="1.22249" stroke-miterlimit="10" stroke-linecap="round" stroke-linejoin="round"/>
<path d="M101.873 247.49C102.087 247.067 102.279 246.669 102.452 246.289C102.277 246.669 102.087 247.068 101.873 247.49Z" fill="#263238" stroke="#263238" stroke-width="1.22249" stroke-miterlimit="10" stroke-linecap="round" stroke-linejoin="round"/>
<path d="M99.1064 252.526C99.3913 252.026 99.6664 251.542 99.9316 251.07C99.6651 251.543 99.3913 252.025 99.1064 252.526Z" fill="#263238" stroke="#263238" stroke-width="1.22249" stroke-miterlimit="10" stroke-linecap="round" stroke-linejoin="round"/>
<path d="M102.566 246.036C102.736 245.652 102.892 245.284 103.015 244.949C102.892 245.284 102.737 245.652 102.566 246.036Z" fill="#263238" stroke="#263238" stroke-width="1.22249" stroke-miterlimit="10" stroke-linecap="round" stroke-linejoin="round"/>
<path d="M142.176 251.807C142.151 251.48 142.137 251.179 142.137 250.926" stroke="#263238" stroke-width="1.22249" stroke-miterlimit="10" stroke-linecap="round" stroke-linejoin="round"/>
<path d="M142.454 254.248C142.401 253.868 142.353 253.504 142.312 253.164C142.353 253.505 142.401 253.869 142.454 254.248Z" fill="#263238" stroke="#263238" stroke-width="1.22249" stroke-miterlimit="10" stroke-linecap="round" stroke-linejoin="round"/>
<path d="M148.928 307.434C147.638 299.657 143.222 285.7 144.581 278.365C145.576 272.992 143.804 263.114 142.784 256.498C142.784 256.5 142.785 256.503 142.785 256.506C118.848 259.024 105.309 255.414 98.9816 252.746C94.9926 259.739 89.3997 269.33 86.9841 279.18C83.4523 293.579 81.2787 304.989 85.6259 314.771C89.9731 324.55 94.0525 348.428 93.2383 358.208C92.4229 367.988 87.533 373.422 88.6198 381.03C89.7066 388.637 94.8496 404.86 97.0232 410.022C99.1968 415.184 101.112 434.522 101.112 434.522C101.112 434.522 98.396 441.646 97.852 446.536C97.3092 451.426 101.248 453.332 106.839 456.376C112.429 459.42 124.463 465.615 126.386 461.355C128.309 457.094 119.372 446.96 114.852 439.548C110.332 432.136 110.512 421.417 109.928 410.022C109.258 396.964 109.81 369.62 109.81 361.47C109.81 353.319 118.77 310.697 118.77 310.697C118.77 310.697 124.204 332.703 128.55 343.299C132.897 353.894 133.053 373.097 137.944 377.443C142.834 381.79 152.615 382.877 152.615 372.553C152.616 362.228 153.18 333.083 148.928 307.434Z" fill="#263238" stroke="#263238" stroke-width="1.22249" stroke-miterlimit="10" stroke-linecap="round" stroke-linejoin="round"/>
<path d="M142.284 252.925C142.242 252.562 142.207 252.218 142.182 251.91" stroke="#263238" stroke-width="1.22249" stroke-miterlimit="10" stroke-linecap="round" stroke-linejoin="round"/>
<path d="M142.67 255.749C142.614 255.377 142.561 255.018 142.511 254.672C142.561 255.019 142.615 255.377 142.67 255.749Z" fill="#263238" stroke="#263238" stroke-width="1.22249" stroke-miterlimit="10" stroke-linecap="round" stroke-linejoin="round"/>
<path d="M86.5488 214.555C86.6197 214.461 86.687 214.372 86.7408 214.301C86.6858 214.374 86.621 214.46 86.5488 214.555Z" fill="#263238" stroke="#263238" stroke-width="1.22249" stroke-miterlimit="10" stroke-linecap="round" stroke-linejoin="round"/>
<path d="M85.748 215.605C85.8776 215.435 85.9938 215.282 86.105 215.137C85.995 215.281 85.8764 215.436 85.748 215.605Z" fill="#263238" stroke="#263238" stroke-width="1.22249" stroke-miterlimit="10" stroke-linecap="round" stroke-linejoin="round"/>
<path d="M86.1968 215.018C86.3105 214.869 86.4095 214.738 86.4987 214.621C86.4107 214.737 86.308 214.873 86.1968 215.018Z" fill="#263238" stroke="#263238" stroke-width="1.22249" stroke-miterlimit="10" stroke-linecap="round" stroke-linejoin="round"/>
<path d="M118.423 312.425C118.423 312.425 122.123 297.93 120.582 292.995C119.04 288.059 112.872 278.191 112.872 278.191" stroke="#515151" stroke-width="0.91687" stroke-miterlimit="10" stroke-linecap="round" stroke-linejoin="round"/>
<path d="M123.666 294.844C123.666 294.844 133.844 289.293 136.311 283.434" stroke="#515151" stroke-width="0.91687" stroke-miterlimit="10" stroke-linecap="round" stroke-linejoin="round"/>
<path d="M127.984 293.611C127.984 293.611 135.694 289.601 139.395 282.508" stroke="#515151" stroke-width="0.91687" stroke-miterlimit="10" stroke-linecap="round" stroke-linejoin="round"/>
<path d="M156.264 195.233C152.189 187.626 148.656 185.18 143.766 184.366C138.876 183.55 129.639 184.91 125.292 182.192C120.945 179.476 120.945 167.521 121.489 166.707C122.032 165.892 108.177 166.436 108.177 166.436C108.177 166.436 110.079 179.747 108.993 182.465C107.906 185.181 102.744 186.268 96.2236 186.268C89.7028 186.268 83.4547 190.071 80.1943 196.592C76.9339 203.113 50.4143 242.063 50.4143 242.063C50.4143 242.063 48.8703 243.818 48.9767 244.484L58.6295 246.12C68.1429 239.097 86.9865 213.978 86.9865 213.978L88.8887 212.892C88.8887 212.892 92.1491 224.574 97.8544 229.464C103.56 234.354 105.189 238.972 103.017 244.949C102.33 246.838 100.828 249.516 98.9852 252.746C105.313 255.414 118.852 259.024 142.788 256.506C142.416 254.087 142.139 252.09 142.139 250.926C142.139 246.579 141.868 238.157 141.868 232.723C141.868 227.289 147.302 222.399 145.671 216.965C144.04 211.531 143.497 206.912 143.497 206.912L146.214 203.652C146.214 203.652 154.885 218.723 157.902 222.058C164.076 228.885 171.48 235.982 172.839 235.167C174.197 234.351 177.457 233.264 176.37 225.929C175.281 218.597 160.339 202.84 156.264 195.233Z" fill="#B97A5B" stroke="#263238" stroke-width="1.22249" stroke-miterlimit="10" stroke-linecap="round" stroke-linejoin="round"/>
<path d="M142.139 251.053C135.878 251.955 118.523 253.631 101.674 247.871C100.812 249.54 99.6884 251.508 98.4341 253.705C102.672 255.477 115.891 260.468 128.009 259.345C135.89 258.616 140.318 257.26 142.731 256.16C142.397 253.973 142.157 252.175 142.139 251.053Z" fill="#35D36A" stroke="#263238" stroke-width="1.22249" stroke-miterlimit="10" stroke-linecap="round" stroke-linejoin="round"/>
<path d="M142.304 253.109C142.199 252.224 142.137 251.48 142.137 250.925C142.137 246.578 141.866 238.156 141.866 232.722C141.866 227.288 147.3 222.398 145.669 216.964C144.039 211.53 143.495 206.912 143.495 206.912L143.73 206.631C140.369 199.64 137.857 188.188 137.012 184.034C135.491 184.021 133.929 183.995 132.418 183.898C132.339 188.456 131.031 198.512 121.218 200.392C110.961 202.357 101.762 190.83 98.5367 186.215C97.7886 186.248 97.0159 186.265 96.2238 186.265C95.9132 186.265 95.6052 186.282 95.2959 186.299C96.8864 189.757 99.8118 197.524 99.2115 206.913C98.6027 216.46 94.5013 220.538 92.4695 221.989C93.8839 224.785 95.6932 227.61 97.8533 229.462C103.559 234.352 105.188 238.971 103.015 244.947C102.548 246.233 101.688 247.902 100.615 249.845C120.269 259.397 137.333 254.826 142.304 253.109Z" fill="#35D36A" stroke="#263238" stroke-width="1.22249" stroke-miterlimit="10" stroke-linecap="round" stroke-linejoin="round"/>
<path d="M115.526 231.55C115.526 231.55 121.027 230.328 132.03 226.66" stroke="#263238" stroke-width="1.22249" stroke-miterlimit="10" stroke-linecap="round" stroke-linejoin="round"/>
<path d="M59.6503 239.641C59.6503 239.641 63.621 246.307 75.3031 250.654C86.9853 255.001 94.0488 254.457 94.0488 254.457C94.0488 254.457 100.297 244.949 101.656 244.949C103.015 244.949 114.52 249.24 114.304 249.888C114.089 250.534 115.384 251.075 113.334 250.751C111.284 250.427 106.106 248.485 105.351 248.378C104.595 248.27 112.795 253.879 113.55 254.311C114.306 254.742 114.197 256.144 113.442 256.252C112.687 256.359 104.597 252.368 104.597 252.368L112.472 257.223C112.472 257.223 112.903 258.086 111.501 258.301C110.099 258.516 102.763 254.524 102.763 254.524L108.697 259.487C108.697 259.487 109.345 260.457 107.51 260.242C105.676 260.026 100.821 256.575 100.821 256.575C100.821 256.575 98.1246 259.379 94.5647 260.566C91.0048 261.753 81.2958 258.947 73.852 258.084C66.4082 257.221 52.6002 253.554 49.2554 249.994C45.9107 246.434 50.9816 241.04 50.9816 241.04" fill="#B97A5B"/>
<path d="M59.6503 239.641C59.6503 239.641 63.621 246.307 75.3031 250.654C86.9853 255.001 94.0488 254.457 94.0488 254.457C94.0488 254.457 100.297 244.949 101.656 244.949C103.015 244.949 114.519 249.24 114.304 249.888C114.089 250.534 115.384 251.075 113.334 250.751C111.284 250.427 106.106 248.485 105.351 248.378C104.595 248.27 112.795 253.879 113.55 254.311C114.306 254.742 114.197 256.144 113.442 256.252C112.687 256.359 104.597 252.368 104.597 252.368L112.472 257.223C112.472 257.223 112.903 258.086 111.501 258.301C110.099 258.516 102.763 254.524 102.763 254.524L108.697 259.487C108.697 259.487 109.345 260.457 107.51 260.242C105.676 260.026 100.821 256.575 100.821 256.575C100.821 256.575 98.1246 259.379 94.5647 260.566C91.0048 261.753 81.2958 258.947 73.852 258.084C66.4082 257.221 52.6002 253.554 49.2554 249.994C45.9107 246.434 50.9816 241.04 50.9816 241.04" stroke="#263238" stroke-width="1.22249" stroke-miterlimit="10" stroke-linecap="round" stroke-linejoin="round"/>
<path d="M166.034 227.405C166.034 227.405 162.449 235.784 159.903 240.41C157.359 245.036 150.593 254.629 149.957 255.446C149.248 256.355 147.875 256.602 147.875 256.602C147.875 256.602 146.719 253.364 145.331 249.894C143.944 246.425 141.156 245.881 138.612 246.575C138.612 246.575 136.659 247.569 137.331 248.145C138.002 248.721 140.428 248.568 141.292 248.568C142.155 248.568 143.211 249.624 143.211 249.624C143.211 249.624 137.643 249.863 137.451 250.726C137.259 251.59 137.933 251.831 139.565 251.831C141.197 251.831 143.28 251.931 143.76 252.219C144.241 252.508 138.216 252.733 137.545 253.981C136.874 255.229 141.303 254.502 142.445 254.71C144.259 255.042 144.177 256.602 144.177 256.602C144.177 256.602 139.67 255.575 138.801 256.914C138.108 257.984 140.962 258.052 141.488 258.2C143.383 258.734 142.886 260.727 144.034 262.294C145.017 263.635 145.308 264.339 147.249 264.339C150.609 264.339 160.01 252.023 164.903 247.415C169.798 242.809 176.708 235.995 177.859 232.443C179.011 228.892 175.652 223.421 174.884 223.23" fill="#B97A5B"/>
<path d="M166.034 227.405C166.034 227.405 162.449 235.784 159.903 240.41C157.359 245.036 150.593 254.629 149.957 255.446C149.248 256.355 147.875 256.602 147.875 256.602C147.875 256.602 146.719 253.364 145.331 249.894C143.944 246.425 141.156 245.881 138.612 246.575C138.612 246.575 136.659 247.569 137.331 248.145C138.002 248.721 140.428 248.568 141.292 248.568C142.155 248.568 143.211 249.624 143.211 249.624C143.211 249.624 137.643 249.863 137.451 250.726C137.259 251.59 137.933 251.831 139.565 251.831C141.197 251.831 143.28 251.931 143.76 252.219C144.241 252.508 138.216 252.733 137.545 253.981C136.874 255.229 141.303 254.502 142.445 254.71C144.259 255.042 144.177 256.602 144.177 256.602C144.177 256.602 139.67 255.575 138.801 256.914C138.108 257.984 140.962 258.052 141.488 258.2C143.383 258.734 142.886 260.727 144.034 262.294C145.017 263.635 145.308 264.339 147.249 264.339C150.609 264.339 160.01 252.023 164.903 247.415C169.798 242.809 176.708 235.995 177.859 232.443C179.011 228.892 175.652 223.421 174.884 223.23" stroke="#263238" stroke-width="1.22249" stroke-miterlimit="10" stroke-linecap="round" stroke-linejoin="round"/>
<path d="M147.876 256.602C147.876 256.602 148.741 259.851 148.741 262.346L147.876 256.602Z" fill="white"/>
<path d="M147.876 256.602C147.876 256.602 148.741 259.851 148.741 262.346" stroke="#263238" stroke-width="1.22249" stroke-miterlimit="10" stroke-linecap="round" stroke-linejoin="round"/>
<path d="M146.211 203.654L151.115 199.238" stroke="#263238" stroke-width="1.22249" stroke-miterlimit="10" stroke-linecap="round" stroke-linejoin="round"/>
<path d="M88.8875 212.89L95.2921 210.648" stroke="#263238" stroke-width="1.22249" stroke-miterlimit="10" stroke-linecap="round" stroke-linejoin="round"/>
<path d="M94.7468 175.504C94.7468 175.504 96.5488 178.794 101.703 178.871C106.857 178.948 103.467 171.826 118.517 169.477C129.104 167.826 119.59 177.873 121.951 178.056C124.312 178.238 129.99 176.848 132.296 168.851C134.601 160.855 132.947 141.41 125.51 135.997C118.072 130.584 98.5084 133.186 96.182 139.081C93.8556 144.976 97.1025 154.405 94.9791 160.041C92.8544 165.677 92.5671 172.961 94.7468 175.504Z" fill="#263238" stroke="#263238" stroke-width="1.22249" stroke-miterlimit="10" stroke-linecap="round" stroke-linejoin="round"/>
<path d="M99.0501 156.971C99.0501 156.971 96.6198 152.354 96.3472 155.895C96.0746 159.437 97.1846 162.81 98.9658 163.997C100.747 165.184 101.641 164.843 101.641 164.843L99.0501 156.971Z" fill="#B97A5B" stroke="#263238" stroke-width="1.22249" stroke-miterlimit="10" stroke-linecap="round" stroke-linejoin="round"/>
<path d="M103.347 131.397C103.347 131.397 99.5697 132.843 97.8374 140.3C96.1051 147.757 100.403 166.29 102.263 168.041C104.122 169.793 110.501 177.238 115.735 176.933C119.065 176.74 126.447 168.129 127.274 164.076C128.1 160.023 126.428 142.437 124.943 138.334C123.457 134.233 114.16 125.475 103.347 131.397Z" fill="#B97A5B" stroke="#263238" stroke-width="1.22249" stroke-miterlimit="10" stroke-linecap="round" stroke-linejoin="round"/>
<path d="M109.13 154.11C109.094 154.701 107.44 153.857 106.85 153.822C106.259 153.786 104.516 154.427 104.551 153.836C104.587 153.246 106.314 152.869 106.903 152.905C107.494 152.94 109.164 153.52 109.13 154.11Z" fill="#263238"/>
<path d="M119.083 152.481C119.154 153.068 118.736 153.601 118.149 153.673C117.562 153.744 117.029 153.326 116.957 152.739C116.886 152.152 117.304 151.619 117.891 151.547C118.478 151.476 119.012 151.894 119.083 152.481Z" fill="#263238"/>
<path d="M112.082 164.755C112.082 164.755 116.015 165.399 120.036 161.852" stroke="#263238" stroke-width="1.22249" stroke-miterlimit="10" stroke-linecap="round" stroke-linejoin="round"/>
<path d="M115.498 157.234C115.498 157.234 117.241 158.991 115.863 160.251C114.485 161.512 112.735 161.506 111.363 161.016C109.992 160.525 111.162 157.541 111.162 157.541" stroke="#263238" stroke-width="1.22249" stroke-miterlimit="10" stroke-linecap="round" stroke-linejoin="round"/>
<path d="M109.879 151.263C109.879 151.263 108.685 148.393 105.205 148.478C101.726 148.563 100.759 151.134 100.759 151.134C100.759 151.134 103.438 149.28 105.157 149.78C106.874 150.279 108.729 152.958 109.879 151.263Z" fill="#263238"/>
<path d="M113.918 146.908C113.918 146.908 115.459 144.208 118.901 144.721C122.344 145.235 122.985 147.906 122.985 147.906C122.985 147.906 120.558 145.736 118.789 146.019C117.021 146.303 114.851 148.731 113.918 146.908Z" fill="#263238"/>
<path d="M107.364 136.79C107.364 136.79 101.407 135.874 99.5488 139.841C97.6906 143.808 99.7089 150.813 97.0329 157.686C94.3569 164.559 97.6319 174.218 98.2603 175.545C98.8886 176.873 95.6551 179.135 92.973 172.444C90.2921 165.753 94.7835 158.427 94.3789 151.225C93.9742 144.025 91.4119 136.383 98.0549 131.369C104.698 126.355 106.387 128.723 106.387 128.723L107.364 136.79Z" fill="#263238" stroke="#263238" stroke-width="1.22249" stroke-miterlimit="10" stroke-linecap="round" stroke-linejoin="round"/>
<path d="M137.026 144.188C135.14 140.207 134.45 132.573 128.164 127.019C124.224 123.538 117.312 122.072 111.859 122.601C111.054 122.529 110.165 122.571 109.173 122.771C100.499 124.523 95.5256 129.803 97.5574 133.065C99.5891 136.326 107.363 136.788 107.363 136.788L108.571 137.11C108.475 136.692 108.423 136.308 108.391 135.941C109.56 135.213 111.631 134.577 114.131 136.67C118.034 139.939 121.474 145.82 122.022 151.617C122.852 160.403 127.622 163.1 128.07 166.788C128.516 170.477 122.621 175.868 121.376 177.189C119.999 178.659 127.409 178.397 127.905 178.306C135.277 176.946 139.632 171.499 141.944 164.653C144.666 156.588 140.273 151.043 137.026 144.188Z" fill="#263238" stroke="#263238" stroke-width="1.22249" stroke-miterlimit="10" stroke-linecap="round" stroke-linejoin="round"/>
<path d="M131.99 172.762C131.727 173.35 131.358 173.901 130.863 174.399" stroke="#7D7D7D" stroke-width="0.611247" stroke-miterlimit="10" stroke-linecap="round" stroke-linejoin="round"/>
<path d="M107.252 135.867C107.252 135.867 101.357 133.541 105.688 130.678C110.018 127.815 119.412 133.927 122.296 140.36C125.18 146.793 124.488 154.595 128.126 159.533C129.852 161.876 132.197 165.83 132.485 169.399" stroke="#7D7D7D" stroke-width="0.611247" stroke-miterlimit="10" stroke-linecap="round" stroke-linejoin="round"/>
<path d="M102.648 132.267C102.395 131.648 102.634 130.695 104.11 129.23C107.868 125.5 115.67 126.193 120.09 129.867C124.511 133.541 126.509 138.444 127.696 144.382C128.883 150.318 130.251 153.894 133.924 157.191C137.598 160.488 139.917 164.182 137.248 169.184" stroke="#7D7D7D" stroke-width="0.611247" stroke-miterlimit="10" stroke-linecap="round" stroke-linejoin="round"/>
<path d="M102.873 136.395C102.873 136.395 96.0844 134.411 99.3533 130.508" stroke="#7D7D7D" stroke-width="0.611247" stroke-miterlimit="10" stroke-linecap="round" stroke-linejoin="round"/>
<path d="M99.281 174.453C99.8666 175.111 100.555 175.674 101.368 176.102" stroke="#7D7D7D" stroke-width="0.611247" stroke-miterlimit="10" stroke-linecap="round" stroke-linejoin="round"/>
<path d="M96.215 160.59C96.215 160.59 95.4277 167.677 97.9742 172.535" stroke="#7D7D7D" stroke-width="0.611247" stroke-miterlimit="10" stroke-linecap="round" stroke-linejoin="round"/>
<path d="M126.639 131.383C128.358 133.626 130.298 136.866 131.25 140.911C133.177 149.097 130.977 152.17 135.425 156.075C137.631 158.01 138.73 160.309 139.001 162.426" stroke="#7D7D7D" stroke-width="0.611247" stroke-miterlimit="10" stroke-linecap="round" stroke-linejoin="round"/>
<path d="M123.352 127.836C123.352 127.836 123.725 128.142 124.315 128.728" stroke="#7D7D7D" stroke-width="0.611247" stroke-miterlimit="10" stroke-linecap="round" stroke-linejoin="round"/>
<path d="M112.901 435.392C107.258 436.282 103.09 434.77 101.029 433.719C101.083 434.231 101.112 434.522 101.112 434.522C101.112 434.522 98.396 441.645 97.852 446.535C97.3092 451.425 101.248 453.331 106.839 456.374C112.429 459.418 124.463 465.614 126.386 461.353C128.31 457.093 119.372 446.958 114.852 439.546C114.067 438.259 113.431 436.865 112.901 435.392Z" fill="white" stroke="#263238" stroke-width="1.22249" stroke-miterlimit="10" stroke-linecap="round" stroke-linejoin="round"/>
<path d="M113.999 452.449C108.132 450.773 101.631 443.896 99.0292 440.922C98.5097 442.796 98.0439 444.803 97.852 446.533C97.3092 451.423 101.248 453.329 106.839 456.372C112.429 459.416 124.463 465.611 126.386 461.351C127.412 459.08 125.342 455.135 122.508 450.827C121.297 452.669 118.774 453.813 113.999 452.449Z" fill="#35D36A" stroke="#263238" stroke-width="1.22249" stroke-miterlimit="10" stroke-linecap="round" stroke-linejoin="round"/>
<path d="M108.4 454.604C103.849 452.021 100.148 449.302 97.8042 447.441C97.8238 451.674 101.609 453.526 106.84 456.374C112.43 459.418 124.464 465.614 126.387 461.353C126.626 460.826 126.691 460.205 126.624 459.515C120.88 462.138 115.87 458.845 108.4 454.604Z" fill="white" stroke="#263238" stroke-width="1.22249" stroke-miterlimit="10" stroke-linecap="round" stroke-linejoin="round"/>
</svg>
