<svg width="750" height="500" viewBox="0 0 750 500" fill="none" xmlns="http://www.w3.org/2000/svg">
<g clip-path="url(#clip0_978_14059)">
<path d="M633.026 79.2125C583.808 50.2515 527.992 38.2545 472.132 30.7245C418.183 23.4525 362.821 27.2505 310.261 41.3315C287.256 47.4945 264.777 55.6325 243.185 65.6805C222.953 75.0955 203.416 91.9505 181.375 96.3195C188.756 86.0215 196.138 75.7235 203.52 65.4255C207.777 59.4875 211.966 50.9705 207.041 45.5725C205.033 43.3715 201.98 42.4555 199.031 42.0215C187.637 40.3445 176.198 44.4745 165.861 49.5505C118.231 72.9395 79.3419 116.557 49.7699 159.709C0.970863 230.914 6.39286 347.786 62.1629 405.061C117.933 462.336 237.218 490.2 286.791 484.008C324.423 479.307 283.876 456.959 275.547 443.41C274.821 442.229 274.139 440.928 274.199 439.543C274.301 437.173 276.467 435.469 278.519 434.278C295.714 424.294 317.689 427.229 336.72 425.732C366.99 423.35 397.504 422.368 427.857 423.492C431.979 423.645 479.557 424.78 475.786 434.479C472.789 442.181 460.965 448.404 454.757 453.119C449.989 456.74 419.123 477.718 428.031 484.881C430.493 486.861 433.828 487.268 436.974 487.573C489.094 492.622 542.731 491.068 594.051 480.213C638.744 470.758 688.076 455.376 714.743 415.429C741.938 374.692 743.6 320.281 733.226 273.848C730.756 262.793 727.51 251.901 723.404 241.34C719.593 231.539 713.535 223.279 708.479 214.122C706.441 210.432 705.034 205.985 706.502 202.034C712.979 184.601 731.786 219.367 736.916 200.697C739.407 191.631 734.606 178.182 731.559 169.622C726.068 154.196 716.773 140.321 705.644 128.392C684.366 105.587 659.146 94.5825 633.026 79.2125Z" fill="#92E3A9"/>
<path opacity="0.7" d="M633.026 79.2125C583.808 50.2515 527.992 38.2545 472.132 30.7245C418.183 23.4525 362.821 27.2505 310.261 41.3315C287.256 47.4945 264.777 55.6325 243.185 65.6805C222.953 75.0955 203.416 91.9505 181.375 96.3195C188.756 86.0215 196.138 75.7235 203.52 65.4255C207.777 59.4875 211.966 50.9705 207.041 45.5725C205.033 43.3715 201.98 42.4555 199.031 42.0215C187.637 40.3445 176.198 44.4745 165.861 49.5505C118.231 72.9395 79.3419 116.557 49.7699 159.709C0.970863 230.914 6.39286 347.786 62.1629 405.061C117.933 462.336 237.218 490.2 286.791 484.008C324.423 479.307 283.876 456.959 275.547 443.41C274.821 442.229 274.139 440.928 274.199 439.543C274.301 437.173 276.467 435.469 278.519 434.278C295.714 424.294 317.689 427.229 336.72 425.732C366.99 423.35 397.504 422.368 427.857 423.492C431.979 423.645 479.557 424.78 475.786 434.479C472.789 442.181 460.965 448.404 454.757 453.119C449.989 456.74 419.123 477.718 428.031 484.881C430.493 486.861 433.828 487.268 436.974 487.573C489.094 492.622 542.731 491.068 594.051 480.213C638.744 470.758 688.076 455.376 714.743 415.429C741.938 374.692 743.6 320.281 733.226 273.848C730.756 262.793 727.51 251.901 723.404 241.34C719.593 231.539 713.535 223.279 708.479 214.122C706.441 210.432 705.034 205.985 706.502 202.034C712.979 184.601 731.786 219.367 736.916 200.697C739.407 191.631 734.606 178.182 731.559 169.622C726.068 154.196 716.773 140.321 705.644 128.392C684.366 105.587 659.146 94.5825 633.026 79.2125Z" fill="white"/>
<path d="M686.625 119.698C686.203 119.438 685.773 119.202 685.337 118.994C678.623 115.796 673.187 118.354 669.989 123.151C666.791 127.947 665.832 130.505 663.594 128.267C661.356 126.029 657.839 122.831 652.723 125.709C647.607 128.587 648.566 131.464 645.689 132.104C642.811 132.743 640.893 129.866 636.416 130.825C631.94 131.784 629.382 135.301 628.422 135.941C627.463 136.581 619.789 139.458 619.789 139.458H719.229C719.229 139.458 717.63 130.505 712.514 127.947C707.398 125.389 703.561 129.865 700.684 131.784C697.806 133.703 697.167 132.104 697.167 132.104C697.167 132.104 694.459 126.858 690.399 122.768" stroke="#263238" stroke-miterlimit="10" stroke-linecap="round" stroke-linejoin="round"/>
<path d="M327.93 129.85C327.508 129.59 327.078 129.354 326.642 129.146C319.928 125.949 314.492 128.507 311.294 133.303C308.097 138.099 307.137 140.657 304.899 138.419C302.661 136.181 299.144 132.983 294.028 135.861C288.912 138.739 289.871 141.616 286.994 142.256C284.116 142.895 282.198 140.018 277.721 140.977C273.245 141.936 270.687 145.453 269.727 146.093C268.768 146.733 261.094 149.61 261.094 149.61H360.534C360.534 149.61 358.935 140.657 353.819 138.099C348.703 135.541 344.866 140.017 341.989 141.936C339.111 143.855 338.472 142.256 338.472 142.256C338.472 142.256 335.765 137.01 331.704 132.92" stroke="#263238" stroke-miterlimit="10" stroke-linecap="round" stroke-linejoin="round"/>
<path d="M89.1641 151.787C88.7421 151.527 88.3121 151.291 87.8761 151.083C81.1611 147.886 75.7261 150.444 72.5281 155.24C69.3301 160.036 68.3711 162.594 66.1331 160.356C63.8951 158.118 60.3781 154.92 55.2621 157.798C50.1461 160.676 51.1051 163.553 48.2281 164.193C45.3501 164.832 43.4321 161.955 38.9551 162.914C34.4791 163.873 31.9211 167.39 30.9611 168.03C30.0021 168.67 22.3281 171.547 22.3281 171.547H121.768C121.768 171.547 120.169 162.594 115.053 160.036C109.937 157.478 106.1 161.954 103.223 163.873C100.345 165.792 99.7061 164.193 99.7061 164.193C99.7061 164.193 96.9981 158.947 92.9381 154.857" stroke="#263238" stroke-miterlimit="10" stroke-linecap="round" stroke-linejoin="round"/>
<path d="M314.987 46.8181C314.178 46.3191 313.354 45.8661 312.517 45.4681C299.639 39.3361 289.215 44.2411 283.082 53.4401C276.95 62.6381 275.11 67.5441 270.817 63.2521C266.525 58.9591 259.779 52.8271 249.968 58.3461C240.156 63.8651 241.996 69.3841 236.477 70.6101C230.958 71.8361 227.279 66.3171 218.693 68.1571C210.108 69.9971 205.202 76.7421 203.362 77.9691C201.522 79.1961 186.805 84.7141 186.805 84.7141H377.517C377.517 84.7141 374.451 67.5441 364.639 62.6381C354.827 57.7321 347.469 66.3171 341.95 69.9971C336.431 73.6771 335.205 70.6101 335.205 70.6101C335.205 70.6101 330.012 60.5491 322.225 52.7051" stroke="#263238" stroke-miterlimit="10" stroke-linecap="round" stroke-linejoin="round"/>
<path d="M114.17 343.943C114.17 369.237 99.2071 389.742 80.7491 389.742C62.2911 389.742 47.3281 369.237 47.3281 343.943C47.3281 318.649 62.2911 231.715 80.7491 231.715C99.2071 231.715 114.17 318.649 114.17 343.943Z" fill="#92E3A9"/>
<path opacity="0.53" d="M114.17 343.943C114.17 369.237 99.2071 389.742 80.7491 389.742C62.2911 389.742 47.3281 369.237 47.3281 343.943C47.3281 318.649 62.2911 231.715 80.7491 231.715C99.2071 231.715 114.17 318.649 114.17 343.943Z" fill="white"/>
<path d="M62.6939 346.217L73.3529 349.935L78.6339 357.113L77.7099 379.09L71.5659 374.921L77.5189 383.638L76.1239 416.84H82.6439L81.7839 366.936L99.4869 357.177L89.3669 360.919L91.3969 354.828L86.5589 361.958L81.7289 363.745L81.3839 343.741L98.9649 320.383L89.5429 329.805L91.1359 323.254L86.6289 332.719L81.2859 338.062L80.7469 306.809L78.8319 352.39L62.1719 334.735L71.3229 347.176L62.6939 346.217Z" fill="#B2B2B2"/>
<path d="M99.1385 306.91C99.1385 306.91 99.4474 309.98 97.7694 312.234C96.0914 314.488 93.0614 315.072 93.0614 315.072C93.0614 315.072 92.7525 312.002 94.4305 309.748C96.1085 307.494 99.1385 306.91 99.1385 306.91Z" fill="white"/>
<path d="M109.209 321.059C109.209 321.059 109.518 324.129 107.84 326.384C106.162 328.638 103.132 329.222 103.132 329.222C103.132 329.222 102.823 326.152 104.501 323.898C106.179 321.644 109.209 321.059 109.209 321.059Z" fill="white"/>
<path d="M109.205 348.618C109.205 348.618 108.462 351.613 106.123 353.171C103.784 354.728 100.734 354.259 100.734 354.259C100.734 354.259 101.477 351.264 103.816 349.706C106.155 348.147 109.205 348.618 109.205 348.618Z" fill="white"/>
<path d="M53.8828 348.618C53.8828 348.618 54.6258 351.613 56.9648 353.171C59.3038 354.728 62.3538 354.259 62.3538 354.259C62.3538 354.259 61.6108 351.264 59.2718 349.706C56.9328 348.147 53.8828 348.618 53.8828 348.618Z" fill="white"/>
<path d="M97.5691 337.176C97.5691 337.176 97.8781 340.246 96.2001 342.501C94.5221 344.755 91.4911 345.339 91.4911 345.339C91.4911 345.339 91.1821 342.269 92.8601 340.014C94.5381 337.761 97.5691 337.176 97.5691 337.176Z" fill="white"/>
<path d="M94.9588 291.512C94.9588 291.512 95.2678 294.583 93.5898 296.837C91.9118 299.091 88.8818 299.675 88.8818 299.675C88.8818 299.675 88.5728 296.605 90.2508 294.351C91.9288 292.096 94.9588 291.512 94.9588 291.512Z" fill="white"/>
<path d="M88.9588 303.254C88.9588 303.254 89.2678 306.324 87.5898 308.578C85.9118 310.832 82.8818 311.416 82.8818 311.416C82.8818 311.416 82.5728 308.346 84.2508 306.091C85.9288 303.838 88.9588 303.254 88.9588 303.254Z" fill="white"/>
<path d="M103.209 294.707C103.209 294.707 103.518 297.777 101.84 300.031C100.162 302.285 97.1318 302.869 97.1318 302.869C97.1318 302.869 96.8228 299.799 98.5008 297.545C100.179 295.291 103.209 294.707 103.209 294.707Z" fill="white"/>
<path d="M56.9052 294.707C56.9052 294.707 56.5962 297.777 58.2742 300.031C59.9522 302.285 62.9822 302.869 62.9822 302.869C62.9822 302.869 63.2912 299.799 61.6132 297.545C59.9352 295.291 56.9052 294.707 56.9052 294.707Z" fill="white"/>
<path d="M96.2635 277.16C96.2635 277.16 96.5724 280.231 94.8944 282.485C93.2164 284.739 90.1864 285.323 90.1864 285.323C90.1864 285.323 89.8775 282.253 91.5555 279.998C93.2335 277.744 96.2635 277.16 96.2635 277.16Z" fill="white"/>
<path d="M93.3116 261.914C93.3116 261.914 94.3826 264.808 93.3236 267.412C92.2656 270.015 89.4796 271.342 89.4796 271.342C89.4796 271.342 88.4086 268.448 89.4676 265.844C90.5256 263.24 93.3116 261.914 93.3116 261.914Z" fill="white"/>
<path d="M72.1829 257.93C72.1829 257.93 74.9169 259.362 75.8749 262.004C76.8329 264.646 75.6529 267.497 75.6529 267.497C75.6529 267.497 72.9189 266.065 71.9609 263.423C71.0029 260.781 72.1829 257.93 72.1829 257.93Z" fill="white"/>
<path d="M82.0357 276.16C82.0357 276.16 83.9827 278.554 83.8217 281.36C83.6607 284.166 81.4517 286.321 81.4517 286.321C81.4517 286.321 79.5047 283.927 79.6657 281.122C79.8267 278.315 82.0357 276.16 82.0357 276.16Z" fill="white"/>
<path d="M81.5123 249.023C81.5123 249.023 83.4593 251.417 83.2983 254.222C83.1373 257.027 80.9283 259.182 80.9283 259.182C80.9283 259.182 78.9813 256.788 79.1423 253.982C79.3033 251.178 81.5123 249.023 81.5123 249.023Z" fill="white"/>
<path d="M59.3974 306.91C59.3974 306.91 59.0884 309.98 60.7664 312.234C62.4444 314.488 65.4744 315.072 65.4744 315.072C65.4744 315.072 65.7834 312.002 64.1054 309.748C62.4274 307.494 59.3974 306.91 59.3974 306.91Z" fill="white"/>
<path d="M53.6552 323.609C53.6552 323.609 53.3462 326.679 55.0242 328.933C56.7022 331.187 59.7322 331.771 59.7322 331.771C59.7322 331.771 60.0412 328.701 58.3632 326.446C56.6852 324.194 53.6552 323.609 53.6552 323.609Z" fill="white"/>
<path d="M68.8974 329.672C68.8974 329.672 68.5884 332.742 70.2664 334.996C71.9444 337.25 74.9744 337.834 74.9744 337.834C74.9744 337.834 75.2834 334.763 73.6054 332.509C71.9274 330.256 68.8974 329.672 68.8974 329.672Z" fill="white"/>
<path d="M73.0603 306.531C73.0603 306.531 71.8853 309.384 72.8473 312.025C73.8103 314.665 76.5463 316.093 76.5463 316.093C76.5463 316.093 77.7213 313.24 76.7593 310.599C75.7963 307.958 73.0603 306.531 73.0603 306.531Z" fill="white"/>
<path d="M62.2656 368.109C62.2656 368.109 65.3506 368.165 67.4596 366.308C69.5686 364.451 69.9026 361.383 69.9026 361.383C69.9026 361.383 66.8176 361.327 64.7086 363.184C62.5996 365.041 62.2656 368.109 62.2656 368.109Z" fill="white"/>
<path d="M91.875 364.732C91.875 364.732 92.713 367.702 95.101 369.184C97.489 370.666 100.522 370.098 100.522 370.098C100.522 370.098 99.684 367.128 97.296 365.646C94.908 364.164 91.875 364.732 91.875 364.732Z" fill="white"/>
<path d="M65.7099 291.512C65.7099 291.512 65.4009 294.583 67.0789 296.837C68.7569 299.091 71.7879 299.675 71.7879 299.675C71.7879 299.675 72.0969 296.605 70.4189 294.351C68.7409 292.096 65.7099 291.512 65.7099 291.512Z" fill="white"/>
<path d="M65.663 277.945C65.663 277.945 65.354 281.015 67.032 283.269C68.71 285.523 71.741 286.107 71.741 286.107C71.741 286.107 72.05 283.036 70.372 280.782C68.694 278.529 65.663 277.945 65.663 277.945Z" fill="white"/>
<path d="M709.795 366.693C709.795 391.987 694.832 412.492 676.374 412.492C657.916 412.492 642.953 391.987 642.953 366.693C642.953 341.399 657.916 254.465 676.374 254.465C694.833 254.465 709.795 341.399 709.795 366.693Z" fill="#92E3A9"/>
<path opacity="0.53" d="M709.795 366.693C709.795 391.987 694.832 412.492 676.374 412.492C657.916 412.492 642.953 391.987 642.953 366.693C642.953 341.399 657.916 254.465 676.374 254.465C694.833 254.465 709.795 341.399 709.795 366.693Z" fill="white"/>
<path d="M658.319 368.967L668.979 372.686L674.259 379.864L673.336 401.841L667.191 397.671L673.145 406.389L671.75 439.59H678.27L677.409 389.686L695.112 379.927L684.992 383.67L687.023 377.578L682.185 384.708L677.354 386.495L677.009 366.491L694.59 343.134L685.168 352.555L686.762 346.004L682.255 355.469L676.912 360.812L676.373 329.559L674.458 375.141L657.797 357.486L666.949 369.926L658.319 368.967Z" fill="#B2B2B2"/>
<path d="M694.763 329.656C694.763 329.656 695.072 332.727 693.394 334.981C691.716 337.235 688.686 337.819 688.686 337.819C688.686 337.819 688.377 334.749 690.055 332.494C691.733 330.24 694.763 329.656 694.763 329.656Z" fill="white"/>
<path d="M704.834 343.809C704.834 343.809 705.143 346.879 703.465 349.134C701.787 351.388 698.757 351.972 698.757 351.972C698.757 351.972 698.448 348.902 700.126 346.648C701.804 344.393 704.834 343.809 704.834 343.809Z" fill="white"/>
<path d="M704.83 371.367C704.83 371.367 704.088 374.362 701.748 375.92C699.409 377.478 696.359 377.008 696.359 377.008C696.359 377.008 697.101 374.013 699.441 372.455C701.781 370.897 704.83 371.367 704.83 371.367Z" fill="white"/>
<path d="M649.508 371.367C649.508 371.367 650.25 374.362 652.59 375.92C654.929 377.478 657.979 377.008 657.979 377.008C657.979 377.008 657.237 374.013 654.897 372.455C652.558 370.897 649.508 371.367 649.508 371.367Z" fill="white"/>
<path d="M693.193 359.926C693.193 359.926 693.502 362.996 691.824 365.251C690.146 367.505 687.116 368.089 687.116 368.089C687.116 368.089 686.807 365.019 688.485 362.765C690.163 360.51 693.193 359.926 693.193 359.926Z" fill="white"/>
<path d="M690.585 314.262C690.585 314.262 690.894 317.332 689.216 319.586C687.538 321.84 684.507 322.424 684.507 322.424C684.507 322.424 684.198 319.354 685.876 317.1C687.555 314.847 690.585 314.262 690.585 314.262Z" fill="white"/>
<path d="M684.585 326.004C684.585 326.004 684.894 329.074 683.216 331.329C681.538 333.583 678.507 334.167 678.507 334.167C678.507 334.167 678.198 331.097 679.876 328.842C681.555 326.588 684.585 326.004 684.585 326.004Z" fill="white"/>
<path d="M698.834 317.453C698.834 317.453 699.143 320.523 697.465 322.777C695.787 325.031 692.757 325.615 692.757 325.615C692.757 325.615 692.448 322.545 694.126 320.291C695.804 318.037 698.834 317.453 698.834 317.453Z" fill="white"/>
<path d="M652.538 317.453C652.538 317.453 652.229 320.523 653.907 322.777C655.585 325.031 658.615 325.615 658.615 325.615C658.615 325.615 658.924 322.545 657.246 320.291C655.568 318.037 652.538 317.453 652.538 317.453Z" fill="white"/>
<path d="M691.888 299.91C691.888 299.91 692.197 302.98 690.519 305.234C688.841 307.488 685.811 308.072 685.811 308.072C685.811 308.072 685.502 305.002 687.18 302.747C688.858 300.493 691.888 299.91 691.888 299.91Z" fill="white"/>
<path d="M688.937 284.664C688.937 284.664 690.008 287.558 688.949 290.162C687.891 292.765 685.105 294.092 685.105 294.092C685.105 294.092 684.034 291.198 685.093 288.594C686.151 285.991 688.937 284.664 688.937 284.664Z" fill="white"/>
<path d="M667.808 280.68C667.808 280.68 670.542 282.112 671.5 284.754C672.458 287.396 671.278 290.247 671.278 290.247C671.278 290.247 668.544 288.815 667.586 286.173C666.628 283.532 667.808 280.68 667.808 280.68Z" fill="white"/>
<path d="M677.661 298.91C677.661 298.91 679.608 301.304 679.447 304.11C679.286 306.916 677.077 309.071 677.077 309.071C677.077 309.071 675.13 306.677 675.291 303.871C675.452 301.065 677.661 298.91 677.661 298.91Z" fill="white"/>
<path d="M677.145 271.773C677.145 271.773 679.092 274.167 678.931 276.972C678.77 279.778 676.561 281.932 676.561 281.932C676.561 281.932 674.614 279.538 674.775 276.732C674.936 273.927 677.145 271.773 677.145 271.773Z" fill="white"/>
<path d="M655.022 329.656C655.022 329.656 654.713 332.727 656.391 334.981C658.069 337.235 661.099 337.819 661.099 337.819C661.099 337.819 661.408 334.749 659.73 332.494C658.052 330.24 655.022 329.656 655.022 329.656Z" fill="white"/>
<path d="M649.28 346.359C649.28 346.359 648.971 349.429 650.649 351.684C652.327 353.938 655.358 354.522 655.358 354.522C655.358 354.522 655.667 351.452 653.989 349.197C652.311 346.943 649.28 346.359 649.28 346.359Z" fill="white"/>
<path d="M664.522 352.422C664.522 352.422 664.213 355.492 665.891 357.746C667.569 360 670.599 360.584 670.599 360.584C670.599 360.584 670.908 357.514 669.23 355.259C667.552 353.006 664.522 352.422 664.522 352.422Z" fill="white"/>
<path d="M668.685 329.281C668.685 329.281 667.51 332.134 668.472 334.775C669.434 337.415 672.17 338.843 672.17 338.843C672.17 338.843 673.346 335.99 672.383 333.349C671.421 330.709 668.685 329.281 668.685 329.281Z" fill="white"/>
<path d="M657.891 390.855C657.891 390.855 660.977 390.911 663.085 389.054C665.194 387.197 665.528 384.129 665.528 384.129C665.528 384.129 662.443 384.073 660.334 385.93C658.225 387.788 657.891 390.855 657.891 390.855Z" fill="white"/>
<path d="M687.5 387.482C687.5 387.482 688.338 390.452 690.726 391.934C693.114 393.416 696.147 392.848 696.147 392.848C696.147 392.848 695.309 389.878 692.921 388.396C690.534 386.915 687.5 387.482 687.5 387.482Z" fill="white"/>
<path d="M661.335 314.262C661.335 314.262 661.026 317.332 662.704 319.586C664.382 321.84 667.412 322.424 667.412 322.424C667.412 322.424 667.721 319.354 666.043 317.1C664.365 314.847 661.335 314.262 661.335 314.262Z" fill="white"/>
<path d="M661.288 300.691C661.288 300.691 660.979 303.761 662.657 306.015C664.335 308.269 667.365 308.853 667.365 308.853C667.365 308.853 667.674 305.783 665.996 303.528C664.318 301.275 661.288 300.691 661.288 300.691Z" fill="white"/>
<path d="M631.576 302.291C631.576 327.585 616.613 348.089 598.155 348.089C579.697 348.089 564.734 327.585 564.734 302.291C564.734 276.997 579.697 190.062 598.155 190.062C616.613 190.062 631.576 276.997 631.576 302.291Z" fill="#92E3A9"/>
<path opacity="0.53" d="M631.576 302.291C631.576 327.585 616.613 348.089 598.155 348.089C579.697 348.089 564.734 327.585 564.734 302.291C564.734 276.997 579.697 190.062 598.155 190.062C616.613 190.062 631.576 276.997 631.576 302.291Z" fill="white"/>
<path d="M580.1 304.564L590.759 308.283L596.04 315.461L595.116 337.438L588.972 333.268L594.925 341.986L593.53 375.187H600.051L599.19 325.283L616.893 315.524L606.773 319.267L608.804 313.175L603.965 320.305L599.135 322.092L598.79 302.088L616.371 278.731L606.949 288.153L608.543 281.601L604.035 291.066L598.692 296.409L598.153 265.156L596.238 310.738L579.578 293.083L588.729 305.523L580.1 304.564Z" fill="#B2B2B2"/>
<path d="M616.545 265.254C616.545 265.254 616.854 268.324 615.176 270.579C613.498 272.833 610.468 273.417 610.468 273.417C610.468 273.417 610.159 270.347 611.837 268.093C613.515 265.838 616.545 265.254 616.545 265.254Z" fill="white"/>
<path d="M626.615 279.406C626.615 279.406 626.924 282.476 625.246 284.731C623.568 286.985 620.538 287.569 620.538 287.569C620.538 287.569 620.229 284.499 621.907 282.245C623.585 279.99 626.615 279.406 626.615 279.406Z" fill="white"/>
<path d="M626.612 306.965C626.612 306.965 625.87 309.96 623.53 311.518C621.191 313.075 618.141 312.606 618.141 312.606C618.141 312.606 618.883 309.611 621.223 308.053C623.562 306.495 626.612 306.965 626.612 306.965Z" fill="white"/>
<path d="M571.289 306.965C571.289 306.965 572.032 309.96 574.371 311.518C576.71 313.075 579.76 312.606 579.76 312.606C579.76 312.606 579.018 309.611 576.678 308.053C574.339 306.495 571.289 306.965 571.289 306.965Z" fill="white"/>
<path d="M614.974 295.523C614.974 295.523 615.283 298.593 613.605 300.848C611.927 303.102 608.897 303.686 608.897 303.686C608.897 303.686 608.588 300.615 610.266 298.361C611.944 296.107 614.974 295.523 614.974 295.523Z" fill="white"/>
<path d="M612.365 249.859C612.365 249.859 612.674 252.929 610.996 255.183C609.318 257.437 606.288 258.021 606.288 258.021C606.288 258.021 605.979 254.951 607.657 252.697C609.335 250.443 612.365 249.859 612.365 249.859Z" fill="white"/>
<path d="M606.366 261.602C606.366 261.602 606.675 264.672 604.997 266.926C603.319 269.18 600.288 269.764 600.288 269.764C600.288 269.764 599.979 266.694 601.657 264.439C603.335 262.186 606.366 261.602 606.366 261.602Z" fill="white"/>
<path d="M620.615 253.051C620.615 253.051 620.924 256.122 619.246 258.376C617.568 260.63 614.538 261.214 614.538 261.214C614.538 261.214 614.229 258.144 615.907 255.889C617.585 253.635 620.615 253.051 620.615 253.051Z" fill="white"/>
<path d="M574.311 253.051C574.311 253.051 574.002 256.122 575.68 258.376C577.358 260.63 580.388 261.214 580.388 261.214C580.388 261.214 580.697 258.144 579.019 255.889C577.341 253.635 574.311 253.051 574.311 253.051Z" fill="white"/>
<path d="M613.67 235.508C613.67 235.508 613.979 238.578 612.301 240.832C610.623 243.086 607.593 243.67 607.593 243.67C607.593 243.67 607.284 240.6 608.962 238.345C610.64 236.092 613.67 235.508 613.67 235.508Z" fill="white"/>
<path d="M610.726 220.262C610.726 220.262 611.797 223.156 610.738 225.76C609.68 228.364 606.894 229.69 606.894 229.69C606.894 229.69 605.823 226.796 606.882 224.192C607.94 221.589 610.726 220.262 610.726 220.262Z" fill="white"/>
<path d="M589.589 216.277C589.589 216.277 592.323 217.709 593.281 220.351C594.239 222.993 593.059 225.844 593.059 225.844C593.059 225.844 590.325 224.412 589.367 221.77C588.409 219.129 589.589 216.277 589.589 216.277Z" fill="white"/>
<path d="M599.442 234.508C599.442 234.508 601.389 236.902 601.228 239.708C601.067 242.514 598.858 244.669 598.858 244.669C598.858 244.669 596.911 242.275 597.072 239.469C597.233 236.663 599.442 234.508 599.442 234.508Z" fill="white"/>
<path d="M598.919 207.371C598.919 207.371 600.866 209.765 600.705 212.57C600.544 215.376 598.335 217.53 598.335 217.53C598.335 217.53 596.388 215.136 596.549 212.33C596.71 209.526 598.919 207.371 598.919 207.371Z" fill="white"/>
<path d="M576.804 265.254C576.804 265.254 576.495 268.324 578.173 270.579C579.851 272.833 582.881 273.417 582.881 273.417C582.881 273.417 583.19 270.347 581.512 268.093C579.834 265.838 576.804 265.254 576.804 265.254Z" fill="white"/>
<path d="M571.061 281.957C571.061 281.957 570.752 285.027 572.43 287.281C574.108 289.535 577.138 290.119 577.138 290.119C577.138 290.119 577.447 287.049 575.769 284.794C574.091 282.541 571.061 281.957 571.061 281.957Z" fill="white"/>
<path d="M586.304 288.02C586.304 288.02 585.995 291.09 587.673 293.344C589.351 295.598 592.381 296.182 592.381 296.182C592.381 296.182 592.69 293.112 591.012 290.857C589.334 288.604 586.304 288.02 586.304 288.02Z" fill="white"/>
<path d="M590.467 264.879C590.467 264.879 589.292 267.732 590.254 270.373C591.216 273.013 593.952 274.441 593.952 274.441C593.952 274.441 595.128 271.588 594.165 268.947C593.203 266.306 590.467 264.879 590.467 264.879Z" fill="white"/>
<path d="M579.672 326.453C579.672 326.453 582.758 326.51 584.866 324.652C586.975 322.795 587.309 319.727 587.309 319.727C587.309 319.727 584.223 319.671 582.115 321.528C580.006 323.386 579.672 326.453 579.672 326.453Z" fill="white"/>
<path d="M609.281 323.079C609.281 323.079 610.119 326.049 612.507 327.531C614.895 329.013 617.928 328.445 617.928 328.445C617.928 328.445 617.09 325.475 614.702 323.993C612.314 322.512 609.281 323.079 609.281 323.079Z" fill="white"/>
<path d="M583.116 249.859C583.116 249.859 582.807 252.929 584.485 255.183C586.163 257.437 589.193 258.021 589.193 258.021C589.193 258.021 589.502 254.951 587.824 252.697C586.146 250.443 583.116 249.859 583.116 249.859Z" fill="white"/>
<path d="M583.069 236.293C583.069 236.293 582.76 239.363 584.438 241.617C586.116 243.871 589.146 244.455 589.146 244.455C589.146 244.455 589.455 241.385 587.777 239.13C586.099 236.877 583.069 236.293 583.069 236.293Z" fill="white"/>
<path d="M386.842 289.103C386.842 314.397 371.879 334.902 353.421 334.902C334.963 334.902 320 314.397 320 289.103C320 263.809 334.963 176.875 353.421 176.875C371.88 176.875 386.842 263.809 386.842 289.103Z" fill="#92E3A9"/>
<path opacity="0.53" d="M386.842 289.103C386.842 314.397 371.879 334.902 353.421 334.902C334.963 334.902 320 314.397 320 289.103C320 263.809 334.963 176.875 353.421 176.875C371.88 176.875 386.842 263.809 386.842 289.103Z" fill="white"/>
<path d="M335.366 291.377L346.026 295.095L351.306 302.273L350.383 324.25L344.238 320.081L350.192 328.798L348.797 362H355.317L354.456 312.096L372.159 302.337L362.039 306.079L364.07 299.988L359.232 307.118L354.401 308.904L354.056 288.901L371.637 265.543L362.215 274.965L363.809 268.414L359.302 277.879L353.958 283.222L353.42 251.969L351.505 297.55L334.844 279.895L343.996 292.336L335.366 291.377Z" fill="#B2B2B2"/>
<path d="M371.81 252.07C371.81 252.07 372.119 255.14 370.441 257.395C368.763 259.649 365.733 260.233 365.733 260.233C365.733 260.233 365.424 257.163 367.102 254.909C368.78 252.654 371.81 252.07 371.81 252.07Z" fill="white"/>
<path d="M381.881 266.223C381.881 266.223 382.19 269.293 380.512 271.547C378.834 273.801 375.804 274.385 375.804 274.385C375.804 274.385 375.495 271.315 377.173 269.061C378.85 266.807 381.881 266.223 381.881 266.223Z" fill="white"/>
<path d="M381.877 293.777C381.877 293.777 381.135 296.772 378.795 298.33C376.456 299.888 373.406 299.418 373.406 299.418C373.406 299.418 374.148 296.422 376.488 294.865C378.827 293.307 381.877 293.777 381.877 293.777Z" fill="white"/>
<path d="M326.555 293.777C326.555 293.777 327.298 296.772 329.637 298.33C331.976 299.888 335.026 299.418 335.026 299.418C335.026 299.418 334.284 296.422 331.944 294.865C329.605 293.307 326.555 293.777 326.555 293.777Z" fill="white"/>
<path d="M370.24 282.34C370.24 282.34 370.549 285.41 368.871 287.664C367.193 289.918 364.163 290.502 364.163 290.502C364.163 290.502 363.854 287.432 365.532 285.177C367.21 282.924 370.24 282.34 370.24 282.34Z" fill="white"/>
<path d="M367.631 236.672C367.631 236.672 367.94 239.742 366.262 241.996C364.584 244.25 361.554 244.834 361.554 244.834C361.554 244.834 361.245 241.764 362.923 239.51C364.6 237.256 367.631 236.672 367.631 236.672Z" fill="white"/>
<path d="M361.632 248.414C361.632 248.414 361.941 251.484 360.263 253.739C358.585 255.993 355.554 256.577 355.554 256.577C355.554 256.577 355.245 253.507 356.923 251.253C358.602 248.998 361.632 248.414 361.632 248.414Z" fill="white"/>
<path d="M375.881 239.867C375.881 239.867 376.19 242.937 374.512 245.191C372.834 247.445 369.804 248.029 369.804 248.029C369.804 248.029 369.495 244.959 371.173 242.704C372.851 240.451 375.881 239.867 375.881 239.867Z" fill="white"/>
<path d="M329.577 239.867C329.577 239.867 329.268 242.937 330.946 245.191C332.624 247.445 335.654 248.029 335.654 248.029C335.654 248.029 335.963 244.959 334.285 242.704C332.608 240.451 329.577 239.867 329.577 239.867Z" fill="white"/>
<path d="M368.935 222.32C368.935 222.32 369.244 225.39 367.566 227.644C365.888 229.898 362.858 230.482 362.858 230.482C362.858 230.482 362.549 227.412 364.227 225.157C365.905 222.904 368.935 222.32 368.935 222.32Z" fill="white"/>
<path d="M365.984 207.074C365.984 207.074 367.054 209.968 365.996 212.572C364.938 215.176 362.151 216.502 362.151 216.502C362.151 216.502 361.08 213.608 362.139 211.004C363.198 208.4 365.984 207.074 365.984 207.074Z" fill="white"/>
<path d="M344.855 203.09C344.855 203.09 347.589 204.522 348.547 207.164C349.505 209.806 348.325 212.657 348.325 212.657C348.325 212.657 345.591 211.225 344.633 208.583C343.675 205.941 344.855 203.09 344.855 203.09Z" fill="white"/>
<path d="M354.709 221.32C354.709 221.32 356.656 223.714 356.495 226.52C356.334 229.326 354.124 231.481 354.124 231.481C354.124 231.481 352.177 229.087 352.338 226.281C352.5 223.475 354.709 221.32 354.709 221.32Z" fill="white"/>
<path d="M354.184 194.184C354.184 194.184 356.131 196.578 355.97 199.384C355.809 202.19 353.6 204.344 353.6 204.344C353.6 204.344 351.653 201.95 351.814 199.144C351.975 196.339 354.184 194.184 354.184 194.184Z" fill="white"/>
<path d="M332.069 252.07C332.069 252.07 331.76 255.14 333.438 257.395C335.116 259.649 338.146 260.233 338.146 260.233C338.146 260.233 338.455 257.163 336.777 254.909C335.099 252.654 332.069 252.07 332.069 252.07Z" fill="white"/>
<path d="M326.327 268.77C326.327 268.77 326.018 271.841 327.696 274.095C329.374 276.349 332.404 276.933 332.404 276.933C332.404 276.933 332.713 273.863 331.035 271.608C329.358 269.354 326.327 268.77 326.327 268.77Z" fill="white"/>
<path d="M341.569 274.832C341.569 274.832 341.26 277.902 342.938 280.156C344.616 282.41 347.646 282.994 347.646 282.994C347.646 282.994 347.955 279.924 346.277 277.669C344.599 275.416 341.569 274.832 341.569 274.832Z" fill="white"/>
<path d="M345.732 251.691C345.732 251.691 344.557 254.544 345.519 257.185C346.481 259.825 349.217 261.253 349.217 261.253C349.217 261.253 350.392 258.4 349.43 255.759C348.467 253.118 345.732 251.691 345.732 251.691Z" fill="white"/>
<path d="M334.945 313.269C334.945 313.269 338.031 313.325 340.139 311.468C342.248 309.611 342.582 306.543 342.582 306.543C342.582 306.543 339.496 306.487 337.388 308.344C335.279 310.201 334.945 313.269 334.945 313.269Z" fill="white"/>
<path d="M364.547 309.892C364.547 309.892 365.385 312.862 367.773 314.344C370.161 315.826 373.194 315.258 373.194 315.258C373.194 315.258 372.356 312.288 369.968 310.806C367.581 309.324 364.547 309.892 364.547 309.892Z" fill="white"/>
<path d="M338.382 236.672C338.382 236.672 338.073 239.742 339.751 241.996C341.429 244.25 344.459 244.834 344.459 244.834C344.459 244.834 344.768 241.764 343.09 239.51C341.412 237.256 338.382 236.672 338.382 236.672Z" fill="white"/>
<path d="M338.335 223.105C338.335 223.105 338.026 226.175 339.704 228.43C341.382 230.684 344.412 231.268 344.412 231.268C344.412 231.268 344.721 228.198 343.043 225.943C341.365 223.689 338.335 223.105 338.335 223.105Z" fill="white"/>
<path d="M224.295 312.763C224.295 338.057 209.332 358.562 190.874 358.562C172.416 358.562 157.453 338.057 157.453 312.763C157.453 287.469 172.416 200.535 190.874 200.535C209.332 200.535 224.295 287.469 224.295 312.763Z" fill="#92E3A9"/>
<path opacity="0.53" d="M224.295 312.763C224.295 338.057 209.332 358.562 190.874 358.562C172.416 358.562 157.453 338.057 157.453 312.763C157.453 287.469 172.416 200.535 190.874 200.535C209.332 200.535 224.295 287.469 224.295 312.763Z" fill="white"/>
<path d="M172.819 315.037L183.479 318.756L188.759 325.934L187.836 347.911L181.691 343.741L187.645 352.459L186.25 385.66H192.77L191.91 335.756L209.613 325.997L199.493 329.74L201.523 323.648L196.685 330.778L191.855 332.565L191.51 312.561L209.09 289.204L199.669 298.625L201.262 292.074L196.755 301.539L191.412 306.882L190.873 275.629L188.958 321.211L172.297 303.556L181.449 315.996L172.819 315.037Z" fill="#B2B2B2"/>
<path d="M209.256 275.73C209.256 275.73 209.565 278.8 207.887 281.054C206.209 283.308 203.179 283.892 203.179 283.892C203.179 283.892 202.87 280.822 204.548 278.568C206.226 276.314 209.256 275.73 209.256 275.73Z" fill="white"/>
<path d="M219.334 289.883C219.334 289.883 219.643 292.953 217.965 295.208C216.287 297.462 213.257 298.046 213.257 298.046C213.257 298.046 212.948 294.976 214.626 292.722C216.304 290.467 219.334 289.883 219.334 289.883Z" fill="white"/>
<path d="M219.33 317.438C219.33 317.438 218.588 320.433 216.248 321.991C213.909 323.548 210.859 323.078 210.859 323.078C210.859 323.078 211.601 320.083 213.941 318.525C216.28 316.968 219.33 317.438 219.33 317.438Z" fill="white"/>
<path d="M164.008 317.438C164.008 317.438 164.751 320.433 167.09 321.991C169.429 323.548 172.479 323.078 172.479 323.078C172.479 323.078 171.737 320.083 169.397 318.525C167.058 316.968 164.008 317.438 164.008 317.438Z" fill="white"/>
<path d="M207.693 306C207.693 306 208.002 309.07 206.324 311.324C204.646 313.578 201.616 314.162 201.616 314.162C201.616 314.162 201.307 311.092 202.985 308.837C204.663 306.584 207.693 306 207.693 306Z" fill="white"/>
<path d="M205.084 260.332C205.084 260.332 205.393 263.402 203.715 265.657C202.037 267.911 199.007 268.495 199.007 268.495C199.007 268.495 198.698 265.425 200.376 263.17C202.054 260.916 205.084 260.332 205.084 260.332Z" fill="white"/>
<path d="M199.085 272.074C199.085 272.074 199.394 275.144 197.716 277.398C196.038 279.652 193.007 280.236 193.007 280.236C193.007 280.236 192.698 277.166 194.376 274.912C196.055 272.658 199.085 272.074 199.085 272.074Z" fill="white"/>
<path d="M213.335 263.527C213.335 263.527 213.644 266.597 211.966 268.851C210.288 271.105 207.257 271.689 207.257 271.689C207.257 271.689 206.948 268.619 208.626 266.364C210.305 264.111 213.335 263.527 213.335 263.527Z" fill="white"/>
<path d="M167.03 263.527C167.03 263.527 166.721 266.597 168.399 268.851C170.077 271.105 173.108 271.689 173.108 271.689C173.108 271.689 173.417 268.619 171.739 266.364C170.06 264.111 167.03 263.527 167.03 263.527Z" fill="white"/>
<path d="M206.388 245.98C206.388 245.98 206.697 249.05 205.019 251.304C203.341 253.558 200.311 254.142 200.311 254.142C200.311 254.142 200.002 251.072 201.68 248.817C203.357 246.564 206.388 245.98 206.388 245.98Z" fill="white"/>
<path d="M203.438 230.734C203.438 230.734 204.509 233.628 203.45 236.232C202.392 238.836 199.605 240.162 199.605 240.162C199.605 240.162 198.534 237.268 199.593 234.664C200.652 232.061 203.438 230.734 203.438 230.734Z" fill="white"/>
<path d="M182.308 226.75C182.308 226.75 185.042 228.182 186 230.824C186.958 233.466 185.778 236.317 185.778 236.317C185.778 236.317 183.044 234.885 182.086 232.243C181.128 229.602 182.308 226.75 182.308 226.75Z" fill="white"/>
<path d="M192.161 244.984C192.161 244.984 194.108 247.378 193.947 250.184C193.786 252.99 191.577 255.144 191.577 255.144C191.577 255.144 189.63 252.75 189.791 249.944C189.952 247.139 192.161 244.984 192.161 244.984Z" fill="white"/>
<path d="M191.637 217.844C191.637 217.844 193.584 220.238 193.423 223.044C193.262 225.85 191.053 228.004 191.053 228.004C191.053 228.004 189.106 225.61 189.267 222.804C189.428 219.999 191.637 217.844 191.637 217.844Z" fill="white"/>
<path d="M169.522 275.73C169.522 275.73 169.213 278.8 170.891 281.054C172.569 283.308 175.599 283.892 175.599 283.892C175.599 283.892 175.908 280.822 174.23 278.568C172.552 276.314 169.522 275.73 169.522 275.73Z" fill="white"/>
<path d="M163.78 292.43C163.78 292.43 163.471 295.5 165.149 297.754C166.827 300.008 169.857 300.592 169.857 300.592C169.857 300.592 170.166 297.522 168.488 295.267C166.81 293.014 163.78 292.43 163.78 292.43Z" fill="white"/>
<path d="M179.022 298.492C179.022 298.492 178.713 301.562 180.391 303.816C182.069 306.07 185.099 306.654 185.099 306.654C185.099 306.654 185.408 303.584 183.73 301.329C182.053 299.076 179.022 298.492 179.022 298.492Z" fill="white"/>
<path d="M183.185 275.352C183.185 275.352 182.01 278.205 182.972 280.846C183.934 283.486 186.67 284.914 186.67 284.914C186.67 284.914 187.845 282.061 186.883 279.42C185.921 276.78 183.185 275.352 183.185 275.352Z" fill="white"/>
<path d="M172.391 336.929C172.391 336.929 175.476 336.985 177.585 335.128C179.694 333.271 180.028 330.203 180.028 330.203C180.028 330.203 176.943 330.147 174.834 332.004C172.725 333.861 172.391 336.929 172.391 336.929Z" fill="white"/>
<path d="M202 333.552C202 333.552 202.838 336.522 205.226 338.004C207.614 339.486 210.647 338.918 210.647 338.918C210.647 338.918 209.809 335.948 207.421 334.466C205.033 332.985 202 333.552 202 333.552Z" fill="white"/>
<path d="M175.835 260.332C175.835 260.332 175.526 263.402 177.204 265.657C178.882 267.911 181.912 268.495 181.912 268.495C181.912 268.495 182.221 265.425 180.543 263.17C178.865 260.916 175.835 260.332 175.835 260.332Z" fill="white"/>
<path d="M175.788 246.766C175.788 246.766 175.479 249.836 177.157 252.091C178.835 254.345 181.865 254.929 181.865 254.929C181.865 254.929 182.174 251.859 180.496 249.604C178.818 247.35 175.788 246.766 175.788 246.766Z" fill="white"/>
<path d="M687.032 244.671C687.032 283.282 664.192 314.581 636.016 314.581C607.841 314.581 585 283.281 585 244.671C585 206.061 607.84 73.3594 636.016 73.3594C664.192 73.3594 687.032 206.061 687.032 244.671Z" fill="#92E3A9"/>
<path opacity="0.3" d="M687.032 244.671C687.032 283.282 664.192 314.581 636.016 314.581C607.841 314.581 585 283.281 585 244.671C585 206.061 607.84 73.3594 636.016 73.3594C664.192 73.3594 687.032 206.061 687.032 244.671Z" fill="white"/>
<path d="M608.46 248.143L624.732 253.819L632.792 264.776L631.383 298.323L622.003 291.958L631.091 305.265L628.962 355.946H638.914L637.601 279.769L664.624 264.872L649.176 270.586L652.276 261.287L644.891 272.171L637.517 274.898L636.991 244.363L663.827 208.709L649.445 223.091L651.878 213.09L644.997 227.539L636.841 235.695L636.019 187.988L633.095 257.566L607.664 230.616L621.633 249.606L608.46 248.143Z" fill="#B2B2B2"/>
<path d="M664.085 188.141C664.085 188.141 664.557 192.828 661.995 196.269C659.433 199.71 654.808 200.601 654.808 200.601C654.808 200.601 654.336 195.914 656.898 192.473C659.46 189.033 664.085 188.141 664.085 188.141Z" fill="white"/>
<path d="M679.46 209.742C679.46 209.742 679.932 214.429 677.37 217.87C674.808 221.311 670.183 222.202 670.183 222.202C670.183 222.202 669.711 217.515 672.273 214.074C674.835 210.634 679.46 209.742 679.46 209.742Z" fill="white"/>
<path d="M679.453 251.805C679.453 251.805 678.32 256.377 674.749 258.755C671.179 261.133 666.523 260.415 666.523 260.415C666.523 260.415 667.656 255.843 671.227 253.465C674.797 251.088 679.453 251.805 679.453 251.805Z" fill="white"/>
<path d="M595.008 251.805C595.008 251.805 596.141 256.377 599.712 258.755C603.283 261.133 607.938 260.415 607.938 260.415C607.938 260.415 606.805 255.843 603.234 253.465C599.664 251.088 595.008 251.805 595.008 251.805Z" fill="white"/>
<path d="M661.694 234.348C661.694 234.348 662.166 239.035 659.604 242.476C657.042 245.917 652.417 246.808 652.417 246.808C652.417 246.808 651.945 242.121 654.507 238.68C657.069 235.239 661.694 234.348 661.694 234.348Z" fill="white"/>
<path d="M657.71 164.641C657.71 164.641 658.182 169.328 655.62 172.769C653.058 176.21 648.433 177.101 648.433 177.101C648.433 177.101 647.961 172.414 650.523 168.973C653.085 165.532 657.71 164.641 657.71 164.641Z" fill="white"/>
<path d="M648.547 182.562C648.547 182.562 649.019 187.249 646.457 190.69C643.895 194.131 639.269 195.022 639.269 195.022C639.269 195.022 638.797 190.336 641.359 186.895C643.921 183.455 648.547 182.562 648.547 182.562Z" fill="white"/>
<path d="M670.296 169.512C670.296 169.512 670.768 174.199 668.206 177.64C665.644 181.081 661.019 181.972 661.019 181.972C661.019 181.972 660.547 177.285 663.109 173.844C665.67 170.403 670.296 169.512 670.296 169.512Z" fill="white"/>
<path d="M599.628 169.512C599.628 169.512 599.156 174.199 601.718 177.64C604.28 181.081 608.905 181.972 608.905 181.972C608.905 181.972 609.377 177.285 606.815 173.844C604.254 170.403 599.628 169.512 599.628 169.512Z" fill="white"/>
<path d="M659.702 142.73C659.702 142.73 660.174 147.417 657.612 150.858C655.05 154.299 650.425 155.19 650.425 155.19C650.425 155.19 649.953 150.503 652.515 147.062C655.076 143.622 659.702 142.73 659.702 142.73Z" fill="white"/>
<path d="M655.198 119.461C655.198 119.461 656.832 123.879 655.217 127.853C653.602 131.827 649.349 133.852 649.349 133.852C649.349 133.852 647.715 129.434 649.33 125.46C650.945 121.486 655.198 119.461 655.198 119.461Z" fill="white"/>
<path d="M622.943 113.379C622.943 113.379 627.116 115.565 628.578 119.598C630.041 123.631 628.239 127.983 628.239 127.983C628.239 127.983 624.066 125.797 622.604 121.764C621.141 117.732 622.943 113.379 622.943 113.379Z" fill="white"/>
<path d="M637.984 141.207C637.984 141.207 640.957 144.861 640.71 149.144C640.464 153.427 637.092 156.716 637.092 156.716C637.092 156.716 634.119 153.062 634.366 148.779C634.612 144.497 637.984 141.207 637.984 141.207Z" fill="white"/>
<path d="M637.187 99.7812C637.187 99.7812 640.159 103.435 639.913 107.718C639.667 112.001 636.295 115.29 636.295 115.29C636.295 115.29 633.322 111.636 633.569 107.353C633.815 103.07 637.187 99.7812 637.187 99.7812Z" fill="white"/>
<path d="M603.425 188.141C603.425 188.141 602.953 192.828 605.515 196.269C608.077 199.71 612.702 200.601 612.702 200.601C612.702 200.601 613.174 195.914 610.612 192.473C608.051 189.033 603.425 188.141 603.425 188.141Z" fill="white"/>
<path d="M594.659 213.633C594.659 213.633 594.187 218.32 596.749 221.761C599.311 225.202 603.936 226.093 603.936 226.093C603.936 226.093 604.408 221.406 601.846 217.965C599.284 214.524 594.659 213.633 594.659 213.633Z" fill="white"/>
<path d="M617.925 222.887C617.925 222.887 617.453 227.574 620.015 231.015C622.577 234.456 627.202 235.347 627.202 235.347C627.202 235.347 627.674 230.66 625.112 227.219C622.55 223.779 617.925 222.887 617.925 222.887Z" fill="white"/>
<path d="M624.278 187.566C624.278 187.566 622.484 191.922 623.953 195.952C625.422 199.982 629.599 202.161 629.599 202.161C629.599 202.161 631.393 197.806 629.924 193.775C628.455 189.745 624.278 187.566 624.278 187.566Z" fill="white"/>
<path d="M607.812 281.556C607.812 281.556 612.523 281.642 615.742 278.807C618.961 275.972 619.471 271.289 619.471 271.289C619.471 271.289 614.761 271.203 611.542 274.038C608.322 276.874 607.812 281.556 607.812 281.556Z" fill="white"/>
<path d="M653 276.405C653 276.405 654.279 280.939 657.924 283.201C661.569 285.463 666.199 284.597 666.199 284.597C666.199 284.597 664.92 280.063 661.275 277.802C657.63 275.539 653 276.405 653 276.405Z" fill="white"/>
<path d="M613.065 164.641C613.065 164.641 612.593 169.328 615.155 172.769C617.717 176.21 622.342 177.101 622.342 177.101C622.342 177.101 622.814 172.414 620.252 168.973C617.69 165.532 613.065 164.641 613.065 164.641Z" fill="white"/>
<path d="M612.987 143.926C612.987 143.926 612.515 148.613 615.077 152.054C617.639 155.495 622.264 156.386 622.264 156.386C622.264 156.386 622.736 151.699 620.174 148.258C617.612 144.818 612.987 143.926 612.987 143.926Z" fill="white"/>
<path d="M509.215 230.943C509.215 260.981 491.445 285.333 469.526 285.333C447.606 285.333 429.836 260.982 429.836 230.943C429.836 200.904 447.605 97.6641 469.525 97.6641C491.445 97.6641 509.215 200.905 509.215 230.943Z" fill="#92E3A9"/>
<path opacity="0.3" d="M509.215 230.943C509.215 260.981 491.445 285.333 469.526 285.333C447.606 285.333 429.836 260.982 429.836 230.943C429.836 200.904 447.605 97.6641 469.525 97.6641C491.445 97.6641 509.215 200.905 509.215 230.943Z" fill="white"/>
<path d="M448.089 233.643L460.748 238.059L467.019 246.584L465.922 272.683L458.625 267.731L465.695 278.084L464.039 317.513H471.782L470.76 258.248L491.784 246.659L479.766 251.104L482.177 243.87L476.431 252.337L470.695 254.459L470.285 230.703L491.164 202.964L479.975 214.153L481.867 206.373L476.514 217.613L470.169 223.959L469.529 186.844L467.255 240.975L447.469 220.008L458.337 234.782L448.089 233.643Z" fill="#B2B2B2"/>
<path d="M491.362 186.961C491.362 186.961 491.729 190.607 489.736 193.284C487.743 195.961 484.144 196.654 484.144 196.654C484.144 196.654 483.777 193.008 485.77 190.331C487.763 187.655 491.362 186.961 491.362 186.961Z" fill="white"/>
<path d="M503.323 203.77C503.323 203.77 503.69 207.416 501.697 210.093C499.704 212.77 496.105 213.463 496.105 213.463C496.105 213.463 495.738 209.817 497.731 207.14C499.725 204.464 503.323 203.77 503.323 203.77Z" fill="white"/>
<path d="M503.318 236.493C503.318 236.493 502.436 240.05 499.658 241.9C496.88 243.75 493.258 243.192 493.258 243.192C493.258 243.192 494.14 239.635 496.918 237.785C499.696 235.935 503.318 236.493 503.318 236.493Z" fill="white"/>
<path d="M437.617 236.493C437.617 236.493 438.499 240.05 441.277 241.9C444.055 243.75 447.677 243.192 447.677 243.192C447.677 243.192 446.795 239.635 444.017 237.785C441.239 235.935 437.617 236.493 437.617 236.493Z" fill="white"/>
<path d="M489.495 222.906C489.495 222.906 489.862 226.552 487.869 229.229C485.876 231.906 482.277 232.6 482.277 232.6C482.277 232.6 481.91 228.954 483.903 226.277C485.897 223.6 489.495 222.906 489.495 222.906Z" fill="white"/>
<path d="M486.401 168.676C486.401 168.676 486.768 172.322 484.775 174.999C482.782 177.676 479.183 178.37 479.183 178.37C479.183 178.37 478.816 174.724 480.809 172.047C482.802 169.37 486.401 168.676 486.401 168.676Z" fill="white"/>
<path d="M479.276 182.621C479.276 182.621 479.643 186.267 477.65 188.944C475.657 191.621 472.058 192.315 472.058 192.315C472.058 192.315 471.691 188.669 473.684 185.992C475.678 183.314 479.276 182.621 479.276 182.621Z" fill="white"/>
<path d="M496.198 172.469C496.198 172.469 496.565 176.115 494.572 178.792C492.579 181.469 488.98 182.162 488.98 182.162C488.98 182.162 488.613 178.516 490.606 175.839C492.599 173.163 496.198 172.469 496.198 172.469Z" fill="white"/>
<path d="M441.206 172.469C441.206 172.469 440.839 176.115 442.832 178.792C444.825 181.469 448.424 182.162 448.424 182.162C448.424 182.162 448.791 178.516 446.798 175.839C444.804 173.163 441.206 172.469 441.206 172.469Z" fill="white"/>
<path d="M487.948 151.633C487.948 151.633 488.315 155.279 486.322 157.956C484.329 160.633 480.73 161.326 480.73 161.326C480.73 161.326 480.363 157.68 482.356 155.003C484.35 152.326 487.948 151.633 487.948 151.633Z" fill="white"/>
<path d="M484.448 133.527C484.448 133.527 485.719 136.964 484.463 140.056C483.206 143.148 479.897 144.723 479.897 144.723C479.897 144.723 478.626 141.286 479.882 138.194C481.14 135.103 484.448 133.527 484.448 133.527Z" fill="white"/>
<path d="M459.35 128.797C459.35 128.797 462.597 130.497 463.734 133.635C464.872 136.772 463.471 140.159 463.471 140.159C463.471 140.159 460.225 138.459 459.087 135.321C457.948 132.184 459.35 128.797 459.35 128.797Z" fill="white"/>
<path d="M471.053 150.445C471.053 150.445 473.366 153.288 473.174 156.62C472.982 159.952 470.359 162.511 470.359 162.511C470.359 162.511 468.046 159.668 468.238 156.336C468.43 153.005 471.053 150.445 471.053 150.445Z" fill="white"/>
<path d="M470.436 118.219C470.436 118.219 472.749 121.062 472.557 124.394C472.365 127.726 469.742 130.285 469.742 130.285C469.742 130.285 467.429 127.442 467.621 124.11C467.813 120.778 470.436 118.219 470.436 118.219Z" fill="white"/>
<path d="M444.167 186.961C444.167 186.961 443.8 190.607 445.793 193.284C447.786 195.961 451.385 196.654 451.385 196.654C451.385 196.654 451.752 193.008 449.759 190.331C447.766 187.655 444.167 186.961 444.167 186.961Z" fill="white"/>
<path d="M437.347 206.793C437.347 206.793 436.98 210.439 438.973 213.116C440.966 215.793 444.565 216.487 444.565 216.487C444.565 216.487 444.932 212.841 442.939 210.164C440.945 207.487 437.347 206.793 437.347 206.793Z" fill="white"/>
<path d="M455.441 213.996C455.441 213.996 455.074 217.642 457.067 220.319C459.06 222.996 462.659 223.689 462.659 223.689C462.659 223.689 463.026 220.043 461.033 217.366C459.039 214.689 455.441 213.996 455.441 213.996Z" fill="white"/>
<path d="M460.39 186.512C460.39 186.512 458.994 189.901 460.137 193.036C461.28 196.171 464.529 197.867 464.529 197.867C464.529 197.867 465.925 194.479 464.782 191.343C463.639 188.208 460.39 186.512 460.39 186.512Z" fill="white"/>
<path d="M447.578 259.641C447.578 259.641 451.242 259.708 453.747 257.502C456.251 255.296 456.648 251.653 456.648 251.653C456.648 251.653 452.984 251.586 450.479 253.792C447.974 255.997 447.578 259.641 447.578 259.641Z" fill="white"/>
<path d="M482.734 255.631C482.734 255.631 483.729 259.158 486.565 260.918C489.401 262.678 493.003 262.004 493.003 262.004C493.003 262.004 492.008 258.477 489.172 256.717C486.336 254.957 482.734 255.631 482.734 255.631Z" fill="white"/>
<path d="M451.667 168.676C451.667 168.676 451.3 172.322 453.293 174.999C455.286 177.676 458.885 178.37 458.885 178.37C458.885 178.37 459.252 174.724 457.259 172.047C455.266 169.37 451.667 168.676 451.667 168.676Z" fill="white"/>
<path d="M451.605 152.562C451.605 152.562 451.238 156.208 453.231 158.885C455.224 161.562 458.823 162.256 458.823 162.256C458.823 162.256 459.19 158.61 457.197 155.933C455.203 153.257 451.605 152.562 451.605 152.562Z" fill="white"/>
<path d="M189.923 248.799C189.923 288.199 166.616 320.139 137.864 320.139C109.113 320.139 85.8047 288.199 85.8047 248.799C85.8047 209.399 109.112 73.9844 137.864 73.9844C166.616 73.9844 189.923 209.399 189.923 248.799Z" fill="#92E3A9"/>
<path opacity="0.3" d="M189.923 248.799C189.923 288.199 166.616 320.139 137.864 320.139C109.113 320.139 85.8047 288.199 85.8047 248.799C85.8047 209.399 109.112 73.9844 137.864 73.9844C166.616 73.9844 189.923 209.399 189.923 248.799Z" fill="white"/>
<path d="M109.743 252.341L126.347 258.134L134.572 269.315L133.134 303.548L123.563 297.053L132.836 310.632L130.663 362.349H140.819L139.479 284.615L167.055 269.413L151.291 275.243L154.454 265.755L146.918 276.861L139.394 279.644L138.856 248.484L166.242 212.101L151.565 226.777L154.048 216.572L147.027 231.316L138.704 239.639L137.865 190.957L134.881 261.958L108.93 234.457L123.185 253.835L109.743 252.341Z" fill="#B2B2B2"/>
<path d="M166.502 191.109C166.502 191.109 166.983 195.892 164.369 199.403C161.755 202.914 157.035 203.824 157.035 203.824C157.035 203.824 156.553 199.041 159.168 195.53C161.782 192.019 166.502 191.109 166.502 191.109Z" fill="white"/>
<path d="M182.197 213.156C182.197 213.156 182.678 217.939 180.064 221.45C177.45 224.961 172.73 225.871 172.73 225.871C172.73 225.871 172.248 221.088 174.863 217.577C177.476 214.066 182.197 213.156 182.197 213.156Z" fill="white"/>
<path d="M182.186 256.077C182.186 256.077 181.03 260.743 177.386 263.169C173.743 265.595 168.992 264.863 168.992 264.863C168.992 264.863 170.149 260.197 173.792 257.771C177.435 255.344 182.186 256.077 182.186 256.077Z" fill="white"/>
<path d="M96.0156 256.077C96.0156 256.077 97.1726 260.743 100.816 263.169C104.46 265.595 109.211 264.863 109.211 264.863C109.211 264.863 108.054 260.197 104.411 257.771C100.767 255.344 96.0156 256.077 96.0156 256.077Z" fill="white"/>
<path d="M164.064 238.262C164.064 238.262 164.545 243.045 161.931 246.556C159.317 250.067 154.597 250.977 154.597 250.977C154.597 250.977 154.116 246.194 156.73 242.683C159.344 239.172 164.064 238.262 164.064 238.262Z" fill="white"/>
<path d="M160.002 167.129C160.002 167.129 160.484 171.912 157.869 175.423C155.255 178.934 150.535 179.844 150.535 179.844C150.535 179.844 150.053 175.061 152.668 171.55C155.282 168.039 160.002 167.129 160.002 167.129Z" fill="white"/>
<path d="M150.65 185.422C150.65 185.422 151.131 190.205 148.517 193.716C145.903 197.227 141.183 198.137 141.183 198.137C141.183 198.137 140.702 193.354 143.316 189.843C145.93 186.332 150.65 185.422 150.65 185.422Z" fill="white"/>
<path d="M172.846 172.102C172.846 172.102 173.328 176.885 170.713 180.396C168.099 183.907 163.379 184.817 163.379 184.817C163.379 184.817 162.898 180.034 165.512 176.523C168.126 173.011 172.846 172.102 172.846 172.102Z" fill="white"/>
<path d="M100.722 172.102C100.722 172.102 100.24 176.885 102.855 180.396C105.469 183.907 110.189 184.817 110.189 184.817C110.189 184.817 110.67 180.034 108.056 176.523C105.442 173.011 100.722 172.102 100.722 172.102Z" fill="white"/>
<path d="M162.033 144.773C162.033 144.773 162.514 149.556 159.9 153.067C157.286 156.578 152.566 157.488 152.566 157.488C152.566 157.488 152.085 152.705 154.699 149.194C157.313 145.683 162.033 144.773 162.033 144.773Z" fill="white"/>
<path d="M157.435 121.027C157.435 121.027 159.103 125.535 157.454 129.591C155.806 133.646 151.466 135.713 151.466 135.713C151.466 135.713 149.798 131.205 151.447 127.149C153.095 123.093 157.435 121.027 157.435 121.027Z" fill="white"/>
<path d="M124.516 114.82C124.516 114.82 128.774 117.05 130.267 121.166C131.76 125.281 129.921 129.723 129.921 129.723C129.921 129.723 125.663 127.493 124.17 123.377C122.678 119.262 124.516 114.82 124.516 114.82Z" fill="white"/>
<path d="M139.871 143.219C139.871 143.219 142.904 146.948 142.653 151.318C142.402 155.688 138.961 159.045 138.961 159.045C138.961 159.045 135.928 155.316 136.179 150.946C136.43 146.575 139.871 143.219 139.871 143.219Z" fill="white"/>
<path d="M139.058 100.945C139.058 100.945 142.091 104.674 141.84 109.044C141.589 113.414 138.148 116.771 138.148 116.771C138.148 116.771 135.115 113.042 135.366 108.672C135.617 104.302 139.058 100.945 139.058 100.945Z" fill="white"/>
<path d="M104.605 191.109C104.605 191.109 104.124 195.892 106.738 199.403C109.352 202.914 114.072 203.824 114.072 203.824C114.072 203.824 114.554 199.041 111.939 195.53C109.325 192.019 104.605 191.109 104.605 191.109Z" fill="white"/>
<path d="M95.6598 217.125C95.6598 217.125 95.1788 221.908 97.7928 225.419C100.407 228.93 105.127 229.84 105.127 229.84C105.127 229.84 105.609 225.057 102.994 221.546C100.38 218.035 95.6598 217.125 95.6598 217.125Z" fill="white"/>
<path d="M119.394 226.57C119.394 226.57 118.913 231.353 121.527 234.864C124.141 238.375 128.861 239.285 128.861 239.285C128.861 239.285 129.342 234.502 126.728 230.991C124.115 227.48 119.394 226.57 119.394 226.57Z" fill="white"/>
<path d="M125.89 190.523C125.89 190.523 124.059 194.968 125.559 199.08C127.058 203.193 131.32 205.416 131.32 205.416C131.32 205.416 133.151 200.971 131.652 196.859C130.152 192.746 125.89 190.523 125.89 190.523Z" fill="white"/>
<path d="M109.078 286.438C109.078 286.438 113.884 286.526 117.169 283.633C120.454 280.74 120.974 275.961 120.974 275.961C120.974 275.961 116.168 275.873 112.883 278.767C109.598 281.66 109.078 286.438 109.078 286.438Z" fill="white"/>
<path d="M155.195 281.182C155.195 281.182 156.501 285.808 160.22 288.116C163.939 290.424 168.664 289.54 168.664 289.54C168.664 289.54 167.359 284.914 163.639 282.606C159.92 280.298 155.195 281.182 155.195 281.182Z" fill="white"/>
<path d="M114.441 167.129C114.441 167.129 113.96 171.912 116.574 175.423C119.188 178.934 123.908 179.844 123.908 179.844C123.908 179.844 124.389 175.061 121.775 171.55C119.162 168.039 114.441 167.129 114.441 167.129Z" fill="white"/>
<path d="M114.355 145.992C114.355 145.992 113.873 150.775 116.488 154.286C119.102 157.797 123.822 158.707 123.822 158.707C123.822 158.707 124.304 153.924 121.689 150.413C119.075 146.902 114.355 145.992 114.355 145.992Z" fill="white"/>
<path d="M317.574 234.683C317.574 264.727 299.801 289.083 277.877 289.083C255.953 289.083 238.18 264.727 238.18 234.683C238.18 204.639 255.953 101.379 277.877 101.379C299.801 101.379 317.574 204.639 317.574 234.683Z" fill="#92E3A9"/>
<path opacity="0.3" d="M317.574 234.683C317.574 264.727 299.801 289.083 277.877 289.083C255.953 289.083 238.18 264.727 238.18 234.683C238.18 204.639 255.953 101.379 277.877 101.379C299.801 101.379 317.574 204.639 317.574 234.683Z" fill="white"/>
<path d="M256.432 237.382L269.094 241.799L275.366 250.325L274.27 276.429L266.97 271.477L274.043 281.832L272.385 321.268H280.13L279.108 261.992L300.135 250.4L288.115 254.846L290.526 247.611L284.78 256.079L279.043 258.202L278.633 234.441L299.516 206.697L288.324 217.888L290.216 210.107L284.863 221.349L278.517 227.696L277.876 190.574L275.602 244.715L255.812 223.744L266.682 238.521L256.432 237.382Z" fill="#B2B2B2"/>
<path d="M299.722 190.691C299.722 190.691 300.089 194.338 298.096 197.015C296.103 199.692 292.503 200.386 292.503 200.386C292.503 200.386 292.136 196.739 294.129 194.062C296.123 191.385 299.722 190.691 299.722 190.691Z" fill="white"/>
<path d="M311.683 207.504C311.683 207.504 312.05 211.151 310.057 213.829C308.064 216.506 304.464 217.2 304.464 217.2C304.464 217.2 304.097 213.553 306.09 210.876C308.084 208.197 311.683 207.504 311.683 207.504Z" fill="white"/>
<path d="M311.678 240.231C311.678 240.231 310.796 243.789 308.018 245.639C305.24 247.489 301.617 246.931 301.617 246.931C301.617 246.931 302.499 243.373 305.277 241.523C308.056 239.673 311.678 240.231 311.678 240.231Z" fill="white"/>
<path d="M245.969 240.231C245.969 240.231 246.851 243.789 249.629 245.639C252.408 247.489 256.03 246.931 256.03 246.931C256.03 246.931 255.148 243.373 252.369 241.523C249.592 239.673 245.969 240.231 245.969 240.231Z" fill="white"/>
<path d="M297.863 226.648C297.863 226.648 298.23 230.295 296.237 232.972C294.244 235.649 290.644 236.343 290.644 236.343C290.644 236.343 290.277 232.696 292.27 230.019C294.263 227.342 297.863 226.648 297.863 226.648Z" fill="white"/>
<path d="M294.761 172.406C294.761 172.406 295.128 176.053 293.135 178.73C291.141 181.408 287.542 182.101 287.542 182.101C287.542 182.101 287.175 178.454 289.168 175.777C291.161 173.1 294.761 172.406 294.761 172.406Z" fill="white"/>
<path d="M287.636 186.352C287.636 186.352 288.003 189.999 286.01 192.677C284.016 195.354 280.417 196.048 280.417 196.048C280.417 196.048 280.05 192.401 282.043 189.724C284.037 187.046 287.636 186.352 287.636 186.352Z" fill="white"/>
<path d="M304.558 176.199C304.558 176.199 304.925 179.846 302.932 182.523C300.939 185.2 297.339 185.894 297.339 185.894C297.339 185.894 296.972 182.247 298.965 179.57C300.958 176.892 304.558 176.199 304.558 176.199Z" fill="white"/>
<path d="M249.558 176.199C249.558 176.199 249.191 179.846 251.184 182.523C253.177 185.2 256.777 185.894 256.777 185.894C256.777 185.894 257.144 182.247 255.151 179.57C253.157 176.892 249.558 176.199 249.558 176.199Z" fill="white"/>
<path d="M296.308 155.359C296.308 155.359 296.675 159.006 294.682 161.683C292.689 164.36 289.089 165.054 289.089 165.054C289.089 165.054 288.722 161.407 290.715 158.729C292.709 156.052 296.308 155.359 296.308 155.359Z" fill="white"/>
<path d="M292.808 137.25C292.808 137.25 294.08 140.688 292.823 143.78C291.566 146.872 288.257 148.448 288.257 148.448C288.257 148.448 286.985 145.01 288.242 141.918C289.499 138.826 292.808 137.25 292.808 137.25Z" fill="white"/>
<path d="M267.702 132.516C267.702 132.516 270.949 134.217 272.087 137.355C273.225 140.493 271.823 143.88 271.823 143.88C271.823 143.88 268.576 142.179 267.438 139.041C266.3 135.903 267.702 132.516 267.702 132.516Z" fill="white"/>
<path d="M279.412 154.172C279.412 154.172 281.725 157.016 281.533 160.348C281.341 163.68 278.718 166.24 278.718 166.24C278.718 166.24 276.405 163.396 276.597 160.064C276.788 156.732 279.412 154.172 279.412 154.172Z" fill="white"/>
<path d="M278.788 121.938C278.788 121.938 281.101 124.78 280.909 128.113C280.717 131.446 278.093 134.006 278.093 134.006C278.093 134.006 275.78 131.163 275.972 127.83C276.164 124.497 278.788 121.938 278.788 121.938Z" fill="white"/>
<path d="M252.519 190.691C252.519 190.691 252.152 194.338 254.145 197.015C256.138 199.692 259.738 200.386 259.738 200.386C259.738 200.386 260.105 196.739 258.112 194.062C256.118 191.385 252.519 190.691 252.519 190.691Z" fill="white"/>
<path d="M245.698 210.531C245.698 210.531 245.331 214.178 247.324 216.855C249.318 219.532 252.917 220.226 252.917 220.226C252.917 220.226 253.284 216.579 251.291 213.901C249.297 211.225 245.698 210.531 245.698 210.531Z" fill="white"/>
<path d="M263.8 217.73C263.8 217.73 263.433 221.377 265.426 224.055C267.419 226.732 271.019 227.426 271.019 227.426C271.019 227.426 271.386 223.779 269.393 221.102C267.399 218.424 263.8 217.73 263.8 217.73Z" fill="white"/>
<path d="M268.75 190.246C268.75 190.246 267.354 193.635 268.497 196.771C269.64 199.907 272.89 201.603 272.89 201.603C272.89 201.603 274.286 198.214 273.143 195.078C272 191.942 268.75 190.246 268.75 190.246Z" fill="white"/>
<path d="M255.93 263.384C255.93 263.384 259.595 263.451 262.1 261.245C264.605 259.039 265.001 255.395 265.001 255.395C265.001 255.395 261.336 255.328 258.831 257.534C256.327 259.739 255.93 263.384 255.93 263.384Z" fill="white"/>
<path d="M291.094 259.377C291.094 259.377 292.09 262.905 294.926 264.665C297.762 266.425 301.365 265.751 301.365 265.751C301.365 265.751 300.369 262.223 297.533 260.463C294.697 258.703 291.094 259.377 291.094 259.377Z" fill="white"/>
<path d="M260.019 172.406C260.019 172.406 259.652 176.053 261.645 178.73C263.639 181.408 267.238 182.101 267.238 182.101C267.238 182.101 267.605 178.454 265.612 175.777C263.618 173.1 260.019 172.406 260.019 172.406Z" fill="white"/>
<path d="M259.956 156.289C259.956 156.289 259.589 159.936 261.582 162.613C263.576 165.29 267.175 165.984 267.175 165.984C267.175 165.984 267.542 162.337 265.549 159.659C263.555 156.982 259.956 156.289 259.956 156.289Z" fill="white"/>
<path d="M307.041 305.306C178.873 323.061 71.5979 378.567 0.296875 454.72V499.539H750.057V420.774C639.928 329.53 475.65 281.949 307.041 305.306Z" fill="#92E3A9" stroke="#263238" stroke-miterlimit="10"/>
<path d="M197.43 499.539L190.163 477.652L158.766 474.578L138.633 489.43C138.633 489.43 128.461 496.407 123.166 498.996C122.814 499.168 122.388 499.35 121.906 499.54H197.43V499.539Z" fill="white" stroke="#263238" stroke-miterlimit="10"/>
<path d="M199.056 497.503L191.788 475.616L160.391 472.543L140.258 487.395C140.258 487.395 130.086 494.372 124.791 496.961C124.439 497.133 124.013 497.315 123.531 497.505H199.056V497.503Z" fill="white" stroke="#263238" stroke-miterlimit="10"/>
<path d="M129.302 458.015L124.868 474.404L144.3 471.712L169.683 433.863L169.755 419.006L201.339 412.775L206.822 400.88L239.341 393.592L239.203 377.837L262.997 373.613C262.997 373.613 278.463 364.047 281.893 363.572C285.322 363.097 302.373 365.375 302.373 365.375L322.038 373.786L346.043 370.461L364.308 357.724L391.017 355.879C391.017 355.879 398.715 358.524 404.43 357.733C410.146 356.941 425.822 348.274 425.822 348.274L462.748 359.861L478.354 366.051L481.502 379.532L499.067 378.955L502.893 370.075L519.012 373.409L519.548 380.758L486.936 392.699L510.985 409.782L556.333 422.059L577.676 437.661L603.243 435.975L606.86 426.195L615.585 423.131L581.668 409.27L562.96 410.006L576.98 404.352L559.696 390.973L578.918 387.381L606.584 394.684L617.336 415.465L632.638 425.408L649.011 450.049L677.517 460.947L684.443 490.609L713.88 500.45L714.179 503.023H741.549L721.02 485.543L710.152 459.211L731.356 459.057L730.402 449.91L715.331 451.069L726.856 444.833L739.102 436.641L737.004 427.652L719.93 415.17L712.484 396.232C604.339 323.562 457.42 287.958 307.044 308.789C238.686 318.258 176.291 338.488 122.105 366.84L151.891 377.87L139.667 396.265L118.787 402.869L122.168 427.455L113.653 431.418L104.531 442.889L109.452 458.91L129.302 458.015Z" fill="white" stroke="#263238" stroke-miterlimit="10"/>
<path d="M129.302 454.534L124.868 470.923L144.3 468.231L169.683 430.382L169.755 415.525L201.339 409.294L206.822 397.399L239.341 390.111L239.203 374.356L262.997 370.131C262.997 370.131 278.463 360.565 281.893 360.09C285.322 359.615 302.373 361.892 302.373 361.892L322.038 370.303L346.043 366.978L364.308 354.241L391.017 352.396C391.017 352.396 398.715 355.041 404.43 354.25C410.146 353.458 425.822 344.792 425.822 344.792L462.748 356.379L478.354 362.569L481.502 376.05L499.067 375.472L502.893 366.592L519.012 369.926L519.548 377.275L486.936 389.216L510.985 406.299L556.333 418.576L577.676 434.178L603.243 432.492L606.86 422.712L615.585 419.648L581.668 405.787L562.96 406.523L576.98 400.869L559.696 387.49L578.918 383.898L606.584 391.2L617.336 411.981L632.638 421.924L649.011 446.565L677.517 457.463L684.443 487.125L713.88 496.966L714.179 499.539H741.549L721.02 482.059L710.152 455.727L731.356 455.573L730.402 446.426L715.331 447.585L726.856 441.349L739.102 433.157L737.004 424.168L719.93 411.686L712.484 392.748C604.339 320.078 457.42 284.474 307.044 305.305C238.686 314.774 176.291 335.004 122.105 363.356L151.891 374.386L139.667 392.781L118.787 399.385L122.168 423.971L113.653 427.934L104.531 439.405L109.452 455.426L129.302 454.534Z" fill="white" stroke="#263238" stroke-miterlimit="10"/>
<path d="M355.481 498.364L366.353 479.227L386.647 490.335L406.19 499.54H499.528L495.049 484.597L502.912 467.733L486.56 453.296L405.033 437.68L372.095 443.171L368.081 461.357L351.636 451.572L327.539 459.551L332.178 489.529L355.481 498.364Z" fill="white" stroke="#263238" stroke-miterlimit="10"/>
<path d="M355.17 495.871L366.042 476.734L386.336 487.842L405.878 497.048H499.216L494.737 482.104L502.6 465.242L486.249 450.803L404.721 435.188L371.783 440.678L367.77 458.866L351.324 449.081L327.227 457.059L331.867 487.036L355.17 495.871Z" fill="white" stroke="#263238" stroke-miterlimit="10"/>
<path d="M552.895 464.521L534.91 463.301L522.359 475.247L536.447 500.204L551.307 498.146L552.895 464.521Z" fill="white" stroke="#263238" stroke-miterlimit="10"/>
<path d="M552.895 461.716L534.91 460.496L522.359 472.442L536.447 497.399L551.307 495.34L552.895 461.716Z" fill="white" stroke="#263238" stroke-miterlimit="10"/>
<path d="M663.192 466.871L620.551 456.075L610.031 446.398L601.516 450.362L613.716 467.229L626.03 489.649L644.435 492.666L647.024 488.597L633.59 476.539L665.407 481.411L663.192 466.871Z" fill="white" stroke="#263238" stroke-miterlimit="10"/>
<path d="M663.192 464.692L620.551 453.896L610.031 444.219L601.516 448.183L613.716 465.05L626.03 487.47L644.435 490.487L647.024 486.418L633.59 474.36L665.407 479.232L663.192 464.692Z" fill="white" stroke="#263238" stroke-miterlimit="10"/>
<path d="M477.957 299.88C477.957 299.88 475.152 310.433 474.885 311.101C474.618 311.769 466.069 318.982 465.267 319.65C464.466 320.318 463.263 323.257 464.599 324.86C465.935 326.463 471.144 326.596 475.152 326.73C479.159 326.864 484.903 324.726 486.64 324.192C488.377 323.658 490.915 323.925 492.25 321.921C493.586 319.917 493.719 317.246 493.586 315.509C493.452 313.773 493.052 310.567 493.319 309.498C493.586 308.429 494.388 302.552 494.388 302.552C494.388 302.552 482.499 296.407 477.957 299.88Z" fill="#263238" stroke="#263238" stroke-miterlimit="10"/>
<path d="M486.638 324.191C488.375 323.657 490.913 323.924 492.248 321.92C492.892 320.953 493.253 319.831 493.442 318.734C490.754 319.062 486.313 321.277 483.031 322.722C479.691 324.191 477.02 322.856 472.211 322.856C468.135 322.856 464.932 322.473 464.048 322.356C463.922 323.247 464.027 324.175 464.597 324.86C465.933 326.463 471.142 326.597 475.15 326.73C479.157 326.863 484.901 324.726 486.638 324.191Z" fill="white" stroke="#263238" stroke-miterlimit="10"/>
<path d="M500.001 194.485L487.979 252.325L478.361 295.204C478.361 295.204 476.491 296.807 476.892 297.475C477.293 298.143 477.961 299.88 477.961 299.88C477.961 299.88 483.304 300.281 483.972 300.414C484.64 300.547 489.716 303.219 491.052 304.154C492.388 305.089 495.594 303.887 496.128 302.818C496.662 301.749 495.594 297.341 495.594 297.341L495.861 291.998L506.147 253.794L524.982 212.117L528.989 212.785L539.809 252.725L564.521 252.324L555.037 196.354L501.338 189.141L500.001 194.485Z" fill="#263238" stroke="#263238" stroke-miterlimit="10"/>
<path d="M543.212 112.817C543.212 112.817 517.78 111.464 513.722 113.223C509.664 114.982 485.585 131.756 484.232 133.649C482.879 135.543 481.527 138.248 481.932 140.142C482.338 142.036 484.232 148.123 484.232 148.123L496.407 144.606L495.866 140.412C495.866 140.412 498.166 141.9 499.654 141.359C501.142 140.818 514.805 136.354 514.805 136.354L508.988 168.143L498.166 191.41C498.166 191.41 497.76 195.468 501.142 200.068C504.524 204.667 511.693 209.537 511.693 209.537L520.621 201.015L523.868 214.001C523.868 214.001 539.289 212.513 545.647 208.319C552.005 204.126 556.875 197.903 556.875 197.903L552.817 177.882L560.257 162.596L561.475 185.457L559.311 206.83L571.215 208.589C571.215 208.589 575.95 189.651 576.355 186.81C576.761 183.969 580.413 152.721 578.655 145.552C576.897 138.382 572.973 133.242 569.456 130.266C565.939 127.29 565.939 127.29 565.939 127.29L543.212 112.817Z" fill="#92E3A9" stroke="#263238" stroke-miterlimit="10"/>
<path d="M550.313 178.055C550.313 178.055 539.071 186.327 524.648 188.024" stroke="#263238" stroke-miterlimit="10"/>
<path d="M546.501 176.57C546.501 176.57 543.744 179.327 532.078 181.661" stroke="#263238" stroke-miterlimit="10"/>
<path d="M546.46 112.818C546.46 112.818 544.025 111.736 541.996 113.359C539.967 114.982 533.203 131.486 533.203 131.486L539.561 132.162L538.208 136.22L543.619 144.607L557.146 140.413L557.958 137.302C557.958 137.302 563.098 142.984 563.639 142.037C564.18 141.09 564.451 128.239 564.451 128.239C564.451 128.239 566.886 124.181 562.692 118.364C558.499 112.548 546.46 112.818 546.46 112.818Z" stroke="#263238" stroke-miterlimit="10"/>
<path d="M547.261 109.907C547.261 109.907 546.183 107.031 545.032 109.19C543.881 111.349 544.6 114.802 544.6 114.802C544.6 114.802 542.154 117.248 540.859 122.429C539.564 127.609 543.881 136.963 544.312 137.826C544.744 138.689 544.744 143.15 544.744 143.15L553.666 135.523C553.666 135.523 555.537 136.674 558.127 135.091C560.717 133.508 565.034 130.63 567.192 127.464C569.351 124.298 574.387 115.664 574.387 115.664L555.105 106.023L547.261 109.907Z" fill="#B97A5B" stroke="#263238" stroke-miterlimit="10"/>
<path d="M547.258 109.907L549.057 113.325C549.057 113.325 547.618 116.743 548.337 116.923C549.057 117.103 550.855 115.124 550.855 115.124C550.855 115.124 552.474 115.124 553.014 114.404C553.554 113.684 554.453 111.885 554.453 111.885C554.453 111.885 560.569 112.425 562.368 113.324C564.167 114.224 566.865 117.102 570.283 117.462C573.701 117.822 576.579 117.462 578.018 114.584C579.457 111.706 578.738 107.748 578.738 107.748C578.738 107.748 578.018 100.552 575.32 98.3942C572.622 96.2352 571.362 96.9552 571.362 96.9552C571.362 96.9552 565.965 92.2782 563.627 92.4582C561.288 92.6382 560.569 94.6172 560.569 94.6172C560.569 94.6172 558.95 94.0772 554.812 95.5162C550.674 96.9552 549.415 101.992 549.235 103.791C549.057 105.59 547.258 109.907 547.258 109.907Z" fill="#263238" stroke="#263238" stroke-miterlimit="10"/>
<path d="M553.664 121.71C554.328 120.239 558.808 122.66 560.859 125.02" stroke="#263238" stroke-miterlimit="10"/>
<path d="M564.031 125.164C564.031 125.164 567.341 124.445 568.924 124.876" stroke="#263238" stroke-miterlimit="10"/>
<path d="M555.25 124.012C555.25 124.012 555.969 126.171 558.416 125.595" stroke="#263238" stroke-miterlimit="10"/>
<path d="M557.547 129.769C558.123 130.92 560.713 132.647 561.72 131.64C562.727 130.633 563.015 126.891 563.015 126.891" stroke="#263238" stroke-miterlimit="10"/>
<path d="M553.234 128.039C553.234 128.039 553.666 132.212 558.27 131.636" stroke="#263238" stroke-miterlimit="10"/>
<path d="M564.312 126.172C564.312 126.172 565.032 128.187 567.334 126.46" stroke="#263238" stroke-miterlimit="10"/>
<path d="M545.32 115.953L546.471 116.816C546.471 116.816 546.039 120.557 546.039 123.004C546.039 125.45 548.917 130.918 549.78 132.789C550.643 134.66 553.665 135.523 553.665 135.523" stroke="#263238" stroke-miterlimit="10"/>
<path d="M549.78 132.789L546.758 134.516" stroke="#263238" stroke-miterlimit="10"/>
<path d="M514.805 136.353C514.805 136.353 517.646 130.942 517.646 125.531" stroke="#263238" stroke-miterlimit="10"/>
<path d="M559.984 163.816C559.984 163.816 564.177 158.134 565.124 152.047" stroke="#263238" stroke-miterlimit="10"/>
<path d="M496.41 144.607L502.633 158.811C502.633 158.811 507.638 162.193 508.044 162.599C508.45 163.005 509.803 166.251 509.397 167.198C508.991 168.145 507.638 163.951 506.691 164.493C505.744 165.034 504.932 166.522 505.068 167.334C505.203 168.146 509.262 175.856 508.856 176.127C508.45 176.397 507.639 176.803 506.556 176.533C505.474 176.263 505.474 175.992 504.797 175.992C504.121 175.992 501.686 175.992 500.603 175.721C499.521 175.45 497.356 172.61 496.815 171.663C496.274 170.716 495.462 162.6 495.462 162.6L484.234 148.126C484.236 148.124 490.729 142.577 496.41 144.607Z" fill="#B97A5B" stroke="#263238" stroke-miterlimit="10"/>
<path d="M501.141 167.875C501.141 167.875 503.846 172.61 504.252 173.692C504.658 174.774 504.793 175.992 504.793 175.992" stroke="#263238" stroke-miterlimit="10"/>
<path d="M498.438 170.445C498.438 170.445 500.602 174.097 502.902 175.585" stroke="#263238" stroke-miterlimit="10"/>
<path d="M515.681 182.354L513.484 183.371L541.512 243.88L543.708 242.863L515.681 182.354Z" fill="white" stroke="#263238" stroke-miterlimit="10"/>
<path d="M512.745 183.718L504.686 167.048C504.196 166.034 504.632 164.814 505.654 164.34C506.653 163.877 507.838 164.301 508.317 165.292L516.405 182.022L512.745 183.718Z" fill="#263238" stroke="#263238" stroke-miterlimit="10"/>
<path d="M557.033 235.493C557.033 235.493 542.473 244.309 537.263 249.92C532.053 255.53 516.558 273.296 513.886 276.102C511.215 278.907 506.272 285.72 504.803 287.055C503.334 288.391 501.196 288.257 501.864 291.463C502.532 294.669 502.933 294.936 502.933 295.738C502.933 296.539 502.799 299.211 502.799 299.211C502.799 299.211 496.521 305.756 495.719 307.626C494.918 309.496 495.719 313.236 496.654 315.24C497.589 317.244 499.459 318.579 499.459 318.98C499.459 319.381 497.856 324.858 497.455 326.327C497.054 327.796 498.256 331.27 498.256 331.27C498.256 331.27 495.184 335.812 497.321 337.949C499.458 340.086 503.332 340.487 504 339.953C504.668 339.419 550.753 337.549 554.359 336.079C557.966 334.61 561.172 333.14 563.843 329.934C566.515 326.728 568.919 325.125 568.919 325.125C568.919 325.125 571.323 322.854 571.323 320.583C571.323 318.312 571.056 317.778 571.19 317.11C571.323 316.442 572.392 315.106 572.392 315.106L573.327 311.633C573.327 311.633 572.526 312.434 573.995 304.687C575.464 296.939 575.732 294.936 575.732 294.936L575.465 289.994L574.931 284.918C574.931 284.918 570.389 262.343 567.985 256.466C565.581 250.588 564.245 246.715 563.978 245.913C563.711 245.112 563.577 241.104 563.577 241.104C563.577 241.104 565.982 236.963 565.581 236.028C565.182 235.092 558.235 233.622 557.033 235.493Z" fill="#9C9C9C" stroke="#263238" stroke-miterlimit="10"/>
<path d="M559.31 206.832L558.468 220.996C558.468 220.996 555.611 230.438 555.859 232.177C556.108 233.916 558.965 238.389 558.965 238.389C558.965 238.389 559.835 240.75 560.58 239.88C561.325 239.01 561.947 238.513 561.574 237.023C561.201 235.532 561.201 235.532 561.201 235.532C561.201 235.532 563.81 236.277 563.934 237.396C564.058 238.514 563.313 241.744 564.183 241.993C565.053 242.241 567.91 236.402 568.158 235.657C568.407 234.912 566.17 231.681 565.673 230.563C565.176 229.445 563.188 226.96 563.188 226.215C563.188 225.47 571.213 208.592 571.213 208.592L559.31 206.832Z" fill="#B97A5B" stroke="#263238" stroke-miterlimit="10"/>
<path d="M561.201 235.53L559.461 231.555" stroke="#263238" stroke-miterlimit="10"/>
<path d="M550.759 252.059C550.759 252.059 549.557 256.066 549.557 256.734C549.557 257.402 548.755 260.608 548.755 260.608L547.953 262.077C547.953 262.077 545.148 264.348 545.148 265.684C545.148 267.02 545.816 270.092 545.816 270.092C545.816 270.092 552.896 272.096 553.831 272.096C554.766 272.096 555.835 270.76 555.835 270.76C555.835 270.76 556.636 272.229 557.572 272.229C558.507 272.229 559.709 271.695 559.843 272.229C559.977 272.763 560.377 273.832 560.377 273.832C560.377 273.832 562.114 271.427 562.648 270.225C563.182 269.023 564.385 269.557 563.45 267.286C562.515 265.015 561.847 264.481 561.446 264.08C561.045 263.679 562.247 263.946 561.045 263.679C559.843 263.412 559.308 263.145 558.373 262.744C557.438 262.343 556.102 261.542 556.102 261.542L555.568 259.405C555.568 259.405 555.969 257.268 555.969 256.733C555.969 256.198 555.568 255.13 555.568 255.13L554.232 254.195L550.759 252.059Z" fill="white" stroke="#263238" stroke-miterlimit="10"/>
<path d="M554.228 255.664C554.228 255.664 552.625 261.274 552.358 261.809C552.091 262.343 555.698 266.484 556.098 266.484C556.499 266.484 559.705 265.549 560.239 265.95C560.773 266.351 561.842 268.221 561.842 268.622" stroke="#263238" stroke-miterlimit="10"/>
<path d="M553.026 267.418C552.358 266.884 550.889 266.75 549.419 264.613C547.95 262.476 547.415 260.606 547.549 259.136C547.683 257.667 547.683 257.667 547.683 257.667L550.355 255.797C550.355 255.797 550.489 255.797 550.221 254.461C549.954 253.125 549.367 253.195 549.367 253.195L544.427 242.531L540.766 244.227L545.706 254.891C545.706 254.891 544.477 259.537 545.545 263.01C546.614 266.483 551.022 268.888 551.823 268.888C552.625 268.887 553.694 267.952 553.026 267.418Z" fill="#263238" stroke="#263238" stroke-miterlimit="10"/>
<path d="M557.691 239.211L551.453 248.483" stroke="#263238" stroke-miterlimit="10"/>
<path d="M558.706 242.75L558.031 256.237" stroke="#263238" stroke-miterlimit="10"/>
<path d="M529.836 301.578C532.815 302.484 535.811 303.645 538.644 305.129" stroke="#263238" stroke-miterlimit="10"/>
<path d="M506.273 298.387C506.273 298.387 514.776 298.072 524.68 300.24" stroke="#263238" stroke-miterlimit="10"/>
<path d="M530.047 298.891C530.047 298.891 544.377 303.612 551.458 309.681" stroke="#263238" stroke-miterlimit="10"/>
<path d="M499.359 317.1C499.359 317.1 501.551 311.537 506.44 307.828" stroke="#263238" stroke-miterlimit="10"/>
<path d="M508.3 304.117C508.3 304.117 503.748 306.983 502.062 309.343" stroke="#263238" stroke-miterlimit="10"/>
<path d="M519.805 277.266C518.74 278.401 517.807 279.393 517.062 280.18" stroke="#263238" stroke-miterlimit="10"/>
<path d="M540.832 254.723C540.832 254.723 530.026 266.345 522.445 274.446" stroke="#263238" stroke-miterlimit="10"/>
<path d="M572.414 294.137C572.443 298.403 571.688 302.43 571.688 302.43" stroke="#263238" stroke-miterlimit="10"/>
<path d="M563.766 258.43C563.766 258.43 570.51 283.549 571.858 288.944C571.932 289.239 571.997 289.542 572.054 289.851" stroke="#263238" stroke-miterlimit="10"/>
<path d="M557.242 284.891C560.008 285.486 560.897 286.583 560.897 286.583" stroke="#263238" stroke-miterlimit="10"/>
<path d="M521.281 285.74C521.281 285.74 535.105 287.426 546.569 285.234C549.035 284.763 551.103 284.556 552.831 284.523" stroke="#263238" stroke-miterlimit="10"/>
<path d="M549.77 281.355C549.77 281.355 540.329 282.367 536.789 283.041" stroke="#263238" stroke-miterlimit="10"/>
<path d="M273.946 230.293C273.946 230.293 266.169 237.889 267.073 240.964C267.977 244.039 285.702 266.646 285.702 266.646C285.702 266.646 288.234 271.529 289.862 274.061C291.49 276.593 295.469 279.306 296.735 278.763C298.001 278.22 303.246 273.337 303.969 272.252C304.693 271.167 300.352 268.092 298.362 267.007C296.372 265.922 289.861 262.305 288.053 257.783C286.244 253.261 280.638 242.952 280.638 242.952L283.894 232.462L273.946 230.293Z" fill="#B97A5B" stroke="#263238" stroke-miterlimit="10"/>
<path d="M296.738 278.765C298.004 278.222 303.249 273.339 303.972 272.254C304.696 271.169 300.355 268.094 298.365 267.009C296.713 266.108 291.95 263.457 289.344 259.996L284.469 265.063C285.242 266.057 285.705 266.648 285.705 266.648C285.705 266.648 288.237 271.531 289.865 274.063C291.493 276.595 295.472 279.308 296.738 278.765Z" fill="#92E3A9" stroke="#263238" stroke-miterlimit="10"/>
<path d="M297.823 270.627C297.823 270.627 293.301 276.234 293.121 278.223C292.94 280.213 291.855 288.17 291.855 288.17C291.855 288.17 284.078 298.841 284.078 301.554C284.078 304.267 291.132 310.597 295.834 314.214C300.536 317.831 320.793 321.268 323.687 321.268C326.581 321.268 347.742 319.64 349.369 317.651C350.997 315.661 351.359 310.055 349.369 305.172C347.379 300.289 334.176 289.075 333.091 287.99C332.006 286.905 329.112 275.872 326.218 273.34C323.324 270.808 310.664 270.265 308.674 270.446C306.685 270.627 299.451 270.446 297.823 270.627Z" fill="#9C9C9C" stroke="#263238" stroke-miterlimit="10"/>
<path d="M333.859 314.268C341.009 317.531 343.475 318.712 345.204 316.736C347.234 314.416 347.089 312.242 347.089 312.242" stroke="#263238" stroke-miterlimit="10"/>
<path d="M297.794 273.238C297.794 273.238 295.039 282.082 296.199 288.171C297.359 294.26 319.251 307.743 329.69 312.383C330.013 312.526 330.329 312.668 330.638 312.806" stroke="#263238" stroke-miterlimit="10"/>
<path d="M328.406 293.844C330.255 296.327 331.718 298.178 331.718 298.178" stroke="#263238" stroke-miterlimit="10"/>
<path d="M308.961 273.238C308.961 273.238 320.414 282.082 323.604 287.011C324.611 288.567 325.791 290.253 326.935 291.832" stroke="#263238" stroke-miterlimit="10"/>
<path d="M305.766 273.676C305.766 273.676 310.985 280.78 312.87 286.869" stroke="#263238" stroke-miterlimit="10"/>
<path d="M292.435 289.188C292.435 289.188 290.985 294.841 296.205 297.886" stroke="#263238" stroke-miterlimit="10"/>
<path d="M294.564 266.466L300.171 265.742C300.171 265.742 304.149 269.54 305.053 269.902C305.957 270.264 307.224 271.892 305.958 272.434C304.692 272.977 300.351 270.083 300.351 270.083C300.351 270.083 297.819 270.987 296.191 270.807C294.563 270.626 294.562 270.626 294.562 270.626" fill="#92E3A9"/>
<path d="M294.564 266.466L300.171 265.742C300.171 265.742 304.149 269.54 305.053 269.902C305.957 270.264 307.224 271.892 305.958 272.434C304.692 272.977 300.351 270.083 300.351 270.083C300.351 270.083 297.819 270.987 296.191 270.807C294.563 270.626 294.562 270.626 294.562 270.626" stroke="#263238" stroke-miterlimit="10"/>
<path d="M302.703 202.284C302.703 202.284 292.896 197.669 276.021 191.179C259.147 184.689 246.31 182.814 232.032 186.275C217.754 189.736 207.369 197.525 207.946 211.226C208.523 224.928 223.09 263.003 222.08 265.455C221.07 267.907 211.696 276.416 208.955 285.791C206.215 295.166 202.609 317.954 202.176 319.684C201.743 321.415 198.715 320.549 198.426 325.165C198.138 329.78 196.984 334.684 196.984 335.982C196.984 337.28 205.926 338.29 212.993 339.011C220.06 339.732 226.406 339.588 228.425 337.857C230.444 336.126 230.3 334.396 229.002 333.819C227.704 333.242 224.387 331.079 221.935 327.762C219.483 324.445 216.022 322.426 215.589 320.262C215.156 318.099 216.599 312.33 216.599 312.33C216.599 312.33 224.82 291.273 228.714 284.927C232.608 278.581 239.531 274.254 240.685 267.331C241.839 260.408 241.55 250.745 241.55 250.745C241.55 250.745 248.906 266.898 249.482 269.927C250.059 272.956 245.444 277.283 247.463 288.965C249.482 300.647 252.222 319.83 252.511 320.695C252.799 321.561 250.78 321.272 250.924 324.012C251.068 326.752 250.059 334.829 250.78 335.262C251.501 335.695 259.289 336.127 262.318 335.406C265.347 334.686 272.27 333.82 274.433 334.396C276.596 334.972 283.808 335.261 285.538 333.963C287.269 332.665 287.269 328.771 286.692 328.771C286.115 328.771 282.509 327.761 278.76 325.454C275.01 323.146 267.655 321.272 266.356 319.541C265.058 317.81 264.625 316.945 264.625 316.224C264.625 315.503 265.346 296.465 264.769 291.561C264.192 286.657 265.346 273.244 265.346 269.783C265.346 266.322 267.221 262.716 266.067 256.514C264.913 250.312 260.154 233.438 259 229.832C257.846 226.226 255.971 221.034 255.971 221.034C255.971 221.034 260.442 226.947 266.644 229.976C272.846 233.005 278.038 233.726 278.038 233.726L291.018 244.11L294.191 234.591L294.768 230.985C294.768 230.985 296.787 229.254 298.374 227.379C299.961 225.504 302.124 223.773 303.422 221.321C304.722 218.87 302.703 202.284 302.703 202.284Z" fill="#B97A5B" stroke="#263238" stroke-miterlimit="10"/>
<path d="M264.774 291.561C264.197 286.657 265.351 273.244 265.351 269.783C265.351 266.322 267.226 262.716 266.072 256.514C264.918 250.312 260.159 233.438 259.005 229.832C257.851 226.226 255.976 221.034 255.976 221.034C255.976 221.034 258.015 223.725 261.243 226.406L258.077 215.854C258.077 215.854 244.252 214.807 237.339 209.151C232.381 205.094 227.747 194.143 225.522 188.273C214.719 192.377 207.462 199.714 207.947 211.228C208.524 224.93 223.091 263.005 222.081 265.457C221.071 267.909 211.697 276.418 208.956 285.793C206.962 292.615 204.511 306.534 203.156 314.279C205.111 316.366 209.137 319.27 215.601 317.776C215.861 315.299 216.6 312.331 216.6 312.331C216.6 312.331 224.821 291.274 228.715 284.928C232.609 278.582 239.532 274.255 240.686 267.332C241.84 260.409 241.551 250.746 241.551 250.746C241.551 250.746 248.907 266.899 249.483 269.928C250.06 272.957 245.445 277.284 247.464 288.966C248.839 296.919 250.547 308.343 251.589 315.102C256.046 315.815 260.961 315.733 264.713 313.361C264.888 307.704 265.223 295.37 264.774 291.561Z" fill="#263238" stroke="#263238" stroke-miterlimit="10"/>
<path d="M276.024 191.179C259.15 184.689 246.313 182.814 232.035 186.275C225.31 187.905 219.451 190.496 215.192 194.212C214.418 197.111 215.001 201.257 220.353 206.323C231.17 216.563 236.218 220.601 244.295 220.601C252.372 220.601 254.824 219.303 254.824 219.303C254.824 219.303 255.703 221.138 256.803 223.351C256.321 221.985 255.978 221.034 255.978 221.034C255.978 221.034 260.449 226.947 266.651 229.976C272.853 233.005 278.045 233.726 278.045 233.726L291.025 244.11L294.198 234.591L294.775 230.985C294.775 230.985 296.794 229.254 298.381 227.379C299.968 225.504 302.131 223.773 303.429 221.321C304.727 218.869 302.708 202.283 302.708 202.283C302.708 202.283 292.899 197.669 276.024 191.179Z" fill="#92E3A9" stroke="#263238" stroke-miterlimit="10"/>
<path d="M309.195 203.872C309.195 203.872 312.945 198.103 322.608 197.526C332.271 196.949 338.761 199.113 343.233 210.506C347.704 221.9 344.964 229.111 344.964 232.861C344.964 236.611 346.695 246.707 344.82 249.88C342.945 253.053 340.061 254.063 339.916 255.793C339.772 257.524 341.214 258.245 341.214 258.245C341.214 258.245 339.483 259.687 335.156 256.803C330.829 253.919 331.118 250.313 330.974 248.294C330.83 246.275 328.955 249.592 324.916 247.573C320.878 245.554 321.887 241.371 322.032 240.073C322.176 238.775 320.445 238.919 318.138 238.198C315.83 237.477 314.532 231.996 315.253 229.256C315.974 226.516 314.388 223.054 311.647 223.054C308.907 223.054 307.32 219.16 307.32 214.112C307.32 209.064 309.195 203.872 309.195 203.872Z" fill="#263238" stroke="#263238" stroke-miterlimit="10"/>
<path d="M337.605 225.074C337.605 225.074 336.884 227.526 333.855 229.112C330.826 230.699 328.663 230.699 327.509 232.141C326.355 233.583 326.499 235.747 325.634 236.035C324.769 236.323 322.461 235.025 322.461 235.025C322.461 235.025 320.009 235.458 316.548 235.89C313.087 236.323 311.5 235.457 311.212 233.582C310.923 231.707 310.923 224.496 311.645 223.053C312.366 221.611 313.231 220.457 313.231 220.457C313.231 220.457 311.933 216.707 314.385 214.832C316.837 212.957 318.279 213.678 318.856 215.265C319.433 216.852 318.712 219.015 318.712 219.015L323.327 217.717C323.327 217.717 326.356 221.034 329.24 222.188C332.125 223.342 336.884 222.476 336.884 222.476L337.605 225.074Z" fill="#B97A5B" stroke="#263238" stroke-miterlimit="10"/>
<path d="M319.141 234.017C319.141 234.017 319.285 232.286 320.151 231.277" stroke="#263238" stroke-miterlimit="10"/>
<path d="M327.94 229.112L325.055 229.4C325.055 229.4 323.036 228.246 324.334 226.227" stroke="#263238" stroke-miterlimit="10"/>
<path d="M327.219 225.504C327.219 225.504 329.959 226.658 329.382 229.254" stroke="#263238" stroke-miterlimit="10"/>
<path d="M316.26 203.442C316.26 203.442 311.356 203.009 309.193 203.875C307.03 204.74 302.703 202.288 302.703 202.288C302.703 202.288 300.251 202 299.674 207.336C299.097 212.672 301.549 216.278 301.549 216.278C301.549 216.278 298.088 213.97 298.376 217.432C298.664 220.893 301.693 225.22 302.559 226.23C303.424 227.24 300.828 225.942 301.549 228.538C302.27 231.134 307.462 234.019 309.77 234.451C312.078 234.884 312.366 233.586 312.51 228.249C312.654 222.913 313.231 220.461 313.231 220.461C313.231 220.461 311.645 213.971 313.808 211.086C315.971 208.202 319.721 207.336 320.01 204.452" fill="#263238"/>
<path d="M316.26 203.442C316.26 203.442 311.356 203.009 309.193 203.875C307.03 204.74 302.703 202.288 302.703 202.288C302.703 202.288 300.251 202 299.674 207.336C299.097 212.672 301.549 216.278 301.549 216.278C301.549 216.278 298.088 213.97 298.376 217.432C298.664 220.893 301.693 225.22 302.559 226.23C303.424 227.24 300.828 225.942 301.549 228.538C302.27 231.134 307.462 234.019 309.77 234.451C312.078 234.884 312.366 233.586 312.51 228.249C312.654 222.913 313.231 220.461 313.231 220.461C313.231 220.461 311.645 213.971 313.808 211.086C315.971 208.202 319.721 207.336 320.01 204.452" stroke="#263238" stroke-miterlimit="10"/>
<path d="M239.242 199.184C239.242 199.184 247.319 211.443 252.511 216.203" stroke="#263238" stroke-miterlimit="10"/>
<path d="M246.602 198.75C246.602 198.75 248.189 206.971 251.217 212.307" stroke="#263238" stroke-miterlimit="10"/>
<path d="M225.688 204.52C225.688 204.52 237.946 215.193 248.331 215.77" stroke="#263238" stroke-miterlimit="10"/>
<path d="M275.156 221.395L278.329 231.635" stroke="#263238" stroke-miterlimit="10"/>
<path d="M228.424 337.859C230.443 336.128 230.299 334.398 229.001 333.821C227.703 333.244 224.386 331.081 221.934 327.764C219.482 324.447 216.021 322.427 215.588 320.264C215.566 320.153 215.552 320.027 215.539 319.899C214.225 319.773 211.924 319.678 210.589 320.345C208.643 321.318 208.859 323.805 206.481 323.805C204.103 323.805 203.454 323.156 203.346 322.183C203.238 321.21 202.157 320.453 202.157 320.453L201.852 320.281C200.945 321.281 198.674 321.199 198.426 325.168C198.138 329.783 196.984 334.687 196.984 335.985C196.984 337.283 205.926 338.293 212.993 339.014C220.059 339.734 226.405 339.59 228.424 337.859Z" fill="white" stroke="#263238" stroke-miterlimit="10"/>
<path d="M286.691 328.773C286.114 328.773 282.508 327.764 278.759 325.456C275.084 323.195 267.963 321.349 266.456 319.648C265.435 320.312 263.609 321.644 261.511 322.399C258.808 323.372 254.916 323.48 254.375 322.399C253.834 321.318 252.509 320.697 252.509 320.697C252.797 321.562 250.778 321.274 250.922 324.014C251.066 326.754 250.057 334.831 250.778 335.264C251.499 335.697 259.287 336.129 262.316 335.408C265.345 334.687 272.268 333.822 274.431 334.398C276.594 334.974 283.806 335.263 285.536 333.965C287.268 332.667 287.268 328.773 286.691 328.773Z" fill="white" stroke="#263238" stroke-miterlimit="10"/>
<path d="M279.049 230.047C279.049 230.047 277.03 252.114 278.472 264.517C279.914 276.921 282.366 310.814 282.366 310.814L289.722 309.66L288.712 262.93L291.452 243.027L279.049 230.047Z" fill="#B97A5B" stroke="#263238" stroke-miterlimit="10"/>
<path d="M296.057 323.111C296.057 323.111 301.856 324.271 303.161 323.981C304.466 323.691 308.96 322.966 309.54 322.821C310.12 322.676 316.209 320.646 317.949 322.676C319.689 324.706 319.979 329.2 317.659 331.375C315.339 333.55 310.845 333.985 306.785 333.405C302.726 332.825 301.117 332.474 298.666 332.245C296.215 332.016 297.553 330.633 294.34 331.439C291.127 332.245 284.893 332.1 281.993 331.81C279.093 331.52 275.614 329.635 276.339 324.561C277.064 319.487 280.435 318.868 281.504 319.612C282.574 320.357 296.057 323.111 296.057 323.111Z" fill="white" stroke="#263238" stroke-miterlimit="10"/>
<path d="M318.82 324.27C318.82 324.27 324.184 324.125 324.329 324.85C324.474 325.575 324.329 327.75 324.039 328.329C323.749 328.909 319.4 329.054 319.4 329.054L318.82 324.27Z" fill="#92E3A9" stroke="#263238" stroke-miterlimit="10"/>
<path d="M289.582 306.777L280.928 309.229C280.928 309.229 280.495 318.027 281.505 319.613C282.515 321.199 283.668 325.094 283.668 325.094C283.668 325.094 283.812 330.142 284.389 331.44C284.966 332.738 287.52 332.33 288.86 332.882C290.469 333.545 292.895 328.926 293.278 327.41C293.477 326.619 294.485 330.575 294.341 331.44C294.197 332.305 295.495 333.315 296.216 332.017C296.937 330.719 297.226 326.536 296.36 324.517C295.495 322.498 291.312 313.267 291.024 312.258C290.736 311.248 289.582 306.777 289.582 306.777Z" fill="#92E3A9" stroke="#263238" stroke-miterlimit="10"/>
<path d="M289.796 327.484C289.796 327.484 289.648 330.303 289.351 331.044C289.054 331.786 288.016 332.75 288.016 332.75" stroke="#263238" stroke-miterlimit="10"/>
<path d="M286.898 326.965C286.898 326.965 286.75 329.858 286.601 330.674C286.453 331.49 285.859 332.528 285.859 332.528" stroke="#263238" stroke-miterlimit="10"/>
<path d="M429.417 315.788H371.242L366.109 212.09H434.55L429.417 315.788Z" fill="#92E3A9" stroke="#263238" stroke-miterlimit="10"/>
<path d="M438.002 209.668H362.648V214.507H438.002V209.668Z" fill="#92E3A9" stroke="#263238" stroke-miterlimit="10"/>
<path d="M428.837 262.037C425.627 267.22 422.419 272.403 419.206 277.585C418.271 279.093 416.905 279.791 415.135 279.773C413.072 279.752 411.009 279.768 408.749 279.768C408.749 281.29 408.749 282.836 408.749 284.382C408.644 284.405 408.539 284.428 408.434 284.45C407.877 283.494 407.314 282.541 406.763 281.58C405.334 279.086 403.895 276.597 402.504 274.082C402.325 273.758 402.236 273.199 402.394 272.9C404.368 269.144 406.395 265.416 408.557 261.406C408.557 263.447 408.557 265.191 408.557 267.051C411.64 267.051 414.638 267.051 417.803 267.051C415.394 262.841 413.032 258.714 410.614 254.488C414.483 252.248 418.291 250.043 422.3 247.723C424.498 251.717 426.668 255.659 428.837 259.602C428.837 260.413 428.837 261.225 428.837 262.037Z" fill="white"/>
<path d="M394.259 231.113C394.771 231.19 395.281 231.328 395.795 231.337C400.339 231.412 404.883 231.483 409.427 231.513C411.387 231.526 412.834 232.255 413.785 234.039C414.735 235.82 415.821 237.529 416.896 239.352C418.306 238.55 419.656 237.782 421.005 237.014C421.059 237.06 421.112 237.106 421.166 237.152C420.144 239.015 419.122 240.878 418.098 242.741C417.2 244.374 416.319 246.017 415.385 247.63C415.209 247.935 414.833 248.31 414.531 248.327C410.287 248.573 406.039 248.762 401.699 248.724C403.199 247.842 404.698 246.96 406.273 246.034C404.722 243.388 403.21 240.809 401.571 238.012C399.145 242.377 396.8 246.597 394.447 250.833C390.518 248.663 386.658 246.532 382.688 244.339C383.281 243.257 383.838 242.237 384.4 241.22C385.457 239.305 386.6 237.432 387.553 235.466C388.579 233.352 390.076 231.854 392.312 231.114C392.96 231.113 393.61 231.113 394.259 231.113Z" fill="white"/>
<path d="M377.824 252.551C376.383 251.68 375.051 250.875 373.719 250.07C373.732 249.999 373.746 249.929 373.759 249.858C375.275 249.858 376.79 249.858 378.306 249.858C380.374 249.858 382.45 249.973 384.507 249.82C386.041 249.706 386.899 250.207 387.663 251.547C389.546 254.848 391.609 258.046 393.473 261.455C391.946 260.537 390.418 259.618 388.789 258.639C387.255 261.297 385.753 263.899 384.144 266.686C389.091 266.686 393.81 266.686 398.603 266.686C398.603 271.2 398.603 275.6 398.603 280.174C397.921 280.174 397.248 280.174 396.574 280.174C393.533 280.176 390.492 280.201 387.452 280.172C384.884 280.147 382.969 279.028 381.766 276.702C379.423 272.172 377.085 267.639 374.659 263.154C373.629 261.251 373.567 259.526 374.776 257.689C375.841 256.072 376.761 254.357 377.824 252.551Z" fill="white"/>
</g>
<defs>
<clipPath id="clip0_978_14059">
<rect width="750" height="500" fill="white"/>
</clipPath>
</defs>
</svg>
