<svg width="815" height="815" viewBox="0 0 815 815" fill="none" xmlns="http://www.w3.org/2000/svg">
<path d="M700.024 650.841C695.134 709.094 745.664 697.444 758.704 722.687C768.913 742.447 770.124 755.031 770.173 759.58H48.8651C43.7355 733.58 15.8234 579.891 36.6141 410.059C59.4341 223.649 173.534 74.1309 279.484 58.597C385.434 43.0631 395.214 169.279 447.374 215.881C499.534 262.482 587.554 165.395 683.724 188.695C779.894 211.996 810.864 404.234 789.674 503.264C768.484 602.295 704.914 592.587 700.024 650.841Z" fill="#92E3A9"/>
<path opacity="0.8" d="M700.024 650.841C695.134 709.094 745.664 697.444 758.704 722.687C768.913 742.447 770.124 755.031 770.173 759.58H48.8651C43.7355 733.58 15.8234 579.891 36.6141 410.059C59.4341 223.649 173.534 74.1309 279.484 58.597C385.434 43.0631 395.214 169.279 447.374 215.881C499.534 262.482 587.554 165.395 683.724 188.695C779.894 211.996 810.864 404.234 789.674 503.264C768.484 602.295 704.914 592.587 700.024 650.841Z" fill="white"/>
<path d="M529.506 632.395C529.506 632.395 528.584 568.876 533.923 548.054C539.263 527.232 543.935 537.643 543.935 537.643C543.935 537.643 542.963 467.714 549.772 454.464C556.582 441.214 560.276 452.572 560.276 452.572C560.276 452.572 575.086 332.374 582.284 339C589.484 345.624 590.973 352.25 590.973 352.25C590.973 352.25 593.557 307.767 602.47 310.607C611.381 313.446 615.485 350.358 615.485 350.358C615.485 350.358 617.624 326.697 625.456 341.839C633.288 356.982 639.582 444.055 639.582 444.055C639.582 444.055 642.494 422.286 648.656 439.323C654.817 456.358 655.947 517.878 655.947 517.878C655.947 517.878 662.817 501.788 665.756 516.931C668.695 532.073 674.227 578.449 673.821 597.378C673.416 616.307 673.011 635.236 673.011 635.236L529.506 632.395Z" fill="#92E3A9"/>
<g opacity="0.47">
<path d="M565.156 594.121C565.156 602.001 558.996 608.387 558.996 608.387C558.996 608.387 552.836 602.001 552.836 594.121C552.836 586.242 558.996 579.855 558.996 579.855C558.996 579.855 565.156 586.242 565.156 594.121Z" fill="white"/>
<path d="M567.671 542.93C567.671 550.809 561.511 557.196 561.511 557.196C561.511 557.196 555.352 550.809 555.352 542.93C555.352 535.05 561.511 528.664 561.511 528.664C561.511 528.664 567.671 535.052 567.671 542.93Z" fill="white"/>
<path d="M585.843 505.164C585.843 513.044 579.683 519.43 579.683 519.43C579.683 519.43 573.523 513.044 573.523 505.164C573.523 497.285 579.683 490.898 579.683 490.898C579.683 490.898 585.843 497.285 585.843 505.164Z" fill="white"/>
<path d="M643.21 505.164C643.21 513.044 637.05 519.43 637.05 519.43C637.05 519.43 630.891 513.044 630.891 505.164C630.891 497.285 637.05 490.898 637.05 490.898C637.05 490.898 643.21 497.285 643.21 505.164Z" fill="white"/>
<path d="M585.304 454.82C585.304 462.7 579.144 469.086 579.144 469.086C579.144 469.086 572.984 462.698 572.984 454.82C572.984 446.941 579.144 440.555 579.144 440.555C579.144 440.555 585.304 446.941 585.304 454.82Z" fill="white"/>
<path d="M626.421 446.426C626.421 454.305 620.261 460.692 620.261 460.692C620.261 460.692 614.102 454.305 614.102 446.426C614.102 438.547 620.261 432.16 620.261 432.16C620.261 432.16 626.421 438.547 626.421 446.426Z" fill="white"/>
<path d="M593.695 574.82C593.695 582.7 587.535 589.086 587.535 589.086C587.535 589.086 581.375 582.7 581.375 574.82C581.375 566.941 587.535 560.555 587.535 560.555C587.535 560.555 593.695 566.941 593.695 574.82Z" fill="white"/>
<path d="M621.937 597.473C621.937 605.352 615.777 611.739 615.777 611.739C615.777 611.739 609.617 605.352 609.617 597.473C609.617 589.593 615.777 583.207 615.777 583.207C615.777 583.207 621.937 589.593 621.937 597.473Z" fill="white"/>
<path d="M618.866 484.192C618.866 492.071 612.707 498.457 612.707 498.457C612.707 498.457 606.547 492.071 606.547 484.192C606.547 476.312 612.707 469.926 612.707 469.926C612.707 469.926 618.866 476.314 618.866 484.192Z" fill="white"/>
<path d="M621.101 535.379C621.101 543.258 614.941 549.645 614.941 549.645C614.941 549.645 608.781 543.258 608.781 535.379C608.781 527.5 614.941 521.113 614.941 521.113C614.941 521.113 621.101 527.5 621.101 535.379Z" fill="white"/>
<path d="M651.593 574.82C651.593 582.7 645.433 589.086 645.433 589.086C645.433 589.086 639.273 582.7 639.273 574.82C639.273 566.941 645.433 560.555 645.433 560.555C645.433 560.555 651.593 566.941 651.593 574.82Z" fill="white"/>
<path d="M603.757 408.664C603.757 416.544 597.597 422.93 597.597 422.93C597.597 422.93 591.438 416.544 591.438 408.664C591.438 400.785 597.597 394.398 597.597 394.398C597.597 394.398 603.757 400.785 603.757 408.664Z" fill="white"/>
</g>
<path d="M674.129 627.23H526.004C521.825 627.23 518.438 630.618 518.438 634.797V734.132C518.438 738.312 521.825 741.699 526.004 741.699H674.129C678.308 741.699 681.695 738.312 681.695 734.132V634.797C681.695 630.619 678.308 627.23 674.129 627.23Z" fill="white" stroke="#263238" stroke-width="1.63" stroke-miterlimit="10" stroke-linecap="round" stroke-linejoin="round"/>
<path d="M671.866 741.742H528.258V759.938H671.866V741.742Z" fill="#C9C9C9" stroke="#263238" stroke-width="1.63" stroke-miterlimit="10" stroke-linecap="round" stroke-linejoin="round"/>
<path d="M641.648 655.383H673.254" stroke="#263238" stroke-width="1.63" stroke-miterlimit="10" stroke-linecap="round" stroke-linejoin="round"/>
<path d="M525.008 655.383H633.069" stroke="#263238" stroke-width="1.63" stroke-miterlimit="10" stroke-linecap="round" stroke-linejoin="round"/>
<path d="M555.445 716.367H673.255" stroke="#263238" stroke-width="1.63" stroke-miterlimit="10" stroke-linecap="round" stroke-linejoin="round"/>
<path d="M525.008 716.367H547.679" stroke="#263238" stroke-width="1.63" stroke-miterlimit="10" stroke-linecap="round" stroke-linejoin="round"/>
<path d="M570.33 683.086V701.956C570.33 706.41 566.72 710.02 562.267 710.02H539.064C534.61 710.02 531 706.41 531 701.956V668.4C531 663.946 534.61 660.336 539.064 660.336H562.267C566.72 660.336 570.33 663.946 570.33 668.4V675.731" stroke="#263238" stroke-width="1.63" stroke-miterlimit="10" stroke-linecap="round" stroke-linejoin="round"/>
<path d="M613.032 710.018H589.829C585.376 710.018 581.766 706.408 581.766 701.955V668.4C581.766 663.946 585.376 660.336 589.829 660.336H613.032C617.485 660.336 621.096 663.946 621.096 668.4V701.955C621.096 706.41 617.485 710.018 613.032 710.018Z" stroke="#263238" stroke-width="1.63" stroke-miterlimit="10" stroke-linecap="round" stroke-linejoin="round"/>
<path d="M646.546 710.018H640.603C636.15 710.018 632.539 706.408 632.539 701.955V668.4C632.539 663.946 636.15 660.336 640.603 660.336H663.806C668.259 660.336 671.869 663.946 671.869 668.4V701.955C671.869 706.408 668.259 710.018 663.806 710.018H653.493" stroke="#263238" stroke-width="1.63" stroke-miterlimit="10" stroke-linecap="round" stroke-linejoin="round"/>
<path d="M660.907 693.891C665.718 689.08 665.718 681.28 660.907 676.469C656.096 671.658 648.296 671.657 643.485 676.469C638.674 681.28 638.674 689.08 643.485 693.891C648.296 698.702 656.096 698.702 660.907 693.891Z" stroke="#263238" stroke-width="1.63" stroke-miterlimit="10" stroke-linecap="round" stroke-linejoin="round"/>
<path d="M609.829 693.891C614.64 689.08 614.64 681.28 609.829 676.469C605.018 671.658 597.217 671.658 592.406 676.469C587.595 681.28 587.595 689.08 592.406 693.891C597.218 698.702 605.018 698.702 609.829 693.891Z" stroke="#263238" stroke-width="1.63" stroke-miterlimit="10" stroke-linecap="round" stroke-linejoin="round"/>
<path d="M558.766 693.883C563.577 689.072 563.577 681.272 558.766 676.461C553.955 671.65 546.155 671.65 541.344 676.461C536.533 681.272 536.533 689.072 541.344 693.883C546.155 698.694 553.955 698.694 558.766 693.883Z" stroke="#263238" stroke-width="1.63" stroke-miterlimit="10" stroke-linecap="round" stroke-linejoin="round"/>
<path d="M661.04 644.207C661.04 645.578 659.93 646.688 658.559 646.688C657.19 646.688 656.078 645.578 656.078 644.207C656.078 642.837 657.188 641.727 658.559 641.727C659.93 641.727 661.04 642.837 661.04 644.207Z" stroke="#263238" stroke-width="1.63" stroke-miterlimit="10" stroke-linecap="round" stroke-linejoin="round"/>
<path d="M669.731 634.705C669.731 635.39 669.175 635.946 668.49 635.946C667.806 635.946 667.25 635.39 667.25 634.705C667.25 634.021 667.806 633.465 668.49 633.465C669.175 633.465 669.731 634.019 669.731 634.705Z" stroke="#263238" stroke-width="1.63" stroke-miterlimit="10" stroke-linecap="round" stroke-linejoin="round"/>
<path d="M654.02 632.842C654.02 633.413 653.557 633.875 652.987 633.875C652.416 633.875 651.953 633.413 651.953 632.842C651.953 632.272 652.416 631.809 652.987 631.809C653.557 631.809 654.02 632.272 654.02 632.842Z" stroke="#263238" stroke-width="1.63" stroke-miterlimit="10" stroke-linecap="round" stroke-linejoin="round"/>
<path d="M671.793 647.108C671.793 648.02 671.053 648.762 670.139 648.762C669.226 648.762 668.484 648.022 668.484 647.108C668.484 646.195 669.224 645.453 670.139 645.453C671.053 645.455 671.793 646.195 671.793 647.108Z" stroke="#263238" stroke-width="1.63" stroke-miterlimit="10" stroke-linecap="round" stroke-linejoin="round"/>
<path d="M628.801 640.904C628.801 641.589 628.245 642.145 627.561 642.145C626.876 642.145 626.32 641.589 626.32 640.904C626.32 640.22 626.876 639.664 627.561 639.664C628.245 639.662 628.801 640.218 628.801 640.904Z" stroke="#263238" stroke-width="1.63" stroke-miterlimit="10" stroke-linecap="round" stroke-linejoin="round"/>
<path d="M534.106 648.963C534.106 649.534 533.643 649.997 533.072 649.997C532.502 649.997 532.039 649.534 532.039 648.963C532.039 648.393 532.502 647.93 533.072 647.93C533.643 647.93 534.106 648.391 534.106 648.963Z" stroke="#263238" stroke-width="1.63" stroke-miterlimit="10" stroke-linecap="round" stroke-linejoin="round"/>
<path d="M541.97 642.145C541.97 643.288 541.044 644.212 539.903 644.212C538.76 644.212 537.836 643.286 537.836 642.145C537.836 641.004 538.762 640.078 539.903 640.078C541.045 640.078 541.97 641.004 541.97 642.145Z" stroke="#263238" stroke-width="1.63" stroke-miterlimit="10" stroke-linecap="round" stroke-linejoin="round"/>
<path d="M559.332 649.584C559.332 650.269 558.777 650.825 558.092 650.825C557.407 650.825 556.852 650.269 556.852 649.584C556.852 648.9 557.407 648.344 558.092 648.344C558.777 648.344 559.332 648.9 559.332 649.584Z" stroke="#263238" stroke-width="1.63" stroke-miterlimit="10" stroke-linecap="round" stroke-linejoin="round"/>
<path d="M582.696 732.692C583.952 732.692 584.97 731.674 584.97 730.418C584.97 729.163 583.952 728.145 582.696 728.145C581.44 728.145 580.422 729.163 580.422 730.418C580.422 731.674 581.44 732.692 582.696 732.692Z" stroke="#263238" stroke-width="1.63" stroke-miterlimit="10" stroke-linecap="round" stroke-linejoin="round"/>
<path d="M543.629 731.244C543.629 732.043 542.981 732.692 542.182 732.692C541.383 732.692 540.734 732.045 540.734 731.244C540.734 730.446 541.381 729.797 542.182 729.797C542.982 729.797 543.629 730.446 543.629 731.244Z" stroke="#263238" stroke-width="1.63" stroke-miterlimit="10" stroke-linecap="round" stroke-linejoin="round"/>
<path d="M550.033 725.25C550.833 725.25 551.481 724.602 551.481 723.803C551.481 723.004 550.833 722.355 550.033 722.355C549.234 722.355 548.586 723.004 548.586 723.803C548.586 724.602 549.234 725.25 550.033 725.25Z" stroke="#263238" stroke-width="1.63" stroke-miterlimit="10" stroke-linecap="round" stroke-linejoin="round"/>
<path d="M658.145 734.967C658.145 735.538 657.682 736 657.112 736C656.541 736 656.078 735.538 656.078 734.967C656.078 734.397 656.541 733.934 657.112 733.934C657.682 733.934 658.145 734.397 658.145 734.967Z" stroke="#263238" stroke-width="1.63" stroke-miterlimit="10" stroke-linecap="round" stroke-linejoin="round"/>
<path d="M666.627 731.45C666.969 731.45 667.247 731.172 667.247 730.83C667.247 730.488 666.969 730.211 666.627 730.211C666.285 730.211 666.008 730.488 666.008 730.83C666.008 731.172 666.285 731.45 666.627 731.45Z" stroke="#263238" stroke-width="1.63" stroke-miterlimit="10" stroke-linecap="round" stroke-linejoin="round"/>
<path d="M98.0999 632.395C98.0999 632.395 97.1773 568.876 102.517 548.054C107.857 527.232 112.529 537.643 112.529 537.643C112.529 537.643 111.557 467.714 118.366 454.464C125.176 441.214 128.869 452.572 128.869 452.572C128.869 452.572 143.68 332.374 150.878 339C158.077 345.624 159.567 352.25 159.567 352.25C159.567 352.25 162.151 307.767 171.064 310.607C179.976 313.446 184.079 350.358 184.079 350.358C184.079 350.358 186.218 326.697 194.05 341.839C201.882 356.982 208.175 444.055 208.175 444.055C208.175 444.055 211.088 422.286 217.25 439.323C223.411 456.358 224.541 517.878 224.541 517.878C224.541 517.878 231.411 501.788 234.35 516.931C237.289 532.073 242.821 578.449 242.415 597.378C242.009 616.307 241.605 635.236 241.605 635.236L98.0999 632.395Z" fill="#92E3A9"/>
<g opacity="0.47">
<path d="M133.749 594.121C133.749 602.001 127.589 608.387 127.589 608.387C127.589 608.387 121.43 602.001 121.43 594.121C121.43 586.242 127.589 579.855 127.589 579.855C127.589 579.855 133.749 586.242 133.749 594.121Z" fill="white"/>
<path d="M136.265 542.93C136.265 550.809 130.105 557.196 130.105 557.196C130.105 557.196 123.945 550.809 123.945 542.93C123.945 535.05 130.105 528.664 130.105 528.664C130.105 528.664 136.265 535.052 136.265 542.93Z" fill="white"/>
<path d="M154.437 505.164C154.437 513.044 148.277 519.43 148.277 519.43C148.277 519.43 142.117 513.044 142.117 505.164C142.117 497.285 148.277 490.898 148.277 490.898C148.277 490.898 154.437 497.285 154.437 505.164Z" fill="white"/>
<path d="M211.804 505.164C211.804 513.044 205.644 519.43 205.644 519.43C205.644 519.43 199.484 513.044 199.484 505.164C199.484 497.285 205.644 490.898 205.644 490.898C205.644 490.898 211.804 497.285 211.804 505.164Z" fill="white"/>
<path d="M153.898 454.82C153.898 462.7 147.738 469.086 147.738 469.086C147.738 469.086 141.578 462.698 141.578 454.82C141.578 446.941 147.738 440.555 147.738 440.555C147.738 440.555 153.898 446.941 153.898 454.82Z" fill="white"/>
<path d="M195.015 446.426C195.015 454.305 188.855 460.692 188.855 460.692C188.855 460.692 182.695 454.305 182.695 446.426C182.695 438.547 188.855 432.16 188.855 432.16C188.855 432.16 195.015 438.547 195.015 446.426Z" fill="white"/>
<path d="M162.288 574.82C162.288 582.7 156.129 589.086 156.129 589.086C156.129 589.086 149.969 582.7 149.969 574.82C149.969 566.941 156.129 560.555 156.129 560.555C156.129 560.555 162.288 566.941 162.288 574.82Z" fill="white"/>
<path d="M190.53 597.473C190.53 605.352 184.371 611.739 184.371 611.739C184.371 611.739 178.211 605.352 178.211 597.473C178.211 589.593 184.371 583.207 184.371 583.207C184.371 583.207 190.53 589.593 190.53 597.473Z" fill="white"/>
<path d="M187.452 484.192C187.452 492.071 181.293 498.457 181.293 498.457C181.293 498.457 175.133 492.071 175.133 484.192C175.133 476.312 181.293 469.926 181.293 469.926C181.293 469.926 187.452 476.314 187.452 484.192Z" fill="white"/>
<path d="M189.695 535.379C189.695 543.258 183.535 549.645 183.535 549.645C183.535 549.645 177.375 543.258 177.375 535.379C177.375 527.5 183.535 521.113 183.535 521.113C183.535 521.113 189.695 527.5 189.695 535.379Z" fill="white"/>
<path d="M220.179 574.82C220.179 582.7 214.019 589.086 214.019 589.086C214.019 589.086 207.859 582.7 207.859 574.82C207.859 566.941 214.019 560.555 214.019 560.555C214.019 560.555 220.179 566.941 220.179 574.82Z" fill="white"/>
<path d="M172.351 408.664C172.351 416.544 166.191 422.93 166.191 422.93C166.191 422.93 160.031 416.544 160.031 408.664C160.031 400.785 166.191 394.398 166.191 394.398C166.191 394.398 172.351 400.785 172.351 408.664Z" fill="white"/>
</g>
<path d="M242.707 627.23H94.5821C90.4028 627.23 87.0156 630.618 87.0156 634.797V734.132C87.0156 738.312 90.4028 741.699 94.5821 741.699H242.707C246.886 741.699 250.273 738.312 250.273 734.132V634.797C250.275 630.619 246.886 627.23 242.707 627.23Z" fill="white" stroke="#263238" stroke-width="1.63" stroke-miterlimit="10" stroke-linecap="round" stroke-linejoin="round"/>
<path d="M240.452 741.742H96.8438V759.938H240.452V741.742Z" fill="#C9C9C9" stroke="#263238" stroke-width="1.63" stroke-miterlimit="10" stroke-linecap="round" stroke-linejoin="round"/>
<path d="M210.227 655.383H241.832" stroke="#263238" stroke-width="1.63" stroke-miterlimit="10" stroke-linecap="round" stroke-linejoin="round"/>
<path d="M93.5859 655.383H201.647" stroke="#263238" stroke-width="1.63" stroke-miterlimit="10" stroke-linecap="round" stroke-linejoin="round"/>
<path d="M124.023 716.367H241.835" stroke="#263238" stroke-width="1.63" stroke-miterlimit="10" stroke-linecap="round" stroke-linejoin="round"/>
<path d="M93.5859 716.367H116.259" stroke="#263238" stroke-width="1.63" stroke-miterlimit="10" stroke-linecap="round" stroke-linejoin="round"/>
<path d="M138.908 683.086V701.956C138.908 706.41 135.298 710.02 130.845 710.02H107.642C103.189 710.02 99.5781 706.41 99.5781 701.956V668.4C99.5781 663.946 103.189 660.336 107.642 660.336H130.845C135.298 660.336 138.908 663.946 138.908 668.4V675.731" stroke="#263238" stroke-width="1.63" stroke-miterlimit="10" stroke-linecap="round" stroke-linejoin="round"/>
<path d="M181.61 710.018H158.407C153.954 710.018 150.344 706.408 150.344 701.955V668.4C150.344 663.946 153.954 660.336 158.407 660.336H181.61C186.064 660.336 189.674 663.946 189.674 668.4V701.955C189.672 706.41 186.064 710.018 181.61 710.018Z" stroke="#263238" stroke-width="1.63" stroke-miterlimit="10" stroke-linecap="round" stroke-linejoin="round"/>
<path d="M215.124 710.018H209.181C204.728 710.018 201.117 706.408 201.117 701.955V668.4C201.117 663.946 204.728 660.336 209.181 660.336H232.384C236.837 660.336 240.447 663.946 240.447 668.4V701.955C240.447 706.408 236.837 710.018 232.384 710.018H222.071" stroke="#263238" stroke-width="1.63" stroke-miterlimit="10" stroke-linecap="round" stroke-linejoin="round"/>
<path d="M223.597 697.209C230.222 695.661 234.338 689.034 232.79 682.408C231.241 675.783 224.615 671.667 217.989 673.216C211.363 674.764 207.248 681.391 208.796 688.016C210.345 694.642 216.971 698.758 223.597 697.209Z" stroke="#263238" stroke-width="1.63" stroke-miterlimit="10" stroke-linecap="round" stroke-linejoin="round"/>
<path d="M172.566 697.12C179.187 695.557 183.287 688.922 181.724 682.3C180.16 675.678 173.525 671.578 166.903 673.142C160.282 674.705 156.182 681.341 157.745 687.962C159.309 694.584 165.944 698.684 172.566 697.12Z" stroke="#263238" stroke-width="1.63" stroke-miterlimit="10" stroke-linecap="round" stroke-linejoin="round"/>
<path d="M121.503 697.124C128.125 695.561 132.225 688.925 130.661 682.304C129.098 675.682 122.462 671.582 115.841 673.146C109.219 674.709 105.119 681.344 106.683 687.966C108.246 694.588 114.881 698.688 121.503 697.124Z" stroke="#263238" stroke-width="1.63" stroke-miterlimit="10" stroke-linecap="round" stroke-linejoin="round"/>
<path d="M227.161 646.688C228.531 646.688 229.641 645.578 229.641 644.207C229.641 642.837 228.531 641.727 227.161 641.727C225.79 641.727 224.68 642.837 224.68 644.207C224.68 645.578 225.79 646.688 227.161 646.688Z" stroke="#263238" stroke-width="1.63" stroke-miterlimit="10" stroke-linecap="round" stroke-linejoin="round"/>
<path d="M238.317 634.705C238.317 635.39 237.761 635.946 237.076 635.946C236.392 635.946 235.836 635.39 235.836 634.705C235.836 634.021 236.392 633.465 237.076 633.465C237.763 633.465 238.317 634.019 238.317 634.705Z" stroke="#263238" stroke-width="1.63" stroke-miterlimit="10" stroke-linecap="round" stroke-linejoin="round"/>
<path d="M222.606 632.842C222.606 633.413 222.143 633.875 221.572 633.875C221.002 633.875 220.539 633.413 220.539 632.842C220.539 632.272 221.002 631.809 221.572 631.809C222.145 631.809 222.606 632.272 222.606 632.842Z" stroke="#263238" stroke-width="1.63" stroke-miterlimit="10" stroke-linecap="round" stroke-linejoin="round"/>
<path d="M238.74 648.762C239.654 648.762 240.395 648.021 240.395 647.108C240.395 646.194 239.654 645.453 238.74 645.453C237.827 645.453 237.086 646.194 237.086 647.108C237.086 648.021 237.827 648.762 238.74 648.762Z" stroke="#263238" stroke-width="1.63" stroke-miterlimit="10" stroke-linecap="round" stroke-linejoin="round"/>
<path d="M197.387 640.904C197.387 641.589 196.831 642.145 196.147 642.145C195.462 642.145 194.906 641.589 194.906 640.904C194.906 640.22 195.462 639.664 196.147 639.664C196.831 639.662 197.387 640.218 197.387 640.904Z" stroke="#263238" stroke-width="1.63" stroke-miterlimit="10" stroke-linecap="round" stroke-linejoin="round"/>
<path d="M102.7 648.963C102.7 649.534 102.237 649.997 101.666 649.997C101.096 649.997 100.633 649.534 100.633 648.963C100.633 648.393 101.096 647.93 101.666 647.93C102.237 647.93 102.7 648.391 102.7 648.963Z" stroke="#263238" stroke-width="1.63" stroke-miterlimit="10" stroke-linecap="round" stroke-linejoin="round"/>
<path d="M110.556 642.145C110.556 643.288 109.63 644.212 108.489 644.212C107.348 644.212 106.422 643.286 106.422 642.145C106.422 641.004 107.348 640.078 108.489 640.078C109.63 640.078 110.556 641.004 110.556 642.145Z" stroke="#263238" stroke-width="1.63" stroke-miterlimit="10" stroke-linecap="round" stroke-linejoin="round"/>
<path d="M127.926 649.584C127.926 650.269 127.37 650.825 126.686 650.825C126.001 650.825 125.445 650.269 125.445 649.584C125.445 648.9 126.001 648.344 126.686 648.344C127.37 648.344 127.926 648.9 127.926 649.584Z" stroke="#263238" stroke-width="1.63" stroke-miterlimit="10" stroke-linecap="round" stroke-linejoin="round"/>
<path d="M151.282 732.692C152.537 732.692 153.556 731.674 153.556 730.418C153.556 729.163 152.537 728.145 151.282 728.145C150.026 728.145 149.008 729.163 149.008 730.418C149.008 731.674 150.026 732.692 151.282 732.692Z" stroke="#263238" stroke-width="1.63" stroke-miterlimit="10" stroke-linecap="round" stroke-linejoin="round"/>
<path d="M112.215 731.244C112.215 732.043 111.568 732.692 110.768 732.692C109.969 732.692 109.32 732.045 109.32 731.244C109.32 730.446 109.969 729.797 110.768 729.797C111.566 729.797 112.215 730.446 112.215 731.244Z" stroke="#263238" stroke-width="1.63" stroke-miterlimit="10" stroke-linecap="round" stroke-linejoin="round"/>
<path d="M118.619 725.25C119.419 725.25 120.067 724.602 120.067 723.803C120.067 723.004 119.419 722.355 118.619 722.355C117.82 722.355 117.172 723.004 117.172 723.803C117.172 724.602 117.82 725.25 118.619 725.25Z" stroke="#263238" stroke-width="1.63" stroke-miterlimit="10" stroke-linecap="round" stroke-linejoin="round"/>
<path d="M226.747 734.967C226.747 735.538 226.284 736 225.713 736C225.143 736 224.68 735.538 224.68 734.967C224.68 734.397 225.143 733.934 225.713 733.934C226.284 733.934 226.747 734.397 226.747 734.967Z" stroke="#263238" stroke-width="1.63" stroke-miterlimit="10" stroke-linecap="round" stroke-linejoin="round"/>
<path d="M235.834 730.83C235.834 731.173 235.557 731.45 235.213 731.45C234.871 731.45 234.594 731.173 234.594 730.83C234.594 730.488 234.871 730.211 235.213 730.211C235.557 730.211 235.834 730.488 235.834 730.83Z" stroke="#263238" stroke-width="1.63" stroke-miterlimit="10" stroke-linecap="round" stroke-linejoin="round"/>
<path d="M23.75 760.145H792.285" stroke="#263238" stroke-width="1.63" stroke-miterlimit="10" stroke-linecap="round" stroke-linejoin="round"/>
<path d="M487.184 116.375C471.363 123.741 470.005 134.787 466.314 136.634C462.216 138.683 447.873 133.562 434.555 138.683C421.236 143.805 418.163 153.026 418.163 153.026C418.163 153.026 408.942 150.977 399.723 155.074C390.504 159.172 387.43 164.294 387.43 164.294H696.815C696.815 164.294 699.485 138.484 678.28 129.17" stroke="#263238" stroke-width="1.63" stroke-miterlimit="10" stroke-linecap="round" stroke-linejoin="round"/>
<path d="M661.855 125.176C642.547 122.856 632.272 129.463 632.272 129.463C632.272 129.463 624.076 88.4846 583.098 83.3615C545.816 78.7013 533.924 109.997 527.777 117.169C523.285 122.41 518.245 114.519 507.461 112.69" stroke="#263238" stroke-width="1.63" stroke-miterlimit="10" stroke-linecap="round" stroke-linejoin="round"/>
<path d="M350.122 109.996H483.72C483.72 109.996 478.598 101.801 468.354 95.6539C458.109 89.5072 442.743 95.6539 442.743 95.6539C442.743 95.6539 429.425 75.1648 408.936 76.1885C388.446 77.2137 382.3 88.4819 382.3 88.4819C382.3 88.4819 361.811 69.0181 345.419 72.0907C329.028 75.1648 320.832 92.5798 320.832 92.5798C320.832 92.5798 315.709 89.5072 303.416 91.5561C291.122 93.605 283.952 102.824 283.952 102.824C283.952 102.824 273.707 98.7265 268.584 101.801C263.461 104.875 255.266 109.996 255.266 109.996H334.647" stroke="#263238" stroke-width="1.63" stroke-miterlimit="10" stroke-linecap="round" stroke-linejoin="round"/>
<path d="M180.033 153.875C175.911 152 171.417 150.835 167.276 151.611C155.148 153.885 149.084 166.771 149.084 166.771C149.084 166.771 145.294 164.497 136.197 166.013C127.102 167.529 121.795 174.351 121.795 174.351C121.795 174.351 114.215 171.319 110.424 173.593C106.634 175.867 100.57 179.656 100.57 179.656H269.606C269.606 179.656 265.816 173.593 258.237 169.044C250.657 164.496 239.287 169.044 239.287 169.044C239.287 169.044 229.432 153.883 214.273 154.641C199.112 155.399 194.564 163.736 194.564 163.736C194.564 163.736 191.397 160.727 186.799 157.678" stroke="#263238" stroke-width="1.63" stroke-miterlimit="10" stroke-linecap="round" stroke-linejoin="round"/>
<path d="M344.976 378.582L301.654 493.957C301.654 493.957 287.061 542.752 290.253 547.769C293.445 552.785 299.829 554.61 302.566 554.61C305.303 554.61 374.162 571.939 374.162 571.939L386.019 489.854C386.019 489.854 328.56 475.262 325.824 474.805C323.087 474.35 313.967 474.805 313.967 474.805L347.257 384.512L344.976 378.582Z" fill="#263238" stroke="#263238" stroke-width="1.45488" stroke-miterlimit="10" stroke-linecap="round" stroke-linejoin="round"/>
<path d="M358.742 540.09L341.841 622.717L277.523 696.423L304.753 721.774C304.753 721.774 308.508 715.201 309.448 712.854C310.386 710.507 312.265 703.464 312.265 703.464L384.093 626.942L403.342 570.606L358.742 540.09Z" fill="#8F8F8F" stroke="#263238" stroke-width="1.45488" stroke-miterlimit="10" stroke-linecap="round" stroke-linejoin="round"/>
<path d="M350.578 622.792C350.578 622.792 359.182 618.743 368.294 608.113" stroke="#263238" stroke-width="1.45488" stroke-miterlimit="10" stroke-linecap="round" stroke-linejoin="round"/>
<path d="M298.18 695.267C306.256 692.969 318.206 688.913 329.823 682.523" stroke="#263238" stroke-width="1.45488" stroke-miterlimit="10" stroke-linecap="round" stroke-linejoin="round"/>
<path d="M288.305 697.703C288.305 697.703 290.174 697.346 293.333 696.555" stroke="#263238" stroke-width="1.45488" stroke-miterlimit="10" stroke-linecap="round" stroke-linejoin="round"/>
<path d="M355.883 548.96L384.078 626.941L399.973 590.791L355.883 535.395V548.96Z" fill="#263238" stroke="#263238" stroke-width="1.45488" stroke-miterlimit="10" stroke-linecap="round" stroke-linejoin="round"/>
<path d="M277.521 696.422C277.521 696.422 259.254 712.661 258.748 715.193C258.241 717.724 272.419 729.877 272.419 729.877L275.204 728.611C275.204 728.611 287.356 744.308 291.154 746.839C294.951 749.371 300.775 752.915 307.103 753.927C313.432 754.94 322.294 754.181 324.066 752.915C325.838 751.649 323.813 744.561 321.028 743.547C318.244 742.534 306.597 739.243 306.597 739.243C306.597 739.243 304.319 735.446 304.319 733.927C304.319 732.408 304.319 720.003 304.319 720.003L277.521 696.422Z" fill="#263238" stroke="#263238" stroke-width="1.45488" stroke-miterlimit="10" stroke-linecap="round" stroke-linejoin="round"/>
<path d="M470 728.817C470 728.817 487.358 740.512 488.624 740.765C489.889 741.018 510.143 741.271 511.662 742.79C513.181 744.309 513.94 747.094 513.94 747.853C513.94 748.613 497.737 756.713 489.636 757.981C481.536 759.246 473.18 758.74 470.396 758.234C467.611 757.727 457.737 756.968 457.737 756.968L457.483 759.499C457.483 759.499 440.774 758.487 438.749 757.981C436.724 757.474 434.445 756.715 434.445 756.715L434.32 741.962C434.32 741.962 463.529 728.516 470 728.817Z" fill="#263238" stroke="#263238" stroke-width="1.45488" stroke-miterlimit="10" stroke-linecap="round" stroke-linejoin="round"/>
<path d="M346.062 511.453C346.062 511.453 349.349 534.926 356.861 544.316C364.372 553.706 375.17 567.319 375.17 567.319L412.258 650.885L434.323 741.962C434.323 741.962 444.651 739.615 450.754 736.798C456.858 733.982 470.002 728.817 470.002 728.817C470.002 728.817 469.064 719.427 468.124 716.61C467.186 713.794 459.204 709.569 459.204 708.16C459.204 706.752 455.449 689.851 455.449 689.851L447.468 648.538C447.468 648.538 437.139 592.672 435.261 582.344C433.383 572.015 417.891 528.354 417.891 528.354L418.83 512.393L346.062 511.453Z" fill="#8F8F8F" stroke="#263238" stroke-width="1.45488" stroke-miterlimit="10" stroke-linecap="round" stroke-linejoin="round"/>
<path d="M430.75 648.613C433.455 661.07 434.594 671.888 434.594 671.888" stroke="#263238" stroke-width="1.45488" stroke-miterlimit="10" stroke-linecap="round" stroke-linejoin="round"/>
<path d="M396.211 547.074C403.919 568.07 423.394 622.385 427.505 635.953C428.048 637.744 428.556 639.564 429.03 641.387" stroke="#263238" stroke-width="1.45488" stroke-miterlimit="10" stroke-linecap="round" stroke-linejoin="round"/>
<path d="M386 521.562L383.469 528.143L393.086 533.711C393.086 533.711 392.073 536.747 393.086 538.772C393.183 538.967 393.535 539.874 394.097 541.368" stroke="#263238" stroke-width="1.45488" stroke-miterlimit="10" stroke-linecap="round" stroke-linejoin="round"/>
<path d="M444.703 715.93C445.716 717.449 448.246 718.461 448.246 724.028C448.246 729.594 449.258 733.138 449.258 733.138" stroke="#263238" stroke-width="1.45488" stroke-miterlimit="10" stroke-linecap="round" stroke-linejoin="round"/>
<path d="M439.148 692.137C439.148 692.137 441.516 703.707 443.216 710.737" stroke="#263238" stroke-width="1.45488" stroke-miterlimit="10" stroke-linecap="round" stroke-linejoin="round"/>
<path d="M410.289 638.488C410.289 638.488 431.548 680.499 444.707 687.586" stroke="#263238" stroke-width="1.45488" stroke-miterlimit="10" stroke-linecap="round" stroke-linejoin="round"/>
<path d="M365.516 342C365.516 342 347.954 361.703 344.956 373.268C341.957 384.833 342.387 454.222 342.387 454.222L333.82 513.331C333.82 513.331 357.379 521.47 381.794 521.47C406.208 521.47 427.625 518.043 428.481 513.331C429.336 508.619 413.948 398.452 407.493 383.976C401.037 369.5 395.071 359.99 395.071 359.99L365.516 342Z" fill="#92E3A9" stroke="#263238" stroke-width="1.45488" stroke-miterlimit="10" stroke-linecap="round" stroke-linejoin="round"/>
<path d="M429.336 294.743C429.336 294.743 431.809 311.508 431.259 313.156C430.709 314.805 427.686 318.103 427.961 319.478C428.236 320.853 430.984 329.096 429.609 331.296C428.234 333.494 424.662 332.396 424.662 332.396C424.662 332.396 423.838 334.869 423.014 335.694C422.189 336.519 419.991 337.617 419.991 339.817C419.991 342.017 419.441 347.512 418.067 348.612C416.694 349.712 401.028 345.038 401.028 345.038L396.631 352.458L372.445 336.517L379.042 318.653C379.042 318.653 377.393 308.485 377.393 301.613C377.393 294.742 393.608 281.55 395.806 279.902C398.005 278.254 411.471 282.1 416.144 284.574C420.817 287.047 429.336 294.743 429.336 294.743Z" fill="#A9693B" stroke="#263238" stroke-width="1.45488" stroke-miterlimit="10" stroke-linecap="round" stroke-linejoin="round"/>
<path d="M387.29 276.331C387.29 276.331 378.22 279.079 374.648 285.675C371.075 292.272 371.625 298.592 373.823 302.44C376.022 306.288 376.572 318.105 379.045 318.655C381.518 319.205 383.442 319.48 384.542 318.105C385.641 316.73 381.518 310.135 386.19 305.737C390.862 301.34 395.26 305.462 395.81 308.21C396.36 310.958 396.909 320.028 396.085 321.951C395.26 323.875 391.138 333.769 391.138 338.441C391.138 343.113 402.131 358.779 411.476 358.229C420.82 357.679 419.721 348.611 419.446 346.136C419.171 343.661 419.995 339.815 419.995 339.815C419.995 339.815 427.415 332.67 424.667 332.395C421.919 332.12 415.597 333.22 413.399 334.593C411.201 335.968 408.452 338.441 408.452 338.441C408.452 338.441 403.231 334.319 402.131 329.921C401.031 325.523 400.758 323.6 401.031 319.753C401.306 315.905 401.581 313.432 402.131 312.058C402.681 310.685 404.604 309.585 408.727 304.913C412.851 300.242 413.949 293.92 414.774 292.545C415.599 291.171 422.744 293.095 425.492 294.744C428.24 296.392 432.363 299.14 435.66 295.844C438.957 292.547 442.257 286.499 430.989 277.156C419.721 267.811 400.758 266.713 393.888 269.461C387.015 272.208 387.29 276.331 387.29 276.331Z" fill="#263238" stroke="#263238" stroke-width="1.45488" stroke-miterlimit="10" stroke-linecap="round" stroke-linejoin="round"/>
<path d="M422.887 320.545C422.305 322.243 421.202 323.402 420.424 323.135C419.646 322.867 419.487 321.275 420.071 319.577C420.653 317.879 421.755 316.72 422.534 316.988C423.311 317.255 423.469 318.847 422.887 320.545Z" fill="#263238"/>
<path d="M420.281 315.085C420.281 315.085 423.579 312.336 426.603 314.81" stroke="#263238" stroke-width="1.45488" stroke-miterlimit="10" stroke-linecap="round" stroke-linejoin="round"/>
<path d="M385.914 320.027C385.914 320.027 387.837 324.974 392.784 324.149" stroke="#263238" stroke-width="1.45488" stroke-miterlimit="10" stroke-linecap="round" stroke-linejoin="round"/>
<path d="M399.109 352.735C399.109 352.735 382.344 340.642 378.222 337.62C374.099 334.597 367.229 332.398 367.229 332.398C367.229 332.398 362.008 340.918 362.008 342.567C362.008 344.215 400.759 372.523 401.034 369.499C401.307 366.476 399.109 352.735 399.109 352.735Z" fill="#92E3A9" stroke="#263238" stroke-width="1.45488" stroke-miterlimit="10" stroke-linecap="round" stroke-linejoin="round"/>
<path d="M352.227 395.531L395.585 462.174C397.265 464.757 400.55 465.772 403.395 464.587L464.324 439.19L453.977 416.362L415.619 429.797L397.629 391.677C397.629 391.677 399.343 382.681 393.774 373.687C388.204 364.693 376.641 359.553 369.787 362.979" fill="#92E3A9"/>
<path d="M352.227 395.531L395.585 462.174C397.265 464.757 400.55 465.772 403.395 464.587L464.324 439.19L453.977 416.362L415.619 429.797L397.629 391.677C397.629 391.677 399.343 382.681 393.774 373.687C388.204 364.693 376.641 359.553 369.787 362.979" stroke="#263238" stroke-width="1.45488" stroke-miterlimit="10" stroke-linecap="round" stroke-linejoin="round"/>
<path d="M392.486 389.97C392.486 389.97 389.06 383.545 383.062 380.547" stroke="#263238" stroke-width="1.45488" stroke-miterlimit="10" stroke-linecap="round" stroke-linejoin="round"/>
<path d="M453.984 416.369L460.53 414.098L466.614 431.085L462.05 433.619L453.984 416.369Z" fill="#A9693B" stroke="#263238" stroke-width="1.45488" stroke-miterlimit="10" stroke-linecap="round" stroke-linejoin="round"/>
<path d="M460.539 414.094C460.539 414.094 468.398 402.686 469.666 400.658C470.933 398.63 474.736 395.841 476.511 394.573C478.286 393.306 488.767 393.386 488.426 394.067C487.412 396.095 480.82 397.87 480.82 397.87L489.44 397.109L495.525 392.039C495.525 392.039 496.285 393.814 496.285 395.334C496.285 396.856 496.793 397.87 495.779 398.63C494.765 399.391 494.765 403.953 493.751 405.981C492.737 408.009 490.709 409.784 490.456 411.051C490.203 412.319 489.695 420.686 487.92 421.447C486.145 422.207 467.639 427.025 467.639 427.025L465.35 427.64L460.539 414.094Z" fill="#A9693B" stroke="#263238" stroke-width="1.45488" stroke-miterlimit="10" stroke-linecap="round" stroke-linejoin="round"/>
<path d="M486.914 396.854L505.606 377.836L507.05 379.202L489.45 397.107L486.914 396.854Z" fill="#263238" stroke="#263238" stroke-width="1.45488" stroke-miterlimit="10" stroke-linecap="round" stroke-linejoin="round"/>
<path d="M495.78 398.629L489.695 403.952" stroke="#263238" stroke-width="1.45488" stroke-miterlimit="10" stroke-linecap="round" stroke-linejoin="round"/>
<path d="M480.814 397.871L476.758 398.379" stroke="#263238" stroke-width="1.45488" stroke-miterlimit="10" stroke-linecap="round" stroke-linejoin="round"/>
</svg>
