<svg width="150" height="150" viewBox="0 0 150 150" fill="none" xmlns="http://www.w3.org/2000/svg">
<path d="M6.00009 88.0711C6.00009 81.1527 7.36273 74.3017 10.0104 67.9102C12.6581 61.518 16.5387 55.7103 21.4309 50.8181C26.323 45.926 32.1307 42.0453 38.5225 39.3976C44.9147 36.7503 51.7654 35.3874 58.684 35.3874V88.0711H6.00009Z" fill="#2C953C"/>
<path d="M6.00009 88.0711C6.00009 94.9898 7.36273 101.84 10.0104 108.233C12.6581 114.624 16.5387 120.432 21.4309 125.324C26.323 130.217 32.1307 134.097 38.5225 136.745C44.9147 139.393 51.7654 140.755 58.684 140.755V88.0711H6.00009Z" fill="#35D36A"/>
<path d="M111.367 88.0711C111.367 94.9898 110.005 101.84 107.358 108.233C104.71 114.624 100.83 120.432 95.9367 125.324C91.0445 130.217 85.2368 134.097 78.8446 136.745C72.4531 139.393 65.6021 140.755 58.6837 140.755V88.0711H111.367Z" fill="#92DB94"/>
<path d="M143.851 42.5572C143.851 64.4039 126.14 82.1143 104.293 82.1143H64.7363V42.5572C64.7363 20.7105 82.4467 3.00006 104.293 3.00006C126.14 3.00006 143.851 20.7105 143.851 42.5572Z" fill="#3175DA"/>
</svg>
