<svg width="300" height="300" viewBox="0 0 300 300" fill="none" xmlns="http://www.w3.org/2000/svg">
<circle opacity="0.15" cx="150" cy="150" r="150" fill="#35D36A"/>
<circle cx="150" cy="150" r="110" fill="#35D36A"/>
<path d="M150.001 114.59C128.88 114.59 111.668 131.802 111.668 152.923C111.668 174.045 128.88 191.257 150.001 191.257C171.123 191.257 188.335 174.045 188.335 152.923C188.335 131.802 171.123 114.59 150.001 114.59ZM168.325 144.107L146.59 165.842C146.053 166.378 145.325 166.685 144.558 166.685C143.791 166.685 143.063 166.378 142.526 165.842L131.678 154.993C130.566 153.882 130.566 152.042 131.678 150.93C132.79 149.818 134.63 149.818 135.741 150.93L144.558 159.747L164.261 140.043C165.373 138.932 167.213 138.932 168.325 140.043C169.436 141.155 169.436 142.957 168.325 144.107Z" fill="white"/>
</svg>
