<svg width="479" height="422" viewBox="0 0 479 422" fill="none" xmlns="http://www.w3.org/2000/svg">
<g clip-path="url(#clip0_1514_37091)">
<path d="M166.344 184.028C166.344 184.028 166.002 183.8 165.457 183.244C164.913 182.692 164.17 181.781 163.574 180.417C162.975 179.066 162.505 177.248 162.679 175.128C162.823 173.031 163.74 170.595 165.742 168.779C167.69 166.961 170.605 165.722 173.778 165.916C175.342 166.027 176.999 166.477 178.353 167.532C179.026 168.049 179.631 168.696 180.056 169.479C180.479 170.26 180.681 171.209 180.492 172.128C180.118 173.999 178.322 175.333 176.438 175.528C174.528 175.732 172.616 175.046 171.03 173.954C167.818 171.773 165.804 167.693 166.219 163.572C166.691 159.426 169.707 155.987 173.308 154.604C175.107 153.897 177.086 153.678 178.924 154.096C179.84 154.31 180.72 154.708 181.437 155.314C182.159 155.922 182.666 156.748 182.906 157.634C183.147 158.516 183.107 159.493 182.689 160.313C182.281 161.14 181.536 161.721 180.752 162.069C179.153 162.771 177.345 162.561 175.923 161.865C174.484 161.164 173.361 160.027 172.63 158.751C171.894 157.462 171.629 156.022 171.649 154.686C171.722 151.983 172.855 149.706 174.147 148.058C175.46 146.395 176.928 145.286 178.153 144.473C180.647 142.882 182.198 142.34 182.198 142.34C182.202 142.348 182.114 142.4 181.939 142.493C181.737 142.6 181.481 142.735 181.161 142.905C180.481 143.272 179.476 143.816 178.269 144.644C177.071 145.476 175.642 146.596 174.382 148.239C173.14 149.864 172.068 152.099 172.023 154.692C172.017 155.976 172.281 157.339 172.984 158.549C173.685 159.752 174.761 160.824 176.112 161.471C177.448 162.115 179.118 162.289 180.564 161.645C181.273 161.327 181.92 160.807 182.264 160.1C182.617 159.401 182.656 158.549 182.437 157.762C182.22 156.972 181.761 156.232 181.118 155.695C180.47 155.15 179.664 154.786 178.81 154.588C177.094 154.203 175.207 154.409 173.497 155.087C170.065 156.408 167.185 159.712 166.745 163.63C166.347 167.535 168.274 171.457 171.324 173.527C172.827 174.572 174.646 175.212 176.382 175.027C178.089 174.861 179.7 173.639 180.017 172.032C180.183 171.235 180.017 170.411 179.638 169.702C179.256 168.993 178.7 168.387 178.072 167.9C176.811 166.905 175.252 166.47 173.75 166.351C170.716 166.145 167.889 167.317 165.997 169.053C164.054 170.785 163.146 173.113 162.976 175.153C162.778 177.212 163.206 178.997 163.765 180.335C164.32 181.685 165.024 182.602 165.537 183.17C166.049 183.745 166.366 184.005 166.344 184.028Z" fill="#E0E0E0"/>
<path d="M130.395 40.783C130.395 40.783 130.019 40.95 129.258 41.1113C128.501 41.2755 127.334 41.4147 125.862 41.1862C124.401 40.9673 122.615 40.3894 120.917 39.1059C119.225 37.8598 117.659 35.7804 117.199 33.1174C116.709 30.4966 117.224 27.3728 119.089 24.798C120.021 23.5376 121.289 22.3798 122.906 21.8019C123.702 21.511 124.573 21.3468 125.462 21.4073C126.348 21.4678 127.257 21.8067 127.931 22.4595C129.31 23.7785 129.474 26.0086 128.629 27.7049C127.778 29.4262 126.174 30.6732 124.401 31.4268C120.84 32.9696 116.315 32.4828 113.058 29.9244C109.81 27.3036 108.525 22.9136 109.287 19.1331C109.655 17.2352 110.531 15.4476 111.868 14.12C112.539 13.4614 113.348 12.9315 114.243 12.6521C115.145 12.368 116.114 12.3824 116.989 12.654C117.863 12.9228 118.666 13.4816 119.135 14.2736C119.614 15.0617 119.706 16.0016 119.579 16.8502C119.314 18.5763 118.169 19.9904 116.819 20.8179C115.457 21.6579 113.894 21.9958 112.424 21.9296C110.942 21.8595 109.584 21.3104 108.467 20.5788C106.225 19.0688 104.908 16.8915 104.21 14.9168C103.509 12.918 103.36 11.0835 103.33 9.61276C103.323 6.655 103.697 5.05469 103.697 5.05469C103.706 5.05565 103.703 5.15741 103.688 5.35613C103.67 5.58365 103.647 5.87261 103.619 6.23357C103.565 7.00445 103.485 8.14397 103.536 9.60797C103.597 11.0643 103.775 12.871 104.487 14.8169C105.194 16.736 106.506 18.8393 108.671 20.2668C109.752 20.96 111.044 21.4668 112.442 21.5235C113.834 21.5763 115.315 21.2432 116.586 20.4483C117.845 19.6659 118.888 18.3488 119.119 16.783C119.231 16.0131 119.138 15.1884 118.726 14.5193C118.324 13.8464 117.626 13.3577 116.845 13.1196C116.062 12.8796 115.191 12.87 114.393 13.1254C113.586 13.3808 112.847 13.8656 112.222 14.4809C110.977 15.7232 110.139 17.4272 109.795 19.2339C109.071 22.8396 110.316 27.0425 113.388 29.5136C116.473 31.9424 120.816 32.4176 124.199 30.9526C125.886 30.2432 127.401 29.0518 128.176 27.486C128.95 25.9568 128.782 23.9408 127.595 22.8118C127.011 22.2444 126.227 21.943 125.426 21.8835C124.623 21.8249 123.812 21.9699 123.065 22.2396C121.55 22.7705 120.347 23.8544 119.442 25.0592C117.642 27.51 117.116 30.5244 117.567 33.0521C117.987 35.6201 119.467 37.6352 121.098 38.8716C122.731 40.1427 124.467 40.7379 125.896 40.9836C127.334 41.239 128.485 41.1353 129.24 41.0067C129.998 40.8809 130.387 40.7532 130.395 40.783Z" fill="#E0E0E0"/>
<path d="M404.891 46.2791C404.891 46.2791 404.627 45.9633 404.262 45.2759C403.896 44.5933 403.44 43.5095 403.255 42.033C403.063 40.5681 403.126 38.6913 403.893 36.706C404.625 34.7361 406.193 32.6586 408.627 31.4826C411.011 30.2893 414.157 29.9255 417.144 31.0093C418.612 31.5585 420.075 32.4589 421.075 33.8538C421.575 34.5402 421.972 35.3322 422.158 36.2029C422.343 37.0717 422.268 38.0385 421.827 38.8669C420.938 40.5556 418.839 41.3274 416.976 40.9818C415.087 40.6372 413.446 39.4381 412.235 37.9425C409.77 34.9434 408.993 30.4593 410.557 26.6241C412.182 22.7812 416.049 20.3361 419.894 20.0279C421.819 19.8589 423.779 20.2093 425.424 21.13C426.242 21.5946 426.974 22.2253 427.489 23.0087C428.01 23.7969 428.263 24.7319 428.243 25.6487C428.224 26.5626 427.909 27.489 427.276 28.1572C426.65 28.8349 425.772 29.1825 424.921 29.2938C423.188 29.5146 421.513 28.8023 420.347 27.7319C419.165 26.6529 418.409 25.2436 418.069 23.8122C417.729 22.3684 417.881 20.9111 418.278 19.6362C419.113 17.0644 420.844 15.2001 422.549 13.9847C424.278 12.7607 426 12.1137 427.406 11.6797C430.247 10.8589 431.888 10.7773 431.888 10.7773C431.89 10.786 431.79 10.8119 431.596 10.8522C431.372 10.8973 431.088 10.9549 430.733 11.0269C429.977 11.1873 428.859 11.4244 427.466 11.8756C426.083 12.3354 424.395 13.0036 422.721 14.2237C421.071 15.4314 419.41 17.2717 418.633 19.7466C418.264 20.9764 418.132 22.3578 418.464 23.7181C418.796 25.0708 419.525 26.4023 420.639 27.4055C421.737 28.401 423.29 29.0404 424.86 28.8321C425.631 28.7265 426.399 28.4116 426.927 27.8308C427.464 27.2605 427.742 26.4541 427.755 25.6372C427.77 24.8183 427.54 23.9783 427.074 23.2813C426.607 22.5757 425.937 21.9978 425.174 21.5668C423.637 20.7114 421.768 20.3754 419.937 20.5415C416.271 20.8381 412.574 23.1921 411.043 26.8257C409.557 30.4593 410.295 34.7658 412.635 37.6141C413.781 39.0407 415.344 40.1697 417.063 40.4836C418.746 40.8061 420.638 40.09 421.396 38.6385C421.781 37.9213 421.855 37.0842 421.692 36.297C421.527 35.5098 421.165 34.7697 420.699 34.1255C419.772 32.8151 418.399 31.9569 416.991 31.4183C414.14 30.3623 411.097 30.6858 408.791 31.8167C406.438 32.9284 404.908 34.9041 404.168 36.8125C403.395 38.7325 403.301 40.5652 403.458 42.0061C403.609 43.4586 404.025 44.5367 404.357 45.2269C404.686 45.9239 404.917 46.2628 404.891 46.2791Z" fill="#E0E0E0"/>
<path d="M60.3901 393.424C60.3901 393.424 60.2432 393.039 60.1242 392.27C60.0013 391.505 59.9264 390.332 60.2356 388.875C60.5341 387.428 61.209 385.676 62.5837 384.051C63.921 382.43 66.0829 380.981 68.7671 380.667C71.4109 380.322 74.5021 381.008 76.9693 383.011C78.176 384.011 79.2637 385.341 79.7514 386.986C79.9981 387.797 80.1143 388.676 80.0048 389.561C79.8954 390.442 79.5066 391.331 78.8192 391.969C77.4263 393.272 75.1904 393.314 73.5431 392.377C71.8708 391.433 70.7139 389.763 70.0592 387.952C68.7143 384.311 69.4487 379.82 72.1818 376.708C74.9773 373.609 79.4307 372.567 83.1642 373.536C85.0391 374.007 86.7757 374.979 88.0285 376.389C88.6487 377.095 89.1335 377.931 89.3639 378.841C89.5981 379.755 89.53 380.722 89.2103 381.581C88.8935 382.439 88.2916 383.21 87.4756 383.635C86.6624 384.07 85.7188 384.11 84.8788 383.937C83.169 383.578 81.8202 382.356 81.0685 380.963C80.3053 379.557 80.0528 377.977 80.1997 376.513C80.3514 375.037 80.9735 373.711 81.7655 372.636C83.3965 370.48 85.6429 369.286 87.6532 368.696C89.6874 368.106 91.5268 368.059 92.9965 368.109C95.9504 368.264 97.5277 368.725 97.5277 368.725C97.5258 368.734 97.424 368.725 97.2272 368.7C97.0016 368.669 96.7146 368.631 96.3546 368.583C95.5885 368.487 94.4548 368.344 92.9908 368.315C91.5335 368.296 89.7191 368.376 87.7376 368.979C85.7831 369.579 83.6106 370.774 82.066 372.858C81.3143 373.899 80.7373 375.161 80.6048 376.555C80.4762 377.941 80.7277 379.439 81.4516 380.751C82.1629 382.052 83.4215 383.164 84.9719 383.481C85.7341 383.634 86.5636 383.588 87.2538 383.212C87.9479 382.849 88.474 382.178 88.7543 381.411C89.0375 380.642 89.0941 379.774 88.8829 378.962C88.6727 378.143 88.2292 377.377 87.6493 376.72C86.4772 375.408 84.8221 374.479 83.0375 374.036C79.4768 373.115 75.2125 374.128 72.5754 377.059C69.9805 380.005 69.2682 384.315 70.545 387.773C71.1613 389.497 72.2672 391.076 73.7879 391.935C75.273 392.792 77.2947 392.735 78.4871 391.611C79.0851 391.06 79.4298 390.293 79.5335 389.496C79.6362 388.698 79.5354 387.88 79.3079 387.119C78.8615 385.577 77.8448 384.316 76.6919 383.346C74.3437 381.414 71.3629 380.723 68.8132 381.035C66.226 381.314 64.1322 382.681 62.8084 384.241C61.45 385.801 60.7597 387.503 60.4362 388.916C60.1021 390.337 60.1424 391.492 60.2298 392.253C60.3143 393.022 60.4199 393.417 60.3901 393.424Z" fill="#E0E0E0"/>
<path d="M103.007 318.377C103.007 318.377 102.86 317.992 102.741 317.224C102.618 316.458 102.544 315.285 102.853 313.829C103.151 312.381 103.826 310.629 105.202 309.005C106.539 307.384 108.701 305.934 111.385 305.621C114.029 305.275 117.12 305.962 119.587 307.964C120.794 308.965 121.882 310.294 122.37 311.94C122.616 312.751 122.732 313.629 122.623 314.513C122.514 315.395 122.126 316.284 121.437 316.921C120.044 318.225 117.809 318.267 116.161 317.33C114.489 316.385 113.332 314.716 112.677 312.904C111.332 309.263 112.067 304.772 114.8 301.661C117.594 298.562 122.049 297.519 125.782 298.488C127.657 298.959 129.394 299.932 130.647 301.341C131.267 302.048 131.752 302.884 131.982 303.793C132.216 304.708 132.148 305.675 131.828 306.534C131.512 307.391 130.911 308.163 130.094 308.587C129.281 309.022 128.337 309.064 127.497 308.89C125.787 308.531 124.438 307.309 123.687 305.916C122.923 304.509 122.672 302.93 122.818 301.466C122.97 299.99 123.592 298.664 124.384 297.589C126.015 295.432 128.261 294.238 130.271 293.649C132.306 293.058 134.145 293.011 135.616 293.062C138.57 293.218 140.147 293.679 140.147 293.679C140.145 293.687 140.043 293.679 139.846 293.654C139.621 293.623 139.334 293.584 138.974 293.536C138.208 293.44 137.074 293.297 135.609 293.269C134.152 293.249 132.337 293.328 130.356 293.933C128.401 294.533 126.229 295.728 124.684 297.811C123.932 298.853 123.355 300.114 123.223 301.508C123.094 302.895 123.346 304.392 124.07 305.704C124.781 307.005 126.04 308.118 127.59 308.435C128.352 308.587 129.182 308.541 129.872 308.166C130.565 307.803 131.092 307.132 131.372 306.365C131.655 305.596 131.713 304.727 131.501 303.916C131.291 303.096 130.847 302.331 130.267 301.673C129.095 300.362 127.44 299.433 125.656 298.989C122.095 298.069 117.831 299.081 115.194 302.012C112.6 304.959 111.887 309.269 113.164 312.727C113.779 314.451 114.886 316.029 116.407 316.888C117.892 317.745 119.914 317.688 121.106 316.565C121.704 316.014 122.049 315.247 122.153 314.449C122.255 313.651 122.155 312.833 121.927 312.072C121.481 310.53 120.464 309.27 119.311 308.299C116.963 306.368 113.982 305.677 111.432 305.989C108.845 306.268 106.751 307.634 105.427 309.194C104.069 310.755 103.379 312.456 103.055 313.869C102.721 315.291 102.762 316.446 102.849 317.206C102.931 317.975 103.037 318.371 103.007 318.377Z" fill="#E0E0E0"/>
<path d="M100.964 58.4026C98.6654 47.3223 93.0398 36.6173 83.9102 29.9309C74.7806 23.2445 59.4359 21.2016 47.9217 26.6275C27.8164 36.1027 21.7771 52.5322 26.4139 72.4704C30.7646 91.1808 43.1879 107.984 60.8011 115.651C70.5691 119.904 82.9243 121.279 91.1054 114.454C97.4721 109.143 99.5774 100.369 100.816 92.1706C102.505 80.9808 103.262 69.4829 100.964 58.4026Z" fill="#F5F5F5"/>
<path d="M82.9971 118.277C82.3453 120.077 81.8874 123.276 81.9536 125.189C81.9795 125.934 82.1226 126.783 82.7543 127.18C83.4493 127.616 84.4218 127.243 84.9152 126.586C85.4096 125.931 85.5469 125.082 85.6698 124.27C87.0071 124.533 88.3722 124.654 89.7354 124.631C90.3546 124.62 91.0544 124.54 91.4307 124.047C91.7283 123.657 91.7283 123.101 91.5488 122.645C91.3693 122.189 91.5095 120.773 91.1735 120.415C89.7239 118.872 87.6186 118.539 85.8464 117.379" fill="#F5F5F5"/>
<path d="M85.269 123.53C85.1356 123.623 84.333 122.587 84.0172 121.039C83.6908 119.491 84.0153 118.222 84.1746 118.255C84.3541 118.276 84.3215 119.484 84.6258 120.913C84.9138 122.342 85.4245 123.439 85.269 123.53Z" fill="#E0E0E0"/>
<path d="M86.5629 121.285C86.4631 121.417 85.6471 120.948 84.9866 120.023C84.3213 119.1 84.1399 118.175 84.2973 118.125C84.4634 118.063 84.8819 118.818 85.4915 119.661C86.0944 120.508 86.6743 121.148 86.5629 121.285Z" fill="#E0E0E0"/>
<path d="M449.682 124.063C447.83 115.131 443.295 106.503 435.936 101.113C428.577 95.7241 416.208 94.0767 406.928 98.4504C390.721 106.088 385.854 119.331 389.591 135.402C393.098 150.483 403.112 164.027 417.309 170.209C425.183 173.636 435.141 174.745 441.736 169.244C446.868 164.963 448.565 157.89 449.562 151.282C450.925 142.262 451.534 132.994 449.682 124.063Z" fill="#F5F5F5"/>
<path d="M435.203 172.327C434.677 173.778 434.308 176.357 434.362 177.899C434.383 178.5 434.498 179.185 435.007 179.504C435.567 179.857 436.351 179.555 436.749 179.026C437.148 178.497 437.259 177.814 437.358 177.159C438.436 177.371 439.536 177.468 440.634 177.45C441.133 177.441 441.698 177.376 442 176.98C442.24 176.666 442.24 176.217 442.095 175.85C441.95 175.482 442.064 174.341 441.793 174.053C440.625 172.808 438.927 172.54 437.499 171.605" fill="#F5F5F5"/>
<path d="M437.03 176.562C436.923 176.637 436.276 175.803 436.021 174.554C435.758 173.307 436.019 172.283 436.148 172.309C436.293 172.326 436.266 173.301 436.512 174.452C436.745 175.605 437.156 176.489 437.03 176.562Z" fill="#E0E0E0"/>
<path d="M438.074 174.75C437.993 174.857 437.335 174.478 436.804 173.732C436.268 172.988 436.121 172.243 436.248 172.202C436.381 172.153 436.719 172.761 437.211 173.44C437.696 174.125 438.164 174.639 438.074 174.75Z" fill="#E0E0E0"/>
<path d="M92.6229 298.07C95.6728 291.374 96.8335 283.598 94.612 276.584C92.3906 269.57 85.1263 262.605 77.0018 261.029C62.8159 258.278 53.3368 264.577 48.1116 276.817C43.2079 288.304 43.2712 301.89 49.5669 312.677C53.0584 318.66 59.0114 324.126 65.9244 323.688C71.3042 323.348 75.7788 319.554 79.5765 315.728C84.7605 310.507 89.573 304.765 92.6229 298.07Z" fill="#F5F5F5"/>
<path d="M60.1995 322.582C59.1665 323.276 57.6967 324.778 56.9969 325.808C56.7243 326.209 56.4727 326.709 56.6523 327.159C56.8491 327.656 57.5028 327.833 58.0135 327.679C58.5243 327.524 58.9227 327.132 59.299 326.753C59.8999 327.405 60.5691 327.993 61.2929 328.504C61.6222 328.737 62.0196 328.963 62.4065 328.849C62.7127 328.759 62.9259 328.467 63.0065 328.159C63.0871 327.851 63.7054 327.161 63.666 326.845C63.499 325.478 62.5217 324.495 62.0379 323.206" fill="#F5F5F5"/>
<path d="M59.3723 326.211C59.2667 326.208 59.2437 325.358 59.6728 324.424C60.0962 323.487 60.7538 322.945 60.8248 323.023C60.9112 323.103 60.4293 323.725 60.0405 324.591C59.6421 325.452 59.4885 326.224 59.3723 326.211Z" fill="#E0E0E0"/>
<path d="M60.9153 325.529C60.8116 325.561 60.5639 325.001 60.5735 324.262C60.5793 323.523 60.8385 322.968 60.9412 323.001C61.0516 323.033 60.9815 323.59 60.9777 324.266C60.9671 324.942 61.0257 325.5 60.9153 325.529Z" fill="#E0E0E0"/>
<path d="M304.662 44.7457C307.712 38.0497 308.873 30.2737 306.651 23.2599C304.43 16.2462 297.165 9.28043 289.041 7.70507C274.855 4.95371 265.376 11.2532 260.151 23.4932C255.247 34.9796 255.31 48.5665 261.606 59.3531C265.098 65.3358 271.05 70.802 277.963 70.3643C283.343 70.0235 287.818 66.2295 291.616 62.4039C296.799 57.1825 301.612 51.4408 304.662 44.7457Z" fill="#F5F5F5"/>
<path d="M272.24 69.2539C271.208 69.948 269.738 71.4504 269.038 72.4795C268.765 72.8808 268.514 73.381 268.693 73.8312C268.89 74.3275 269.544 74.5042 270.055 74.3506C270.565 74.196 270.964 73.8033 271.34 73.4251C271.941 74.0769 272.61 74.6645 273.334 75.1761C273.663 75.4085 274.061 75.635 274.448 75.5208C274.754 75.4305 274.967 75.1387 275.048 74.8306C275.128 74.5224 275.746 73.8331 275.707 73.5163C275.54 72.1493 274.563 71.1662 274.079 69.8779" fill="#F5F5F5"/>
<path d="M271.411 72.883C271.306 72.8802 271.283 72.0296 271.712 71.0955C272.135 70.1586 272.793 69.6171 272.864 69.6949C272.95 69.7746 272.468 70.3966 272.08 71.2626C271.681 72.1237 271.529 72.8955 271.411 72.883Z" fill="#E0E0E0"/>
<path d="M272.954 72.201C272.851 72.2327 272.603 71.673 272.613 70.9338C272.618 70.1946 272.878 69.6397 272.98 69.6733C273.091 69.705 273.021 70.2618 273.017 70.9376C273.006 71.6144 273.066 72.1722 272.954 72.201Z" fill="#E0E0E0"/>
<path d="M171.253 274.797C125.856 257.807 84.7225 242.494 54.8857 231.612C39.9683 226.168 27.8761 221.825 19.4982 218.895C15.3087 217.43 12.0486 216.319 9.82905 215.597C7.60857 214.875 6.42873 214.543 6.40089 214.637C6.37305 214.731 7.49913 215.246 9.66969 216.138C11.8393 217.03 15.0543 218.297 19.2035 219.897C27.5017 223.096 39.5401 227.622 54.4374 233.135C84.23 244.169 125.467 259.13 171.026 275.57C194.246 283.972 216.337 291.964 236.379 299.217C236.193 299.11 236.008 299.005 235.822 298.899C215.996 291.498 194.175 283.354 171.253 274.797Z" fill="#EBEBEB"/>
<path d="M236.255 299.025C217.616 288.176 197.081 276.224 175.499 263.661C133.059 238.911 94.5959 216.566 66.6647 200.577C52.7005 192.579 41.3716 186.164 33.512 181.797C29.5828 179.613 26.5194 177.941 24.4295 176.837C22.3396 175.733 21.2221 175.196 21.1818 175.282C21.1415 175.369 22.1821 176.074 24.2 177.335C26.218 178.595 29.2141 180.411 33.0868 182.719C40.832 187.334 52.0832 193.917 66.0176 201.978C93.8845 218.108 132.497 240.13 175.17 264.374C196.701 276.631 217.198 288.297 235.821 298.899C236.009 299.005 236.193 299.11 236.379 299.217C236.452 299.258 236.525 299.299 236.598 299.341C236.609 299.337 236.619 299.334 236.63 299.33C236.504 299.227 236.381 299.127 236.255 299.025Z" fill="#EBEBEB"/>
<path d="M236.909 299.554C236.917 299.56 236.924 299.566 236.931 299.572C236.925 299.558 236.919 299.545 236.913 299.531C236.911 299.539 236.91 299.547 236.909 299.554Z" fill="#EBEBEB"/>
<path d="M236.63 299.33C236.645 299.324 236.659 299.319 236.675 299.313C236.672 299.29 236.668 299.267 236.665 299.245C236.643 299.22 236.621 299.196 236.599 299.171C219.631 285.138 200.927 269.671 181.258 253.403C142.805 221.552 107.944 192.768 82.5938 172.101C69.9208 161.765 59.6296 153.452 52.4776 147.767C48.9016 144.924 46.1109 142.738 44.2014 141.283C42.292 139.828 41.2629 139.103 41.211 139.182C41.1592 139.26 42.0875 140.139 43.9038 141.736C45.7202 143.334 48.4264 145.649 51.9275 148.605C58.9307 154.516 69.1221 162.981 81.7566 173.376C107.022 194.171 142.076 222.661 180.831 254.055C200.52 270.031 219.251 285.228 236.256 299.026C236.381 299.128 236.504 299.228 236.63 299.33Z" fill="#EBEBEB"/>
<path d="M236.664 299.242C236.655 299.179 236.646 299.117 236.636 299.055C221.162 282.017 204.107 263.24 186.171 243.492C151.092 204.81 119.275 169.836 96.1018 144.666C84.5175 132.079 75.0989 121.938 68.5392 114.984C65.2599 111.506 62.6957 108.825 60.9351 107.031C59.1744 105.236 58.2173 104.328 58.153 104.398C58.0877 104.468 58.9191 105.511 60.5626 107.431C62.2071 109.351 64.6637 112.147 67.8499 115.724C74.2234 122.879 83.5162 133.155 95.0525 145.793C118.12 171.076 150.178 205.793 185.634 244.069C203.747 263.652 220.969 282.273 236.594 299.166C236.619 299.192 236.641 299.216 236.664 299.242Z" fill="#EBEBEB"/>
<path d="M236.517 298.678C223.733 279.325 209.652 258.009 194.852 235.601C165.756 191.482 139.352 151.574 120.076 122.808C110.44 108.424 102.592 96.8201 97.1115 88.8454C94.3717 84.8575 92.2242 81.7769 90.742 79.7081C89.2607 77.6393 88.4456 76.5814 88.3708 76.639C88.2968 76.6966 88.9669 77.8677 90.3157 80.0412C91.6636 82.2146 93.6891 85.3913 96.3224 89.4617C101.59 97.6025 109.294 109.319 118.875 123.747C138.031 152.608 164.711 192.3 194.239 236.081C209.306 258.459 223.634 279.737 236.634 299.045C236.625 298.988 236.618 298.932 236.609 298.874C236.578 298.808 236.548 298.744 236.517 298.678Z" fill="#EBEBEB"/>
<path d="M236.762 299.06C236.762 299.032 236.762 299.003 236.762 298.975C236.743 298.932 236.723 298.89 236.704 298.848C236.705 298.853 236.706 298.859 236.707 298.865C236.725 298.93 236.743 298.995 236.762 299.06Z" fill="#EBEBEB"/>
<path d="M236.608 298.863C236.541 298.639 236.474 298.417 236.406 298.194C226.629 277.03 215.867 253.739 204.562 229.271C182.197 180.767 161.879 136.88 146.994 105.204C139.554 89.3648 133.477 76.5757 129.215 67.7706C127.084 63.368 125.407 59.962 124.242 57.6676C123.077 55.3732 122.424 54.1914 122.342 54.2356C122.259 54.2807 122.753 55.5508 123.77 57.9258C124.788 60.3009 126.329 63.7818 128.343 68.2477C132.37 77.1805 138.287 90.057 145.666 105.93C160.419 137.678 181.043 181.398 203.887 229.64C215.477 254.162 226.506 277.496 236.517 298.677C236.547 298.742 236.578 298.806 236.609 298.871C236.609 298.87 236.608 298.867 236.608 298.863Z" fill="#EBEBEB"/>
<path d="M236.612 298.871C236.578 298.625 236.543 298.382 236.508 298.135C229.766 274.303 222.348 248.074 214.553 220.52C199.149 165.911 185.13 116.485 174.787 80.7726C169.619 62.9157 165.375 48.4849 162.374 38.5355C160.874 33.5608 159.685 29.7073 158.847 27.1048C158.01 24.5022 157.526 23.1525 157.435 23.1841C157.345 23.2168 157.654 24.6299 158.33 27.2901C159.005 29.9502 160.046 33.8574 161.418 38.8782C164.162 48.9189 168.23 63.4129 173.333 81.2939C183.531 117.058 197.887 166.364 213.816 220.784C221.836 248.254 229.47 274.404 236.406 298.164C236.475 298.401 236.543 298.635 236.612 298.871Z" fill="#EBEBEB"/>
<path d="M236.763 299.186C236.763 299.145 236.763 299.103 236.763 299.062C236.744 298.997 236.726 298.932 236.708 298.867C236.723 298.98 236.739 299.094 236.753 299.207C236.756 299.199 236.76 299.193 236.763 299.186Z" fill="#EBEBEB"/>
<path d="M236.737 299.769C236.746 299.827 236.754 299.885 236.762 299.943C236.762 299.857 236.762 299.772 236.762 299.688C236.754 299.714 236.746 299.741 236.737 299.769Z" fill="#EBEBEB"/>
<path d="M236.709 299.557V299.561L236.712 299.555L236.709 299.557Z" fill="#EBEBEB"/>
<path d="M236.662 299.236C236.665 299.261 236.669 299.287 236.672 299.312C236.681 299.308 236.691 299.304 236.701 299.3C236.708 299.287 236.716 299.273 236.725 299.26C236.733 299.239 236.742 299.218 236.751 299.197C236.735 299.071 236.721 298.946 236.705 298.82C236.704 298.814 236.704 298.807 236.703 298.8C233.598 273.056 230.176 244.681 226.58 214.857C219.562 156.336 213.137 103.354 208.3 65.0335C205.884 45.8728 203.871 30.3765 202.413 19.6792C201.685 14.3311 201.095 10.182 200.666 7.37492C200.237 4.56692 199.968 3.101 199.881 3.11732C199.794 3.13364 199.894 4.6322 200.167 7.469C200.44 10.3058 200.885 14.4818 201.49 19.854C202.698 30.5983 204.544 46.1272 206.896 65.2994C211.593 103.647 218.34 156.568 225.865 214.992C229.645 244.482 233.243 272.555 236.512 298.062C236.544 298.316 236.577 298.569 236.609 298.823C236.609 298.827 236.61 298.83 236.61 298.834C236.618 298.896 236.626 298.959 236.634 299.02C236.634 299.024 236.635 299.029 236.636 299.033C236.645 299.1 236.654 299.168 236.662 299.236Z" fill="#EBEBEB"/>
<path d="M236.764 299.034C236.764 299.08 236.764 299.125 236.764 299.171C236.799 299.086 236.834 299 236.869 298.915C237.033 272.856 237.213 244.129 237.402 213.931C237.809 154.773 238.109 101.201 238.14 62.4169C238.16 43.0249 238.116 27.3298 238.021 16.4838C237.974 11.0607 237.914 6.8492 237.843 3.9932C237.773 1.1372 237.692 -0.362321 237.606 -0.363281C237.519 -0.363281 237.431 1.13528 237.345 3.99032C237.26 6.84536 237.177 11.0559 237.101 16.479C236.948 27.325 236.822 43.0182 236.739 62.4102C236.566 101.194 236.583 154.767 236.678 213.928C236.708 244.137 236.737 272.875 236.763 298.942C236.764 298.971 236.764 299.002 236.764 299.034Z" fill="#EBEBEB"/>
<path d="M236.832 299.461C236.809 299.537 236.787 299.612 236.765 299.688C236.765 299.773 236.765 299.858 236.765 299.943C236.787 299.783 236.81 299.621 236.832 299.461Z" fill="#EBEBEB"/>
<path d="M248.211 215.084C256.057 156.724 263.094 103.86 268.001 65.5534C270.457 46.4004 272.388 30.8878 273.655 20.154C274.289 14.7866 274.758 10.6145 275.046 7.7796C275.334 4.94472 275.443 3.44712 275.355 3.42984C275.269 3.41256 274.992 4.87656 274.547 7.68072C274.103 10.4849 273.49 14.6282 272.733 19.9706C271.216 30.6554 269.117 46.1345 266.597 65.275C261.55 103.554 254.835 156.482 247.497 214.943C243.738 244.735 240.161 273.078 236.916 298.796C236.982 298.543 237.048 298.294 237.114 298.04C240.521 272.568 244.272 244.533 248.211 215.084Z" fill="#EBEBEB"/>
<path d="M236.98 299.067C236.981 299.063 236.981 299.059 236.982 299.055C236.973 299.068 236.965 299.081 236.956 299.094C236.964 299.085 236.971 299.076 236.98 299.067Z" fill="#EBEBEB"/>
<path d="M237.219 298.182C244.32 274.418 252.136 248.264 260.346 220.789C276.649 166.371 291.343 117.067 301.785 81.3016C307.009 63.4197 311.177 48.9256 313.988 38.8831C315.393 33.8623 316.461 29.9541 317.153 27.293C317.845 24.6319 318.164 23.2178 318.073 23.1842C317.983 23.1506 317.488 24.5004 316.632 27.102C315.777 29.7036 314.561 33.556 313.025 38.5298C309.955 48.4773 305.612 62.9071 300.321 80.764C289.733 116.476 275.377 165.905 259.604 220.515C251.625 248.061 244.03 274.285 237.129 298.112C237.058 298.357 236.988 298.6 236.917 298.844C236.916 298.846 236.916 298.848 236.915 298.85C237.016 298.628 237.117 298.407 237.219 298.182Z" fill="#EBEBEB"/>
<path d="M236.764 299.185C236.761 299.193 236.757 299.199 236.754 299.207C236.746 299.226 236.737 299.245 236.729 299.265C236.849 299.079 236.967 298.898 237.088 298.712C246.793 277.895 257.486 254.961 268.723 230.858C290.864 183.46 310.853 140.503 325.157 109.309C332.312 93.7133 338.05 81.0615 341.956 72.2832C343.91 67.8941 345.405 64.4746 346.393 62.1399C347.381 59.8051 347.861 58.5571 347.783 58.513C347.705 58.4679 347.075 59.6295 345.947 61.8835C344.82 64.1376 343.195 67.4842 341.131 71.809C337.002 80.4586 331.113 93.025 323.901 108.588C309.473 139.71 289.772 182.833 268.084 230.491C257.12 254.538 246.684 277.429 237.201 298.227C237.106 298.435 237.012 298.642 236.917 298.851C236.901 298.885 236.885 298.92 236.87 298.954C236.834 299.03 236.8 299.107 236.764 299.185Z" fill="#EBEBEB"/>
<path d="M236.651 299.434C236.657 299.427 236.663 299.421 236.669 299.414C236.65 299.421 236.633 299.427 236.615 299.433C236.607 299.445 236.6 299.456 236.593 299.468C236.613 299.456 236.632 299.446 236.651 299.434Z" fill="#EBEBEB"/>
<path d="M236.726 299.263C236.718 299.276 236.711 299.287 236.702 299.3C236.737 299.287 236.77 299.275 236.805 299.262C236.856 299.206 236.905 299.15 236.956 299.093C236.964 299.08 236.973 299.067 236.982 299.054C249.533 280.111 263.366 259.235 277.913 237.28C306.418 194.329 332.176 155.388 350.671 127.074C359.922 112.919 367.36 101.424 372.448 93.4346C374.992 89.441 376.949 86.3229 378.25 84.1898C379.553 82.0566 380.201 80.9075 380.131 80.8499C380.06 80.7923 379.275 81.8291 377.845 83.8586C376.416 85.888 374.343 88.9091 371.698 92.8211C366.409 100.644 358.832 112.027 349.53 126.14C330.92 154.361 305.424 193.516 277.33 236.803C263.033 258.796 249.434 279.717 237.086 298.711C236.965 298.897 236.847 299.077 236.726 299.263Z" fill="#EBEBEB"/>
<path d="M236.806 299.265C236.87 299.242 236.933 299.218 236.998 299.195C237.009 299.187 237.02 299.177 237.031 299.168C252.075 282.629 268.658 264.397 286.096 245.225C320.237 207.747 351.107 173.752 373.322 148.994C384.431 136.616 393.381 126.554 399.52 119.546C402.59 116.042 404.956 113.303 406.54 111.421C408.124 109.541 408.925 108.517 408.864 108.449C408.802 108.38 407.882 109.268 406.187 111.024C404.492 112.78 402.024 115.405 398.866 118.81C392.551 125.62 383.481 135.549 372.326 147.874C350.011 172.52 319.37 206.77 285.586 244.652C268.312 263.992 251.885 282.383 236.981 299.07C236.973 299.079 236.965 299.088 236.956 299.097C236.906 299.153 236.857 299.209 236.806 299.265Z" fill="#EBEBEB"/>
<path d="M236.716 299.398C236.701 299.403 236.686 299.409 236.672 299.414C236.666 299.421 236.66 299.427 236.654 299.434C236.674 299.422 236.695 299.41 236.716 299.398Z" fill="#EBEBEB"/>
<path d="M237.205 299.116C237.265 299.083 237.323 299.048 237.383 299.015C254.469 285.352 273.287 270.305 293.068 254.486C332.016 223.393 367.245 195.173 392.639 174.574C405.338 164.277 415.581 155.89 422.621 150.033C426.141 147.105 428.861 144.81 430.687 143.227C432.513 141.644 433.447 140.772 433.396 140.693C433.345 140.615 432.311 141.331 430.392 142.772C428.473 144.213 425.669 146.377 422.075 149.191C414.888 154.821 404.546 163.054 391.81 173.292C366.333 193.763 331.293 222.276 292.644 253.831C272.877 269.944 254.081 285.265 237.028 299.165C237.016 299.174 237.006 299.184 236.994 299.192C237.065 299.168 237.135 299.142 237.205 299.116Z" fill="#EBEBEB"/>
<path d="M237.812 298.894C256.497 288.44 277.061 276.935 298.664 264.849C341.488 240.939 380.236 219.217 408.202 203.303C422.187 195.349 433.478 188.853 441.251 184.297C445.138 182.019 448.145 180.226 450.171 178.981C452.196 177.736 453.241 177.038 453.2 176.951C453.161 176.863 452.04 177.39 449.942 178.478C447.844 179.566 444.772 181.213 440.829 183.366C432.941 187.672 421.573 193.998 407.559 201.888C379.529 217.66 340.928 239.708 298.337 264.13C276.686 276.521 256.083 288.312 237.383 299.014C237.323 299.047 237.265 299.082 237.205 299.116C237.409 299.042 237.609 298.968 237.812 298.894Z" fill="#EBEBEB"/>
<path d="M464.301 217.342C462.077 218.047 458.81 219.134 454.612 220.567C446.216 223.433 434.098 227.684 419.147 233.014C389.243 243.667 348.016 258.661 302.514 275.299C279.545 283.676 257.679 291.649 237.812 298.895C237.61 298.968 237.409 299.041 237.206 299.115C237.136 299.141 237.066 299.166 236.996 299.192C236.932 299.215 236.869 299.239 236.804 299.262C236.77 299.275 236.736 299.287 236.702 299.3C236.692 299.304 236.682 299.306 236.673 299.31C236.657 299.316 236.643 299.321 236.628 299.327C236.617 299.33 236.606 299.334 236.596 299.338C233.572 300.441 230.591 301.528 227.664 302.595C230.597 301.56 233.584 300.504 236.614 299.432C236.632 299.425 236.65 299.42 236.668 299.413C236.682 299.408 236.698 299.402 236.712 299.398C236.893 299.333 237.073 299.27 237.254 299.207C257.337 292.11 279.47 284.289 302.734 276.068C348.395 259.977 389.722 245.333 419.582 234.529C434.513 229.131 446.58 224.699 454.898 221.564C459.058 219.996 462.279 218.754 464.456 217.88C466.631 217.006 467.76 216.5 467.733 216.407C467.707 216.312 466.526 216.636 464.301 217.342Z" fill="#EBEBEB"/>
<path d="M354.918 364.864C354.889 364.833 355.019 364.644 355.294 364.312C355.428 364.143 355.612 363.95 355.809 363.702C355.999 363.445 356.217 363.15 356.463 362.817C357.411 361.468 358.612 359.262 359.132 356.176C359.387 354.642 359.454 352.891 359.159 351.033C358.865 349.179 358.199 347.214 357.017 345.398C355.831 343.593 354.077 341.977 351.918 340.805C349.756 339.638 347.18 338.917 344.464 338.909C343.106 338.889 341.726 339.105 340.38 339.494C339.066 339.898 337.604 340.475 336.795 341.361C336.395 341.805 336.22 342.261 336.254 342.808C336.29 343.361 336.551 343.997 336.925 344.611C337.704 345.866 338.764 347.007 340.04 347.898C342.571 349.706 345.911 350.637 349.202 350.258C352.482 349.912 355.648 348.076 357.876 345.347C359.009 343.996 359.876 342.401 360.486 340.712C361.066 339.009 361.351 337.197 361.262 335.354C361.121 331.668 359.582 327.959 357.064 325.046C354.56 322.117 350.932 320.118 347.008 319.279C345.046 318.848 342.997 318.721 340.967 318.886C338.928 319.048 336.923 319.489 335.268 320.457C333.612 321.406 332.563 322.926 332.609 324.659C332.616 325.521 332.842 326.411 333.25 327.216C333.656 328.024 334.221 328.728 334.927 329.344C336.335 330.568 338.167 331.368 340.076 331.871C341.984 332.392 343.961 332.617 345.912 332.577C349.805 332.5 353.656 331.347 356.739 329.298C358.265 328.264 359.593 326.988 360.468 325.495C361.356 324.012 361.759 322.315 361.723 320.605C361.637 317.157 359.996 313.835 357.915 311.149C355.81 308.455 353.168 306.239 350.26 305.03C348.813 304.417 347.299 304.083 345.815 304.087C344.317 304.076 342.917 304.374 341.758 305.109C340.6 305.809 339.809 306.886 339.808 308.026C339.76 309.17 340.479 310.27 341.453 311.086C342.438 311.922 343.604 312.468 344.847 312.843C346.08 313.219 347.335 313.413 348.562 313.461C351.017 313.545 353.362 313.084 355.358 312.209C359.421 310.501 361.896 307.29 363.127 304.464C364.393 301.6 364.575 299.093 364.553 297.445C364.516 295.782 364.325 294.906 364.433 294.883C364.492 294.866 364.851 295.704 365.056 297.414C365.242 299.106 365.223 301.741 364.026 304.838C363.418 306.369 362.539 308.025 361.195 309.551C359.874 311.091 358.09 312.493 355.927 313.486C353.776 314.502 351.23 315.079 348.518 315.05C347.162 315.03 345.763 314.846 344.374 314.456C343 314.074 341.553 313.453 340.324 312.447C339.707 311.943 339.13 311.337 338.681 310.592C338.228 309.854 337.951 308.936 337.956 308.003C337.946 307.068 338.259 306.121 338.777 305.353C339.287 304.571 339.975 303.958 340.725 303.479C342.211 302.494 344.056 302.092 345.804 302.084C347.58 302.055 349.371 302.431 351.039 303.111C354.395 304.463 357.298 306.867 359.641 309.792C360.816 311.264 361.832 312.901 362.63 314.694C363.407 316.49 363.967 318.462 364.023 320.552C364.091 322.628 363.594 324.82 362.49 326.683C361.405 328.558 359.824 330.072 358.078 331.273C354.549 333.641 350.318 334.91 345.962 335.025C343.787 335.078 341.578 334.835 339.432 334.257C337.296 333.694 335.122 332.796 333.289 331.217C331.458 329.651 330.132 327.278 330.109 324.673C330.079 323.372 330.479 322.016 331.197 320.906C331.922 319.789 332.928 318.935 333.994 318.304C336.141 317.053 338.51 316.581 340.762 316.397C343.038 316.214 345.328 316.36 347.528 316.847C351.923 317.793 356.042 320.065 358.912 323.443C361.771 326.782 363.499 330.992 363.644 335.26C363.735 337.386 363.386 339.525 362.697 341.49C361.977 343.446 360.961 345.268 359.644 346.817C357.058 349.935 353.337 352.07 349.435 352.443C345.561 352.838 341.752 351.722 338.82 349.576C337.344 348.511 336.115 347.164 335.2 345.635C334.749 344.856 334.347 343.967 334.286 342.915C334.206 341.855 334.693 340.734 335.376 340.049C336.051 339.339 336.826 338.896 337.58 338.539C338.341 338.223 339.087 337.908 339.864 337.714C341.405 337.298 342.965 337.089 344.48 337.139C350.576 337.272 355.689 340.57 358.19 344.644C359.441 346.693 360.09 348.861 360.334 350.867C360.578 352.881 360.428 354.742 360.082 356.355C359.38 359.597 357.968 361.826 356.856 363.123C356.567 363.437 356.309 363.714 356.086 363.955C355.852 364.183 355.634 364.351 355.467 364.493C355.133 364.772 354.947 364.897 354.918 364.864Z" fill="#F5F5F5"/>
<path d="M327.683 415.84H390.74V358.293H327.683V415.84Z" fill="#EBEBEB"/>
<path d="M390.737 358.293L408.825 376.381H345.02L327.681 358.293H390.737Z" fill="#E0E0E0"/>
<path d="M327.681 358.293L316.346 371.234H327.681V358.293Z" fill="#E0E0E0"/>
<path d="M186.731 288.516L149.713 374.528C148.932 376.344 150.781 378.176 152.589 377.377L181.121 364.783C182.293 364.265 183.657 364.87 184.063 366.085L193.688 394.98C194.336 396.924 197.067 396.975 197.787 395.057L232.578 302.279L186.731 288.516Z" fill="url(#paint0_linear_1514_37091)"/>
<path d="M234.966 302.831L252.696 394.777C253.071 396.717 255.628 397.193 256.675 395.518L273.194 369.064C273.874 367.977 275.34 367.709 276.358 368.487L300.561 386.976C302.19 388.22 304.477 386.727 303.993 384.735L280.618 288.445L234.966 302.831Z" fill="url(#paint1_linear_1514_37091)"/>
<g opacity="0.3">
<path d="M186.731 288.516L149.713 374.528C148.932 376.344 150.781 378.176 152.589 377.377L181.121 364.783C182.293 364.265 183.657 364.87 184.063 366.085L193.688 394.98C194.336 396.924 197.067 396.975 197.787 395.057L232.578 302.279L186.731 288.516Z" fill="black"/>
</g>
<g opacity="0.3">
<path d="M234.966 302.831L252.696 394.777C253.071 396.717 255.628 397.193 256.675 395.518L273.194 369.064C273.874 367.977 275.34 367.709 276.358 368.487L300.561 386.976C302.19 388.22 304.477 386.727 303.993 384.735L280.618 288.445L234.966 302.831Z" fill="black"/>
</g>
<path d="M236.77 137.74L248.922 128.809L258.471 140.481L272.463 134.853L278.809 148.534L293.76 146.561L296.506 161.39L311.478 163.198L310.448 178.246L324.501 183.721L319.762 198.038L332.011 206.835L323.86 219.524L333.537 231.091L322.487 241.355L328.983 254.965L315.728 262.159L318.635 276.957L304.007 280.627L303.143 295.684L288.061 295.601L283.48 309.97L268.893 306.139L260.881 318.917L247.706 311.58L236.77 321.964L225.832 311.58L212.657 318.917L204.645 306.139L190.059 309.97L185.477 295.601L170.395 295.684L169.531 280.627L154.903 276.957L157.81 262.159L144.555 254.965L151.051 241.355L140.001 231.091L149.678 219.524L141.527 206.835L153.776 198.038L149.037 183.721L163.09 178.246L162.061 163.198L177.034 161.39L179.778 146.561L194.729 148.534L201.076 134.853L215.068 140.481L224.616 128.809L236.77 137.74Z" fill="url(#paint2_linear_1514_37091)"/>
<path d="M285.059 273.687C311.732 247.014 311.732 203.768 285.059 177.094C258.385 150.421 215.139 150.421 188.466 177.094C161.793 203.768 161.793 247.014 188.466 273.687C215.139 300.36 258.385 300.36 285.059 273.687Z" fill="white"/>
<path d="M251.671 209.209L270.001 211.894C273.013 212.334 274.21 216.037 272.029 218.159L258.748 231.075C257.882 231.917 257.485 233.133 257.688 234.324L260.8 252.587C261.31 255.587 258.16 257.871 255.468 256.453L239.08 247.814C238.011 247.25 236.733 247.25 235.662 247.809L219.255 256.413C216.56 257.825 213.414 255.535 213.932 252.535L217.084 234.279C217.29 233.088 216.896 231.872 216.031 231.027L202.779 218.081C200.602 215.955 201.808 212.255 204.821 211.821L223.158 209.176C224.354 209.005 225.388 208.254 225.924 207.171L234.142 190.567C235.492 187.839 239.384 187.843 240.728 190.574L248.909 207.196C249.442 208.28 250.475 209.033 251.671 209.209Z" fill="url(#paint3_linear_1514_37091)"/>
<path d="M126.616 116.343C126.616 116.343 124.105 105.726 114.943 107.252L116.902 100.406C116.902 100.406 132.138 102.89 130.377 113.799L126.616 116.343Z" fill="#EFDC66"/>
<path d="M90.6394 344.367C90.6394 344.367 88.1281 333.749 78.9668 335.275L80.9252 328.43C80.9252 328.43 96.1614 330.913 94.3998 341.823L90.6394 344.367Z" fill="#EFDC66"/>
<path d="M383.513 220.868C383.513 220.868 376.636 222.281 377.442 228.203L373.076 226.813C373.076 226.813 374.964 217.06 381.948 218.4L383.513 220.868Z" fill="#EFDC66"/>
<path d="M380.678 339.7C380.678 339.7 367.141 342.481 368.73 354.137L360.136 351.401C360.136 351.401 363.852 332.204 377.597 334.843L380.678 339.7Z" fill="#EFDC66"/>
<path d="M330.642 23.8645C330.642 23.8645 317.105 26.6457 318.694 38.301L310.1 35.565C310.1 35.565 313.816 16.3679 327.561 19.0069L330.642 23.8645Z" fill="#EFDC66"/>
<path d="M67.5573 174.688C67.5573 174.688 56.7132 175.894 57.1173 185.171L50.5596 182.397C50.5596 182.397 54.8729 167.574 65.4876 170.645L67.5573 174.688Z" fill="url(#paint4_linear_1514_37091)"/>
<path d="M97.4512 273.305C97.4512 273.305 95.6148 284.06 104.644 286.234L100.166 291.77C100.166 291.77 87.112 283.531 92.9949 274.177L97.4512 273.305Z" fill="url(#paint5_linear_1514_37091)"/>
<path d="M426.974 239.138C426.974 239.138 426.54 228.236 417.257 227.981L420.488 221.637C420.488 221.637 434.968 226.99 431.152 237.361L426.974 239.138Z" fill="url(#paint6_linear_1514_37091)"/>
<path d="M138.364 68.7322C138.364 68.7322 137.93 57.8305 128.646 57.5751L131.878 51.2305C131.878 51.2305 146.358 56.5834 142.542 66.9543L138.364 68.7322Z" fill="url(#paint7_linear_1514_37091)"/>
<path d="M353.921 138.42C353.921 138.42 364.122 142.29 367.992 133.848L372.565 139.305C372.565 139.305 361.971 150.532 353.922 142.961V138.42H353.921Z" fill="url(#paint8_linear_1514_37091)"/>
<path d="M116.596 147.891C116.596 149.479 115.309 150.766 113.721 150.766C112.133 150.766 110.846 149.479 110.846 147.891C110.846 146.303 112.133 145.016 113.721 145.016C115.31 145.016 116.596 146.303 116.596 147.891Z" fill="#EFDC66"/>
<path d="M181.417 126.399C181.417 127.986 180.13 129.274 178.542 129.274C176.954 129.274 175.667 127.986 175.667 126.399C175.667 124.811 176.954 123.523 178.542 123.523C180.131 123.523 181.417 124.811 181.417 126.399Z" fill="url(#paint9_linear_1514_37091)"/>
<path d="M81.8422 233.262C81.8422 234.85 80.5548 236.137 78.967 236.137C77.3792 236.137 76.0918 234.85 76.0918 233.262C76.0918 231.674 77.3792 230.387 78.967 230.387C80.5548 230.387 81.8422 231.674 81.8422 233.262Z" fill="url(#paint10_linear_1514_37091)"/>
<path d="M187.167 38.3049C187.167 39.8927 185.88 41.1801 184.292 41.1801C182.704 41.1801 181.417 39.8927 181.417 38.3049C181.417 36.7171 182.704 35.4297 184.292 35.4297C185.88 35.4297 187.167 36.7171 187.167 38.3049Z" fill="#EFDC66"/>
<path d="M46.018 264.5C46.018 266.088 44.7306 267.375 43.1428 267.375C41.5549 267.375 40.2676 266.088 40.2676 264.5C40.2676 262.912 41.5549 261.625 43.1428 261.625C44.7306 261.625 46.018 262.912 46.018 264.5Z" fill="#EFDC66"/>
<path d="M407.253 143.305C407.253 144.893 405.966 146.18 404.378 146.18C402.79 146.18 401.503 144.893 401.503 143.305C401.503 141.717 402.79 140.43 404.378 140.43C405.966 140.43 407.253 141.717 407.253 143.305Z" fill="#EFDC66"/>
<path d="M160.027 270.25C160.027 271.838 158.739 273.125 157.152 273.125C155.564 273.125 154.276 271.838 154.276 270.25C154.276 268.662 155.564 267.375 157.152 267.375C158.739 267.375 160.027 268.662 160.027 270.25Z" fill="#EFDC66"/>
<path d="M137.853 373.778C137.853 375.365 136.566 376.653 134.978 376.653C133.39 376.653 132.103 375.365 132.103 373.778C132.103 372.19 133.39 370.902 134.978 370.902C136.567 370.902 137.853 372.19 137.853 373.778Z" fill="#EFDC66"/>
<path d="M326.819 87.2424C326.819 88.8302 325.531 90.1176 323.944 90.1176C322.356 90.1176 321.068 88.8302 321.068 87.2424C321.068 85.6546 322.356 84.3672 323.944 84.3672C325.531 84.3672 326.819 85.6546 326.819 87.2424Z" fill="url(#paint11_linear_1514_37091)"/>
<path d="M384.045 294.641C384.045 296.229 382.758 297.516 381.17 297.516C379.582 297.516 378.295 296.229 378.295 294.641C378.295 293.053 379.582 291.766 381.17 291.766C382.758 291.767 384.045 293.054 384.045 294.641Z" fill="url(#paint12_linear_1514_37091)"/>
<path d="M345.124 259.778C345.124 261.365 343.837 262.653 342.249 262.653C340.661 262.653 339.374 261.365 339.374 259.778C339.374 258.19 340.661 256.902 342.249 256.902C343.837 256.902 345.124 258.19 345.124 259.778Z" fill="url(#paint13_linear_1514_37091)"/>
</g>
<defs>
<linearGradient id="paint0_linear_1514_37091" x1="191.054" y1="288.516" x2="191.054" y2="396.467" gradientUnits="userSpaceOnUse">
<stop stop-color="#FFEC6F"/>
<stop offset="1" stop-color="#FB9F09"/>
</linearGradient>
<linearGradient id="paint1_linear_1514_37091" x1="269.513" y1="288.445" x2="269.513" y2="396.541" gradientUnits="userSpaceOnUse">
<stop stop-color="#FFEC6F"/>
<stop offset="1" stop-color="#FB9F09"/>
</linearGradient>
<linearGradient id="paint2_linear_1514_37091" x1="236.769" y1="128.809" x2="236.769" y2="321.964" gradientUnits="userSpaceOnUse">
<stop stop-color="#FFEC6F"/>
<stop offset="1" stop-color="#FB9F09"/>
</linearGradient>
<linearGradient id="paint3_linear_1514_37091" x1="237.407" y1="188.523" x2="237.407" y2="256.884" gradientUnits="userSpaceOnUse">
<stop stop-color="#FFEC6F"/>
<stop offset="1" stop-color="#FB9F09"/>
</linearGradient>
<linearGradient id="paint4_linear_1514_37091" x1="59.0585" y1="170.227" x2="59.0585" y2="185.171" gradientUnits="userSpaceOnUse">
<stop stop-color="#FFEC6F"/>
<stop offset="1" stop-color="#FB9F09"/>
</linearGradient>
<linearGradient id="paint5_linear_1514_37091" x1="98.0576" y1="273.305" x2="98.0576" y2="291.77" gradientUnits="userSpaceOnUse">
<stop stop-color="#FFEC6F"/>
<stop offset="1" stop-color="#FB9F09"/>
</linearGradient>
<linearGradient id="paint6_linear_1514_37091" x1="424.525" y1="221.637" x2="424.525" y2="239.138" gradientUnits="userSpaceOnUse">
<stop stop-color="#FFEC6F"/>
<stop offset="1" stop-color="#FB9F09"/>
</linearGradient>
<linearGradient id="paint7_linear_1514_37091" x1="135.914" y1="51.2305" x2="135.914" y2="68.7322" gradientUnits="userSpaceOnUse">
<stop stop-color="#FFEC6F"/>
<stop offset="1" stop-color="#FB9F09"/>
</linearGradient>
<linearGradient id="paint8_linear_1514_37091" x1="363.243" y1="133.848" x2="363.243" y2="145.584" gradientUnits="userSpaceOnUse">
<stop stop-color="#FFEC6F"/>
<stop offset="1" stop-color="#FB9F09"/>
</linearGradient>
<linearGradient id="paint9_linear_1514_37091" x1="178.542" y1="123.523" x2="178.542" y2="129.274" gradientUnits="userSpaceOnUse">
<stop stop-color="#FFEC6F"/>
<stop offset="1" stop-color="#FB9F09"/>
</linearGradient>
<linearGradient id="paint10_linear_1514_37091" x1="78.967" y1="230.387" x2="78.967" y2="236.137" gradientUnits="userSpaceOnUse">
<stop stop-color="#FFEC6F"/>
<stop offset="1" stop-color="#FB9F09"/>
</linearGradient>
<linearGradient id="paint11_linear_1514_37091" x1="323.944" y1="84.3672" x2="323.944" y2="90.1176" gradientUnits="userSpaceOnUse">
<stop stop-color="#FFEC6F"/>
<stop offset="1" stop-color="#FB9F09"/>
</linearGradient>
<linearGradient id="paint12_linear_1514_37091" x1="381.17" y1="291.766" x2="381.17" y2="297.516" gradientUnits="userSpaceOnUse">
<stop stop-color="#FFEC6F"/>
<stop offset="1" stop-color="#FB9F09"/>
</linearGradient>
<linearGradient id="paint13_linear_1514_37091" x1="342.249" y1="256.902" x2="342.249" y2="262.653" gradientUnits="userSpaceOnUse">
<stop stop-color="#FFEC6F"/>
<stop offset="1" stop-color="#FB9F09"/>
</linearGradient>
<clipPath id="clip0_1514_37091">
<rect width="478.4" height="421.6" fill="white"/>
</clipPath>
</defs>
</svg>
