<svg width="31" height="30" viewBox="0 0 31 30" fill="none" xmlns="http://www.w3.org/2000/svg">
<path d="M8.72197 19.352C6.9535 20.405 2.3167 22.5552 5.14083 25.2458C6.52039 26.56 8.05687 27.5 9.98859 27.5H21.0114C22.9431 27.5 24.4796 26.56 25.8591 25.2458C28.6833 22.5552 24.0465 20.405 22.278 19.352C18.131 16.8827 12.869 16.8827 8.72197 19.352Z" stroke="#141B34" stroke-width="1.875" stroke-linecap="round" stroke-linejoin="round"/>
<path d="M21.125 8.125C21.125 11.2316 18.6066 13.75 15.5 13.75C12.3934 13.75 9.875 11.2316 9.875 8.125C9.875 5.0184 12.3934 2.5 15.5 2.5C18.6066 2.5 21.125 5.0184 21.125 8.125Z" stroke="#141B34" stroke-width="1.875"/>
</svg>
