<svg width="339" height="295" viewBox="0 0 339 295" fill="none" xmlns="http://www.w3.org/2000/svg">
<path d="M293.196 147.329C293.196 109.602 278.549 73.3481 252.341 46.2095C226.134 19.071 190.414 3.16729 152.71 1.85063L150.805 56.4049C174.37 57.2278 196.695 67.1676 213.075 84.1292C229.454 101.091 238.609 123.749 238.609 147.329H293.196Z" fill="#47DE7A" stroke="white" stroke-width="2.808"/>
<path d="M152.708 1.85063C125.447 0.898662 98.467 7.62548 74.844 21.2642C51.2211 34.9029 31.9056 54.9047 19.0996 78.9892L67.2975 104.617C75.3013 89.5637 87.3735 77.0626 102.138 68.5384C116.902 60.0142 133.765 55.8099 150.803 56.4049L152.708 1.85063Z" fill="#F3B55E" stroke="white" stroke-width="2.808"/>
<path d="M19.1014 78.9893C9.94228 96.2151 4.33926 115.106 2.62533 134.54C0.911395 153.975 3.12152 173.555 9.12438 192.118C15.1272 210.681 24.8003 227.848 37.5689 242.599C50.3374 257.35 65.9408 269.383 83.4519 277.984L107.518 228.989C96.574 223.613 86.8218 216.092 78.8415 206.872C70.8612 197.653 64.8155 186.924 61.0637 175.322C57.3119 163.72 55.9306 151.482 57.0018 139.336C58.073 127.19 61.5749 115.383 67.2994 104.617L19.1014 78.9893Z" fill="#9F47DE" stroke="white" stroke-width="2.808"/>
<path d="M83.4512 277.984C104.594 288.37 127.942 293.469 151.49 292.844C175.038 292.219 198.082 285.889 218.645 274.397L192.014 226.746C179.162 233.929 164.759 237.885 150.042 238.276C135.324 238.666 120.732 235.479 107.518 228.988L83.4512 277.984Z" fill="#DE477C" stroke="white" stroke-width="2.808"/>
<path d="M218.645 274.397C241.251 261.763 260.077 243.327 273.182 220.99C286.287 198.654 293.195 173.226 293.195 147.329H238.608C238.608 163.514 234.29 179.407 226.099 193.367C217.909 207.328 206.142 218.85 192.014 226.746L218.645 274.397Z" fill="#59B4F5" stroke="white" stroke-width="2.808"/>
<path d="M289.371 179.299C294.667 153.949 293.104 127.646 284.844 103.101C276.584 78.557 261.926 56.6606 242.381 39.6706L206.568 80.8684C218.784 91.4871 227.945 105.172 233.108 120.513C238.271 135.853 239.247 152.293 235.937 168.136L289.371 179.299Z" fill="#59B4F5" stroke="white" stroke-width="2.808"/>
</svg>
