<svg width="36" height="37" viewBox="0 0 36 37" fill="none" xmlns="http://www.w3.org/2000/svg">
<path d="M23.8001 6.1706C25.1897 5.04782 26.7461 4.97966 28.4466 5.0035C29.3262 5.01583 29.766 5.02201 30.1188 5.15882C30.6786 5.3759 31.1241 5.82146 31.3412 6.38122C31.478 6.73402 31.4841 7.1738 31.4966 8.05336C31.5204 9.75389 31.4522 11.3103 30.3294 12.6999C29.384 13.8701 27.7589 14.4815 26.9769 15.7732C26.3799 16.7593 26.658 17.7805 26.9145 18.8314L28.8342 26.6993C29.2169 28.2673 28.9257 29.2723 27.8294 30.3686C27.246 30.952 26.7608 30.9224 26.2877 30.1685L20.4941 20.9374L17.7272 23.1367C16.724 23.9342 16.2224 24.3329 15.9588 24.8941C15.3414 26.2082 15.7334 28.1821 15.7533 29.6069C15.7644 30.3944 15.0839 31.9466 14.1209 31.999C13.5263 32.0314 13.3242 31.3202 13.1322 30.8837L11.2835 26.6816C10.8414 25.6768 10.8233 25.6586 9.81834 25.2166L5.61623 23.3678C5.17977 23.1758 4.46871 22.9736 4.50107 22.3792C4.55348 21.4162 6.10554 20.7356 6.89304 20.7467C8.31798 20.7667 10.2918 21.1586 11.606 20.5412C12.1671 20.2777 12.5659 19.7761 13.3633 18.7729L15.5627 16.006L6.33155 10.2123C5.57768 9.73919 5.54808 9.25396 6.13133 8.67073C7.22775 7.5743 8.23277 7.28321 9.80066 7.66577L17.6687 9.58555C18.7196 9.84197 19.7408 10.1201 20.7269 9.5231C22.0185 8.74117 22.6299 7.11611 23.8001 6.1706Z" stroke="#35D36A" stroke-width="2.25" stroke-linecap="round" stroke-linejoin="round"/>
</svg>
