<svg width="37" height="37" viewBox="0 0 37 37" fill="none" xmlns="http://www.w3.org/2000/svg">
<path d="M9.5 30.5039C12.8137 30.5039 15.5 27.8177 15.5 24.5039C15.5 21.1903 12.8137 18.5039 9.5 18.5039C6.18629 18.5039 3.5 21.1903 3.5 24.5039C3.5 27.8177 6.18629 30.5039 9.5 30.5039Z" stroke="#35D36A" stroke-width="2.25" stroke-linecap="round" stroke-linejoin="round"/>
<path d="M27.5 30.5039C30.8137 30.5039 33.5 27.8177 33.5 24.5039C33.5 21.1903 30.8137 18.5039 27.5 18.5039C24.1863 18.5039 21.5 21.1903 21.5 24.5039C21.5 27.8177 24.1863 30.5039 27.5 30.5039Z" stroke="#35D36A" stroke-width="2.25" stroke-linecap="round" stroke-linejoin="round"/>
<path d="M9.5 24.5039H16.0559C16.5953 24.5039 17.0933 24.2142 17.3598 23.7452L23.75 12.5039" stroke="#35D36A" stroke-width="2.25" stroke-linecap="round" stroke-linejoin="round"/>
<path d="M18.5 20.0039L11 11.0039M11 11.0039H8M11 11.0039H14" stroke="#35D36A" stroke-width="2.25" stroke-linecap="round" stroke-linejoin="round"/>
<path d="M30.5059 9.82793C30.1999 8.96393 29.6599 7.61393 27.8599 6.98393C26.6899 6.53393 23.8099 6.35393 23.4499 6.62393C22.9291 6.75414 22.9099 7.34393 23.1619 8.15393C23.3666 9.02235 23.6839 10.1423 23.9719 11.2139C24.7099 13.9601 26.3299 19.908 27.5359 24.498" stroke="#35D36A" stroke-width="2.25" stroke-linecap="round"/>
</svg>
