<svg width="36" height="37" viewBox="0 0 36 37" fill="none" xmlns="http://www.w3.org/2000/svg">
<path d="M15 24.2669L10.0286 29.2383C11.1864 30.0633 11.3423 31.7982 10.3283 32.8124C9.41139 33.7292 7.92484 33.7292 7.00797 32.8124C6.28512 32.0895 6.03768 30.918 6.45457 30.0453C5.58187 30.4623 4.41049 30.2148 3.68766 29.492C2.77078 28.5752 2.77078 27.0885 3.68766 26.1717C4.7017 25.1577 6.43662 25.3136 7.26171 26.4713L12.2331 21.5" stroke="#35D36A" stroke-width="2.25" stroke-linejoin="round"/>
<path d="M18.8052 6.02284C22.3068 2.52127 27.2541 2.79972 30.4772 6.02284C33.0495 8.59513 33.7463 12.2656 32.1428 15.4229C29.48 11.893 23.4869 14.5974 24.6083 19.0339C22.1358 18.0046 20.0139 21.1829 21.717 23.0948C18.1473 24.5477 14.5957 25.1572 12.9693 23.5307C9.74615 20.3077 15.3036 9.52442 18.8052 6.02284Z" stroke="#35D36A" stroke-width="2.25" stroke-linejoin="round"/>
</svg>
