<svg width="36" height="37" viewBox="0 0 36 37" fill="none" xmlns="http://www.w3.org/2000/svg">
<path d="M33 18.5C33 10.2157 26.2842 3.5 18 3.5C9.71572 3.5 3 10.2157 3 18.5C3 26.7842 9.71572 33.5 18 33.5C26.2842 33.5 33 26.7842 33 18.5Z" stroke="#35D36A" stroke-width="2.25"/>
<path d="M30 9.04848C28.5979 9.14954 26.8021 9.69236 25.5568 11.3042C23.3077 14.2154 21.0585 14.4583 19.5591 13.4879C17.3098 12.0323 19.2 9.67454 16.5601 8.39322C14.8397 7.55813 14.5998 5.28567 15.5574 3.5" stroke="#35D36A" stroke-width="2.25" stroke-linejoin="round"/>
<path d="M3 17C4.14375 17.9932 5.74569 18.9023 7.63311 18.9023C11.5326 18.9023 12.3126 19.6473 12.3126 22.6277C12.3126 25.608 12.3126 25.608 13.0925 27.8432C13.5998 29.2971 13.7771 30.7511 12.7659 32" stroke="#35D36A" stroke-width="2.25" stroke-linejoin="round"/>
<path d="M33 20.6784C31.6694 19.9116 30 19.5962 28.3101 20.8107C25.0765 23.1347 22.8471 21.209 21.8429 23.1333C20.3648 25.9662 25.6436 26.8566 21 33.5" stroke="#35D36A" stroke-width="2.25" stroke-linejoin="round"/>
</svg>
