<svg width="37" height="37" viewBox="0 0 37 37" fill="none" xmlns="http://www.w3.org/2000/svg">
<path d="M29.75 29C31.8211 29 33.5 27.3211 33.5 25.25C33.5 23.1789 31.8211 21.5 29.75 21.5C27.6789 21.5 26 23.1789 26 25.25C26 27.3211 27.6789 29 29.75 29Z" stroke="#35D36A" stroke-width="2.25"/>
<path d="M7.25 29C9.32107 29 11 27.3211 11 25.25C11 23.1789 9.32107 21.5 7.25 21.5C5.17893 21.5 3.5 23.1789 3.5 25.25C3.5 27.3211 5.17893 29 7.25 29Z" stroke="#35D36A" stroke-width="2.25"/>
<path d="M30.8522 12.3044C32.7745 14.6435 33.4423 16.8675 33.4991 18.0435C32.4941 17.5839 31.3657 17.3261 30.1732 17.3261C26.5054 17.3261 23.2129 19.765 22.4266 23.0138C22.2386 23.7905 22.1447 24.1789 21.9406 24.3394C21.7366 24.5 21.4073 24.5 20.7491 24.5H16.4309C15.7676 24.5 15.436 24.5 15.2311 24.3373C15.0262 24.1744 14.9365 23.7873 14.757 23.0132C14.0134 19.8062 10.9951 17.0186 7.85296 17.2547C7.53634 17.2785 7.37803 17.2904 7.26941 17.2662C7.16081 17.2419 7.05146 17.1803 6.83278 17.0567C6.20146 16.7001 5.55592 16.3616 4.9369 15.984C4.07449 15.458 3.53473 14.5332 3.5008 13.5236C3.48149 12.949 3.81196 12.378 4.47952 12.5351L14.1105 14.8015C14.834 14.9718 15.1958 15.0569 15.5066 14.999C15.8174 14.941 16.1984 14.6804 16.9606 14.1592C18.893 12.8378 21.9556 11.5896 25.0085 12.6923C25.8442 12.9942 26.2621 13.1452 26.5001 13.1527C26.7382 13.1602 27.0871 13.0587 27.7849 12.8556C28.9147 12.5268 29.9782 12.3561 30.8522 12.3044ZM30.8522 12.3044C29.6474 10.8382 27.9496 9.32678 25.6004 8" stroke="#35D36A" stroke-width="2.25" stroke-linecap="round" stroke-linejoin="round"/>
</svg>
