<svg width="36" height="37" viewBox="0 0 36 37" fill="none" xmlns="http://www.w3.org/2000/svg">
<path d="M21.75 16.25C21.75 16.25 18 19.25 18 23" stroke="#35D36A" stroke-width="2.25" stroke-linecap="round" stroke-linejoin="round"/>
<path d="M9 23H27" stroke="#35D36A" stroke-width="2.25" stroke-linecap="round" stroke-linejoin="round"/>
<path d="M10.5 23L11.2641 28.3486C11.6149 30.8047 11.7904 32.0327 12.6363 32.7664C13.4822 33.5 14.7227 33.5 17.2038 33.5H18.7962C21.2773 33.5 22.5178 33.5 23.3637 32.7664C24.2095 32.0327 24.3851 30.8047 24.7359 28.3486L25.5 23" stroke="#35D36A" stroke-width="2.25" stroke-linecap="round" stroke-linejoin="round"/>
<path d="M15.0945 12.5945C16.9684 10.7205 16.9684 7.68222 15.0945 5.80826C12.2669 2.98064 6.04617 3.54617 6.04617 3.54617C6.04617 3.54617 5.48064 9.76691 8.30826 12.5945C10.1822 14.4685 13.2205 14.4685 15.0945 12.5945Z" stroke="#35D36A" stroke-width="2.25" stroke-linecap="round" stroke-linejoin="round"/>
<path d="M22.2046 15.7954C23.811 17.4016 26.4153 17.4016 28.0215 15.7954C30.4452 13.3716 29.9604 8.03957 29.9604 8.03957C29.9604 8.03957 24.6284 7.55483 22.2046 9.9785C20.5985 11.5848 20.5985 14.189 22.2046 15.7954Z" stroke="#35D36A" stroke-width="2.25" stroke-linecap="round" stroke-linejoin="round"/>
<path d="M15 13.25C15 13.25 18 17 18 22.999" stroke="#35D36A" stroke-width="2.25" stroke-linecap="round" stroke-linejoin="round"/>
</svg>
