<svg width="36" height="37" viewBox="0 0 36 37" fill="none" xmlns="http://www.w3.org/2000/svg">
<path d="M25.5 20.3462C25.5 20.3462 24.1363 19.654 22.7727 19.654C20.7273 19.654 18 22.4231 18 26.5769C18 30.7305 21.7344 33.5 25.5 33.5C29.2656 33.5 33 30.7305 33 26.5769C33 22.4231 30.2727 19.654 28.2273 19.654C26.8636 19.654 25.5 20.3462 25.5 20.3462ZM25.5 20.3462C25.5 18.2693 26.8637 15.5 29.591 15.5" stroke="#35D36A" stroke-width="2.25" stroke-linecap="round" stroke-linejoin="round"/>
<path d="M15.9825 8C17.3268 8 18.4167 6.99264 18.4167 5.75C18.4167 4.50736 17.3268 3.5 15.9825 3.5H7.86842C6.52404 3.5 5.4342 4.50736 5.4342 5.75C5.4342 6.99264 6.52404 8 7.86842 8M16.754 7.88467C18.1871 10.5341 19.3642 12.9251 20.0832 15.5C20.1418 15.7102 20.1975 15.9215 20.25 16.1344M15.642 33.5H9.49122C4.12081 33.5 3 32.4639 3 27.5V21.1656C3 16.0659 4.64635 12.3284 7.057 7.87197" stroke="#35D36A" stroke-width="2.25" stroke-linecap="round" stroke-linejoin="round"/>
</svg>
