<svg width="37" height="37" viewBox="0 0 37 37" fill="none" xmlns="http://www.w3.org/2000/svg">
<path d="M26 7.25C26 8.49264 24.9926 9.5 23.75 9.5C22.5074 9.5 21.5 8.49264 21.5 7.25C21.5 6.00736 22.5074 5 23.75 5C24.9926 5 26 6.00736 26 7.25Z" stroke="#35D36A" stroke-width="2.25"/>
<path d="M23 32.0012L22.0039 28.0772C21.6742 26.7786 20.9923 25.5926 20.0311 24.6461L17.75 22.3997M17.75 22.3997C16.2383 21.2088 15.4825 20.6135 15.1897 19.8176C15.0593 19.463 14.9969 19.0871 15.006 18.7095C15.0264 17.8617 15.5498 17.0543 16.5963 15.4393L18.5 12.502M17.75 22.3997L23 14.4161M9.5 17.2301C11 14.2755 13.3065 12.5634 18.5 12.502M18.5 12.502C18.8279 12.4982 19.3166 12.497 19.8047 12.4971C20.562 12.4972 20.9407 12.4973 21.2423 12.6382C21.544 12.7791 21.8534 13.1488 22.4723 13.8882C22.6496 14.1001 22.8317 14.2899 23 14.4161M23 14.4161C24.7321 15.7149 27.444 16.2381 30.5 12.7987" stroke="#35D36A" stroke-width="2.25" stroke-linecap="round" stroke-linejoin="round"/>
<path d="M6.5 27.0955L7.51733 27.3374C10.1099 27.9542 12.8049 26.7746 14 24.5" stroke="#35D36A" stroke-width="2.25" stroke-linecap="round" stroke-linejoin="round"/>
</svg>
