<svg width="55" height="55" viewBox="0 0 55 55" fill="none" xmlns="http://www.w3.org/2000/svg">
<path d="M32.0885 18.332H22.9219C17.234 18.332 16.0469 19.5191 16.0469 25.207V50.4154H38.9635V25.207C38.9635 19.5191 37.7765 18.332 32.0885 18.332Z" stroke="#35D36A" stroke-width="3.4375" stroke-linejoin="round"/>
<path d="M25.2031 27.5H29.7865M25.2031 34.375H29.7865M25.2031 41.25H29.7865" stroke="#35D36A" stroke-width="3.4375" stroke-linecap="round" stroke-linejoin="round"/>
<path d="M48.1302 50.4154V18.7575C48.1302 15.9426 48.1302 14.5352 47.4457 13.4042C46.7612 12.2731 45.5285 11.6437 43.0631 10.3849L33.1134 5.30474C30.4541 3.94688 29.7969 4.42543 29.7969 7.39788V17.6526" stroke="#35D36A" stroke-width="3.4375" stroke-linecap="round" stroke-linejoin="round"/>
<path d="M6.875 50.4167V29.7917C6.875 27.8958 7.2707 27.5 9.16667 27.5H16.0417" stroke="#35D36A" stroke-width="3.4375" stroke-linecap="round" stroke-linejoin="round"/>
<path d="M50.4115 50.418H4.57812" stroke="#35D36A" stroke-width="3.4375" stroke-linecap="round" stroke-linejoin="round"/>
</svg>
