<svg width="55" height="55" viewBox="0 0 55 55" fill="none" xmlns="http://www.w3.org/2000/svg">
<path d="M20.625 30.9388V20.6263C20.625 18.4657 20.625 17.3854 19.9538 16.7142C19.2826 16.043 18.2023 16.043 16.0417 16.043H11.4583C9.29773 16.043 8.21744 16.043 7.54621 16.7142C6.875 17.3854 6.875 18.4657 6.875 20.6263V41.2513C6.875 45.5725 6.875 47.7331 8.21744 49.0755C9.55985 50.418 11.7205 50.418 16.0417 50.418H20.625M20.625 30.9388L28.2258 27.1383C30.7482 25.8772 32.0095 25.2465 32.9867 25.6657C33.1955 25.7553 33.3896 25.8754 33.5631 26.022C34.375 26.7086 34.375 28.1187 34.375 30.9388L41.492 27.3803C44.4648 25.8939 45.9514 25.1507 47.0381 25.8224C48.125 26.4941 48.125 28.156 48.125 31.4799V41.2513C48.125 45.5725 48.125 47.7331 46.7825 49.0755C45.4401 50.418 43.2795 50.418 38.9583 50.418H20.625M20.625 30.9388V50.418" stroke="#35D36A" stroke-width="3.4375" stroke-linecap="round" stroke-linejoin="round"/>
<path d="M6.875 22.918H20.625" stroke="#35D36A" stroke-width="3.4375" stroke-linecap="round" stroke-linejoin="round"/>
<path d="M29.7917 4.58203H18.3333C16.1727 4.58203 15.0924 4.58203 14.4212 5.25324C13.75 5.92447 13.75 7.00476 13.75 9.16536" stroke="#35D36A" stroke-width="3.4375" stroke-linecap="round" stroke-linejoin="round"/>
<path d="M36.6719 4.58203H38.9635" stroke="#35D36A" stroke-width="3.4375" stroke-linecap="round" stroke-linejoin="round"/>
<path d="M25.2031 11.457H38.9531" stroke="#35D36A" stroke-width="3.4375" stroke-linecap="round" stroke-linejoin="round"/>
</svg>
