<svg width="55" height="55" viewBox="0 0 55 55" fill="none" xmlns="http://www.w3.org/2000/svg">
<path d="M33.2292 26.3555C33.2292 26.3555 27.5 30.9388 27.5 38.9596" stroke="#35D36A" stroke-width="3.4375" stroke-linecap="round" stroke-linejoin="round"/>
<path d="M23.0662 20.7694C25.9292 17.9064 25.9292 13.2645 23.0662 10.4015C18.7463 6.08153 9.24241 6.94553 9.24241 6.94553C9.24241 6.94553 8.3784 16.4494 12.6984 20.7694C15.5614 23.6323 20.2033 23.6323 23.0662 20.7694Z" stroke="#35D36A" stroke-width="3.4375" stroke-linecap="round" stroke-linejoin="round"/>
<path d="M33.9186 25.6596C36.3727 28.1135 40.3515 28.1135 42.8054 25.6596C46.5083 21.9567 45.7676 13.8105 45.7676 13.8105C45.7676 13.8105 37.6214 13.0699 33.9186 16.7727C31.4646 19.2267 31.4646 23.2054 33.9186 25.6596Z" stroke="#35D36A" stroke-width="3.4375" stroke-linecap="round" stroke-linejoin="round"/>
<path d="M22.9219 21.7695C22.9219 21.7695 27.5052 27.4987 27.5052 38.9554" stroke="#35D36A" stroke-width="3.4375" stroke-linecap="round" stroke-linejoin="round"/>
<path d="M48.125 48.1237C43.0861 42.5025 35.7136 38.957 27.5 38.957C19.2865 38.957 11.914 42.5025 6.875 48.1237" stroke="#35D36A" stroke-width="3.4375" stroke-linecap="round" stroke-linejoin="round"/>
</svg>
