<svg width="55" height="55" viewBox="0 0 55 55" fill="none" xmlns="http://www.w3.org/2000/svg">
<path d="M4.57812 22.9154C6.36489 14.1706 12.9867 7.17006 21.5506 4.78775C22.2695 4.58778 22.6289 4.4878 22.8225 4.70202C23.0162 4.91625 22.8735 5.27049 22.5883 5.97894L20.6198 10.3112M32.0781 4.58203C40.8229 6.3688 47.8235 12.9906 50.2057 21.5545C50.4057 22.2734 50.5056 22.6328 50.2914 22.8264C50.0773 23.0201 49.723 22.8774 49.0145 22.5922L44.6823 20.6237M50.4115 32.082C48.6246 40.8268 42.0029 47.8274 33.4389 50.2096C32.72 50.4096 32.3607 50.5095 32.167 50.2953C31.9734 50.0812 32.1162 49.7269 32.4012 49.0184L34.3698 44.6862M22.9115 50.4154C14.1667 48.6285 7.16615 42.0068 4.78385 33.4428C4.58388 32.7239 4.48389 32.3646 4.69812 32.1709C4.91234 31.9773 5.26659 32.1201 5.97503 32.4052L10.3073 34.3737" stroke="#35D36A" stroke-width="3.4375" stroke-linecap="round"/>
<path d="M19.7431 26.7329L27.7619 16.44C28.3891 15.635 29.5645 16.136 29.5645 17.2083V25.1753C29.5645 25.8176 30.0256 26.3383 30.5941 26.3383H34.4943C35.3803 26.3383 35.8526 27.5183 35.2673 28.2697L27.2485 38.5625C26.6213 39.3675 25.4459 38.8666 25.4459 37.7943V29.8273C25.4459 29.185 24.9848 28.6643 24.4163 28.6643H20.516C19.63 28.6643 19.1577 27.4843 19.7431 26.7329Z" stroke="#35D36A" stroke-width="3.4375" stroke-linecap="round" stroke-linejoin="round"/>
</svg>
