<svg width="55" height="55" viewBox="0 0 55 55" fill="none" xmlns="http://www.w3.org/2000/svg">
<path d="M39.5438 45.6437C45.4098 41.7433 49.276 35.0739 49.276 27.5013C49.276 15.4776 39.5289 5.73047 27.5052 5.73047C25.8424 5.73047 24.2231 5.91687 22.6672 6.26995M39.5438 45.6437V38.9596M39.5438 45.6437H46.9844M15.4103 9.39656C9.57578 13.302 5.73438 19.9531 5.73438 27.5013C5.73438 39.525 15.4815 49.2721 27.5052 49.2721C29.168 49.2721 30.7873 49.0858 32.3431 48.7327M15.4103 9.39656V16.043M15.4103 9.39656H8.02604" stroke="#35D36A" stroke-width="3.4375" stroke-linecap="round" stroke-linejoin="round"/>
<path d="M28.6458 16.043L20.625 27.5013H34.375L26.3542 38.9596" stroke="#35D36A" stroke-width="3.4375" stroke-linecap="round" stroke-linejoin="round"/>
</svg>
