<svg width="55" height="55" viewBox="0 0 55 55" fill="none" xmlns="http://www.w3.org/2000/svg">
<path d="M18.3281 17.9631C18.3281 13.1688 22.6725 8.43098 25.7217 5.69604C27.3777 4.2107 29.9036 4.2107 31.5595 5.69604C34.6088 8.43098 38.9531 13.1688 38.9531 17.9631C38.9531 22.6638 35.0479 27.4987 28.6406 27.4987C22.2333 27.4987 18.3281 22.6638 18.3281 17.9631Z" stroke="#35D36A" stroke-width="3.4375"/>
<path d="M9.17188 32.082H14.66C15.3341 32.082 15.9989 32.234 16.6018 32.5257L21.2814 34.7899C21.8843 35.0816 22.5491 35.2333 23.2232 35.2333H25.6125C27.9234 35.2333 29.7969 37.0462 29.7969 39.2824C29.7969 39.3727 29.735 39.4523 29.6452 39.477L23.8223 41.0871C22.7777 41.3759 21.6592 41.2753 20.6875 40.805L15.685 38.3848" stroke="#35D36A" stroke-width="3.4375" stroke-linecap="round" stroke-linejoin="round"/>
<path d="M29.7969 37.8126L40.322 34.5788C42.1879 33.9974 44.2048 34.6867 45.3736 36.3053C46.2187 37.4755 45.8745 39.1514 44.6434 39.8618L27.4202 49.7991C26.3248 50.4312 25.0323 50.5854 23.8275 50.2279L9.17188 45.879" stroke="#35D36A" stroke-width="3.4375" stroke-linecap="round" stroke-linejoin="round"/>
</svg>
