<svg width="235" height="234" viewBox="0 0 235 234" fill="none" xmlns="http://www.w3.org/2000/svg">
<path d="M117.1 214.5V87.75" stroke="white" stroke-width="14.625" stroke-linecap="round" stroke-linejoin="round"/>
<path d="M87.8684 175.504C71.7141 175.504 58.6184 162.063 58.6184 145.908C42.081 143.543 29.3684 129.321 29.3684 112.129C29.3684 97.5356 38.5287 85.0819 51.413 80.2039C49.7778 76.5554 48.8684 72.5109 48.8684 68.2539C48.8684 52.0996 61.9641 39.0039 78.1184 39.0039C81.9233 39.0039 85.5586 39.7305 88.8929 41.0523C92.2734 28.6345 103.63 19.5039 117.119 19.5039C130.607 19.5039 141.964 28.6345 145.344 41.0523C148.679 39.7305 152.313 39.0039 156.119 39.0039C172.273 39.0039 185.369 52.0996 185.369 68.2539C185.369 72.5109 184.459 76.5554 182.824 80.2039C195.708 85.0819 204.869 97.5356 204.869 112.129C204.869 129.322 192.155 143.544 175.616 145.908C175.616 162.063 162.523 175.504 146.369 175.504" stroke="white" stroke-width="14.625" stroke-linecap="round" stroke-linejoin="round"/>
<path d="M117.1 146.254L141.475 121.879" stroke="white" stroke-width="14.625" stroke-linecap="round" stroke-linejoin="round"/>
<path d="M117.1 126.75L92.7253 102.375" stroke="white" stroke-width="14.625" stroke-linecap="round" stroke-linejoin="round"/>
<path d="M97.6006 214.492H136.601" stroke="white" stroke-width="14.625" stroke-linecap="round" stroke-linejoin="round"/>
</svg>
