<svg width="55" height="55" viewBox="0 0 55 55" fill="none" xmlns="http://www.w3.org/2000/svg">
<path d="M47.6071 41.25C49.3242 41.25 50.6901 40.1695 51.9163 38.6584C54.4269 35.5653 50.3051 33.0935 48.733 31.883C47.135 30.6524 45.3507 29.9553 43.5417 29.7917M41.25 25.2083C44.4141 25.2083 46.9792 22.6433 46.9792 19.4792C46.9792 16.315 44.4141 13.75 41.25 13.75" stroke="#35D36A" stroke-width="3.4375" stroke-linecap="round"/>
<path d="M7.39804 41.25C5.68087 41.25 4.31508 40.1695 3.08874 38.6584C0.578334 35.5653 4.70008 33.0935 6.2721 31.883C7.87015 30.6524 9.65446 29.9553 11.4635 29.7917M12.6094 25.2083C9.44525 25.2083 6.88022 22.6433 6.88022 19.4792C6.88022 16.315 9.44525 13.75 12.6094 13.75" stroke="#35D36A" stroke-width="3.4375" stroke-linecap="round"/>
<path d="M18.5306 34.6285C16.189 36.0764 10.0495 39.0329 13.7889 42.7323C15.6155 44.5395 17.6499 45.832 20.2077 45.832H34.8028C37.3606 45.832 39.3949 44.5395 41.2216 42.7323C44.9609 39.0329 38.8215 36.0764 36.4799 34.6285C30.9888 31.2332 24.0215 31.2332 18.5306 34.6285Z" stroke="#35D36A" stroke-width="3.4375" stroke-linecap="round" stroke-linejoin="round"/>
<path d="M35.5261 17.1888C35.5261 21.6186 31.935 25.2096 27.5053 25.2096C23.0755 25.2096 19.4844 21.6186 19.4844 17.1888C19.4844 12.759 23.0755 9.16797 27.5053 9.16797C31.935 9.16797 35.5261 12.759 35.5261 17.1888Z" stroke="#35D36A" stroke-width="3.4375"/>
</svg>
