<svg width="234" height="234" viewBox="0 0 234 234" fill="none" xmlns="http://www.w3.org/2000/svg">
<path d="M126.75 68.25C126.75 89.7891 109.288 107.25 87.7495 107.25C66.2104 107.25 48.7495 89.7891 48.7495 68.25C48.7495 46.7109 66.2104 29.25 87.7495 29.25C109.288 29.25 126.75 46.7109 126.75 68.25Z" stroke="white" stroke-width="14.625"/>
<path d="M146.25 107.25C167.789 107.25 185.25 89.7891 185.25 68.25C185.25 46.7109 167.789 29.25 146.25 29.25" stroke="white" stroke-width="14.625" stroke-linecap="round" stroke-linejoin="round"/>
<path d="M107.25 136.504H68.2495C41.3257 136.504 19.4995 158.33 19.4995 185.254C19.4995 196.024 28.23 204.754 38.9995 204.754H136.5C147.269 204.754 156 196.024 156 185.254C156 158.33 134.173 136.504 107.25 136.504Z" stroke="white" stroke-width="14.625" stroke-linejoin="round"/>
<path d="M165.75 136.504C192.673 136.504 214.5 158.33 214.5 185.254C214.5 196.024 205.769 204.754 195 204.754H180.375" stroke="white" stroke-width="14.625" stroke-linecap="round" stroke-linejoin="round"/>
</svg>
