<svg width="50" height="50" viewBox="0 0 50 50" fill="none" xmlns="http://www.w3.org/2000/svg">
<path d="M30.2083 21.875C30.2083 21.875 25 26.0417 25 31.25" stroke="#35D36A" stroke-width="3.125" stroke-linecap="round" stroke-linejoin="round"/>
<path d="M12.5 31.25H37.5" stroke="#35D36A" stroke-width="3.125" stroke-linecap="round" stroke-linejoin="round"/>
<path d="M14.584 31.25L15.6452 38.6785C16.1325 42.0898 16.3762 43.7954 17.551 44.8144C18.7259 45.8333 20.4489 45.8333 23.8948 45.8333H26.1065C29.5525 45.8333 31.2754 45.8333 32.4502 44.8144C33.625 43.7954 33.8688 42.0898 34.3561 38.6785L35.4173 31.25" stroke="#35D36A" stroke-width="3.125" stroke-linecap="round" stroke-linejoin="round"/>
<path d="M20.9652 16.798C23.5679 14.1953 23.5679 9.97539 20.9652 7.37266C17.038 3.44541 8.3981 4.23087 8.3981 4.23087C8.3981 4.23087 7.61265 12.8708 11.5399 16.798C14.1426 19.4008 18.3625 19.4008 20.9652 16.798Z" stroke="#35D36A" stroke-width="3.125" stroke-linecap="round" stroke-linejoin="round"/>
<path d="M30.8391 21.2436C33.0702 23.4745 36.6873 23.4745 38.9181 21.2436C42.2843 17.8774 41.611 10.4717 41.611 10.4717C41.611 10.4717 34.2054 9.79846 30.8391 13.1647C28.6083 15.3956 28.6083 19.0126 30.8391 21.2436Z" stroke="#35D36A" stroke-width="3.125" stroke-linecap="round" stroke-linejoin="round"/>
<path d="M20.834 17.7083C20.834 17.7083 25.0007 22.9166 25.0007 31.2485" stroke="#35D36A" stroke-width="3.125" stroke-linecap="round" stroke-linejoin="round"/>
</svg>
