<svg width="50" height="50" viewBox="0 0 50 50" fill="none" xmlns="http://www.w3.org/2000/svg">
<path d="M22.5798 41.1732H34.3058C40.2752 41.1732 43.26 41.1732 44.7123 39.5913C45.1198 39.1474 45.4354 38.6334 45.6425 38.0763C46.38 36.0915 44.9306 33.5911 42.0314 28.5905M22.5798 41.1732L28.6585 36.513M22.5798 41.1732L28.6585 45.8334M38.5193 22.5322L32.3056 11.8136C29.6464 7.22654 28.3168 4.93302 26.4583 4.37787C25.516 4.09637 24.5064 4.09637 23.5641 4.37787C21.7056 4.93302 20.376 7.22654 17.7168 11.8136M38.5193 22.5322L31.2737 19.8052M38.5193 22.5322L39.7052 15.1592M14.2047 17.8719L7.78147 28.9518C5.07291 33.624 3.71861 35.9601 4.29838 37.8361C4.52405 38.5665 4.93307 39.2326 5.48963 39.7763C6.91941 41.1732 9.70805 41.1732 15.2853 41.1732M14.2047 17.8719L15.3331 25.2532M14.2047 17.8719L6.93795 20.5472" stroke="#FF71B8" stroke-width="3.125" stroke-linecap="round" stroke-linejoin="round"/>
</svg>
