<svg width="50" height="50" viewBox="0 0 50 50" fill="none" xmlns="http://www.w3.org/2000/svg">
<path d="M18.7494 7.75621C10.3994 9.6509 4.16602 17.1183 4.16602 26.0416C4.16602 27.1064 4.25477 28.1503 4.42527 29.1666M18.7494 7.75621L12.4993 5.20825M18.7494 7.75621L16.666 13.5416M39.7171 34.3749C40.9646 31.8645 41.666 29.0349 41.666 26.0416C41.666 16.751 34.9089 9.03856 26.041 7.55084M39.7171 34.3749L45.8327 30.2083M39.7171 34.3749L36.4577 28.1249M7.32341 36.4583C10.687 41.4833 16.4151 44.7916 22.916 44.7916C27.7183 44.7916 32.0987 42.9862 35.416 40.0172M7.32341 36.4583H14.5827M7.32341 36.4583V43.7499" stroke="#F5A864" stroke-width="3.125" stroke-linecap="round" stroke-linejoin="round"/>
</svg>
