<svg width="50" height="50" viewBox="0 0 50 50" fill="none" xmlns="http://www.w3.org/2000/svg">
<path d="M8.06917 35.4571L5.56175 20.4996C5.18263 18.2381 4.99309 17.1073 5.60009 16.3662C6.20711 15.625 7.32275 15.625 9.55407 15.625H40.4473C42.6786 15.625 43.7942 15.625 44.4013 16.3662C45.0081 17.1073 44.8186 18.2381 44.4396 20.4996L41.9321 35.4571C41.1011 40.4148 40.6854 42.8935 38.9888 44.3635C37.2923 45.8333 34.8465 45.8333 29.9552 45.8333H20.0461C15.1547 45.8333 12.709 45.8333 11.0124 44.3635C9.3158 42.8935 8.90026 40.4148 8.06917 35.4571Z" stroke="#F86CFF" stroke-width="3.125"/>
<path d="M36.4577 15.6251C36.4577 9.29681 31.3277 4.16675 24.9993 4.16675C18.6711 4.16675 13.541 9.29681 13.541 15.6251" stroke="#F86CFF" stroke-width="3.125"/>
</svg>
