<svg width="50" height="50" viewBox="0 0 50 50" fill="none" xmlns="http://www.w3.org/2000/svg">
<path d="M42.4127 27.8264C39.9346 30.3041 35.2719 30.2078 28.1227 30.2078C23.5231 30.2078 19.7939 26.473 19.7915 21.8735C19.7915 14.7291 19.6952 10.0638 22.1733 7.58613C24.6512 5.1085 25.7458 5.20881 36.7231 5.20881C37.7839 5.20427 38.3179 6.48719 37.5679 7.23729L31.9158 12.8898C30.4812 14.3245 30.4773 16.6506 31.9121 18.0852C33.3469 19.5198 35.6731 19.5199 37.1081 18.0855L42.7616 12.4344C43.5119 11.6845 44.795 12.2183 44.7904 13.279C44.7904 24.2545 44.8908 25.3489 42.4127 27.8264Z" stroke="#6692FE" stroke-width="3.125"/>
<path d="M28.1256 30.2083L15.2682 43.0658C12.967 45.3669 9.23606 45.3669 6.93488 43.0658C4.63369 40.7646 4.63369 37.0335 6.93488 34.7325L19.7923 21.875" stroke="#6692FE" stroke-width="3.125" stroke-linecap="round"/>
<path d="M11.4777 38.5417H11.459" stroke="#6692FE" stroke-width="4.16667" stroke-linecap="round" stroke-linejoin="round"/>
</svg>
