<svg width="50" height="50" viewBox="0 0 50 50" fill="none" xmlns="http://www.w3.org/2000/svg">
<path d="M35.416 42.709V45.834" stroke="#101C3A" stroke-width="3.125" stroke-linecap="round" stroke-linejoin="round"/>
<path d="M14.584 42.709V45.834" stroke="#101C3A" stroke-width="3.125" stroke-linecap="round" stroke-linejoin="round"/>
<path d="M8.33398 14.1282C8.33398 12.7962 8.33398 12.1302 8.69621 11.3192C9.05842 10.5083 9.42621 10.1786 10.1618 9.51943C12.5723 7.35929 17.4179 4.16602 25.0007 4.16602C32.5834 4.16602 37.429 7.35929 39.8394 9.51943C40.575 10.1786 40.9429 10.5083 41.305 11.3192C41.6673 12.1302 41.6673 12.7962 41.6673 14.1282V29.166C41.6673 35.0585 41.6673 38.0048 39.8367 39.8354C38.0061 41.666 35.0598 41.666 29.1673 41.666H20.834C14.9414 41.666 11.9952 41.666 10.1646 39.8354C8.33398 38.0048 8.33398 35.0585 8.33398 29.166V14.1282Z" stroke="#101C3A" stroke-width="3.125" stroke-linejoin="round"/>
<path d="M8.33398 29.166C8.33398 29.166 16.1118 31.2493 25.0007 31.2493C33.8896 31.2493 41.6673 29.166 41.6673 29.166" stroke="#101C3A" stroke-width="3.125" stroke-linecap="round" stroke-linejoin="round"/>
<path d="M9.375 36.459H12.5" stroke="#101C3A" stroke-width="3.125" stroke-linecap="round" stroke-linejoin="round"/>
<path d="M37.5 36.459H40.625" stroke="#101C3A" stroke-width="3.125" stroke-linecap="round" stroke-linejoin="round"/>
<path d="M22.916 36.459H27.0827" stroke="#101C3A" stroke-width="3.125" stroke-linecap="round" stroke-linejoin="round"/>
<path d="M8.33398 12.5H41.6673" stroke="#101C3A" stroke-width="3.125" stroke-linejoin="round"/>
<path d="M4.16602 18.75V20.8333" stroke="#101C3A" stroke-width="3.125" stroke-linecap="round" stroke-linejoin="round"/>
<path d="M45.834 18.75V20.8333" stroke="#101C3A" stroke-width="3.125" stroke-linecap="round" stroke-linejoin="round"/>
</svg>
