<svg width="50" height="50" viewBox="0 0 50 50" fill="none" xmlns="http://www.w3.org/2000/svg">
<path d="M35.416 42.7109V45.8359" stroke="#3B5FFF" stroke-width="3.125" stroke-linecap="round" stroke-linejoin="round"/>
<path d="M14.584 42.7109V45.8359" stroke="#3B5FFF" stroke-width="3.125" stroke-linecap="round" stroke-linejoin="round"/>
<path d="M8.33398 14.1263C8.33398 12.7943 8.33398 12.1283 8.69621 11.3173C9.05842 10.5063 9.42621 10.1767 10.1618 9.51748C12.5723 7.35733 17.4179 4.16406 25.0007 4.16406C32.5834 4.16406 37.429 7.35733 39.8394 9.51748C40.575 10.1767 40.9429 10.5063 41.305 11.3173C41.6673 12.1283 41.6673 12.7943 41.6673 14.1263V29.1641C41.6673 35.0566 41.6673 38.0028 39.8367 39.8334C38.0061 41.6641 35.0598 41.6641 29.1673 41.6641H20.834C14.9414 41.6641 11.9952 41.6641 10.1646 39.8334C8.33398 38.0028 8.33398 35.0566 8.33398 29.1641V14.1263Z" stroke="#3B5FFF" stroke-width="3.125" stroke-linejoin="round"/>
<path d="M8.33398 29.1641C8.33398 29.1641 16.1118 31.2474 25.0007 31.2474C33.8896 31.2474 41.6673 29.1641 41.6673 29.1641" stroke="#3B5FFF" stroke-width="3.125" stroke-linecap="round" stroke-linejoin="round"/>
<path d="M9.375 36.4609H12.5" stroke="#3B5FFF" stroke-width="3.125" stroke-linecap="round" stroke-linejoin="round"/>
<path d="M37.5 36.4609H40.625" stroke="#3B5FFF" stroke-width="3.125" stroke-linecap="round" stroke-linejoin="round"/>
<path d="M22.916 36.4609H27.0827" stroke="#3B5FFF" stroke-width="3.125" stroke-linecap="round" stroke-linejoin="round"/>
<path d="M8.33398 12.5H41.6673" stroke="#3B5FFF" stroke-width="3.125" stroke-linejoin="round"/>
<path d="M4.16602 18.75V20.8333" stroke="#3B5FFF" stroke-width="3.125" stroke-linecap="round" stroke-linejoin="round"/>
<path d="M45.834 18.75V20.8333" stroke="#3B5FFF" stroke-width="3.125" stroke-linecap="round" stroke-linejoin="round"/>
</svg>
