<svg width="30" height="30" viewBox="0 0 30 30" fill="none" xmlns="http://www.w3.org/2000/svg">
<path d="M11.4478 7.14029L10.9445 6.00781C10.6154 5.26735 10.4508 4.8971 10.2048 4.61376C9.89635 4.25868 9.49433 3.99743 9.0446 3.85981C8.68573 3.75 8.28057 3.75 7.47026 3.75C6.28488 3.75 5.6922 3.75 5.19466 3.97786C4.60858 4.24628 4.0793 4.8291 3.86841 5.43825C3.68938 5.95536 3.74067 6.48679 3.84322 7.54963C4.93488 18.8627 11.1373 25.0651 22.4503 26.1567C23.5132 26.2594 24.0447 26.3106 24.5617 26.1316C25.1709 25.9208 25.7537 25.3914 26.0222 24.8054C26.2499 24.3077 26.2499 23.7151 26.2499 22.5297C26.2499 21.7194 26.2499 21.3142 26.1402 20.9554C26.0026 20.5056 25.7413 20.1036 25.3862 19.7952C25.1029 19.5491 24.7327 19.3846 23.9922 19.0555L22.8597 18.5521C22.0578 18.1957 21.6568 18.0176 21.2494 17.9789C20.8594 17.9417 20.4663 17.9965 20.1013 18.1386C19.7199 18.2871 19.3829 18.568 18.7087 19.1297C18.0377 19.689 17.7022 19.9686 17.2922 20.1184C16.9287 20.2511 16.4482 20.3004 16.0654 20.2439C15.6336 20.1803 15.3029 20.0036 14.6416 19.6501C12.5841 18.5506 11.4494 17.416 10.3498 15.3584C9.99642 14.6971 9.81972 14.3664 9.75608 13.9346C9.69967 13.5518 9.74885 13.0712 9.88162 12.7079C10.0314 12.2978 10.311 11.9623 10.8702 11.2912C11.432 10.6171 11.7129 10.28 11.8614 9.89864C12.0036 9.53368 12.0583 9.1405 12.0212 8.7506C11.9824 8.34315 11.8042 7.9422 11.4478 7.14029Z" stroke="#141B34" stroke-width="1.875" stroke-linecap="round"/>
</svg>
