<svg width="50" height="50" viewBox="0 0 50 50" fill="none" xmlns="http://www.w3.org/2000/svg">
<path d="M40.625 11.459L39.334 32.3446C39.004 37.6806 38.8392 40.3488 37.5017 42.2671C36.8402 43.2154 35.989 44.0159 35.0015 44.6173C33.0044 45.834 30.3312 45.834 24.9848 45.834C19.6315 45.834 16.9548 45.834 14.9564 44.615C13.9683 44.0125 13.1167 43.2106 12.4556 42.2606C11.1185 40.3394 10.9572 37.6675 10.6346 32.324L9.375 11.459" stroke="#101C3A" stroke-width="3.125" stroke-linecap="round"/>
<path d="M6.25 11.4577H43.75M33.4494 11.4577L32.0273 8.52379C31.0825 6.57489 30.61 5.60043 29.7952 4.9927C29.6146 4.85789 29.4231 4.73797 29.2229 4.63414C28.3206 4.16602 27.2377 4.16602 25.0719 4.16602C22.8517 4.16602 21.7417 4.16602 20.8243 4.65377C20.621 4.76187 20.427 4.88664 20.2444 5.02679C19.4201 5.65914 18.9596 6.66924 18.0388 8.68947L16.7769 11.4577" stroke="#101C3A" stroke-width="3.125" stroke-linecap="round"/>
</svg>
