<svg width="50" height="50" viewBox="0 0 50 50" fill="none" xmlns="http://www.w3.org/2000/svg">
<path d="M35.4167 27.5668C35.4167 27.5668 33.5227 26.6053 31.6288 26.6053C28.7879 26.6053 25 30.4514 25 36.2205C25 41.9895 30.1867 45.8359 35.4167 45.8359C40.6467 45.8359 45.8333 41.9895 45.8333 36.2205C45.8333 30.4514 42.0454 26.6053 39.2046 26.6053C37.3106 26.6053 35.4167 27.5668 35.4167 27.5668ZM35.4167 27.5668C35.4167 24.6822 37.3106 20.8359 41.0985 20.8359" stroke="#35D36A" stroke-width="3.125" stroke-linecap="round" stroke-linejoin="round"/>
<path d="M22.1973 10.4141C24.0643 10.4141 25.5781 9.01496 25.5781 7.28906C25.5781 5.56317 24.0643 4.16406 22.1973 4.16406H10.9277C9.06052 4.16406 7.54685 5.56317 7.54685 7.28906C7.54685 9.01496 9.06052 10.4141 10.9277 10.4141M23.2687 10.2539C25.2591 13.9337 26.8941 17.2544 27.8927 20.8307C27.9741 21.1226 28.0514 21.4161 28.1244 21.7118M21.7244 45.8307H13.1816C5.7227 45.8307 4.16602 44.3918 4.16602 37.4974V28.6997C4.16602 21.6168 6.45262 16.4258 9.80075 10.2363" stroke="#35D36A" stroke-width="3.125" stroke-linecap="round" stroke-linejoin="round"/>
</svg>
