<svg width="50" height="50" viewBox="0 0 50 50" fill="none" xmlns="http://www.w3.org/2000/svg">
<path d="M35.4167 27.5648C35.4167 27.5648 33.5227 26.6034 31.6288 26.6034C28.7879 26.6034 25 30.4494 25 36.2186C25 41.9875 30.1867 45.834 35.4167 45.834C40.6467 45.834 45.8333 41.9875 45.8333 36.2186C45.8333 30.4494 42.0454 26.6034 39.2046 26.6034C37.3106 26.6034 35.4167 27.5648 35.4167 27.5648ZM35.4167 27.5648C35.4167 24.6802 37.3106 20.834 41.0985 20.834" stroke="#101C3A" stroke-width="3.125" stroke-linecap="round" stroke-linejoin="round"/>
<path d="M22.1973 10.416C24.0643 10.416 25.5781 9.01691 25.5781 7.29102C25.5781 5.56512 24.0643 4.16602 22.1973 4.16602H10.9277C9.06052 4.16602 7.54685 5.56512 7.54685 7.29102C7.54685 9.01691 9.06052 10.416 10.9277 10.416M23.2687 10.2558C25.2591 13.9357 26.8941 17.2564 27.8927 20.8327C27.9741 21.1246 28.0514 21.4181 28.1244 21.7137M21.7244 45.8327H13.1816C5.7227 45.8327 4.16602 44.3937 4.16602 37.4994V28.7016C4.16602 21.6187 6.45262 16.4277 9.80075 10.2382" stroke="#101C3A" stroke-width="3.125" stroke-linecap="round" stroke-linejoin="round"/>
</svg>
