<svg width="50" height="50" viewBox="0 0 50 50" fill="none" xmlns="http://www.w3.org/2000/svg">
<path d="M33.0973 8.49219C35.7265 11.5661 37.3354 15.6939 37.3354 20.2322C37.3354 29.7327 30.284 37.4344 21.5856 37.4344C16.7533 37.4344 12.5804 35.2263 9.74609 31.7165" stroke="#101C3A" stroke-width="3.125" stroke-linecap="round"/>
<path d="M34.2021 7.44163L27.8244 13.3637C27.6377 13.537 27.6502 13.8355 27.8192 14.0263C29.2298 15.621 29.2657 19.0462 27.6479 21.1871C25.9271 23.4642 23.3659 23.1553 22.4448 22.6813L21.9229 24.1473C21.7254 24.7021 21.1679 25.044 20.5837 24.9688L17.1631 24.5284C16.9031 24.4948 16.6424 24.5855 16.4593 24.773L10.373 31.0057L7.45868 34.1205C5.67093 36.0313 5.84295 39.068 8.13107 40.3382C15.3669 44.3553 26.9919 46.523 37.1709 36.9482C46.5773 27.2273 44.184 15.4311 40.4802 8.24232C39.2573 5.86888 36.159 5.62457 34.2021 7.44163Z" stroke="#101C3A" stroke-width="3.125" stroke-linecap="round" stroke-linejoin="round"/>
</svg>
